<?xml version="1.0" encoding="utf-8"?>
<!-- Generator: Adobe Illustrator 26.0.1, SVG Export Plug-In . SVG Version: 6.00 Build 0)  -->
<svg version="1.1" id="Capa_1" xmlns="http://www.w3.org/2000/svg" xmlns:xlink="http://www.w3.org/1999/xlink" x="0px" y="0px"
	 viewBox="0 0 1000 469.3" style="enable-background:new 0 0 1000 469.3;" xml:space="preserve">
<style type="text/css">
	.st0{fill:url(#SVGID_1_);}
	.st1{fill:url(#SVGID_00000141431242677268173840000002990712360130132647_);}
	.st2{fill:url(#SVGID_00000101087603246549041240000008858992549256421269_);}
	.st3{fill:#FFFFFF;}
	.st4{fill:url(#SVGID_00000039126706077950756910000017853291006366663308_);}
	.st5{fill:url(#SVGID_00000016793171467871918240000009130949435262220675_);}
	.st6{opacity:0.1;fill:#000100;}
	.st7{opacity:0;fill:#000100;}
	.st8{opacity:0.2;fill:#FFFFFF;}
	.st9{fill:#585857;}
	.st10{fill:url(#SVGID_00000122690488459608173080000005099656491616855939_);}
	.st11{fill:url(#SVGID_00000137831144576651459620000018286480373723991984_);}
	.st12{fill:url(#SVGID_00000060725802115036852860000007537219836265106824_);}
	.st13{fill:url(#SVGID_00000013879977973862427490000003950234568729097401_);}
	.st14{fill:url(#SVGID_00000181769048547992521030000007870319809435801993_);}
</style>
<linearGradient id="SVGID_1_" gradientUnits="userSpaceOnUse" x1="246.8327" y1="213.5389" x2="732.1562" y2="213.5389">
	<stop  offset="0" style="stop-color:#1470B5"/>
	<stop  offset="1" style="stop-color:#1E2D52"/>
</linearGradient>
<path class="st0" d="M708.7,54.6H527.5h-76.1H270.3c-13,0-23.5,10.5-23.5,23.5V349c0,13,10.5,23.5,23.5,23.5h181.1l0,0h76.1h181.1
	c13,0,23.5-10.5,23.5-23.5V78.1C732.2,65.1,721.6,54.6,708.7,54.6z"/>
<g>
	
		<image style="overflow:visible;" width="3485" height="1355" xlink:href="FD9EDDC558EEBF36.png"  transform="matrix(0.24 0 0 0.24 71.76 102.96)">
	</image>
</g>
<linearGradient id="SVGID_00000028304685059550931550000003913095617661014446_" gradientUnits="userSpaceOnUse" x1="754.0693" y1="110.1871" x2="754.0693" y2="408.0777">
	<stop  offset="0" style="stop-color:#1470B5"/>
	<stop  offset="1" style="stop-color:#1E2D52"/>
</linearGradient>
<path style="fill:url(#SVGID_00000028304685059550931550000003913095617661014446_);" d="M891.7,384.6V133.7
	c0-13-10.6-23.5-23.7-23.5H616.5v297.9l0,0H868C881.1,408.1,891.7,397.6,891.7,384.6z"/>
<linearGradient id="SVGID_00000143587601437681159550000012982950609766060175_" gradientUnits="userSpaceOnUse" x1="3891.7739" y1="110.1871" x2="3891.7739" y2="408.0777" gradientTransform="matrix(-1 0 0 1 4113.3848 0)">
	<stop  offset="0" style="stop-color:#1470B5"/>
	<stop  offset="1" style="stop-color:#1E2D52"/>
</linearGradient>
<path style="fill:url(#SVGID_00000143587601437681159550000012982950609766060175_);" d="M81.3,384.6V133.7
	c0-13,10.5-23.5,23.5-23.5H362v297.9l0,0H104.7C91.8,408.1,81.3,397.6,81.3,384.6z"/>
<g>
	<g>
		<path class="st3" d="M194.2,175.4l-12.3-18.2l0.3,18.2h-2.8V153h2.8l12.1,18l-0.1-18h2.7v22.4H194.2z"/>
		<path class="st3" d="M201.5,175.4V153h3v22.4H201.5z"/>
		<path class="st3" d="M217.5,175.4h-3L207,153h3.2l5.9,18.7l6.2-18.7h3.2L217.5,175.4z"/>
		<path class="st3" d="M228.3,175.4V153h15.4v2.6h-12.6v6.9H242v2.6h-10.9v7.6h12.9v2.6H228.3z"/>
		<path class="st3" d="M247.1,175.4V153h3v19.7h10.8v2.7H247.1z"/>
		<path class="st3" d="M167.9,205.7c-1.3,0.4-2.3,0.4-4.8,0.4h-8.8v-22.4h10.5c1.8,0,3.4,0.4,4.8,1.6c1.2,1,1.8,2.5,1.8,4.1
			c0,1.5-0.5,2.7-1.5,3.7c-0.5,0.4-1,0.8-1.2,0.9c-0.1,0.1-0.3,0.2-0.7,0.3c0.6,0.2,1.2,0.4,1.8,0.8c1,0.6,2.3,2,2.3,4.8
			C172.2,203.9,169.3,205.3,167.9,205.7z M167,186.9c-0.9-0.5-1.6-0.6-3.5-0.6h-6.4v6.8h4.7c1.9,0,3.4,0,4.1-0.2
			c0.8-0.2,2.4-1,2.4-3.3C168.4,189,168.3,187.7,167,186.9z M168.8,198.1c-0.3-0.6-1-1.8-2.7-2.2c-1-0.2-1.6-0.2-3.5-0.2h-5.5v7.8
			h6.6c1.2,0,2.3-0.1,2.7-0.2c0.2,0,0.7-0.2,1.1-0.4c0.7-0.4,1.5-1.2,1.5-3.1C169.1,199.4,169.1,198.7,168.8,198.1z"/>
		<path class="st3" d="M191,206.1l-6.1-9.5h-5.8v9.5h-2.9v-22.4h8.3c0.7,0,1.4,0,2.1,0c3.1,0.1,4.6,1.1,5.5,2.3
			c0.6,0.7,1.4,2.1,1.4,4.3c0,0.9-0.1,4-3,5.4c-0.5,0.3-1.1,0.5-2.3,0.7l6.3,9.7H191z M188.8,186.8c-1.2-0.7-2.6-0.6-3.9-0.6h-5.8
			v7.9h6c1.7,0,3.7,0,4.8-1.5c0.5-0.7,0.7-1.5,0.7-2.3C190.6,189.6,190.5,187.9,188.8,186.8z"/>
		<path class="st3" d="M216.7,202.5c-1.2,1.6-3.9,4.2-9,4.2c-1.4,0-4.8-0.2-7.7-2.9c-1.5-1.4-3.5-4.1-3.5-8.9c0-1.3,0.1-5.1,2.8-8.2
			c2.1-2.4,5.4-3.5,8.5-3.5c1.5,0,3,0.3,4.4,0.8c4.7,1.8,6.8,6,6.8,10.8C219,195.9,218.9,199.5,216.7,202.5z M214.1,188.5
			c-2.1-2.8-5.1-3-6.3-3c-3.6,0-5.5,1.8-6.3,3.1c-1.2,1.8-1.7,4.2-1.7,6.3c0,3,0.9,4.9,1.5,5.9c0.5,0.8,1.2,1.5,1.4,1.7
			c0.9,0.8,1.7,1.1,2.2,1.3c0.6,0.2,1.5,0.5,3,0.5c0.6,0,2,0,3.4-0.7c2.2-1,4.6-3.6,4.6-8.9C215.8,193.9,215.8,190.9,214.1,188.5z"
			/>
		<path class="st3" d="M237.9,206.1l-12.3-18.2l0.3,18.2h-2.8v-22.4h2.8l12.1,18l-0.1-18h2.7v22.4H237.9z"/>
		<path class="st3" d="M266.1,199.8c-0.6,1.5-2.5,5.1-6.9,6.4c-1.6,0.5-3,0.5-3.6,0.5c-4,0-6.2-1.6-7.4-2.7
			c-1.5-1.4-3.5-4.2-3.5-9.1c0-7,4.2-11.8,11.3-11.8c1.3,0,5.5,0.1,8.2,3.3c0.9,1.1,1.5,2.2,2,3.5l-3,0.6c-0.4-1.1-0.7-1.7-1-2.1
			c-0.8-1.1-2.7-3-6.2-3c-0.5,0-1.9,0.1-3.3,0.6c-4.7,2-4.7,7.4-4.7,8.6c0,5.4,2.6,7.9,4.8,8.9c0.6,0.2,1.6,0.6,3.3,0.6
			c0.4,0,1.3,0,2.3-0.3c0.9-0.3,3-1.1,4.2-3.4c0.3-0.7,0.6-1.4,0.9-2.9l3.2,0.4C266.5,198.3,266.4,199,266.1,199.8z"/>
		<path class="st3" d="M269.8,206.1v-22.4h15.4v2.6h-12.6v6.9h10.9v2.6h-10.9v7.6h12.9v2.6H269.8z"/>
	</g>
</g>
<g>
	<g>
		<path class="st3" d="M319.5,93.2c-1.9,1-4.3,0.9-6.3,0.9h-8V71.7h9.3c0.5,0,1,0,1.5,0c0.8,0,3.2,0.1,4.8,2.2c1,1.3,1,2.8,1,3.3
			c0,0.7-0.1,2.7-2,4c-0.9,0.6-1.6,0.8-2,0.8c3,0.6,4.8,2.6,4.8,5.7C322.6,88.8,322.4,91.7,319.5,93.2z M319,75
			c-1.1-1.6-3.2-1.5-4.9-1.5h-6.7v7.6h6.3c1.7,0,3.9,0.1,5.1-1.5c0.5-0.7,0.8-1.6,0.8-2.4C319.6,76.9,319.6,75.9,319,75z
			 M318.2,83.8c-1.4-0.8-3-0.8-4.6-0.8h-6.2v9.1h5.7c1.9,0,3.4,0,4.2-0.2c1-0.2,3.2-1.2,3.2-4.1C320.4,87,320.3,85,318.2,83.8z"/>
		<path class="st3" d="M337.9,92c-0.8,1-2.3,2.4-5.4,2.4c-0.5,0-2.1,0-3.5-0.8c-3.6-1.9-3.7-6.3-3.7-7.3c0-0.5,0-1.7,0.5-3.1
			c1-2.9,3.5-4.7,6.5-4.7c0.9,0,3.1,0.2,4.9,2.2c1.2,1.4,2,3.5,2,5.3v0.5h-11.7c0,1.2,0.1,2,0.3,2.5c0.3,1.2,1.4,3.7,4.9,3.7
			c1.3,0,3.4-0.3,4.9-3.2l1.7,0.5C338.9,90.4,338.5,91.3,337.9,92z M332.2,80.2c-2.6,0-3.9,1.8-4.3,2.6c-0.3,0.6-0.5,1.4-0.6,2.1
			h9.5C336.5,81.1,333.9,80.2,332.2,80.2z"/>
		<path class="st3" d="M352.7,94.1v-7.9c0-2,0-3.2-0.3-4.1c-0.3-0.8-0.9-1.1-1.1-1.3c-0.9-0.5-1.7-0.5-2.1-0.5c-0.3,0-1.2,0-2,0.4
			c-1.1,0.5-2,1.7-2.3,2.9c-0.2,0.7-0.2,2-0.2,3.8v6.6h-1.9V78.9h1.9v2.7c0.1-0.4,0.3-1,1.1-1.7c0.6-0.6,1.7-1.3,3.7-1.3
			c2.8,0,4.1,1.6,4.6,2.6c0.6,1.2,0.5,2.4,0.5,5v7.9H352.7z"/>
		<path class="st3" d="M370.9,92c-0.8,1-2.3,2.4-5.4,2.4c-0.5,0-2.1,0-3.5-0.8c-3.6-1.9-3.7-6.3-3.7-7.3c0-0.5,0-1.7,0.5-3.1
			c1-2.9,3.5-4.7,6.5-4.7c0.9,0,3.1,0.2,4.9,2.2c1.2,1.4,2,3.5,2,5.3v0.5h-11.7c0,1.2,0.1,2,0.3,2.5c0.3,1.2,1.4,3.7,4.9,3.7
			c1.3,0,3.4-0.3,4.9-3.2l1.7,0.5C372,90.4,371.6,91.3,370.9,92z M365.3,80.2c-2.6,0-3.9,1.8-4.3,2.6c-0.3,0.6-0.5,1.4-0.6,2.1h9.5
			C369.5,81.1,366.9,80.2,365.3,80.2z"/>
		<path class="st3" d="M378.4,80.5v13.5h-1.9V80.5h-3.3v-1.6h3.3v-2.9c0-1.6-0.1-2.1,0.2-2.9c0.3-1,1-1.9,3.2-1.9
			c0.7,0,1.2,0.1,1.9,0.2v1.8c-0.3-0.1-0.9-0.4-1.8-0.4c-0.6,0-0.9,0.2-1.1,0.4c-0.6,0.6-0.5,1.2-0.5,2.6v3h3.4v1.6H378.4z"/>
		<path class="st3" d="M384.8,75.4v-2.9h1.8v2.9H384.8z M384.8,94.1V78.9h1.8v15.1H384.8z"/>
		<path class="st3" d="M401.7,93c-0.7,0.6-2.1,1.5-4.4,1.5c-0.8,0-2.9-0.1-4.6-1.7c-2.3-2.1-2.3-5.3-2.3-6.1c0-1.1,0.1-2.1,0.5-3.1
			c1-3.1,3.5-4.9,6.8-4.9c2.4,0,3.7,0.9,4.4,1.7c0.9,0.9,1.2,1.7,1.3,2.1l-1.7,0.4c-0.7-1.7-2.3-2.5-4.1-2.5c-0.6,0-1.9,0.1-3.1,1.1
			c-2,1.7-2,4.5-2,5.2c0,0.4,0.1,3,1.4,4.7c0.2,0.3,0.7,0.7,1.5,1.1c0.4,0.2,1,0.4,2.1,0.4c1.9,0,3.2-0.9,4.1-2.5l1.9,0.4
			C403,91.6,402.5,92.3,401.7,93z"/>
		<path class="st3" d="M406.6,75.4v-2.9h1.8v2.9H406.6z M406.6,94.1V78.9h1.8v15.1H406.6z"/>
		<path class="st3" d="M425.5,89.5c-1,3-3.3,5-6.5,5c-1,0-3.5-0.2-5.2-2.5c-0.7-0.9-1.6-2.5-1.6-5.2c0-0.7,0-2.2,0.7-3.8
			c1.5-3.8,4.7-4.3,6.2-4.3c1.7,0,3.2,0.5,4.4,1.7c1.7,1.6,2.3,3.9,2.4,6.2C425.9,86.9,425.9,88.1,425.5,89.5z M419.1,80.2
			c-0.5,0-1.6,0.1-2.7,0.9c-1.2,0.9-2.2,2.5-2.2,5.7c0,0.6-0.1,3.6,2,5.2c0.5,0.4,1.4,0.9,2.8,0.9c2.2,0,4.9-1.4,4.9-6.2
			C424,81.7,421.5,80.2,419.1,80.2z"/>
		<path class="st3" d="M439.6,91.8c-0.6,1.1-2.1,2.6-5.2,2.6c-0.9,0-3.4-0.1-5.1-2.3c-0.5-0.6-0.7-1.1-1-1.8l1.8-0.6
			c0.3,1,1.4,3,4.2,3c1.4,0,2.3-0.4,2.8-0.8c0.7-0.5,1.1-1.4,1.1-2.2c0-0.5-0.2-1-0.4-1.3c-0.5-0.7-1.2-1-2.9-1.4
			c-1.5-0.3-3.8-0.6-4.9-1.9c-0.5-0.6-0.8-1.6-0.8-2.4c0-0.5,0.2-1.9,1.3-3c1-1,2.8-1.3,4.1-1.3c0.4,0,2.3,0,3.7,1
			c1.2,0.8,1.5,1.9,1.6,2.4l-1.8,0.5c-0.3-1.7-2.2-2.3-3.7-2.3c-1.2,0-2.1,0.3-2.5,0.6c-0.1,0.1-0.4,0.3-0.7,0.7
			c-0.3,0.5-0.3,1.1-0.3,1.3c0,1.8,1.9,2.2,3.2,2.4l1.6,0.3c1.4,0.3,2.6,0.8,3.5,2c0.7,1,0.7,1.9,0.7,2.3
			C440.1,90.1,440.1,91,439.6,91.8z"/>
		<path class="st3" d="M467.7,78c-0.2-0.8-0.5-1.6-0.9-2.3c-0.8-1.2-2.2-2.7-5.5-2.7c-0.5,0-2.1,0-3.5,0.7c-1.1,0.6-2,1.6-2.6,2.7
			c-0.7,1.3-1.4,3.1-1.4,6.3c0,0.7,0,2.2,0.4,4c0.4,2.1,1.8,6,7.4,6c2,0,3.6-0.6,4.9-2.3c0.8-1.1,1.1-1.9,1.2-2.5l2,1.2
			c-1.1,2.4-2.6,3.7-3.5,4.3c-0.9,0.5-2.4,1.2-4.8,1.2c-1.2,0-4.9-0.1-7.3-3.2c-2.4-3-2.4-7.6-2.4-8.4c0-1.1,0-5.8,2.8-9
			c1.1-1.3,2.4-1.9,2.9-2.2c0.7-0.3,2-0.7,3.9-0.7c1.2,0,2.5,0.2,3.7,0.6c2.6,0.9,4,2.8,5,5.2L467.7,78z"/>
		<path class="st3" d="M483.4,94.1v-2.7c-0.3,0.6-0.4,0.9-0.6,1.1c-1.4,1.9-3.4,2-4.2,2c-0.3,0-1,0-1.8-0.3
			c-1.4-0.4-2.4-1.6-2.9-2.9c-0.3-1-0.4-2.5-0.4-4.9v-7.4h1.9v7.8c0,1.8,0,2.8,0.3,3.7c0.3,0.9,0.9,2.2,3.1,2.2c0.8,0,2.4,0,3.6-1.7
			c1.1-1.6,1-3.6,1-5.4v-6.6h1.9v15.1H483.4z"/>
		<path class="st3" d="M501.7,92c-0.8,1-2.3,2.4-5.4,2.4c-0.5,0-2.1,0-3.5-0.8c-3.6-1.9-3.7-6.3-3.7-7.3c0-0.5,0-1.7,0.5-3.1
			c1-2.9,3.5-4.7,6.5-4.7c0.9,0,3.1,0.2,4.9,2.2c1.2,1.4,2,3.5,2,5.3v0.5h-11.7c0,1.2,0.1,2,0.3,2.5c0.3,1.2,1.4,3.7,4.9,3.7
			c1.3,0,3.4-0.3,4.9-3.2l1.7,0.5C502.7,90.4,502.3,91.3,501.7,92z M496,80.2c-2.6,0-3.9,1.8-4.3,2.6c-0.3,0.6-0.5,1.4-0.6,2.1h9.5
			C500.3,81.1,497.7,80.2,496,80.2z"/>
		<path class="st3" d="M516.5,94.1v-7.9c0-2,0-3.2-0.3-4.1c-0.3-0.8-0.9-1.1-1.1-1.3c-0.9-0.5-1.7-0.5-2.1-0.5c-0.3,0-1.2,0-2,0.4
			c-1.1,0.5-2,1.7-2.3,2.9c-0.2,0.7-0.2,2-0.2,3.8v6.6h-1.9V78.9h1.9v2.7c0.1-0.4,0.3-1,1.1-1.7c0.6-0.6,1.7-1.3,3.7-1.3
			c2.8,0,4.1,1.6,4.6,2.6c0.6,1.2,0.5,2.4,0.5,5v7.9H516.5z"/>
		<path class="st3" d="M527.1,94.4c-0.2,0-0.3,0-0.5,0c-0.4,0-1.6-0.1-2-1.3c-0.3-0.7-0.2-2.3-0.2-3v-9.5h-3.2v-1.6h3.2v-6.4h1.8
			v6.4h3.3v1.6h-3.3v8.3c0,0.5,0,1.1,0,1.6c0,0.9,0,2.2,1.2,2.2c0.8,0,1.5-0.5,2.1-1v1.9C529.1,94,528.3,94.4,527.1,94.4z"/>
		<path class="st3" d="M542.2,93.3c-0.6-0.6-0.6-1.2-0.7-2c-0.2,0.5-0.4,0.9-0.8,1.3c-0.6,0.7-2.2,1.8-4.6,1.8c-1.9,0-3-0.7-3.6-1.3
			c-0.4-0.4-1.1-1.4-1.1-2.8c0-0.4,0.1-1.5,0.8-2.4c1.1-1.4,3-1.8,4.7-2.3c1-0.3,1.9-0.5,2.9-0.7l1.8-0.4v-0.8c0-0.6,0-0.9-0.2-1.5
			c-0.3-1-1.2-2-3.5-2c-1.9,0-2.9,0.5-3.4,1.3c-0.5,0.7-0.5,1.5-0.6,2.3l-2.1-0.3c0.1-0.3,0.3-1.6,0.9-2.6c0.7-1,2.2-2.3,5-2.3
			c1.5,0,3.6,0.4,4.6,1.6c1,1.2,0.9,2.8,0.9,4.3v4.9c0,1.5,0,2.5,0.5,2.9c0.5,0.4,1.2,0.3,1.7,0.3v1.5
			C543.8,94.1,542.8,93.9,542.2,93.3z M541.5,86.1l-1,0.3c-3,0.8-5.5,1.4-6.4,2.1c-0.6,0.4-1,1.1-1,1.8c0,0.5,0.2,1,0.3,1.1
			c0.7,1.4,2.4,1.4,2.8,1.4c1.8,0,4.1-1.1,4.9-2.9c0.3-0.6,0.4-1.3,0.4-2.7V86.1z"/>
		<path class="st3" d="M556.6,94.1V71.7h2.1v22.4H556.6z"/>
		<path class="st3" d="M573.6,94.1v-7.9c0-2,0-3.2-0.3-4.1c-0.3-0.8-0.9-1.1-1.1-1.3c-0.9-0.5-1.7-0.5-2.1-0.5c-0.3,0-1.2,0-2,0.4
			c-1.1,0.5-2,1.7-2.3,2.9c-0.2,0.7-0.2,2-0.2,3.8v6.6h-1.9V78.9h1.9v2.7c0.1-0.4,0.3-1,1.1-1.7c0.6-0.6,1.7-1.3,3.7-1.3
			c2.8,0,4.1,1.6,4.6,2.6c0.6,1.2,0.5,2.4,0.5,5v7.9H573.6z"/>
		<path class="st3" d="M590.1,94.1v-2.7c-0.7,2-2.6,3.1-4.7,3.1c-0.6,0-1.9-0.1-3.1-1c-3-2-3.1-6.2-3.1-7c0-0.9,0.1-5,3.3-6.9
			c0.5-0.3,1.7-0.9,3.3-0.9c1.2,0,2.5,0.4,3.4,1.2c0.7,0.7,0.9,1.1,1,1.5v-9.7h1.8v22.4H590.1z M588.4,81.1
			c-0.4-0.3-1.3-0.8-2.5-0.8c-0.4,0-1.1,0-2,0.4c-1.3,0.7-2.6,2.4-2.6,5.7c0,0.5-0.1,6.2,4.5,6.2c1.2,0,2.1-0.3,3-1.1
			c1.2-1.3,1.4-3.2,1.5-4.9C590.2,83.6,589.6,82,588.4,81.1z"/>
		<path class="st3" d="M596.7,75.4v-2.9h1.8v2.9H596.7z M596.7,94.1V78.9h1.8v15.1H596.7z"/>
		<path class="st3" d="M608,94.1h-1.5l-5.2-15.1h1.9l4.2,12.3l4.7-12.3h1.8L608,94.1z"/>
		<path class="st3" d="M616.6,75.4v-2.9h1.8v2.9H616.6z M616.6,94.1V78.9h1.8v15.1H616.6z"/>
		<path class="st3" d="M633.1,94.1v-2.7c-0.7,2-2.6,3.1-4.7,3.1c-0.6,0-1.9-0.1-3.1-1c-3-2-3.1-6.2-3.1-7c0-0.9,0.1-5,3.3-6.9
			c0.5-0.3,1.7-0.9,3.3-0.9c1.2,0,2.5,0.4,3.4,1.2c0.7,0.7,0.9,1.1,1,1.5v-9.7h1.8v22.4H633.1z M631.3,81.1
			c-0.4-0.3-1.3-0.8-2.5-0.8c-0.4,0-1.1,0-2,0.4c-1.3,0.7-2.6,2.4-2.6,5.7c0,0.5-0.1,6.2,4.5,6.2c1.2,0,2.1-0.3,3-1.1
			c1.2-1.3,1.4-3.2,1.5-4.9C633.1,83.6,632.6,82,631.3,81.1z"/>
		<path class="st3" d="M649.6,94.1v-2.7c-0.3,0.6-0.4,0.9-0.6,1.1c-1.4,1.9-3.4,2-4.2,2c-0.3,0-1,0-1.8-0.3
			c-1.4-0.4-2.4-1.6-2.9-2.9c-0.3-1-0.4-2.5-0.4-4.9v-7.4h1.9v7.8c0,1.8,0,2.8,0.3,3.7c0.3,0.9,0.9,2.2,3.1,2.2c0.8,0,2.4,0,3.6-1.7
			c1.1-1.6,1-3.6,1-5.4v-6.6h1.9v15.1H649.6z"/>
		<path class="st3" d="M666,93.3c-0.6-0.6-0.6-1.2-0.7-2c-0.2,0.5-0.4,0.9-0.8,1.3c-0.6,0.7-2.2,1.8-4.6,1.8c-1.9,0-3-0.7-3.6-1.3
			c-0.4-0.4-1.1-1.4-1.1-2.8c0-0.4,0.1-1.5,0.8-2.4c1.1-1.4,3-1.8,4.7-2.3c1-0.3,1.9-0.5,2.9-0.7l1.8-0.4v-0.8c0-0.6,0-0.9-0.2-1.5
			c-0.3-1-1.2-2-3.5-2c-1.9,0-2.9,0.5-3.4,1.3c-0.5,0.7-0.5,1.5-0.6,2.3l-2.1-0.3c0.1-0.3,0.3-1.6,0.9-2.6c0.7-1,2.2-2.3,5-2.3
			c1.5,0,3.6,0.4,4.6,1.6c1,1.2,0.9,2.8,0.9,4.3v4.9c0,1.5,0,2.5,0.5,2.9c0.5,0.4,1.2,0.3,1.7,0.3v1.5
			C667.7,94.1,666.7,93.9,666,93.3z M665.4,86.1l-1,0.3c-3,0.8-5.5,1.4-6.4,2.1c-0.6,0.4-1,1.1-1,1.8c0,0.5,0.2,1,0.3,1.1
			c0.7,1.4,2.4,1.4,2.8,1.4c1.8,0,4.1-1.1,4.9-2.9c0.3-0.6,0.4-1.3,0.4-2.7V86.1z"/>
		<path class="st3" d="M672,94.1V71.7h1.9v22.4H672z"/>
	</g>
</g>
<linearGradient id="SVGID_00000029765405781465652700000018187193458563848845_" gradientUnits="userSpaceOnUse" x1="489.7215" y1="110.1871" x2="489.7215" y2="408.0777">
	<stop  offset="0" style="stop-color:#40BFEF"/>
	<stop  offset="1" style="stop-color:#1470B5"/>
</linearGradient>
<polygon style="fill:url(#SVGID_00000029765405781465652700000018187193458563848845_);" points="617.5,408.1 617.5,110.2 
	362,110.2 362,408.1 362,408.1 "/>
<linearGradient id="SVGID_00000170280967603605740150000015680337834676226449_" gradientUnits="userSpaceOnUse" x1="486.4827" y1="237.2271" x2="486.4827" y2="392.1089">
	<stop  offset="0" style="stop-color:#F8F6F6"/>
	<stop  offset="1" style="stop-color:#E5E7E9"/>
</linearGradient>
<rect x="81.3" y="237.2" style="fill:url(#SVGID_00000170280967603605740150000015680337834676226449_);" width="810.5" height="154.9"/>
<rect x="81.3" y="312" class="st6" width="810.5" height="80.7"/>
<rect x="81.3" y="237.2" class="st7" width="808.5" height="48.2"/>
<g>
	<rect x="362" y="110.2" class="st8" width="2.1" height="297.9"/>
	<rect x="359.9" y="110.2" class="st6" width="2.1" height="297.9"/>
</g>
<g>
	<rect x="617.5" y="110.2" class="st8" width="2.1" height="297.9"/>
	<rect x="615.4" y="110.2" class="st6" width="2.1" height="297.9"/>
</g>
<g>
	<path class="st9" d="M115.6,271.8c-0.9,0.9-2.4,1.8-5.3,1.8c-0.5,0-2.8,0-4.6-1.2c-0.5-0.3-1-0.8-1.3-1.3c-1-1.3-1.1-2.8-1.2-3.4
		l2.4-0.3c0,0.5,0.1,1.9,1.1,3c0.6,0.6,1.7,1.3,3.7,1.3c0.2,0,0.9,0,1.5-0.2c0.7-0.2,2.6-0.9,2.6-3.1c0-1.1-0.5-1.6-0.9-1.9
		c-0.7-0.5-1.5-0.7-2.3-0.9l-1.4-0.3c-1.2-0.3-2.6-0.5-3.7-1.2c-2-1.1-2.3-2.6-2.3-3.6c0-1.3,0.6-2.4,1.6-3.3
		c1.7-1.4,3.8-1.4,4.5-1.4c1.6,0,3.2,0.3,4.5,1.3c0.8,0.6,1.2,1.2,1.3,1.5c0.4,0.8,0.6,1.5,0.8,2.4l-2.2,0.1c0-0.3-0.1-0.7-0.2-1
		c-0.3-1.2-1.4-2.6-4.1-2.6c-1.1,0-2.5,0.2-3.2,1.1c-0.4,0.4-0.6,1-0.6,1.5c0,0.2,0,0.8,0.4,1.2c0.6,0.9,1.9,1.1,2.9,1.4l1.8,0.4
		c0.4,0.1,0.9,0.2,1.3,0.3c0.5,0.1,2.6,0.6,3.6,2.3c0.2,0.4,0.6,1.1,0.6,2.3C117,269.1,116.9,270.6,115.6,271.8z"/>
	<path class="st9" d="M128.4,271.4c-0.6,0.9-1.8,2.2-4.3,2.2c-1.2,0-1.9-0.3-2.3-0.4c-1.4-0.6-3.1-2.1-3.1-5.6
		c0-2.1,0.7-3.2,1.3-3.9c1-1.2,2.6-1.9,4.1-1.9c0.6,0,1.2,0.1,1.8,0.3c0.7,0.2,2.1,0.9,2.8,2.6c0.3,0.7,0.5,1.6,0.5,3.3h-8.5
		c0,2,0.9,3.1,1.6,3.6c0.6,0.4,1.3,0.6,2,0.6c1,0,1.5-0.4,1.9-0.7c0.1-0.1,0.4-0.4,0.6-0.7c0.3-0.5,0.4-1,0.4-1.2l1.9,0.3
		C129,270,128.8,270.7,128.4,271.4z M126.9,265.5c-0.4-1.4-1.6-2.3-3-2.3c-2,0-3,1.7-3.2,3.4h6.4C127,266,126.9,265.8,126.9,265.5z"
		/>
	<path class="st9" d="M141,275.5c-0.6,2.1-2.2,2.6-3,2.9c-0.4,0.1-1,0.3-1.9,0.3c-0.3,0-1,0-1.9-0.3c-2.7-0.7-3.1-2.9-3.2-3.9h2.1
		c0,0.3,0,0.9,0.5,1.5c0.8,1.1,2.2,1.1,2.6,1.1c0.3,0,1.9,0,2.6-1.1c0.4-0.7,0.5-1.5,0.5-3.1l0-1.3c-1.3,1.8-2.7,2-3.6,2
		c-1.1,0-2-0.4-2.3-0.5c-1.2-0.6-2.8-2.2-2.8-5.3c0-0.5,0-2.5,1.2-4c0.9-1.2,2.1-1.9,4-1.9c0.3,0,0.9,0,1.5,0.3
		c0.5,0.2,1.3,0.6,2.1,1.6v-1.5h2v10.5C141.3,274.1,141.3,274.7,141,275.5z M139.2,265.8c-0.5-1.5-1.8-2.4-3.3-2.4
		c-0.5,0-1,0.1-1.4,0.3c-0.9,0.4-1.9,1.6-1.9,3.9c0,1.3,0.3,2.7,1.4,3.5c0.6,0.5,1.3,0.7,2.1,0.7c1.1,0,1.8-0.4,2.1-0.7
		c0.7-0.6,1.3-1.7,1.3-3.6C139.4,267.3,139.4,266.5,139.2,265.8z"/>
	<path class="st9" d="M151.2,273.2l0-1.7c-0.1,0.1-0.2,0.3-0.5,0.6c-0.9,0.9-2,1.4-3.3,1.4c-0.4,0-2.1-0.1-3-1.5
		c-0.6-1.1-0.6-2.3-0.6-3.4v-6.5h1.9v6.3c0,1.2,0,1.7,0.3,2.2c0.2,0.5,0.8,1.1,2,1.1c0.4,0,1.8-0.1,2.6-1.3c0.6-0.8,0.5-1.8,0.5-2.8
		v-5.6h1.8v11.1H151.2z"/>
	<path class="st9" d="M160,264c-1.1,0.2-2,0.9-2.2,2c-0.2,0.6-0.2,1-0.2,2.1v5.2h-1.9v-11.1h1.9v2c0.3-0.5,0.6-0.9,1-1.3
		c0.4-0.4,1.3-0.9,2.8-0.9v2C160.7,263.9,160.4,263.9,160,264z"/>
	<path class="st9" d="M171.7,271.7c-0.6,0.7-1.8,1.9-4.1,1.9c-0.7,0-2.5-0.1-3.9-1.5c-0.7-0.7-1.6-2.1-1.6-4.4c0-1.4,0.4-2.9,1.3-4
		c1.1-1.4,2.5-1.9,4.3-1.9c0.8,0,1.6,0.1,2.2,0.4c1.3,0.5,3.2,2.1,3.1,5.5C173,268.3,172.9,270.2,171.7,271.7z M170.4,264.8
		c-0.2-0.3-0.4-0.6-0.7-0.9c-0.8-0.7-1.7-0.7-2-0.7c-3.6,0-3.5,3.9-3.5,4.5c0,0.5,0.1,1,0.1,1.1c0.1,0.8,0.7,3.2,3.3,3.1
		c0.5,0,1.8-0.1,2.6-1.4c0.7-1.1,0.8-2.8,0.8-3C171,267.3,171,265.9,170.4,264.8z"/>
	<path class="st9" d="M189.3,273.2v-1.4c-0.6,0.7-1.6,1.8-3.8,1.8c-2.1,0-3.2-1-3.8-1.7c-0.6-0.8-1.4-2-1.4-4.3
		c0-1.4,0.3-2.7,1.1-3.9c0.5-0.7,1.7-2,4-2c1.6,0,2.7,0.7,3.2,1.1c0.3,0.2,0.4,0.4,0.7,0.7v-7h1.9v16.7H189.3z M189.2,266.2
		c-0.4-1.6-1.6-2.7-3.3-2.7c-0.5,0-1.7,0.1-2.6,1.2c-0.8,0.9-0.9,1.9-0.9,3.1c0,0.4,0,1.8,0.9,3c0.9,1.2,2.1,1.2,2.6,1.2
		c0.7,0,1.3-0.1,1.8-0.5c0.8-0.5,1.7-1.7,1.7-3.8C189.3,267.4,189.3,266.8,189.2,266.2z"/>
	<path class="st9" d="M202.9,271.4c-0.6,0.9-1.8,2.2-4.3,2.2c-1.2,0-1.9-0.3-2.3-0.4c-1.4-0.6-3.1-2.1-3.1-5.6
		c0-2.1,0.7-3.2,1.3-3.9c1-1.2,2.6-1.9,4.1-1.9c0.6,0,1.2,0.1,1.8,0.3c0.7,0.2,2.1,0.9,2.8,2.6c0.3,0.7,0.5,1.6,0.5,3.3h-8.5
		c0,2,0.9,3.1,1.6,3.6c0.6,0.4,1.3,0.6,2,0.6c1,0,1.5-0.4,1.9-0.7c0.1-0.1,0.4-0.4,0.6-0.7c0.3-0.5,0.4-1,0.4-1.2l1.9,0.3
		C203.6,270,203.3,270.7,202.9,271.4z M201.4,265.5c-0.4-1.4-1.6-2.3-3-2.3c-2,0-3,1.7-3.2,3.4h6.4
		C201.5,266,201.5,265.8,201.4,265.5z"/>
	<path class="st9" d="M222.7,273.2l-1.8-5.1h-6.4l-1.9,5.1h-2.4l6.4-16.7h2.3l6.1,16.7H222.7z M217.8,259.3l-2.6,7h5L217.8,259.3z"
		/>
	<path class="st9" d="M234.6,272.6c-1.3,1-2.9,1-3.4,1c-0.3,0-1.2,0-2.1-0.3c-1.3-0.5-3.4-2-3.4-5.5c0-3.6,2-5.2,3.4-5.7
		c0.9-0.3,1.7-0.3,2-0.3c3,0,4.3,1.6,4.8,2.7c0.2,0.4,0.2,0.6,0.3,1l-2.1,0.2c0-0.2-0.1-0.8-0.5-1.3c-0.8-1.2-2.1-1.3-2.6-1.3
		c-1.7,0-3.4,1.1-3.4,4.5c0,2,0.6,3.1,1.3,3.7c0.6,0.6,1.4,0.8,2.2,0.8c0.5,0,1-0.1,1.4-0.3c1.2-0.5,1.5-1.6,1.7-2.8l2,0.2
		C236.2,271.1,235.2,272.1,234.6,272.6z"/>
	<path class="st9" d="M246.5,272.6c-1.3,1-2.9,1-3.4,1c-0.3,0-1.2,0-2.1-0.3c-1.3-0.5-3.4-2-3.4-5.5c0-3.6,2-5.2,3.4-5.7
		c0.9-0.3,1.7-0.3,2-0.3c3,0,4.3,1.6,4.8,2.7c0.2,0.4,0.2,0.6,0.3,1l-2.1,0.2c0-0.2-0.1-0.8-0.5-1.3c-0.8-1.2-2.1-1.3-2.6-1.3
		c-1.7,0-3.4,1.1-3.4,4.5c0,2,0.6,3.1,1.3,3.7c0.6,0.6,1.4,0.8,2.2,0.8c0.5,0,1-0.1,1.4-0.3c1.2-0.5,1.5-1.6,1.7-2.8l2,0.2
		C248.1,271.1,247.1,272.1,246.5,272.6z"/>
	<path class="st9" d="M250.2,258.7v-2.2h1.8v2.2H250.2z M250.2,273.2v-11.1h1.8v11.1H250.2z"/>
	<path class="st9" d="M262.8,273.2v-1.4c-0.6,0.7-1.6,1.8-3.8,1.8c-2.1,0-3.2-1-3.8-1.7c-0.6-0.8-1.4-2-1.4-4.3
		c0-1.4,0.3-2.7,1.1-3.9c0.5-0.7,1.7-2,4-2c1.6,0,2.7,0.7,3.2,1.1c0.3,0.2,0.4,0.4,0.7,0.7v-7h1.9v16.7H262.8z M262.7,266.2
		c-0.4-1.6-1.6-2.7-3.3-2.7c-0.5,0-1.7,0.1-2.6,1.2c-0.8,0.9-0.9,1.9-0.9,3.1c0,0.4,0,1.8,0.9,3c0.9,1.2,2.1,1.2,2.6,1.2
		c0.7,0,1.3-0.1,1.8-0.5c0.8-0.5,1.7-1.7,1.7-3.8C262.9,267.4,262.9,266.8,262.7,266.2z"/>
	<path class="st9" d="M276.5,271.4c-0.6,0.9-1.8,2.2-4.3,2.2c-1.2,0-1.9-0.3-2.3-0.4c-1.4-0.6-3.1-2.1-3.1-5.6
		c0-2.1,0.7-3.2,1.3-3.9c1-1.2,2.6-1.9,4.1-1.9c0.6,0,1.2,0.1,1.8,0.3c0.7,0.2,2.1,0.9,2.8,2.6c0.3,0.7,0.5,1.6,0.5,3.3h-8.5
		c0,2,0.9,3.1,1.6,3.6c0.6,0.4,1.3,0.6,2,0.6c1,0,1.5-0.4,1.9-0.7c0.1-0.1,0.4-0.4,0.6-0.7c0.3-0.5,0.4-1,0.4-1.2l1.9,0.3
		C277.1,270,276.9,270.7,276.5,271.4z M275,265.5c-0.4-1.4-1.6-2.3-3-2.3c-2,0-3,1.7-3.2,3.4h6.4C275.1,266,275.1,265.8,275,265.5z"
		/>
	<path class="st9" d="M286.5,273.2v-7.1c0-0.3,0.1-1.4-0.9-2.1c-0.3-0.2-0.8-0.5-1.7-0.5c-0.8,0-1.5,0.3-2.1,0.8
		c-0.1,0.1-0.5,0.5-0.7,1c-0.2,0.5-0.2,1-0.2,1.5v6.3h-1.9v-11.1h1.9v1.6c0.2-0.4,0.5-0.7,0.6-0.8c0.4-0.4,1.4-1.2,2.9-1.2
		c0.5,0,2.2,0.1,3.2,1.5c0.7,1,0.7,2.1,0.7,3.3v6.6H286.5z"/>
	<path class="st9" d="M293.8,273.4c-1.1,0-1.6-0.3-1.9-0.7s-0.3-0.9-0.3-1.8v-7.2h-1.8v-1.6h1.8v-3.5h1.9v3.5h2v1.6h-2v6.4
		c0,0.8,0,1.2,0.1,1.6c0.1,0.3,0.4,0.3,0.7,0.3c0.2,0,0.7-0.1,1.2-0.3v1.6C295.5,273.2,294.6,273.4,293.8,273.4z"/>
	<path class="st9" d="M306.6,271.4c-0.6,0.9-1.8,2.2-4.3,2.2c-1.2,0-1.9-0.3-2.3-0.4c-1.4-0.6-3.1-2.1-3.1-5.6
		c0-2.1,0.7-3.2,1.3-3.9c1-1.2,2.6-1.9,4.1-1.9c0.6,0,1.2,0.1,1.8,0.3c0.7,0.2,2.1,0.9,2.8,2.6c0.3,0.7,0.5,1.6,0.5,3.3h-8.5
		c0,2,0.9,3.1,1.6,3.6c0.6,0.4,1.3,0.6,2,0.6c1,0,1.5-0.4,1.9-0.7c0.1-0.1,0.4-0.4,0.6-0.7c0.3-0.5,0.4-1,0.4-1.2l1.9,0.3
		C307.3,270,307,270.7,306.6,271.4z M305.1,265.5c-0.4-1.4-1.6-2.3-3-2.3c-2,0-3,1.7-3.2,3.4h6.4C305.2,266,305.2,265.8,305.1,265.5
		z"/>
	<path class="st9" d="M317.9,271.7c-0.6,0.9-1.8,1.8-4.2,1.8c-0.3,0-2.1,0-3.3-0.8c-0.2-0.1-0.5-0.3-0.8-0.7c-0.8-1-0.9-2-1-2.4
		l2.2-0.3c0,0.7,0.1,1.4,0.6,2c0.7,0.7,1.6,0.9,2.5,0.9c0.2,0,1.3,0,2.1-0.6c0.5-0.4,0.5-1,0.5-1.2c0-0.1,0-0.5-0.2-0.8
		c-0.4-0.6-1.5-0.8-2.1-0.9l-1.1-0.2c-1.4-0.3-2-0.5-2.6-0.9c-0.9-0.5-1.3-1.3-1.3-2.4c0-0.3,0-1.1,0.6-1.8c1.1-1.5,3.3-1.5,3.7-1.5
		c2.3,0,3.6,1.2,4.2,2c0.4,0.7,0.5,1.4,0.6,1.7l-2,0.2c0-0.5,0-0.8-0.2-1c-0.3-0.6-1.2-1.4-2.8-1.4c-1.5,0-2.2,0.9-2.2,1.6
		c0,0.1,0,0.3,0.2,0.6c0.4,0.6,1.2,0.9,2.5,1.2l1.1,0.3c0.3,0.1,0.7,0.2,1,0.3c1.5,0.4,2.7,1.3,2.7,3
		C318.4,270.3,318.3,271,317.9,271.7z"/>
	<path class="st9" d="M171.4,291.2c-0.6,0.2-1.2,0.2-2.5,0.2h-4.8v7.1h-2.2v-16.7h7.2c1.3,0,2.4,0,3.5,0.7c1.9,1.2,2,3.4,2,4
		C174.7,288.6,173.6,290.6,171.4,291.2z M172.3,285.3c-0.3-0.8-0.9-1.3-1.7-1.5c-0.5-0.1-0.9-0.1-1.3-0.1h-5.2v5.7h4.7
		c0.6,0,1.2,0,1.8-0.1c1.3-0.4,1.9-1.6,1.9-2.9C172.5,286.3,172.5,285.8,172.3,285.3z"/>
	<path class="st9" d="M185.1,296.6c-0.6,0.9-1.8,2.2-4.3,2.2c-1.2,0-1.9-0.3-2.3-0.4c-1.4-0.6-3.1-2.1-3.1-5.6
		c0-2.1,0.7-3.2,1.3-3.9c1-1.2,2.6-1.9,4.1-1.9c0.6,0,1.2,0.1,1.8,0.3c0.7,0.2,2.1,0.9,2.8,2.6c0.3,0.7,0.5,1.6,0.5,3.3h-8.5
		c0,2,0.9,3.1,1.6,3.6c0.6,0.4,1.3,0.6,2,0.6c1,0,1.5-0.4,1.9-0.7c0.1-0.1,0.4-0.4,0.6-0.7c0.3-0.5,0.4-1,0.4-1.2l1.9,0.3
		C185.8,295.3,185.6,296,185.1,296.6z M183.7,290.8c-0.4-1.4-1.6-2.3-3-2.3c-2,0-3,1.7-3.2,3.4h6.4
		C183.8,291.3,183.7,291.1,183.7,290.8z"/>
	<path class="st9" d="M192.1,289.2c-1.1,0.2-2,0.9-2.2,2c-0.2,0.6-0.2,1-0.2,2.1v5.2h-1.9v-11.1h1.9v2c0.3-0.5,0.6-0.9,1-1.3
		c0.4-0.4,1.3-0.9,2.8-0.9v2C192.9,289.1,192.5,289.2,192.1,289.2z"/>
	<path class="st9" d="M203.3,297c-0.6,0.9-1.8,1.8-4.2,1.8c-0.3,0-2.1,0-3.3-0.8c-0.2-0.1-0.5-0.3-0.8-0.7c-0.8-1-0.9-2-1-2.4
		l2.2-0.3c0,0.7,0.1,1.4,0.6,2c0.7,0.7,1.6,0.9,2.5,0.9c0.2,0,1.3,0,2.1-0.6c0.5-0.4,0.5-1,0.5-1.2c0-0.1,0-0.5-0.2-0.8
		c-0.4-0.6-1.5-0.8-2.1-0.9l-1.1-0.2c-1.4-0.3-2-0.5-2.6-0.9c-0.9-0.5-1.3-1.3-1.3-2.4c0-0.3,0-1.1,0.6-1.8c1.1-1.5,3.3-1.5,3.7-1.5
		c2.3,0,3.6,1.2,4.2,2c0.4,0.7,0.5,1.4,0.6,1.7l-2,0.2c0-0.5,0-0.8-0.2-1c-0.3-0.6-1.2-1.4-2.8-1.4c-1.5,0-2.2,0.9-2.2,1.6
		c0,0.1,0,0.3,0.2,0.6c0.4,0.6,1.2,0.9,2.5,1.2l1.1,0.3c0.3,0.1,0.7,0.2,1,0.3c1.5,0.4,2.7,1.3,2.7,3
		C203.8,295.6,203.8,296.3,203.3,297z"/>
	<path class="st9" d="M214.7,297c-0.6,0.7-1.8,1.9-4.1,1.9c-0.7,0-2.5-0.1-3.9-1.5c-0.7-0.7-1.6-2.1-1.6-4.4c0-1.4,0.4-2.9,1.3-4
		c1.1-1.4,2.5-1.9,4.3-1.9c0.8,0,1.6,0.1,2.2,0.4c1.3,0.5,3.2,2.1,3.1,5.5C216,293.5,215.9,295.4,214.7,297z M213.4,290.1
		c-0.2-0.3-0.4-0.6-0.7-0.9c-0.8-0.7-1.7-0.7-2-0.7c-3.6,0-3.5,3.9-3.5,4.5c0,0.5,0.1,1,0.1,1.1c0.1,0.8,0.7,3.2,3.3,3.1
		c0.5,0,1.8-0.1,2.6-1.4c0.7-1.1,0.8-2.8,0.8-3C214,292.6,214,291.1,213.4,290.1z"/>
	<path class="st9" d="M225.3,298.5v-7.1c0-0.3,0.1-1.4-0.9-2.1c-0.3-0.2-0.8-0.5-1.7-0.5c-0.8,0-1.5,0.3-2.1,0.8
		c-0.1,0.1-0.5,0.5-0.7,1c-0.2,0.5-0.2,1-0.2,1.5v6.3H218v-11.1h1.9v1.6c0.2-0.4,0.5-0.7,0.6-0.8c0.4-0.4,1.4-1.2,2.9-1.2
		c0.5,0,2.2,0.1,3.2,1.5c0.7,1,0.7,2.1,0.7,3.3v6.6H225.3z"/>
	<path class="st9" d="M238.6,298.6c-0.1,0-0.8,0-1.2-0.3c-0.2-0.1-0.3-0.4-0.4-0.4c-0.3-0.4-0.3-0.7-0.4-0.9
		c-0.5,0.6-1.7,1.8-3.8,1.8c-0.8,0-1.3-0.1-1.5-0.2c-1.3-0.4-2.2-1.5-2.2-3c0-0.5,0.1-1.6,1.2-2.4c1.1-0.9,3.1-1.2,4.5-1.3l1.7-0.1
		c0-0.3,0-0.6,0-0.9c0-0.8-0.2-2.5-2.5-2.5c-0.4,0-1.8,0-2.3,1.3c-0.1,0.4-0.1,0.6-0.1,1l-2-0.1c0-0.2,0-0.6,0.2-1.1
		c0.4-1.1,1.4-2.6,4.1-2.6c0.3,0,0.9,0,1.8,0.2c0.4,0.1,1.9,0.6,2.5,2.1c0.2,0.6,0.2,1.2,0.2,2.4v3.6c0,0.2,0,0.5,0,0.7
		c0,0.3,0,0.9,0.8,0.9c0.2,0,0.4,0,0.6-0.1v1.6C239.2,298.6,238.9,298.6,238.6,298.6z M236.5,293.3V293c-0.9,0.1-3.1,0.4-4,0.8
		c-0.4,0.1-1.4,0.6-1.4,1.7c0,0.8,0.6,1.7,2.1,1.7c1,0,3.3-0.4,3.3-3.3C236.5,293.7,236.5,293.5,236.5,293.3z"/>
	<path class="st9" d="M241.2,298.5v-16.7h1.8v16.7H241.2z"/>
	<path class="st9" d="M254.8,296.6c-0.6,0.9-1.8,2.2-4.3,2.2c-1.2,0-1.9-0.3-2.3-0.4c-1.4-0.6-3.1-2.1-3.1-5.6
		c0-2.1,0.7-3.2,1.3-3.9c1-1.2,2.6-1.9,4.1-1.9c0.6,0,1.2,0.1,1.8,0.3c0.7,0.2,2.1,0.9,2.8,2.6c0.3,0.7,0.5,1.6,0.5,3.3H247
		c0,2,0.9,3.1,1.6,3.6c0.6,0.4,1.3,0.6,2,0.6c1,0,1.5-0.4,1.9-0.7c0.1-0.1,0.4-0.4,0.6-0.7c0.3-0.5,0.4-1,0.4-1.2l1.9,0.3
		C255.4,295.3,255.2,296,254.8,296.6z M253.3,290.8c-0.4-1.4-1.6-2.3-3-2.3c-2,0-3,1.7-3.2,3.4h6.4
		C253.4,291.3,253.4,291.1,253.3,290.8z"/>
	<path class="st9" d="M266,297c-0.6,0.9-1.8,1.8-4.2,1.8c-0.3,0-2.1,0-3.3-0.8c-0.2-0.1-0.5-0.3-0.8-0.7c-0.8-1-0.9-2-1-2.4l2.2-0.3
		c0,0.7,0.1,1.4,0.6,2c0.7,0.7,1.6,0.9,2.5,0.9c0.2,0,1.3,0,2.1-0.6c0.5-0.4,0.5-1,0.5-1.2c0-0.1,0-0.5-0.2-0.8
		c-0.4-0.6-1.5-0.8-2.1-0.9l-1.1-0.2c-1.4-0.3-2-0.5-2.6-0.9c-0.9-0.5-1.3-1.3-1.3-2.4c0-0.3,0-1.1,0.6-1.8c1.1-1.5,3.3-1.5,3.7-1.5
		c2.3,0,3.6,1.2,4.2,2c0.4,0.7,0.5,1.4,0.6,1.7l-2,0.2c0-0.5,0-0.8-0.2-1c-0.3-0.6-1.2-1.4-2.8-1.4c-1.5,0-2.2,0.9-2.2,1.6
		c0,0.1,0,0.3,0.2,0.6c0.4,0.6,1.2,0.9,2.5,1.2l1.1,0.3c0.3,0.1,0.7,0.2,1,0.3c1.5,0.4,2.7,1.3,2.7,3
		C266.5,295.6,266.5,296.3,266,297z"/>
</g>
<g>
	<path class="st9" d="M392.6,271.8c-0.9,0.9-2.4,1.8-5.3,1.8c-0.5,0-2.8,0-4.6-1.2c-0.5-0.3-1-0.8-1.3-1.3c-1-1.3-1.1-2.8-1.2-3.4
		l2.4-0.3c0,0.5,0.1,1.9,1.1,3c0.6,0.6,1.7,1.3,3.7,1.3c0.2,0,0.9,0,1.5-0.2c0.7-0.2,2.6-0.9,2.6-3.1c0-1.1-0.5-1.6-0.9-1.9
		c-0.7-0.5-1.5-0.7-2.3-0.9l-1.4-0.3c-1.2-0.3-2.6-0.5-3.7-1.2c-2-1.1-2.3-2.6-2.3-3.6c0-1.3,0.6-2.4,1.6-3.3
		c1.7-1.4,3.8-1.4,4.5-1.4c1.6,0,3.2,0.3,4.5,1.3c0.8,0.6,1.2,1.2,1.3,1.5c0.4,0.8,0.6,1.5,0.8,2.4l-2.2,0.1c0-0.3-0.1-0.7-0.2-1
		c-0.3-1.2-1.4-2.6-4.1-2.6c-1.1,0-2.5,0.2-3.2,1.1c-0.4,0.4-0.6,1-0.6,1.5c0,0.2,0,0.8,0.4,1.2c0.6,0.9,1.9,1.1,2.9,1.4l1.8,0.4
		c0.4,0.1,0.9,0.2,1.3,0.3c0.5,0.1,2.6,0.6,3.6,2.3c0.2,0.4,0.6,1.1,0.6,2.3C394,269.1,393.9,270.6,392.6,271.8z"/>
	<path class="st9" d="M405.3,271.4c-0.6,0.9-1.8,2.2-4.3,2.2c-1.2,0-1.9-0.3-2.3-0.4c-1.4-0.6-3.1-2.1-3.1-5.6
		c0-2.1,0.7-3.2,1.3-3.9c1-1.2,2.6-1.9,4.1-1.9c0.6,0,1.2,0.1,1.8,0.3c0.7,0.2,2.1,0.9,2.8,2.6c0.3,0.7,0.5,1.6,0.5,3.3h-8.5
		c0,2,0.9,3.1,1.6,3.6c0.6,0.4,1.3,0.6,2,0.6c1,0,1.5-0.4,1.9-0.7c0.1-0.1,0.4-0.4,0.6-0.7c0.3-0.5,0.4-1,0.4-1.2l1.9,0.3
		C406,270,405.8,270.7,405.3,271.4z M403.9,265.5c-0.4-1.4-1.6-2.3-3-2.3c-2,0-3,1.7-3.2,3.4h6.4C404,266,403.9,265.8,403.9,265.5z"
		/>
	<path class="st9" d="M418,275.5c-0.6,2.1-2.2,2.6-3,2.9c-0.4,0.1-1,0.3-1.9,0.3c-0.3,0-1,0-1.9-0.3c-2.7-0.7-3.1-2.9-3.2-3.9h2.1
		c0,0.3,0,0.9,0.5,1.5c0.8,1.1,2.2,1.1,2.6,1.1c0.3,0,1.9,0,2.6-1.1c0.4-0.7,0.5-1.5,0.5-3.1l0-1.3c-1.3,1.8-2.7,2-3.6,2
		c-1.1,0-2-0.4-2.3-0.5c-1.2-0.6-2.8-2.2-2.8-5.3c0-0.5,0-2.5,1.2-4c0.9-1.2,2.1-1.9,4-1.9c0.3,0,0.9,0,1.5,0.3
		c0.5,0.2,1.3,0.6,2.1,1.6v-1.5h2v10.5C418.3,274.1,418.2,274.7,418,275.5z M416.1,265.8c-0.5-1.5-1.8-2.4-3.3-2.4
		c-0.5,0-1,0.1-1.4,0.3c-0.9,0.4-1.9,1.6-1.9,3.9c0,1.3,0.3,2.7,1.4,3.5c0.6,0.5,1.3,0.7,2.1,0.7c1.1,0,1.8-0.4,2.1-0.7
		c0.7-0.6,1.3-1.7,1.3-3.6C416.4,267.3,416.3,266.5,416.1,265.8z"/>
	<path class="st9" d="M428.2,273.2l0-1.7c-0.1,0.1-0.2,0.3-0.5,0.6c-0.9,0.9-2,1.4-3.3,1.4c-0.4,0-2.1-0.1-3-1.5
		c-0.6-1.1-0.6-2.3-0.6-3.4v-6.5h1.9v6.3c0,1.2,0,1.7,0.3,2.2c0.2,0.5,0.8,1.1,2,1.1c0.4,0,1.8-0.1,2.6-1.3c0.6-0.8,0.5-1.8,0.5-2.8
		v-5.6h1.8v11.1H428.2z"/>
	<path class="st9" d="M437,264c-1.1,0.2-2,0.9-2.2,2c-0.2,0.6-0.2,1-0.2,2.1v5.2h-1.9v-11.1h1.9v2c0.3-0.5,0.6-0.9,1-1.3
		c0.4-0.4,1.3-0.9,2.8-0.9v2C437.7,263.9,437.3,263.9,437,264z"/>
	<path class="st9" d="M448.7,271.7c-0.6,0.7-1.8,1.9-4.1,1.9c-0.7,0-2.5-0.1-3.9-1.5c-0.7-0.7-1.6-2.1-1.6-4.4c0-1.4,0.4-2.9,1.3-4
		c1.1-1.4,2.5-1.9,4.3-1.9c0.8,0,1.6,0.1,2.2,0.4c1.3,0.5,3.2,2.1,3.1,5.5C450,268.3,449.9,270.2,448.7,271.7z M447.4,264.8
		c-0.2-0.3-0.4-0.6-0.7-0.9c-0.8-0.7-1.7-0.7-2-0.7c-3.6,0-3.5,3.9-3.5,4.5c0,0.5,0.1,1,0.1,1.1c0.1,0.8,0.7,3.2,3.3,3.1
		c0.5,0,1.8-0.1,2.6-1.4c0.7-1.1,0.8-2.8,0.8-3C448,267.3,448,265.9,447.4,264.8z"/>
	<path class="st9" d="M466.3,273.2v-1.4c-0.6,0.7-1.6,1.8-3.8,1.8c-2.1,0-3.2-1-3.8-1.7c-0.6-0.8-1.4-2-1.4-4.3
		c0-1.4,0.3-2.7,1.1-3.9c0.5-0.7,1.7-2,4-2c1.6,0,2.7,0.7,3.2,1.1c0.3,0.2,0.4,0.4,0.7,0.7v-7h1.9v16.7H466.3z M466.2,266.2
		c-0.4-1.6-1.6-2.7-3.3-2.7c-0.5,0-1.7,0.1-2.6,1.2c-0.8,0.9-0.9,1.9-0.9,3.1c0,0.4,0,1.8,0.9,3c0.9,1.2,2.1,1.2,2.6,1.2
		c0.7,0,1.3-0.1,1.8-0.5c0.8-0.5,1.7-1.7,1.7-3.8C466.3,267.4,466.3,266.8,466.2,266.2z"/>
	<path class="st9" d="M479.9,271.4c-0.6,0.9-1.8,2.2-4.3,2.2c-1.2,0-1.9-0.3-2.3-0.4c-1.4-0.6-3.1-2.1-3.1-5.6
		c0-2.1,0.7-3.2,1.3-3.9c1-1.2,2.6-1.9,4.1-1.9c0.6,0,1.2,0.1,1.8,0.3c0.7,0.2,2.1,0.9,2.8,2.6c0.3,0.7,0.5,1.6,0.5,3.3h-8.5
		c0,2,0.9,3.1,1.6,3.6c0.6,0.4,1.3,0.6,2,0.6c1,0,1.5-0.4,1.9-0.7c0.1-0.1,0.4-0.4,0.6-0.7c0.3-0.5,0.4-1,0.4-1.2l1.9,0.3
		C480.5,270,480.3,270.7,479.9,271.4z M478.4,265.5c-0.4-1.4-1.6-2.3-3-2.3c-2,0-3,1.7-3.2,3.4h6.4
		C478.5,266,478.5,265.8,478.4,265.5z"/>
	<path class="st9" d="M499.6,273.2l-1.8-5.1h-6.4l-1.9,5.1h-2.4l6.4-16.7h2.3l6.1,16.7H499.6z M494.7,259.3l-2.6,7h5L494.7,259.3z"
		/>
	<path class="st9" d="M511.6,272.6c-1.3,1-2.9,1-3.4,1c-0.3,0-1.2,0-2.1-0.3c-1.3-0.5-3.4-2-3.4-5.5c0-3.6,2-5.2,3.4-5.7
		c0.9-0.3,1.7-0.3,2-0.3c3,0,4.3,1.6,4.8,2.7c0.2,0.4,0.2,0.6,0.3,1l-2.1,0.2c0-0.2-0.1-0.8-0.5-1.3c-0.8-1.2-2.1-1.3-2.6-1.3
		c-1.7,0-3.4,1.1-3.4,4.5c0,2,0.6,3.1,1.3,3.7c0.6,0.6,1.4,0.8,2.2,0.8c0.5,0,1-0.1,1.4-0.3c1.2-0.5,1.5-1.6,1.7-2.8l2,0.2
		C513.2,271.1,512.2,272.1,511.6,272.6z"/>
	<path class="st9" d="M523.5,272.6c-1.3,1-2.9,1-3.4,1c-0.3,0-1.2,0-2.1-0.3c-1.3-0.5-3.4-2-3.4-5.5c0-3.6,2-5.2,3.4-5.7
		c0.9-0.3,1.7-0.3,2-0.3c3,0,4.3,1.6,4.8,2.7c0.2,0.4,0.2,0.6,0.3,1l-2.1,0.2c0-0.2-0.1-0.8-0.5-1.3c-0.8-1.2-2.1-1.3-2.6-1.3
		c-1.7,0-3.4,1.1-3.4,4.5c0,2,0.6,3.1,1.3,3.7c0.6,0.6,1.4,0.8,2.2,0.8c0.5,0,1-0.1,1.4-0.3c1.2-0.5,1.5-1.6,1.7-2.8l2,0.2
		C525,271.1,524.1,272.1,523.5,272.6z"/>
	<path class="st9" d="M527.1,258.7v-2.2h1.8v2.2H527.1z M527.1,273.2v-11.1h1.8v11.1H527.1z"/>
	<path class="st9" d="M539.8,273.2v-1.4c-0.6,0.7-1.6,1.8-3.8,1.8c-2.1,0-3.2-1-3.8-1.7c-0.6-0.8-1.4-2-1.4-4.3
		c0-1.4,0.3-2.7,1.1-3.9c0.5-0.7,1.7-2,4-2c1.6,0,2.7,0.7,3.2,1.1c0.3,0.2,0.4,0.4,0.7,0.7v-7h1.9v16.7H539.8z M539.7,266.2
		c-0.4-1.6-1.6-2.7-3.3-2.7c-0.5,0-1.7,0.1-2.6,1.2c-0.8,0.9-0.9,1.9-0.9,3.1c0,0.4,0,1.8,0.9,3c0.9,1.2,2.1,1.2,2.6,1.2
		c0.7,0,1.3-0.1,1.8-0.5c0.8-0.5,1.7-1.7,1.7-3.8C539.9,267.4,539.9,266.8,539.7,266.2z"/>
	<path class="st9" d="M553.5,271.4c-0.6,0.9-1.8,2.2-4.3,2.2c-1.2,0-1.9-0.3-2.3-0.4c-1.4-0.6-3.1-2.1-3.1-5.6
		c0-2.1,0.7-3.2,1.3-3.9c1-1.2,2.6-1.9,4.1-1.9c0.6,0,1.2,0.1,1.8,0.3c0.7,0.2,2.1,0.9,2.8,2.6c0.3,0.7,0.5,1.6,0.5,3.3h-8.5
		c0,2,0.9,3.1,1.6,3.6c0.6,0.4,1.3,0.6,2,0.6c1,0,1.5-0.4,1.9-0.7c0.1-0.1,0.4-0.4,0.6-0.7c0.3-0.5,0.4-1,0.4-1.2l1.9,0.3
		C554.1,270,553.9,270.7,553.5,271.4z M552,265.5c-0.4-1.4-1.6-2.3-3-2.3c-2,0-3,1.7-3.2,3.4h6.4C552.1,266,552,265.8,552,265.5z"/>
	<path class="st9" d="M563.5,273.2v-7.1c0-0.3,0.1-1.4-0.9-2.1c-0.3-0.2-0.8-0.5-1.7-0.5c-0.8,0-1.5,0.3-2.1,0.8
		c-0.1,0.1-0.5,0.5-0.7,1c-0.2,0.5-0.2,1-0.2,1.5v6.3h-1.9v-11.1h1.9v1.6c0.2-0.4,0.5-0.7,0.6-0.8c0.4-0.4,1.4-1.2,2.9-1.2
		c0.5,0,2.2,0.1,3.2,1.5c0.7,1,0.7,2.1,0.7,3.3v6.6H563.5z"/>
	<path class="st9" d="M570.8,273.4c-1.1,0-1.6-0.3-1.9-0.7c-0.3-0.4-0.3-0.9-0.3-1.8v-7.2h-1.8v-1.6h1.8v-3.5h1.9v3.5h2v1.6h-2v6.4
		c0,0.8,0,1.2,0.1,1.6c0.1,0.3,0.4,0.3,0.7,0.3c0.2,0,0.7-0.1,1.2-0.3v1.6C572.5,273.2,571.5,273.4,570.8,273.4z"/>
	<path class="st9" d="M583.6,271.4c-0.6,0.9-1.8,2.2-4.3,2.2c-1.2,0-1.9-0.3-2.3-0.4c-1.4-0.6-3.1-2.1-3.1-5.6
		c0-2.1,0.7-3.2,1.3-3.9c1-1.2,2.6-1.9,4.1-1.9c0.6,0,1.2,0.1,1.8,0.3c0.7,0.2,2.1,0.9,2.8,2.6c0.3,0.7,0.5,1.6,0.5,3.3h-8.5
		c0,2,0.9,3.1,1.6,3.6c0.6,0.4,1.3,0.6,2,0.6c1,0,1.5-0.4,1.9-0.7c0.1-0.1,0.4-0.4,0.6-0.7c0.3-0.5,0.4-1,0.4-1.2l1.9,0.3
		C584.2,270,584,270.7,583.6,271.4z M582.1,265.5c-0.4-1.4-1.6-2.3-3-2.3c-2,0-3,1.7-3.2,3.4h6.4C582.2,266,582.2,265.8,582.1,265.5
		z"/>
	<path class="st9" d="M594.8,271.7c-0.6,0.9-1.8,1.8-4.2,1.8c-0.3,0-2.1,0-3.3-0.8c-0.2-0.1-0.5-0.3-0.8-0.7c-0.8-1-0.9-2-1-2.4
		l2.2-0.3c0,0.7,0.1,1.4,0.6,2c0.7,0.7,1.6,0.9,2.5,0.9c0.2,0,1.3,0,2.1-0.6c0.5-0.4,0.5-1,0.5-1.2c0-0.1,0-0.5-0.2-0.8
		c-0.4-0.6-1.5-0.8-2.1-0.9l-1.1-0.2c-1.4-0.3-2-0.5-2.6-0.9c-0.9-0.5-1.3-1.3-1.3-2.4c0-0.3,0-1.1,0.6-1.8c1.1-1.5,3.3-1.5,3.7-1.5
		c2.3,0,3.6,1.2,4.2,2c0.4,0.7,0.5,1.4,0.6,1.7l-2,0.2c0-0.5,0-0.8-0.2-1c-0.3-0.6-1.2-1.4-2.8-1.4c-1.5,0-2.2,0.9-2.2,1.6
		c0,0.1,0,0.3,0.2,0.6c0.4,0.6,1.2,0.9,2.5,1.2l1.1,0.3c0.3,0.1,0.7,0.2,1,0.3c1.5,0.4,2.7,1.3,2.7,3
		C595.3,270.3,595.3,271,594.8,271.7z"/>
	<path class="st9" d="M448.4,291.2c-0.6,0.2-1.2,0.2-2.5,0.2h-4.8v7.1h-2.2v-16.7h7.2c1.3,0,2.4,0,3.5,0.7c1.9,1.2,2,3.4,2,4
		C451.6,288.6,450.6,290.6,448.4,291.2z M449.3,285.3c-0.3-0.8-0.9-1.3-1.7-1.5c-0.5-0.1-0.9-0.1-1.3-0.1h-5.2v5.7h4.7
		c0.6,0,1.2,0,1.8-0.1c1.3-0.4,1.9-1.6,1.9-2.9C449.4,286.3,449.4,285.8,449.3,285.3z"/>
	<path class="st9" d="M462.1,296.6c-0.6,0.9-1.8,2.2-4.3,2.2c-1.2,0-1.9-0.3-2.3-0.4c-1.4-0.6-3.1-2.1-3.1-5.6
		c0-2.1,0.7-3.2,1.3-3.9c1-1.2,2.6-1.9,4.1-1.9c0.6,0,1.2,0.1,1.8,0.3c0.7,0.2,2.1,0.9,2.8,2.6c0.3,0.7,0.5,1.6,0.5,3.3h-8.5
		c0,2,0.9,3.1,1.6,3.6c0.6,0.4,1.3,0.6,2,0.6c1,0,1.5-0.4,1.9-0.7c0.1-0.1,0.4-0.4,0.6-0.7c0.3-0.5,0.4-1,0.4-1.2l1.9,0.3
		C462.8,295.3,462.5,296,462.1,296.6z M460.6,290.8c-0.4-1.4-1.6-2.3-3-2.3c-2,0-3,1.7-3.2,3.4h6.4
		C460.8,291.3,460.7,291.1,460.6,290.8z"/>
	<path class="st9" d="M469.1,289.2c-1.1,0.2-2,0.9-2.2,2c-0.2,0.6-0.2,1-0.2,2.1v5.2h-1.9v-11.1h1.9v2c0.3-0.5,0.6-0.9,1-1.3
		c0.4-0.4,1.3-0.9,2.8-0.9v2C469.8,289.1,469.5,289.2,469.1,289.2z"/>
	<path class="st9" d="M480.3,297c-0.6,0.9-1.8,1.8-4.2,1.8c-0.3,0-2.1,0-3.3-0.8c-0.2-0.1-0.5-0.3-0.8-0.7c-0.8-1-0.9-2-1-2.4
		l2.2-0.3c0,0.7,0.1,1.4,0.6,2c0.7,0.7,1.6,0.9,2.5,0.9c0.2,0,1.3,0,2.1-0.6c0.5-0.4,0.5-1,0.5-1.2c0-0.1,0-0.5-0.2-0.8
		c-0.4-0.6-1.5-0.8-2.1-0.9l-1.1-0.2c-1.4-0.3-2-0.5-2.6-0.9c-0.9-0.5-1.3-1.3-1.3-2.4c0-0.3,0-1.1,0.6-1.8c1.1-1.5,3.3-1.5,3.7-1.5
		c2.3,0,3.6,1.2,4.2,2c0.4,0.7,0.5,1.4,0.6,1.7l-2,0.2c0-0.5,0-0.8-0.2-1c-0.3-0.6-1.2-1.4-2.8-1.4c-1.5,0-2.2,0.9-2.2,1.6
		c0,0.1,0,0.3,0.2,0.6c0.4,0.6,1.2,0.9,2.5,1.2l1.1,0.3c0.3,0.1,0.7,0.2,1,0.3c1.5,0.4,2.7,1.3,2.7,3
		C480.8,295.6,480.7,296.3,480.3,297z"/>
	<path class="st9" d="M491.6,297c-0.6,0.7-1.8,1.9-4.1,1.9c-0.7,0-2.5-0.1-3.9-1.5c-0.7-0.7-1.6-2.1-1.6-4.4c0-1.4,0.4-2.9,1.3-4
		c1.1-1.4,2.5-1.9,4.3-1.9c0.8,0,1.6,0.1,2.2,0.4c1.3,0.5,3.2,2.1,3.1,5.5C492.9,293.5,492.9,295.4,491.6,297z M490.3,290.1
		c-0.2-0.3-0.4-0.6-0.7-0.9c-0.8-0.7-1.7-0.7-2-0.7c-3.6,0-3.5,3.9-3.5,4.5c0,0.5,0.1,1,0.1,1.1c0.1,0.8,0.7,3.2,3.3,3.1
		c0.5,0,1.8-0.1,2.6-1.4c0.7-1.1,0.8-2.8,0.8-3C490.9,292.6,490.9,291.1,490.3,290.1z"/>
	<path class="st9" d="M502.3,298.5v-7.1c0-0.3,0.1-1.4-0.9-2.1c-0.3-0.2-0.8-0.5-1.7-0.5c-0.8,0-1.5,0.3-2.1,0.8
		c-0.1,0.1-0.5,0.5-0.7,1c-0.2,0.5-0.2,1-0.2,1.5v6.3h-1.9v-11.1h1.9v1.6c0.2-0.4,0.5-0.7,0.6-0.8c0.4-0.4,1.4-1.2,2.9-1.2
		c0.5,0,2.2,0.1,3.2,1.5c0.7,1,0.7,2.1,0.7,3.3v6.6H502.3z"/>
	<path class="st9" d="M515.6,298.6c-0.1,0-0.8,0-1.2-0.3c-0.2-0.1-0.3-0.4-0.4-0.4c-0.3-0.4-0.3-0.7-0.4-0.9
		c-0.5,0.6-1.7,1.8-3.8,1.8c-0.8,0-1.3-0.1-1.5-0.2c-1.3-0.4-2.2-1.5-2.2-3c0-0.5,0.1-1.6,1.2-2.4c1.1-0.9,3.1-1.2,4.5-1.3l1.7-0.1
		c0-0.3,0-0.6,0-0.9c0-0.8-0.2-2.5-2.5-2.5c-0.4,0-1.8,0-2.3,1.3c-0.1,0.4-0.1,0.6-0.1,1l-2-0.1c0-0.2,0-0.6,0.2-1.1
		c0.4-1.1,1.4-2.6,4.1-2.6c0.3,0,0.9,0,1.8,0.2c0.4,0.1,1.9,0.6,2.5,2.1c0.2,0.6,0.2,1.2,0.2,2.4v3.6c0,0.2,0,0.5,0,0.7
		c0,0.3,0,0.9,0.8,0.9c0.2,0,0.4,0,0.6-0.1v1.6C516.2,298.6,515.9,298.6,515.6,298.6z M513.5,293.3V293c-0.9,0.1-3.1,0.4-4,0.8
		c-0.4,0.1-1.4,0.6-1.4,1.7c0,0.8,0.6,1.7,2.1,1.7c1,0,3.3-0.4,3.3-3.3C513.5,293.7,513.5,293.5,513.5,293.3z"/>
	<path class="st9" d="M518.2,298.5v-16.7h1.8v16.7H518.2z"/>
	<path class="st9" d="M531.8,296.6c-0.6,0.9-1.8,2.2-4.3,2.2c-1.2,0-1.9-0.3-2.3-0.4c-1.4-0.6-3.1-2.1-3.1-5.6
		c0-2.1,0.7-3.2,1.3-3.9c1-1.2,2.6-1.9,4.1-1.9c0.6,0,1.2,0.1,1.8,0.3c0.7,0.2,2.1,0.9,2.8,2.6c0.3,0.7,0.5,1.6,0.5,3.3H524
		c0,2,0.9,3.1,1.6,3.6c0.6,0.4,1.3,0.6,2,0.6c1,0,1.5-0.4,1.9-0.7c0.1-0.1,0.4-0.4,0.6-0.7c0.3-0.5,0.4-1,0.4-1.2l1.9,0.3
		C532.4,295.3,532.2,296,531.8,296.6z M530.3,290.8c-0.4-1.4-1.6-2.3-3-2.3c-2,0-3,1.7-3.2,3.4h6.4
		C530.4,291.3,530.3,291.1,530.3,290.8z"/>
	<path class="st9" d="M543,297c-0.6,0.9-1.8,1.8-4.2,1.8c-0.3,0-2.1,0-3.3-0.8c-0.2-0.1-0.5-0.3-0.8-0.7c-0.8-1-0.9-2-1-2.4l2.2-0.3
		c0,0.7,0.1,1.4,0.6,2c0.7,0.7,1.6,0.9,2.5,0.9c0.2,0,1.3,0,2.1-0.6c0.5-0.4,0.5-1,0.5-1.2c0-0.1,0-0.5-0.2-0.8
		c-0.4-0.6-1.5-0.8-2.1-0.9l-1.1-0.2c-1.4-0.3-2-0.5-2.6-0.9c-0.9-0.5-1.3-1.3-1.3-2.4c0-0.3,0-1.1,0.6-1.8c1.1-1.5,3.3-1.5,3.7-1.5
		c2.3,0,3.6,1.2,4.2,2c0.4,0.7,0.5,1.4,0.6,1.7l-2,0.2c0-0.5,0-0.8-0.2-1c-0.3-0.6-1.2-1.4-2.8-1.4c-1.5,0-2.2,0.9-2.2,1.6
		c0,0.1,0,0.3,0.2,0.6c0.4,0.6,1.2,0.9,2.5,1.2l1.1,0.3c0.3,0.1,0.7,0.2,1,0.3c1.5,0.4,2.7,1.3,2.7,3
		C543.5,295.6,543.4,296.3,543,297z"/>
</g>
<g>
	<path class="st9" d="M421.4,357.7l-1.8-5.1h-6.4l-1.9,5.1H409l6.4-16.7h2.3l6.1,16.7H421.4z M416.5,343.7l-2.6,7h5L416.5,343.7z"/>
	<path class="st9" d="M433.6,356.2c-0.6,0.9-1.8,1.8-4.2,1.8c-0.3,0-2.1,0-3.3-0.8c-0.2-0.1-0.5-0.3-0.8-0.7c-0.8-1-0.9-2-1-2.4
		l2.2-0.3c0,0.7,0.1,1.4,0.6,2c0.7,0.7,1.6,0.9,2.5,0.9c0.2,0,1.3,0,2.1-0.6c0.5-0.4,0.5-1,0.5-1.2c0-0.1,0-0.5-0.2-0.8
		c-0.4-0.6-1.5-0.8-2.1-0.9l-1.1-0.2c-1.4-0.3-2-0.5-2.6-0.9c-0.9-0.5-1.3-1.3-1.3-2.4c0-0.3,0-1.1,0.6-1.8c1.1-1.5,3.3-1.5,3.7-1.5
		c2.3,0,3.6,1.2,4.2,2c0.4,0.7,0.5,1.4,0.6,1.7l-2,0.2c0-0.5,0-0.8-0.2-1c-0.3-0.6-1.2-1.4-2.8-1.4c-1.5,0-2.2,0.9-2.2,1.6
		c0,0.1,0,0.3,0.2,0.6c0.4,0.6,1.2,0.9,2.5,1.2l1.1,0.3c0.3,0.1,0.7,0.2,1,0.3c1.5,0.4,2.7,1.3,2.7,3
		C434.1,354.8,434.1,355.5,433.6,356.2z"/>
	<path class="st9" d="M436,343.2V341h1.8v2.2H436z M436,357.7v-11.1h1.8v11.1H436z"/>
	<path class="st9" d="M448.9,356.2c-0.6,0.9-1.8,1.8-4.2,1.8c-0.3,0-2.1,0-3.3-0.8c-0.2-0.1-0.5-0.3-0.8-0.7c-0.8-1-0.9-2-1-2.4
		l2.2-0.3c0,0.7,0.1,1.4,0.6,2c0.7,0.7,1.6,0.9,2.5,0.9c0.2,0,1.3,0,2.1-0.6c0.5-0.4,0.5-1,0.5-1.2c0-0.1,0-0.5-0.2-0.8
		c-0.4-0.6-1.5-0.8-2.1-0.9l-1.1-0.2c-1.4-0.3-2-0.5-2.6-0.9c-0.9-0.5-1.3-1.3-1.3-2.4c0-0.3,0-1.1,0.6-1.8c1.1-1.5,3.3-1.5,3.7-1.5
		c2.3,0,3.6,1.2,4.2,2c0.4,0.7,0.5,1.4,0.6,1.7l-2,0.2c0-0.5,0-0.8-0.2-1c-0.3-0.6-1.2-1.4-2.8-1.4c-1.5,0-2.2,0.9-2.2,1.6
		c0,0.1,0,0.3,0.2,0.6c0.4,0.6,1.2,0.9,2.5,1.2l1.1,0.3c0.3,0.1,0.7,0.2,1,0.3c1.5,0.4,2.7,1.3,2.7,3
		C449.4,354.8,449.4,355.5,448.9,356.2z"/>
	<path class="st9" d="M454,357.9c-1.1,0-1.6-0.3-1.9-0.7s-0.3-0.9-0.3-1.8v-7.2h-1.8v-1.6h1.8V343h1.9v3.5h2v1.6h-2v6.4
		c0,0.8,0,1.2,0.1,1.6c0.1,0.3,0.4,0.3,0.7,0.3c0.2,0,0.7-0.1,1.2-0.3v1.6C455.7,357.7,454.8,357.9,454,357.9z"/>
	<path class="st9" d="M466.8,355.8c-0.6,0.9-1.8,2.2-4.3,2.2c-1.2,0-1.9-0.3-2.3-0.4c-1.4-0.6-3.1-2.1-3.1-5.6
		c0-2.1,0.7-3.2,1.3-3.9c1-1.2,2.6-1.9,4.1-1.9c0.6,0,1.2,0.1,1.8,0.3c0.7,0.2,2.1,0.9,2.8,2.6c0.3,0.7,0.5,1.6,0.5,3.3h-8.5
		c0,2,0.9,3.1,1.6,3.6c0.6,0.4,1.3,0.6,2,0.6c1,0,1.5-0.4,1.9-0.7c0.1-0.1,0.4-0.4,0.6-0.7c0.3-0.5,0.4-1,0.4-1.2l1.9,0.3
		C467.5,354.5,467.2,355.2,466.8,355.8z M465.3,350c-0.4-1.4-1.6-2.3-3-2.3c-2,0-3,1.7-3.2,3.4h6.4
		C465.4,350.5,465.4,350.2,465.3,350z"/>
	<path class="st9" d="M476.9,357.7v-7.1c0-0.3,0.1-1.4-0.9-2.1c-0.3-0.2-0.8-0.5-1.7-0.5c-0.8,0-1.5,0.3-2.1,0.8
		c-0.1,0.1-0.5,0.5-0.7,1c-0.2,0.5-0.2,1-0.2,1.5v6.3h-1.9v-11.1h1.9v1.6c0.2-0.4,0.5-0.7,0.6-0.8c0.4-0.4,1.4-1.2,2.9-1.2
		c0.5,0,2.2,0.1,3.2,1.5c0.7,1,0.7,2.1,0.7,3.3v6.6H476.9z"/>
	<path class="st9" d="M489.6,357c-1.3,1-2.9,1-3.4,1c-0.3,0-1.2,0-2.1-0.3c-1.3-0.5-3.4-2-3.4-5.5c0-3.6,2-5.2,3.4-5.7
		c0.9-0.3,1.7-0.3,2-0.3c3,0,4.3,1.6,4.8,2.7c0.2,0.4,0.2,0.6,0.3,1l-2.1,0.2c0-0.2-0.1-0.8-0.5-1.3c-0.8-1.2-2.1-1.3-2.6-1.3
		c-1.7,0-3.4,1.1-3.4,4.5c0,2,0.6,3.1,1.3,3.7c0.6,0.6,1.4,0.8,2.2,0.8c0.5,0,1-0.1,1.4-0.3c1.2-0.5,1.5-1.6,1.7-2.8l2,0.2
		C491.2,355.5,490.2,356.6,489.6,357z"/>
	<path class="st9" d="M493.3,343.2V341h1.8v2.2H493.3z M493.3,357.7v-11.1h1.8v11.1H493.3z"/>
	<path class="st9" d="M506.4,357.8c-0.1,0-0.8,0-1.2-0.3c-0.2-0.1-0.3-0.4-0.4-0.4c-0.3-0.4-0.3-0.7-0.4-0.9
		c-0.5,0.6-1.7,1.8-3.8,1.8c-0.8,0-1.3-0.1-1.5-0.2c-1.3-0.4-2.2-1.5-2.2-3c0-0.5,0.1-1.6,1.2-2.4c1.1-0.9,3.1-1.2,4.5-1.3l1.7-0.1
		c0-0.3,0-0.6,0-0.9c0-0.8-0.2-2.5-2.5-2.5c-0.4,0-1.8,0-2.3,1.3c-0.1,0.4-0.1,0.6-0.1,1l-2-0.1c0-0.2,0-0.6,0.2-1.1
		c0.4-1.1,1.4-2.6,4.1-2.6c0.3,0,0.9,0,1.8,0.2c0.4,0.1,1.9,0.6,2.5,2.1c0.2,0.6,0.2,1.2,0.2,2.4v3.6c0,0.2,0,0.5,0,0.7
		c0,0.3,0,0.9,0.8,0.9c0.2,0,0.4,0,0.6-0.1v1.6C507.1,357.8,506.7,357.8,506.4,357.8z M504.3,352.4v-0.2c-0.9,0.1-3.1,0.4-4,0.8
		c-0.4,0.1-1.4,0.6-1.4,1.7c0,0.8,0.6,1.7,2.1,1.7c1,0,3.3-0.4,3.3-3.3C504.3,352.9,504.3,352.7,504.3,352.4z"/>
	<path class="st9" d="M517.6,356.2c-0.6,0.9-1.8,1.8-4.2,1.8c-0.3,0-2.1,0-3.3-0.8c-0.2-0.1-0.5-0.3-0.8-0.7c-0.8-1-0.9-2-1-2.4
		l2.2-0.3c0,0.7,0.1,1.4,0.6,2c0.7,0.7,1.6,0.9,2.5,0.9c0.2,0,1.3,0,2.1-0.6c0.5-0.4,0.5-1,0.5-1.2c0-0.1,0-0.5-0.2-0.8
		c-0.4-0.6-1.5-0.8-2.1-0.9l-1.1-0.2c-1.4-0.3-2-0.5-2.6-0.9c-0.9-0.5-1.3-1.3-1.3-2.4c0-0.3,0-1.1,0.6-1.8c1.1-1.5,3.3-1.5,3.7-1.5
		c2.3,0,3.6,1.2,4.2,2c0.4,0.7,0.5,1.4,0.6,1.7l-2,0.2c0-0.5,0-0.8-0.2-1c-0.3-0.6-1.2-1.4-2.8-1.4c-1.5,0-2.2,0.9-2.2,1.6
		c0,0.1,0,0.3,0.2,0.6c0.4,0.6,1.2,0.9,2.5,1.2l1.1,0.3c0.3,0.1,0.7,0.2,1,0.3c1.5,0.4,2.7,1.3,2.7,3
		C518.1,354.8,518,355.5,517.6,356.2z"/>
	<path class="st9" d="M535.6,350.4c-0.6,0.2-1.2,0.2-2.5,0.2h-4.8v7.1h-2.2V341h7.2c1.3,0,2.4,0,3.5,0.7c1.9,1.2,2,3.4,2,4
		C538.8,347.8,537.7,349.8,535.6,350.4z M536.4,344.5c-0.3-0.8-0.9-1.3-1.7-1.5c-0.5-0.1-0.9-0.1-1.3-0.1h-5.2v5.7h4.7
		c0.6,0,1.2,0,1.8-0.1c1.3-0.4,1.9-1.6,1.9-2.9C536.6,345.5,536.6,345,536.4,344.5z"/>
	<path class="st9" d="M540.2,357.7V341h1.8v16.7H540.2z"/>
	<path class="st9" d="M553.3,357.8c-0.1,0-0.8,0-1.2-0.3c-0.2-0.1-0.3-0.4-0.4-0.4c-0.3-0.4-0.3-0.7-0.4-0.9
		c-0.5,0.6-1.7,1.8-3.8,1.8c-0.8,0-1.3-0.1-1.5-0.2c-1.3-0.4-2.2-1.5-2.2-3c0-0.5,0.1-1.6,1.2-2.4c1.1-0.9,3.1-1.2,4.5-1.3l1.7-0.1
		c0-0.3,0-0.6,0-0.9c0-0.8-0.2-2.5-2.5-2.5c-0.4,0-1.8,0-2.3,1.3c-0.1,0.4-0.1,0.6-0.1,1l-2-0.1c0-0.2,0-0.6,0.2-1.1
		c0.4-1.1,1.4-2.6,4.1-2.6c0.3,0,0.9,0,1.8,0.2c0.4,0.1,1.9,0.6,2.5,2.1c0.2,0.6,0.2,1.2,0.2,2.4v3.6c0,0.2,0,0.5,0,0.7
		c0,0.3,0,0.9,0.8,0.9c0.2,0,0.4,0,0.6-0.1v1.6C554,357.8,553.6,357.8,553.3,357.8z M551.2,352.4v-0.2c-0.9,0.1-3.1,0.4-4,0.8
		c-0.4,0.1-1.4,0.6-1.4,1.7c0,0.8,0.6,1.7,2.1,1.7c1,0,3.3-0.4,3.3-3.3C551.2,352.9,551.2,352.7,551.2,352.4z"/>
	<path class="st9" d="M558.7,357.9c-1.1,0-1.6-0.3-1.9-0.7c-0.3-0.4-0.3-0.9-0.3-1.8v-7.2h-1.8v-1.6h1.8V343h1.9v3.5h2v1.6h-2v6.4
		c0,0.8,0,1.2,0.1,1.6c0.1,0.3,0.4,0.3,0.7,0.3c0.2,0,0.7-0.1,1.2-0.3v1.6C560.4,357.7,559.4,357.9,558.7,357.9z"/>
	<path class="st9" d="M571.1,357.8c-0.1,0-0.8,0-1.2-0.3c-0.2-0.1-0.3-0.4-0.4-0.4c-0.3-0.4-0.3-0.7-0.4-0.9
		c-0.5,0.6-1.7,1.8-3.8,1.8c-0.8,0-1.3-0.1-1.5-0.2c-1.3-0.4-2.2-1.5-2.2-3c0-0.5,0.1-1.6,1.2-2.4c1.1-0.9,3.1-1.2,4.5-1.3l1.7-0.1
		c0-0.3,0-0.6,0-0.9c0-0.8-0.2-2.5-2.5-2.5c-0.4,0-1.8,0-2.3,1.3c-0.1,0.4-0.1,0.6-0.1,1l-2-0.1c0-0.2,0-0.6,0.2-1.1
		c0.4-1.1,1.4-2.6,4.1-2.6c0.3,0,0.9,0,1.8,0.2c0.4,0.1,1.9,0.6,2.5,2.1c0.2,0.6,0.2,1.2,0.2,2.4v3.6c0,0.2,0,0.5,0,0.7
		c0,0.3,0,0.9,0.8,0.9c0.2,0,0.4,0,0.6-0.1v1.6C571.7,357.8,571.4,357.8,571.1,357.8z M569,352.4v-0.2c-0.9,0.1-3.1,0.4-4,0.8
		c-0.4,0.1-1.4,0.6-1.4,1.7c0,0.8,0.6,1.7,2.1,1.7c1,0,3.3-0.4,3.3-3.3C569,352.9,569,352.7,569,352.4z"/>
</g>
<g>
	<path class="st9" d="M683.7,357.7l-1.8-5.1h-6.4l-1.9,5.1h-2.4l6.4-16.7h2.3l6.1,16.7H683.7z M678.7,343.7l-2.6,7h5L678.7,343.7z"
		/>
	<path class="st9" d="M695.9,356.2c-0.6,0.9-1.8,1.8-4.2,1.8c-0.3,0-2.1,0-3.3-0.8c-0.2-0.1-0.5-0.3-0.8-0.7c-0.8-1-0.9-2-1-2.4
		l2.2-0.3c0,0.7,0.1,1.4,0.6,2c0.7,0.7,1.6,0.9,2.5,0.9c0.2,0,1.3,0,2.1-0.6c0.5-0.4,0.5-1,0.5-1.2c0-0.1,0-0.5-0.2-0.8
		c-0.4-0.6-1.5-0.8-2.1-0.9l-1.1-0.2c-1.4-0.3-2-0.5-2.6-0.9c-0.9-0.5-1.3-1.3-1.3-2.4c0-0.3,0-1.1,0.6-1.8c1.1-1.5,3.3-1.5,3.7-1.5
		c2.3,0,3.6,1.2,4.2,2c0.4,0.7,0.5,1.4,0.6,1.7l-2,0.2c0-0.5,0-0.8-0.2-1c-0.3-0.6-1.2-1.4-2.8-1.4c-1.5,0-2.2,0.9-2.2,1.6
		c0,0.1,0,0.3,0.2,0.6c0.4,0.6,1.2,0.9,2.5,1.2l1.1,0.3c0.3,0.1,0.7,0.2,1,0.3c1.5,0.4,2.7,1.3,2.7,3
		C696.4,354.8,696.3,355.5,695.9,356.2z"/>
	<path class="st9" d="M698.3,343.2V341h1.8v2.2H698.3z M698.3,357.7v-11.1h1.8v11.1H698.3z"/>
	<path class="st9" d="M711.2,356.2c-0.6,0.9-1.8,1.8-4.2,1.8c-0.3,0-2.1,0-3.3-0.8c-0.2-0.1-0.5-0.3-0.8-0.7c-0.8-1-0.9-2-1-2.4
		l2.2-0.3c0,0.7,0.1,1.4,0.6,2c0.7,0.7,1.6,0.9,2.5,0.9c0.2,0,1.3,0,2.1-0.6c0.5-0.4,0.5-1,0.5-1.2c0-0.1,0-0.5-0.2-0.8
		c-0.4-0.6-1.5-0.8-2.1-0.9l-1.1-0.2c-1.4-0.3-2-0.5-2.6-0.9c-0.9-0.5-1.3-1.3-1.3-2.4c0-0.3,0-1.1,0.6-1.8c1.1-1.5,3.3-1.5,3.7-1.5
		c2.3,0,3.6,1.2,4.2,2c0.4,0.7,0.5,1.4,0.6,1.7l-2,0.2c0-0.5,0-0.8-0.2-1c-0.3-0.6-1.2-1.4-2.8-1.4c-1.5,0-2.2,0.9-2.2,1.6
		c0,0.1,0,0.3,0.2,0.6c0.4,0.6,1.2,0.9,2.5,1.2l1.1,0.3c0.3,0.1,0.7,0.2,1,0.3c1.5,0.4,2.7,1.3,2.7,3
		C711.7,354.8,711.6,355.5,711.2,356.2z"/>
	<path class="st9" d="M716.3,357.9c-1.1,0-1.6-0.3-1.9-0.7c-0.3-0.4-0.3-0.9-0.3-1.8v-7.2h-1.8v-1.6h1.8V343h1.9v3.5h2v1.6h-2v6.4
		c0,0.8,0,1.2,0.1,1.6c0.1,0.3,0.4,0.3,0.7,0.3c0.2,0,0.7-0.1,1.2-0.3v1.6C718,357.7,717,357.9,716.3,357.9z"/>
	<path class="st9" d="M729.1,355.8c-0.6,0.9-1.8,2.2-4.3,2.2c-1.2,0-1.9-0.3-2.3-0.4c-1.4-0.6-3.1-2.1-3.1-5.6
		c0-2.1,0.7-3.2,1.3-3.9c1-1.2,2.6-1.9,4.1-1.9c0.6,0,1.2,0.1,1.8,0.3c0.7,0.2,2.1,0.9,2.8,2.6c0.3,0.7,0.5,1.6,0.5,3.3h-8.5
		c0,2,0.9,3.1,1.6,3.6c0.6,0.4,1.3,0.6,2,0.6c1,0,1.5-0.4,1.9-0.7c0.1-0.1,0.4-0.4,0.6-0.7c0.3-0.5,0.4-1,0.4-1.2l1.9,0.3
		C729.7,354.5,729.5,355.2,729.1,355.8z M727.6,350c-0.4-1.4-1.6-2.3-3-2.3c-2,0-3,1.7-3.2,3.4h6.4
		C727.7,350.5,727.7,350.2,727.6,350z"/>
	<path class="st9" d="M739.1,357.7v-7.1c0-0.3,0.1-1.4-0.9-2.1c-0.3-0.2-0.8-0.5-1.7-0.5c-0.8,0-1.5,0.3-2.1,0.8
		c-0.1,0.1-0.5,0.5-0.7,1c-0.2,0.5-0.2,1-0.2,1.5v6.3h-1.9v-11.1h1.9v1.6c0.2-0.4,0.5-0.7,0.6-0.8c0.4-0.4,1.4-1.2,2.9-1.2
		c0.5,0,2.2,0.1,3.2,1.5c0.7,1,0.7,2.1,0.7,3.3v6.6H739.1z"/>
	<path class="st9" d="M751.9,357c-1.3,1-2.9,1-3.4,1c-0.3,0-1.2,0-2.1-0.3c-1.3-0.5-3.4-2-3.4-5.5c0-3.6,2-5.2,3.4-5.7
		c0.9-0.3,1.7-0.3,2-0.3c3,0,4.3,1.6,4.8,2.7c0.2,0.4,0.2,0.6,0.3,1l-2.1,0.2c0-0.2-0.1-0.8-0.5-1.3c-0.8-1.2-2.1-1.3-2.6-1.3
		c-1.7,0-3.4,1.1-3.4,4.5c0,2,0.6,3.1,1.3,3.7c0.6,0.6,1.4,0.8,2.2,0.8c0.5,0,1-0.1,1.4-0.3c1.2-0.5,1.5-1.6,1.7-2.8l2,0.2
		C753.5,355.5,752.5,356.6,751.9,357z"/>
	<path class="st9" d="M755.6,343.2V341h1.8v2.2H755.6z M755.6,357.7v-11.1h1.8v11.1H755.6z"/>
	<path class="st9" d="M768.7,357.8c-0.1,0-0.8,0-1.2-0.3c-0.2-0.1-0.3-0.4-0.4-0.4c-0.3-0.4-0.3-0.7-0.4-0.9
		c-0.5,0.6-1.7,1.8-3.8,1.8c-0.8,0-1.3-0.1-1.5-0.2c-1.3-0.4-2.2-1.5-2.2-3c0-0.5,0.1-1.6,1.2-2.4c1.1-0.9,3.1-1.2,4.5-1.3l1.7-0.1
		c0-0.3,0-0.6,0-0.9c0-0.8-0.2-2.5-2.5-2.5c-0.4,0-1.8,0-2.3,1.3c-0.1,0.4-0.1,0.6-0.1,1l-2-0.1c0-0.2,0-0.6,0.2-1.1
		c0.4-1.1,1.4-2.6,4.1-2.6c0.3,0,0.9,0,1.8,0.2c0.4,0.1,1.9,0.6,2.5,2.1c0.2,0.6,0.2,1.2,0.2,2.4v3.6c0,0.2,0,0.5,0,0.7
		c0,0.3,0,0.9,0.8,0.9c0.2,0,0.4,0,0.6-0.1v1.6C769.3,357.8,769,357.8,768.7,357.8z M766.6,352.4v-0.2c-0.9,0.1-3.1,0.4-4,0.8
		c-0.4,0.1-1.4,0.6-1.4,1.7c0,0.8,0.6,1.7,2.1,1.7c1,0,3.3-0.4,3.3-3.3C766.6,352.9,766.6,352.7,766.6,352.4z"/>
	<path class="st9" d="M779.8,356.2c-0.6,0.9-1.8,1.8-4.2,1.8c-0.3,0-2.1,0-3.3-0.8c-0.2-0.1-0.5-0.3-0.8-0.7c-0.8-1-0.9-2-1-2.4
		l2.2-0.3c0,0.7,0.1,1.4,0.6,2c0.7,0.7,1.6,0.9,2.5,0.9c0.2,0,1.3,0,2.1-0.6c0.5-0.4,0.5-1,0.5-1.2c0-0.1,0-0.5-0.2-0.8
		c-0.4-0.6-1.5-0.8-2.1-0.9l-1.1-0.2c-1.4-0.3-2-0.5-2.6-0.9c-0.9-0.5-1.3-1.3-1.3-2.4c0-0.3,0-1.1,0.6-1.8c1.1-1.5,3.3-1.5,3.7-1.5
		c2.3,0,3.6,1.2,4.2,2c0.4,0.7,0.5,1.4,0.6,1.7l-2,0.2c0-0.5,0-0.8-0.2-1c-0.3-0.6-1.2-1.4-2.8-1.4c-1.5,0-2.2,0.9-2.2,1.6
		c0,0.1,0,0.3,0.2,0.6c0.4,0.6,1.2,0.9,2.5,1.2l1.1,0.3c0.3,0.1,0.7,0.2,1,0.3c1.5,0.4,2.7,1.3,2.7,3
		C780.3,354.8,780.3,355.5,779.8,356.2z"/>
	<path class="st9" d="M802.8,355c-0.9,1.2-2.9,3.1-6.7,3.1c-1,0-3.6-0.1-5.7-2.1c-1.1-1-2.6-3.1-2.6-6.7c0-0.9,0-3.8,2.1-6.1
		c1.6-1.8,4-2.6,6.3-2.6c1.1,0,2.3,0.2,3.3,0.6c3.5,1.3,5.1,4.5,5.1,8C804.6,350.1,804.5,352.7,802.8,355z M800.9,344.5
		c-1.5-2.1-3.8-2.2-4.7-2.2c-2.7,0-4.1,1.4-4.7,2.3c-0.9,1.3-1.3,3.1-1.3,4.7c0,2.2,0.7,3.7,1.1,4.4c0.4,0.6,0.9,1.1,1.1,1.3
		c0.7,0.6,1.3,0.9,1.6,1c0.5,0.2,1.1,0.4,2.3,0.4c0.4,0,1.5,0,2.5-0.5c1.6-0.7,3.4-2.7,3.4-6.7C802.2,348.6,802.2,346.3,800.9,344.5
		z"/>
	<path class="st9" d="M811.1,348.4c-1.1,0.2-2,0.9-2.2,2c-0.2,0.6-0.2,1-0.2,2.1v5.2h-1.9v-11.1h1.9v2c0.3-0.5,0.6-0.9,1-1.3
		c0.4-0.4,1.3-0.9,2.8-0.9v2C811.8,348.3,811.5,348.4,811.1,348.4z"/>
	<path class="st9" d="M822.8,356.2c-0.6,0.7-1.8,1.9-4.1,1.9c-0.7,0-2.5-0.1-3.9-1.5c-0.7-0.7-1.6-2.1-1.6-4.4c0-1.4,0.4-2.9,1.3-4
		c1.1-1.4,2.5-1.9,4.3-1.9c0.8,0,1.6,0.1,2.2,0.4c1.3,0.5,3.2,2.1,3.1,5.5C824.1,352.7,824,354.6,822.8,356.2z M821.5,349.3
		c-0.2-0.3-0.4-0.6-0.7-0.9c-0.8-0.7-1.7-0.7-2-0.7c-3.6,0-3.5,3.9-3.5,4.5c0,0.5,0.1,1,0.1,1.1c0.1,0.8,0.7,3.2,3.3,3.1
		c0.5,0,1.8-0.1,2.6-1.4c0.7-1.1,0.8-2.8,0.8-3C822.1,351.8,822.1,350.3,821.5,349.3z"/>
</g>
<g>
	<path class="st9" d="M656.8,271.8c-0.9,0.9-2.4,1.8-5.3,1.8c-0.5,0-2.8,0-4.6-1.2c-0.5-0.3-1-0.8-1.3-1.3c-1-1.3-1.1-2.8-1.2-3.4
		l2.4-0.3c0,0.5,0.1,1.9,1.1,3c0.6,0.6,1.7,1.3,3.7,1.3c0.2,0,0.9,0,1.5-0.2c0.7-0.2,2.6-0.9,2.6-3.1c0-1.1-0.5-1.6-0.9-1.9
		c-0.7-0.5-1.5-0.7-2.3-0.9l-1.4-0.3c-1.2-0.3-2.6-0.5-3.7-1.2c-2-1.1-2.3-2.6-2.3-3.6c0-1.3,0.6-2.4,1.6-3.3
		c1.7-1.4,3.8-1.4,4.5-1.4c1.6,0,3.2,0.3,4.5,1.3c0.8,0.6,1.2,1.2,1.3,1.5c0.5,0.8,0.6,1.5,0.8,2.4l-2.2,0.1c0-0.3-0.1-0.7-0.2-1
		c-0.3-1.2-1.4-2.6-4.1-2.6c-1.1,0-2.5,0.2-3.2,1.1c-0.4,0.4-0.6,1-0.6,1.5c0,0.2,0,0.8,0.4,1.2c0.6,0.9,1.9,1.1,2.9,1.4l1.8,0.4
		c0.4,0.1,0.9,0.2,1.3,0.3c0.5,0.1,2.6,0.6,3.6,2.3c0.2,0.4,0.6,1.1,0.6,2.3C658.2,269.1,658.1,270.6,656.8,271.8z"/>
	<path class="st9" d="M669.6,271.4c-0.6,0.9-1.8,2.2-4.3,2.2c-1.2,0-1.9-0.3-2.3-0.4c-1.4-0.6-3.1-2.1-3.1-5.6
		c0-2.1,0.7-3.2,1.3-3.9c1-1.2,2.6-1.9,4.1-1.9c0.6,0,1.2,0.1,1.8,0.3c0.7,0.2,2.1,0.9,2.8,2.6c0.3,0.7,0.5,1.6,0.5,3.3h-8.5
		c0,2,0.9,3.1,1.6,3.6c0.6,0.4,1.3,0.6,2,0.6c1,0,1.5-0.4,1.9-0.7c0.1-0.1,0.4-0.4,0.6-0.7c0.3-0.5,0.4-1,0.4-1.2l1.9,0.3
		C670.2,270,670,270.7,669.6,271.4z M668.1,265.5c-0.4-1.4-1.6-2.3-3-2.3c-2,0-3,1.7-3.2,3.4h6.4C668.2,266,668.1,265.8,668.1,265.5
		z"/>
	<path class="st9" d="M682.2,275.5c-0.6,2.1-2.2,2.6-3,2.9c-0.4,0.1-1,0.3-1.9,0.3c-0.3,0-1,0-1.9-0.3c-2.7-0.7-3.1-2.9-3.2-3.9h2.1
		c0,0.3,0,0.9,0.5,1.5c0.8,1.1,2.2,1.1,2.6,1.1c0.3,0,1.9,0,2.6-1.1c0.4-0.7,0.5-1.5,0.5-3.1l0-1.3c-1.3,1.8-2.7,2-3.6,2
		c-1.1,0-2-0.4-2.3-0.5c-1.2-0.6-2.8-2.2-2.8-5.3c0-0.5,0-2.5,1.2-4c0.9-1.2,2.1-1.9,4-1.9c0.3,0,0.9,0,1.5,0.3
		c0.5,0.2,1.3,0.6,2.1,1.6v-1.5h2v10.5C682.5,274.1,682.4,274.7,682.2,275.5z M680.3,265.8c-0.5-1.5-1.8-2.4-3.3-2.4
		c-0.5,0-1,0.1-1.4,0.3c-0.9,0.4-1.9,1.6-1.9,3.9c0,1.3,0.3,2.7,1.4,3.5c0.6,0.5,1.3,0.7,2.1,0.7c1.1,0,1.8-0.4,2.1-0.7
		c0.7-0.6,1.3-1.7,1.3-3.6C680.6,267.3,680.6,266.5,680.3,265.8z"/>
	<path class="st9" d="M692.4,273.2l0-1.7c-0.1,0.1-0.2,0.3-0.5,0.6c-0.9,0.9-2,1.4-3.3,1.4c-0.4,0-2.1-0.1-3-1.5
		c-0.6-1.1-0.6-2.3-0.6-3.4v-6.5h1.9v6.3c0,1.2,0,1.7,0.3,2.2c0.2,0.5,0.8,1.1,2,1.1c0.4,0,1.8-0.1,2.6-1.3c0.6-0.8,0.5-1.8,0.5-2.8
		v-5.6h1.8v11.1H692.4z"/>
	<path class="st9" d="M701.2,264c-1.1,0.2-2,0.9-2.2,2c-0.2,0.6-0.2,1-0.2,2.1v5.2h-1.9v-11.1h1.9v2c0.3-0.5,0.6-0.9,1-1.3
		c0.5-0.4,1.3-0.9,2.8-0.9v2C701.9,263.9,701.6,263.9,701.2,264z"/>
	<path class="st9" d="M712.9,271.7c-0.6,0.7-1.8,1.9-4.1,1.9c-0.7,0-2.5-0.1-3.9-1.5c-0.7-0.7-1.6-2.1-1.6-4.4c0-1.4,0.4-2.9,1.3-4
		c1.1-1.4,2.5-1.9,4.3-1.9c0.8,0,1.6,0.1,2.2,0.4c1.3,0.5,3.2,2.1,3.1,5.5C714.2,268.3,714.1,270.2,712.9,271.7z M711.6,264.8
		c-0.2-0.3-0.4-0.6-0.7-0.9c-0.8-0.7-1.7-0.7-2-0.7c-3.6,0-3.5,3.9-3.5,4.5c0,0.5,0.1,1,0.1,1.1c0.1,0.8,0.7,3.2,3.3,3.1
		c0.5,0,1.8-0.1,2.6-1.4c0.7-1.1,0.8-2.8,0.8-3C712.2,267.3,712.2,265.9,711.6,264.8z"/>
	<path class="st9" d="M730.5,273.2v-1.4c-0.6,0.7-1.6,1.8-3.8,1.8c-2.1,0-3.2-1-3.8-1.7c-0.6-0.8-1.4-2-1.4-4.3
		c0-1.4,0.3-2.7,1.1-3.9c0.5-0.7,1.7-2,4-2c1.6,0,2.7,0.7,3.2,1.1c0.3,0.2,0.4,0.4,0.7,0.7v-7h1.9v16.7H730.5z M730.4,266.2
		c-0.4-1.6-1.6-2.7-3.3-2.7c-0.5,0-1.7,0.1-2.6,1.2c-0.8,0.9-0.9,1.9-0.9,3.1c0,0.4,0,1.8,0.9,3c0.9,1.2,2.1,1.2,2.6,1.2
		c0.7,0,1.3-0.1,1.8-0.5c0.8-0.5,1.7-1.7,1.7-3.8C730.5,267.4,730.5,266.8,730.4,266.2z"/>
	<path class="st9" d="M744.1,271.4c-0.6,0.9-1.8,2.2-4.3,2.2c-1.2,0-1.9-0.3-2.3-0.4c-1.4-0.6-3.1-2.1-3.1-5.6
		c0-2.1,0.7-3.2,1.3-3.9c1-1.2,2.6-1.9,4.1-1.9c0.6,0,1.2,0.1,1.8,0.3c0.7,0.2,2.1,0.9,2.8,2.6c0.3,0.7,0.5,1.6,0.5,3.3h-8.5
		c0,2,0.9,3.1,1.6,3.6c0.6,0.4,1.3,0.6,2,0.6c1,0,1.5-0.4,1.9-0.7c0.1-0.1,0.4-0.4,0.6-0.7c0.3-0.5,0.4-1,0.4-1.2l1.9,0.3
		C744.7,270,744.5,270.7,744.1,271.4z M742.6,265.5c-0.4-1.4-1.6-2.3-3-2.3c-2,0-3,1.7-3.2,3.4h6.4
		C742.7,266,742.7,265.8,742.6,265.5z"/>
	<path class="st9" d="M763.9,273.2l-1.8-5.1h-6.4l-1.9,5.1h-2.4l6.4-16.7h2.3l6.1,16.7H763.9z M758.9,259.3l-2.6,7h5L758.9,259.3z"
		/>
	<path class="st9" d="M775.8,272.6c-1.3,1-2.9,1-3.4,1c-0.3,0-1.2,0-2.1-0.3c-1.3-0.5-3.4-2-3.4-5.5c0-3.6,2-5.2,3.4-5.7
		c0.9-0.3,1.7-0.3,2-0.3c3,0,4.3,1.6,4.8,2.7c0.2,0.4,0.2,0.6,0.3,1l-2.1,0.2c0-0.2-0.1-0.8-0.5-1.3c-0.8-1.2-2.1-1.3-2.6-1.3
		c-1.7,0-3.4,1.1-3.4,4.5c0,2,0.6,3.1,1.3,3.7c0.6,0.6,1.4,0.8,2.2,0.8c0.5,0,1-0.1,1.4-0.3c1.2-0.5,1.5-1.6,1.7-2.8l2,0.2
		C777.4,271.1,776.4,272.1,775.8,272.6z"/>
	<path class="st9" d="M787.7,272.6c-1.3,1-2.9,1-3.4,1c-0.3,0-1.2,0-2.1-0.3c-1.3-0.5-3.4-2-3.4-5.5c0-3.6,2-5.2,3.4-5.7
		c0.9-0.3,1.7-0.3,2-0.3c3,0,4.3,1.6,4.8,2.7c0.2,0.4,0.2,0.6,0.3,1l-2.1,0.2c0-0.2-0.1-0.8-0.5-1.3c-0.8-1.2-2.1-1.3-2.6-1.3
		c-1.7,0-3.4,1.1-3.4,4.5c0,2,0.6,3.1,1.3,3.7c0.6,0.6,1.4,0.8,2.2,0.8c0.5,0,1-0.1,1.4-0.3c1.2-0.5,1.5-1.6,1.7-2.8l2,0.2
		C789.2,271.1,788.3,272.1,787.7,272.6z"/>
	<path class="st9" d="M791.3,258.7v-2.2h1.8v2.2H791.3z M791.3,273.2v-11.1h1.8v11.1H791.3z"/>
	<path class="st9" d="M804,273.2v-1.4c-0.6,0.7-1.6,1.8-3.8,1.8c-2.1,0-3.2-1-3.8-1.7c-0.6-0.8-1.4-2-1.4-4.3c0-1.4,0.3-2.7,1.1-3.9
		c0.5-0.7,1.7-2,4-2c1.6,0,2.7,0.7,3.2,1.1c0.3,0.2,0.4,0.4,0.7,0.7v-7h1.9v16.7H804z M803.9,266.2c-0.4-1.6-1.6-2.7-3.3-2.7
		c-0.5,0-1.7,0.1-2.6,1.2c-0.8,0.9-0.9,1.9-0.9,3.1c0,0.4,0,1.8,0.9,3c0.9,1.2,2.1,1.2,2.6,1.2c0.7,0,1.3-0.1,1.8-0.5
		c0.8-0.5,1.7-1.7,1.7-3.8C804.1,267.4,804.1,266.8,803.9,266.2z"/>
	<path class="st9" d="M817.7,271.4c-0.6,0.9-1.8,2.2-4.3,2.2c-1.2,0-1.9-0.3-2.3-0.4c-1.4-0.6-3.1-2.1-3.1-5.6
		c0-2.1,0.7-3.2,1.3-3.9c1-1.2,2.6-1.9,4.1-1.9c0.6,0,1.2,0.1,1.8,0.3c0.7,0.2,2.1,0.9,2.8,2.6c0.3,0.7,0.5,1.6,0.5,3.3h-8.5
		c0,2,0.9,3.1,1.6,3.6c0.6,0.4,1.3,0.6,2,0.6c1,0,1.5-0.4,1.9-0.7c0.1-0.1,0.4-0.4,0.6-0.7c0.3-0.5,0.4-1,0.4-1.2l1.9,0.3
		C818.3,270,818.1,270.7,817.7,271.4z M816.2,265.5c-0.4-1.4-1.6-2.3-3-2.3c-2,0-3,1.7-3.2,3.4h6.4
		C816.3,266,816.3,265.8,816.2,265.5z"/>
	<path class="st9" d="M827.7,273.2v-7.1c0-0.3,0.1-1.4-0.9-2.1c-0.3-0.2-0.8-0.5-1.7-0.5c-0.8,0-1.5,0.3-2.1,0.8
		c-0.1,0.1-0.5,0.5-0.7,1c-0.2,0.5-0.2,1-0.2,1.5v6.3h-1.9v-11.1h1.9v1.6c0.2-0.4,0.5-0.7,0.6-0.8c0.4-0.4,1.4-1.2,2.9-1.2
		c0.5,0,2.2,0.1,3.2,1.5c0.7,1,0.7,2.1,0.7,3.3v6.6H827.7z"/>
	<path class="st9" d="M835,273.4c-1.1,0-1.6-0.3-1.9-0.7c-0.3-0.4-0.3-0.9-0.3-1.8v-7.2h-1.8v-1.6h1.8v-3.5h1.9v3.5h2v1.6h-2v6.4
		c0,0.8,0,1.2,0.1,1.6c0.1,0.3,0.4,0.3,0.7,0.3c0.2,0,0.7-0.1,1.2-0.3v1.6C836.7,273.2,835.7,273.4,835,273.4z"/>
	<path class="st9" d="M847.8,271.4c-0.6,0.9-1.8,2.2-4.3,2.2c-1.2,0-1.9-0.3-2.3-0.4c-1.4-0.6-3.1-2.1-3.1-5.6
		c0-2.1,0.7-3.2,1.3-3.9c1-1.2,2.6-1.9,4.1-1.9c0.6,0,1.2,0.1,1.8,0.3c0.7,0.2,2.1,0.9,2.8,2.6c0.3,0.7,0.5,1.6,0.5,3.3h-8.5
		c0,2,0.9,3.1,1.6,3.6c0.6,0.4,1.3,0.6,2,0.6c1,0,1.5-0.4,1.9-0.7c0.1-0.1,0.4-0.4,0.6-0.7c0.3-0.5,0.4-1,0.4-1.2l1.9,0.3
		C848.4,270,848.2,270.7,847.8,271.4z M846.3,265.5c-0.4-1.4-1.6-2.3-3-2.3c-2,0-3,1.7-3.2,3.4h6.4
		C846.4,266,846.4,265.8,846.3,265.5z"/>
	<path class="st9" d="M859,271.7c-0.6,0.9-1.8,1.8-4.2,1.8c-0.3,0-2.1,0-3.3-0.8c-0.2-0.1-0.5-0.3-0.8-0.7c-0.8-1-0.9-2-1-2.4
		l2.2-0.3c0,0.7,0.1,1.4,0.6,2c0.7,0.7,1.6,0.9,2.5,0.9c0.2,0,1.3,0,2.1-0.6c0.5-0.4,0.5-1,0.5-1.2c0-0.1,0-0.5-0.2-0.8
		c-0.4-0.6-1.5-0.8-2.1-0.9l-1.1-0.2c-1.4-0.3-2-0.5-2.6-0.9c-0.9-0.5-1.3-1.3-1.3-2.4c0-0.3,0-1.1,0.6-1.8c1.1-1.5,3.3-1.5,3.7-1.5
		c2.3,0,3.6,1.2,4.2,2c0.4,0.7,0.5,1.4,0.6,1.7l-2,0.2c0-0.5,0-0.8-0.2-1c-0.3-0.6-1.2-1.4-2.8-1.4c-1.5,0-2.2,0.9-2.2,1.6
		c0,0.1,0,0.3,0.2,0.6c0.4,0.6,1.2,0.9,2.5,1.2l1.1,0.3c0.3,0.1,0.7,0.2,1,0.3c1.5,0.4,2.7,1.3,2.7,3
		C859.5,270.3,859.5,271,859,271.7z"/>
	<path class="st9" d="M712.6,291.2c-0.6,0.2-1.2,0.2-2.5,0.2h-4.8v7.1h-2.2v-16.7h7.2c1.3,0,2.4,0,3.5,0.7c1.9,1.2,2,3.4,2,4
		C715.9,288.6,714.8,290.6,712.6,291.2z M713.5,285.3c-0.3-0.8-0.9-1.3-1.7-1.5c-0.5-0.1-0.9-0.1-1.3-0.1h-5.2v5.7h4.7
		c0.6,0,1.2,0,1.8-0.1c1.3-0.4,1.9-1.6,1.9-2.9C713.7,286.3,713.7,285.8,713.5,285.3z"/>
	<path class="st9" d="M726.3,296.6c-0.6,0.9-1.8,2.2-4.3,2.2c-1.2,0-1.9-0.3-2.3-0.4c-1.4-0.6-3.1-2.1-3.1-5.6
		c0-2.1,0.7-3.2,1.3-3.9c1-1.2,2.6-1.9,4.1-1.9c0.6,0,1.2,0.1,1.8,0.3c0.7,0.2,2.1,0.9,2.8,2.6c0.3,0.7,0.5,1.6,0.5,3.3h-8.5
		c0,2,0.9,3.1,1.6,3.6c0.6,0.4,1.3,0.6,2,0.6c1,0,1.5-0.4,1.9-0.7c0.1-0.1,0.4-0.4,0.6-0.7c0.3-0.5,0.4-1,0.4-1.2l1.9,0.3
		C727,295.3,726.8,296,726.3,296.6z M724.8,290.8c-0.4-1.4-1.6-2.3-3-2.3c-2,0-3,1.7-3.2,3.4h6.4C725,291.3,724.9,291.1,724.8,290.8
		z"/>
	<path class="st9" d="M733.3,289.2c-1.1,0.2-2,0.9-2.2,2c-0.2,0.6-0.2,1-0.2,2.1v5.2H729v-11.1h1.9v2c0.3-0.5,0.6-0.9,1-1.3
		s1.3-0.9,2.8-0.9v2C734,289.1,733.7,289.2,733.3,289.2z"/>
	<path class="st9" d="M744.5,297c-0.6,0.9-1.8,1.8-4.2,1.8c-0.3,0-2.1,0-3.3-0.8c-0.2-0.1-0.5-0.3-0.8-0.7c-0.8-1-0.9-2-1-2.4
		l2.2-0.3c0,0.7,0.1,1.4,0.6,2c0.7,0.7,1.6,0.9,2.5,0.9c0.2,0,1.3,0,2.1-0.6c0.5-0.4,0.5-1,0.5-1.2c0-0.1,0-0.5-0.2-0.8
		c-0.4-0.6-1.5-0.8-2.1-0.9l-1.1-0.2c-1.4-0.3-2-0.5-2.6-0.9c-0.9-0.5-1.3-1.3-1.3-2.4c0-0.3,0-1.1,0.6-1.8c1.1-1.5,3.3-1.5,3.7-1.5
		c2.3,0,3.6,1.2,4.2,2c0.4,0.7,0.5,1.4,0.6,1.7l-2,0.2c0-0.5,0-0.8-0.2-1c-0.3-0.6-1.2-1.4-2.8-1.4c-1.5,0-2.2,0.9-2.2,1.6
		c0,0.1,0,0.3,0.2,0.6c0.4,0.6,1.2,0.9,2.5,1.2l1.1,0.3c0.3,0.1,0.7,0.2,1,0.3c1.5,0.4,2.7,1.3,2.7,3
		C745,295.6,744.9,296.3,744.5,297z"/>
	<path class="st9" d="M755.9,297c-0.6,0.7-1.8,1.9-4.1,1.9c-0.7,0-2.5-0.1-3.9-1.5c-0.7-0.7-1.6-2.1-1.6-4.4c0-1.4,0.4-2.9,1.3-4
		c1.1-1.4,2.5-1.9,4.3-1.9c0.8,0,1.6,0.1,2.2,0.4c1.3,0.5,3.2,2.1,3.1,5.5C757.2,293.5,757.1,295.4,755.9,297z M754.6,290.1
		c-0.2-0.3-0.4-0.6-0.7-0.9c-0.8-0.7-1.7-0.7-2-0.7c-3.6,0-3.5,3.9-3.5,4.5c0,0.5,0.1,1,0.1,1.1c0.1,0.8,0.7,3.2,3.3,3.1
		c0.5,0,1.8-0.1,2.6-1.4c0.7-1.1,0.8-2.8,0.8-3C755.1,292.6,755.1,291.1,754.6,290.1z"/>
	<path class="st9" d="M766.5,298.5v-7.1c0-0.3,0.1-1.4-0.9-2.1c-0.3-0.2-0.8-0.5-1.7-0.5c-0.8,0-1.5,0.3-2.1,0.8
		c-0.1,0.1-0.5,0.5-0.7,1c-0.2,0.5-0.2,1-0.2,1.5v6.3h-1.9v-11.1h1.9v1.6c0.2-0.4,0.5-0.7,0.6-0.8c0.4-0.4,1.4-1.2,2.9-1.2
		c0.5,0,2.2,0.1,3.2,1.5c0.7,1,0.7,2.1,0.7,3.3v6.6H766.5z"/>
	<path class="st9" d="M779.8,298.6c-0.1,0-0.8,0-1.2-0.3c-0.2-0.1-0.3-0.4-0.4-0.4c-0.3-0.4-0.3-0.7-0.4-0.9
		c-0.5,0.6-1.7,1.8-3.8,1.8c-0.8,0-1.3-0.1-1.5-0.2c-1.3-0.4-2.2-1.5-2.2-3c0-0.5,0.1-1.6,1.2-2.4c1.1-0.9,3.1-1.2,4.5-1.3l1.7-0.1
		c0-0.3,0-0.6,0-0.9c0-0.8-0.2-2.5-2.5-2.5c-0.4,0-1.8,0-2.3,1.3c-0.1,0.4-0.1,0.6-0.1,1l-2-0.1c0-0.2,0-0.6,0.2-1.1
		c0.4-1.1,1.4-2.6,4.1-2.6c0.3,0,0.9,0,1.8,0.2c0.4,0.1,1.9,0.6,2.5,2.1c0.2,0.6,0.2,1.2,0.2,2.4v3.6c0,0.2,0,0.5,0,0.7
		c0,0.3,0,0.9,0.8,0.9c0.2,0,0.4,0,0.6-0.1v1.6C780.4,298.6,780.1,298.6,779.8,298.6z M777.7,293.3V293c-0.9,0.1-3.1,0.4-4,0.8
		c-0.4,0.1-1.4,0.6-1.4,1.7c0,0.8,0.6,1.7,2.1,1.7c1,0,3.3-0.4,3.3-3.3C777.7,293.7,777.7,293.5,777.7,293.3z"/>
	<path class="st9" d="M782.4,298.5v-16.7h1.8v16.7H782.4z"/>
	<path class="st9" d="M796,296.6c-0.6,0.9-1.8,2.2-4.3,2.2c-1.2,0-1.9-0.3-2.3-0.4c-1.4-0.6-3.1-2.1-3.1-5.6c0-2.1,0.7-3.2,1.3-3.9
		c1-1.2,2.6-1.9,4.1-1.9c0.6,0,1.2,0.1,1.8,0.3c0.7,0.2,2.1,0.9,2.8,2.6c0.3,0.7,0.5,1.6,0.5,3.3h-8.5c0,2,0.9,3.1,1.6,3.6
		c0.6,0.4,1.3,0.6,2,0.6c1,0,1.5-0.4,1.9-0.7c0.1-0.1,0.4-0.4,0.6-0.7c0.3-0.5,0.4-1,0.4-1.2l1.9,0.3
		C796.6,295.3,796.4,296,796,296.6z M794.5,290.8c-0.4-1.4-1.6-2.3-3-2.3c-2,0-3,1.7-3.2,3.4h6.4
		C794.6,291.3,794.6,291.1,794.5,290.8z"/>
	<path class="st9" d="M807.2,297c-0.6,0.9-1.8,1.8-4.2,1.8c-0.3,0-2.1,0-3.3-0.8c-0.2-0.1-0.5-0.3-0.8-0.7c-0.8-1-0.9-2-1-2.4
		l2.2-0.3c0,0.7,0.1,1.4,0.6,2c0.7,0.7,1.6,0.9,2.5,0.9c0.2,0,1.3,0,2.1-0.6c0.5-0.4,0.5-1,0.5-1.2c0-0.1,0-0.5-0.2-0.8
		c-0.4-0.6-1.5-0.8-2.1-0.9l-1.1-0.2c-1.4-0.3-2-0.5-2.6-0.9c-0.9-0.5-1.3-1.3-1.3-2.4c0-0.3,0-1.1,0.6-1.8c1.1-1.5,3.3-1.5,3.7-1.5
		c2.3,0,3.6,1.2,4.2,2c0.4,0.7,0.5,1.4,0.6,1.7l-2,0.2c0-0.5,0-0.8-0.2-1c-0.3-0.6-1.2-1.4-2.8-1.4c-1.5,0-2.2,0.9-2.2,1.6
		c0,0.1,0,0.3,0.2,0.6c0.4,0.6,1.2,0.9,2.5,1.2l1.1,0.3c0.3,0.1,0.7,0.2,1,0.3c1.5,0.4,2.7,1.3,2.7,3
		C807.7,295.6,807.7,296.3,807.2,297z"/>
</g>
<g>
	<g>
		<path class="st3" d="M469.2,175.4l-12.3-18.2l0.3,18.2h-2.8V153h2.8l12.1,18l-0.1-18h2.7v22.4H469.2z"/>
		<path class="st3" d="M476.5,175.4V153h3v22.4H476.5z"/>
		<path class="st3" d="M492.5,175.4h-3L482,153h3.2l5.9,18.7l6.2-18.7h3.2L492.5,175.4z"/>
		<path class="st3" d="M503.3,175.4V153h15.4v2.6h-12.6v6.9h10.9v2.6h-10.9v7.6h12.9v2.6H503.3z"/>
		<path class="st3" d="M522.1,175.4V153h3v19.7h10.8v2.7H522.1z"/>
		<path class="st3" d="M464.4,196.3c-0.8,0.2-1.6,0.3-3.4,0.3h-6.5v9.5h-2.9v-22.4h9.7c1.7,0,3.2,0,4.7,1c2.5,1.6,2.7,4.5,2.7,5.4
			C468.7,192.9,467.3,195.5,464.4,196.3z M465.6,188.5c-0.4-1-1.2-1.7-2.3-2c-0.7-0.2-1.1-0.2-1.8-0.2h-6.9v7.7h6.2
			c0.8,0,1.6,0,2.4-0.2c1.8-0.5,2.6-2.1,2.6-3.8C465.8,189.7,465.8,189.1,465.6,188.5z"/>
		<path class="st3" d="M471.2,206.1v-22.4h3v19.7h10.8v2.7H471.2z"/>
		<path class="st3" d="M502.6,206.1l-2.4-6.9h-8.5l-2.5,6.9h-3.2l8.5-22.4h3.1l8.2,22.4H502.6z M496,187.4l-3.4,9.4h6.7L496,187.4z"
			/>
		<path class="st3" d="M513.9,186.3v19.8h-3v-19.8h-6.7v-2.6h16.4v2.6H513.9z"/>
		<path class="st3" d="M535.6,206.1l-2.4-6.9h-8.5l-2.5,6.9h-3.2l8.5-22.4h3.1l8.2,22.4H535.6z M529,187.4l-3.4,9.4h6.7L529,187.4z"
			/>
	</g>
</g>
<g>
	<g>
		<path class="st3" d="M728.5,175.4l-12.3-18.2l0.3,18.2h-2.8V153h2.8l12.1,18l-0.1-18h2.7v22.4H728.5z"/>
		<path class="st3" d="M735.8,175.4V153h3v22.4H735.8z"/>
		<path class="st3" d="M751.8,175.4h-3l-7.6-22.4h3.2l5.9,18.7l6.2-18.7h3.2L751.8,175.4z"/>
		<path class="st3" d="M762.6,175.4V153H778v2.6h-12.6v6.9h10.9v2.6h-10.9v7.6h12.9v2.6H762.6z"/>
		<path class="st3" d="M781.4,175.4V153h3v19.7h10.8v2.7H781.4z"/>
		<path class="st3" d="M739,202.5c-1.2,1.6-3.9,4.2-9,4.2c-1.4,0-4.8-0.2-7.7-2.9c-1.5-1.4-3.5-4.1-3.5-8.9c0-1.3,0.1-5.1,2.8-8.2
			c2.1-2.4,5.4-3.5,8.5-3.5c1.5,0,3,0.3,4.4,0.8c4.7,1.8,6.8,6,6.8,10.8C741.3,195.9,741.2,199.5,739,202.5z M736.3,188.5
			c-2.1-2.8-5.1-3-6.3-3c-3.6,0-5.5,1.8-6.3,3.1c-1.2,1.8-1.7,4.2-1.7,6.3c0,3,0.9,4.9,1.5,5.9c0.5,0.8,1.2,1.5,1.4,1.7
			c0.9,0.8,1.7,1.1,2.2,1.3c0.6,0.2,1.5,0.5,3,0.5c0.6,0,2,0,3.4-0.7c2.2-1,4.6-3.6,4.6-8.9C738.1,193.9,738.1,190.9,736.3,188.5z"
			/>
		<path class="st3" d="M760.2,206.1l-6.1-9.5h-5.8v9.5h-2.9v-22.4h8.3c0.7,0,1.4,0,2.1,0c3.1,0.1,4.6,1.1,5.5,2.3
			c0.6,0.7,1.4,2.1,1.4,4.3c0,0.9-0.1,4-3,5.4c-0.5,0.3-1.1,0.5-2.3,0.7l6.3,9.7H760.2z M758,186.8c-1.2-0.7-2.6-0.6-3.9-0.6h-5.8
			v7.9h6c1.7,0,3.7,0,4.8-1.5c0.5-0.7,0.7-1.5,0.7-2.3C759.8,189.6,759.7,187.9,758,186.8z"/>
		<path class="st3" d="M785.9,202.5c-1.2,1.6-3.9,4.2-9,4.2c-1.4,0-4.8-0.2-7.7-2.9c-1.5-1.4-3.5-4.1-3.5-8.9c0-1.3,0.1-5.1,2.8-8.2
			c2.1-2.4,5.4-3.5,8.5-3.5c1.5,0,3,0.3,4.4,0.8c4.7,1.8,6.8,6,6.8,10.8C788.2,195.9,788.1,199.5,785.9,202.5z M783.3,188.5
			c-2.1-2.8-5.1-3-6.3-3c-3.6,0-5.5,1.8-6.3,3.1c-1.2,1.8-1.7,4.2-1.7,6.3c0,3,0.9,4.9,1.5,5.9c0.5,0.8,1.2,1.5,1.4,1.7
			c0.9,0.8,1.7,1.1,2.2,1.3c0.6,0.2,1.5,0.5,3,0.5c0.6,0,2,0,3.4-0.7c2.2-1,4.6-3.6,4.6-8.9C785,193.9,785,190.9,783.3,188.5z"/>
	</g>
</g>
</svg>
