<?xml version="1.0" encoding="utf-8"?>
<!-- Generator: Adobe Illustrator 25.2.3, SVG Export Plug-In . SVG Version: 6.00 Build 0)  -->
<svg version="1.1" id="Capa_1" xmlns="http://www.w3.org/2000/svg" xmlns:xlink="http://www.w3.org/1999/xlink" x="0px" y="0px"
	 viewBox="0 0 400 190" style="enable-background:new 0 0 400 190;" xml:space="preserve">
<style type="text/css">
	.st0{fill:url(#SVGID_1_);}
	.st1{fill:url(#SVGID_2_);}
	.st2{fill:url(#SVGID_3_);}
	.st3{fill:#FFFFFF;}
	.st4{fill:url(#SVGID_4_);}
	.st5{fill:url(#SVGID_5_);}
	.st6{opacity:0.1;fill:#000100;}
	.st7{opacity:0;fill:#000100;}
	.st8{opacity:0.2;fill:#FFFFFF;}
	.st9{fill:#585857;}
</style>
<g>
	<linearGradient id="SVGID_1_" gradientUnits="userSpaceOnUse" x1="83.7349" y1="81.7374" x2="315.8758" y2="81.7374">
		<stop  offset="0" style="stop-color:#1470B5"/>
		<stop  offset="1" style="stop-color:#1E2D52"/>
	</linearGradient>
	<path class="st0" d="M304.6,5.7H218h-36.4H95c-6.2,0-11.2,5-11.2,11.2v129.6c0,6.2,5,11.2,11.2,11.2h86.6h0H218h86.6
		c6.2,0,11.2-5,11.2-11.2V17C315.9,10.7,310.8,5.7,304.6,5.7z"/>
	<g>
		
			<image style="overflow:visible;" width="1668" height="649" xlink:href="2A24840C5ED6FB0A.png"  transform="matrix(0.24 0 0 0.24 -0.197 28.7252)">
		</image>
	</g>
	<linearGradient id="SVGID_2_" gradientUnits="userSpaceOnUse" x1="326.3577" y1="32.3011" x2="326.3577" y2="174.7894">
		<stop  offset="0" style="stop-color:#1470B5"/>
		<stop  offset="1" style="stop-color:#1E2D52"/>
	</linearGradient>
	<path class="st1" d="M392.2,163.6v-120c0-6.2-5.1-11.2-11.3-11.2H260.5v142.5l0,0h120.3C387.1,174.8,392.2,169.8,392.2,163.6z"/>
	
		<linearGradient id="SVGID_3_" gradientUnits="userSpaceOnUse" x1="3441.6406" y1="32.3011" x2="3441.6406" y2="174.7894" gradientTransform="matrix(-1 0 0 1 3513.3115 0)">
		<stop  offset="0" style="stop-color:#1470B5"/>
		<stop  offset="1" style="stop-color:#1E2D52"/>
	</linearGradient>
	<path class="st2" d="M4.5,163.6v-120c0-6.2,5-11.2,11.2-11.2h123v142.5l0,0h-123C9.6,174.8,4.5,169.8,4.5,163.6z"/>
	<g>
		<g>
			<path class="st3" d="M58.5,53.4l-5.9-8.7l0.1,8.7h-1.3V42.7h1.3l5.8,8.6l-0.1-8.6h1.3v10.7H58.5z"/>
			<path class="st3" d="M62,53.4V42.7h1.4v10.7H62z"/>
			<path class="st3" d="M69.7,53.4h-1.4l-3.6-10.7h1.5l2.8,8.9l2.9-8.9h1.5L69.7,53.4z"/>
			<path class="st3" d="M74.9,53.4V42.7h7.4V44h-6v3.3h5.2v1.2h-5.2v3.7h6.2v1.2H74.9z"/>
			<path class="st3" d="M83.9,53.4V42.7h1.4v9.4h5.2v1.3H83.9z"/>
			<path class="st3" d="M46,67.9c-0.6,0.2-1.1,0.2-2.3,0.2h-4.2V57.4h5c0.9,0,1.6,0.2,2.3,0.8c0.6,0.5,0.9,1.2,0.9,2
				c0,0.7-0.2,1.3-0.7,1.8c-0.2,0.2-0.5,0.4-0.6,0.4c-0.1,0-0.2,0.1-0.3,0.1c0.3,0.1,0.6,0.2,0.8,0.4c0.5,0.3,1.1,1,1.1,2.3
				C48,67.1,46.7,67.8,46,67.9z M45.5,59c-0.4-0.3-0.8-0.3-1.7-0.3h-3v3.2h2.2c0.9,0,1.6,0,2-0.1c0.4-0.1,1.2-0.5,1.2-1.6
				C46.2,60,46.2,59.4,45.5,59z M46.4,64.3c-0.1-0.3-0.5-0.9-1.3-1.1c-0.5-0.1-0.8-0.1-1.7-0.1h-2.6v3.7H44c0.6,0,1.1,0,1.3-0.1
				c0.1,0,0.3-0.1,0.5-0.2c0.3-0.2,0.7-0.6,0.7-1.5C46.6,64.9,46.6,64.6,46.4,64.3z"/>
			<path class="st3" d="M57,68.1l-2.9-4.6h-2.8v4.6h-1.4V57.4h4c0.3,0,0.7,0,1,0c1.5,0.1,2.2,0.5,2.6,1.1c0.3,0.3,0.7,1,0.7,2
				c0,0.4-0.1,1.9-1.4,2.6c-0.3,0.1-0.5,0.2-1.1,0.3l3,4.6H57z M56,58.9c-0.6-0.3-1.2-0.3-1.9-0.3h-2.8v3.8h2.9c0.8,0,1.8,0,2.3-0.7
				c0.2-0.3,0.3-0.7,0.3-1.1C56.8,60.2,56.8,59.4,56,58.9z"/>
			<path class="st3" d="M69.3,66.4c-0.6,0.8-1.9,2-4.3,2c-0.7,0-2.3-0.1-3.7-1.4c-0.7-0.7-1.7-2-1.7-4.3c0-0.6,0-2.5,1.3-3.9
				c1-1.1,2.6-1.7,4.1-1.7c0.7,0,1.5,0.1,2.1,0.4c2.2,0.9,3.3,2.9,3.3,5.2C70.4,63.2,70.4,65,69.3,66.4z M68.1,59.7
				c-1-1.3-2.4-1.4-3-1.4c-1.7,0-2.6,0.9-3,1.5c-0.6,0.8-0.8,2-0.8,3c0,1.4,0.4,2.4,0.7,2.8c0.3,0.4,0.6,0.7,0.7,0.8
				c0.4,0.4,0.8,0.5,1,0.6c0.3,0.1,0.7,0.2,1.5,0.2c0.3,0,0.9,0,1.6-0.3c1-0.5,2.2-1.7,2.2-4.3C68.9,62.3,68.9,60.9,68.1,59.7z"/>
			<path class="st3" d="M79.5,68.1l-5.9-8.7l0.1,8.7h-1.3V57.4h1.3l5.8,8.6l-0.1-8.6h1.3v10.7H79.5z"/>
			<path class="st3" d="M92.9,65.1c-0.3,0.7-1.2,2.4-3.3,3.1c-0.8,0.2-1.4,0.2-1.7,0.2c-1.9,0-3-0.8-3.5-1.3c-0.7-0.7-1.7-2-1.7-4.3
				c0-3.3,2-5.6,5.4-5.6c0.6,0,2.6,0,3.9,1.6c0.4,0.5,0.7,1.1,0.9,1.7l-1.4,0.3c-0.2-0.5-0.3-0.8-0.5-1c-0.4-0.5-1.3-1.4-3-1.4
				c-0.3,0-0.9,0-1.6,0.3c-2.2,1-2.3,3.5-2.3,4.1c0,2.6,1.2,3.8,2.3,4.2c0.3,0.1,0.8,0.3,1.6,0.3c0.2,0,0.6,0,1.1-0.1
				c0.4-0.1,1.4-0.5,2-1.6c0.2-0.3,0.3-0.7,0.4-1.4l1.5,0.2C93.2,64.4,93.1,64.7,92.9,65.1z"/>
			<path class="st3" d="M94.7,68.1V57.4h7.4v1.3h-6V62h5.2v1.2h-5.2v3.7h6.2v1.2H94.7z"/>
		</g>
	</g>
	<g>
		<g>
			<path class="st3" d="M107.6,24.2c-0.9,0.5-2,0.4-3,0.4h-3.8V13.9h4.4c0.2,0,0.5,0,0.7,0c0.4,0,1.5,0.1,2.3,1.1
				c0.5,0.6,0.5,1.3,0.5,1.6c0,0.3-0.1,1.3-1,1.9c-0.4,0.3-0.8,0.4-1,0.4c1.5,0.3,2.3,1.3,2.3,2.7C109.1,22,109,23.5,107.6,24.2z
				 M107.3,15.5c-0.5-0.7-1.5-0.7-2.3-0.7h-3.2v3.6h3c0.8,0,1.9,0,2.5-0.7c0.3-0.3,0.4-0.7,0.4-1.2
				C107.6,16.4,107.6,15.9,107.3,15.5z M107,19.7c-0.7-0.4-1.4-0.4-2.2-0.4h-3v4.4h2.7c0.9,0,1.6,0,2-0.1c0.5-0.1,1.5-0.6,1.5-2
				C108,21.2,108,20.3,107,19.7z"/>
			<path class="st3" d="M116.4,23.6c-0.4,0.5-1.1,1.2-2.6,1.2c-0.3,0-1,0-1.7-0.4c-1.7-0.9-1.8-3-1.8-3.5c0-0.2,0-0.8,0.2-1.5
				c0.5-1.4,1.7-2.3,3.1-2.3c0.4,0,1.5,0.1,2.3,1c0.6,0.7,0.9,1.7,0.9,2.5V21h-5.6c0,0.6,0.1,1,0.1,1.2c0.2,0.6,0.7,1.8,2.3,1.8
				c0.6,0,1.6-0.2,2.3-1.5l0.8,0.2C116.9,22.8,116.7,23.2,116.4,23.6z M113.7,18c-1.3,0-1.9,0.9-2,1.3c-0.1,0.3-0.2,0.7-0.3,1h4.6
				C115.7,18.4,114.5,18,113.7,18z"/>
			<path class="st3" d="M123.5,24.6v-3.8c0-1,0-1.5-0.2-2c-0.2-0.4-0.4-0.5-0.5-0.6c-0.4-0.2-0.8-0.2-1-0.2s-0.6,0-1,0.2
				c-0.5,0.3-1,0.8-1.1,1.4c-0.1,0.3-0.1,1-0.1,1.8v3.2h-0.9v-7.2h0.9v1.3c0.1-0.2,0.2-0.5,0.5-0.8c0.3-0.3,0.8-0.6,1.8-0.6
				c1.3,0,2,0.7,2.2,1.2c0.3,0.6,0.3,1.2,0.3,2.4v3.8H123.5z"/>
			<path class="st3" d="M132.2,23.6c-0.4,0.5-1.1,1.2-2.6,1.2c-0.3,0-1,0-1.7-0.4c-1.7-0.9-1.8-3-1.8-3.5c0-0.2,0-0.8,0.2-1.5
				c0.5-1.4,1.7-2.3,3.1-2.3c0.4,0,1.5,0.1,2.3,1c0.6,0.7,0.9,1.7,0.9,2.5V21h-5.6c0,0.6,0.1,1,0.1,1.2c0.2,0.6,0.7,1.8,2.3,1.8
				c0.6,0,1.6-0.2,2.3-1.5l0.8,0.2C132.7,22.8,132.5,23.2,132.2,23.6z M129.5,18c-1.3,0-1.9,0.9-2,1.3c-0.1,0.3-0.2,0.7-0.3,1h4.6
				C131.5,18.4,130.3,18,129.5,18z"/>
			<path class="st3" d="M135.8,18.1v6.5h-0.9v-6.5h-1.6v-0.8h1.6V16c0-0.8,0-1,0.1-1.4c0.2-0.5,0.5-0.9,1.5-0.9c0.3,0,0.6,0,0.9,0.1
				v0.9c-0.2-0.1-0.4-0.2-0.9-0.2c-0.3,0-0.4,0.1-0.5,0.2c-0.3,0.3-0.2,0.6-0.2,1.2v1.5h1.6v0.8H135.8z"/>
			<path class="st3" d="M138.8,15.7v-1.4h0.9v1.4H138.8z M138.8,24.6v-7.2h0.9v7.2H138.8z"/>
			<path class="st3" d="M146.9,24.1c-0.3,0.3-1,0.7-2.1,0.7c-0.4,0-1.4,0-2.2-0.8c-1.1-1-1.1-2.5-1.1-2.9c0-0.5,0.1-1,0.2-1.5
				c0.5-1.5,1.7-2.4,3.2-2.4c1.2,0,1.8,0.4,2.1,0.8c0.4,0.4,0.6,0.8,0.6,1l-0.8,0.2c-0.3-0.8-1.1-1.2-2-1.2c-0.3,0-0.9,0-1.5,0.5
				c-0.9,0.8-1,2.2-1,2.5c0,0.2,0,1.5,0.7,2.3c0.1,0.1,0.3,0.3,0.7,0.5c0.2,0.1,0.5,0.2,1,0.2c0.9,0,1.5-0.4,2-1.2l0.9,0.2
				C147.5,23.4,147.3,23.8,146.9,24.1z"/>
			<path class="st3" d="M149.2,15.7v-1.4h0.9v1.4H149.2z M149.2,24.6v-7.2h0.9v7.2H149.2z"/>
			<path class="st3" d="M158.3,22.4c-0.5,1.5-1.6,2.4-3.1,2.4c-0.5,0-1.7-0.1-2.5-1.2c-0.3-0.4-0.7-1.2-0.7-2.5c0-0.3,0-1,0.3-1.8
				c0.7-1.8,2.3-2,3-2c0.8,0,1.5,0.2,2.1,0.8c0.8,0.8,1.1,1.9,1.1,3C158.5,21.2,158.5,21.8,158.3,22.4z M155.2,17.9
				c-0.2,0-0.8,0-1.3,0.4c-0.6,0.4-1,1.2-1,2.7c0,0.3,0,1.7,1,2.5c0.2,0.2,0.7,0.4,1.3,0.4c1.1,0,2.3-0.7,2.4-3
				C157.6,18.7,156.4,17.9,155.2,17.9z"/>
			<path class="st3" d="M165.1,23.5c-0.3,0.5-1,1.3-2.5,1.3c-0.4,0-1.6-0.1-2.4-1.1c-0.2-0.3-0.3-0.5-0.5-0.8l0.9-0.3
				c0.1,0.5,0.7,1.4,2,1.4c0.7,0,1.1-0.2,1.3-0.4c0.3-0.2,0.5-0.7,0.5-1c0-0.2-0.1-0.5-0.2-0.6c-0.2-0.3-0.6-0.5-1.4-0.7
				c-0.7-0.2-1.8-0.3-2.4-0.9c-0.2-0.3-0.4-0.7-0.4-1.1c0-0.2,0.1-0.9,0.6-1.4c0.5-0.5,1.3-0.6,2-0.6c0.2,0,1.1,0,1.8,0.5
				c0.6,0.4,0.7,0.9,0.8,1.2l-0.8,0.2c-0.2-0.8-1-1.1-1.8-1.1c-0.6,0-1,0.1-1.2,0.3c-0.1,0-0.2,0.2-0.3,0.3
				c-0.2,0.3-0.2,0.5-0.2,0.6c0,0.8,0.9,1,1.5,1.2l0.8,0.2c0.7,0.1,1.3,0.4,1.7,0.9c0.3,0.5,0.3,0.9,0.3,1.1
				C165.3,22.7,165.3,23.1,165.1,23.5z"/>
			<path class="st3" d="M178.5,16.9c-0.1-0.4-0.2-0.7-0.4-1.1c-0.4-0.6-1-1.3-2.6-1.3c-0.2,0-1,0-1.7,0.3c-0.5,0.3-0.9,0.8-1.2,1.3
				c-0.3,0.6-0.7,1.5-0.7,3c0,0.3,0,1,0.2,1.9c0.2,1,0.8,2.9,3.5,2.9c1,0,1.7-0.3,2.3-1.1c0.4-0.5,0.5-0.9,0.6-1.2l1,0.6
				c-0.5,1.2-1.2,1.8-1.7,2c-0.4,0.3-1.1,0.6-2.3,0.6c-0.6,0-2.4-0.1-3.5-1.5c-1.2-1.4-1.2-3.6-1.2-4c0-0.5,0-2.8,1.3-4.3
				c0.5-0.6,1.1-0.9,1.4-1c0.3-0.2,0.9-0.3,1.9-0.3c0.6,0,1.2,0.1,1.8,0.3c1.2,0.4,1.9,1.3,2.4,2.5L178.5,16.9z"/>
			<path class="st3" d="M186,24.6v-1.3c-0.1,0.3-0.2,0.4-0.3,0.5c-0.7,0.9-1.6,0.9-2,0.9c-0.1,0-0.5,0-0.8-0.1
				c-0.7-0.2-1.2-0.7-1.4-1.4c-0.2-0.5-0.2-1.2-0.2-2.3v-3.5h0.9v3.7c0,0.9,0,1.3,0.1,1.8c0.1,0.4,0.4,1.1,1.5,1.1
				c0.4,0,1.1,0,1.7-0.8c0.5-0.7,0.5-1.7,0.5-2.6v-3.2h0.9v7.2H186z"/>
			<path class="st3" d="M194.7,23.6c-0.4,0.5-1.1,1.2-2.6,1.2c-0.3,0-1,0-1.7-0.4c-1.7-0.9-1.8-3-1.8-3.5c0-0.2,0-0.8,0.2-1.5
				c0.5-1.4,1.7-2.3,3.1-2.3c0.4,0,1.5,0.1,2.3,1c0.6,0.7,0.9,1.7,0.9,2.5V21h-5.6c0,0.6,0.1,1,0.1,1.2c0.2,0.6,0.7,1.8,2.3,1.8
				c0.6,0,1.6-0.2,2.3-1.5l0.8,0.2C195.2,22.8,195,23.2,194.7,23.6z M192,18c-1.3,0-1.9,0.9-2,1.3c-0.1,0.3-0.2,0.7-0.3,1h4.6
				C194.1,18.4,192.8,18,192,18z"/>
			<path class="st3" d="M201.8,24.6v-3.8c0-1,0-1.5-0.2-2c-0.2-0.4-0.4-0.5-0.5-0.6c-0.4-0.2-0.8-0.2-1-0.2c-0.2,0-0.6,0-1,0.2
				c-0.5,0.3-1,0.8-1.1,1.4c-0.1,0.3-0.1,1-0.1,1.8v3.2h-0.9v-7.2h0.9v1.3c0.1-0.2,0.2-0.5,0.5-0.8c0.3-0.3,0.8-0.6,1.8-0.6
				c1.4,0,2,0.7,2.2,1.2c0.3,0.6,0.3,1.2,0.3,2.4v3.8H201.8z"/>
			<path class="st3" d="M206.9,24.7c-0.1,0-0.2,0-0.2,0c-0.2,0-0.7-0.1-1-0.6c-0.1-0.3-0.1-1.1-0.1-1.4v-4.5h-1.5v-0.8h1.5v-3.1h0.9
				v3.1h1.6v0.8h-1.6v4c0,0.3,0,0.5,0,0.8c0,0.4,0,1.1,0.6,1.1c0.4,0,0.7-0.3,1-0.5v0.9C207.9,24.5,207.5,24.7,206.9,24.7z"/>
			<path class="st3" d="M214.1,24.2c-0.3-0.3-0.3-0.6-0.3-0.9c-0.1,0.2-0.2,0.4-0.4,0.6c-0.3,0.3-1,0.8-2.2,0.8
				c-0.9,0-1.4-0.3-1.7-0.6c-0.2-0.2-0.5-0.7-0.5-1.3c0-0.2,0-0.7,0.4-1.1c0.5-0.7,1.4-0.9,2.2-1.1c0.5-0.1,0.9-0.3,1.4-0.3l0.8-0.2
				v-0.4c0-0.3,0-0.4-0.1-0.7c-0.2-0.5-0.6-1-1.7-1c-0.9,0-1.4,0.3-1.6,0.6c-0.2,0.3-0.3,0.7-0.3,1.1l-1-0.2c0-0.2,0.1-0.8,0.4-1.3
				c0.3-0.5,1-1.1,2.4-1.1c0.7,0,1.7,0.2,2.2,0.8c0.5,0.6,0.4,1.3,0.4,2v2.3c0,0.7,0,1.2,0.2,1.4c0.2,0.2,0.6,0.2,0.8,0.2v0.7
				C214.9,24.6,214.4,24.5,214.1,24.2z M213.8,20.8l-0.5,0.1c-1.4,0.4-2.6,0.7-3.1,1c-0.3,0.2-0.5,0.5-0.5,0.9
				c0,0.2,0.1,0.5,0.1,0.5c0.3,0.7,1.2,0.7,1.3,0.7c0.9,0,2-0.5,2.3-1.4c0.1-0.3,0.2-0.6,0.2-1.3V20.8z"/>
			<path class="st3" d="M221.8,23.5c-0.3,0.5-1,1.3-2.5,1.3c-0.4,0-1.6-0.1-2.4-1.1c-0.2-0.3-0.3-0.5-0.5-0.8l0.9-0.3
				c0.1,0.5,0.7,1.4,2,1.4c0.7,0,1.1-0.2,1.3-0.4c0.3-0.2,0.5-0.7,0.5-1c0-0.2-0.1-0.5-0.2-0.6c-0.2-0.3-0.6-0.5-1.4-0.7
				c-0.7-0.2-1.8-0.3-2.4-0.9c-0.2-0.3-0.4-0.7-0.4-1.1c0-0.2,0.1-0.9,0.6-1.4c0.5-0.5,1.3-0.6,2-0.6c0.2,0,1.1,0,1.8,0.5
				c0.6,0.4,0.7,0.9,0.8,1.2l-0.8,0.2c-0.2-0.8-1-1.1-1.8-1.1c-0.6,0-1,0.1-1.2,0.3c-0.1,0-0.2,0.2-0.3,0.3
				c-0.2,0.3-0.2,0.5-0.2,0.6c0,0.8,0.9,1,1.5,1.2l0.8,0.2c0.7,0.1,1.3,0.4,1.7,0.9c0.3,0.5,0.3,0.9,0.3,1.1
				C222,22.7,222,23.1,221.8,23.5z"/>
			<path class="st3" d="M228,24.6V13.9h1v10.7H228z"/>
			<path class="st3" d="M236.1,24.6v-3.8c0-1,0-1.5-0.2-2c-0.2-0.4-0.4-0.5-0.5-0.6c-0.4-0.2-0.8-0.2-1-0.2s-0.6,0-1,0.2
				c-0.5,0.3-1,0.8-1.1,1.4c-0.1,0.3-0.1,1-0.1,1.8v3.2h-0.9v-7.2h0.9v1.3c0.1-0.2,0.2-0.5,0.5-0.8c0.3-0.3,0.8-0.6,1.8-0.6
				c1.3,0,2,0.7,2.2,1.2c0.3,0.6,0.3,1.2,0.3,2.4v3.8H236.1z"/>
			<path class="st3" d="M244,24.6v-1.3c-0.3,1-1.3,1.5-2.2,1.5c-0.3,0-0.9,0-1.5-0.5c-1.5-1-1.5-3-1.5-3.3c0-0.4,0.1-2.4,1.6-3.3
				c0.3-0.2,0.8-0.4,1.6-0.4c0.6,0,1.2,0.2,1.6,0.6c0.3,0.3,0.4,0.5,0.5,0.7v-4.6h0.9v10.7H244z M243.1,18.4
				c-0.2-0.1-0.6-0.4-1.2-0.4c-0.2,0-0.5,0-0.9,0.2c-0.6,0.3-1.3,1.2-1.3,2.7c0,0.2,0,2.9,2.2,2.9c0.6,0,1-0.2,1.4-0.5
				c0.6-0.6,0.7-1.5,0.7-2.3C244,19.6,243.7,18.8,243.1,18.4z"/>
			<path class="st3" d="M247.1,15.7v-1.4h0.9v1.4H247.1z M247.1,24.6v-7.2h0.9v7.2H247.1z"/>
			<path class="st3" d="M252.5,24.6h-0.7l-2.5-7.2h0.9l2,5.9l2.2-5.9h0.9L252.5,24.6z"/>
			<path class="st3" d="M256.6,15.7v-1.4h0.9v1.4H256.6z M256.6,24.6v-7.2h0.9v7.2H256.6z"/>
			<path class="st3" d="M264.5,24.6v-1.3c-0.3,1-1.3,1.5-2.2,1.5c-0.3,0-0.9,0-1.5-0.5c-1.5-1-1.5-3-1.5-3.3c0-0.4,0.1-2.4,1.6-3.3
				c0.3-0.2,0.8-0.4,1.6-0.4c0.6,0,1.2,0.2,1.6,0.6c0.3,0.3,0.4,0.5,0.5,0.7v-4.6h0.9v10.7H264.5z M263.7,18.4
				c-0.2-0.1-0.6-0.4-1.2-0.4c-0.2,0-0.5,0-0.9,0.2c-0.6,0.3-1.3,1.2-1.3,2.7c0,0.2,0,2.9,2.2,2.9c0.6,0,1-0.2,1.4-0.5
				c0.6-0.6,0.7-1.5,0.7-2.3C264.6,19.6,264.3,18.8,263.7,18.4z"/>
			<path class="st3" d="M272.4,24.6v-1.3c-0.1,0.3-0.2,0.4-0.3,0.5c-0.7,0.9-1.6,0.9-2,0.9c-0.1,0-0.5,0-0.8-0.1
				c-0.7-0.2-1.2-0.7-1.4-1.4c-0.2-0.5-0.2-1.2-0.2-2.3v-3.5h0.9v3.7c0,0.9,0,1.3,0.1,1.8c0.1,0.4,0.4,1.1,1.5,1.1
				c0.4,0,1.1,0,1.7-0.8c0.5-0.7,0.5-1.7,0.5-2.6v-3.2h0.9v7.2H272.4z"/>
			<path class="st3" d="M280.3,24.2c-0.3-0.3-0.3-0.6-0.3-0.9c-0.1,0.2-0.2,0.4-0.4,0.6c-0.3,0.3-1,0.8-2.2,0.8
				c-0.9,0-1.4-0.3-1.7-0.6c-0.2-0.2-0.5-0.7-0.5-1.3c0-0.2,0-0.7,0.4-1.1c0.5-0.7,1.4-0.9,2.2-1.1c0.5-0.1,0.9-0.3,1.4-0.3L280,20
				v-0.4c0-0.3,0-0.4-0.1-0.7c-0.2-0.5-0.6-1-1.7-1c-0.9,0-1.4,0.3-1.6,0.6c-0.2,0.3-0.3,0.7-0.3,1.1l-1-0.2c0-0.2,0.1-0.8,0.4-1.3
				c0.3-0.5,1-1.1,2.4-1.1c0.7,0,1.7,0.2,2.2,0.8c0.5,0.6,0.4,1.3,0.4,2v2.3c0,0.7,0,1.2,0.2,1.4c0.2,0.2,0.6,0.2,0.8,0.2v0.7
				C281.1,24.6,280.6,24.5,280.3,24.2z M280,20.8l-0.5,0.1c-1.4,0.4-2.6,0.7-3.1,1c-0.3,0.2-0.5,0.5-0.5,0.9c0,0.2,0.1,0.5,0.1,0.5
				c0.3,0.7,1.2,0.7,1.3,0.7c0.9,0,2-0.5,2.3-1.4c0.1-0.3,0.2-0.6,0.2-1.3V20.8z"/>
			<path class="st3" d="M283.2,24.6V13.9h0.9v10.7H283.2z"/>
			<path class="st3" d="M291.9,23.6c-0.4,0.5-1.1,1.2-2.6,1.2c-0.3,0-1,0-1.7-0.4c-1.7-0.9-1.8-3-1.8-3.5c0-0.2,0-0.8,0.2-1.5
				c0.5-1.4,1.7-2.3,3.1-2.3c0.4,0,1.5,0.1,2.3,1c0.6,0.7,0.9,1.7,0.9,2.5V21h-5.6c0,0.6,0.1,1,0.1,1.2c0.2,0.6,0.7,1.8,2.3,1.8
				c0.6,0,1.6-0.2,2.3-1.5l0.8,0.2C292.4,22.8,292.2,23.2,291.9,23.6z M289.2,18c-1.3,0-1.9,0.9-2,1.3c-0.1,0.3-0.2,0.7-0.3,1h4.6
				C291.2,18.4,290,18,289.2,18z"/>
			<path class="st3" d="M299,23.5c-0.3,0.5-1,1.3-2.5,1.3c-0.4,0-1.6-0.1-2.4-1.1c-0.2-0.3-0.3-0.5-0.5-0.8l0.9-0.3
				c0.1,0.5,0.7,1.4,2,1.4c0.7,0,1.1-0.2,1.3-0.4c0.3-0.2,0.5-0.7,0.5-1c0-0.2-0.1-0.5-0.2-0.6c-0.2-0.3-0.6-0.5-1.4-0.7
				c-0.7-0.2-1.8-0.3-2.4-0.9c-0.2-0.3-0.4-0.7-0.4-1.1c0-0.2,0.1-0.9,0.6-1.4c0.5-0.5,1.3-0.6,2-0.6c0.2,0,1.1,0,1.8,0.5
				c0.6,0.4,0.7,0.9,0.8,1.2l-0.8,0.2c-0.2-0.8-1-1.1-1.8-1.1c-0.6,0-1,0.1-1.2,0.3c-0.1,0-0.2,0.2-0.3,0.3
				c-0.2,0.3-0.2,0.5-0.2,0.6c0,0.8,0.9,1,1.5,1.2l0.8,0.2c0.7,0.1,1.3,0.4,1.7,0.9c0.3,0.5,0.3,0.9,0.3,1.1
				C299.2,22.7,299.2,23.1,299,23.5z"/>
		</g>
	</g>
	<linearGradient id="SVGID_4_" gradientUnits="userSpaceOnUse" x1="199.9141" y1="32.3011" x2="199.9141" y2="174.7894">
		<stop  offset="0" style="stop-color:#40BFEF"/>
		<stop  offset="1" style="stop-color:#1470B5"/>
	</linearGradient>
	<polygon class="st4" points="261,174.8 261,32.3 138.8,32.3 138.8,174.8 138.8,174.8 	"/>
	<linearGradient id="SVGID_5_" gradientUnits="userSpaceOnUse" x1="198.3648" y1="93.0688" x2="198.3648" y2="167.151">
		<stop  offset="0" style="stop-color:#F8F6F6"/>
		<stop  offset="1" style="stop-color:#E5E7E9"/>
	</linearGradient>
	<rect x="4.5" y="93.1" class="st5" width="387.7" height="74.1"/>
	<rect x="4.5" y="128.8" class="st6" width="387.7" height="38.6"/>
	<rect x="4.5" y="93.1" class="st7" width="386.7" height="23.1"/>
	<g>
		<rect x="138.8" y="32.3" class="st8" width="1" height="142.5"/>
		<rect x="137.8" y="32.3" class="st6" width="1" height="142.5"/>
	</g>
	<g>
		<rect x="261" y="32.3" class="st8" width="1" height="142.5"/>
		<rect x="260" y="32.3" class="st6" width="1" height="142.5"/>
	</g>
	<g>
		<path class="st9" d="M21,109.6c-0.4,0.4-1.2,0.9-2.5,0.9c-0.3,0-1.3,0-2.2-0.6c-0.2-0.2-0.5-0.4-0.6-0.6c-0.5-0.6-0.5-1.4-0.6-1.6
			l1.1-0.1c0,0.2,0,0.9,0.5,1.4c0.3,0.3,0.8,0.6,1.8,0.6c0.1,0,0.4,0,0.7-0.1c0.3-0.1,1.3-0.4,1.3-1.5c0-0.5-0.2-0.8-0.4-0.9
			c-0.3-0.2-0.7-0.3-1.1-0.4l-0.7-0.1c-0.6-0.1-1.2-0.3-1.8-0.6c-1-0.5-1.1-1.2-1.1-1.7c0-0.6,0.3-1.2,0.8-1.6
			c0.8-0.7,1.8-0.7,2.1-0.7c0.8,0,1.5,0.1,2.1,0.6c0.4,0.3,0.6,0.6,0.6,0.7c0.2,0.4,0.3,0.7,0.4,1.1l-1.1,0.1c0-0.2,0-0.3-0.1-0.5
			c-0.2-0.6-0.7-1.2-2-1.2c-0.5,0-1.2,0.1-1.5,0.5c-0.2,0.2-0.3,0.5-0.3,0.7c0,0.1,0,0.4,0.2,0.6c0.3,0.4,0.9,0.5,1.4,0.7l0.9,0.2
			c0.2,0,0.4,0.1,0.6,0.2c0.2,0.1,1.2,0.3,1.7,1.1c0.1,0.2,0.3,0.5,0.3,1.1C21.6,108.3,21.6,109,21,109.6z"/>
		<path class="st9" d="M27.1,109.4c-0.3,0.4-0.9,1.1-2.1,1.1c-0.6,0-0.9-0.1-1.1-0.2c-0.7-0.3-1.5-1-1.5-2.7c0-1,0.3-1.5,0.6-1.9
			c0.5-0.6,1.2-0.9,2-0.9c0.3,0,0.6,0.1,0.8,0.1c0.3,0.1,1,0.4,1.3,1.3c0.1,0.4,0.3,0.8,0.3,1.6h-4c0,1,0.4,1.5,0.8,1.7
			c0.3,0.2,0.6,0.3,1,0.3c0.5,0,0.7-0.2,0.9-0.3c0.1,0,0.2-0.2,0.3-0.4c0.1-0.2,0.2-0.5,0.2-0.6l0.9,0.1
			C27.4,108.8,27.3,109.1,27.1,109.4z M26.4,106.6c-0.2-0.7-0.7-1.1-1.4-1.1c-1,0-1.4,0.8-1.5,1.6h3
			C26.4,106.9,26.4,106.7,26.4,106.6z"/>
		<path class="st9" d="M33.1,111.4c-0.3,1-1.1,1.3-1.4,1.4c-0.2,0-0.5,0.1-0.9,0.1c-0.2,0-0.5,0-0.9-0.1c-1.3-0.4-1.5-1.4-1.5-1.9h1
			c0,0.1,0,0.4,0.2,0.7c0.4,0.5,1.1,0.5,1.2,0.5c0.1,0,0.9,0,1.3-0.5c0.2-0.3,0.2-0.7,0.2-1.5l0-0.6c-0.6,0.8-1.3,0.9-1.7,0.9
			c-0.5,0-0.9-0.2-1.1-0.3c-0.6-0.3-1.3-1-1.3-2.5c0-0.2,0-1.2,0.6-1.9c0.5-0.6,1-0.9,1.9-0.9c0.1,0,0.4,0,0.7,0.1
			c0.2,0.1,0.6,0.3,1,0.8V105h0.9v5C33.2,110.7,33.2,111,33.1,111.4z M32.2,106.7c-0.2-0.7-0.9-1.1-1.6-1.1c-0.2,0-0.5,0.1-0.7,0.2
			c-0.4,0.2-0.9,0.8-0.9,1.9c0,0.6,0.1,1.3,0.7,1.7c0.3,0.2,0.6,0.3,1,0.3c0.5,0,0.8-0.2,1-0.4c0.3-0.3,0.6-0.8,0.6-1.7
			C32.3,107.4,32.3,107.1,32.2,106.7z"/>
		<path class="st9" d="M38,110.3l0-0.8c0,0.1-0.1,0.1-0.2,0.3c-0.4,0.4-1,0.7-1.6,0.7c-0.2,0-1,0-1.4-0.7c-0.3-0.5-0.3-1.1-0.3-1.6
			V105h0.9v3c0,0.6,0,0.8,0.1,1.1c0.1,0.2,0.4,0.5,1,0.5c0.2,0,0.9,0,1.3-0.6c0.3-0.4,0.3-0.9,0.3-1.3V105h0.9v5.3H38z"/>
		<path class="st9" d="M42.2,105.9c-0.5,0.1-0.9,0.5-1.1,1c-0.1,0.3-0.1,0.5-0.1,1v2.5h-0.9V105h0.9v1c0.1-0.2,0.3-0.4,0.5-0.6
			c0.2-0.2,0.6-0.4,1.3-0.4v1C42.6,105.8,42.4,105.8,42.2,105.9z"/>
		<path class="st9" d="M47.8,109.6c-0.3,0.4-0.9,0.9-2,0.9c-0.3,0-1.2,0-1.8-0.7c-0.3-0.3-0.8-1-0.8-2.1c0-0.7,0.2-1.4,0.6-1.9
			c0.5-0.7,1.2-0.9,2-0.9c0.4,0,0.7,0.1,1.1,0.2c0.6,0.3,1.5,1,1.5,2.6C48.4,107.9,48.4,108.8,47.8,109.6z M47.2,106.3
			c-0.1-0.1-0.2-0.3-0.3-0.4c-0.4-0.3-0.8-0.3-1-0.3c-1.7,0-1.7,1.9-1.7,2.2c0,0.3,0,0.5,0,0.5c0.1,0.4,0.3,1.5,1.6,1.5
			c0.2,0,0.9-0.1,1.3-0.7c0.3-0.5,0.4-1.3,0.4-1.4C47.5,107.5,47.5,106.8,47.2,106.3z"/>
		<path class="st9" d="M56.2,110.3v-0.7c-0.3,0.3-0.8,0.8-1.8,0.8c-1,0-1.5-0.5-1.8-0.8c-0.3-0.4-0.7-1-0.7-2c0-0.7,0.1-1.3,0.5-1.9
			c0.2-0.3,0.8-1,1.9-1c0.8,0,1.3,0.4,1.5,0.5c0.1,0.1,0.2,0.2,0.3,0.3v-3.4h0.9v8H56.2z M56.2,106.9c-0.2-0.8-0.8-1.3-1.6-1.3
			c-0.2,0-0.8,0-1.2,0.6c-0.4,0.4-0.5,0.9-0.5,1.5c0,0.2,0,0.9,0.4,1.4c0.4,0.6,1,0.6,1.3,0.6c0.3,0,0.6-0.1,0.9-0.2
			c0.4-0.2,0.8-0.8,0.8-1.8C56.2,107.5,56.2,107.2,56.2,106.9z"/>
		<path class="st9" d="M62.7,109.4c-0.3,0.4-0.9,1.1-2.1,1.1c-0.6,0-0.9-0.1-1.1-0.2c-0.7-0.3-1.5-1-1.5-2.7c0-1,0.3-1.5,0.6-1.9
			c0.5-0.6,1.2-0.9,2-0.9c0.3,0,0.6,0.1,0.8,0.1c0.3,0.1,1,0.4,1.3,1.3c0.1,0.4,0.3,0.8,0.3,1.6h-4c0,1,0.4,1.5,0.8,1.7
			c0.3,0.2,0.6,0.3,1,0.3c0.5,0,0.7-0.2,0.9-0.3c0.1,0,0.2-0.2,0.3-0.4c0.1-0.2,0.2-0.5,0.2-0.6l0.9,0.1
			C63,108.8,62.9,109.1,62.7,109.4z M62,106.6c-0.2-0.7-0.7-1.1-1.4-1.1c-1,0-1.4,0.8-1.5,1.6h3C62.1,106.9,62.1,106.7,62,106.6z"/>
		<path class="st9" d="M72.2,110.3l-0.9-2.4h-3l-0.9,2.4h-1.1l3-8h1.1l2.9,8H72.2z M69.8,103.6l-1.2,3.3H71L69.8,103.6z"/>
		<path class="st9" d="M77.9,110c-0.6,0.5-1.4,0.5-1.6,0.5c-0.2,0-0.6,0-1-0.2c-0.6-0.2-1.6-0.9-1.6-2.6c0-1.7,0.9-2.5,1.6-2.7
			c0.4-0.2,0.8-0.2,1-0.2c1.4,0,2.1,0.8,2.3,1.3c0.1,0.2,0.1,0.3,0.1,0.5l-1,0.1c0-0.1-0.1-0.4-0.2-0.6c-0.4-0.6-1-0.6-1.2-0.6
			c-0.8,0-1.6,0.5-1.6,2.2c0,0.9,0.3,1.5,0.6,1.8c0.3,0.3,0.7,0.4,1.1,0.4c0.2,0,0.5,0,0.7-0.1c0.6-0.3,0.7-0.8,0.8-1.3l1,0.1
			C78.6,109.2,78.2,109.7,77.9,110z"/>
		<path class="st9" d="M83.6,110c-0.6,0.5-1.4,0.5-1.6,0.5c-0.2,0-0.6,0-1-0.2c-0.6-0.2-1.6-0.9-1.6-2.6c0-1.7,0.9-2.5,1.6-2.7
			c0.4-0.2,0.8-0.2,1-0.2c1.4,0,2.1,0.8,2.3,1.3c0.1,0.2,0.1,0.3,0.1,0.5l-1,0.1c0-0.1-0.1-0.4-0.2-0.6c-0.4-0.6-1-0.6-1.2-0.6
			c-0.8,0-1.6,0.5-1.6,2.2c0,0.9,0.3,1.5,0.6,1.8c0.3,0.3,0.7,0.4,1.1,0.4c0.2,0,0.5,0,0.7-0.1c0.6-0.3,0.7-0.8,0.8-1.3l1,0.1
			C84.3,109.2,83.9,109.7,83.6,110z"/>
		<path class="st9" d="M85.3,103.3v-1h0.9v1H85.3z M85.3,110.3V105h0.9v5.3H85.3z"/>
		<path class="st9" d="M91.4,110.3v-0.7c-0.3,0.3-0.8,0.8-1.8,0.8c-1,0-1.5-0.5-1.8-0.8c-0.3-0.4-0.7-1-0.7-2c0-0.7,0.1-1.3,0.5-1.9
			c0.2-0.3,0.8-1,1.9-1c0.8,0,1.3,0.4,1.5,0.5c0.1,0.1,0.2,0.2,0.3,0.3v-3.4h0.9v8H91.4z M91.3,106.9c-0.2-0.8-0.8-1.3-1.6-1.3
			c-0.2,0-0.8,0-1.2,0.6c-0.4,0.4-0.5,0.9-0.5,1.5c0,0.2,0,0.9,0.4,1.4c0.4,0.6,1,0.6,1.3,0.6c0.3,0,0.6-0.1,0.9-0.2
			c0.4-0.2,0.8-0.8,0.8-1.8C91.4,107.5,91.4,107.2,91.3,106.9z"/>
		<path class="st9" d="M97.9,109.4c-0.3,0.4-0.9,1.1-2.1,1.1c-0.6,0-0.9-0.1-1.1-0.2c-0.7-0.3-1.5-1-1.5-2.7c0-1,0.3-1.5,0.6-1.9
			c0.5-0.6,1.2-0.9,2-0.9c0.3,0,0.6,0.1,0.8,0.1c0.3,0.1,1,0.4,1.3,1.3c0.1,0.4,0.3,0.8,0.3,1.6h-4c0,1,0.4,1.5,0.8,1.7
			c0.3,0.2,0.6,0.3,1,0.3c0.5,0,0.7-0.2,0.9-0.3c0.1,0,0.2-0.2,0.3-0.4c0.1-0.2,0.2-0.5,0.2-0.6l0.9,0.1
			C98.2,108.8,98.1,109.1,97.9,109.4z M97.2,106.6c-0.2-0.7-0.7-1.1-1.4-1.1c-1,0-1.4,0.8-1.5,1.6h3
			C97.3,106.9,97.2,106.7,97.2,106.6z"/>
		<path class="st9" d="M102.7,110.3v-3.4c0-0.2,0-0.7-0.4-1c-0.1-0.1-0.4-0.2-0.8-0.2c-0.4,0-0.7,0.1-1,0.4
			c-0.1,0.1-0.2,0.2-0.3,0.5c-0.1,0.2-0.1,0.5-0.1,0.7v3h-0.9V105h0.9v0.8c0.1-0.2,0.2-0.3,0.3-0.4c0.2-0.2,0.7-0.6,1.4-0.6
			c0.2,0,1,0.1,1.5,0.7c0.4,0.5,0.3,1,0.3,1.6v3.2H102.7z"/>
		<path class="st9" d="M106.2,110.4c-0.5,0-0.8-0.1-0.9-0.3c-0.1-0.2-0.1-0.4-0.1-0.9v-3.5h-0.9V105h0.9v-1.7h0.9v1.7h1v0.7h-1v3.1
			c0,0.4,0,0.6,0.1,0.7c0.1,0.1,0.2,0.2,0.3,0.2c0.1,0,0.3,0,0.6-0.1v0.7C107,110.3,106.6,110.4,106.2,110.4z"/>
		<path class="st9" d="M112.3,109.4c-0.3,0.4-0.9,1.1-2.1,1.1c-0.6,0-0.9-0.1-1.1-0.2c-0.7-0.3-1.5-1-1.5-2.7c0-1,0.3-1.5,0.6-1.9
			c0.5-0.6,1.2-0.9,2-0.9c0.3,0,0.6,0.1,0.8,0.1c0.3,0.1,1,0.4,1.3,1.3c0.1,0.4,0.3,0.8,0.3,1.6h-4c0,1,0.4,1.5,0.8,1.7
			c0.3,0.2,0.6,0.3,1,0.3c0.5,0,0.7-0.2,0.9-0.3c0.1,0,0.2-0.2,0.3-0.4c0.1-0.2,0.2-0.5,0.2-0.6l0.9,0.1
			C112.6,108.8,112.5,109.1,112.3,109.4z M111.6,106.6c-0.2-0.7-0.7-1.1-1.4-1.1c-1,0-1.4,0.8-1.5,1.6h3
			C111.7,106.9,111.7,106.7,111.6,106.6z"/>
		<path class="st9" d="M117.7,109.6c-0.3,0.4-0.9,0.9-2,0.9c-0.2,0-1,0-1.6-0.4c-0.1-0.1-0.2-0.1-0.4-0.3c-0.4-0.5-0.5-1-0.5-1.2
			l1-0.1c0,0.4,0,0.7,0.3,0.9c0.3,0.4,0.7,0.4,1.2,0.4c0.1,0,0.6,0,1-0.3c0.2-0.2,0.2-0.5,0.2-0.6c0-0.1,0-0.2-0.1-0.4
			c-0.2-0.3-0.7-0.4-1-0.5l-0.5-0.1c-0.7-0.1-1-0.2-1.3-0.4c-0.4-0.3-0.6-0.6-0.6-1.1c0-0.2,0-0.5,0.3-0.9c0.5-0.7,1.6-0.7,1.8-0.7
			c1.1,0,1.7,0.6,2,0.9c0.2,0.3,0.3,0.7,0.3,0.8l-1,0.1c0-0.3,0-0.4-0.1-0.5c-0.1-0.3-0.6-0.7-1.3-0.7c-0.7,0-1.1,0.4-1.1,0.8
			c0,0.1,0,0.2,0.1,0.3c0.2,0.3,0.6,0.4,1.2,0.6l0.5,0.1c0.2,0,0.3,0.1,0.5,0.1c0.7,0.2,1.3,0.6,1.3,1.4
			C117.9,108.9,117.9,109.2,117.7,109.6z"/>
		<path class="st9" d="M47.7,118.9c-0.3,0.1-0.6,0.1-1.2,0.1h-2.3v3.4h-1v-8h3.4c0.6,0,1.2,0,1.7,0.3c0.9,0.6,0.9,1.6,0.9,1.9
			C49.2,117.7,48.7,118.6,47.7,118.9z M48.1,116.1c-0.1-0.4-0.4-0.6-0.8-0.7c-0.2-0.1-0.4-0.1-0.6-0.1h-2.5v2.7h2.2
			c0.3,0,0.6,0,0.9-0.1c0.6-0.2,0.9-0.7,0.9-1.4C48.2,116.5,48.2,116.3,48.1,116.1z"/>
		<path class="st9" d="M54.2,121.5c-0.3,0.4-0.9,1.1-2.1,1.1c-0.6,0-0.9-0.1-1.1-0.2c-0.7-0.3-1.5-1-1.5-2.7c0-1,0.3-1.5,0.6-1.9
			c0.5-0.6,1.2-0.9,2-0.9c0.3,0,0.6,0.1,0.8,0.1c0.3,0.1,1,0.4,1.3,1.3c0.1,0.4,0.3,0.8,0.3,1.6h-4c0,1,0.4,1.5,0.8,1.7
			c0.3,0.2,0.6,0.3,1,0.3c0.5,0,0.7-0.2,0.9-0.3c0.1,0,0.2-0.2,0.3-0.4c0.1-0.2,0.2-0.5,0.2-0.6l0.9,0.1
			C54.5,120.9,54.4,121.2,54.2,121.5z M53.5,118.7c-0.2-0.7-0.7-1.1-1.4-1.1c-1,0-1.4,0.8-1.5,1.6h3
			C53.6,118.9,53.5,118.8,53.5,118.7z"/>
		<path class="st9" d="M57.6,117.9c-0.5,0.1-0.9,0.5-1.1,1c-0.1,0.3-0.1,0.5-0.1,1v2.5h-0.9V117h0.9v1c0.1-0.2,0.3-0.4,0.5-0.6
			c0.2-0.2,0.6-0.4,1.3-0.4v1C57.9,117.9,57.7,117.9,57.6,117.9z"/>
		<path class="st9" d="M62.9,121.7c-0.3,0.4-0.9,0.9-2,0.9c-0.2,0-1,0-1.6-0.4c-0.1-0.1-0.2-0.1-0.4-0.3c-0.4-0.5-0.5-1-0.5-1.2
			l1-0.1c0,0.4,0,0.7,0.3,0.9c0.3,0.4,0.7,0.4,1.2,0.4c0.1,0,0.6,0,1-0.3c0.2-0.2,0.2-0.5,0.2-0.6c0-0.1,0-0.2-0.1-0.4
			c-0.2-0.3-0.7-0.4-1-0.5l-0.5-0.1c-0.7-0.1-1-0.2-1.3-0.4c-0.4-0.3-0.6-0.6-0.6-1.1c0-0.2,0-0.5,0.3-0.9c0.5-0.7,1.6-0.7,1.8-0.7
			c1.1,0,1.7,0.6,2,0.9c0.2,0.3,0.3,0.7,0.3,0.8l-1,0.1c0-0.3,0-0.4-0.1-0.5c-0.1-0.3-0.6-0.7-1.3-0.7c-0.7,0-1.1,0.4-1.1,0.8
			c0,0.1,0,0.2,0.1,0.3c0.2,0.3,0.6,0.4,1.2,0.6l0.5,0.1c0.2,0,0.3,0.1,0.5,0.1c0.7,0.2,1.3,0.6,1.3,1.4
			C63.2,121,63.1,121.3,62.9,121.7z"/>
		<path class="st9" d="M68.3,121.6c-0.3,0.4-0.9,0.9-2,0.9c-0.3,0-1.2,0-1.8-0.7c-0.3-0.3-0.8-1-0.8-2.1c0-0.7,0.2-1.4,0.6-1.9
			c0.5-0.7,1.2-0.9,2-0.9c0.4,0,0.7,0.1,1.1,0.2c0.6,0.3,1.5,1,1.5,2.6C69,120,68.9,120.9,68.3,121.6z M67.7,118.3
			c-0.1-0.1-0.2-0.3-0.3-0.4c-0.4-0.3-0.8-0.3-1-0.3c-1.7,0-1.7,1.9-1.7,2.2c0,0.3,0,0.5,0,0.5c0.1,0.4,0.3,1.5,1.6,1.5
			c0.2,0,0.9-0.1,1.3-0.7c0.3-0.5,0.4-1.3,0.4-1.4C68,119.6,68,118.9,67.7,118.3z"/>
		<path class="st9" d="M73.4,122.4V119c0-0.2,0-0.7-0.4-1c-0.1-0.1-0.4-0.2-0.8-0.2c-0.4,0-0.7,0.1-1,0.4c-0.1,0.1-0.2,0.2-0.3,0.5
			c-0.1,0.2-0.1,0.5-0.1,0.7v3h-0.9V117h0.9v0.8c0.1-0.2,0.2-0.3,0.3-0.4c0.2-0.2,0.7-0.6,1.4-0.6c0.2,0,1,0.1,1.5,0.7
			c0.4,0.5,0.3,1,0.3,1.6v3.2H73.4z"/>
		<path class="st9" d="M79.8,122.4c0,0-0.4,0-0.6-0.1c-0.1-0.1-0.2-0.2-0.2-0.2c-0.1-0.2-0.2-0.3-0.2-0.5c-0.2,0.3-0.8,0.9-1.8,0.9
			c-0.4,0-0.6-0.1-0.7-0.1c-0.6-0.2-1.1-0.7-1.1-1.4c0-0.2,0.1-0.8,0.6-1.2c0.5-0.4,1.5-0.6,2.2-0.6l0.8-0.1c0-0.1,0-0.3,0-0.4
			c0-0.4-0.1-1.2-1.2-1.2c-0.2,0-0.9,0-1.1,0.6c-0.1,0.2-0.1,0.3-0.1,0.5l-0.9-0.1c0-0.1,0-0.3,0.1-0.5c0.2-0.5,0.7-1.2,2-1.2
			c0.2,0,0.5,0,0.8,0.1c0.2,0.1,0.9,0.3,1.2,1c0.1,0.3,0.1,0.6,0.1,1.1v1.7c0,0.1,0,0.2,0,0.4c0,0.1,0,0.4,0.4,0.4
			c0.1,0,0.2,0,0.3,0v0.8C80.1,122.4,79.9,122.4,79.8,122.4z M78.8,119.9v-0.1c-0.4,0.1-1.5,0.2-1.9,0.4c-0.2,0.1-0.7,0.3-0.7,0.8
			c0,0.4,0.3,0.8,1,0.8c0.5,0,1.6-0.2,1.6-1.6C78.8,120.1,78.8,120,78.8,119.9z"/>
		<path class="st9" d="M81.1,122.4v-8h0.9v8H81.1z"/>
		<path class="st9" d="M87.5,121.5c-0.3,0.4-0.9,1.1-2.1,1.1c-0.6,0-0.9-0.1-1.1-0.2c-0.7-0.3-1.5-1-1.5-2.7c0-1,0.3-1.5,0.6-1.9
			c0.5-0.6,1.2-0.9,2-0.9c0.3,0,0.6,0.1,0.8,0.1c0.3,0.1,1,0.4,1.3,1.3c0.1,0.4,0.3,0.8,0.3,1.6h-4c0,1,0.4,1.5,0.8,1.7
			c0.3,0.2,0.6,0.3,1,0.3c0.5,0,0.7-0.2,0.9-0.3c0.1,0,0.2-0.2,0.3-0.4c0.1-0.2,0.2-0.5,0.2-0.6l0.9,0.1
			C87.8,120.9,87.7,121.2,87.5,121.5z M86.8,118.7c-0.2-0.7-0.7-1.1-1.4-1.1c-1,0-1.4,0.8-1.5,1.6h3
			C86.9,118.9,86.9,118.8,86.8,118.7z"/>
		<path class="st9" d="M92.9,121.7c-0.3,0.4-0.9,0.9-2,0.9c-0.2,0-1,0-1.6-0.4c-0.1-0.1-0.2-0.1-0.4-0.3c-0.4-0.5-0.5-1-0.5-1.2
			l1-0.1c0,0.4,0,0.7,0.3,0.9c0.3,0.4,0.7,0.4,1.2,0.4c0.1,0,0.6,0,1-0.3c0.2-0.2,0.2-0.5,0.2-0.6c0-0.1,0-0.2-0.1-0.4
			c-0.2-0.3-0.7-0.4-1-0.5l-0.5-0.1c-0.7-0.1-1-0.2-1.3-0.4c-0.4-0.3-0.6-0.6-0.6-1.1c0-0.2,0-0.5,0.3-0.9c0.5-0.7,1.6-0.7,1.8-0.7
			c1.1,0,1.7,0.6,2,0.9c0.2,0.3,0.3,0.7,0.3,0.8l-1,0.1c0-0.3,0-0.4-0.1-0.5c-0.1-0.3-0.6-0.7-1.3-0.7c-0.7,0-1.1,0.4-1.1,0.8
			c0,0.1,0,0.2,0.1,0.3c0.2,0.3,0.6,0.4,1.2,0.6l0.5,0.1c0.2,0,0.3,0.1,0.5,0.1c0.7,0.2,1.3,0.6,1.3,1.4
			C93.1,121,93.1,121.3,92.9,121.7z"/>
	</g>
	<g>
		<path class="st9" d="M153.4,109.6c-0.4,0.4-1.2,0.9-2.5,0.9c-0.3,0-1.3,0-2.2-0.6c-0.2-0.2-0.5-0.4-0.6-0.6
			c-0.5-0.6-0.5-1.4-0.6-1.6l1.1-0.1c0,0.2,0,0.9,0.5,1.4c0.3,0.3,0.8,0.6,1.8,0.6c0.1,0,0.4,0,0.7-0.1c0.3-0.1,1.3-0.4,1.3-1.5
			c0-0.5-0.2-0.8-0.4-0.9c-0.3-0.2-0.7-0.3-1.1-0.4l-0.7-0.1c-0.6-0.1-1.2-0.3-1.8-0.6c-1-0.5-1.1-1.2-1.1-1.7
			c0-0.6,0.3-1.2,0.8-1.6c0.8-0.7,1.8-0.7,2.1-0.7c0.8,0,1.5,0.1,2.1,0.6c0.4,0.3,0.6,0.6,0.6,0.7c0.2,0.4,0.3,0.7,0.4,1.1l-1.1,0.1
			c0-0.2,0-0.3-0.1-0.5c-0.2-0.6-0.7-1.2-2-1.2c-0.5,0-1.2,0.1-1.5,0.5c-0.2,0.2-0.3,0.5-0.3,0.7c0,0.1,0,0.4,0.2,0.6
			c0.3,0.4,0.9,0.5,1.4,0.7l0.9,0.2c0.2,0,0.4,0.1,0.6,0.2c0.2,0.1,1.2,0.3,1.7,1.1c0.1,0.2,0.3,0.5,0.3,1.1
			C154.1,108.3,154.1,109,153.4,109.6z"/>
		<path class="st9" d="M159.6,109.4c-0.3,0.4-0.9,1.1-2.1,1.1c-0.6,0-0.9-0.1-1.1-0.2c-0.7-0.3-1.5-1-1.5-2.7c0-1,0.3-1.5,0.6-1.9
			c0.5-0.6,1.2-0.9,2-0.9c0.3,0,0.6,0.1,0.8,0.1c0.3,0.1,1,0.4,1.3,1.3c0.1,0.4,0.3,0.8,0.3,1.6h-4c0,1,0.4,1.5,0.8,1.7
			c0.3,0.2,0.6,0.3,1,0.3c0.5,0,0.7-0.2,0.9-0.3c0.1,0,0.2-0.2,0.3-0.4c0.1-0.2,0.2-0.5,0.2-0.6l0.9,0.1
			C159.9,108.8,159.8,109.1,159.6,109.4z M158.8,106.6c-0.2-0.7-0.7-1.1-1.4-1.1c-1,0-1.4,0.8-1.5,1.6h3
			C158.9,106.9,158.9,106.7,158.8,106.6z"/>
		<path class="st9" d="M165.6,111.4c-0.3,1-1.1,1.3-1.4,1.4c-0.2,0-0.5,0.1-0.9,0.1c-0.2,0-0.5,0-0.9-0.1c-1.3-0.4-1.5-1.4-1.5-1.9
			h1c0,0.1,0,0.4,0.2,0.7c0.4,0.5,1.1,0.5,1.2,0.5c0.1,0,0.9,0,1.3-0.5c0.2-0.3,0.2-0.7,0.2-1.5l0-0.6c-0.6,0.8-1.3,0.9-1.7,0.9
			c-0.5,0-0.9-0.2-1.1-0.3c-0.6-0.3-1.3-1-1.3-2.5c0-0.2,0-1.2,0.6-1.9c0.5-0.6,1-0.9,1.9-0.9c0.1,0,0.4,0,0.7,0.1
			c0.2,0.1,0.6,0.3,1,0.8V105h0.9v5C165.7,110.7,165.7,111,165.6,111.4z M164.7,106.7c-0.2-0.7-0.9-1.1-1.6-1.1
			c-0.2,0-0.5,0.1-0.7,0.2c-0.4,0.2-0.9,0.8-0.9,1.9c0,0.6,0.1,1.3,0.7,1.7c0.3,0.2,0.6,0.3,1,0.3c0.5,0,0.8-0.2,1-0.4
			c0.3-0.3,0.6-0.8,0.6-1.7C164.8,107.4,164.8,107.1,164.7,106.7z"/>
		<path class="st9" d="M170.5,110.3l0-0.8c0,0.1-0.1,0.1-0.2,0.3c-0.4,0.4-1,0.7-1.6,0.7c-0.2,0-1,0-1.4-0.7
			c-0.3-0.5-0.3-1.1-0.3-1.6V105h0.9v3c0,0.6,0,0.8,0.1,1.1c0.1,0.2,0.4,0.5,1,0.5c0.2,0,0.9,0,1.3-0.6c0.3-0.4,0.3-0.9,0.3-1.3V105
			h0.9v5.3H170.5z"/>
		<path class="st9" d="M174.7,105.9c-0.5,0.1-0.9,0.5-1.1,1c-0.1,0.3-0.1,0.5-0.1,1v2.5h-0.9V105h0.9v1c0.1-0.2,0.3-0.4,0.5-0.6
			c0.2-0.2,0.6-0.4,1.3-0.4v1C175,105.8,174.9,105.8,174.7,105.9z"/>
		<path class="st9" d="M180.3,109.6c-0.3,0.4-0.9,0.9-2,0.9c-0.3,0-1.2,0-1.8-0.7c-0.3-0.3-0.8-1-0.8-2.1c0-0.7,0.2-1.4,0.6-1.9
			c0.5-0.7,1.2-0.9,2-0.9c0.4,0,0.7,0.1,1.1,0.2c0.6,0.3,1.5,1,1.5,2.6C180.9,107.9,180.9,108.8,180.3,109.6z M179.7,106.3
			c-0.1-0.1-0.2-0.3-0.3-0.4c-0.4-0.3-0.8-0.3-1-0.3c-1.7,0-1.7,1.9-1.7,2.2c0,0.3,0,0.5,0,0.5c0.1,0.4,0.3,1.5,1.6,1.5
			c0.2,0,0.9-0.1,1.3-0.7c0.3-0.5,0.4-1.3,0.4-1.4C179.9,107.5,179.9,106.8,179.7,106.3z"/>
		<path class="st9" d="M188.7,110.3v-0.7c-0.3,0.3-0.8,0.8-1.8,0.8c-1,0-1.5-0.5-1.8-0.8c-0.3-0.4-0.7-1-0.7-2
			c0-0.7,0.1-1.3,0.5-1.9c0.2-0.3,0.8-1,1.9-1c0.8,0,1.3,0.4,1.5,0.5c0.1,0.1,0.2,0.2,0.3,0.3v-3.4h0.9v8H188.7z M188.6,106.9
			c-0.2-0.8-0.8-1.3-1.6-1.3c-0.2,0-0.8,0-1.2,0.6c-0.4,0.4-0.5,0.9-0.5,1.5c0,0.2,0,0.9,0.4,1.4c0.4,0.6,1,0.6,1.3,0.6
			c0.3,0,0.6-0.1,0.9-0.2c0.4-0.2,0.8-0.8,0.8-1.8C188.7,107.5,188.7,107.2,188.6,106.9z"/>
		<path class="st9" d="M195.2,109.4c-0.3,0.4-0.9,1.1-2.1,1.1c-0.6,0-0.9-0.1-1.1-0.2c-0.7-0.3-1.5-1-1.5-2.7c0-1,0.3-1.5,0.6-1.9
			c0.5-0.6,1.2-0.9,2-0.9c0.3,0,0.6,0.1,0.8,0.1c0.3,0.1,1,0.4,1.3,1.3c0.1,0.4,0.3,0.8,0.3,1.6h-4c0,1,0.4,1.5,0.8,1.7
			c0.3,0.2,0.6,0.3,1,0.3c0.5,0,0.7-0.2,0.9-0.3c0.1,0,0.2-0.2,0.3-0.4c0.1-0.2,0.2-0.5,0.2-0.6l0.9,0.1
			C195.5,108.8,195.4,109.1,195.2,109.4z M194.5,106.6c-0.2-0.7-0.7-1.1-1.4-1.1c-1,0-1.4,0.8-1.5,1.6h3
			C194.6,106.9,194.5,106.7,194.5,106.6z"/>
		<path class="st9" d="M204.7,110.3l-0.9-2.4h-3l-0.9,2.4h-1.1l3-8h1.1l2.9,8H204.7z M202.3,103.6l-1.2,3.3h2.4L202.3,103.6z"/>
		<path class="st9" d="M210.4,110c-0.6,0.5-1.4,0.5-1.6,0.5c-0.2,0-0.6,0-1-0.2c-0.6-0.2-1.6-0.9-1.6-2.6c0-1.7,0.9-2.5,1.6-2.7
			c0.4-0.2,0.8-0.2,1-0.2c1.4,0,2.1,0.8,2.3,1.3c0.1,0.2,0.1,0.3,0.1,0.5l-1,0.1c0-0.1-0.1-0.4-0.2-0.6c-0.4-0.6-1-0.6-1.2-0.6
			c-0.8,0-1.6,0.5-1.6,2.2c0,0.9,0.3,1.5,0.6,1.8c0.3,0.3,0.7,0.4,1.1,0.4c0.2,0,0.5,0,0.7-0.1c0.6-0.3,0.7-0.8,0.8-1.3l1,0.1
			C211.1,109.2,210.7,109.7,210.4,110z"/>
		<path class="st9" d="M216.1,110c-0.6,0.5-1.4,0.5-1.6,0.5c-0.2,0-0.6,0-1-0.2c-0.6-0.2-1.6-0.9-1.6-2.6c0-1.7,0.9-2.5,1.6-2.7
			c0.4-0.2,0.8-0.2,1-0.2c1.4,0,2.1,0.8,2.3,1.3c0.1,0.2,0.1,0.3,0.1,0.5l-1,0.1c0-0.1-0.1-0.4-0.2-0.6c-0.4-0.6-1-0.6-1.2-0.6
			c-0.8,0-1.6,0.5-1.6,2.2c0,0.9,0.3,1.5,0.6,1.8c0.3,0.3,0.7,0.4,1.1,0.4c0.2,0,0.5,0,0.7-0.1c0.6-0.3,0.7-0.8,0.8-1.3l1,0.1
			C216.8,109.2,216.3,109.7,216.1,110z"/>
		<path class="st9" d="M217.8,103.3v-1h0.9v1H217.8z M217.8,110.3V105h0.9v5.3H217.8z"/>
		<path class="st9" d="M223.9,110.3v-0.7c-0.3,0.3-0.8,0.8-1.8,0.8c-1,0-1.5-0.5-1.8-0.8c-0.3-0.4-0.7-1-0.7-2
			c0-0.7,0.1-1.3,0.5-1.9c0.2-0.3,0.8-1,1.9-1c0.8,0,1.3,0.4,1.5,0.5c0.1,0.1,0.2,0.2,0.3,0.3v-3.4h0.9v8H223.9z M223.8,106.9
			c-0.2-0.8-0.8-1.3-1.6-1.3c-0.2,0-0.8,0-1.2,0.6c-0.4,0.4-0.5,0.9-0.5,1.5c0,0.2,0,0.9,0.4,1.4c0.4,0.6,1,0.6,1.3,0.6
			c0.3,0,0.6-0.1,0.9-0.2c0.4-0.2,0.8-0.8,0.8-1.8C223.9,107.5,223.9,107.2,223.8,106.9z"/>
		<path class="st9" d="M230.4,109.4c-0.3,0.4-0.9,1.1-2.1,1.1c-0.6,0-0.9-0.1-1.1-0.2c-0.7-0.3-1.5-1-1.5-2.7c0-1,0.3-1.5,0.6-1.9
			c0.5-0.6,1.2-0.9,2-0.9c0.3,0,0.6,0.1,0.8,0.1c0.3,0.1,1,0.4,1.3,1.3c0.1,0.4,0.3,0.8,0.3,1.6h-4c0,1,0.4,1.5,0.8,1.7
			c0.3,0.2,0.6,0.3,1,0.3c0.5,0,0.7-0.2,0.9-0.3c0.1,0,0.2-0.2,0.3-0.4c0.1-0.2,0.2-0.5,0.2-0.6l0.9,0.1
			C230.7,108.8,230.6,109.1,230.4,109.4z M229.7,106.6c-0.2-0.7-0.7-1.1-1.4-1.1c-1,0-1.4,0.8-1.5,1.6h3
			C229.7,106.9,229.7,106.7,229.7,106.6z"/>
		<path class="st9" d="M235.2,110.3v-3.4c0-0.2,0-0.7-0.4-1c-0.1-0.1-0.4-0.2-0.8-0.2c-0.4,0-0.7,0.1-1,0.4
			c-0.1,0.1-0.2,0.2-0.3,0.5c-0.1,0.2-0.1,0.5-0.1,0.7v3h-0.9V105h0.9v0.8c0.1-0.2,0.2-0.3,0.3-0.4c0.2-0.2,0.7-0.6,1.4-0.6
			c0.2,0,1,0.1,1.5,0.7c0.4,0.5,0.3,1,0.3,1.6v3.2H235.2z"/>
		<path class="st9" d="M238.7,110.4c-0.5,0-0.8-0.1-0.9-0.3c-0.1-0.2-0.1-0.4-0.1-0.9v-3.5h-0.9V105h0.9v-1.7h0.9v1.7h1v0.7h-1v3.1
			c0,0.4,0,0.6,0.1,0.7c0.1,0.1,0.2,0.2,0.3,0.2c0.1,0,0.3,0,0.6-0.1v0.7C239.5,110.3,239,110.4,238.7,110.4z"/>
		<path class="st9" d="M244.8,109.4c-0.3,0.4-0.9,1.1-2.1,1.1c-0.6,0-0.9-0.1-1.1-0.2c-0.7-0.3-1.5-1-1.5-2.7c0-1,0.3-1.5,0.6-1.9
			c0.5-0.6,1.2-0.9,2-0.9c0.3,0,0.6,0.1,0.8,0.1c0.3,0.1,1,0.4,1.3,1.3c0.1,0.4,0.3,0.8,0.3,1.6h-4c0,1,0.4,1.5,0.8,1.7
			c0.3,0.2,0.6,0.3,1,0.3c0.5,0,0.7-0.2,0.9-0.3c0.1,0,0.2-0.2,0.3-0.4c0.1-0.2,0.2-0.5,0.2-0.6l0.9,0.1
			C245.1,108.8,245,109.1,244.8,109.4z M244.1,106.6c-0.2-0.7-0.7-1.1-1.4-1.1c-1,0-1.4,0.8-1.5,1.6h3
			C244.2,106.9,244.1,106.7,244.1,106.6z"/>
		<path class="st9" d="M250.2,109.6c-0.3,0.4-0.9,0.9-2,0.9c-0.2,0-1,0-1.6-0.4c-0.1-0.1-0.2-0.1-0.4-0.3c-0.4-0.5-0.5-1-0.5-1.2
			l1-0.1c0,0.4,0,0.7,0.3,0.9c0.3,0.4,0.7,0.4,1.2,0.4c0.1,0,0.6,0,1-0.3c0.2-0.2,0.2-0.5,0.2-0.6c0-0.1,0-0.2-0.1-0.4
			c-0.2-0.3-0.7-0.4-1-0.5l-0.5-0.1c-0.7-0.1-1-0.2-1.3-0.4c-0.4-0.3-0.6-0.6-0.6-1.1c0-0.2,0-0.5,0.3-0.9c0.5-0.7,1.6-0.7,1.8-0.7
			c1.1,0,1.7,0.6,2,0.9c0.2,0.3,0.3,0.7,0.3,0.8l-1,0.1c0-0.3,0-0.4-0.1-0.5c-0.1-0.3-0.6-0.7-1.3-0.7c-0.7,0-1.1,0.4-1.1,0.8
			c0,0.1,0,0.2,0.1,0.3c0.2,0.3,0.6,0.4,1.2,0.6l0.5,0.1c0.2,0,0.3,0.1,0.5,0.1c0.7,0.2,1.3,0.6,1.3,1.4
			C250.4,108.9,250.4,109.2,250.2,109.6z"/>
		<path class="st9" d="M180.1,118.9c-0.3,0.1-0.6,0.1-1.2,0.1h-2.3v3.4h-1v-8h3.4c0.6,0,1.2,0,1.7,0.3c0.9,0.6,0.9,1.6,0.9,1.9
			C181.7,117.7,181.2,118.6,180.1,118.9z M180.6,116.1c-0.1-0.4-0.4-0.6-0.8-0.7c-0.2-0.1-0.4-0.1-0.6-0.1h-2.5v2.7h2.2
			c0.3,0,0.6,0,0.9-0.1c0.6-0.2,0.9-0.7,0.9-1.4C180.6,116.5,180.6,116.3,180.6,116.1z"/>
		<path class="st9" d="M186.7,121.5c-0.3,0.4-0.9,1.1-2.1,1.1c-0.6,0-0.9-0.1-1.1-0.2c-0.7-0.3-1.5-1-1.5-2.7c0-1,0.3-1.5,0.6-1.9
			c0.5-0.6,1.2-0.9,2-0.9c0.3,0,0.6,0.1,0.8,0.1c0.3,0.1,1,0.4,1.3,1.3c0.1,0.4,0.3,0.8,0.3,1.6h-4c0,1,0.4,1.5,0.8,1.7
			c0.3,0.2,0.6,0.3,1,0.3c0.5,0,0.7-0.2,0.9-0.3c0.1,0,0.2-0.2,0.3-0.4c0.1-0.2,0.2-0.5,0.2-0.6l0.9,0.1
			C187,120.9,186.9,121.2,186.7,121.5z M186,118.7c-0.2-0.7-0.7-1.1-1.4-1.1c-1,0-1.4,0.8-1.5,1.6h3
			C186.1,118.9,186,118.8,186,118.7z"/>
		<path class="st9" d="M190.1,117.9c-0.5,0.1-0.9,0.5-1.1,1c-0.1,0.3-0.1,0.5-0.1,1v2.5H188V117h0.9v1c0.1-0.2,0.3-0.4,0.5-0.6
			c0.2-0.2,0.6-0.4,1.3-0.4v1C190.4,117.9,190.2,117.9,190.1,117.9z"/>
		<path class="st9" d="M195.4,121.7c-0.3,0.4-0.9,0.9-2,0.9c-0.2,0-1,0-1.6-0.4c-0.1-0.1-0.2-0.1-0.4-0.3c-0.4-0.5-0.5-1-0.5-1.2
			l1-0.1c0,0.4,0,0.7,0.3,0.9c0.3,0.4,0.7,0.4,1.2,0.4c0.1,0,0.6,0,1-0.3c0.2-0.2,0.2-0.5,0.2-0.6c0-0.1,0-0.2-0.1-0.4
			c-0.2-0.3-0.7-0.4-1-0.5l-0.5-0.1c-0.7-0.1-1-0.2-1.3-0.4c-0.4-0.3-0.6-0.6-0.6-1.1c0-0.2,0-0.5,0.3-0.9c0.5-0.7,1.6-0.7,1.8-0.7
			c1.1,0,1.7,0.6,2,0.9c0.2,0.3,0.3,0.7,0.3,0.8l-1,0.1c0-0.3,0-0.4-0.1-0.5c-0.1-0.3-0.6-0.7-1.3-0.7c-0.7,0-1.1,0.4-1.1,0.8
			c0,0.1,0,0.2,0.1,0.3c0.2,0.3,0.6,0.4,1.2,0.6l0.5,0.1c0.2,0,0.3,0.1,0.5,0.1c0.7,0.2,1.3,0.6,1.3,1.4
			C195.6,121,195.6,121.3,195.4,121.7z"/>
		<path class="st9" d="M200.8,121.6c-0.3,0.4-0.9,0.9-2,0.9c-0.3,0-1.2,0-1.8-0.7c-0.3-0.3-0.8-1-0.8-2.1c0-0.7,0.2-1.4,0.6-1.9
			c0.5-0.7,1.2-0.9,2-0.9c0.4,0,0.7,0.1,1.1,0.2c0.6,0.3,1.5,1,1.5,2.6C201.5,120,201.4,120.9,200.8,121.6z M200.2,118.3
			c-0.1-0.1-0.2-0.3-0.3-0.4c-0.4-0.3-0.8-0.3-1-0.3c-1.7,0-1.7,1.9-1.7,2.2c0,0.3,0,0.5,0,0.5c0.1,0.4,0.3,1.5,1.6,1.5
			c0.2,0,0.9-0.1,1.3-0.7c0.3-0.5,0.4-1.3,0.4-1.4C200.5,119.6,200.5,118.9,200.2,118.3z"/>
		<path class="st9" d="M205.9,122.4V119c0-0.2,0-0.7-0.4-1c-0.1-0.1-0.4-0.2-0.8-0.2c-0.4,0-0.7,0.1-1,0.4c-0.1,0.1-0.2,0.2-0.3,0.5
			c-0.1,0.2-0.1,0.5-0.1,0.7v3h-0.9V117h0.9v0.8c0.1-0.2,0.2-0.3,0.3-0.4c0.2-0.2,0.7-0.6,1.4-0.6c0.2,0,1,0.1,1.5,0.7
			c0.4,0.5,0.3,1,0.3,1.6v3.2H205.9z"/>
		<path class="st9" d="M212.3,122.4c0,0-0.4,0-0.6-0.1c-0.1-0.1-0.2-0.2-0.2-0.2c-0.1-0.2-0.2-0.3-0.2-0.5c-0.2,0.3-0.8,0.9-1.8,0.9
			c-0.4,0-0.6-0.1-0.7-0.1c-0.6-0.2-1.1-0.7-1.1-1.4c0-0.2,0.1-0.8,0.6-1.2c0.5-0.4,1.5-0.6,2.2-0.6l0.8-0.1c0-0.1,0-0.3,0-0.4
			c0-0.4-0.1-1.2-1.2-1.2c-0.2,0-0.9,0-1.1,0.6c-0.1,0.2-0.1,0.3-0.1,0.5l-0.9-0.1c0-0.1,0-0.3,0.1-0.5c0.2-0.5,0.7-1.2,2-1.2
			c0.2,0,0.5,0,0.8,0.1c0.2,0.1,0.9,0.3,1.2,1c0.1,0.3,0.1,0.6,0.1,1.1v1.7c0,0.1,0,0.2,0,0.4c0,0.1,0,0.4,0.4,0.4
			c0.1,0,0.2,0,0.3,0v0.8C212.6,122.4,212.4,122.4,212.3,122.4z M211.3,119.9v-0.1c-0.4,0.1-1.5,0.2-1.9,0.4
			c-0.2,0.1-0.7,0.3-0.7,0.8c0,0.4,0.3,0.8,1,0.8c0.5,0,1.6-0.2,1.6-1.6C211.3,120.1,211.3,120,211.3,119.9z"/>
		<path class="st9" d="M213.5,122.4v-8h0.9v8H213.5z"/>
		<path class="st9" d="M220,121.5c-0.3,0.4-0.9,1.1-2.1,1.1c-0.6,0-0.9-0.1-1.1-0.2c-0.7-0.3-1.5-1-1.5-2.7c0-1,0.3-1.5,0.6-1.9
			c0.5-0.6,1.2-0.9,2-0.9c0.3,0,0.6,0.1,0.8,0.1c0.3,0.1,1,0.4,1.3,1.3c0.1,0.4,0.3,0.8,0.3,1.6h-4c0,1,0.4,1.5,0.8,1.7
			c0.3,0.2,0.6,0.3,1,0.3c0.5,0,0.7-0.2,0.9-0.3c0.1,0,0.2-0.2,0.3-0.4c0.1-0.2,0.2-0.5,0.2-0.6l0.9,0.1
			C220.3,120.9,220.2,121.2,220,121.5z M219.3,118.7c-0.2-0.7-0.7-1.1-1.4-1.1c-1,0-1.4,0.8-1.5,1.6h3
			C219.4,118.9,219.3,118.8,219.3,118.7z"/>
		<path class="st9" d="M225.4,121.7c-0.3,0.4-0.9,0.9-2,0.9c-0.2,0-1,0-1.6-0.4c-0.1-0.1-0.2-0.1-0.4-0.3c-0.4-0.5-0.5-1-0.5-1.2
			l1-0.1c0,0.4,0,0.7,0.3,0.9c0.3,0.4,0.7,0.4,1.2,0.4c0.1,0,0.6,0,1-0.3c0.2-0.2,0.2-0.5,0.2-0.6c0-0.1,0-0.2-0.1-0.4
			c-0.2-0.3-0.7-0.4-1-0.5l-0.5-0.1c-0.7-0.1-1-0.2-1.3-0.4c-0.4-0.3-0.6-0.6-0.6-1.1c0-0.2,0-0.5,0.3-0.9c0.5-0.7,1.6-0.7,1.8-0.7
			c1.1,0,1.7,0.6,2,0.9c0.2,0.3,0.3,0.7,0.3,0.8l-1,0.1c0-0.3,0-0.4-0.1-0.5c-0.1-0.3-0.6-0.7-1.3-0.7c-0.7,0-1.1,0.4-1.1,0.8
			c0,0.1,0,0.2,0.1,0.3c0.2,0.3,0.6,0.4,1.2,0.6l0.5,0.1c0.2,0,0.3,0.1,0.5,0.1c0.7,0.2,1.3,0.6,1.3,1.4
			C225.6,121,225.6,121.3,225.4,121.7z"/>
	</g>
	<g>
		<path class="st9" d="M167.2,150.7l-0.9-2.4h-3l-0.9,2.4h-1.1l3-8h1.1l2.9,8H167.2z M164.9,144l-1.2,3.3h2.4L164.9,144z"/>
		<path class="st9" d="M173.1,150c-0.3,0.4-0.9,0.9-2,0.9c-0.2,0-1,0-1.6-0.4c-0.1-0.1-0.2-0.1-0.4-0.3c-0.4-0.5-0.5-1-0.5-1.2
			l1-0.1c0,0.4,0,0.7,0.3,0.9c0.3,0.4,0.7,0.4,1.2,0.4c0.1,0,0.6,0,1-0.3c0.2-0.2,0.2-0.5,0.2-0.6c0-0.1,0-0.2-0.1-0.4
			c-0.2-0.3-0.7-0.4-1-0.5l-0.5-0.1c-0.7-0.1-1-0.2-1.3-0.4c-0.4-0.3-0.6-0.6-0.6-1.1c0-0.2,0-0.5,0.3-0.9c0.5-0.7,1.6-0.7,1.8-0.7
			c1.1,0,1.7,0.6,2,0.9c0.2,0.3,0.3,0.7,0.3,0.8l-1,0.1c0-0.3,0-0.4-0.1-0.5c-0.1-0.3-0.6-0.7-1.3-0.7c-0.7,0-1.1,0.4-1.1,0.8
			c0,0.1,0,0.2,0.1,0.3c0.2,0.3,0.6,0.4,1.2,0.6l0.5,0.1c0.2,0,0.3,0.1,0.5,0.1c0.7,0.2,1.3,0.6,1.3,1.4
			C173.3,149.3,173.3,149.6,173.1,150z"/>
		<path class="st9" d="M174.2,143.7v-1h0.9v1H174.2z M174.2,150.7v-5.3h0.9v5.3H174.2z"/>
		<path class="st9" d="M180.4,150c-0.3,0.4-0.9,0.9-2,0.9c-0.2,0-1,0-1.6-0.4c-0.1-0.1-0.2-0.1-0.4-0.3c-0.4-0.5-0.5-1-0.5-1.2
			l1-0.1c0,0.4,0,0.7,0.3,0.9c0.3,0.4,0.7,0.4,1.2,0.4c0.1,0,0.6,0,1-0.3c0.2-0.2,0.2-0.5,0.2-0.6c0-0.1,0-0.2-0.1-0.4
			c-0.2-0.3-0.7-0.4-1-0.5l-0.5-0.1c-0.7-0.1-1-0.2-1.3-0.4c-0.4-0.3-0.6-0.6-0.6-1.1c0-0.2,0-0.5,0.3-0.9c0.5-0.7,1.6-0.7,1.8-0.7
			c1.1,0,1.7,0.6,2,0.9c0.2,0.3,0.3,0.7,0.3,0.8l-1,0.1c0-0.3,0-0.4-0.1-0.5c-0.1-0.3-0.6-0.7-1.3-0.7c-0.7,0-1.1,0.4-1.1,0.8
			c0,0.1,0,0.2,0.1,0.3c0.2,0.3,0.6,0.4,1.2,0.6l0.5,0.1c0.2,0,0.3,0.1,0.5,0.1c0.7,0.2,1.3,0.6,1.3,1.4
			C180.6,149.3,180.6,149.6,180.4,150z"/>
		<path class="st9" d="M182.8,150.8c-0.5,0-0.8-0.1-0.9-0.3c-0.1-0.2-0.1-0.4-0.1-0.9v-3.5h-0.9v-0.7h0.9v-1.7h0.9v1.7h1v0.7h-1v3.1
			c0,0.4,0,0.6,0.1,0.7c0.1,0.1,0.2,0.2,0.3,0.2c0.1,0,0.3,0,0.6-0.1v0.7C183.6,150.7,183.2,150.8,182.8,150.8z"/>
		<path class="st9" d="M189,149.8c-0.3,0.4-0.9,1.1-2.1,1.1c-0.6,0-0.9-0.1-1.1-0.2c-0.7-0.3-1.5-1-1.5-2.7c0-1,0.3-1.5,0.6-1.9
			c0.5-0.6,1.2-0.9,2-0.9c0.3,0,0.6,0.1,0.8,0.1c0.3,0.1,1,0.4,1.3,1.3c0.1,0.4,0.3,0.8,0.3,1.6h-4c0,1,0.4,1.5,0.8,1.7
			c0.3,0.2,0.6,0.3,1,0.3c0.5,0,0.7-0.2,0.9-0.3c0.1,0,0.2-0.2,0.3-0.4c0.1-0.2,0.2-0.5,0.2-0.6l0.9,0.1
			C189.3,149.2,189.2,149.5,189,149.8z M188.2,147c-0.2-0.7-0.7-1.1-1.4-1.1c-1,0-1.4,0.8-1.5,1.6h3
			C188.3,147.3,188.3,147.1,188.2,147z"/>
		<path class="st9" d="M193.8,150.7v-3.4c0-0.2,0-0.7-0.4-1c-0.1-0.1-0.4-0.2-0.8-0.2c-0.4,0-0.7,0.1-1,0.4
			c-0.1,0.1-0.2,0.2-0.3,0.5c-0.1,0.2-0.1,0.5-0.1,0.7v3h-0.9v-5.3h0.9v0.8c0.1-0.2,0.2-0.3,0.3-0.4c0.2-0.2,0.7-0.6,1.4-0.6
			c0.2,0,1,0.1,1.5,0.7c0.4,0.5,0.3,1,0.3,1.6v3.2H193.8z"/>
		<path class="st9" d="M199.9,150.4c-0.6,0.5-1.4,0.5-1.6,0.5c-0.2,0-0.6,0-1-0.2c-0.6-0.2-1.6-0.9-1.6-2.6c0-1.7,0.9-2.5,1.6-2.7
			c0.4-0.2,0.8-0.2,1-0.2c1.4,0,2.1,0.8,2.3,1.3c0.1,0.2,0.1,0.3,0.1,0.5l-1,0.1c0-0.1-0.1-0.4-0.2-0.6c-0.4-0.6-1-0.6-1.2-0.6
			c-0.8,0-1.6,0.5-1.6,2.2c0,0.9,0.3,1.5,0.6,1.8c0.3,0.3,0.7,0.4,1.1,0.4c0.2,0,0.5,0,0.7-0.1c0.6-0.3,0.7-0.8,0.8-1.3l1,0.1
			C200.6,149.7,200.2,150.2,199.9,150.4z"/>
		<path class="st9" d="M201.6,143.7v-1h0.9v1H201.6z M201.6,150.7v-5.3h0.9v5.3H201.6z"/>
		<path class="st9" d="M207.9,150.7c0,0-0.4,0-0.6-0.1c-0.1-0.1-0.2-0.2-0.2-0.2c-0.1-0.2-0.2-0.3-0.2-0.5c-0.2,0.3-0.8,0.9-1.8,0.9
			c-0.4,0-0.6-0.1-0.7-0.1c-0.6-0.2-1.1-0.7-1.1-1.4c0-0.2,0.1-0.8,0.6-1.2c0.5-0.4,1.5-0.6,2.2-0.6l0.8-0.1c0-0.1,0-0.3,0-0.4
			c0-0.4-0.1-1.2-1.2-1.2c-0.2,0-0.9,0-1.1,0.6c-0.1,0.2-0.1,0.3-0.1,0.5l-0.9-0.1c0-0.1,0-0.3,0.1-0.5c0.2-0.5,0.7-1.2,2-1.2
			c0.2,0,0.5,0,0.8,0.1c0.2,0.1,0.9,0.3,1.2,1c0.1,0.3,0.1,0.6,0.1,1.1v1.7c0,0.1,0,0.2,0,0.4c0,0.1,0,0.4,0.4,0.4
			c0.1,0,0.2,0,0.3,0v0.8C208.2,150.7,208,150.7,207.9,150.7z M206.9,148.2v-0.1c-0.4,0.1-1.5,0.2-1.9,0.4c-0.2,0.1-0.7,0.3-0.7,0.8
			c0,0.4,0.3,0.8,1,0.8c0.5,0,1.6-0.2,1.6-1.6C206.9,148.4,206.9,148.3,206.9,148.2z"/>
		<path class="st9" d="M213.2,150c-0.3,0.4-0.9,0.9-2,0.9c-0.2,0-1,0-1.6-0.4c-0.1-0.1-0.2-0.1-0.4-0.3c-0.4-0.5-0.5-1-0.5-1.2
			l1-0.1c0,0.4,0,0.7,0.3,0.9c0.3,0.4,0.7,0.4,1.2,0.4c0.1,0,0.6,0,1-0.3c0.2-0.2,0.2-0.5,0.2-0.6c0-0.1,0-0.2-0.1-0.4
			c-0.2-0.3-0.7-0.4-1-0.5l-0.5-0.1c-0.7-0.1-1-0.2-1.3-0.4c-0.4-0.3-0.6-0.6-0.6-1.1c0-0.2,0-0.5,0.3-0.9c0.5-0.7,1.6-0.7,1.8-0.7
			c1.1,0,1.7,0.6,2,0.9c0.2,0.3,0.3,0.7,0.3,0.8l-1,0.1c0-0.3,0-0.4-0.1-0.5c-0.1-0.3-0.6-0.7-1.3-0.7c-0.7,0-1.1,0.4-1.1,0.8
			c0,0.1,0,0.2,0.1,0.3c0.2,0.3,0.6,0.4,1.2,0.6l0.5,0.1c0.2,0,0.3,0.1,0.5,0.1c0.7,0.2,1.3,0.6,1.3,1.4
			C213.5,149.3,213.4,149.6,213.2,150z"/>
		<path class="st9" d="M221.8,147.2c-0.3,0.1-0.6,0.1-1.2,0.1h-2.3v3.4h-1v-8h3.4c0.6,0,1.2,0,1.7,0.3c0.9,0.6,1,1.6,1,1.9
			C223.4,146,222.9,146.9,221.8,147.2z M222.3,144.4c-0.1-0.4-0.4-0.6-0.8-0.7c-0.2-0.1-0.4-0.1-0.6-0.1h-2.5v2.7h2.2
			c0.3,0,0.6,0,0.9-0.1c0.6-0.2,0.9-0.7,0.9-1.4C222.3,144.8,222.3,144.6,222.3,144.4z"/>
		<path class="st9" d="M224,150.7v-8h0.9v8H224z"/>
		<path class="st9" d="M230.3,150.7c0,0-0.4,0-0.6-0.1c-0.1-0.1-0.2-0.2-0.2-0.2c-0.1-0.2-0.2-0.3-0.2-0.5c-0.2,0.3-0.8,0.9-1.8,0.9
			c-0.4,0-0.6-0.1-0.7-0.1c-0.6-0.2-1.1-0.7-1.1-1.4c0-0.2,0.1-0.8,0.6-1.2c0.5-0.4,1.5-0.6,2.2-0.6l0.8-0.1c0-0.1,0-0.3,0-0.4
			c0-0.4-0.1-1.2-1.2-1.2c-0.2,0-0.9,0-1.1,0.6c-0.1,0.2-0.1,0.3-0.1,0.5l-0.9-0.1c0-0.1,0-0.3,0.1-0.5c0.2-0.5,0.7-1.2,2-1.2
			c0.2,0,0.5,0,0.8,0.1c0.2,0.1,0.9,0.3,1.2,1c0.1,0.3,0.1,0.6,0.1,1.1v1.7c0,0.1,0,0.2,0,0.4c0,0.1,0,0.4,0.4,0.4
			c0.1,0,0.2,0,0.3,0v0.8C230.6,150.7,230.5,150.7,230.3,150.7z M229.3,148.2v-0.1c-0.4,0.1-1.5,0.2-1.9,0.4
			c-0.2,0.1-0.7,0.3-0.7,0.8c0,0.4,0.3,0.8,1,0.8c0.5,0,1.6-0.2,1.6-1.6C229.3,148.4,229.3,148.3,229.3,148.2z"/>
		<path class="st9" d="M232.9,150.8c-0.5,0-0.8-0.1-0.9-0.3c-0.1-0.2-0.1-0.4-0.1-0.9v-3.5H231v-0.7h0.9v-1.7h0.9v1.7h1v0.7h-1v3.1
			c0,0.4,0,0.6,0.1,0.7c0.1,0.1,0.2,0.2,0.3,0.2c0.1,0,0.3,0,0.6-0.1v0.7C233.7,150.7,233.3,150.8,232.9,150.8z"/>
		<path class="st9" d="M238.8,150.7c0,0-0.4,0-0.6-0.1c-0.1-0.1-0.2-0.2-0.2-0.2c-0.1-0.2-0.2-0.3-0.2-0.5c-0.2,0.3-0.8,0.9-1.8,0.9
			c-0.4,0-0.6-0.1-0.7-0.1c-0.6-0.2-1.1-0.7-1.1-1.4c0-0.2,0.1-0.8,0.6-1.2c0.5-0.4,1.5-0.6,2.2-0.6l0.8-0.1c0-0.1,0-0.3,0-0.4
			c0-0.4-0.1-1.2-1.2-1.2c-0.2,0-0.9,0-1.1,0.6c-0.1,0.2-0.1,0.3-0.1,0.5l-0.9-0.1c0-0.1,0-0.3,0.1-0.5c0.2-0.5,0.7-1.2,2-1.2
			c0.2,0,0.5,0,0.8,0.1c0.2,0.1,0.9,0.3,1.2,1c0.1,0.3,0.1,0.6,0.1,1.1v1.7c0,0.1,0,0.2,0,0.4c0,0.1,0,0.4,0.4,0.4
			c0.1,0,0.2,0,0.3,0v0.8C239.1,150.7,239,150.7,238.8,150.7z M237.8,148.2v-0.1c-0.4,0.1-1.5,0.2-1.9,0.4c-0.2,0.1-0.7,0.3-0.7,0.8
			c0,0.4,0.3,0.8,1,0.8c0.5,0,1.6-0.2,1.6-1.6C237.8,148.4,237.8,148.3,237.8,148.2z"/>
	</g>
	<g>
		<path class="st9" d="M292.7,150.7l-0.9-2.4h-3l-0.9,2.4h-1.1l3-8h1.1l2.9,8H292.7z M290.3,144l-1.2,3.3h2.4L290.3,144z"/>
		<path class="st9" d="M298.5,150c-0.3,0.4-0.9,0.9-2,0.9c-0.2,0-1,0-1.6-0.4c-0.1-0.1-0.2-0.1-0.4-0.3c-0.4-0.5-0.5-1-0.5-1.2
			l1-0.1c0,0.4,0,0.7,0.3,0.9c0.3,0.4,0.7,0.4,1.2,0.4c0.1,0,0.6,0,1-0.3c0.2-0.2,0.2-0.5,0.2-0.6c0-0.1,0-0.2-0.1-0.4
			c-0.2-0.3-0.7-0.4-1-0.5l-0.5-0.1c-0.7-0.1-1-0.2-1.3-0.4c-0.4-0.3-0.6-0.6-0.6-1.1c0-0.2,0-0.5,0.3-0.9c0.5-0.7,1.6-0.7,1.8-0.7
			c1.1,0,1.7,0.6,2,0.9c0.2,0.3,0.3,0.7,0.3,0.8l-1,0.1c0-0.3,0-0.4-0.1-0.5c-0.1-0.3-0.6-0.7-1.3-0.7c-0.7,0-1.1,0.4-1.1,0.8
			c0,0.1,0,0.2,0.1,0.3c0.2,0.3,0.6,0.4,1.2,0.6l0.5,0.1c0.2,0,0.3,0.1,0.5,0.1c0.7,0.2,1.3,0.6,1.3,1.4
			C298.8,149.3,298.7,149.6,298.5,150z"/>
		<path class="st9" d="M299.7,143.7v-1h0.9v1H299.7z M299.7,150.7v-5.3h0.9v5.3H299.7z"/>
		<path class="st9" d="M305.8,150c-0.3,0.4-0.9,0.9-2,0.9c-0.2,0-1,0-1.6-0.4c-0.1-0.1-0.2-0.1-0.4-0.3c-0.4-0.5-0.5-1-0.5-1.2
			l1-0.1c0,0.4,0,0.7,0.3,0.9c0.3,0.4,0.7,0.4,1.2,0.4c0.1,0,0.6,0,1-0.3c0.2-0.2,0.2-0.5,0.2-0.6c0-0.1,0-0.2-0.1-0.4
			c-0.2-0.3-0.7-0.4-1-0.5l-0.5-0.1c-0.7-0.1-1-0.2-1.3-0.4c-0.4-0.3-0.6-0.6-0.6-1.1c0-0.2,0-0.5,0.3-0.9c0.5-0.7,1.6-0.7,1.8-0.7
			c1.1,0,1.7,0.6,2,0.9c0.2,0.3,0.3,0.7,0.3,0.8l-1,0.1c0-0.3,0-0.4-0.1-0.5c-0.1-0.3-0.6-0.7-1.3-0.7c-0.7,0-1.1,0.4-1.1,0.8
			c0,0.1,0,0.2,0.1,0.3c0.2,0.3,0.6,0.4,1.2,0.6l0.5,0.1c0.2,0,0.3,0.1,0.5,0.1c0.7,0.2,1.3,0.6,1.3,1.4
			C306.1,149.3,306.1,149.6,305.8,150z"/>
		<path class="st9" d="M308.3,150.8c-0.5,0-0.8-0.1-0.9-0.3c-0.1-0.2-0.1-0.4-0.1-0.9v-3.5h-0.9v-0.7h0.9v-1.7h0.9v1.7h1v0.7h-1v3.1
			c0,0.4,0,0.6,0.1,0.7c0.1,0.1,0.2,0.2,0.3,0.2c0.1,0,0.3,0,0.6-0.1v0.7C309.1,150.7,308.6,150.8,308.3,150.8z"/>
		<path class="st9" d="M314.4,149.8c-0.3,0.4-0.9,1.1-2.1,1.1c-0.6,0-0.9-0.1-1.1-0.2c-0.7-0.3-1.5-1-1.5-2.7c0-1,0.3-1.5,0.6-1.9
			c0.5-0.6,1.2-0.9,2-0.9c0.3,0,0.6,0.1,0.8,0.1c0.3,0.1,1,0.4,1.3,1.3c0.1,0.4,0.3,0.8,0.3,1.6h-4c0,1,0.4,1.5,0.8,1.7
			c0.3,0.2,0.6,0.3,1,0.3c0.5,0,0.7-0.2,0.9-0.3c0.1,0,0.2-0.2,0.3-0.4c0.1-0.2,0.2-0.5,0.2-0.6l0.9,0.1
			C314.7,149.2,314.6,149.5,314.4,149.8z M313.7,147c-0.2-0.7-0.7-1.1-1.4-1.1c-1,0-1.4,0.8-1.5,1.6h3
			C313.8,147.3,313.7,147.1,313.7,147z"/>
		<path class="st9" d="M319.2,150.7v-3.4c0-0.2,0-0.7-0.4-1c-0.1-0.1-0.4-0.2-0.8-0.2c-0.4,0-0.7,0.1-1,0.4
			c-0.1,0.1-0.2,0.2-0.3,0.5c-0.1,0.2-0.1,0.5-0.1,0.7v3h-0.9v-5.3h0.9v0.8c0.1-0.2,0.2-0.3,0.3-0.4c0.2-0.2,0.7-0.6,1.4-0.6
			c0.2,0,1,0.1,1.5,0.7c0.4,0.5,0.3,1,0.3,1.6v3.2H319.2z"/>
		<path class="st9" d="M325.3,150.4c-0.6,0.5-1.4,0.5-1.6,0.5c-0.2,0-0.6,0-1-0.2c-0.6-0.2-1.6-0.9-1.6-2.6c0-1.7,0.9-2.5,1.6-2.7
			c0.4-0.2,0.8-0.2,1-0.2c1.4,0,2.1,0.8,2.3,1.3c0.1,0.2,0.1,0.3,0.1,0.5l-1,0.1c0-0.1-0.1-0.4-0.2-0.6c-0.4-0.6-1-0.6-1.2-0.6
			c-0.8,0-1.6,0.5-1.6,2.2c0,0.9,0.3,1.5,0.6,1.8c0.3,0.3,0.7,0.4,1.1,0.4c0.2,0,0.5,0,0.7-0.1c0.6-0.3,0.7-0.8,0.8-1.3l1,0.1
			C326.1,149.7,325.6,150.2,325.3,150.4z"/>
		<path class="st9" d="M327.1,143.7v-1h0.9v1H327.1z M327.1,150.7v-5.3h0.9v5.3H327.1z"/>
		<path class="st9" d="M333.3,150.7c0,0-0.4,0-0.6-0.1c-0.1-0.1-0.2-0.2-0.2-0.2c-0.1-0.2-0.2-0.3-0.2-0.5c-0.2,0.3-0.8,0.9-1.8,0.9
			c-0.4,0-0.6-0.1-0.7-0.1c-0.6-0.2-1.1-0.7-1.1-1.4c0-0.2,0.1-0.8,0.6-1.2c0.5-0.4,1.5-0.6,2.2-0.6l0.8-0.1c0-0.1,0-0.3,0-0.4
			c0-0.4-0.1-1.2-1.2-1.2c-0.2,0-0.9,0-1.1,0.6c-0.1,0.2-0.1,0.3-0.1,0.5l-0.9-0.1c0-0.1,0-0.3,0.1-0.5c0.2-0.5,0.7-1.2,2-1.2
			c0.2,0,0.5,0,0.8,0.1c0.2,0.1,0.9,0.3,1.2,1c0.1,0.3,0.1,0.6,0.1,1.1v1.7c0,0.1,0,0.2,0,0.4c0,0.1,0,0.4,0.4,0.4
			c0.1,0,0.2,0,0.3,0v0.8C333.7,150.7,333.5,150.7,333.3,150.7z M332.3,148.2v-0.1c-0.4,0.1-1.5,0.2-1.9,0.4
			c-0.2,0.1-0.7,0.3-0.7,0.8c0,0.4,0.3,0.8,1,0.8c0.5,0,1.6-0.2,1.6-1.6C332.4,148.4,332.3,148.3,332.3,148.2z"/>
		<path class="st9" d="M338.7,150c-0.3,0.4-0.9,0.9-2,0.9c-0.2,0-1,0-1.6-0.4c-0.1-0.1-0.2-0.1-0.4-0.3c-0.4-0.5-0.5-1-0.5-1.2
			l1-0.1c0,0.4,0,0.7,0.3,0.9c0.3,0.4,0.7,0.4,1.2,0.4c0.1,0,0.6,0,1-0.3c0.2-0.2,0.2-0.5,0.2-0.6c0-0.1,0-0.2-0.1-0.4
			c-0.2-0.3-0.7-0.4-1-0.5l-0.5-0.1c-0.7-0.1-1-0.2-1.3-0.4c-0.4-0.3-0.6-0.6-0.6-1.1c0-0.2,0-0.5,0.3-0.9c0.5-0.7,1.6-0.7,1.8-0.7
			c1.1,0,1.7,0.6,2,0.9c0.2,0.3,0.3,0.7,0.3,0.8l-1,0.1c0-0.3,0-0.4-0.1-0.5c-0.1-0.3-0.6-0.7-1.3-0.7c-0.7,0-1.1,0.4-1.1,0.8
			c0,0.1,0,0.2,0.1,0.3c0.2,0.3,0.6,0.4,1.2,0.6l0.5,0.1c0.2,0,0.3,0.1,0.5,0.1c0.7,0.2,1.3,0.6,1.3,1.4
			C338.9,149.3,338.9,149.6,338.7,150z"/>
		<path class="st9" d="M349.7,149.4c-0.4,0.6-1.4,1.5-3.2,1.5c-0.5,0-1.7-0.1-2.7-1c-0.5-0.5-1.2-1.5-1.2-3.2c0-0.5,0-1.8,1-2.9
			c0.8-0.8,1.9-1.3,3-1.3c0.5,0,1.1,0.1,1.6,0.3c1.7,0.6,2.4,2.1,2.4,3.8C350.5,147,350.5,148.3,349.7,149.4z M348.7,144.4
			c-0.7-1-1.8-1.1-2.2-1.1c-1.3,0-2,0.7-2.3,1.1c-0.4,0.6-0.6,1.5-0.6,2.2c0,1.1,0.3,1.8,0.5,2.1c0.2,0.3,0.4,0.5,0.5,0.6
			c0.3,0.3,0.6,0.4,0.8,0.5c0.2,0.1,0.5,0.2,1.1,0.2c0.2,0,0.7,0,1.2-0.2c0.8-0.3,1.6-1.3,1.6-3.2
			C349.4,146.3,349.4,145.3,348.7,144.4z"/>
		<path class="st9" d="M353.6,146.3c-0.5,0.1-0.9,0.5-1.1,1c-0.1,0.3-0.1,0.5-0.1,1v2.5h-0.9v-5.3h0.9v1c0.1-0.2,0.3-0.4,0.5-0.6
			c0.2-0.2,0.6-0.4,1.3-0.4v1C354,146.2,353.8,146.2,353.6,146.3z"/>
		<path class="st9" d="M359.2,150c-0.3,0.4-0.9,0.9-2,0.9c-0.3,0-1.2,0-1.8-0.7c-0.3-0.3-0.8-1-0.8-2.1c0-0.7,0.2-1.4,0.6-1.9
			c0.5-0.7,1.2-0.9,2-0.9c0.4,0,0.7,0.1,1.1,0.2c0.6,0.3,1.5,1,1.5,2.6C359.8,148.3,359.8,149.2,359.2,150z M358.6,146.7
			c-0.1-0.1-0.2-0.3-0.3-0.4c-0.4-0.3-0.8-0.3-1-0.3c-1.7,0-1.7,1.9-1.7,2.2c0,0.3,0,0.5,0,0.5c0.1,0.4,0.3,1.5,1.6,1.5
			c0.2,0,0.9-0.1,1.3-0.7c0.3-0.5,0.4-1.3,0.4-1.4C358.9,147.9,358.9,147.2,358.6,146.7z"/>
	</g>
	<g>
		<path class="st9" d="M279.8,109.6c-0.4,0.4-1.2,0.9-2.5,0.9c-0.3,0-1.3,0-2.2-0.6c-0.2-0.2-0.5-0.4-0.6-0.6
			c-0.5-0.6-0.5-1.4-0.6-1.6l1.1-0.1c0,0.2,0,0.9,0.5,1.4c0.3,0.3,0.8,0.6,1.8,0.6c0.1,0,0.4,0,0.7-0.1c0.3-0.1,1.3-0.4,1.3-1.5
			c0-0.5-0.2-0.8-0.4-0.9c-0.3-0.2-0.7-0.3-1.1-0.4l-0.7-0.1c-0.6-0.1-1.2-0.3-1.8-0.6c-1-0.5-1.1-1.2-1.1-1.7
			c0-0.6,0.3-1.2,0.8-1.6c0.8-0.7,1.8-0.7,2.1-0.7c0.8,0,1.5,0.1,2.1,0.6c0.4,0.3,0.6,0.6,0.6,0.7c0.2,0.4,0.3,0.7,0.4,1.1l-1.1,0.1
			c0-0.2,0-0.3-0.1-0.5c-0.2-0.6-0.7-1.2-2-1.2c-0.5,0-1.2,0.1-1.5,0.5c-0.2,0.2-0.3,0.5-0.3,0.7c0,0.1,0,0.4,0.2,0.6
			c0.3,0.4,0.9,0.5,1.4,0.7l0.9,0.2c0.2,0,0.4,0.1,0.6,0.2c0.2,0.1,1.2,0.3,1.7,1.1c0.1,0.2,0.3,0.5,0.3,1.1
			C280.5,108.3,280.4,109,279.8,109.6z"/>
		<path class="st9" d="M285.9,109.4c-0.3,0.4-0.9,1.1-2.1,1.1c-0.6,0-0.9-0.1-1.1-0.2c-0.7-0.3-1.5-1-1.5-2.7c0-1,0.3-1.5,0.6-1.9
			c0.5-0.6,1.2-0.9,2-0.9c0.3,0,0.6,0.1,0.8,0.1c0.3,0.1,1,0.4,1.3,1.3c0.1,0.4,0.3,0.8,0.3,1.6h-4c0,1,0.4,1.5,0.8,1.7
			c0.3,0.2,0.6,0.3,1,0.3c0.5,0,0.7-0.2,0.9-0.3c0.1,0,0.2-0.2,0.3-0.4c0.1-0.2,0.2-0.5,0.2-0.6l0.9,0.1
			C286.2,108.8,286.1,109.1,285.9,109.4z M285.2,106.6c-0.2-0.7-0.7-1.1-1.4-1.1c-1,0-1.4,0.8-1.5,1.6h3
			C285.3,106.9,285.2,106.7,285.2,106.6z"/>
		<path class="st9" d="M292,111.4c-0.3,1-1.1,1.3-1.4,1.4c-0.2,0-0.5,0.1-0.9,0.1c-0.2,0-0.5,0-0.9-0.1c-1.3-0.4-1.5-1.4-1.5-1.9h1
			c0,0.1,0,0.4,0.2,0.7c0.4,0.5,1.1,0.5,1.2,0.5c0.1,0,0.9,0,1.3-0.5c0.2-0.3,0.2-0.7,0.2-1.5l0-0.6c-0.6,0.8-1.3,0.9-1.7,0.9
			c-0.5,0-1-0.2-1.1-0.3c-0.6-0.3-1.3-1-1.3-2.5c0-0.2,0-1.2,0.6-1.9c0.5-0.6,1-0.9,1.9-0.9c0.1,0,0.4,0,0.7,0.1
			c0.2,0.1,0.6,0.3,1,0.8V105h0.9v5C292.1,110.7,292.1,111,292,111.4z M291.1,106.7c-0.2-0.7-0.9-1.1-1.6-1.1
			c-0.2,0-0.5,0.1-0.7,0.2c-0.4,0.2-0.9,0.8-0.9,1.9c0,0.6,0.1,1.3,0.7,1.7c0.3,0.2,0.6,0.3,1,0.3c0.5,0,0.8-0.2,1-0.4
			c0.3-0.3,0.6-0.8,0.6-1.7C291.2,107.4,291.2,107.1,291.1,106.7z"/>
		<path class="st9" d="M296.9,110.3l0-0.8c0,0.1-0.1,0.1-0.2,0.3c-0.4,0.4-1,0.7-1.6,0.7c-0.2,0-1,0-1.4-0.7
			c-0.3-0.5-0.3-1.1-0.3-1.6V105h0.9v3c0,0.6,0,0.8,0.1,1.1c0.1,0.2,0.4,0.5,1,0.5c0.2,0,0.9,0,1.3-0.6c0.3-0.4,0.3-0.9,0.3-1.3V105
			h0.9v5.3H296.9z"/>
		<path class="st9" d="M301.1,105.9c-0.5,0.1-0.9,0.5-1.1,1c-0.1,0.3-0.1,0.5-0.1,1v2.5H299V105h0.9v1c0.1-0.2,0.3-0.4,0.5-0.6
			c0.2-0.2,0.6-0.4,1.3-0.4v1C301.4,105.8,301.2,105.8,301.1,105.9z"/>
		<path class="st9" d="M306.7,109.6c-0.3,0.4-0.9,0.9-2,0.9c-0.3,0-1.2,0-1.8-0.7c-0.3-0.3-0.8-1-0.8-2.1c0-0.7,0.2-1.4,0.6-1.9
			c0.5-0.7,1.2-0.9,2-0.9c0.4,0,0.7,0.1,1.1,0.2c0.6,0.3,1.5,1,1.5,2.6C307.3,107.9,307.2,108.8,306.7,109.6z M306,106.3
			c-0.1-0.1-0.2-0.3-0.3-0.4c-0.4-0.3-0.8-0.3-1-0.3c-1.7,0-1.7,1.9-1.7,2.2c0,0.3,0,0.5,0,0.5c0.1,0.4,0.3,1.5,1.6,1.5
			c0.2,0,0.9-0.1,1.3-0.7c0.3-0.5,0.4-1.3,0.4-1.4C306.3,107.5,306.3,106.8,306,106.3z"/>
		<path class="st9" d="M315.1,110.3v-0.7c-0.3,0.3-0.8,0.8-1.8,0.8c-1,0-1.5-0.5-1.8-0.8c-0.3-0.4-0.7-1-0.7-2
			c0-0.7,0.1-1.3,0.5-1.9c0.2-0.3,0.8-1,1.9-1c0.8,0,1.3,0.4,1.5,0.5c0.1,0.1,0.2,0.2,0.3,0.3v-3.4h0.9v8H315.1z M315,106.9
			c-0.2-0.8-0.8-1.3-1.6-1.3c-0.2,0-0.8,0-1.2,0.6c-0.4,0.4-0.5,0.9-0.5,1.5c0,0.2,0,0.9,0.4,1.4c0.4,0.6,1,0.6,1.3,0.6
			c0.3,0,0.6-0.1,0.9-0.2c0.4-0.2,0.8-0.8,0.8-1.8C315.1,107.5,315.1,107.2,315,106.9z"/>
		<path class="st9" d="M321.6,109.4c-0.3,0.4-0.9,1.1-2.1,1.1c-0.6,0-0.9-0.1-1.1-0.2c-0.7-0.3-1.5-1-1.5-2.7c0-1,0.3-1.5,0.6-1.9
			c0.5-0.6,1.2-0.9,2-0.9c0.3,0,0.6,0.1,0.8,0.1c0.3,0.1,1,0.4,1.3,1.3c0.1,0.4,0.3,0.8,0.3,1.6h-4c0,1,0.4,1.5,0.8,1.7
			c0.3,0.2,0.6,0.3,1,0.3c0.5,0,0.7-0.2,0.9-0.3c0.1,0,0.2-0.2,0.3-0.4c0.1-0.2,0.2-0.5,0.2-0.6l0.9,0.1
			C321.9,108.8,321.8,109.1,321.6,109.4z M320.9,106.6c-0.2-0.7-0.7-1.1-1.4-1.1c-1,0-1.4,0.8-1.5,1.6h3
			C320.9,106.9,320.9,106.7,320.9,106.6z"/>
		<path class="st9" d="M331,110.3l-0.9-2.4h-3l-0.9,2.4h-1.1l3-8h1.1l2.9,8H331z M328.7,103.6l-1.2,3.3h2.4L328.7,103.6z"/>
		<path class="st9" d="M336.8,110c-0.6,0.5-1.4,0.5-1.6,0.5c-0.2,0-0.6,0-1-0.2c-0.6-0.2-1.6-0.9-1.6-2.6c0-1.7,0.9-2.5,1.6-2.7
			c0.4-0.2,0.8-0.2,1-0.2c1.4,0,2.1,0.8,2.3,1.3c0.1,0.2,0.1,0.3,0.1,0.5l-1,0.1c0-0.1-0.1-0.4-0.2-0.6c-0.4-0.6-1-0.6-1.2-0.6
			c-0.8,0-1.6,0.5-1.6,2.2c0,0.9,0.3,1.5,0.6,1.8c0.3,0.3,0.7,0.4,1.1,0.4c0.2,0,0.5,0,0.7-0.1c0.6-0.3,0.7-0.8,0.8-1.3l1,0.1
			C337.5,109.2,337,109.7,336.8,110z"/>
		<path class="st9" d="M342.4,110c-0.6,0.5-1.4,0.5-1.6,0.5c-0.2,0-0.6,0-1-0.2c-0.6-0.2-1.6-0.9-1.6-2.6c0-1.7,0.9-2.5,1.6-2.7
			c0.4-0.2,0.8-0.2,1-0.2c1.4,0,2.1,0.8,2.3,1.3c0.1,0.2,0.1,0.3,0.1,0.5l-1,0.1c0-0.1-0.1-0.4-0.2-0.6c-0.4-0.6-1-0.6-1.2-0.6
			c-0.8,0-1.6,0.5-1.6,2.2c0,0.9,0.3,1.5,0.6,1.8c0.3,0.3,0.7,0.4,1.1,0.4c0.2,0,0.5,0,0.7-0.1c0.6-0.3,0.7-0.8,0.8-1.3l1,0.1
			C343.2,109.2,342.7,109.7,342.4,110z"/>
		<path class="st9" d="M344.2,103.3v-1h0.9v1H344.2z M344.2,110.3V105h0.9v5.3H344.2z"/>
		<path class="st9" d="M350.2,110.3v-0.7c-0.3,0.3-0.8,0.8-1.8,0.8c-1,0-1.5-0.5-1.8-0.8c-0.3-0.4-0.7-1-0.7-2
			c0-0.7,0.1-1.3,0.5-1.9c0.2-0.3,0.8-1,1.9-1c0.8,0,1.3,0.4,1.5,0.5c0.1,0.1,0.2,0.2,0.3,0.3v-3.4h0.9v8H350.2z M350.2,106.9
			c-0.2-0.8-0.8-1.3-1.6-1.3c-0.2,0-0.8,0-1.2,0.6c-0.4,0.4-0.5,0.9-0.5,1.5c0,0.2,0,0.9,0.4,1.4c0.4,0.6,1,0.6,1.3,0.6
			c0.3,0,0.6-0.1,0.9-0.2c0.4-0.2,0.8-0.8,0.8-1.8C350.3,107.5,350.3,107.2,350.2,106.9z"/>
		<path class="st9" d="M356.8,109.4c-0.3,0.4-0.9,1.1-2.1,1.1c-0.6,0-0.9-0.1-1.1-0.2c-0.7-0.3-1.5-1-1.5-2.7c0-1,0.3-1.5,0.6-1.9
			c0.5-0.6,1.2-0.9,2-0.9c0.3,0,0.6,0.1,0.8,0.1c0.3,0.1,1,0.4,1.3,1.3c0.1,0.4,0.3,0.8,0.3,1.6h-4c0,1,0.4,1.5,0.8,1.7
			c0.3,0.2,0.6,0.3,1,0.3c0.5,0,0.7-0.2,0.9-0.3c0.1,0,0.2-0.2,0.3-0.4c0.1-0.2,0.2-0.5,0.2-0.6l0.9,0.1
			C357.1,108.8,357,109.1,356.8,109.4z M356.1,106.6c-0.2-0.7-0.7-1.1-1.4-1.1c-1,0-1.4,0.8-1.5,1.6h3
			C356.1,106.9,356.1,106.7,356.1,106.6z"/>
		<path class="st9" d="M361.6,110.3v-3.4c0-0.2,0-0.7-0.4-1c-0.1-0.1-0.4-0.2-0.8-0.2c-0.4,0-0.7,0.1-1,0.4
			c-0.1,0.1-0.2,0.2-0.3,0.5c-0.1,0.2-0.1,0.5-0.1,0.7v3h-0.9V105h0.9v0.8c0.1-0.2,0.2-0.3,0.3-0.4c0.2-0.2,0.7-0.6,1.4-0.6
			c0.2,0,1,0.1,1.5,0.7c0.4,0.5,0.3,1,0.3,1.6v3.2H361.6z"/>
		<path class="st9" d="M365.1,110.4c-0.5,0-0.8-0.1-0.9-0.3c-0.1-0.2-0.1-0.4-0.1-0.9v-3.5h-0.9V105h0.9v-1.7h0.9v1.7h1v0.7h-1v3.1
			c0,0.4,0,0.6,0.1,0.7c0.1,0.1,0.2,0.2,0.3,0.2c0.1,0,0.3,0,0.6-0.1v0.7C365.9,110.3,365.4,110.4,365.1,110.4z"/>
		<path class="st9" d="M371.2,109.4c-0.3,0.4-0.9,1.1-2.1,1.1c-0.6,0-0.9-0.1-1.1-0.2c-0.7-0.3-1.5-1-1.5-2.7c0-1,0.3-1.5,0.6-1.9
			c0.5-0.6,1.2-0.9,2-0.9c0.3,0,0.6,0.1,0.8,0.1c0.3,0.1,1,0.4,1.3,1.3c0.1,0.4,0.3,0.8,0.3,1.6h-4c0,1,0.4,1.5,0.8,1.7
			c0.3,0.2,0.6,0.3,1,0.3c0.5,0,0.7-0.2,0.9-0.3c0.1,0,0.2-0.2,0.3-0.4c0.1-0.2,0.2-0.5,0.2-0.6l0.9,0.1
			C371.5,108.8,371.4,109.1,371.2,109.4z M370.5,106.6c-0.2-0.7-0.7-1.1-1.4-1.1c-1,0-1.4,0.8-1.5,1.6h3
			C370.5,106.9,370.5,106.7,370.5,106.6z"/>
		<path class="st9" d="M376.6,109.6c-0.3,0.4-0.9,0.9-2,0.9c-0.2,0-1,0-1.6-0.4c-0.1-0.1-0.2-0.1-0.4-0.3c-0.4-0.5-0.5-1-0.5-1.2
			l1-0.1c0,0.4,0,0.7,0.3,0.9c0.3,0.4,0.7,0.4,1.2,0.4c0.1,0,0.6,0,1-0.3c0.2-0.2,0.2-0.5,0.2-0.6c0-0.1,0-0.2-0.1-0.4
			c-0.2-0.3-0.7-0.4-1-0.5l-0.5-0.1c-0.7-0.1-1-0.2-1.3-0.4c-0.4-0.3-0.6-0.6-0.6-1.1c0-0.2,0-0.5,0.3-0.9c0.5-0.7,1.6-0.7,1.8-0.7
			c1.1,0,1.7,0.6,2,0.9c0.2,0.3,0.3,0.7,0.3,0.8l-1,0.1c0-0.3,0-0.4-0.1-0.5c-0.1-0.3-0.6-0.7-1.3-0.7c-0.7,0-1.1,0.4-1.1,0.8
			c0,0.1,0,0.2,0.1,0.3c0.2,0.3,0.6,0.4,1.2,0.6l0.5,0.1c0.2,0,0.3,0.1,0.5,0.1c0.7,0.2,1.3,0.6,1.3,1.4
			C376.8,108.9,376.8,109.2,376.6,109.6z"/>
		<path class="st9" d="M306.5,118.9c-0.3,0.1-0.6,0.1-1.2,0.1H303v3.4h-1v-8h3.4c0.6,0,1.2,0,1.7,0.3c0.9,0.6,1,1.6,1,1.9
			C308.1,117.7,307.6,118.6,306.5,118.9z M306.9,116.1c-0.1-0.4-0.4-0.6-0.8-0.7c-0.2-0.1-0.4-0.1-0.6-0.1H303v2.7h2.2
			c0.3,0,0.6,0,0.9-0.1c0.6-0.2,0.9-0.7,0.9-1.4C307,116.5,307,116.3,306.9,116.1z"/>
		<path class="st9" d="M313.1,121.5c-0.3,0.4-0.9,1.1-2.1,1.1c-0.6,0-0.9-0.1-1.1-0.2c-0.7-0.3-1.5-1-1.5-2.7c0-1,0.3-1.5,0.6-1.9
			c0.5-0.6,1.2-0.9,2-0.9c0.3,0,0.6,0.1,0.8,0.1c0.3,0.1,1,0.4,1.3,1.3c0.1,0.4,0.3,0.8,0.3,1.6h-4c0,1,0.4,1.5,0.8,1.7
			c0.3,0.2,0.6,0.3,1,0.3c0.5,0,0.7-0.2,0.9-0.3c0.1,0,0.2-0.2,0.3-0.4c0.1-0.2,0.2-0.5,0.2-0.6l0.9,0.1
			C313.4,120.9,313.3,121.2,313.1,121.5z M312.4,118.7c-0.2-0.7-0.7-1.1-1.4-1.1c-1,0-1.4,0.8-1.5,1.6h3
			C312.4,118.9,312.4,118.8,312.4,118.7z"/>
		<path class="st9" d="M316.4,117.9c-0.5,0.1-0.9,0.5-1.1,1c-0.1,0.3-0.1,0.5-0.1,1v2.5h-0.9V117h0.9v1c0.1-0.2,0.3-0.4,0.5-0.6
			c0.2-0.2,0.6-0.4,1.3-0.4v1C316.8,117.9,316.6,117.9,316.4,117.9z"/>
		<path class="st9" d="M321.8,121.7c-0.3,0.4-0.9,0.9-2,0.9c-0.2,0-1,0-1.6-0.4c-0.1-0.1-0.2-0.1-0.4-0.3c-0.4-0.5-0.5-1-0.5-1.2
			l1-0.1c0,0.4,0,0.7,0.3,0.9c0.3,0.4,0.7,0.4,1.2,0.4c0.1,0,0.6,0,1-0.3c0.2-0.2,0.2-0.5,0.2-0.6c0-0.1,0-0.2-0.1-0.4
			c-0.2-0.3-0.7-0.4-1-0.5l-0.5-0.1c-0.7-0.1-1-0.2-1.3-0.4c-0.4-0.3-0.6-0.6-0.6-1.1c0-0.2,0-0.5,0.3-0.9c0.5-0.7,1.6-0.7,1.8-0.7
			c1.1,0,1.7,0.6,2,0.9c0.2,0.3,0.3,0.7,0.3,0.8l-1,0.1c0-0.3,0-0.4-0.1-0.5c-0.1-0.3-0.6-0.7-1.3-0.7c-0.7,0-1.1,0.4-1.1,0.8
			c0,0.1,0,0.2,0.1,0.3c0.2,0.3,0.6,0.4,1.2,0.6l0.5,0.1c0.2,0,0.3,0.1,0.5,0.1c0.7,0.2,1.3,0.6,1.3,1.4
			C322,121,322,121.3,321.8,121.7z"/>
		<path class="st9" d="M327.2,121.6c-0.3,0.4-0.9,0.9-2,0.9c-0.3,0-1.2,0-1.8-0.7c-0.3-0.3-0.8-1-0.8-2.1c0-0.7,0.2-1.4,0.6-1.9
			c0.5-0.7,1.2-0.9,2-0.9c0.4,0,0.7,0.1,1.1,0.2c0.6,0.3,1.5,1,1.5,2.6C327.8,120,327.8,120.9,327.2,121.6z M326.6,118.3
			c-0.1-0.1-0.2-0.3-0.3-0.4c-0.4-0.3-0.8-0.3-1-0.3c-1.7,0-1.7,1.9-1.7,2.2c0,0.3,0,0.5,0,0.5c0.1,0.4,0.3,1.5,1.6,1.5
			c0.2,0,0.9-0.1,1.3-0.7c0.3-0.5,0.4-1.3,0.4-1.4C326.9,119.6,326.9,118.9,326.6,118.3z"/>
		<path class="st9" d="M332.3,122.4V119c0-0.2,0-0.7-0.4-1c-0.1-0.1-0.4-0.2-0.8-0.2c-0.4,0-0.7,0.1-1,0.4c-0.1,0.1-0.2,0.2-0.3,0.5
			c-0.1,0.2-0.1,0.5-0.1,0.7v3h-0.9V117h0.9v0.8c0.1-0.2,0.2-0.3,0.3-0.4c0.2-0.2,0.7-0.6,1.4-0.6c0.2,0,1,0.1,1.5,0.7
			c0.4,0.5,0.3,1,0.3,1.6v3.2H332.3z"/>
		<path class="st9" d="M338.6,122.4c0,0-0.4,0-0.6-0.1c-0.1-0.1-0.2-0.2-0.2-0.2c-0.1-0.2-0.2-0.3-0.2-0.5c-0.2,0.3-0.8,0.9-1.8,0.9
			c-0.4,0-0.6-0.1-0.7-0.1c-0.6-0.2-1.1-0.7-1.1-1.4c0-0.2,0.1-0.8,0.6-1.2c0.5-0.4,1.5-0.6,2.2-0.6l0.8-0.1c0-0.1,0-0.3,0-0.4
			c0-0.4-0.1-1.2-1.2-1.2c-0.2,0-0.9,0-1.1,0.6c-0.1,0.2-0.1,0.3-0.1,0.5l-0.9-0.1c0-0.1,0-0.3,0.1-0.5c0.2-0.5,0.7-1.2,2-1.2
			c0.2,0,0.5,0,0.8,0.1c0.2,0.1,0.9,0.3,1.2,1c0.1,0.3,0.1,0.6,0.1,1.1v1.7c0,0.1,0,0.2,0,0.4c0,0.1,0,0.4,0.4,0.4
			c0.1,0,0.2,0,0.3,0v0.8C339,122.4,338.8,122.4,338.6,122.4z M337.6,119.9v-0.1c-0.4,0.1-1.5,0.2-1.9,0.4c-0.2,0.1-0.7,0.3-0.7,0.8
			c0,0.4,0.3,0.8,1,0.8c0.5,0,1.6-0.2,1.6-1.6C337.7,120.1,337.6,120,337.6,119.9z"/>
		<path class="st9" d="M339.9,122.4v-8h0.9v8H339.9z"/>
		<path class="st9" d="M346.4,121.5c-0.3,0.4-0.9,1.1-2.1,1.1c-0.6,0-0.9-0.1-1.1-0.2c-0.7-0.3-1.5-1-1.5-2.7c0-1,0.3-1.5,0.6-1.9
			c0.5-0.6,1.2-0.9,2-0.9c0.3,0,0.6,0.1,0.8,0.1c0.3,0.1,1,0.4,1.3,1.3c0.1,0.4,0.3,0.8,0.3,1.6h-4c0,1,0.4,1.5,0.8,1.7
			c0.3,0.2,0.6,0.3,1,0.3c0.5,0,0.7-0.2,0.9-0.3c0.1,0,0.2-0.2,0.3-0.4c0.1-0.2,0.2-0.5,0.2-0.6l0.9,0.1
			C346.7,120.9,346.6,121.2,346.4,121.5z M345.7,118.7c-0.2-0.7-0.7-1.1-1.4-1.1c-1,0-1.4,0.8-1.5,1.6h3
			C345.7,118.9,345.7,118.8,345.7,118.7z"/>
		<path class="st9" d="M351.8,121.7c-0.3,0.4-0.9,0.9-2,0.9c-0.2,0-1,0-1.6-0.4c-0.1-0.1-0.2-0.1-0.4-0.3c-0.4-0.5-0.5-1-0.5-1.2
			l1-0.1c0,0.4,0,0.7,0.3,0.9c0.3,0.4,0.7,0.4,1.2,0.4c0.1,0,0.6,0,1-0.3c0.2-0.2,0.2-0.5,0.2-0.6c0-0.1,0-0.2-0.1-0.4
			c-0.2-0.3-0.7-0.4-1-0.5l-0.5-0.1c-0.7-0.1-1-0.2-1.3-0.4c-0.4-0.3-0.6-0.6-0.6-1.1c0-0.2,0-0.5,0.3-0.9c0.5-0.7,1.6-0.7,1.8-0.7
			c1.1,0,1.7,0.6,2,0.9c0.2,0.3,0.3,0.7,0.3,0.8l-1,0.1c0-0.3,0-0.4-0.1-0.5c-0.1-0.3-0.6-0.7-1.3-0.7c-0.7,0-1.1,0.4-1.1,0.8
			c0,0.1,0,0.2,0.1,0.3c0.2,0.3,0.6,0.4,1.2,0.6l0.5,0.1c0.2,0,0.3,0.1,0.5,0.1c0.7,0.2,1.3,0.6,1.3,1.4
			C352,121,352,121.3,351.8,121.7z"/>
	</g>
	<g>
		<g>
			<path class="st3" d="M190.1,53.4l-5.9-8.7l0.1,8.7H183V42.7h1.3l5.8,8.6l-0.1-8.6h1.3v10.7H190.1z"/>
			<path class="st3" d="M193.6,53.4V42.7h1.4v10.7H193.6z"/>
			<path class="st3" d="M201.2,53.4h-1.4l-3.6-10.7h1.5l2.8,8.9l2.9-8.9h1.5L201.2,53.4z"/>
			<path class="st3" d="M206.4,53.4V42.7h7.4V44h-6v3.3h5.2v1.2h-5.2v3.7h6.2v1.2H206.4z"/>
			<path class="st3" d="M215.4,53.4V42.7h1.4v9.4h5.2v1.3H215.4z"/>
			<path class="st3" d="M187.8,63.5c-0.4,0.1-0.8,0.1-1.6,0.1h-3.1v4.5h-1.4V57.4h4.6c0.8,0,1.5,0,2.3,0.5c1.2,0.8,1.3,2.2,1.3,2.6
				C189.9,61.8,189.2,63.1,187.8,63.5z M188.4,59.7c-0.2-0.5-0.6-0.8-1.1-1c-0.3-0.1-0.5-0.1-0.9-0.1h-3.3v3.7h3
				c0.4,0,0.8,0,1.2-0.1c0.9-0.2,1.2-1,1.2-1.8C188.5,60.3,188.5,60,188.4,59.7z"/>
			<path class="st3" d="M191.1,68.1V57.4h1.4v9.4h5.2v1.3H191.1z"/>
			<path class="st3" d="M206.1,68.1l-1.2-3.3h-4.1l-1.2,3.3h-1.5l4.1-10.7h1.5l3.9,10.7H206.1z M202.9,59.2l-1.6,4.5h3.2L202.9,59.2
				z"/>
			<path class="st3" d="M211.5,58.7v9.5H210v-9.5h-3.2v-1.2h7.8v1.2H211.5z"/>
			<path class="st3" d="M221.9,68.1l-1.2-3.3h-4.1l-1.2,3.3h-1.5l4.1-10.7h1.5l3.9,10.7H221.9z M218.7,59.2l-1.6,4.5h3.2L218.7,59.2
				z"/>
		</g>
	</g>
	<g>
		<g>
			<path class="st3" d="M314.1,53.4l-5.9-8.7l0.1,8.7H307V42.7h1.4l5.8,8.6l-0.1-8.6h1.3v10.7H314.1z"/>
			<path class="st3" d="M317.6,53.4V42.7h1.4v10.7H317.6z"/>
			<path class="st3" d="M325.3,53.4h-1.4l-3.6-10.7h1.5l2.8,8.9l2.9-8.9h1.5L325.3,53.4z"/>
			<path class="st3" d="M330.4,53.4V42.7h7.4V44h-6v3.3h5.2v1.2h-5.2v3.7h6.2v1.2H330.4z"/>
			<path class="st3" d="M339.4,53.4V42.7h1.4v9.4h5.2v1.3H339.4z"/>
			<path class="st3" d="M319.1,66.4c-0.6,0.8-1.9,2-4.3,2c-0.7,0-2.3-0.1-3.7-1.4c-0.7-0.7-1.7-2-1.7-4.3c0-0.6,0-2.5,1.3-3.9
				c1-1.1,2.6-1.7,4.1-1.7c0.7,0,1.5,0.1,2.1,0.4c2.2,0.9,3.3,2.9,3.3,5.2C320.3,63.2,320.2,65,319.1,66.4z M317.9,59.7
				c-1-1.3-2.4-1.4-3-1.4c-1.7,0-2.6,0.9-3,1.5c-0.6,0.8-0.8,2-0.8,3c0,1.4,0.4,2.4,0.7,2.8c0.3,0.4,0.6,0.7,0.7,0.8
				c0.4,0.4,0.8,0.5,1,0.6c0.3,0.1,0.7,0.2,1.5,0.2c0.3,0,0.9,0,1.6-0.3c1-0.5,2.2-1.7,2.2-4.3C318.7,62.3,318.7,60.9,317.9,59.7z"
				/>
			<path class="st3" d="M329.3,68.1l-2.9-4.6h-2.8v4.6h-1.4V57.4h4c0.3,0,0.7,0,1,0c1.5,0.1,2.2,0.5,2.6,1.1c0.3,0.3,0.7,1,0.7,2
				c0,0.4-0.1,1.9-1.4,2.6c-0.3,0.1-0.5,0.2-1.1,0.3l3,4.6H329.3z M328.2,58.9c-0.6-0.3-1.2-0.3-1.9-0.3h-2.8v3.8h2.9
				c0.8,0,1.8,0,2.3-0.7c0.2-0.3,0.3-0.7,0.3-1.1C329.1,60.2,329.1,59.4,328.2,58.9z"/>
			<path class="st3" d="M341.6,66.4c-0.6,0.8-1.9,2-4.3,2c-0.7,0-2.3-0.1-3.7-1.4c-0.7-0.7-1.7-2-1.7-4.3c0-0.6,0-2.5,1.3-3.9
				c1-1.1,2.6-1.7,4.1-1.7c0.7,0,1.5,0.1,2.1,0.4c2.2,0.9,3.3,2.9,3.3,5.2C342.7,63.2,342.6,65,341.6,66.4z M340.3,59.7
				c-1-1.3-2.4-1.4-3-1.4c-1.7,0-2.6,0.9-3,1.5c-0.6,0.8-0.8,2-0.8,3c0,1.4,0.4,2.4,0.7,2.8c0.3,0.4,0.6,0.7,0.7,0.8
				c0.4,0.4,0.8,0.5,1,0.6c0.3,0.1,0.7,0.2,1.5,0.2c0.3,0,0.9,0,1.6-0.3c1-0.5,2.2-1.7,2.2-4.3C341.1,62.3,341.1,60.9,340.3,59.7z"
				/>
		</g>
	</g>
</g>
</svg>
