<?xml version="1.0" encoding="utf-8"?>
<!-- Generator: Adobe Illustrator 25.2.3, SVG Export Plug-In . SVG Version: 6.00 Build 0)  -->
<svg version="1.1" id="Capa_1" xmlns="http://www.w3.org/2000/svg" xmlns:xlink="http://www.w3.org/1999/xlink" x="0px" y="0px"
	 viewBox="0 0 600 350" style="enable-background:new 0 0 600 350;" xml:space="preserve">
<style type="text/css">
	.st0{fill:#000100;}
	.st1{fill:url(#SVGID_1_);}
	.st2{fill:url(#SVGID_2_);}
	.st3{enable-background:new    ;}
	.st4{fill:#FFFFFF;}
	.st5{fill:url(#SVGID_3_);}
	.st6{fill:url(#SVGID_4_);}
	.st7{opacity:0.1;fill:#000100;enable-background:new    ;}
	.st8{fill:#000100;fill-opacity:0;}
	.st9{opacity:0.2;fill:#FFFFFF;enable-background:new    ;}
	.st10{fill:#585857;}
</style>
<path class="st0" d="M457,12.5H142.5c-9.3,0-16.9,7.5-16.9,16.9c0,0,0,0,0,0v194.4c0,9.3,7.5,16.9,16.8,16.9c0,0,0,0,0,0H457
	c9.3,0,16.8-7.5,16.9-16.8c0,0,0,0,0,0V29.3C473.9,20,466.3,12.5,457,12.5C457,12.5,457,12.5,457,12.5z"/>
<g>
	
		<image style="overflow:visible;enable-background:new    ;" width="2501" height="1211" xlink:href="A30788963EAEEBB1.png"  transform="matrix(0.24 0 0 0.24 -4.000000e-02 47.05)">
	</image>
</g>
<linearGradient id="SVGID_1_" gradientUnits="userSpaceOnUse" x1="489.535" y1="295.3624" x2="489.535" y2="24.4721" gradientTransform="matrix(1 0 0 -1 0 347.7323)">
	<stop  offset="0" style="stop-color:#1470B5"/>
	<stop  offset="1" style="stop-color:#1E2D52"/>
</linearGradient>
<path class="st1" d="M588.3,306.4V69.2c0-9.4-7.6-16.9-17-16.9c0,0,0,0,0,0H390.8v270.9h180.5C580.6,323.3,588.2,315.8,588.3,306.4
	C588.3,306.4,588.3,306.4,588.3,306.4z"/>
<linearGradient id="SVGID_2_" gradientUnits="userSpaceOnUse" x1="3949.8052" y1="295.3623" x2="3949.8052" y2="24.4723" gradientTransform="matrix(-1 0 0 -1 4057.3101 347.7323)">
	<stop  offset="0" style="stop-color:#1470B5"/>
	<stop  offset="1" style="stop-color:#1E2D52"/>
</linearGradient>
<path class="st2" d="M6.8,306.4V69.2c0-9.3,7.5-16.9,16.9-16.9c0,0,0,0,0,0h184.6v270.9H23.7C14.3,323.3,6.8,315.7,6.8,306.4
	C6.8,306.4,6.8,306.4,6.8,306.4z"/>
<g class="st3">
	<path class="st4" d="M87.8,84.1l-8.8-13l0.2,13h-2v-16h2l8.6,12.8l-0.1-12.8h1.9v16H87.8z"/>
	<path class="st4" d="M93,84.1v-16h2.2v16H93z"/>
	<path class="st4" d="M104.4,84.1h-2.1l-5.4-16h2.3l4.2,13.4l4.4-13.4h2.3L104.4,84.1z"/>
	<path class="st4" d="M112.1,84.1v-16h11V70h-9v4.9h7.8v1.9h-7.8v5.5h9.2v1.9H112.1z"/>
	<path class="st4" d="M125.5,84.1v-16h2.1v14.1h7.7v1.9H125.5z"/>
</g>
<g class="st3">
	<path class="st4" d="M69,105.7c-1,0.3-1.6,0.3-3.4,0.3h-6.2V90h7.5c1.3,0,2.4,0.3,3.4,1.2c0.9,0.7,1.3,1.8,1.3,2.9
		c0,1-0.3,1.9-1.1,2.7c-0.3,0.3-0.7,0.5-0.9,0.6c-0.1,0-0.2,0.1-0.5,0.2c0.5,0.1,0.9,0.3,1.3,0.6c0.7,0.5,1.7,1.4,1.7,3.4
		C72,104.5,70,105.4,69,105.7z M68.3,92.3c-0.6-0.4-1.1-0.4-2.5-0.4h-4.6v4.8h3.4c1.3,0,2.4,0,2.9-0.2c0.6-0.1,1.7-0.7,1.7-2.4
		C69.3,93.8,69.3,92.9,68.3,92.3z M69.7,100.3c-0.2-0.4-0.7-1.3-1.9-1.6c-0.7-0.2-1.2-0.1-2.5-0.1h-3.9v5.6h4.7c0.9,0,1.6,0,1.9-0.1
		c0.1,0,0.5-0.1,0.8-0.3c0.5-0.3,1.1-0.9,1.1-2.2C69.9,101.2,69.9,100.7,69.7,100.3z"/>
	<path class="st4" d="M85.5,106l-4.4-6.8H77v6.8h-2.1V90h6c0.5,0,1,0,1.5,0c2.2,0.1,3.3,0.8,3.9,1.6c0.4,0.5,1,1.5,1,3.1
		c0,0.7-0.1,2.8-2.1,3.9c-0.4,0.2-0.8,0.4-1.6,0.5L88,106H85.5z M83.9,92.2c-0.8-0.5-1.8-0.5-2.8-0.5H77v5.6h4.3
		c1.2,0,2.6,0,3.4-1.1c0.4-0.5,0.5-1,0.5-1.7C85.2,94.2,85.1,93,83.9,92.2z"/>
	<path class="st4" d="M103.8,103.4c-0.9,1.2-2.8,3-6.4,3c-1,0-3.4-0.1-5.5-2c-1.1-1-2.5-2.9-2.5-6.4c0-0.9,0-3.7,2-5.9
		c1.5-1.7,3.8-2.5,6.1-2.5c1.1,0,2.2,0.2,3.2,0.6c3.3,1.3,4.9,4.3,4.9,7.7C105.5,98.7,105.4,101.3,103.8,103.4z M101.9,93.4
		c-1.5-2-3.6-2.1-4.5-2.1c-2.6,0-3.9,1.3-4.5,2.2c-0.9,1.3-1.2,3-1.2,4.5c0,2.1,0.6,3.5,1.1,4.2c0.4,0.6,0.8,1,1,1.2
		c0.7,0.6,1.2,0.8,1.5,0.9c0.4,0.2,1.1,0.4,2.2,0.4c0.4,0,1.4,0,2.4-0.5c1.5-0.7,3.3-2.6,3.3-6.4C103.2,97.3,103.2,95.1,101.9,93.4z
		"/>
	<path class="st4" d="M119,106l-8.8-13l0.2,13h-2V90h2l8.6,12.8L119,90h1.9v16H119z"/>
	<path class="st4" d="M139.1,101.5c-0.4,1-1.8,3.6-4.9,4.6c-1.1,0.3-2.1,0.4-2.6,0.4c-2.8,0-4.4-1.1-5.3-1.9c-1.1-1-2.5-3-2.5-6.5
		c0-5,3-8.4,8.1-8.4c0.9,0,3.9,0.1,5.9,2.4c0.7,0.8,1.1,1.6,1.4,2.5l-2.2,0.4c-0.3-0.8-0.5-1.2-0.7-1.5c-0.6-0.8-1.9-2.1-4.4-2.1
		c-0.4,0-1.4,0-2.3,0.5c-3.4,1.4-3.4,5.3-3.4,6.1c0,3.8,1.8,5.7,3.4,6.3c0.4,0.2,1.2,0.4,2.3,0.4c0.3,0,0.9,0,1.6-0.2
		c0.6-0.2,2.1-0.8,3-2.4c0.2-0.5,0.5-1,0.7-2l2.3,0.3C139.4,100.4,139.3,100.9,139.1,101.5z"/>
	<path class="st4" d="M141.7,106V90h11v1.9h-9v4.9h7.8v1.9h-7.8v5.5h9.2v1.9H141.7z"/>
</g>
<g class="st3">
	<path class="st4" d="M156.5,40.2c-1.3,0.7-3.1,0.6-4.5,0.6h-5.7v-16h6.6c0.3,0,0.7,0,1,0c0.5,0,2.3,0.1,3.4,1.6
		c0.7,1,0.7,2,0.7,2.4c0,0.5-0.1,1.9-1.4,2.8c-0.6,0.4-1.2,0.5-1.4,0.6c2.2,0.4,3.4,1.9,3.4,4.1C158.7,37,158.5,39.1,156.5,40.2z
		 M156.1,27.2c-0.8-1.1-2.3-1-3.5-1h-4.8v5.4h4.5c1.2,0,2.8,0,3.7-1.1c0.4-0.5,0.5-1.1,0.5-1.7C156.6,28.5,156.5,27.8,156.1,27.2z
		 M155.6,33.5c-1-0.6-2.2-0.6-3.3-0.6h-4.4v6.5h4.1c1.4,0,2.4,0,3-0.1c0.7-0.2,2.3-0.8,2.3-2.9C157.2,35.8,157,34.4,155.6,33.5z"/>
	<path class="st4" d="M169.6,39.4c-0.6,0.7-1.7,1.7-3.8,1.7c-0.4,0-1.5,0-2.5-0.6c-2.6-1.3-2.7-4.5-2.7-5.2c0-0.4,0-1.2,0.3-2.2
		c0.7-2,2.5-3.4,4.6-3.4c0.7,0,2.2,0.1,3.5,1.5c0.9,1,1.4,2.5,1.4,3.8v0.3h-8.4c0,0.9,0.1,1.4,0.2,1.8c0.2,0.9,1,2.6,3.5,2.6
		c1,0,2.4-0.2,3.5-2.3l1.2,0.4C170.3,38.2,170.1,38.8,169.6,39.4z M165.6,30.9c-1.9,0-2.8,1.3-3.1,1.9c-0.2,0.5-0.3,1-0.4,1.5h6.8
		C168.6,31.5,166.7,30.9,165.6,30.9z"/>
	<path class="st4" d="M180.2,40.8v-5.6c0-1.4,0-2.3-0.2-2.9c-0.2-0.6-0.6-0.8-0.8-0.9c-0.6-0.4-1.2-0.3-1.5-0.3s-0.8,0-1.4,0.3
		c-0.8,0.4-1.4,1.2-1.6,2.1c-0.1,0.5-0.1,1.4-0.1,2.7v4.7h-1.3V30h1.3v1.9c0.1-0.3,0.2-0.7,0.8-1.2c0.4-0.4,1.2-1,2.6-1
		c2,0,2.9,1.1,3.3,1.9c0.4,0.9,0.4,1.7,0.4,3.6v5.6H180.2z"/>
</g>
<g class="st3">
	<path class="st4" d="M193.2,39.4c-0.6,0.7-1.7,1.7-3.8,1.7c-0.4,0-1.5,0-2.5-0.6c-2.6-1.3-2.7-4.5-2.7-5.2c0-0.4,0-1.2,0.3-2.2
		c0.7-2,2.5-3.4,4.6-3.4c0.7,0,2.2,0.1,3.5,1.5c0.9,1,1.4,2.5,1.4,3.8v0.3h-8.4c0,0.9,0.1,1.4,0.2,1.8c0.2,0.9,1,2.6,3.5,2.6
		c1,0,2.4-0.2,3.5-2.3L194,38C193.9,38.2,193.7,38.8,193.2,39.4z M189.1,30.9c-1.9,0-2.8,1.3-3.1,1.9c-0.2,0.5-0.3,1-0.4,1.5h6.8
		C192.2,31.5,190.3,30.9,189.1,30.9z"/>
</g>
<g class="st3">
	<path class="st4" d="M198.5,31.2v9.7h-1.3v-9.7h-2.4V30h2.4V28c0-1.2,0-1.5,0.1-2.1c0.2-0.7,0.7-1.4,2.3-1.4c0.5,0,0.9,0.1,1.4,0.2
		V26c-0.2-0.1-0.7-0.3-1.3-0.3c-0.5,0-0.7,0.1-0.8,0.3c-0.4,0.4-0.4,0.9-0.4,1.9V30h2.4v1.1H198.5z"/>
	<path class="st4" d="M203.1,27.5v-2.1h1.3v2.1H203.1z M203.1,40.8V30h1.3v10.8H203.1z"/>
	<path class="st4" d="M215.2,40c-0.5,0.5-1.5,1.1-3.1,1.1c-0.6,0-2.1,0-3.3-1.2c-1.6-1.5-1.7-3.8-1.7-4.4c0-0.8,0.1-1.5,0.3-2.2
		c0.7-2.2,2.5-3.5,4.8-3.5c1.7,0,2.6,0.7,3.1,1.2c0.6,0.6,0.8,1.2,1,1.5l-1.2,0.3c-0.5-1.2-1.7-1.8-2.9-1.8c-0.4,0-1.4,0-2.2,0.8
		c-1.4,1.2-1.4,3.2-1.4,3.7c0,0.3,0,2.2,1,3.4c0.2,0.2,0.5,0.5,1.1,0.8c0.3,0.1,0.7,0.3,1.5,0.3c1.4,0,2.3-0.6,2.9-1.8l1.4,0.3
		C216.1,39,215.7,39.6,215.2,40z"/>
	<path class="st4" d="M218.6,27.5v-2.1h1.3v2.1H218.6z M218.6,40.8V30h1.3v10.8H218.6z"/>
	<path class="st4" d="M232.1,37.5c-0.7,2.2-2.4,3.6-4.7,3.6c-0.7,0-2.5-0.1-3.7-1.8c-0.5-0.7-1.1-1.8-1.1-3.7c0-0.5,0-1.5,0.5-2.7
		c1.1-2.7,3.4-3.1,4.4-3.1c1.2,0,2.3,0.4,3.2,1.2c1.2,1.2,1.7,2.8,1.7,4.4C232.4,35.7,232.4,36.6,232.1,37.5z M227.5,30.9
		c-0.3,0-1.2,0-1.9,0.6c-0.8,0.6-1.5,1.8-1.5,4.1c0,0.4,0,2.6,1.4,3.7c0.3,0.3,1,0.6,2,0.6c1.6,0,3.5-1,3.5-4.4
		C231.1,32,229.3,30.9,227.5,30.9z"/>
	<path class="st4" d="M242.2,39.2c-0.4,0.8-1.5,1.9-3.7,1.9c-0.7,0-2.4-0.1-3.6-1.6c-0.3-0.4-0.5-0.8-0.7-1.3l1.3-0.5
		c0.2,0.7,1,2.1,3,2.1c1,0,1.7-0.3,2-0.5c0.5-0.4,0.8-1,0.8-1.6c0-0.3-0.1-0.7-0.3-1c-0.3-0.5-0.9-0.7-2-1c-1.1-0.2-2.7-0.4-3.5-1.4
		c-0.4-0.5-0.6-1.1-0.6-1.7c0-0.3,0.1-1.4,0.9-2.1c0.7-0.7,2-0.9,2.9-0.9c0.3,0,1.7,0,2.6,0.7c0.8,0.6,1.1,1.4,1.2,1.7l-1.3,0.3
		c-0.2-1.2-1.5-1.6-2.6-1.6c-0.9,0-1.5,0.2-1.8,0.4c-0.1,0-0.3,0.2-0.5,0.5c-0.2,0.4-0.2,0.8-0.2,0.9c0,1.3,1.3,1.6,2.3,1.7l1.1,0.2
		c1,0.2,1.9,0.6,2.5,1.4c0.5,0.7,0.5,1.3,0.5,1.7C242.6,38,242.6,38.6,242.2,39.2z"/>
	<path class="st4" d="M262.2,29.3c-0.1-0.6-0.3-1.1-0.7-1.6c-0.6-0.9-1.6-1.9-3.9-1.9c-0.3,0-1.5,0-2.5,0.5
		c-0.8,0.4-1.4,1.2-1.8,1.9c-0.5,0.9-1,2.2-1,4.5c0,0.5,0,1.6,0.3,2.9c0.3,1.5,1.3,4.3,5.3,4.3c1.4,0,2.6-0.5,3.5-1.6
		c0.6-0.8,0.8-1.4,0.9-1.8l1.4,0.9c-0.8,1.7-1.8,2.6-2.5,3.1c-0.6,0.4-1.7,0.8-3.4,0.8c-0.9,0-3.5-0.1-5.2-2.3
		c-1.7-2.2-1.7-5.4-1.7-6c0-0.8,0-4.1,2-6.4c0.8-0.9,1.7-1.4,2.1-1.6c0.5-0.2,1.4-0.5,2.8-0.5c0.9,0,1.8,0.1,2.6,0.4
		c1.9,0.6,2.8,2,3.6,3.7L262.2,29.3z"/>
	<path class="st4" d="M273.5,40.8v-1.9c-0.2,0.4-0.3,0.6-0.4,0.8c-1,1.4-2.4,1.4-3,1.4c-0.2,0-0.7,0-1.3-0.2c-1-0.3-1.7-1.1-2.1-2.1
		c-0.2-0.7-0.3-1.8-0.3-3.5V30h1.4v5.6c0,1.3,0,2,0.2,2.6c0.2,0.7,0.7,1.6,2.2,1.6c0.5,0,1.7,0,2.6-1.2c0.8-1.1,0.7-2.6,0.7-3.9V30
		h1.3v10.8H273.5z"/>
	<path class="st4" d="M286.5,39.4c-0.6,0.7-1.7,1.7-3.8,1.7c-0.4,0-1.5,0-2.5-0.6c-2.6-1.3-2.7-4.5-2.7-5.2c0-0.4,0-1.2,0.3-2.2
		c0.7-2,2.5-3.4,4.6-3.4c0.7,0,2.2,0.1,3.5,1.5c0.9,1,1.4,2.5,1.4,3.8v0.3H279c0,0.9,0.1,1.4,0.2,1.8c0.2,0.9,1,2.6,3.5,2.6
		c1,0,2.4-0.2,3.5-2.3l1.2,0.4C287.3,38.2,287,38.8,286.5,39.4z M282.5,30.9c-1.9,0-2.8,1.3-3.1,1.9c-0.2,0.5-0.3,1-0.4,1.5h6.8
		C285.5,31.5,283.7,30.9,282.5,30.9z"/>
	<path class="st4" d="M297.1,40.8v-5.6c0-1.4,0-2.3-0.2-2.9c-0.2-0.6-0.6-0.8-0.8-0.9c-0.6-0.4-1.2-0.3-1.5-0.3
		c-0.2,0-0.8,0-1.4,0.3c-0.8,0.4-1.4,1.2-1.6,2.1c-0.1,0.5-0.1,1.4-0.1,2.7v4.7H290V30h1.3v1.9c0.1-0.3,0.2-0.7,0.8-1.2
		c0.4-0.4,1.2-1,2.6-1c2,0,2.9,1.1,3.3,1.9c0.4,0.9,0.4,1.7,0.4,3.6v5.6H297.1z"/>
	<path class="st4" d="M304.7,41c-0.1,0-0.2,0-0.4,0c-0.3,0-1.1-0.1-1.4-1c-0.2-0.5-0.2-1.6-0.2-2.2v-6.7h-2.3V30h2.3v-4.6h1.3V30
		h2.4v1.1H304v6c0,0.4,0,0.8,0,1.2c0,0.6,0,1.6,0.9,1.6c0.5,0,1.1-0.4,1.5-0.7v1.4C306.1,40.7,305.5,41,304.7,41z"/>
	<path class="st4" d="M315.4,40.3c-0.4-0.4-0.5-0.9-0.5-1.4c-0.1,0.3-0.3,0.7-0.6,0.9c-0.4,0.5-1.6,1.3-3.3,1.3
		c-1.4,0-2.1-0.5-2.6-0.9c-0.3-0.3-0.8-1-0.8-2c0-0.3,0-1,0.6-1.7c0.8-1,2.2-1.3,3.3-1.7c0.7-0.2,1.4-0.4,2-0.5L315,34v-0.6
		c0-0.4,0-0.6-0.1-1c-0.2-0.7-0.8-1.4-2.5-1.4c-1.4,0-2.1,0.4-2.4,0.9c-0.3,0.5-0.4,1.1-0.4,1.7l-1.5-0.2c0-0.2,0.2-1.2,0.6-1.9
		c0.5-0.7,1.6-1.7,3.6-1.7c1.1,0,2.6,0.3,3.3,1.2c0.7,0.9,0.7,2,0.7,3.1v3.5c0,1,0,1.8,0.4,2.1c0.3,0.3,0.9,0.2,1.2,0.2v1.1
		C316.6,40.8,315.9,40.7,315.4,40.3z M315,35.1l-0.7,0.2c-2.1,0.6-3.9,1-4.6,1.5c-0.4,0.3-0.7,0.8-0.7,1.3c0,0.4,0.2,0.7,0.2,0.8
		c0.5,1,1.7,1,2,1c1.3,0,2.9-0.8,3.5-2c0.2-0.5,0.3-0.9,0.3-1.9V35.1z"/>
	<path class="st4" d="M326.9,39.2c-0.4,0.8-1.5,1.9-3.7,1.9c-0.7,0-2.4-0.1-3.6-1.6c-0.3-0.4-0.5-0.8-0.7-1.3l1.3-0.5
		c0.2,0.7,1,2.1,3,2.1c1,0,1.7-0.3,2-0.5c0.5-0.4,0.8-1,0.8-1.6c0-0.3-0.1-0.7-0.3-1c-0.3-0.5-0.9-0.7-2-1c-1.1-0.2-2.7-0.4-3.5-1.4
		c-0.4-0.5-0.6-1.1-0.6-1.7c0-0.3,0.1-1.4,0.9-2.1c0.7-0.7,2-0.9,2.9-0.9c0.3,0,1.7,0,2.6,0.7c0.8,0.6,1.1,1.4,1.2,1.7l-1.3,0.3
		c-0.2-1.2-1.5-1.6-2.6-1.6c-0.9,0-1.5,0.2-1.8,0.4c-0.1,0-0.3,0.2-0.5,0.5c-0.2,0.4-0.2,0.8-0.2,0.9c0,1.3,1.3,1.6,2.3,1.7l1.1,0.2
		c1,0.2,1.9,0.6,2.5,1.4c0.5,0.7,0.5,1.3,0.5,1.7C327.2,38,327.2,38.6,326.9,39.2z"/>
	<path class="st4" d="M343,40.8v-1.9c-0.5,1.4-1.9,2.2-3.3,2.2c-0.4,0-1.3-0.1-2.2-0.7c-2.2-1.4-2.2-4.4-2.2-5c0-0.7,0.1-3.6,2.3-5
		c0.4-0.2,1.2-0.7,2.3-0.7c0.9,0,1.8,0.3,2.4,0.9c0.5,0.5,0.6,0.8,0.7,1.1v-6.9h1.3v16H343z M341.8,31.6c-0.3-0.2-0.9-0.5-1.8-0.5
		c-0.3,0-0.8,0-1.4,0.3c-0.9,0.5-1.9,1.7-1.9,4.1c0,0.4,0,4.4,3.2,4.4c0.8,0,1.5-0.2,2.1-0.8c0.9-0.9,1-2.3,1-3.5
		C343.1,33.3,342.7,32.2,341.8,31.6z"/>
	<path class="st4" d="M356.1,39.4c-0.6,0.7-1.7,1.7-3.8,1.7c-0.4,0-1.5,0-2.5-0.6c-2.6-1.3-2.7-4.5-2.7-5.2c0-0.4,0-1.2,0.3-2.2
		c0.7-2,2.5-3.4,4.6-3.4c0.7,0,2.2,0.1,3.5,1.5c0.9,1,1.4,2.5,1.4,3.8v0.3h-8.4c0,0.9,0.1,1.4,0.2,1.8c0.2,0.9,1,2.6,3.5,2.6
		c1,0,2.4-0.2,3.5-2.3l1.2,0.4C356.8,38.2,356.5,38.8,356.1,39.4z M352,30.9c-1.9,0-2.8,1.3-3.1,1.9c-0.2,0.5-0.3,1-0.4,1.5h6.8
		C355,31.5,353.2,30.9,352,30.9z"/>
	<path class="st4" d="M376.4,40.8L367,27v13.8h-1.5v-16h1.5l9.5,13.7l-0.1-13.7h1.5v16H376.4z"/>
	<path class="st4" d="M389.7,39.4c-0.6,0.7-1.7,1.7-3.8,1.7c-0.4,0-1.5,0-2.5-0.6c-2.6-1.3-2.7-4.5-2.7-5.2c0-0.4,0-1.2,0.3-2.2
		c0.7-2,2.5-3.4,4.6-3.4c0.7,0,2.2,0.1,3.5,1.5c0.9,1,1.4,2.5,1.4,3.8v0.3h-8.4c0,0.9,0.1,1.4,0.2,1.8c0.2,0.9,1,2.6,3.5,2.6
		c1,0,2.4-0.2,3.5-2.3l1.2,0.4C390.4,38.2,390.2,38.8,389.7,39.4z M385.7,30.9c-1.9,0-2.8,1.3-3.1,1.9c-0.2,0.5-0.3,1-0.4,1.5h6.8
		C388.7,31.5,386.8,30.9,385.7,30.9z"/>
	<path class="st4" d="M402,42.3c0,0.4-0.1,1.9-1.1,2.9c-0.6,0.6-1.8,1.2-3.7,1.2c-0.5,0-3.1,0-4.2-2.1c-0.4-0.7-0.5-1.5-0.5-1.8
		l1.4-0.2c0.2,1.2,0.5,2.9,3.4,2.9c0.4,0,2.2,0,2.9-1.5c0.4-0.8,0.3-1.6,0.4-3.3c0-0.4,0-0.8,0-1.2v-0.5c0,0.1-0.1,0.4-0.2,0.6
		c-0.4,0.7-1.4,1.7-3.4,1.7c-1.1,0-1.8-0.3-2.2-0.5c-2.4-1.4-2.5-4.5-2.5-5.1c0-1.9,0.6-3.9,2.3-4.9c0.4-0.2,1.2-0.6,2.4-0.6
		c0.4,0,1.6,0,2.6,0.9c0.4,0.3,0.7,0.7,0.8,0.9c0.1,0.2,0.2,0.4,0.2,0.5v-2h1.3v9.6C402.1,40.5,402.1,41.4,402,42.3z M400,32.1
		c-0.3-0.5-1.1-1.2-2.6-1.2c-0.2,0-0.7,0-1.2,0.2c-2.3,0.9-2.3,3.7-2.3,4.2c0,1.6,0.5,2.7,0.8,3.2c0.3,0.5,0.8,0.9,1.3,1.1
		c0.6,0.2,1.1,0.2,1.3,0.2c0.3,0,1.2,0,2.1-0.6c1.2-0.8,1.3-2.4,1.4-3.7C400.7,35.3,400.8,33.3,400,32.1z"/>
	<path class="st4" d="M414.3,37.5c-0.7,2.2-2.4,3.6-4.7,3.6c-0.7,0-2.5-0.1-3.7-1.8c-0.5-0.7-1.1-1.8-1.1-3.7c0-0.5,0-1.5,0.5-2.7
		c1.1-2.7,3.4-3.1,4.4-3.1c1.2,0,2.3,0.4,3.2,1.2c1.2,1.2,1.7,2.8,1.7,4.4C414.6,35.7,414.6,36.6,414.3,37.5z M409.7,30.9
		c-0.3,0-1.2,0-1.9,0.6c-0.8,0.6-1.5,1.8-1.5,4.1c0,0.4,0,2.6,1.4,3.7c0.3,0.3,1,0.6,2,0.6c1.6,0,3.5-1,3.5-4.4
		C413.2,32,411.4,30.9,409.7,30.9z"/>
	<path class="st4" d="M424.7,40c-0.5,0.5-1.5,1.1-3.1,1.1c-0.6,0-2.1,0-3.3-1.2c-1.6-1.5-1.7-3.8-1.7-4.4c0-0.8,0.1-1.5,0.3-2.2
		c0.7-2.2,2.5-3.5,4.8-3.5c1.7,0,2.6,0.7,3.1,1.2c0.6,0.6,0.8,1.2,1,1.5l-1.2,0.3c-0.5-1.2-1.7-1.8-2.9-1.8c-0.4,0-1.4,0-2.2,0.8
		c-1.4,1.2-1.4,3.2-1.4,3.7c0,0.3,0,2.2,1,3.4c0.2,0.2,0.5,0.5,1.1,0.8c0.3,0.1,0.7,0.3,1.5,0.3c1.4,0,2.3-0.6,2.9-1.8l1.4,0.3
		C425.6,39,425.2,39.6,424.7,40z"/>
	<path class="st4" d="M428.1,27.5v-2.1h1.3v2.1H428.1z M428.1,40.8V30h1.3v10.8H428.1z"/>
	<path class="st4" d="M441.6,37.5c-0.7,2.2-2.4,3.6-4.7,3.6c-0.7,0-2.5-0.1-3.7-1.8c-0.5-0.7-1.1-1.8-1.1-3.7c0-0.5,0-1.5,0.5-2.7
		c1.1-2.7,3.4-3.1,4.4-3.1c1.2,0,2.3,0.4,3.2,1.2c1.2,1.2,1.7,2.8,1.7,4.4C441.9,35.7,441.9,36.6,441.6,37.5z M437,30.9
		c-0.3,0-1.2,0-1.9,0.6c-0.8,0.6-1.5,1.8-1.5,4.1c0,0.4,0,2.6,1.4,3.7c0.3,0.3,1,0.6,2,0.6c1.6,0,3.5-1,3.5-4.4
		C440.5,32,438.7,30.9,437,30.9z"/>
	<path class="st4" d="M451.7,39.2c-0.4,0.8-1.5,1.9-3.7,1.9c-0.7,0-2.4-0.1-3.6-1.6c-0.3-0.4-0.5-0.8-0.7-1.3l1.3-0.5
		c0.2,0.7,1,2.1,3,2.1c1,0,1.7-0.3,2-0.5c0.5-0.4,0.8-1,0.8-1.6c0-0.3-0.1-0.7-0.3-1c-0.3-0.5-0.9-0.7-2-1c-1.1-0.2-2.7-0.4-3.5-1.4
		c-0.4-0.5-0.6-1.1-0.6-1.7c0-0.3,0.1-1.4,0.9-2.1c0.7-0.7,2-0.9,2.9-0.9c0.3,0,1.7,0,2.6,0.7c0.8,0.6,1.1,1.4,1.2,1.7l-1.3,0.3
		c-0.2-1.2-1.5-1.6-2.6-1.6c-0.9,0-1.5,0.2-1.8,0.4c-0.1,0-0.3,0.2-0.5,0.5c-0.2,0.4-0.2,0.8-0.2,0.9c0,1.3,1.3,1.6,2.3,1.7l1.1,0.2
		c1,0.2,1.9,0.6,2.5,1.4c0.5,0.7,0.5,1.3,0.5,1.7C452.1,38,452,38.6,451.7,39.2z"/>
</g>
<linearGradient id="SVGID_3_" gradientUnits="userSpaceOnUse" x1="299.87" y1="295.3623" x2="299.87" y2="24.4723" gradientTransform="matrix(1 0 0 -1 0 347.7323)">
	<stop  offset="0" style="stop-color:#40BFEF"/>
	<stop  offset="1" style="stop-color:#1470B5"/>
</linearGradient>
<polygon class="st5" points="391.5,323.3 391.5,52.4 208.2,52.4 208.2,323.3 208.2,323.3 "/>
<linearGradient id="SVGID_4_" gradientUnits="userSpaceOnUse" x1="297.545" y1="204.2123" x2="297.545" y2="35.9323" gradientTransform="matrix(1 0 0 -1 0 347.7323)">
	<stop  offset="0" style="stop-color:#F8F6F6"/>
	<stop  offset="1" style="stop-color:#E5E7E9"/>
</linearGradient>
<rect x="6.8" y="143.5" class="st6" width="581.5" height="168.3"/>
<rect x="6.8" y="197.2" class="st7" width="581.5" height="57.9"/>
<rect x="6.8" y="143.5" class="st8" width="580.1" height="34.6"/>
<rect x="208.2" y="52.4" class="st9" width="1.5" height="270.9"/>
<rect x="206.7" y="52.4" class="st7" width="1.5" height="270.9"/>
<rect x="391.5" y="52.4" class="st9" width="1.5" height="270.9"/>
<rect x="390" y="52.4" class="st7" width="1.5" height="270.9"/>
<g class="st3">
	<path class="st10" d="M39,168.4c-0.7,0.6-1.7,1.3-3.8,1.3c-0.4,0-2,0-3.3-0.8c-0.4-0.2-0.7-0.6-1-0.9c-0.7-0.9-0.8-2-0.8-2.4
		l1.7-0.2c0,0.4,0.1,1.4,0.8,2.2c0.4,0.4,1.2,1,2.6,1c0.2,0,0.6,0,1.1-0.1c0.5-0.1,1.9-0.6,1.9-2.3c0-0.8-0.3-1.1-0.6-1.4
		c-0.5-0.4-1.1-0.5-1.7-0.6l-1-0.2c-0.9-0.2-1.8-0.4-2.6-0.8c-1.4-0.8-1.6-1.9-1.6-2.6c0-1,0.4-1.7,1.1-2.3c1.2-1,2.7-1,3.2-1
		c1.2,0,2.3,0.2,3.2,0.9c0.6,0.4,0.8,0.8,1,1.1c0.3,0.5,0.5,1.1,0.6,1.7l-1.6,0.1c0-0.2-0.1-0.5-0.1-0.7c-0.2-0.8-1-1.8-3-1.8
		c-0.8,0-1.8,0.2-2.3,0.8c-0.3,0.3-0.4,0.7-0.4,1.1c0,0.2,0,0.5,0.3,0.9c0.5,0.6,1.4,0.8,2.1,1l1.3,0.3c0.3,0.1,0.6,0.2,0.9,0.2
		c0.4,0.1,1.8,0.4,2.6,1.6c0.2,0.3,0.4,0.8,0.4,1.7C40,166.4,39.9,167.4,39,168.4z"/>
	<path class="st10" d="M48.2,168c-0.4,0.6-1.3,1.6-3.1,1.6c-0.8,0-1.4-0.2-1.7-0.3c-1-0.4-2.2-1.5-2.2-4c0-1.5,0.5-2.3,0.9-2.8
		c0.7-0.9,1.8-1.4,3-1.4c0.4,0,0.9,0.1,1.3,0.2c0.5,0.2,1.5,0.6,2,1.9c0.2,0.5,0.4,1.2,0.4,2.4h-6.1c0,1.4,0.7,2.2,1.2,2.6
		c0.4,0.3,0.9,0.4,1.4,0.4c0.7,0,1.1-0.3,1.3-0.5c0.1-0.1,0.3-0.3,0.4-0.5c0.2-0.4,0.3-0.7,0.3-0.8l1.4,0.2
		C48.6,167.1,48.5,167.6,48.2,168z M47.1,163.8c-0.3-1-1.1-1.7-2.2-1.7c-1.4,0-2.2,1.2-2.3,2.5h4.6C47.2,164.2,47.2,164,47.1,163.8z
		"/>
	<path class="st10" d="M57.3,171c-0.4,1.5-1.6,1.9-2.1,2.1c-0.3,0.1-0.7,0.2-1.4,0.2c-0.2,0-0.7,0-1.3-0.2c-1.9-0.5-2.2-2.1-2.3-2.8
		h1.5c0,0.2,0,0.7,0.3,1.1c0.6,0.8,1.6,0.8,1.9,0.8c0.2,0,1.4,0,1.9-0.8c0.3-0.5,0.4-1.1,0.3-2.2l0-0.9c-0.9,1.3-2,1.4-2.6,1.4
		c-0.8,0-1.4-0.3-1.7-0.4c-0.9-0.5-2-1.5-2-3.8c0-0.4,0-1.8,0.8-2.9c0.7-0.9,1.5-1.4,2.9-1.4c0.2,0,0.6,0,1.1,0.2
		c0.4,0.1,0.9,0.4,1.5,1.1v-1.1h1.4v7.6C57.4,170,57.4,170.4,57.3,171z M55.9,164c-0.4-1.1-1.3-1.7-2.4-1.7c-0.4,0-0.7,0.1-1,0.2
		c-0.6,0.3-1.4,1.2-1.4,2.8c0,0.9,0.2,1.9,1,2.5c0.4,0.3,1,0.5,1.5,0.5c0.8,0,1.3-0.3,1.5-0.5c0.5-0.4,0.9-1.2,0.9-2.6
		C56.1,165.1,56.1,164.5,55.9,164z"/>
	<path class="st10" d="M64.6,169.3l0-1.2c-0.1,0.1-0.2,0.2-0.3,0.4c-0.6,0.6-1.5,1-2.4,1c-0.3,0-1.5-0.1-2.1-1.1
		c-0.5-0.8-0.4-1.6-0.4-2.5v-4.7h1.3v4.5c0,0.8,0,1.2,0.2,1.6c0.2,0.3,0.6,0.8,1.5,0.8c0.3,0,1.3-0.1,1.9-0.9c0.4-0.6,0.4-1.3,0.4-2
		v-4h1.3v8H64.6z"/>
	<path class="st10" d="M70.9,162.7c-0.8,0.1-1.4,0.7-1.6,1.5c-0.1,0.4-0.1,0.7-0.1,1.5v3.7h-1.4v-8h1.4v1.5c0.2-0.4,0.4-0.7,0.7-0.9
		c0.3-0.3,1-0.6,2-0.6v1.5C71.4,162.6,71.1,162.7,70.9,162.7z"/>
	<path class="st10" d="M79.3,168.3c-0.4,0.5-1.3,1.3-3,1.3c-0.5,0-1.8-0.1-2.8-1.1c-0.5-0.5-1.2-1.5-1.2-3.2c0-1,0.3-2.1,0.9-2.9
		c0.8-1,1.8-1.4,3.1-1.4c0.5,0,1.1,0.1,1.6,0.3c0.9,0.4,2.3,1.5,2.3,4C80.2,165.8,80.1,167.2,79.3,168.3z M78.3,163.3
		c-0.1-0.2-0.3-0.5-0.5-0.6c-0.6-0.5-1.2-0.5-1.5-0.5c-2.6,0-2.5,2.8-2.5,3.3c0,0.4,0.1,0.7,0.1,0.8c0.1,0.6,0.5,2.3,2.4,2.3
		c0.4,0,1.3-0.1,1.9-1c0.5-0.8,0.5-2,0.5-2.2C78.8,165.1,78.8,164.1,78.3,163.3z"/>
	<path class="st10" d="M91.9,169.3v-1c-0.4,0.5-1.2,1.3-2.7,1.3c-1.5,0-2.3-0.7-2.7-1.2c-0.5-0.5-1-1.5-1-3.1c0-1,0.2-2,0.8-2.8
		c0.4-0.5,1.2-1.4,2.9-1.4c1.1,0,1.9,0.5,2.3,0.8c0.2,0.2,0.3,0.3,0.5,0.5v-5h1.4v12H91.9z M91.8,164.3c-0.3-1.2-1.2-2-2.4-2
		c-0.4,0-1.2,0.1-1.8,0.8c-0.5,0.6-0.7,1.4-0.7,2.2c0,0.3,0,1.3,0.6,2.2c0.6,0.8,1.5,0.9,1.9,0.9c0.5,0,0.9-0.1,1.3-0.3
		c0.6-0.4,1.2-1.2,1.2-2.7C91.9,165.2,91.9,164.7,91.8,164.3z"/>
	<path class="st10" d="M101.7,168c-0.4,0.6-1.3,1.6-3.1,1.6c-0.8,0-1.4-0.2-1.7-0.3c-1-0.4-2.2-1.5-2.2-4c0-1.5,0.5-2.3,0.9-2.8
		c0.7-0.9,1.8-1.4,3-1.4c0.4,0,0.9,0.1,1.3,0.2c0.5,0.2,1.5,0.6,2,1.9c0.2,0.5,0.4,1.2,0.4,2.4h-6.1c0,1.4,0.7,2.2,1.2,2.6
		c0.4,0.3,0.9,0.4,1.4,0.4c0.7,0,1.1-0.3,1.3-0.5c0.1-0.1,0.3-0.3,0.4-0.5c0.2-0.4,0.3-0.7,0.3-0.8l1.4,0.2
		C102.1,167.1,102,167.6,101.7,168z M100.6,163.8c-0.3-1-1.1-1.7-2.2-1.7c-1.4,0-2.2,1.2-2.3,2.5h4.6
		C100.7,164.2,100.6,164,100.6,163.8z"/>
	<path class="st10" d="M115.8,169.3l-1.3-3.7H110l-1.3,3.7h-1.7l4.6-12h1.7l4.4,12H115.8z M112.3,159.3l-1.8,5h3.6L112.3,159.3z"/>
	<path class="st10" d="M124.4,168.9c-0.9,0.7-2.1,0.7-2.4,0.7c-0.2,0-0.9,0-1.5-0.2c-1-0.3-2.5-1.4-2.5-4c0-2.6,1.4-3.7,2.4-4.1
		c0.6-0.2,1.2-0.2,1.5-0.2c2.1,0,3.1,1.2,3.5,2c0.1,0.3,0.2,0.4,0.2,0.7l-1.5,0.1c0-0.1-0.1-0.6-0.3-0.9c-0.6-0.9-1.5-0.9-1.8-0.9
		c-1.2,0-2.4,0.8-2.4,3.2c0,1.4,0.5,2.2,0.9,2.6c0.5,0.4,1,0.6,1.6,0.6c0.4,0,0.7-0.1,1-0.2c0.9-0.4,1.1-1.2,1.2-2l1.5,0.1
		C125.5,167.8,124.8,168.6,124.4,168.9z"/>
	<path class="st10" d="M132.9,168.9c-0.9,0.7-2.1,0.7-2.4,0.7c-0.2,0-0.9,0-1.5-0.2c-1-0.3-2.5-1.4-2.5-4c0-2.6,1.4-3.7,2.4-4.1
		c0.6-0.2,1.2-0.2,1.5-0.2c2.1,0,3.1,1.2,3.5,2c0.1,0.3,0.2,0.4,0.2,0.7l-1.5,0.1c0-0.1-0.1-0.6-0.3-0.9c-0.6-0.9-1.5-0.9-1.8-0.9
		c-1.2,0-2.4,0.8-2.4,3.2c0,1.4,0.5,2.2,0.9,2.6c0.5,0.4,1,0.6,1.6,0.6c0.4,0,0.7-0.1,1-0.2c0.9-0.4,1.1-1.2,1.2-2l1.5,0.1
		C134,167.8,133.4,168.6,132.9,168.9z"/>
	<path class="st10" d="M135.6,158.9v-1.6h1.3v1.6H135.6z M135.6,169.3v-8h1.3v8H135.6z"/>
	<path class="st10" d="M144.7,169.3v-1c-0.4,0.5-1.2,1.3-2.7,1.3c-1.5,0-2.3-0.7-2.7-1.2c-0.5-0.5-1-1.5-1-3.1c0-1,0.2-2,0.8-2.8
		c0.4-0.5,1.2-1.4,2.9-1.4c1.1,0,1.9,0.5,2.3,0.8c0.2,0.2,0.3,0.3,0.5,0.5v-5h1.4v12H144.7z M144.6,164.3c-0.3-1.2-1.2-2-2.4-2
		c-0.4,0-1.2,0.1-1.8,0.8c-0.5,0.6-0.7,1.4-0.7,2.2c0,0.3,0,1.3,0.6,2.2c0.6,0.8,1.5,0.9,1.9,0.9c0.5,0,0.9-0.1,1.3-0.3
		c0.6-0.4,1.2-1.2,1.2-2.7C144.7,165.2,144.7,164.7,144.6,164.3z"/>
	<path class="st10" d="M154.4,168c-0.4,0.6-1.3,1.6-3.1,1.6c-0.8,0-1.4-0.2-1.7-0.3c-1-0.4-2.2-1.5-2.2-4c0-1.5,0.5-2.3,0.9-2.8
		c0.7-0.9,1.8-1.4,3-1.4c0.4,0,0.9,0.1,1.3,0.2c0.5,0.2,1.5,0.6,2,1.9c0.2,0.5,0.4,1.2,0.4,2.4h-6.1c0,1.4,0.7,2.2,1.2,2.6
		c0.4,0.3,0.9,0.4,1.4,0.4c0.7,0,1.1-0.3,1.3-0.5c0.1-0.1,0.3-0.3,0.4-0.5c0.2-0.4,0.3-0.7,0.3-0.8l1.4,0.2
		C154.9,167.1,154.7,167.6,154.4,168z M153.4,163.8c-0.3-1-1.1-1.7-2.2-1.7c-1.4,0-2.2,1.2-2.3,2.5h4.6
		C153.5,164.2,153.4,164,153.4,163.8z"/>
	<path class="st10" d="M161.7,169.3v-5.1c0-0.2,0.1-1-0.6-1.5c-0.2-0.2-0.6-0.4-1.2-0.4c-0.6,0-1.1,0.2-1.5,0.6
		c-0.1,0.1-0.3,0.4-0.5,0.7c-0.2,0.4-0.2,0.7-0.2,1.1v4.5h-1.4v-8h1.4v1.2c0.2-0.3,0.3-0.5,0.4-0.6c0.3-0.3,1-0.9,2.1-0.9
		c0.4,0,1.6,0.1,2.3,1.1c0.5,0.7,0.5,1.5,0.5,2.4v4.8H161.7z"/>
	<path class="st10" d="M166.9,169.5c-0.8,0-1.2-0.2-1.4-0.5c-0.2-0.3-0.2-0.6-0.2-1.3v-5.2H164v-1.1h1.3v-2.5h1.4v2.5h1.4v1.1h-1.4
		v4.6c0,0.6,0,0.9,0.1,1.1c0.1,0.2,0.3,0.2,0.5,0.2c0.2,0,0.5-0.1,0.8-0.2v1.1C168.1,169.4,167.4,169.5,166.9,169.5z"/>
	<path class="st10" d="M176.1,168c-0.4,0.6-1.3,1.6-3.1,1.6c-0.8,0-1.4-0.2-1.7-0.3c-1-0.4-2.2-1.5-2.2-4c0-1.5,0.5-2.3,0.9-2.8
		c0.7-0.9,1.8-1.4,3-1.4c0.4,0,0.9,0.1,1.3,0.2c0.5,0.2,1.5,0.6,2,1.9c0.2,0.5,0.4,1.2,0.4,2.4h-6.1c0,1.4,0.7,2.2,1.2,2.6
		c0.4,0.3,0.9,0.4,1.4,0.4c0.7,0,1.1-0.3,1.3-0.5c0.1-0.1,0.3-0.3,0.4-0.5c0.2-0.4,0.3-0.7,0.3-0.8l1.4,0.2
		C176.5,167.1,176.4,167.6,176.1,168z M175,163.8c-0.3-1-1.1-1.7-2.2-1.7c-1.4,0-2.2,1.2-2.3,2.5h4.6C175.1,164.2,175,164,175,163.8
		z"/>
	<path class="st10" d="M184.1,168.3c-0.4,0.6-1.3,1.3-3,1.3c-0.2,0-1.5,0-2.4-0.6c-0.1-0.1-0.3-0.2-0.6-0.5
		c-0.6-0.7-0.7-1.4-0.7-1.7l1.5-0.2c0,0.5,0.1,1,0.4,1.4c0.5,0.5,1.1,0.6,1.8,0.6c0.2,0,1,0,1.5-0.5c0.4-0.3,0.4-0.7,0.4-0.9
		c0-0.1,0-0.4-0.2-0.6c-0.3-0.5-1.1-0.6-1.5-0.7l-0.8-0.2c-1-0.2-1.5-0.4-1.9-0.6c-0.6-0.4-1-0.9-1-1.7c0-0.2,0-0.8,0.4-1.3
		c0.8-1.1,2.4-1.1,2.7-1.1c1.7,0,2.6,0.8,3,1.4c0.3,0.5,0.4,1,0.4,1.2l-1.5,0.2c0-0.4,0-0.6-0.1-0.7c-0.2-0.4-0.9-1-2-1
		c-1.1,0-1.6,0.7-1.6,1.2c0,0.1,0,0.2,0.1,0.4c0.3,0.4,0.9,0.6,1.8,0.8l0.8,0.2c0.2,0.1,0.5,0.1,0.7,0.2c1.1,0.3,1.9,0.9,1.9,2.1
		C184.5,167.3,184.4,167.8,184.1,168.3z"/>
</g>
<g class="st3">
	<path class="st10" d="M79.1,182.3c-0.4,0.1-0.9,0.2-1.8,0.2h-3.5v5.1h-1.5v-12h5.2c0.9,0,1.7,0,2.5,0.5c1.3,0.8,1.4,2.4,1.4,2.9
		C81.4,180.4,80.6,181.8,79.1,182.3z M79.7,178c-0.2-0.6-0.7-0.9-1.2-1.1c-0.4-0.1-0.6-0.1-1-0.1h-3.7v4.1h3.3c0.4,0,0.9,0,1.3-0.1
		c1-0.3,1.4-1.1,1.4-2.1C79.8,178.7,79.8,178.4,79.7,178z"/>
	<path class="st10" d="M88.9,186.2c-0.4,0.6-1.3,1.6-3.1,1.6c-0.8,0-1.4-0.2-1.7-0.3c-1-0.4-2.2-1.5-2.2-4c0-1.5,0.5-2.3,0.9-2.8
		c0.7-0.9,1.8-1.4,3-1.4c0.4,0,0.9,0.1,1.3,0.2c0.5,0.2,1.5,0.6,2,1.9c0.2,0.5,0.4,1.2,0.4,2.4h-6.1c0,1.4,0.7,2.2,1.2,2.6
		c0.4,0.3,0.9,0.4,1.4,0.4c0.7,0,1.1-0.3,1.3-0.5c0.1-0.1,0.3-0.3,0.4-0.5c0.2-0.4,0.3-0.7,0.3-0.8l1.4,0.2
		C89.4,185.2,89.2,185.7,88.9,186.2z M87.8,182c-0.3-1-1.1-1.7-2.2-1.7c-1.4,0-2.2,1.2-2.3,2.5H88C87.9,182.3,87.9,182.2,87.8,182z"
		/>
	<path class="st10" d="M93.9,180.8c-0.8,0.1-1.4,0.7-1.6,1.5c-0.1,0.4-0.1,0.7-0.1,1.5v3.7h-1.4v-8h1.4v1.5c0.2-0.4,0.4-0.7,0.7-0.9
		c0.3-0.3,1-0.6,2-0.6v1.5C94.4,180.8,94.2,180.8,93.9,180.8z"/>
	<path class="st10" d="M101.9,186.4c-0.4,0.6-1.3,1.3-3,1.3c-0.2,0-1.5,0-2.4-0.6c-0.1-0.1-0.3-0.2-0.6-0.5
		c-0.6-0.7-0.7-1.4-0.7-1.7l1.5-0.2c0,0.5,0.1,1,0.4,1.4c0.5,0.5,1.1,0.6,1.8,0.6c0.2,0,1,0,1.5-0.5c0.4-0.3,0.4-0.7,0.4-0.9
		c0-0.1,0-0.4-0.2-0.6c-0.3-0.5-1.1-0.6-1.5-0.7l-0.8-0.2c-1-0.2-1.5-0.4-1.9-0.6c-0.6-0.4-1-0.9-1-1.7c0-0.2,0-0.8,0.4-1.3
		c0.8-1.1,2.4-1.1,2.7-1.1c1.7,0,2.6,0.8,3,1.4c0.3,0.5,0.4,1,0.4,1.2l-1.5,0.2c0-0.4,0-0.6-0.1-0.7c-0.2-0.4-0.9-1-2-1
		c-1.1,0-1.6,0.7-1.6,1.2c0,0.1,0,0.2,0.1,0.4c0.3,0.4,0.9,0.6,1.8,0.8l0.8,0.2c0.2,0.1,0.5,0.1,0.7,0.2c1.1,0.3,1.9,0.9,1.9,2.1
		C102.3,185.4,102.3,185.9,101.9,186.4z"/>
	<path class="st10" d="M110.1,186.4c-0.4,0.5-1.3,1.3-3,1.3c-0.5,0-1.8-0.1-2.8-1.1c-0.5-0.5-1.2-1.5-1.2-3.2c0-1,0.3-2.1,0.9-2.9
		c0.8-1,1.8-1.4,3.1-1.4c0.5,0,1.1,0.1,1.6,0.3c0.9,0.4,2.3,1.5,2.3,4C111,183.9,111,185.3,110.1,186.4z M109.2,181.4
		c-0.1-0.2-0.3-0.5-0.5-0.6c-0.6-0.5-1.2-0.5-1.5-0.5c-2.6,0-2.5,2.8-2.5,3.3c0,0.4,0.1,0.7,0.1,0.8c0.1,0.6,0.5,2.3,2.4,2.3
		c0.4,0,1.3-0.1,1.9-1c0.5-0.8,0.5-2,0.5-2.2C109.6,183.3,109.6,182.2,109.2,181.4z"/>
	<path class="st10" d="M117.7,187.5v-5.1c0-0.2,0.1-1-0.6-1.5c-0.2-0.2-0.6-0.4-1.2-0.4c-0.6,0-1.1,0.2-1.5,0.6
		c-0.1,0.1-0.3,0.4-0.5,0.7c-0.2,0.4-0.2,0.7-0.2,1.1v4.5h-1.4v-8h1.4v1.2c0.2-0.3,0.3-0.5,0.4-0.6c0.3-0.3,1-0.9,2.1-0.9
		c0.4,0,1.6,0.1,2.3,1.1c0.5,0.7,0.5,1.5,0.5,2.4v4.8H117.7z"/>
	<path class="st10" d="M127.3,187.6c-0.1,0-0.5,0-0.8-0.2c-0.1-0.1-0.2-0.3-0.3-0.3c-0.2-0.3-0.2-0.5-0.3-0.7
		c-0.4,0.4-1.2,1.3-2.7,1.3c-0.5,0-0.9-0.1-1.1-0.2c-1-0.3-1.6-1.1-1.6-2.1c0-0.4,0.1-1.1,0.9-1.7c0.8-0.6,2.2-0.8,3.2-0.9l1.2-0.1
		c0-0.2,0-0.4,0-0.7c0-0.6-0.1-1.8-1.8-1.8c-0.3,0-1.3,0-1.6,1c-0.1,0.3-0.1,0.4-0.1,0.7l-1.4-0.1c0-0.2,0-0.4,0.1-0.8
		c0.3-0.8,1-1.8,2.9-1.8c0.2,0,0.7,0,1.3,0.2c0.3,0.1,1.4,0.4,1.8,1.5c0.2,0.4,0.2,0.8,0.2,1.7v2.6c0,0.2,0,0.4,0,0.5
		c0,0.2,0,0.6,0.6,0.6c0.2,0,0.3,0,0.4-0.1v1.1C127.7,187.6,127.5,187.6,127.3,187.6z M125.7,183.7v-0.2c-0.6,0.1-2.2,0.3-2.9,0.6
		c-0.3,0.1-1,0.4-1,1.2c0,0.6,0.4,1.2,1.5,1.2c0.7,0,2.3-0.3,2.3-2.4C125.8,184.1,125.7,183.9,125.7,183.7z"/>
	<path class="st10" d="M129.2,187.5v-12h1.3v12H129.2z"/>
	<path class="st10" d="M138.9,186.2c-0.4,0.6-1.3,1.6-3.1,1.6c-0.8,0-1.4-0.2-1.7-0.3c-1-0.4-2.2-1.5-2.2-4c0-1.5,0.5-2.3,0.9-2.8
		c0.7-0.9,1.8-1.4,3-1.4c0.4,0,0.9,0.1,1.3,0.2c0.5,0.2,1.5,0.6,2,1.9c0.2,0.5,0.4,1.2,0.4,2.4h-6.1c0,1.4,0.7,2.2,1.2,2.6
		c0.4,0.3,0.9,0.4,1.4,0.4c0.7,0,1.1-0.3,1.3-0.5c0.1-0.1,0.3-0.3,0.4-0.5c0.2-0.4,0.3-0.7,0.3-0.8l1.4,0.2
		C139.3,185.2,139.2,185.7,138.9,186.2z M137.8,182c-0.3-1-1.1-1.7-2.2-1.7c-1.4,0-2.2,1.2-2.3,2.5h4.6
		C137.9,182.3,137.9,182.2,137.8,182z"/>
	<path class="st10" d="M146.9,186.4c-0.4,0.6-1.3,1.3-3,1.3c-0.2,0-1.5,0-2.4-0.6c-0.1-0.1-0.3-0.2-0.6-0.5
		c-0.6-0.7-0.7-1.4-0.7-1.7l1.5-0.2c0,0.5,0.1,1,0.4,1.4c0.5,0.5,1.1,0.6,1.8,0.6c0.2,0,1,0,1.5-0.5c0.4-0.3,0.4-0.7,0.4-0.9
		c0-0.1,0-0.4-0.2-0.6c-0.3-0.5-1.1-0.6-1.5-0.7l-0.8-0.2c-1-0.2-1.5-0.4-1.9-0.6c-0.6-0.4-1-0.9-1-1.7c0-0.2,0-0.8,0.4-1.3
		c0.8-1.1,2.4-1.1,2.7-1.1c1.7,0,2.6,0.8,3,1.4c0.3,0.5,0.4,1,0.4,1.2l-1.5,0.2c0-0.4,0-0.6-0.1-0.7c-0.2-0.4-0.9-1-2-1
		c-1.1,0-1.6,0.7-1.6,1.2c0,0.1,0,0.2,0.1,0.4c0.3,0.4,0.9,0.6,1.8,0.8l0.8,0.2c0.2,0.1,0.5,0.1,0.7,0.2c1.1,0.3,1.9,0.9,1.9,2.1
		C147.3,185.4,147.3,185.9,146.9,186.4z"/>
</g>
<g class="st3">
	<path class="st10" d="M230.2,168.4c-0.7,0.6-1.7,1.3-3.8,1.3c-0.4,0-2,0-3.3-0.8c-0.4-0.2-0.7-0.6-1-0.9c-0.7-0.9-0.8-2-0.8-2.4
		l1.7-0.2c0,0.4,0.1,1.4,0.8,2.2c0.4,0.4,1.2,1,2.6,1c0.2,0,0.6,0,1.1-0.1c0.5-0.1,1.9-0.6,1.9-2.3c0-0.8-0.3-1.1-0.6-1.4
		c-0.5-0.4-1.1-0.5-1.7-0.6l-1-0.2c-0.9-0.2-1.8-0.4-2.6-0.8c-1.4-0.8-1.6-1.9-1.6-2.6c0-1,0.4-1.7,1.1-2.3c1.2-1,2.7-1,3.2-1
		c1.2,0,2.3,0.2,3.2,0.9c0.6,0.4,0.8,0.8,1,1.1c0.3,0.5,0.5,1.1,0.6,1.7l-1.6,0.1c0-0.2-0.1-0.5-0.1-0.7c-0.2-0.8-1-1.8-3-1.8
		c-0.8,0-1.8,0.2-2.3,0.8c-0.3,0.3-0.4,0.7-0.4,1.1c0,0.2,0,0.5,0.3,0.9c0.5,0.6,1.4,0.8,2.1,1l1.3,0.3c0.3,0.1,0.6,0.2,0.9,0.2
		c0.4,0.1,1.8,0.4,2.6,1.6c0.2,0.3,0.4,0.8,0.4,1.7C231.2,166.4,231.1,167.4,230.2,168.4z"/>
	<path class="st10" d="M239.3,168c-0.4,0.6-1.3,1.6-3.1,1.6c-0.8,0-1.4-0.2-1.7-0.3c-1-0.4-2.2-1.5-2.2-4c0-1.5,0.5-2.3,0.9-2.8
		c0.7-0.9,1.8-1.4,3-1.4c0.4,0,0.9,0.1,1.3,0.2c0.5,0.2,1.5,0.6,2,1.9c0.2,0.5,0.4,1.2,0.4,2.4h-6.1c0,1.4,0.7,2.2,1.2,2.6
		c0.4,0.3,0.9,0.4,1.4,0.4c0.7,0,1.1-0.3,1.3-0.5c0.1-0.1,0.3-0.3,0.4-0.5c0.2-0.4,0.3-0.7,0.3-0.8l1.4,0.2
		C239.8,167.1,239.6,167.5,239.3,168z M238.3,163.8c-0.3-1-1.1-1.7-2.2-1.7c-1.4,0-2.2,1.2-2.3,2.5h4.6
		C238.3,164.2,238.3,164,238.3,163.8z"/>
	<path class="st10" d="M248.4,171c-0.4,1.5-1.6,1.9-2.1,2.1c-0.3,0.1-0.7,0.2-1.4,0.2c-0.2,0-0.7,0-1.3-0.2
		c-1.9-0.5-2.2-2.1-2.3-2.8h1.5c0,0.2,0,0.7,0.3,1.1c0.6,0.8,1.6,0.8,1.9,0.8c0.2,0,1.4,0,1.9-0.8c0.3-0.5,0.4-1.1,0.3-2.2l0-0.9
		c-0.9,1.3-2,1.4-2.6,1.4c-0.8,0-1.4-0.3-1.7-0.4c-0.9-0.5-2-1.5-2-3.8c0-0.4,0-1.8,0.8-2.9c0.7-0.9,1.5-1.4,2.9-1.4
		c0.2,0,0.6,0,1.1,0.2c0.4,0.1,0.9,0.4,1.5,1.1v-1.1h1.4v7.6C248.6,170,248.6,170.4,248.4,171z M247.1,164c-0.4-1.1-1.3-1.7-2.4-1.7
		c-0.4,0-0.7,0.1-1,0.2c-0.6,0.3-1.4,1.2-1.4,2.8c0,0.9,0.2,1.9,1,2.5c0.4,0.3,1,0.5,1.5,0.5c0.8,0,1.3-0.3,1.5-0.5
		c0.5-0.4,0.9-1.2,0.9-2.6C247.2,165.1,247.2,164.5,247.1,164z"/>
	<path class="st10" d="M255.7,169.3l0-1.2c-0.1,0.1-0.2,0.2-0.3,0.4c-0.6,0.6-1.5,1-2.4,1c-0.3,0-1.5-0.1-2.1-1.1
		c-0.5-0.8-0.4-1.6-0.4-2.5v-4.7h1.3v4.5c0,0.8,0,1.2,0.2,1.6c0.2,0.3,0.6,0.8,1.5,0.8c0.3,0,1.3-0.1,1.9-0.9c0.4-0.6,0.4-1.3,0.4-2
		v-4h1.3v8H255.7z"/>
	<path class="st10" d="M262.1,162.7c-0.8,0.1-1.4,0.7-1.6,1.5c-0.1,0.4-0.1,0.7-0.1,1.5v3.7H259v-8h1.4v1.5c0.2-0.4,0.4-0.7,0.7-0.9
		c0.3-0.3,1-0.6,2-0.6v1.5C262.6,162.6,262.3,162.7,262.1,162.7z"/>
	<path class="st10" d="M270.4,168.3c-0.4,0.5-1.3,1.3-3,1.3c-0.5,0-1.8-0.1-2.8-1.1c-0.5-0.5-1.2-1.5-1.2-3.2c0-1,0.3-2.1,0.9-2.9
		c0.8-1,1.8-1.4,3.1-1.4c0.5,0,1.1,0.1,1.6,0.3c0.9,0.4,2.3,1.5,2.3,4C271.4,165.8,271.3,167.2,270.4,168.3z M269.5,163.3
		c-0.1-0.2-0.3-0.5-0.5-0.6c-0.6-0.5-1.2-0.5-1.5-0.5c-2.6,0-2.5,2.8-2.5,3.3c0,0.4,0.1,0.7,0.1,0.8c0.1,0.6,0.5,2.3,2.4,2.3
		c0.4,0,1.3-0.1,1.9-1c0.5-0.8,0.5-2,0.5-2.2C269.9,165.1,269.9,164.1,269.5,163.3z"/>
	<path class="st10" d="M283,169.3v-1c-0.4,0.5-1.2,1.3-2.7,1.3c-1.5,0-2.3-0.7-2.7-1.2c-0.5-0.5-1-1.5-1-3.1c0-1,0.2-2,0.8-2.8
		c0.4-0.5,1.2-1.4,2.9-1.4c1.1,0,1.9,0.5,2.3,0.8c0.2,0.2,0.3,0.3,0.5,0.5v-5h1.4v12H283z M283,164.3c-0.3-1.2-1.2-2-2.4-2
		c-0.4,0-1.2,0.1-1.8,0.8c-0.5,0.6-0.7,1.4-0.7,2.2c0,0.3,0,1.3,0.6,2.2c0.6,0.8,1.5,0.9,1.9,0.9c0.5,0,0.9-0.1,1.3-0.3
		c0.6-0.4,1.2-1.2,1.2-2.7C283.1,165.2,283.1,164.7,283,164.3z"/>
	<path class="st10" d="M292.8,168c-0.4,0.6-1.3,1.6-3.1,1.6c-0.8,0-1.4-0.2-1.7-0.3c-1-0.4-2.2-1.5-2.2-4c0-1.5,0.5-2.3,0.9-2.8
		c0.7-0.9,1.8-1.4,3-1.4c0.4,0,0.9,0.1,1.3,0.2c0.5,0.2,1.5,0.6,2,1.9c0.2,0.5,0.4,1.2,0.4,2.4h-6.1c0,1.4,0.7,2.2,1.2,2.6
		c0.4,0.3,0.9,0.4,1.4,0.4c0.7,0,1.1-0.3,1.3-0.5c0.1-0.1,0.3-0.3,0.4-0.5c0.2-0.4,0.3-0.7,0.3-0.8l1.4,0.2
		C293.3,167.1,293.1,167.5,292.8,168z M291.7,163.8c-0.3-1-1.1-1.7-2.2-1.7c-1.4,0-2.2,1.2-2.3,2.5h4.6
		C291.8,164.2,291.8,164,291.7,163.8z"/>
	<path class="st10" d="M307,169.3l-1.3-3.7h-4.6l-1.3,3.7h-1.7l4.6-12h1.7l4.4,12H307z M303.5,159.3l-1.8,5h3.6L303.5,159.3z"/>
	<path class="st10" d="M315.6,168.9c-0.9,0.7-2.1,0.7-2.4,0.7c-0.2,0-0.9,0-1.5-0.2c-1-0.3-2.5-1.4-2.5-4c0-2.6,1.4-3.7,2.4-4.1
		c0.6-0.2,1.2-0.2,1.5-0.2c2.1,0,3.1,1.2,3.5,2c0.1,0.3,0.2,0.4,0.2,0.7l-1.5,0.1c0-0.1-0.1-0.6-0.3-0.9c-0.6-0.9-1.5-0.9-1.8-0.9
		c-1.2,0-2.4,0.8-2.4,3.2c0,1.4,0.5,2.2,0.9,2.6c0.5,0.4,1,0.6,1.6,0.6c0.4,0,0.7-0.1,1-0.2c0.9-0.4,1.1-1.2,1.2-2l1.5,0.1
		C316.7,167.8,316,168.5,315.6,168.9z"/>
	<path class="st10" d="M324.1,168.9c-0.9,0.7-2.1,0.7-2.4,0.7c-0.2,0-0.9,0-1.5-0.2c-1-0.3-2.5-1.4-2.5-4c0-2.6,1.4-3.7,2.4-4.1
		c0.6-0.2,1.2-0.2,1.5-0.2c2.1,0,3.1,1.2,3.5,2c0.1,0.3,0.2,0.4,0.2,0.7l-1.5,0.1c0-0.1-0.1-0.6-0.3-0.9c-0.6-0.9-1.5-0.9-1.8-0.9
		c-1.2,0-2.4,0.8-2.4,3.2c0,1.4,0.5,2.2,0.9,2.6c0.5,0.4,1,0.6,1.6,0.6c0.4,0,0.7-0.1,1-0.2c0.9-0.4,1.1-1.2,1.2-2l1.5,0.1
		C325.2,167.8,324.5,168.5,324.1,168.9z"/>
	<path class="st10" d="M326.7,158.9v-1.6h1.3v1.6H326.7z M326.7,169.3v-8h1.3v8H326.7z"/>
	<path class="st10" d="M335.8,169.3v-1c-0.4,0.5-1.2,1.3-2.7,1.3c-1.5,0-2.3-0.7-2.7-1.2c-0.5-0.5-1-1.5-1-3.1c0-1,0.2-2,0.8-2.8
		c0.4-0.5,1.2-1.4,2.9-1.4c1.1,0,1.9,0.5,2.3,0.8c0.2,0.2,0.3,0.3,0.5,0.5v-5h1.4v12H335.8z M335.7,164.3c-0.3-1.2-1.2-2-2.4-2
		c-0.4,0-1.2,0.1-1.8,0.8c-0.5,0.6-0.7,1.4-0.7,2.2c0,0.3,0,1.3,0.6,2.2c0.6,0.8,1.5,0.9,1.9,0.9c0.5,0,0.9-0.1,1.3-0.3
		c0.6-0.4,1.2-1.2,1.2-2.7C335.8,165.2,335.8,164.7,335.7,164.3z"/>
	<path class="st10" d="M345.6,168c-0.4,0.6-1.3,1.6-3.1,1.6c-0.8,0-1.4-0.2-1.7-0.3c-1-0.4-2.2-1.5-2.2-4c0-1.5,0.5-2.3,0.9-2.8
		c0.7-0.9,1.8-1.4,3-1.4c0.4,0,0.9,0.1,1.3,0.2c0.5,0.2,1.5,0.6,2,1.9c0.2,0.5,0.4,1.2,0.4,2.4H340c0,1.4,0.7,2.2,1.2,2.6
		c0.4,0.3,0.9,0.4,1.4,0.4c0.7,0,1.1-0.3,1.3-0.5c0.1-0.1,0.3-0.3,0.4-0.5c0.2-0.4,0.3-0.7,0.3-0.8l1.4,0.2
		C346.1,167.1,345.9,167.5,345.6,168z M344.5,163.8c-0.3-1-1.1-1.7-2.2-1.7c-1.4,0-2.2,1.2-2.3,2.5h4.6
		C344.6,164.2,344.6,164,344.5,163.8z"/>
	<path class="st10" d="M352.8,169.3v-5.1c0-0.2,0.1-1-0.6-1.5c-0.2-0.2-0.6-0.4-1.2-0.4c-0.6,0-1.1,0.2-1.5,0.6
		c-0.1,0.1-0.3,0.4-0.5,0.7c-0.2,0.4-0.2,0.7-0.2,1.1v4.5h-1.4v-8h1.4v1.2c0.2-0.3,0.3-0.5,0.4-0.6c0.3-0.3,1-0.9,2.1-0.9
		c0.4,0,1.6,0.1,2.3,1.1c0.5,0.7,0.5,1.5,0.5,2.4v4.8H352.8z"/>
	<path class="st10" d="M358,169.5c-0.8,0-1.2-0.2-1.4-0.5c-0.2-0.3-0.2-0.6-0.2-1.3v-5.2h-1.3v-1.1h1.3v-2.5h1.4v2.5h1.4v1.1h-1.4
		v4.6c0,0.6,0,0.9,0.1,1.1c0.1,0.2,0.3,0.2,0.5,0.2c0.2,0,0.5-0.1,0.8-0.2v1.1C359.2,169.4,358.6,169.5,358,169.5z"/>
	<path class="st10" d="M367.2,168c-0.4,0.6-1.3,1.6-3.1,1.6c-0.8,0-1.4-0.2-1.7-0.3c-1-0.4-2.2-1.5-2.2-4c0-1.5,0.5-2.3,0.9-2.8
		c0.7-0.9,1.8-1.4,3-1.4c0.4,0,0.9,0.1,1.3,0.2c0.5,0.2,1.5,0.6,2,1.9c0.2,0.5,0.4,1.2,0.4,2.4h-6.1c0,1.4,0.7,2.2,1.2,2.6
		c0.4,0.3,0.9,0.4,1.4,0.4c0.7,0,1.1-0.3,1.3-0.5c0.1-0.1,0.3-0.3,0.4-0.5c0.2-0.4,0.3-0.7,0.3-0.8l1.4,0.2
		C367.7,167.1,367.5,167.5,367.2,168z M366.1,163.8c-0.3-1-1.1-1.7-2.2-1.7c-1.4,0-2.2,1.2-2.3,2.5h4.6
		C366.2,164.2,366.2,164,366.1,163.8z"/>
	<path class="st10" d="M375.3,168.3c-0.4,0.6-1.3,1.3-3,1.3c-0.2,0-1.5,0-2.4-0.6c-0.1-0.1-0.3-0.2-0.6-0.5
		c-0.6-0.7-0.7-1.4-0.7-1.7l1.5-0.2c0,0.5,0.1,1,0.4,1.4c0.5,0.5,1.1,0.6,1.8,0.6c0.2,0,1,0,1.5-0.5c0.4-0.3,0.4-0.7,0.4-0.9
		c0-0.1,0-0.4-0.2-0.6c-0.3-0.5-1.1-0.6-1.5-0.7l-0.8-0.2c-1-0.2-1.5-0.4-1.9-0.6c-0.6-0.4-1-0.9-1-1.7c0-0.2,0-0.8,0.4-1.3
		c0.8-1.1,2.4-1.1,2.7-1.1c1.7,0,2.6,0.8,3,1.4c0.3,0.5,0.4,1,0.4,1.2l-1.5,0.2c0-0.4,0-0.6-0.1-0.7c-0.2-0.4-0.9-1-2-1
		c-1.1,0-1.6,0.7-1.6,1.2c0,0.1,0,0.2,0.1,0.4c0.3,0.4,0.9,0.6,1.8,0.8l0.8,0.2c0.2,0.1,0.5,0.1,0.7,0.2c1.1,0.3,1.9,0.9,1.9,2.1
		C375.6,167.3,375.6,167.8,375.3,168.3z"/>
</g>
<g class="st3">
	<path class="st10" d="M270.2,182.2c-0.4,0.1-0.9,0.2-1.8,0.2H265v5.1h-1.5v-12h5.2c0.9,0,1.7,0,2.5,0.5c1.3,0.8,1.4,2.4,1.4,2.9
		C272.5,180.4,271.8,181.8,270.2,182.2z M270.9,178c-0.2-0.6-0.7-0.9-1.2-1.1c-0.4-0.1-0.6-0.1-1-0.1H265v4.1h3.3
		c0.4,0,0.9,0,1.3-0.1c1-0.3,1.4-1.1,1.4-2.1C271,178.7,271,178.4,270.9,178z"/>
	<path class="st10" d="M280.1,186.1c-0.4,0.6-1.3,1.6-3.1,1.6c-0.8,0-1.4-0.2-1.7-0.3c-1-0.4-2.2-1.5-2.2-4c0-1.5,0.5-2.3,0.9-2.8
		c0.7-0.9,1.8-1.4,3-1.4c0.4,0,0.9,0.1,1.3,0.2c0.5,0.2,1.5,0.6,2,1.9c0.2,0.5,0.4,1.2,0.4,2.4h-6.1c0,1.4,0.7,2.2,1.2,2.6
		c0.4,0.3,0.9,0.4,1.4,0.4c0.7,0,1.1-0.3,1.3-0.5c0.1-0.1,0.3-0.3,0.4-0.5c0.2-0.4,0.3-0.7,0.3-0.8l1.4,0.2
		C280.5,185.2,280.4,185.7,280.1,186.1z M279,182c-0.3-1-1.1-1.7-2.2-1.7c-1.4,0-2.2,1.2-2.3,2.5h4.6C279.1,182.3,279,182.1,279,182
		z"/>
	<path class="st10" d="M285.1,180.8c-0.8,0.1-1.4,0.7-1.6,1.5c-0.1,0.4-0.1,0.7-0.1,1.5v3.7H282v-8h1.4v1.5c0.2-0.4,0.4-0.7,0.7-0.9
		c0.3-0.3,1-0.6,2-0.6v1.5C285.6,180.8,285.3,180.8,285.1,180.8z"/>
	<path class="st10" d="M293.1,186.4c-0.4,0.6-1.3,1.3-3,1.3c-0.2,0-1.5,0-2.4-0.6c-0.1-0.1-0.3-0.2-0.6-0.5
		c-0.6-0.7-0.7-1.4-0.7-1.7l1.5-0.2c0,0.5,0.1,1,0.4,1.4c0.5,0.5,1.1,0.6,1.8,0.6c0.2,0,1,0,1.5-0.5c0.4-0.3,0.4-0.7,0.4-0.9
		c0-0.1,0-0.4-0.2-0.6c-0.3-0.5-1.1-0.6-1.5-0.7l-0.8-0.2c-1-0.2-1.5-0.4-1.9-0.6c-0.6-0.4-1-0.9-1-1.7c0-0.2,0-0.8,0.4-1.3
		c0.8-1.1,2.4-1.1,2.7-1.1c1.7,0,2.6,0.8,3,1.4c0.3,0.5,0.4,1,0.4,1.2l-1.5,0.2c0-0.4,0-0.6-0.1-0.7c-0.2-0.4-0.9-1-2-1
		c-1.1,0-1.6,0.7-1.6,1.2c0,0.1,0,0.2,0.1,0.4c0.3,0.4,0.9,0.6,1.8,0.8l0.8,0.2c0.2,0.1,0.5,0.1,0.7,0.2c1.1,0.3,1.9,0.9,1.9,2.1
		C293.5,185.4,293.4,185.9,293.1,186.4z"/>
	<path class="st10" d="M301.2,186.4c-0.4,0.5-1.3,1.3-3,1.3c-0.5,0-1.8-0.1-2.8-1.1c-0.5-0.5-1.2-1.5-1.2-3.2c0-1,0.3-2.1,0.9-2.9
		c0.8-1,1.8-1.4,3.1-1.4c0.5,0,1.1,0.1,1.6,0.3c0.9,0.4,2.3,1.5,2.3,4C302.2,183.9,302.1,185.3,301.2,186.4z M300.3,181.4
		c-0.1-0.2-0.3-0.5-0.5-0.6c-0.6-0.5-1.2-0.5-1.5-0.5c-2.6,0-2.5,2.8-2.5,3.3c0,0.4,0.1,0.7,0.1,0.8c0.1,0.6,0.5,2.3,2.4,2.3
		c0.4,0,1.3-0.1,1.9-1c0.5-0.8,0.5-2,0.5-2.2C300.7,183.2,300.7,182.2,300.3,181.4z"/>
	<path class="st10" d="M308.9,187.5v-5.1c0-0.2,0.1-1-0.6-1.5c-0.2-0.2-0.6-0.4-1.2-0.4c-0.6,0-1.1,0.2-1.5,0.6
		c-0.1,0.1-0.3,0.4-0.5,0.7c-0.2,0.4-0.2,0.7-0.2,1.1v4.5h-1.4v-8h1.4v1.2c0.2-0.3,0.3-0.5,0.4-0.6c0.3-0.3,1-0.9,2.1-0.9
		c0.4,0,1.6,0.1,2.3,1.1c0.5,0.7,0.5,1.5,0.5,2.4v4.8H308.9z"/>
	<path class="st10" d="M318.4,187.6c-0.1,0-0.5,0-0.8-0.2c-0.1-0.1-0.2-0.3-0.3-0.3c-0.2-0.3-0.2-0.5-0.3-0.7
		c-0.4,0.4-1.2,1.3-2.7,1.3c-0.5,0-0.9-0.1-1.1-0.2c-1-0.3-1.6-1.1-1.6-2.1c0-0.4,0.1-1.1,0.9-1.7c0.8-0.6,2.2-0.8,3.2-0.9l1.2-0.1
		c0-0.2,0-0.4,0-0.7c0-0.6-0.1-1.8-1.8-1.8c-0.3,0-1.3,0-1.6,1c-0.1,0.3-0.1,0.4-0.1,0.7l-1.4-0.1c0-0.2,0-0.4,0.1-0.8
		c0.3-0.8,1-1.8,2.9-1.8c0.2,0,0.7,0,1.3,0.2c0.3,0.1,1.4,0.4,1.8,1.5c0.2,0.4,0.2,0.8,0.2,1.7v2.6c0,0.2,0,0.4,0,0.5
		c0,0.2,0,0.6,0.6,0.6c0.2,0,0.3,0,0.4-0.1v1.1C318.9,187.6,318.6,187.6,318.4,187.6z M316.9,183.7v-0.2c-0.6,0.1-2.2,0.3-2.9,0.6
		c-0.3,0.1-1,0.4-1,1.2c0,0.6,0.4,1.2,1.5,1.2c0.7,0,2.3-0.3,2.3-2.4C316.9,184,316.9,183.9,316.9,183.7z"/>
	<path class="st10" d="M320.3,187.5v-12h1.3v12H320.3z"/>
	<path class="st10" d="M330,186.1c-0.4,0.6-1.3,1.6-3.1,1.6c-0.8,0-1.4-0.2-1.7-0.3c-1-0.4-2.2-1.5-2.2-4c0-1.5,0.5-2.3,0.9-2.8
		c0.7-0.9,1.8-1.4,3-1.4c0.4,0,0.9,0.1,1.3,0.2c0.5,0.2,1.5,0.6,2,1.9c0.2,0.5,0.4,1.2,0.4,2.4h-6.1c0,1.4,0.7,2.2,1.2,2.6
		c0.4,0.3,0.9,0.4,1.4,0.4c0.7,0,1.1-0.3,1.3-0.5c0.1-0.1,0.3-0.3,0.4-0.5c0.2-0.4,0.3-0.7,0.3-0.8l1.4,0.2
		C330.5,185.2,330.3,185.7,330,186.1z M329,182c-0.3-1-1.1-1.7-2.2-1.7c-1.4,0-2.2,1.2-2.3,2.5h4.6C329,182.3,329,182.1,329,182z"/>
	<path class="st10" d="M338.1,186.4c-0.4,0.6-1.3,1.3-3,1.3c-0.2,0-1.5,0-2.4-0.6c-0.1-0.1-0.3-0.2-0.6-0.5
		c-0.6-0.7-0.7-1.4-0.7-1.7l1.5-0.2c0,0.5,0.1,1,0.4,1.4c0.5,0.5,1.1,0.6,1.8,0.6c0.2,0,1,0,1.5-0.5c0.4-0.3,0.4-0.7,0.4-0.9
		c0-0.1,0-0.4-0.2-0.6c-0.3-0.5-1.1-0.6-1.5-0.7l-0.8-0.2c-1-0.2-1.5-0.4-1.9-0.6c-0.6-0.4-1-0.9-1-1.7c0-0.2,0-0.8,0.4-1.3
		c0.8-1.1,2.4-1.1,2.7-1.1c1.7,0,2.6,0.8,3,1.4c0.3,0.5,0.4,1,0.4,1.2l-1.5,0.2c0-0.4,0-0.6-0.1-0.7c-0.2-0.4-0.9-1-2-1
		c-1.1,0-1.6,0.7-1.6,1.2c0,0.1,0,0.2,0.1,0.4c0.3,0.4,0.9,0.6,1.8,0.8l0.8,0.2c0.2,0.1,0.5,0.1,0.7,0.2c1.1,0.3,1.9,0.9,1.9,2.1
		C338.4,185.4,338.4,185.9,338.1,186.4z"/>
</g>
<g class="st3">
	<path class="st10" d="M250.8,230l-1.3-3.7H245l-1.3,3.7h-1.7l4.6-12h1.7l4.4,12H250.8z M247.3,219.9l-1.8,5h3.6L247.3,219.9z"/>
	<path class="st10" d="M259.6,228.9c-0.4,0.6-1.3,1.3-3,1.3c-0.2,0-1.5,0-2.4-0.6c-0.1-0.1-0.3-0.2-0.6-0.5
		c-0.6-0.7-0.7-1.4-0.7-1.7l1.5-0.2c0,0.5,0.1,1,0.4,1.4c0.5,0.5,1.1,0.6,1.8,0.6c0.2,0,1,0,1.5-0.5c0.4-0.3,0.4-0.7,0.4-0.9
		c0-0.1,0-0.4-0.2-0.6c-0.3-0.5-1.1-0.6-1.5-0.7l-0.8-0.2c-1-0.2-1.5-0.4-1.9-0.6c-0.6-0.4-1-0.9-1-1.7c0-0.2,0-0.8,0.4-1.3
		c0.8-1.1,2.4-1.1,2.7-1.1c1.7,0,2.6,0.8,3,1.4c0.3,0.5,0.4,1,0.4,1.2l-1.5,0.2c0-0.4,0-0.6-0.1-0.7c-0.2-0.4-0.9-1-2-1
		c-1.1,0-1.6,0.7-1.6,1.2c0,0.1,0,0.2,0.1,0.4c0.3,0.4,0.9,0.6,1.8,0.8l0.8,0.2c0.2,0.1,0.5,0.1,0.7,0.2c1.1,0.3,1.9,0.9,1.9,2.1
		C260,227.9,259.9,228.4,259.6,228.9z"/>
	<path class="st10" d="M261.3,219.5V218h1.3v1.6H261.3z M261.3,230v-8h1.3v8H261.3z"/>
	<path class="st10" d="M270.6,228.9c-0.4,0.6-1.3,1.3-3,1.3c-0.2,0-1.5,0-2.4-0.6c-0.1-0.1-0.3-0.2-0.6-0.5
		c-0.6-0.7-0.7-1.4-0.7-1.7l1.5-0.2c0,0.5,0.1,1,0.4,1.4c0.5,0.5,1.1,0.6,1.8,0.6c0.2,0,1,0,1.5-0.5c0.4-0.3,0.4-0.7,0.4-0.9
		c0-0.1,0-0.4-0.2-0.6c-0.3-0.5-1.1-0.6-1.5-0.7l-0.8-0.2c-1-0.2-1.5-0.4-1.9-0.6c-0.6-0.4-1-0.9-1-1.7c0-0.2,0-0.8,0.4-1.3
		c0.8-1.1,2.4-1.1,2.7-1.1c1.7,0,2.6,0.8,3,1.4c0.3,0.5,0.4,1,0.4,1.2l-1.5,0.2c0-0.4,0-0.6-0.1-0.7c-0.2-0.4-0.9-1-2-1
		c-1.1,0-1.6,0.7-1.6,1.2c0,0.1,0,0.2,0.1,0.4c0.3,0.4,0.9,0.6,1.8,0.8l0.8,0.2c0.2,0.1,0.5,0.1,0.7,0.2c1.1,0.3,1.9,0.9,1.9,2.1
		C270.9,227.9,270.9,228.4,270.6,228.9z"/>
	<path class="st10" d="M274.3,230.1c-0.8,0-1.2-0.2-1.4-0.5s-0.2-0.6-0.2-1.3v-5.2h-1.3V222h1.3v-2.5h1.4v2.5h1.4v1.1h-1.4v4.6
		c0,0.6,0,0.9,0.1,1.1c0.1,0.2,0.3,0.2,0.5,0.2c0.2,0,0.5-0.1,0.8-0.2v1.1C275.4,230,274.8,230.1,274.3,230.1z"/>
	<path class="st10" d="M283.4,228.6c-0.4,0.6-1.3,1.6-3.1,1.6c-0.8,0-1.4-0.2-1.7-0.3c-1-0.4-2.2-1.5-2.2-4c0-1.5,0.5-2.3,0.9-2.8
		c0.7-0.9,1.8-1.4,3-1.4c0.4,0,0.9,0.1,1.3,0.2c0.5,0.2,1.5,0.6,2,1.9c0.2,0.5,0.4,1.2,0.4,2.4h-6.1c0,1.4,0.7,2.2,1.2,2.6
		c0.4,0.3,0.9,0.4,1.4,0.4c0.7,0,1.1-0.3,1.3-0.5c0.1-0.1,0.3-0.3,0.4-0.5c0.2-0.4,0.3-0.7,0.3-0.8l1.4,0.2
		C283.9,227.7,283.7,228.2,283.4,228.6z M282.4,224.4c-0.3-1-1.1-1.7-2.2-1.7c-1.4,0-2.2,1.2-2.3,2.5h4.6
		C282.5,224.8,282.4,224.6,282.4,224.4z"/>
	<path class="st10" d="M290.6,230v-5.1c0-0.2,0.1-1-0.6-1.5c-0.2-0.2-0.6-0.4-1.2-0.4c-0.6,0-1.1,0.2-1.5,0.6
		c-0.1,0.1-0.3,0.4-0.5,0.7c-0.2,0.4-0.2,0.7-0.2,1.1v4.5h-1.4v-8h1.4v1.2c0.2-0.3,0.3-0.5,0.4-0.6c0.3-0.3,1-0.9,2.1-0.9
		c0.4,0,1.6,0.1,2.3,1.1c0.5,0.7,0.5,1.5,0.5,2.4v4.8H290.6z"/>
	<path class="st10" d="M299.8,229.5c-0.9,0.7-2.1,0.7-2.4,0.7c-0.2,0-0.9,0-1.5-0.2c-1-0.3-2.5-1.4-2.5-4c0-2.6,1.4-3.7,2.4-4.1
		c0.6-0.2,1.2-0.2,1.5-0.2c2.1,0,3.1,1.2,3.5,2c0.1,0.3,0.2,0.4,0.2,0.7l-1.5,0.1c0-0.1-0.1-0.6-0.3-0.9c-0.6-0.9-1.5-0.9-1.8-0.9
		c-1.2,0-2.4,0.8-2.4,3.2c0,1.4,0.5,2.2,0.9,2.6c0.5,0.4,1,0.6,1.6,0.6c0.4,0,0.7-0.1,1-0.2c0.9-0.4,1.1-1.2,1.2-2l1.5,0.1
		C300.9,228.4,300.2,229.2,299.8,229.5z"/>
	<path class="st10" d="M302.4,219.5V218h1.3v1.6H302.4z M302.4,230v-8h1.3v8H302.4z"/>
	<path class="st10" d="M311.8,230.1c-0.1,0-0.5,0-0.8-0.2c-0.1-0.1-0.2-0.3-0.3-0.3c-0.2-0.3-0.2-0.5-0.3-0.7
		c-0.4,0.4-1.2,1.3-2.7,1.3c-0.5,0-0.9-0.1-1.1-0.2c-1-0.3-1.6-1.1-1.6-2.1c0-0.4,0.1-1.1,0.9-1.7c0.8-0.6,2.2-0.8,3.2-0.9l1.2-0.1
		c0-0.2,0-0.4,0-0.7c0-0.6-0.1-1.8-1.8-1.8c-0.3,0-1.3,0-1.6,1c-0.1,0.3-0.1,0.4-0.1,0.7l-1.4-0.1c0-0.2,0-0.4,0.1-0.8
		c0.3-0.8,1-1.8,2.9-1.8c0.2,0,0.7,0,1.3,0.2c0.3,0.1,1.4,0.4,1.8,1.5c0.2,0.4,0.2,0.8,0.2,1.7v2.6c0,0.2,0,0.4,0,0.5
		c0,0.2,0,0.6,0.6,0.6c0.2,0,0.3,0,0.4-0.1v1.1C312.3,230,312.1,230.1,311.8,230.1z M310.3,226.2V226c-0.6,0.1-2.2,0.3-2.9,0.6
		c-0.3,0.1-1,0.4-1,1.2c0,0.6,0.4,1.2,1.5,1.2c0.7,0,2.3-0.3,2.3-2.4C310.4,226.5,310.3,226.4,310.3,226.2z"/>
	<path class="st10" d="M319.8,228.9c-0.4,0.6-1.3,1.3-3,1.3c-0.2,0-1.5,0-2.4-0.6c-0.1-0.1-0.3-0.2-0.6-0.5
		c-0.6-0.7-0.7-1.4-0.7-1.7l1.5-0.2c0,0.5,0.1,1,0.4,1.4c0.5,0.5,1.1,0.6,1.8,0.6c0.2,0,1,0,1.5-0.5c0.4-0.3,0.4-0.7,0.4-0.9
		c0-0.1,0-0.4-0.2-0.6c-0.3-0.5-1.1-0.6-1.5-0.7l-0.8-0.2c-1-0.2-1.5-0.4-1.9-0.6c-0.6-0.4-1-0.9-1-1.7c0-0.2,0-0.8,0.4-1.3
		c0.8-1.1,2.4-1.1,2.7-1.1c1.7,0,2.6,0.8,3,1.4c0.3,0.5,0.4,1,0.4,1.2l-1.5,0.2c0-0.4,0-0.6-0.1-0.7c-0.2-0.4-0.9-1-2-1
		c-1.1,0-1.6,0.7-1.6,1.2c0,0.1,0,0.2,0.1,0.4c0.3,0.4,0.9,0.6,1.8,0.8l0.8,0.2c0.2,0.1,0.5,0.1,0.7,0.2c1.1,0.3,1.9,0.9,1.9,2.1
		C320.2,227.9,320.2,228.4,319.8,228.9z"/>
	<path class="st10" d="M332.8,224.7c-0.4,0.1-0.9,0.2-1.8,0.2h-3.5v5.1h-1.5v-12h5.2c0.9,0,1.7,0,2.5,0.5c1.3,0.8,1.4,2.4,1.4,2.9
		C335.1,222.9,334.3,224.3,332.8,224.7z M333.4,220.5c-0.2-0.6-0.7-0.9-1.2-1.1c-0.4-0.1-0.6-0.1-1-0.1h-3.7v4.1h3.3
		c0.4,0,0.9,0,1.3-0.1c1-0.3,1.4-1.1,1.4-2.1C333.5,221.2,333.5,220.9,333.4,220.5z"/>
	<path class="st10" d="M336.1,230v-12h1.3v12H336.1z"/>
	<path class="st10" d="M345.5,230.1c-0.1,0-0.5,0-0.8-0.2c-0.1-0.1-0.2-0.3-0.3-0.3c-0.2-0.3-0.2-0.5-0.3-0.7
		c-0.4,0.4-1.2,1.3-2.7,1.3c-0.5,0-0.9-0.1-1.1-0.2c-1-0.3-1.6-1.1-1.6-2.1c0-0.4,0.1-1.1,0.9-1.7c0.8-0.6,2.2-0.8,3.2-0.9l1.2-0.1
		c0-0.2,0-0.4,0-0.7c0-0.6-0.1-1.8-1.8-1.8c-0.3,0-1.3,0-1.6,1c-0.1,0.3-0.1,0.4-0.1,0.7l-1.4-0.1c0-0.2,0-0.4,0.1-0.8
		c0.3-0.8,1-1.8,2.9-1.8c0.2,0,0.7,0,1.3,0.2c0.3,0.1,1.4,0.4,1.8,1.5c0.2,0.4,0.2,0.8,0.2,1.7v2.6c0,0.2,0,0.4,0,0.5
		c0,0.2,0,0.6,0.6,0.6c0.2,0,0.3,0,0.4-0.1v1.1C346,230,345.7,230.1,345.5,230.1z M344,226.2V226c-0.6,0.1-2.2,0.3-2.9,0.6
		c-0.3,0.1-1,0.4-1,1.2c0,0.6,0.4,1.2,1.5,1.2c0.7,0,2.3-0.3,2.3-2.4C344,226.5,344,226.4,344,226.2z"/>
	<path class="st10" d="M349.4,230.1c-0.8,0-1.2-0.2-1.4-0.5c-0.2-0.3-0.2-0.6-0.2-1.3v-5.2h-1.3V222h1.3v-2.5h1.4v2.5h1.4v1.1h-1.4
		v4.6c0,0.6,0,0.9,0.1,1.1c0.1,0.2,0.3,0.2,0.5,0.2c0.2,0,0.5-0.1,0.8-0.2v1.1C350.6,230,349.9,230.1,349.4,230.1z"/>
	<path class="st10" d="M358.3,230.1c-0.1,0-0.5,0-0.8-0.2c-0.1-0.1-0.2-0.3-0.3-0.3c-0.2-0.3-0.2-0.5-0.3-0.7
		c-0.4,0.4-1.2,1.3-2.7,1.3c-0.5,0-0.9-0.1-1.1-0.2c-1-0.3-1.6-1.1-1.6-2.1c0-0.4,0.1-1.1,0.9-1.7c0.8-0.6,2.2-0.8,3.2-0.9l1.2-0.1
		c0-0.2,0-0.4,0-0.7c0-0.6-0.1-1.8-1.8-1.8c-0.3,0-1.3,0-1.6,1c-0.1,0.3-0.1,0.4-0.1,0.7l-1.4-0.1c0-0.2,0-0.4,0.1-0.8
		c0.3-0.8,1-1.8,2.9-1.8c0.2,0,0.7,0,1.3,0.2c0.3,0.1,1.4,0.4,1.8,1.5c0.2,0.4,0.2,0.8,0.2,1.7v2.6c0,0.2,0,0.4,0,0.5
		c0,0.2,0,0.6,0.6,0.6c0.2,0,0.3,0,0.4-0.1v1.1C358.7,230,358.5,230.1,358.3,230.1z M356.7,226.2V226c-0.6,0.1-2.2,0.3-2.9,0.6
		c-0.3,0.1-1,0.4-1,1.2c0,0.6,0.4,1.2,1.5,1.2c0.7,0,2.3-0.3,2.3-2.4C356.8,226.5,356.7,226.4,356.7,226.2z"/>
</g>
<g class="st3">
	<path class="st10" d="M439,230l-1.3-3.7h-4.6l-1.3,3.7h-1.7l4.6-12h1.7l4.4,12H439z M435.5,219.9l-1.8,5h3.6L435.5,219.9z"/>
	<path class="st10" d="M447.8,228.9c-0.4,0.6-1.3,1.3-3,1.3c-0.2,0-1.5,0-2.4-0.6c-0.1-0.1-0.3-0.2-0.6-0.5
		c-0.6-0.7-0.7-1.4-0.7-1.7l1.5-0.2c0,0.5,0.1,1,0.4,1.4c0.5,0.5,1.1,0.6,1.8,0.6c0.2,0,1,0,1.5-0.5c0.4-0.3,0.4-0.7,0.4-0.9
		c0-0.1,0-0.4-0.2-0.6c-0.3-0.5-1.1-0.6-1.5-0.7l-0.8-0.2c-1-0.2-1.5-0.4-1.9-0.6c-0.6-0.4-1-0.9-1-1.7c0-0.2,0-0.8,0.4-1.3
		c0.8-1.1,2.4-1.1,2.7-1.1c1.7,0,2.6,0.8,3,1.4c0.3,0.5,0.4,1,0.4,1.2l-1.5,0.2c0-0.4,0-0.6-0.1-0.7c-0.2-0.4-0.9-1-2-1
		c-1.1,0-1.6,0.7-1.6,1.2c0,0.1,0,0.2,0.1,0.4c0.3,0.4,0.9,0.6,1.8,0.8l0.8,0.2c0.2,0.1,0.5,0.1,0.7,0.2c1.1,0.3,1.9,0.9,1.9,2.1
		C448.1,227.9,448.1,228.4,447.8,228.9z"/>
	<path class="st10" d="M449.5,219.5V218h1.3v1.6H449.5z M449.5,230v-8h1.3v8H449.5z"/>
	<path class="st10" d="M458.8,228.9c-0.4,0.6-1.3,1.3-3,1.3c-0.2,0-1.5,0-2.4-0.6c-0.1-0.1-0.3-0.2-0.6-0.5
		c-0.6-0.7-0.7-1.4-0.7-1.7l1.5-0.2c0,0.5,0.1,1,0.4,1.4c0.5,0.5,1.1,0.6,1.8,0.6c0.2,0,1,0,1.5-0.5c0.4-0.3,0.4-0.7,0.4-0.9
		c0-0.1,0-0.4-0.2-0.6c-0.3-0.5-1.1-0.6-1.5-0.7l-0.8-0.2c-1-0.2-1.5-0.4-1.9-0.6c-0.6-0.4-1-0.9-1-1.7c0-0.2,0-0.8,0.4-1.3
		c0.8-1.1,2.4-1.1,2.7-1.1c1.7,0,2.6,0.8,3,1.4c0.3,0.5,0.4,1,0.4,1.2l-1.5,0.2c0-0.4,0-0.6-0.1-0.7c-0.2-0.4-0.9-1-2-1
		c-1.1,0-1.6,0.7-1.6,1.2c0,0.1,0,0.2,0.1,0.4c0.3,0.4,0.9,0.6,1.8,0.8l0.8,0.2c0.2,0.1,0.5,0.1,0.7,0.2c1.1,0.3,1.9,0.9,1.9,2.1
		C459.1,227.9,459.1,228.4,458.8,228.9z"/>
	<path class="st10" d="M462.4,230.1c-0.8,0-1.2-0.2-1.4-0.5c-0.2-0.3-0.2-0.6-0.2-1.3v-5.2h-1.3V222h1.3v-2.5h1.4v2.5h1.4v1.1h-1.4
		v4.6c0,0.6,0,0.9,0.1,1.1c0.1,0.2,0.3,0.2,0.5,0.2c0.2,0,0.5-0.1,0.8-0.2v1.1C463.6,230,463,230.1,462.4,230.1z"/>
	<path class="st10" d="M471.6,228.6c-0.4,0.6-1.3,1.6-3.1,1.6c-0.8,0-1.4-0.2-1.7-0.3c-1-0.4-2.2-1.5-2.2-4c0-1.5,0.5-2.3,0.9-2.8
		c0.7-0.9,1.8-1.4,3-1.4c0.4,0,0.9,0.1,1.3,0.2c0.5,0.2,1.5,0.6,2,1.9c0.2,0.5,0.4,1.2,0.4,2.4h-6.1c0,1.4,0.7,2.2,1.2,2.6
		c0.4,0.3,0.9,0.4,1.4,0.4c0.7,0,1.1-0.3,1.3-0.5c0.1-0.1,0.3-0.3,0.4-0.5c0.2-0.4,0.3-0.7,0.3-0.8l1.4,0.2
		C472.1,227.7,471.9,228.2,471.6,228.6z M470.5,224.4c-0.3-1-1.1-1.7-2.2-1.7c-1.4,0-2.2,1.2-2.3,2.5h4.6
		C470.6,224.8,470.6,224.6,470.5,224.4z"/>
	<path class="st10" d="M478.8,230v-5.1c0-0.2,0.1-1-0.6-1.5c-0.2-0.2-0.6-0.4-1.2-0.4c-0.6,0-1.1,0.2-1.5,0.6
		c-0.1,0.1-0.3,0.4-0.5,0.7c-0.2,0.4-0.2,0.7-0.2,1.1v4.5h-1.4v-8h1.4v1.2c0.2-0.3,0.3-0.5,0.4-0.6c0.3-0.3,1-0.9,2.1-0.9
		c0.4,0,1.6,0.1,2.3,1.1c0.5,0.7,0.5,1.5,0.5,2.4v4.8H478.8z"/>
	<path class="st10" d="M488,229.5c-0.9,0.7-2.1,0.7-2.4,0.7c-0.2,0-0.9,0-1.5-0.2c-1-0.3-2.5-1.4-2.5-4c0-2.6,1.4-3.7,2.4-4.1
		c0.6-0.2,1.2-0.2,1.5-0.2c2.1,0,3.1,1.2,3.5,2c0.1,0.3,0.2,0.4,0.2,0.7l-1.5,0.1c0-0.1-0.1-0.6-0.3-0.9c-0.6-0.9-1.5-0.9-1.8-0.9
		c-1.2,0-2.4,0.8-2.4,3.2c0,1.4,0.5,2.2,0.9,2.6c0.5,0.4,1,0.6,1.6,0.6c0.4,0,0.7-0.1,1-0.2c0.9-0.4,1.1-1.2,1.2-2l1.5,0.1
		C489.1,228.4,488.4,229.2,488,229.5z"/>
	<path class="st10" d="M490.6,219.5V218h1.3v1.6H490.6z M490.6,230v-8h1.3v8H490.6z"/>
	<path class="st10" d="M500,230.1c-0.1,0-0.5,0-0.8-0.2c-0.1-0.1-0.2-0.3-0.3-0.3c-0.2-0.3-0.2-0.5-0.3-0.7
		c-0.4,0.4-1.2,1.3-2.7,1.3c-0.5,0-0.9-0.1-1.1-0.2c-1-0.3-1.6-1.1-1.6-2.1c0-0.4,0.1-1.1,0.9-1.7c0.8-0.6,2.2-0.8,3.2-0.9l1.2-0.1
		c0-0.2,0-0.4,0-0.7c0-0.6-0.1-1.8-1.8-1.8c-0.3,0-1.3,0-1.6,1c-0.1,0.3-0.1,0.4-0.1,0.7l-1.4-0.1c0-0.2,0-0.4,0.1-0.8
		c0.3-0.8,1-1.8,2.9-1.8c0.2,0,0.7,0,1.3,0.2c0.3,0.1,1.4,0.4,1.8,1.5c0.2,0.4,0.2,0.8,0.2,1.7v2.6c0,0.2,0,0.4,0,0.5
		c0,0.2,0,0.6,0.6,0.6c0.2,0,0.3,0,0.4-0.1v1.1C500.5,230,500.2,230.1,500,230.1z M498.5,226.2V226c-0.6,0.1-2.2,0.3-2.9,0.6
		c-0.3,0.1-1,0.4-1,1.2c0,0.6,0.4,1.2,1.5,1.2c0.7,0,2.3-0.3,2.3-2.4C498.5,226.5,498.5,226.4,498.5,226.2z"/>
	<path class="st10" d="M508,228.9c-0.4,0.6-1.3,1.3-3,1.3c-0.2,0-1.5,0-2.4-0.6c-0.1-0.1-0.3-0.2-0.6-0.5c-0.6-0.7-0.7-1.4-0.7-1.7
		l1.5-0.2c0,0.5,0.1,1,0.4,1.4c0.5,0.5,1.1,0.6,1.8,0.6c0.2,0,1,0,1.5-0.5c0.4-0.3,0.4-0.7,0.4-0.9c0-0.1,0-0.4-0.2-0.6
		c-0.3-0.5-1.1-0.6-1.5-0.7l-0.8-0.2c-1-0.2-1.5-0.4-1.9-0.6c-0.6-0.4-1-0.9-1-1.7c0-0.2,0-0.8,0.4-1.3c0.8-1.1,2.4-1.1,2.7-1.1
		c1.7,0,2.6,0.8,3,1.4c0.3,0.5,0.4,1,0.4,1.2l-1.5,0.2c0-0.4,0-0.6-0.1-0.7c-0.2-0.4-0.9-1-2-1c-1.1,0-1.6,0.7-1.6,1.2
		c0,0.1,0,0.2,0.1,0.4c0.3,0.4,0.9,0.6,1.8,0.8l0.8,0.2c0.2,0.1,0.5,0.1,0.7,0.2c1.1,0.3,1.9,0.9,1.9,2.1
		C508.4,227.9,508.3,228.4,508,228.9z"/>
	<path class="st10" d="M524.5,228c-0.7,0.9-2.1,2.2-4.8,2.2c-0.7,0-2.6-0.1-4.1-1.5c-0.8-0.7-1.9-2.2-1.9-4.8c0-0.7,0-2.7,1.5-4.4
		c1.1-1.3,2.9-1.9,4.5-1.9c0.8,0,1.6,0.1,2.4,0.4c2.5,1,3.6,3.2,3.6,5.8C525.8,224.5,525.7,226.4,524.5,228z M523.1,220.5
		c-1.1-1.5-2.7-1.6-3.4-1.6c-2,0-2.9,1-3.4,1.6c-0.7,1-0.9,2.3-0.9,3.4c0,1.6,0.5,2.6,0.8,3.2c0.3,0.4,0.6,0.8,0.8,0.9
		c0.5,0.4,0.9,0.6,1.2,0.7c0.3,0.1,0.8,0.3,1.6,0.3c0.3,0,1.1,0,1.8-0.4c1.2-0.5,2.5-1.9,2.4-4.8C524,223.4,524,221.8,523.1,220.5z"
		/>
	<path class="st10" d="M530.5,223.3c-0.8,0.1-1.4,0.7-1.6,1.5c-0.1,0.4-0.1,0.7-0.1,1.5v3.7h-1.4v-8h1.4v1.5
		c0.2-0.4,0.4-0.7,0.7-0.9c0.3-0.3,1-0.6,2-0.6v1.5C531,223.2,530.7,223.3,530.5,223.3z"/>
	<path class="st10" d="M538.8,228.9c-0.4,0.5-1.3,1.3-3,1.3c-0.5,0-1.8-0.1-2.8-1.1c-0.5-0.5-1.2-1.5-1.2-3.2c0-1,0.3-2.1,0.9-2.9
		c0.8-1,1.8-1.4,3.1-1.4c0.5,0,1.1,0.1,1.6,0.3c0.9,0.4,2.3,1.5,2.3,4C539.8,226.4,539.7,227.8,538.8,228.9z M537.9,223.9
		c-0.1-0.2-0.3-0.5-0.5-0.6c-0.6-0.5-1.2-0.5-1.5-0.5c-2.6,0-2.5,2.8-2.5,3.3c0,0.4,0.1,0.7,0.1,0.8c0.1,0.6,0.5,2.3,2.4,2.3
		c0.4,0,1.3-0.1,1.9-1c0.5-0.8,0.5-2,0.5-2.2C538.3,225.7,538.3,224.7,537.9,223.9z"/>
</g>
<g class="st3">
	<path class="st10" d="M78.7,275c-0.4,0.1-0.9,0.2-1.8,0.2h-3.5v5.1h-1.5v-12h5.2c0.9,0,1.7,0,2.5,0.5c1.3,0.8,1.4,2.4,1.4,2.9
		C81,273.1,80.3,274.5,78.7,275z M79.3,270.7c-0.2-0.6-0.7-0.9-1.2-1.1c-0.4-0.1-0.6-0.1-1-0.1h-3.7v4.1h3.3c0.4,0,0.9,0,1.3-0.1
		c1-0.3,1.4-1.1,1.4-2.1C79.5,271.4,79.5,271.1,79.3,270.7z"/>
	<path class="st10" d="M88.3,280.3c-0.1,0-0.5,0-0.8-0.2c-0.1-0.1-0.2-0.3-0.3-0.3c-0.2-0.3-0.2-0.5-0.3-0.7
		c-0.4,0.4-1.2,1.3-2.7,1.3c-0.5,0-0.9-0.1-1.1-0.2c-1-0.3-1.6-1.1-1.6-2.1c0-0.4,0.1-1.1,0.9-1.7c0.8-0.6,2.2-0.8,3.2-0.9l1.2-0.1
		c0-0.2,0-0.4,0-0.7c0-0.6-0.1-1.8-1.8-1.8c-0.3,0-1.3,0-1.6,1c-0.1,0.3-0.1,0.4-0.1,0.7l-1.4-0.1c0-0.2,0-0.4,0.1-0.8
		c0.3-0.8,1-1.8,2.9-1.8c0.2,0,0.7,0,1.3,0.2c0.3,0.1,1.4,0.4,1.8,1.5c0.2,0.4,0.2,0.8,0.2,1.7v2.6c0,0.2,0,0.4,0,0.5
		c0,0.2,0,0.6,0.6,0.6c0.2,0,0.3,0,0.4-0.1v1.1C88.7,280.3,88.5,280.3,88.3,280.3z M86.7,276.4v-0.2c-0.6,0.1-2.2,0.3-2.9,0.6
		c-0.3,0.1-1,0.4-1,1.2c0,0.6,0.4,1.2,1.5,1.2c0.7,0,2.3-0.3,2.3-2.4C86.8,276.8,86.7,276.6,86.7,276.4z"/>
	<path class="st10" d="M93.2,273.5c-0.8,0.1-1.4,0.7-1.6,1.5c-0.1,0.4-0.1,0.7-0.1,1.5v3.7h-1.4v-8h1.4v1.5c0.2-0.4,0.4-0.7,0.7-0.9
		c0.3-0.3,1-0.6,2-0.6v1.5C93.7,273.5,93.5,273.5,93.2,273.5z"/>
	<path class="st10" d="M101.4,280.3c-0.1,0-0.5,0-0.8-0.2c-0.1-0.1-0.2-0.3-0.3-0.3c-0.2-0.3-0.2-0.5-0.3-0.7
		c-0.4,0.4-1.2,1.3-2.7,1.3c-0.5,0-0.9-0.1-1.1-0.2c-1-0.3-1.6-1.1-1.6-2.1c0-0.4,0.1-1.1,0.9-1.7c0.8-0.6,2.2-0.8,3.2-0.9l1.2-0.1
		c0-0.2,0-0.4,0-0.7c0-0.6-0.1-1.8-1.8-1.8c-0.3,0-1.3,0-1.6,1c-0.1,0.3-0.1,0.4-0.1,0.7l-1.4-0.1c0-0.2,0-0.4,0.1-0.8
		c0.3-0.8,1-1.8,2.9-1.8c0.2,0,0.7,0,1.3,0.2c0.3,0.1,1.4,0.4,1.8,1.5c0.2,0.4,0.2,0.8,0.2,1.7v2.6c0,0.2,0,0.4,0,0.5
		c0,0.2,0,0.6,0.6,0.6c0.2,0,0.3,0,0.4-0.1v1.1C101.8,280.3,101.6,280.3,101.4,280.3z M99.9,276.4v-0.2c-0.6,0.1-2.2,0.3-2.9,0.6
		c-0.3,0.1-1,0.4-1,1.2c0,0.6,0.4,1.2,1.5,1.2c0.7,0,2.3-0.3,2.3-2.4C99.9,276.8,99.9,276.6,99.9,276.4z"/>
	<path class="st10" d="M112.8,280.2V276c0-0.5,0-1.3-0.2-1.8c-0.3-0.7-0.9-1.1-1.6-1.1c-0.3,0-1.3,0.1-1.8,1
		c-0.4,0.7-0.4,1.4-0.4,2.2v3.9h-1.4v-12h1.4l0,4.8c0.9-1,1.8-1.1,2.4-1.1c1.1,0,1.7,0.4,2,0.7c0.1,0.1,0.2,0.2,0.3,0.4
		c0.5,0.8,0.5,1.6,0.5,2.5v4.6H112.8z"/>
	<path class="st10" d="M122.3,280.3c-0.1,0-0.5,0-0.8-0.2c-0.1-0.1-0.2-0.3-0.3-0.3c-0.2-0.3-0.2-0.5-0.3-0.7
		c-0.4,0.4-1.2,1.3-2.7,1.3c-0.5,0-0.9-0.1-1.1-0.2c-1-0.3-1.6-1.1-1.6-2.1c0-0.4,0.1-1.1,0.9-1.7c0.8-0.6,2.2-0.8,3.2-0.9l1.2-0.1
		c0-0.2,0-0.4,0-0.7c0-0.6-0.1-1.8-1.8-1.8c-0.3,0-1.3,0-1.6,1c-0.1,0.3-0.1,0.4-0.1,0.7l-1.4-0.1c0-0.2,0-0.4,0.1-0.8
		c0.3-0.8,1-1.8,2.9-1.8c0.2,0,0.7,0,1.3,0.2c0.3,0.1,1.4,0.4,1.8,1.5c0.2,0.4,0.2,0.8,0.2,1.7v2.6c0,0.2,0,0.4,0,0.5
		c0,0.2,0,0.6,0.6,0.6c0.2,0,0.3,0,0.4-0.1v1.1C122.7,280.3,122.5,280.3,122.3,280.3z M120.8,276.4v-0.2c-0.6,0.1-2.2,0.3-2.9,0.6
		c-0.3,0.1-1,0.4-1,1.2c0,0.6,0.4,1.2,1.5,1.2c0.7,0,2.3-0.3,2.3-2.4C120.8,276.8,120.8,276.6,120.8,276.4z"/>
	<path class="st10" d="M130.3,279.1c-0.4,0.6-1.3,1.3-3,1.3c-0.2,0-1.5,0-2.4-0.6c-0.1-0.1-0.3-0.2-0.6-0.5
		c-0.6-0.7-0.7-1.4-0.7-1.7l1.5-0.2c0,0.5,0.1,1,0.4,1.4c0.5,0.5,1.1,0.6,1.8,0.6c0.2,0,1,0,1.5-0.5c0.4-0.3,0.4-0.7,0.4-0.9
		c0-0.1,0-0.4-0.2-0.6c-0.3-0.5-1.1-0.6-1.5-0.7l-0.8-0.2c-1-0.2-1.5-0.4-1.9-0.6c-0.6-0.4-1-0.9-1-1.7c0-0.2,0-0.8,0.4-1.3
		c0.8-1.1,2.4-1.1,2.7-1.1c1.7,0,2.6,0.8,3,1.4c0.3,0.5,0.4,1,0.4,1.2l-1.5,0.2c0-0.4,0-0.6-0.1-0.7c-0.2-0.4-0.9-1-2-1
		c-1.1,0-1.6,0.7-1.6,1.2c0,0.1,0,0.2,0.1,0.4c0.3,0.4,0.9,0.6,1.8,0.8l0.8,0.2c0.2,0.1,0.5,0.1,0.7,0.2c1.1,0.3,1.9,0.9,1.9,2.1
		C130.6,278.1,130.6,278.6,130.3,279.1z"/>
	<path class="st10" d="M133.9,280.3c-0.8,0-1.2-0.2-1.4-0.5s-0.2-0.6-0.2-1.3v-5.2h-1.3v-1.1h1.3v-2.5h1.4v2.5h1.4v1.1h-1.4v4.6
		c0,0.6,0,0.9,0.1,1.1c0.1,0.2,0.3,0.2,0.5,0.2c0.2,0,0.5-0.1,0.8-0.2v1.1C135.1,280.2,134.5,280.3,133.9,280.3z"/>
	<path class="st10" d="M142.8,280.3c-0.1,0-0.5,0-0.8-0.2c-0.1-0.1-0.2-0.3-0.3-0.3c-0.2-0.3-0.2-0.5-0.3-0.7
		c-0.4,0.4-1.2,1.3-2.7,1.3c-0.5,0-0.9-0.1-1.1-0.2c-1-0.3-1.6-1.1-1.6-2.1c0-0.4,0.1-1.1,0.9-1.7c0.8-0.6,2.2-0.8,3.2-0.9l1.2-0.1
		c0-0.2,0-0.4,0-0.7c0-0.6-0.1-1.8-1.8-1.8c-0.3,0-1.3,0-1.6,1c-0.1,0.3-0.1,0.4-0.1,0.7l-1.4-0.1c0-0.2,0-0.4,0.1-0.8
		c0.3-0.8,1-1.8,2.9-1.8c0.2,0,0.7,0,1.3,0.2c0.3,0.1,1.4,0.4,1.8,1.5c0.2,0.4,0.2,0.8,0.2,1.7v2.6c0,0.2,0,0.4,0,0.5
		c0,0.2,0,0.6,0.6,0.6c0.2,0,0.3,0,0.4-0.1v1.1C143.3,280.3,143.1,280.3,142.8,280.3z M141.3,276.4v-0.2c-0.6,0.1-2.2,0.3-2.9,0.6
		c-0.3,0.1-1,0.4-1,1.2c0,0.6,0.4,1.2,1.5,1.2c0.7,0,2.3-0.3,2.3-2.4C141.3,276.8,141.3,276.6,141.3,276.4z"/>
</g>
<g class="st3">
	<path class="st10" d="M60.1,295.6v2.7h-1.5v-2.7h-5.2v-1.4l5.5-7.3h1.2v7.4h1.7v1.3H60.1z M55,294.3h3.6l0.1-5.1L55,294.3z"/>
	<path class="st10" d="M73.6,297.9c-0.9,0.7-2.1,0.7-2.4,0.7c-0.2,0-0.9,0-1.5-0.2c-1-0.3-2.5-1.4-2.5-4c0-2.6,1.4-3.7,2.4-4.1
		c0.6-0.2,1.2-0.2,1.5-0.2c2.1,0,3.1,1.2,3.5,2c0.1,0.3,0.2,0.4,0.2,0.7l-1.5,0.1c0-0.1-0.1-0.6-0.3-0.9c-0.6-0.9-1.5-0.9-1.8-0.9
		c-1.2,0-2.4,0.8-2.4,3.2c0,1.4,0.5,2.2,0.9,2.6c0.5,0.4,1,0.6,1.6,0.6c0.4,0,0.7-0.1,1-0.2c0.9-0.4,1.1-1.2,1.2-2l1.5,0.1
		C74.7,296.8,74,297.5,73.6,297.9z"/>
	<path class="st10" d="M82.6,297.2c-0.4,0.5-1.3,1.3-3,1.3c-0.5,0-1.8-0.1-2.8-1.1c-0.5-0.5-1.2-1.5-1.2-3.2c0-1,0.3-2.1,0.9-2.9
		c0.8-1,1.8-1.4,3.1-1.4c0.5,0,1.1,0.1,1.6,0.3c0.9,0.4,2.3,1.5,2.3,4C83.6,294.8,83.5,296.1,82.6,297.2z M81.7,292.3
		c-0.1-0.2-0.3-0.5-0.5-0.6c-0.6-0.5-1.2-0.5-1.5-0.5c-2.6,0-2.5,2.8-2.5,3.3c0,0.4,0.1,0.7,0.1,0.8c0.1,0.6,0.5,2.3,2.4,2.3
		c0.4,0,1.3-0.1,1.9-1c0.5-0.8,0.5-2,0.5-2.2C82.1,294.1,82.1,293.1,81.7,292.3z"/>
	<path class="st10" d="M85,298.3v-12h1.3v12H85z"/>
	<path class="st10" d="M94.5,298.4c-0.1,0-0.5,0-0.8-0.2c-0.1-0.1-0.2-0.3-0.3-0.3c-0.2-0.3-0.2-0.5-0.3-0.7
		c-0.4,0.4-1.2,1.3-2.7,1.3c-0.5,0-0.9-0.1-1.1-0.2c-1-0.3-1.6-1.1-1.6-2.1c0-0.4,0.1-1.1,0.9-1.7c0.8-0.6,2.2-0.8,3.2-0.9l1.2-0.1
		c0-0.2,0-0.4,0-0.7c0-0.6-0.1-1.8-1.8-1.8c-0.3,0-1.3,0-1.6,1c-0.1,0.3-0.1,0.4-0.1,0.7l-1.4-0.1c0-0.2,0-0.4,0.1-0.8
		c0.3-0.8,1-1.8,2.9-1.8c0.2,0,0.7,0,1.3,0.2c0.3,0.1,1.4,0.4,1.8,1.5c0.2,0.4,0.2,0.8,0.2,1.7v2.6c0,0.2,0,0.4,0,0.5
		c0,0.2,0,0.6,0.6,0.6c0.2,0,0.3,0,0.4-0.1v1.1C94.9,298.4,94.7,298.4,94.5,298.4z M93,294.6v-0.2c-0.6,0.1-2.2,0.3-2.9,0.6
		c-0.3,0.1-1,0.4-1,1.2c0,0.6,0.4,1.2,1.5,1.2c0.7,0,2.3-0.3,2.3-2.4C93,294.9,93,294.7,93,294.6z"/>
	<path class="st10" d="M103.3,297.2c-0.5,0.6-1,0.9-1.3,1s-0.8,0.3-1.6,0.3c-1,0-1.5-0.3-1.8-0.5c-0.4-0.2-0.6-0.5-0.9-0.8v1h-1.4
		v-12h1.4v5.1c0.1-0.1,0.2-0.3,0.4-0.5c0.6-0.6,1.5-0.9,2.4-0.9c0.5,0,1.7,0.1,2.7,1.2c0.5,0.5,1,1.4,1,3
		C104.1,294.7,104.1,296.1,103.3,297.2z M102.3,292.5c-0.2-0.4-0.8-1.2-2.1-1.2c-1,0-1.5,0.5-1.8,0.7c-0.4,0.4-0.8,1.1-0.8,2.3
		c0,0.9,0.2,1.4,0.4,1.8c0.2,0.4,0.8,1.3,2.2,1.3c0.5,0,0.9-0.1,1.3-0.4c0.6-0.4,1.2-1.2,1.2-2.8C102.7,294,102.7,293.2,102.3,292.5
		z"/>
	<path class="st10" d="M112,297.2c-0.4,0.5-1.3,1.3-3,1.3c-0.5,0-1.8-0.1-2.8-1.1c-0.5-0.5-1.2-1.5-1.2-3.2c0-1,0.3-2.1,0.9-2.9
		c0.8-1,1.8-1.4,3.1-1.4c0.5,0,1.1,0.1,1.6,0.3c0.9,0.4,2.3,1.5,2.3,4C113,294.8,112.9,296.1,112,297.2z M111.1,292.3
		c-0.1-0.2-0.3-0.5-0.5-0.6c-0.6-0.5-1.2-0.5-1.5-0.5c-2.6,0-2.5,2.8-2.5,3.3c0,0.4,0.1,0.7,0.1,0.8c0.1,0.6,0.5,2.3,2.4,2.3
		c0.4,0,1.3-0.1,1.9-1c0.5-0.8,0.5-2,0.5-2.2C111.5,294.1,111.5,293.1,111.1,292.3z"/>
	<path class="st10" d="M117.5,291.7c-0.8,0.1-1.4,0.7-1.6,1.5c-0.1,0.4-0.1,0.7-0.1,1.5v3.7h-1.4v-8h1.4v1.5
		c0.2-0.4,0.4-0.7,0.7-0.9c0.3-0.3,1-0.6,2-0.6v1.5C118,291.6,117.7,291.6,117.5,291.7z"/>
	<path class="st10" d="M125.6,298.4c-0.1,0-0.5,0-0.8-0.2c-0.1-0.1-0.2-0.3-0.3-0.3c-0.2-0.3-0.2-0.5-0.3-0.7
		c-0.4,0.4-1.2,1.3-2.7,1.3c-0.5,0-0.9-0.1-1.1-0.2c-1-0.3-1.6-1.1-1.6-2.1c0-0.4,0.1-1.1,0.9-1.7c0.8-0.6,2.2-0.8,3.2-0.9l1.2-0.1
		c0-0.2,0-0.4,0-0.7c0-0.6-0.1-1.8-1.8-1.8c-0.3,0-1.3,0-1.6,1c-0.1,0.3-0.1,0.4-0.1,0.7l-1.4-0.1c0-0.2,0-0.4,0.1-0.8
		c0.3-0.8,1-1.8,2.9-1.8c0.2,0,0.7,0,1.3,0.2c0.3,0.1,1.4,0.4,1.8,1.5c0.2,0.4,0.2,0.8,0.2,1.7v2.6c0,0.2,0,0.4,0,0.5
		c0,0.2,0,0.6,0.6,0.6c0.2,0,0.3,0,0.4-0.1v1.1C126.1,298.4,125.9,298.4,125.6,298.4z M124.1,294.6v-0.2c-0.6,0.1-2.2,0.3-2.9,0.6
		c-0.3,0.1-1,0.4-1,1.2c0,0.6,0.4,1.2,1.5,1.2c0.7,0,2.3-0.3,2.3-2.4C124.2,294.9,124.1,294.7,124.1,294.6z"/>
	<path class="st10" d="M133.5,298.3v-1c-0.4,0.5-1.2,1.3-2.7,1.3c-1.5,0-2.3-0.7-2.7-1.2c-0.5-0.5-1-1.5-1-3.1c0-1,0.2-2,0.8-2.8
		c0.4-0.5,1.2-1.4,2.9-1.4c1.1,0,1.9,0.5,2.3,0.8c0.2,0.2,0.3,0.3,0.5,0.5v-5h1.4v12H133.5z M133.4,293.3c-0.3-1.2-1.2-2-2.4-2
		c-0.4,0-1.2,0.1-1.8,0.8c-0.5,0.6-0.7,1.4-0.7,2.2c0,0.3,0,1.3,0.6,2.2c0.6,0.8,1.5,0.9,1.9,0.9c0.5,0,0.9-0.1,1.3-0.3
		c0.6-0.4,1.2-1.2,1.2-2.7C133.5,294.2,133.5,293.7,133.4,293.3z"/>
	<path class="st10" d="M143.2,297.2c-0.4,0.5-1.3,1.3-3,1.3c-0.5,0-1.8-0.1-2.8-1.1c-0.5-0.5-1.2-1.5-1.2-3.2c0-1,0.3-2.1,0.9-2.9
		c0.8-1,1.8-1.4,3.1-1.4c0.5,0,1.1,0.1,1.6,0.3c0.9,0.4,2.3,1.5,2.3,4C144.1,294.8,144.1,296.1,143.2,297.2z M142.3,292.3
		c-0.1-0.2-0.3-0.5-0.5-0.6c-0.6-0.5-1.2-0.5-1.5-0.5c-2.6,0-2.5,2.8-2.5,3.3c0,0.4,0.1,0.7,0.1,0.8c0.1,0.6,0.5,2.3,2.4,2.3
		c0.4,0,1.3-0.1,1.9-1c0.5-0.8,0.5-2,0.5-2.2C142.7,294.1,142.7,293.1,142.3,292.3z"/>
	<path class="st10" d="M148.7,291.7c-0.8,0.1-1.4,0.7-1.6,1.5c-0.1,0.4-0.1,0.7-0.1,1.5v3.7h-1.4v-8h1.4v1.5
		c0.2-0.4,0.4-0.7,0.7-0.9c0.3-0.3,1-0.6,2-0.6v1.5C149.2,291.6,148.9,291.6,148.7,291.7z"/>
	<path class="st10" d="M157.1,297c-0.4,0.6-1.3,1.6-3.1,1.6c-0.8,0-1.4-0.2-1.7-0.3c-1-0.4-2.2-1.5-2.2-4c0-1.5,0.5-2.3,0.9-2.8
		c0.7-0.9,1.8-1.4,3-1.4c0.4,0,0.9,0.1,1.3,0.2c0.5,0.2,1.5,0.6,2,1.9c0.2,0.5,0.4,1.2,0.4,2.4h-6.1c0,1.4,0.7,2.2,1.2,2.6
		c0.4,0.3,0.9,0.4,1.4,0.4c0.7,0,1.1-0.3,1.3-0.5c0.1-0.1,0.3-0.3,0.4-0.5c0.2-0.4,0.3-0.7,0.3-0.8l1.4,0.2
		C157.6,296,157.4,296.5,157.1,297z M156,292.8c-0.3-1-1.1-1.7-2.2-1.7c-1.4,0-2.2,1.2-2.3,2.5h4.6C156.1,293.2,156.1,293,156,292.8
		z"/>
	<path class="st10" d="M165.2,297.2c-0.4,0.6-1.3,1.3-3,1.3c-0.2,0-1.5,0-2.4-0.6c-0.1-0.1-0.3-0.2-0.6-0.5
		c-0.6-0.7-0.7-1.4-0.7-1.7l1.5-0.2c0,0.5,0.1,1,0.4,1.4c0.5,0.5,1.1,0.6,1.8,0.6c0.2,0,1,0,1.5-0.5c0.4-0.3,0.4-0.7,0.4-0.9
		c0-0.1,0-0.4-0.2-0.6c-0.3-0.5-1.1-0.6-1.5-0.7l-0.8-0.2c-1-0.2-1.5-0.4-1.9-0.6c-0.6-0.4-1-0.9-1-1.7c0-0.2,0-0.8,0.4-1.3
		c0.8-1.1,2.4-1.1,2.7-1.1c1.7,0,2.6,0.8,3,1.4c0.3,0.5,0.4,1,0.4,1.2l-1.5,0.2c0-0.4,0-0.6-0.1-0.7c-0.2-0.4-0.9-1-2-1
		c-1.1,0-1.6,0.7-1.6,1.2c0,0.1,0,0.2,0.1,0.4c0.3,0.4,0.9,0.6,1.8,0.8l0.8,0.2c0.2,0.1,0.5,0.1,0.7,0.2c1.1,0.3,1.9,0.9,1.9,2.1
		C165.5,296.2,165.5,296.7,165.2,297.2z"/>
</g>
<g class="st3">
	<path class="st10" d="M271.2,275c-0.4,0.1-0.9,0.2-1.8,0.2h-3.5v5.1h-1.5v-12h5.2c0.9,0,1.7,0,2.5,0.5c1.3,0.8,1.4,2.4,1.4,2.9
		C273.5,273.1,272.7,274.5,271.2,275z M271.8,270.7c-0.2-0.6-0.7-0.9-1.2-1.1c-0.4-0.1-0.6-0.1-1-0.1h-3.7v4.1h3.3
		c0.4,0,0.9,0,1.3-0.1c1-0.3,1.4-1.1,1.4-2.1C271.9,271.4,271.9,271.1,271.8,270.7z"/>
	<path class="st10" d="M280.7,280.3c-0.1,0-0.5,0-0.8-0.2c-0.1-0.1-0.2-0.3-0.3-0.3c-0.2-0.3-0.2-0.5-0.3-0.7
		c-0.4,0.4-1.2,1.3-2.7,1.3c-0.5,0-0.9-0.1-1.1-0.2c-1-0.3-1.6-1.1-1.6-2.1c0-0.4,0.1-1.1,0.9-1.7c0.8-0.6,2.2-0.8,3.2-0.9l1.2-0.1
		c0-0.2,0-0.4,0-0.7c0-0.6-0.1-1.8-1.8-1.8c-0.3,0-1.3,0-1.6,1c-0.1,0.3-0.1,0.4-0.1,0.7l-1.4-0.1c0-0.2,0-0.4,0.1-0.8
		c0.3-0.8,1-1.8,2.9-1.8c0.2,0,0.7,0,1.3,0.2c0.3,0.1,1.4,0.4,1.8,1.5c0.2,0.4,0.2,0.8,0.2,1.7v2.6c0,0.2,0,0.4,0,0.5
		c0,0.2,0,0.6,0.6,0.6c0.2,0,0.3,0,0.4-0.1v1.1C281.2,280.3,280.9,280.3,280.7,280.3z M279.2,276.4v-0.2c-0.6,0.1-2.2,0.3-2.9,0.6
		c-0.3,0.1-1,0.4-1,1.2c0,0.6,0.4,1.2,1.5,1.2c0.7,0,2.3-0.3,2.3-2.4C279.2,276.8,279.2,276.6,279.2,276.4z"/>
	<path class="st10" d="M285.7,273.5c-0.8,0.1-1.4,0.7-1.6,1.5c-0.1,0.4-0.1,0.7-0.1,1.5v3.7h-1.4v-8h1.4v1.5
		c0.2-0.4,0.4-0.7,0.7-0.9c0.3-0.3,1-0.6,2-0.6v1.5C286.2,273.5,285.9,273.5,285.7,273.5z"/>
	<path class="st10" d="M293.8,280.3c-0.1,0-0.5,0-0.8-0.2c-0.1-0.1-0.2-0.3-0.3-0.3c-0.2-0.3-0.2-0.5-0.3-0.7
		c-0.4,0.4-1.2,1.3-2.7,1.3c-0.5,0-0.9-0.1-1.1-0.2c-1-0.3-1.6-1.1-1.6-2.1c0-0.4,0.1-1.1,0.9-1.7c0.8-0.6,2.2-0.8,3.2-0.9l1.2-0.1
		c0-0.2,0-0.4,0-0.7c0-0.6-0.1-1.8-1.8-1.8c-0.3,0-1.3,0-1.6,1c-0.1,0.3-0.1,0.4-0.1,0.7l-1.4-0.1c0-0.2,0-0.4,0.1-0.8
		c0.3-0.8,1-1.8,2.9-1.8c0.2,0,0.7,0,1.3,0.2c0.3,0.1,1.4,0.4,1.8,1.5c0.2,0.4,0.2,0.8,0.2,1.7v2.6c0,0.2,0,0.4,0,0.5
		c0,0.2,0,0.6,0.6,0.6c0.2,0,0.3,0,0.4-0.1v1.1C294.3,280.3,294.1,280.3,293.8,280.3z M292.3,276.4v-0.2c-0.6,0.1-2.2,0.3-2.9,0.6
		c-0.3,0.1-1,0.4-1,1.2c0,0.6,0.4,1.2,1.5,1.2c0.7,0,2.3-0.3,2.3-2.4C292.3,276.8,292.3,276.6,292.3,276.4z"/>
	<path class="st10" d="M305.3,280.2V276c0-0.5,0-1.3-0.2-1.8c-0.3-0.7-0.9-1.1-1.6-1.1c-0.3,0-1.3,0.1-1.8,1
		c-0.4,0.7-0.4,1.4-0.4,2.2v3.9H300v-12h1.4l0,4.8c0.9-1,1.8-1.1,2.4-1.1c1.1,0,1.7,0.4,2,0.7c0.1,0.1,0.2,0.2,0.3,0.4
		c0.5,0.8,0.5,1.6,0.5,2.5v4.6H305.3z"/>
	<path class="st10" d="M314.7,280.3c-0.1,0-0.5,0-0.8-0.2c-0.1-0.1-0.2-0.3-0.3-0.3c-0.2-0.3-0.2-0.5-0.3-0.7
		c-0.4,0.4-1.2,1.3-2.7,1.3c-0.5,0-0.9-0.1-1.1-0.2c-1-0.3-1.6-1.1-1.6-2.1c0-0.4,0.1-1.1,0.9-1.7c0.8-0.6,2.2-0.8,3.2-0.9l1.2-0.1
		c0-0.2,0-0.4,0-0.7c0-0.6-0.1-1.8-1.8-1.8c-0.3,0-1.3,0-1.6,1c-0.1,0.3-0.1,0.4-0.1,0.7l-1.4-0.1c0-0.2,0-0.4,0.1-0.8
		c0.3-0.8,1-1.8,2.9-1.8c0.2,0,0.7,0,1.3,0.2c0.3,0.1,1.4,0.4,1.8,1.5c0.2,0.4,0.2,0.8,0.2,1.7v2.6c0,0.2,0,0.4,0,0.5
		c0,0.2,0,0.6,0.6,0.6c0.2,0,0.3,0,0.4-0.1v1.1C315.2,280.3,315,280.3,314.7,280.3z M313.2,276.4v-0.2c-0.6,0.1-2.2,0.3-2.9,0.6
		c-0.3,0.1-1,0.4-1,1.2c0,0.6,0.4,1.2,1.5,1.2c0.7,0,2.3-0.3,2.3-2.4C313.2,276.8,313.2,276.6,313.2,276.4z"/>
	<path class="st10" d="M322.7,279.1c-0.4,0.6-1.3,1.3-3,1.3c-0.2,0-1.5,0-2.4-0.6c-0.1-0.1-0.3-0.2-0.6-0.5
		c-0.6-0.7-0.7-1.4-0.7-1.7l1.5-0.2c0,0.5,0.1,1,0.4,1.4c0.5,0.5,1.1,0.6,1.8,0.6c0.2,0,1,0,1.5-0.5c0.4-0.3,0.4-0.7,0.4-0.9
		c0-0.1,0-0.4-0.2-0.6c-0.3-0.5-1.1-0.6-1.5-0.7l-0.8-0.2c-1-0.2-1.5-0.4-1.9-0.6c-0.6-0.4-1-0.9-1-1.7c0-0.2,0-0.8,0.4-1.3
		c0.8-1.1,2.4-1.1,2.7-1.1c1.7,0,2.6,0.8,3,1.4c0.3,0.5,0.4,1,0.4,1.2l-1.5,0.2c0-0.4,0-0.6-0.1-0.7c-0.2-0.4-0.9-1-2-1
		c-1.1,0-1.6,0.7-1.6,1.2c0,0.1,0,0.2,0.1,0.4c0.3,0.4,0.9,0.6,1.8,0.8l0.8,0.2c0.2,0.1,0.5,0.1,0.7,0.2c1.1,0.3,1.9,0.9,1.9,2.1
		C323.1,278.1,323.1,278.6,322.7,279.1z"/>
	<path class="st10" d="M326.4,280.3c-0.8,0-1.2-0.2-1.4-0.5c-0.2-0.3-0.2-0.6-0.2-1.3v-5.2h-1.3v-1.1h1.3v-2.5h1.4v2.5h1.4v1.1h-1.4
		v4.6c0,0.6,0,0.9,0.1,1.1c0.1,0.2,0.3,0.2,0.5,0.2c0.2,0,0.5-0.1,0.8-0.2v1.1C327.6,280.2,326.9,280.3,326.4,280.3z"/>
	<path class="st10" d="M335.3,280.3c-0.1,0-0.5,0-0.8-0.2c-0.1-0.1-0.2-0.3-0.3-0.3c-0.2-0.3-0.2-0.5-0.3-0.7
		c-0.4,0.4-1.2,1.3-2.7,1.3c-0.5,0-0.9-0.1-1.1-0.2c-1-0.3-1.6-1.1-1.6-2.1c0-0.4,0.1-1.1,0.9-1.7c0.8-0.6,2.2-0.8,3.2-0.9l1.2-0.1
		c0-0.2,0-0.4,0-0.7c0-0.6-0.1-1.8-1.8-1.8c-0.3,0-1.3,0-1.6,1c-0.1,0.3-0.1,0.4-0.1,0.7l-1.4-0.1c0-0.2,0-0.4,0.1-0.8
		c0.3-0.8,1-1.8,2.9-1.8c0.2,0,0.7,0,1.3,0.2c0.3,0.1,1.4,0.4,1.8,1.5c0.2,0.4,0.2,0.8,0.2,1.7v2.6c0,0.2,0,0.4,0,0.5
		c0,0.2,0,0.6,0.6,0.6c0.2,0,0.3,0,0.4-0.1v1.1C335.8,280.3,335.5,280.3,335.3,280.3z M333.8,276.4v-0.2c-0.6,0.1-2.2,0.3-2.9,0.6
		c-0.3,0.1-1,0.4-1,1.2c0,0.6,0.4,1.2,1.5,1.2c0.7,0,2.3-0.3,2.3-2.4C333.8,276.8,333.8,276.6,333.8,276.4z"/>
</g>
<g class="st3">
	<path class="st10" d="M252.6,295.6v2.7h-1.5v-2.7h-5.2v-1.4l5.5-7.3h1.2v7.4h1.7v1.3H252.6z M247.4,294.3h3.6l0.1-5.1L247.4,294.3z
		"/>
	<path class="st10" d="M266,297.9c-0.9,0.7-2.1,0.7-2.4,0.7c-0.2,0-0.9,0-1.5-0.2c-1-0.3-2.5-1.4-2.5-4c0-2.6,1.4-3.7,2.4-4.1
		c0.6-0.2,1.2-0.2,1.5-0.2c2.1,0,3.1,1.2,3.5,2c0.1,0.3,0.2,0.4,0.2,0.7l-1.5,0.1c0-0.1-0.1-0.6-0.3-0.9c-0.6-0.9-1.5-0.9-1.8-0.9
		c-1.2,0-2.4,0.8-2.4,3.2c0,1.4,0.5,2.2,0.9,2.6c0.5,0.4,1,0.6,1.6,0.6c0.4,0,0.7-0.1,1-0.2c0.9-0.4,1.1-1.2,1.2-2l1.5,0.1
		C267.2,296.8,266.5,297.5,266,297.9z"/>
	<path class="st10" d="M275.1,297.2c-0.4,0.5-1.3,1.3-3,1.3c-0.5,0-1.8-0.1-2.8-1.1c-0.5-0.5-1.2-1.5-1.2-3.2c0-1,0.3-2.1,0.9-2.9
		c0.8-1,1.8-1.4,3.1-1.4c0.5,0,1.1,0.1,1.6,0.3c0.9,0.4,2.3,1.5,2.3,4C276,294.8,276,296.1,275.1,297.2z M274.2,292.3
		c-0.1-0.2-0.3-0.5-0.5-0.6c-0.6-0.5-1.2-0.5-1.5-0.5c-2.6,0-2.5,2.8-2.5,3.3c0,0.4,0.1,0.7,0.1,0.8c0.1,0.6,0.5,2.3,2.4,2.3
		c0.4,0,1.3-0.1,1.9-1c0.5-0.8,0.5-2,0.5-2.2C274.6,294.1,274.6,293.1,274.2,292.3z"/>
	<path class="st10" d="M277.5,298.3v-12h1.3v12H277.5z"/>
	<path class="st10" d="M286.9,298.4c-0.1,0-0.5,0-0.8-0.2c-0.1-0.1-0.2-0.3-0.3-0.3c-0.2-0.3-0.2-0.5-0.3-0.7
		c-0.4,0.4-1.2,1.3-2.7,1.3c-0.5,0-0.9-0.1-1.1-0.2c-1-0.3-1.6-1.1-1.6-2.1c0-0.4,0.1-1.1,0.9-1.7c0.8-0.6,2.2-0.8,3.2-0.9l1.2-0.1
		c0-0.2,0-0.4,0-0.7c0-0.6-0.1-1.8-1.8-1.8c-0.3,0-1.3,0-1.6,1c-0.1,0.3-0.1,0.4-0.1,0.7l-1.4-0.1c0-0.2,0-0.4,0.1-0.8
		c0.3-0.8,1-1.8,2.9-1.8c0.2,0,0.7,0,1.3,0.2c0.3,0.1,1.4,0.4,1.8,1.5c0.2,0.4,0.2,0.8,0.2,1.7v2.6c0,0.2,0,0.4,0,0.5
		c0,0.2,0,0.6,0.6,0.6c0.2,0,0.3,0,0.4-0.1v1.1C287.4,298.4,287.2,298.4,286.9,298.4z M285.4,294.6v-0.2c-0.6,0.1-2.2,0.3-2.9,0.6
		c-0.3,0.1-1,0.4-1,1.2c0,0.6,0.4,1.2,1.5,1.2c0.7,0,2.3-0.3,2.3-2.4C285.4,294.9,285.4,294.7,285.4,294.6z"/>
	<path class="st10" d="M295.7,297.2c-0.5,0.6-1,0.9-1.3,1s-0.8,0.3-1.6,0.3c-1,0-1.5-0.3-1.8-0.5c-0.4-0.2-0.6-0.5-0.9-0.8v1h-1.4
		v-12h1.4v5.1c0.1-0.1,0.2-0.3,0.4-0.5c0.6-0.6,1.5-0.9,2.4-0.9c0.5,0,1.7,0.1,2.7,1.2c0.5,0.5,1,1.4,1,3
		C296.6,294.7,296.6,296.1,295.7,297.2z M294.8,292.5c-0.2-0.4-0.8-1.2-2.1-1.2c-1,0-1.5,0.5-1.8,0.7c-0.4,0.4-0.8,1.1-0.8,2.3
		c0,0.9,0.2,1.4,0.4,1.8c0.2,0.4,0.8,1.3,2.2,1.3c0.5,0,0.9-0.1,1.3-0.4c0.6-0.4,1.2-1.2,1.2-2.8C295.1,294,295.2,293.2,294.8,292.5
		z"/>
	<path class="st10" d="M304.5,297.2c-0.4,0.5-1.3,1.3-3,1.3c-0.5,0-1.8-0.1-2.8-1.1c-0.5-0.5-1.2-1.5-1.2-3.2c0-1,0.3-2.1,0.9-2.9
		c0.8-1,1.8-1.4,3.1-1.4c0.5,0,1.1,0.1,1.6,0.3c0.9,0.4,2.3,1.5,2.3,4C305.4,294.8,305.4,296.1,304.5,297.2z M303.5,292.3
		c-0.1-0.2-0.3-0.5-0.5-0.6c-0.6-0.5-1.2-0.5-1.5-0.5c-2.6,0-2.5,2.8-2.5,3.3c0,0.4,0.1,0.7,0.1,0.8c0.1,0.6,0.5,2.3,2.4,2.3
		c0.4,0,1.3-0.1,1.9-1c0.5-0.8,0.5-2,0.5-2.2C304,294.1,304,293.1,303.5,292.3z"/>
	<path class="st10" d="M309.9,291.7c-0.8,0.1-1.4,0.7-1.6,1.5c-0.1,0.4-0.1,0.7-0.1,1.5v3.7h-1.4v-8h1.4v1.5
		c0.2-0.4,0.4-0.7,0.7-0.9c0.3-0.3,1-0.6,2-0.6v1.5C310.5,291.6,310.2,291.6,309.9,291.7z"/>
	<path class="st10" d="M318.1,298.4c-0.1,0-0.5,0-0.8-0.2c-0.1-0.1-0.2-0.3-0.3-0.3c-0.2-0.3-0.2-0.5-0.3-0.7
		c-0.4,0.4-1.2,1.3-2.7,1.3c-0.5,0-0.9-0.1-1.1-0.2c-1-0.3-1.6-1.1-1.6-2.1c0-0.4,0.1-1.1,0.9-1.7c0.8-0.6,2.2-0.8,3.2-0.9l1.2-0.1
		c0-0.2,0-0.4,0-0.7c0-0.6-0.1-1.8-1.8-1.8c-0.3,0-1.3,0-1.6,1c-0.1,0.3-0.1,0.4-0.1,0.7l-1.4-0.1c0-0.2,0-0.4,0.1-0.8
		c0.3-0.8,1-1.8,2.9-1.8c0.2,0,0.7,0,1.3,0.2c0.3,0.1,1.4,0.4,1.8,1.5c0.2,0.4,0.2,0.8,0.2,1.7v2.6c0,0.2,0,0.4,0,0.5
		c0,0.2,0,0.6,0.6,0.6c0.2,0,0.3,0,0.4-0.1v1.1C318.6,298.4,318.3,298.4,318.1,298.4z M316.6,294.6v-0.2c-0.6,0.1-2.2,0.3-2.9,0.6
		c-0.3,0.1-1,0.4-1,1.2c0,0.6,0.4,1.2,1.5,1.2c0.7,0,2.3-0.3,2.3-2.4C316.6,294.9,316.6,294.7,316.6,294.6z"/>
	<path class="st10" d="M325.9,298.3v-1c-0.4,0.5-1.2,1.3-2.7,1.3c-1.5,0-2.3-0.7-2.7-1.2c-0.5-0.5-1-1.5-1-3.1c0-1,0.2-2,0.8-2.8
		c0.4-0.5,1.2-1.4,2.9-1.4c1.1,0,1.9,0.5,2.3,0.8c0.2,0.2,0.3,0.3,0.5,0.5v-5h1.4v12H325.9z M325.9,293.3c-0.3-1.2-1.2-2-2.4-2
		c-0.4,0-1.2,0.1-1.8,0.8c-0.5,0.6-0.7,1.4-0.7,2.2c0,0.3,0,1.3,0.6,2.2c0.6,0.8,1.5,0.9,1.9,0.9c0.5,0,0.9-0.1,1.3-0.3
		c0.6-0.4,1.2-1.2,1.2-2.7C326,294.2,326,293.7,325.9,293.3z"/>
	<path class="st10" d="M335.7,297.2c-0.4,0.5-1.3,1.3-3,1.3c-0.5,0-1.8-0.1-2.8-1.1c-0.5-0.5-1.2-1.5-1.2-3.2c0-1,0.3-2.1,0.9-2.9
		c0.8-1,1.8-1.4,3.1-1.4c0.5,0,1.1,0.1,1.6,0.3c0.9,0.4,2.3,1.5,2.3,4C336.6,294.8,336.5,296.1,335.7,297.2z M334.7,292.3
		c-0.1-0.2-0.3-0.5-0.5-0.6c-0.6-0.5-1.2-0.5-1.5-0.5c-2.6,0-2.5,2.8-2.5,3.3c0,0.4,0.1,0.7,0.1,0.8c0.1,0.6,0.5,2.3,2.4,2.3
		c0.4,0,1.3-0.1,1.9-1c0.5-0.8,0.5-2,0.5-2.2C335.1,294.1,335.1,293.1,334.7,292.3z"/>
	<path class="st10" d="M341.1,291.7c-0.8,0.1-1.4,0.7-1.6,1.5c-0.1,0.4-0.1,0.7-0.1,1.5v3.7H338v-8h1.4v1.5c0.2-0.4,0.4-0.7,0.7-0.9
		c0.3-0.3,1-0.6,2-0.6v1.5C341.6,291.6,341.4,291.6,341.1,291.7z"/>
	<path class="st10" d="M349.6,297c-0.4,0.6-1.3,1.6-3.1,1.6c-0.8,0-1.4-0.2-1.7-0.3c-1-0.4-2.2-1.5-2.2-4c0-1.5,0.5-2.3,0.9-2.8
		c0.7-0.9,1.8-1.4,3-1.4c0.4,0,0.9,0.1,1.3,0.2c0.5,0.2,1.5,0.6,2,1.9c0.2,0.5,0.4,1.2,0.4,2.4H344c0,1.4,0.7,2.2,1.2,2.6
		c0.4,0.3,0.9,0.4,1.4,0.4c0.7,0,1.1-0.3,1.3-0.5c0.1-0.1,0.3-0.3,0.4-0.5c0.2-0.4,0.3-0.7,0.3-0.8l1.4,0.2
		C350,296,349.9,296.5,349.6,297z M348.5,292.8c-0.3-1-1.1-1.7-2.2-1.7c-1.4,0-2.2,1.2-2.3,2.5h4.6
		C348.6,293.2,348.6,293,348.5,292.8z"/>
	<path class="st10" d="M357.6,297.2c-0.4,0.6-1.3,1.3-3,1.3c-0.2,0-1.5,0-2.4-0.6c-0.1-0.1-0.3-0.2-0.6-0.5
		c-0.6-0.7-0.7-1.4-0.7-1.7l1.5-0.2c0,0.5,0.1,1,0.4,1.4c0.5,0.5,1.1,0.6,1.8,0.6c0.2,0,1,0,1.5-0.5c0.4-0.3,0.4-0.7,0.4-0.9
		c0-0.1,0-0.4-0.2-0.6c-0.3-0.5-1.1-0.6-1.5-0.7l-0.8-0.2c-1-0.2-1.5-0.4-1.9-0.6c-0.6-0.4-1-0.9-1-1.7c0-0.2,0-0.8,0.4-1.3
		c0.8-1.1,2.4-1.1,2.7-1.1c1.7,0,2.6,0.8,3,1.4c0.3,0.5,0.4,1,0.4,1.2l-1.5,0.2c0-0.4,0-0.6-0.1-0.7c-0.2-0.4-0.9-1-2-1
		c-1.1,0-1.6,0.7-1.6,1.2c0,0.1,0,0.2,0.1,0.4c0.3,0.4,0.9,0.6,1.8,0.8l0.8,0.2c0.2,0.1,0.5,0.1,0.7,0.2c1.1,0.3,1.9,0.9,1.9,2.1
		C358,296.2,358,296.7,357.6,297.2z"/>
</g>
<g class="st3">
	<path class="st10" d="M454.5,275c-0.4,0.1-0.9,0.2-1.8,0.2h-3.5v5.1h-1.5v-12h5.2c0.9,0,1.7,0,2.5,0.5c1.3,0.8,1.4,2.4,1.4,2.9
		C456.8,273.1,456,274.5,454.5,275z M455.1,270.7c-0.2-0.6-0.7-0.9-1.2-1.1c-0.4-0.1-0.6-0.1-1-0.1h-3.7v4.1h3.3
		c0.4,0,0.9,0,1.3-0.1c1-0.3,1.4-1.1,1.4-2.1C455.2,271.4,455.2,271.1,455.1,270.7z"/>
	<path class="st10" d="M464,280.3c-0.1,0-0.5,0-0.8-0.2c-0.1-0.1-0.2-0.3-0.3-0.3c-0.2-0.3-0.2-0.5-0.3-0.7
		c-0.4,0.4-1.2,1.3-2.7,1.3c-0.5,0-0.9-0.1-1.1-0.2c-1-0.3-1.6-1.1-1.6-2.1c0-0.4,0.1-1.1,0.9-1.7c0.8-0.6,2.2-0.8,3.2-0.9l1.2-0.1
		c0-0.2,0-0.4,0-0.7c0-0.6-0.1-1.8-1.8-1.8c-0.3,0-1.3,0-1.6,1c-0.1,0.3-0.1,0.4-0.1,0.7l-1.4-0.1c0-0.2,0-0.4,0.1-0.8
		c0.3-0.8,1-1.8,2.9-1.8c0.2,0,0.7,0,1.3,0.2c0.3,0.1,1.4,0.4,1.8,1.5c0.2,0.4,0.2,0.8,0.2,1.7v2.6c0,0.2,0,0.4,0,0.5
		c0,0.2,0,0.6,0.6,0.6c0.2,0,0.3,0,0.4-0.1v1.1C464.5,280.3,464.3,280.3,464,280.3z M462.5,276.4v-0.2c-0.6,0.1-2.2,0.3-2.9,0.6
		c-0.3,0.1-1,0.4-1,1.2c0,0.6,0.4,1.2,1.5,1.2c0.7,0,2.3-0.3,2.3-2.4C462.5,276.8,462.5,276.6,462.5,276.4z"/>
	<path class="st10" d="M469,273.5c-0.8,0.1-1.4,0.7-1.6,1.5c-0.1,0.4-0.1,0.7-0.1,1.5v3.7h-1.4v-8h1.4v1.5c0.2-0.4,0.4-0.7,0.7-0.9
		c0.3-0.3,1-0.6,2-0.6v1.5C469.5,273.5,469.2,273.5,469,273.5z"/>
	<path class="st10" d="M477.2,280.3c-0.1,0-0.5,0-0.8-0.2c-0.1-0.1-0.2-0.3-0.3-0.3c-0.2-0.3-0.2-0.5-0.3-0.7
		c-0.4,0.4-1.2,1.3-2.7,1.3c-0.5,0-0.9-0.1-1.1-0.2c-1-0.3-1.6-1.1-1.6-2.1c0-0.4,0.1-1.1,0.9-1.7c0.8-0.6,2.2-0.8,3.2-0.9l1.2-0.1
		c0-0.2,0-0.4,0-0.7c0-0.6-0.1-1.8-1.8-1.8c-0.3,0-1.3,0-1.6,1c-0.1,0.3-0.1,0.4-0.1,0.7l-1.4-0.1c0-0.2,0-0.4,0.1-0.8
		c0.3-0.8,1-1.8,2.9-1.8c0.2,0,0.7,0,1.3,0.2c0.3,0.1,1.4,0.4,1.8,1.5c0.2,0.4,0.2,0.8,0.2,1.7v2.6c0,0.2,0,0.4,0,0.5
		c0,0.2,0,0.6,0.6,0.6c0.2,0,0.3,0,0.4-0.1v1.1C477.6,280.3,477.4,280.3,477.2,280.3z M475.6,276.4v-0.2c-0.6,0.1-2.2,0.3-2.9,0.6
		c-0.3,0.1-1,0.4-1,1.2c0,0.6,0.4,1.2,1.5,1.2c0.7,0,2.3-0.3,2.3-2.4C475.7,276.8,475.6,276.6,475.6,276.4z"/>
	<path class="st10" d="M488.6,280.2V276c0-0.5,0-1.3-0.2-1.8c-0.3-0.7-0.9-1.1-1.6-1.1c-0.3,0-1.3,0.1-1.8,1
		c-0.4,0.7-0.4,1.4-0.4,2.2v3.9h-1.4v-12h1.4l0,4.8c0.9-1,1.8-1.1,2.4-1.1c1.1,0,1.7,0.4,2,0.7c0.1,0.1,0.2,0.2,0.3,0.4
		c0.5,0.8,0.5,1.6,0.5,2.5v4.6H488.6z"/>
	<path class="st10" d="M498.1,280.3c-0.1,0-0.5,0-0.8-0.2c-0.1-0.1-0.2-0.3-0.3-0.3c-0.2-0.3-0.2-0.5-0.3-0.7
		c-0.4,0.4-1.2,1.3-2.7,1.3c-0.5,0-0.9-0.1-1.1-0.2c-1-0.3-1.6-1.1-1.6-2.1c0-0.4,0.1-1.1,0.9-1.7c0.8-0.6,2.2-0.8,3.2-0.9l1.2-0.1
		c0-0.2,0-0.4,0-0.7c0-0.6-0.1-1.8-1.8-1.8c-0.3,0-1.3,0-1.6,1c-0.1,0.3-0.1,0.4-0.1,0.7l-1.4-0.1c0-0.2,0-0.4,0.1-0.8
		c0.3-0.8,1-1.8,2.9-1.8c0.2,0,0.7,0,1.3,0.2c0.3,0.1,1.4,0.4,1.8,1.5c0.2,0.4,0.2,0.8,0.2,1.7v2.6c0,0.2,0,0.4,0,0.5
		c0,0.2,0,0.6,0.6,0.6c0.2,0,0.3,0,0.4-0.1v1.1C498.5,280.3,498.3,280.3,498.1,280.3z M496.6,276.4v-0.2c-0.6,0.1-2.2,0.3-2.9,0.6
		c-0.3,0.1-1,0.4-1,1.2c0,0.6,0.4,1.2,1.5,1.2c0.7,0,2.3-0.3,2.3-2.4C496.6,276.8,496.6,276.6,496.6,276.4z"/>
	<path class="st10" d="M506.1,279.1c-0.4,0.6-1.3,1.3-3,1.3c-0.2,0-1.5,0-2.4-0.6c-0.1-0.1-0.3-0.2-0.6-0.5
		c-0.6-0.7-0.7-1.4-0.7-1.7l1.5-0.2c0,0.5,0.1,1,0.4,1.4c0.5,0.5,1.1,0.6,1.8,0.6c0.2,0,1,0,1.5-0.5c0.4-0.3,0.4-0.7,0.4-0.9
		c0-0.1,0-0.4-0.2-0.6c-0.3-0.5-1.1-0.6-1.5-0.7l-0.8-0.2c-1-0.2-1.5-0.4-1.9-0.6c-0.6-0.4-1-0.9-1-1.7c0-0.2,0-0.8,0.4-1.3
		c0.8-1.1,2.4-1.1,2.7-1.1c1.7,0,2.6,0.8,3,1.4c0.3,0.5,0.4,1,0.4,1.2l-1.5,0.2c0-0.4,0-0.6-0.1-0.7c-0.2-0.4-0.9-1-2-1
		c-1.1,0-1.6,0.7-1.6,1.2c0,0.1,0,0.2,0.1,0.4c0.3,0.4,0.9,0.6,1.8,0.8l0.8,0.2c0.2,0.1,0.5,0.1,0.7,0.2c1.1,0.3,1.9,0.9,1.9,2.1
		C506.4,278.1,506.4,278.6,506.1,279.1z"/>
	<path class="st10" d="M509.7,280.3c-0.8,0-1.2-0.2-1.4-0.5c-0.2-0.3-0.2-0.6-0.2-1.3v-5.2h-1.3v-1.1h1.3v-2.5h1.4v2.5h1.4v1.1h-1.4
		v4.6c0,0.6,0,0.9,0.1,1.1c0.1,0.2,0.3,0.2,0.5,0.2c0.2,0,0.5-0.1,0.8-0.2v1.1C510.9,280.2,510.2,280.3,509.7,280.3z"/>
	<path class="st10" d="M518.6,280.3c-0.1,0-0.5,0-0.8-0.2c-0.1-0.1-0.2-0.3-0.3-0.3c-0.2-0.3-0.2-0.5-0.3-0.7
		c-0.4,0.4-1.2,1.3-2.7,1.3c-0.5,0-0.9-0.1-1.1-0.2c-1-0.3-1.6-1.1-1.6-2.1c0-0.4,0.1-1.1,0.9-1.7c0.8-0.6,2.2-0.8,3.2-0.9l1.2-0.1
		c0-0.2,0-0.4,0-0.7c0-0.6-0.1-1.8-1.8-1.8c-0.3,0-1.3,0-1.6,1c-0.1,0.3-0.1,0.4-0.1,0.7l-1.4-0.1c0-0.2,0-0.4,0.1-0.8
		c0.3-0.8,1-1.8,2.9-1.8c0.2,0,0.7,0,1.3,0.2c0.3,0.1,1.4,0.4,1.8,1.5c0.2,0.4,0.2,0.8,0.2,1.7v2.6c0,0.2,0,0.4,0,0.5
		c0,0.2,0,0.6,0.6,0.6c0.2,0,0.3,0,0.4-0.1v1.1C519.1,280.3,518.8,280.3,518.6,280.3z M517.1,276.4v-0.2c-0.6,0.1-2.2,0.3-2.9,0.6
		c-0.3,0.1-1,0.4-1,1.2c0,0.6,0.4,1.2,1.5,1.2c0.7,0,2.3-0.3,2.3-2.4C517.1,276.8,517.1,276.6,517.1,276.4z"/>
</g>
<g class="st3">
	<path class="st10" d="M437.1,296.6c-0.5,0.8-1.5,1.8-3.7,1.8c-0.5,0-2.5,0-3.5-1.6c-0.5-0.8-0.6-1.5-0.6-1.9c0-0.8,0.3-1.6,0.9-2.2
		c0.2-0.2,0.3-0.3,0.7-0.5c-0.9-0.6-1.3-1.3-1.3-2.4c0-0.9,0.3-1.4,0.5-1.7c0.5-0.7,1.4-1.3,3.3-1.3c1.2,0,2.5,0.2,3.2,1.3
		c0.5,0.7,0.5,1.5,0.5,1.8c0,0.3,0,1.3-0.8,2c-0.2,0.1-0.3,0.2-0.4,0.3c0.6,0.4,1.6,1,1.6,2.7C437.6,295.2,437.5,295.9,437.1,296.6z
		 M435.4,293.4c-0.6-0.6-1.8-0.6-2-0.6c-2,0-2.5,1.2-2.5,2c0,0.2,0,0.7,0.3,1.2c0.7,1,2,1,2.2,1c0.2,0,1.3,0,1.9-0.7
		c0.5-0.5,0.6-1.2,0.5-1.5C436,294.6,435.9,293.9,435.4,293.4z M435.1,288.5c-0.6-0.4-1.5-0.4-1.7-0.4c-0.7,0-1.5,0.2-1.9,0.7
		c-0.2,0.3-0.3,0.6-0.3,1c0,0.2,0,0.5,0.2,0.9c0.3,0.5,0.8,0.9,2,0.9c1.2,0,1.8-0.4,2-0.9c0.1-0.2,0.2-0.4,0.2-0.8
		C435.7,289.6,435.6,288.9,435.1,288.5z"/>
	<path class="st10" d="M449.4,297.9c-0.9,0.7-2.1,0.7-2.4,0.7c-0.2,0-0.9,0-1.5-0.2c-1-0.3-2.5-1.4-2.5-4c0-2.6,1.4-3.7,2.4-4.1
		c0.6-0.2,1.2-0.2,1.5-0.2c2.1,0,3.1,1.2,3.5,2c0.1,0.3,0.2,0.4,0.2,0.7l-1.5,0.1c0-0.1-0.1-0.6-0.3-0.9c-0.6-0.9-1.5-0.9-1.8-0.9
		c-1.2,0-2.4,0.8-2.4,3.2c0,1.4,0.5,2.2,0.9,2.6c0.5,0.4,1,0.6,1.6,0.6c0.4,0,0.7-0.1,1-0.2c0.9-0.4,1.1-1.2,1.2-2l1.5,0.1
		C450.5,296.8,449.8,297.5,449.4,297.9z"/>
	<path class="st10" d="M458.4,297.2c-0.4,0.5-1.3,1.3-3,1.3c-0.5,0-1.8-0.1-2.8-1.1c-0.5-0.5-1.2-1.5-1.2-3.2c0-1,0.3-2.1,0.9-2.9
		c0.8-1,1.8-1.4,3.1-1.4c0.5,0,1.1,0.1,1.6,0.3c0.9,0.4,2.3,1.5,2.3,4C459.3,294.8,459.3,296.1,458.4,297.2z M457.5,292.3
		c-0.1-0.2-0.3-0.5-0.5-0.6c-0.6-0.5-1.2-0.5-1.5-0.5c-2.6,0-2.5,2.8-2.5,3.3c0,0.4,0.1,0.7,0.1,0.8c0.1,0.6,0.5,2.3,2.4,2.3
		c0.4,0,1.3-0.1,1.9-1c0.5-0.8,0.5-2,0.5-2.2C457.9,294.1,457.9,293.1,457.5,292.3z"/>
	<path class="st10" d="M460.8,298.3v-12h1.3v12H460.8z"/>
	<path class="st10" d="M470.3,298.4c-0.1,0-0.5,0-0.8-0.2c-0.1-0.1-0.2-0.3-0.3-0.3c-0.2-0.3-0.2-0.5-0.3-0.7
		c-0.4,0.4-1.2,1.3-2.7,1.3c-0.5,0-0.9-0.1-1.1-0.2c-1-0.3-1.6-1.1-1.6-2.1c0-0.4,0.1-1.1,0.9-1.7c0.8-0.6,2.2-0.8,3.2-0.9l1.2-0.1
		c0-0.2,0-0.4,0-0.7c0-0.6-0.1-1.8-1.8-1.8c-0.3,0-1.3,0-1.6,1c-0.1,0.3-0.1,0.4-0.1,0.7l-1.4-0.1c0-0.2,0-0.4,0.1-0.8
		c0.3-0.8,1-1.8,2.9-1.8c0.2,0,0.7,0,1.3,0.2c0.3,0.1,1.4,0.4,1.8,1.5c0.2,0.4,0.2,0.8,0.2,1.7v2.6c0,0.2,0,0.4,0,0.5
		c0,0.2,0,0.6,0.6,0.6c0.2,0,0.3,0,0.4-0.1v1.1C470.7,298.4,470.5,298.4,470.3,298.4z M468.7,294.6v-0.2c-0.6,0.1-2.2,0.3-2.9,0.6
		c-0.3,0.1-1,0.4-1,1.2c0,0.6,0.4,1.2,1.5,1.2c0.7,0,2.3-0.3,2.3-2.4C468.8,294.9,468.7,294.7,468.7,294.6z"/>
	<path class="st10" d="M479,297.2c-0.5,0.6-1,0.9-1.3,1s-0.8,0.3-1.6,0.3c-1,0-1.5-0.3-1.8-0.5c-0.4-0.2-0.6-0.5-0.9-0.8v1h-1.4v-12
		h1.4v5.1c0.1-0.1,0.2-0.3,0.4-0.5c0.6-0.6,1.5-0.9,2.4-0.9c0.5,0,1.7,0.1,2.7,1.2c0.5,0.5,1,1.4,1,3
		C479.9,294.7,479.9,296.1,479,297.2z M478.1,292.5c-0.2-0.4-0.8-1.2-2.1-1.2c-1,0-1.5,0.5-1.8,0.7c-0.4,0.4-0.8,1.1-0.8,2.3
		c0,0.9,0.2,1.4,0.4,1.8c0.2,0.4,0.8,1.3,2.2,1.3c0.5,0,0.9-0.1,1.3-0.4c0.6-0.4,1.2-1.2,1.2-2.8C478.5,294,478.5,293.2,478.1,292.5
		z"/>
	<path class="st10" d="M487.8,297.2c-0.4,0.5-1.3,1.3-3,1.3c-0.5,0-1.8-0.1-2.8-1.1c-0.5-0.5-1.2-1.5-1.2-3.2c0-1,0.3-2.1,0.9-2.9
		c0.8-1,1.8-1.4,3.1-1.4c0.5,0,1.1,0.1,1.6,0.3c0.9,0.4,2.3,1.5,2.3,4C488.7,294.8,488.7,296.1,487.8,297.2z M486.9,292.3
		c-0.1-0.2-0.3-0.5-0.5-0.6c-0.6-0.5-1.2-0.5-1.5-0.5c-2.6,0-2.5,2.8-2.5,3.3c0,0.4,0.1,0.7,0.1,0.8c0.1,0.6,0.5,2.3,2.4,2.3
		c0.4,0,1.3-0.1,1.9-1c0.5-0.8,0.5-2,0.5-2.2C487.3,294.1,487.3,293.1,486.9,292.3z"/>
	<path class="st10" d="M493.3,291.7c-0.8,0.1-1.4,0.7-1.6,1.5c-0.1,0.4-0.1,0.7-0.1,1.5v3.7h-1.4v-8h1.4v1.5
		c0.2-0.4,0.4-0.7,0.7-0.9c0.3-0.3,1-0.6,2-0.6v1.5C493.8,291.6,493.5,291.6,493.3,291.7z"/>
	<path class="st10" d="M501.4,298.4c-0.1,0-0.5,0-0.8-0.2c-0.1-0.1-0.2-0.3-0.3-0.3c-0.2-0.3-0.2-0.5-0.3-0.7
		c-0.4,0.4-1.2,1.3-2.7,1.3c-0.5,0-0.9-0.1-1.1-0.2c-1-0.3-1.6-1.1-1.6-2.1c0-0.4,0.1-1.1,0.9-1.7c0.8-0.6,2.2-0.8,3.2-0.9l1.2-0.1
		c0-0.2,0-0.4,0-0.7c0-0.6-0.1-1.8-1.8-1.8c-0.3,0-1.3,0-1.6,1c-0.1,0.3-0.1,0.4-0.1,0.7l-1.4-0.1c0-0.2,0-0.4,0.1-0.8
		c0.3-0.8,1-1.8,2.9-1.8c0.2,0,0.7,0,1.3,0.2c0.3,0.1,1.4,0.4,1.8,1.5c0.2,0.4,0.2,0.8,0.2,1.7v2.6c0,0.2,0,0.4,0,0.5
		c0,0.2,0,0.6,0.6,0.6c0.2,0,0.3,0,0.4-0.1v1.1C501.9,298.4,501.6,298.4,501.4,298.4z M499.9,294.6v-0.2c-0.6,0.1-2.2,0.3-2.9,0.6
		c-0.3,0.1-1,0.4-1,1.2c0,0.6,0.4,1.2,1.5,1.2c0.7,0,2.3-0.3,2.3-2.4C499.9,294.9,499.9,294.7,499.9,294.6z"/>
	<path class="st10" d="M509.3,298.3v-1c-0.4,0.5-1.2,1.3-2.7,1.3c-1.5,0-2.3-0.7-2.7-1.2c-0.5-0.5-1-1.5-1-3.1c0-1,0.2-2,0.8-2.8
		c0.4-0.5,1.2-1.4,2.9-1.4c1.1,0,1.9,0.5,2.3,0.8c0.2,0.2,0.3,0.3,0.5,0.5v-5h1.4v12H509.3z M509.2,293.3c-0.3-1.2-1.2-2-2.4-2
		c-0.4,0-1.2,0.1-1.8,0.8c-0.5,0.6-0.7,1.4-0.7,2.2c0,0.3,0,1.3,0.6,2.2c0.6,0.8,1.5,0.9,1.9,0.9c0.5,0,0.9-0.1,1.3-0.3
		c0.6-0.4,1.2-1.2,1.2-2.7C509.3,294.2,509.3,293.7,509.2,293.3z"/>
	<path class="st10" d="M519,297.2c-0.4,0.5-1.3,1.3-3,1.3c-0.5,0-1.8-0.1-2.8-1.1c-0.5-0.5-1.2-1.5-1.2-3.2c0-1,0.3-2.1,0.9-2.9
		c0.8-1,1.8-1.4,3.1-1.4c0.5,0,1.1,0.1,1.6,0.3c0.9,0.4,2.3,1.5,2.3,4C519.9,294.8,519.9,296.1,519,297.2z M518,292.3
		c-0.1-0.2-0.3-0.5-0.5-0.6c-0.6-0.5-1.2-0.5-1.5-0.5c-2.6,0-2.5,2.8-2.5,3.3c0,0.4,0.1,0.7,0.1,0.8c0.1,0.6,0.5,2.3,2.4,2.3
		c0.4,0,1.3-0.1,1.9-1c0.5-0.8,0.5-2,0.5-2.2C518.5,294.1,518.5,293.1,518,292.3z"/>
	<path class="st10" d="M524.4,291.7c-0.8,0.1-1.4,0.7-1.6,1.5c-0.1,0.4-0.1,0.7-0.1,1.5v3.7h-1.4v-8h1.4v1.5
		c0.2-0.4,0.4-0.7,0.7-0.9c0.3-0.3,1-0.6,2-0.6v1.5C524.9,291.6,524.7,291.6,524.4,291.7z"/>
	<path class="st10" d="M532.9,297c-0.4,0.6-1.3,1.6-3.1,1.6c-0.8,0-1.4-0.2-1.7-0.3c-1-0.4-2.2-1.5-2.2-4c0-1.5,0.5-2.3,0.9-2.8
		c0.7-0.9,1.8-1.4,3-1.4c0.4,0,0.9,0.1,1.3,0.2c0.5,0.2,1.5,0.6,2,1.9c0.2,0.5,0.4,1.2,0.4,2.4h-6.1c0,1.4,0.7,2.2,1.2,2.6
		c0.4,0.3,0.9,0.4,1.4,0.4c0.7,0,1.1-0.3,1.3-0.5c0.1-0.1,0.3-0.3,0.4-0.5c0.2-0.4,0.3-0.7,0.3-0.8l1.4,0.2
		C533.3,296,533.2,296.5,532.9,297z M531.8,292.8c-0.3-1-1.1-1.7-2.2-1.7c-1.4,0-2.2,1.2-2.3,2.5h4.6
		C531.9,293.2,531.9,293,531.8,292.8z"/>
	<path class="st10" d="M541,297.2c-0.4,0.6-1.3,1.3-3,1.3c-0.2,0-1.5,0-2.4-0.6c-0.1-0.1-0.3-0.2-0.6-0.5c-0.6-0.7-0.7-1.4-0.7-1.7
		l1.5-0.2c0,0.5,0.1,1,0.4,1.4c0.5,0.5,1.1,0.6,1.8,0.6c0.2,0,1,0,1.5-0.5c0.4-0.3,0.4-0.7,0.4-0.9c0-0.1,0-0.4-0.2-0.6
		c-0.3-0.5-1.1-0.6-1.5-0.7l-0.8-0.2c-1-0.2-1.5-0.4-1.9-0.6c-0.6-0.4-1-0.9-1-1.7c0-0.2,0-0.8,0.4-1.3c0.8-1.1,2.4-1.1,2.7-1.1
		c1.7,0,2.6,0.8,3,1.4c0.3,0.5,0.4,1,0.4,1.2l-1.5,0.2c0-0.4,0-0.6-0.1-0.7c-0.2-0.4-0.9-1-2-1c-1.1,0-1.6,0.7-1.6,1.2
		c0,0.1,0,0.2,0.1,0.4c0.3,0.4,0.9,0.6,1.8,0.8l0.8,0.2c0.2,0.1,0.5,0.1,0.7,0.2c1.1,0.3,1.9,0.9,1.9,2.1
		C541.3,296.2,541.3,296.7,541,297.2z"/>
</g>
<g class="st3">
	<path class="st10" d="M419.7,168.4c-0.7,0.6-1.7,1.3-3.8,1.3c-0.4,0-2,0-3.3-0.8c-0.4-0.2-0.7-0.6-1-0.9c-0.7-0.9-0.8-2-0.8-2.4
		l1.7-0.2c0,0.4,0.1,1.4,0.8,2.2c0.4,0.4,1.2,1,2.6,1c0.2,0,0.6,0,1.1-0.1c0.5-0.1,1.9-0.6,1.9-2.3c0-0.8-0.3-1.1-0.6-1.4
		c-0.5-0.4-1.1-0.5-1.7-0.6l-1-0.2c-0.9-0.2-1.8-0.4-2.6-0.8c-1.4-0.8-1.6-1.9-1.6-2.6c0-1,0.4-1.7,1.1-2.3c1.2-1,2.7-1,3.2-1
		c1.2,0,2.3,0.2,3.2,0.9c0.6,0.4,0.8,0.8,1,1.1c0.3,0.5,0.5,1.1,0.6,1.7l-1.6,0.1c0-0.2-0.1-0.5-0.1-0.7c-0.2-0.8-1-1.8-3-1.8
		c-0.8,0-1.8,0.2-2.3,0.8c-0.3,0.3-0.4,0.7-0.4,1.1c0,0.2,0,0.5,0.3,0.9c0.5,0.6,1.4,0.8,2.1,1l1.3,0.3c0.3,0.1,0.6,0.2,0.9,0.2
		c0.4,0.1,1.8,0.4,2.6,1.6c0.2,0.3,0.4,0.8,0.4,1.7C420.7,166.4,420.7,167.4,419.7,168.4z"/>
	<path class="st10" d="M428.9,168c-0.4,0.6-1.3,1.6-3.1,1.6c-0.8,0-1.4-0.2-1.7-0.3c-1-0.4-2.2-1.5-2.2-4c0-1.5,0.5-2.3,0.9-2.8
		c0.7-0.9,1.8-1.4,3-1.4c0.4,0,0.9,0.1,1.3,0.2c0.5,0.2,1.5,0.6,2,1.9c0.2,0.5,0.4,1.2,0.4,2.4h-6.1c0,1.4,0.7,2.2,1.2,2.6
		c0.4,0.3,0.9,0.4,1.4,0.4c0.7,0,1.1-0.3,1.3-0.5c0.1-0.1,0.3-0.3,0.4-0.5c0.2-0.4,0.3-0.7,0.3-0.8l1.4,0.2
		C429.4,167.1,429.2,167.5,428.9,168z M427.8,163.8c-0.3-1-1.1-1.7-2.2-1.7c-1.4,0-2.2,1.2-2.3,2.5h4.6
		C427.9,164.2,427.9,164,427.8,163.8z"/>
	<path class="st10" d="M438,171c-0.4,1.5-1.6,1.9-2.1,2.1c-0.3,0.1-0.7,0.2-1.4,0.2c-0.2,0-0.7,0-1.3-0.2c-1.9-0.5-2.2-2.1-2.3-2.8
		h1.5c0,0.2,0,0.7,0.3,1.1c0.6,0.8,1.6,0.8,1.9,0.8c0.2,0,1.4,0,1.9-0.8c0.3-0.5,0.4-1.1,0.3-2.2l0-0.9c-0.9,1.3-2,1.4-2.6,1.4
		c-0.8,0-1.4-0.3-1.7-0.4c-0.9-0.5-2-1.5-2-3.8c0-0.4,0-1.8,0.8-2.9c0.7-0.9,1.5-1.4,2.9-1.4c0.2,0,0.6,0,1.1,0.2
		c0.4,0.1,0.9,0.4,1.5,1.1v-1.1h1.4v7.6C438.2,170,438.1,170.4,438,171z M436.6,164c-0.4-1.1-1.3-1.7-2.4-1.7c-0.4,0-0.7,0.1-1,0.2
		c-0.6,0.3-1.4,1.2-1.4,2.8c0,0.9,0.2,1.9,1,2.5c0.4,0.3,1,0.5,1.5,0.5c0.8,0,1.3-0.3,1.5-0.5c0.5-0.4,0.9-1.2,0.9-2.6
		C436.8,165.1,436.8,164.5,436.6,164z"/>
	<path class="st10" d="M445.3,169.3l0-1.2c-0.1,0.1-0.2,0.2-0.3,0.4c-0.6,0.6-1.5,1-2.4,1c-0.3,0-1.5-0.1-2.1-1.1
		c-0.5-0.8-0.4-1.6-0.4-2.5v-4.7h1.3v4.5c0,0.8,0,1.2,0.2,1.6c0.2,0.3,0.6,0.8,1.5,0.8c0.3,0,1.3-0.1,1.9-0.9c0.4-0.6,0.4-1.3,0.4-2
		v-4h1.3v8H445.3z"/>
	<path class="st10" d="M451.6,162.7c-0.8,0.1-1.4,0.7-1.6,1.5c-0.1,0.4-0.1,0.7-0.1,1.5v3.7h-1.4v-8h1.4v1.5
		c0.2-0.4,0.4-0.7,0.7-0.9c0.3-0.3,0.9-0.6,2-0.6v1.5C452.1,162.6,451.9,162.7,451.6,162.7z"/>
	<path class="st10" d="M460,168.3c-0.4,0.5-1.3,1.3-3,1.3c-0.5,0-1.8-0.1-2.8-1.1c-0.5-0.5-1.2-1.5-1.2-3.2c0-1,0.3-2.1,0.9-2.9
		c0.8-1,1.8-1.4,3.1-1.4c0.5,0,1.1,0.1,1.6,0.3c0.9,0.4,2.3,1.5,2.3,4C460.9,165.8,460.9,167.2,460,168.3z M459.1,163.3
		c-0.1-0.2-0.3-0.5-0.5-0.6c-0.6-0.5-1.2-0.5-1.5-0.5c-2.6,0-2.5,2.8-2.5,3.3c0,0.4,0.1,0.7,0.1,0.8c0.1,0.6,0.5,2.3,2.4,2.3
		c0.4,0,1.3-0.1,1.9-1c0.5-0.8,0.5-2,0.5-2.2C459.5,165.1,459.5,164.1,459.1,163.3z"/>
	<path class="st10" d="M472.6,169.3v-1c-0.4,0.5-1.2,1.3-2.7,1.3c-1.5,0-2.3-0.7-2.7-1.2c-0.5-0.5-1-1.5-1-3.1c0-1,0.2-2,0.8-2.8
		c0.4-0.5,1.2-1.4,2.9-1.4c1.1,0,1.9,0.5,2.3,0.8c0.2,0.2,0.3,0.3,0.5,0.5v-5h1.4v12H472.6z M472.5,164.3c-0.3-1.2-1.2-2-2.4-2
		c-0.4,0-1.2,0.1-1.8,0.8c-0.5,0.6-0.7,1.4-0.7,2.2c0,0.3,0,1.3,0.6,2.2c0.6,0.8,1.5,0.9,1.9,0.9c0.5,0,0.9-0.1,1.3-0.3
		c0.6-0.4,1.2-1.2,1.2-2.7C472.6,165.2,472.6,164.7,472.5,164.3z"/>
	<path class="st10" d="M482.4,168c-0.4,0.6-1.3,1.6-3.1,1.6c-0.8,0-1.4-0.2-1.7-0.3c-1-0.4-2.2-1.5-2.2-4c0-1.5,0.5-2.3,0.9-2.8
		c0.7-0.9,1.8-1.4,3-1.4c0.4,0,0.9,0.1,1.3,0.2c0.5,0.2,1.5,0.6,2,1.9c0.2,0.5,0.4,1.2,0.4,2.4h-6.1c0,1.4,0.7,2.2,1.2,2.6
		c0.4,0.3,0.9,0.4,1.4,0.4c0.7,0,1.1-0.3,1.3-0.5c0.1-0.1,0.3-0.3,0.4-0.5c0.2-0.4,0.3-0.7,0.3-0.8l1.4,0.2
		C482.8,167.1,482.7,167.5,482.4,168z M481.3,163.8c-0.3-1-1.1-1.7-2.2-1.7c-1.4,0-2.2,1.2-2.3,2.5h4.6
		C481.4,164.2,481.4,164,481.3,163.8z"/>
	<path class="st10" d="M496.6,169.3l-1.3-3.7h-4.6l-1.3,3.7h-1.7l4.6-12h1.7l4.4,12H496.6z M493,159.3l-1.8,5h3.6L493,159.3z"/>
	<path class="st10" d="M505.1,168.9c-0.9,0.7-2.1,0.7-2.4,0.7c-0.2,0-0.9,0-1.5-0.2c-1-0.3-2.5-1.4-2.5-4c0-2.6,1.4-3.7,2.4-4.1
		c0.6-0.2,1.2-0.2,1.5-0.2c2.1,0,3.1,1.2,3.5,2c0.1,0.3,0.2,0.4,0.2,0.7l-1.5,0.1c0-0.1-0.1-0.6-0.3-0.9c-0.6-0.9-1.5-0.9-1.8-0.9
		c-1.2,0-2.4,0.8-2.4,3.2c0,1.4,0.5,2.2,0.9,2.6c0.5,0.4,1,0.6,1.6,0.6c0.4,0,0.7-0.1,1-0.2c0.9-0.4,1.1-1.2,1.2-2l1.5,0.1
		C506.3,167.8,505.6,168.5,505.1,168.9z"/>
	<path class="st10" d="M513.6,168.9c-0.9,0.7-2.1,0.7-2.4,0.7c-0.2,0-0.9,0-1.5-0.2c-1-0.3-2.5-1.4-2.5-4c0-2.6,1.4-3.7,2.4-4.1
		c0.6-0.2,1.2-0.2,1.5-0.2c2.1,0,3.1,1.2,3.5,2c0.1,0.3,0.2,0.4,0.2,0.7l-1.5,0.1c0-0.1-0.1-0.6-0.3-0.9c-0.6-0.9-1.5-0.9-1.8-0.9
		c-1.2,0-2.4,0.8-2.4,3.2c0,1.4,0.5,2.2,0.9,2.6c0.5,0.4,1,0.6,1.6,0.6c0.4,0,0.7-0.1,1-0.2c0.9-0.4,1.1-1.2,1.2-2l1.5,0.1
		C514.8,167.8,514.1,168.5,513.6,168.9z"/>
	<path class="st10" d="M516.3,158.9v-1.6h1.3v1.6H516.3z M516.3,169.3v-8h1.3v8H516.3z"/>
	<path class="st10" d="M525.4,169.3v-1c-0.4,0.5-1.2,1.3-2.7,1.3c-1.5,0-2.3-0.7-2.7-1.2c-0.5-0.5-1-1.5-1-3.1c0-1,0.2-2,0.8-2.8
		c0.4-0.5,1.2-1.4,2.8-1.4c1.1,0,1.9,0.5,2.3,0.8c0.2,0.2,0.3,0.3,0.5,0.5v-5h1.4v12H525.4z M525.3,164.3c-0.3-1.2-1.2-2-2.4-2
		c-0.4,0-1.2,0.1-1.8,0.8c-0.5,0.6-0.7,1.4-0.7,2.2c0,0.3,0,1.3,0.6,2.2c0.6,0.8,1.5,0.9,1.9,0.9c0.5,0,0.9-0.1,1.3-0.3
		c0.6-0.4,1.2-1.2,1.2-2.7C525.4,165.2,525.4,164.7,525.3,164.3z"/>
	<path class="st10" d="M535.2,168c-0.4,0.6-1.3,1.6-3.1,1.6c-0.8,0-1.4-0.2-1.7-0.3c-1-0.4-2.2-1.5-2.2-4c0-1.5,0.5-2.3,0.9-2.8
		c0.7-0.9,1.8-1.4,3-1.4c0.4,0,0.9,0.1,1.3,0.2c0.5,0.2,1.5,0.6,2,1.9c0.2,0.5,0.4,1.2,0.4,2.4h-6.1c0,1.4,0.7,2.2,1.2,2.6
		c0.4,0.3,0.9,0.4,1.4,0.4c0.7,0,1.1-0.3,1.3-0.5c0.1-0.1,0.3-0.3,0.4-0.5c0.2-0.4,0.3-0.7,0.3-0.8l1.4,0.2
		C535.6,167.1,535.5,167.5,535.2,168z M534.1,163.8c-0.3-1-1.1-1.7-2.2-1.7c-1.4,0-2.2,1.2-2.3,2.5h4.6
		C534.2,164.2,534.1,164,534.1,163.8z"/>
	<path class="st10" d="M542.4,169.3v-5.1c0-0.2,0.1-1-0.6-1.5c-0.2-0.2-0.6-0.4-1.2-0.4c-0.6,0-1.1,0.2-1.5,0.6
		c-0.1,0.1-0.3,0.4-0.5,0.7c-0.2,0.4-0.2,0.7-0.2,1.1v4.5h-1.4v-8h1.4v1.2c0.2-0.3,0.3-0.5,0.4-0.6c0.3-0.3,1-0.9,2.1-0.9
		c0.4,0,1.6,0.1,2.3,1.1c0.5,0.7,0.5,1.5,0.5,2.4v4.8H542.4z"/>
	<path class="st10" d="M547.6,169.5c-0.8,0-1.2-0.2-1.4-0.5c-0.2-0.3-0.2-0.6-0.2-1.3v-5.2h-1.3v-1.1h1.3v-2.5h1.4v2.5h1.4v1.1h-1.4
		v4.6c0,0.6,0,0.9,0.1,1.1c0.1,0.2,0.3,0.2,0.5,0.2c0.2,0,0.5-0.1,0.8-0.2v1.1C548.8,169.4,548.1,169.5,547.6,169.5z"/>
	<path class="st10" d="M556.8,168c-0.4,0.6-1.3,1.6-3.1,1.6c-0.8,0-1.4-0.2-1.7-0.3c-1-0.4-2.2-1.5-2.2-4c0-1.5,0.5-2.3,0.9-2.8
		c0.7-0.9,1.8-1.4,3-1.4c0.4,0,0.9,0.1,1.3,0.2c0.5,0.2,1.5,0.6,2,1.9c0.2,0.5,0.4,1.2,0.4,2.4h-6.1c0,1.4,0.7,2.2,1.2,2.6
		c0.4,0.3,0.9,0.4,1.4,0.4c0.7,0,1.1-0.3,1.3-0.5c0.1-0.1,0.3-0.3,0.4-0.5c0.2-0.4,0.3-0.7,0.3-0.8l1.4,0.2
		C557.2,167.1,557.1,167.5,556.8,168z M555.7,163.8c-0.3-1-1.1-1.7-2.2-1.7c-1.4,0-2.2,1.2-2.3,2.5h4.6
		C555.8,164.2,555.8,164,555.7,163.8z"/>
	<path class="st10" d="M564.8,168.3c-0.4,0.6-1.3,1.3-3,1.3c-0.2,0-1.5,0-2.4-0.6c-0.1-0.1-0.3-0.2-0.6-0.5
		c-0.6-0.7-0.7-1.4-0.7-1.7l1.5-0.2c0,0.5,0.1,1,0.4,1.4c0.5,0.5,1.1,0.6,1.8,0.6c0.2,0,1,0,1.5-0.5c0.4-0.3,0.4-0.7,0.4-0.9
		c0-0.1,0-0.4-0.2-0.6c-0.3-0.5-1.1-0.6-1.5-0.7l-0.8-0.2c-1-0.2-1.5-0.4-1.9-0.6c-0.6-0.4-1-0.9-1-1.7c0-0.2,0-0.8,0.4-1.3
		c0.8-1.1,2.4-1.1,2.7-1.1c1.7,0,2.6,0.8,3,1.4c0.3,0.5,0.4,1,0.4,1.2l-1.5,0.2c0-0.4,0-0.6-0.1-0.7c-0.2-0.4-0.9-1-2-1
		c-1.1,0-1.6,0.7-1.6,1.2c0,0.1,0,0.2,0.1,0.4c0.3,0.4,0.9,0.6,1.8,0.8l0.8,0.2c0.2,0.1,0.5,0.1,0.7,0.2c1.1,0.3,1.9,0.9,1.9,2.1
		C565.2,167.3,565.2,167.8,564.8,168.3z"/>
</g>
<g class="st3">
	<path class="st10" d="M459.8,182.2c-0.4,0.1-0.9,0.2-1.8,0.2h-3.5v5.1H453v-12h5.2c0.9,0,1.7,0,2.5,0.5c1.3,0.8,1.4,2.4,1.4,2.9
		C462.1,180.4,461.4,181.8,459.8,182.2z M460.4,178c-0.2-0.6-0.7-0.9-1.2-1.1c-0.4-0.1-0.6-0.1-1-0.1h-3.7v4.1h3.3
		c0.4,0,0.9,0,1.3-0.1c1-0.3,1.4-1.1,1.4-2.1C460.5,178.7,460.5,178.4,460.4,178z"/>
	<path class="st10" d="M469.6,186.1c-0.4,0.6-1.3,1.6-3.1,1.6c-0.8,0-1.4-0.2-1.7-0.3c-1-0.4-2.2-1.5-2.2-4c0-1.5,0.5-2.3,0.9-2.8
		c0.7-0.9,1.8-1.4,3-1.4c0.4,0,0.9,0.1,1.3,0.2c0.5,0.2,1.5,0.6,2,1.9c0.2,0.5,0.4,1.2,0.4,2.4h-6.1c0,1.4,0.7,2.2,1.2,2.6
		c0.4,0.3,0.9,0.4,1.4,0.4c0.7,0,1.1-0.3,1.3-0.5c0.1-0.1,0.3-0.3,0.4-0.5c0.2-0.4,0.3-0.7,0.3-0.8l1.4,0.2
		C470.1,185.2,469.9,185.7,469.6,186.1z M468.6,182c-0.3-1-1.1-1.7-2.2-1.7c-1.4,0-2.2,1.2-2.3,2.5h4.6
		C468.7,182.3,468.6,182.1,468.6,182z"/>
	<path class="st10" d="M474.7,180.8c-0.8,0.1-1.4,0.7-1.6,1.5c-0.1,0.4-0.1,0.7-0.1,1.5v3.7h-1.4v-8h1.4v1.5
		c0.2-0.4,0.4-0.7,0.7-0.9c0.3-0.3,1-0.6,2-0.6v1.5C475.2,180.8,474.9,180.8,474.7,180.8z"/>
	<path class="st10" d="M482.7,186.4c-0.4,0.6-1.3,1.3-3,1.3c-0.2,0-1.5,0-2.4-0.6c-0.1-0.1-0.3-0.2-0.6-0.5
		c-0.6-0.7-0.7-1.4-0.7-1.7l1.5-0.2c0,0.5,0.1,1,0.4,1.4c0.5,0.5,1.1,0.6,1.8,0.6c0.2,0,1,0,1.5-0.5c0.4-0.3,0.4-0.7,0.4-0.9
		c0-0.1,0-0.4-0.2-0.6c-0.3-0.5-1.1-0.6-1.5-0.7l-0.8-0.2c-1-0.2-1.5-0.4-1.9-0.6c-0.6-0.4-1-0.9-1-1.7c0-0.2,0-0.8,0.4-1.3
		c0.8-1.1,2.4-1.1,2.7-1.1c1.7,0,2.6,0.8,3,1.4c0.3,0.5,0.4,1,0.4,1.2l-1.5,0.2c0-0.4,0-0.6-0.1-0.7c-0.2-0.4-0.9-1-2-1
		c-1.1,0-1.6,0.7-1.6,1.2c0,0.1,0,0.2,0.1,0.4c0.3,0.4,0.9,0.6,1.8,0.8l0.8,0.2c0.2,0.1,0.5,0.1,0.7,0.2c1.1,0.3,1.9,0.9,1.9,2.1
		C483,185.4,483,185.9,482.7,186.4z"/>
	<path class="st10" d="M490.8,186.4c-0.4,0.5-1.3,1.3-3,1.3c-0.5,0-1.8-0.1-2.8-1.1c-0.5-0.5-1.2-1.5-1.2-3.2c0-1,0.3-2.1,0.9-2.9
		c0.8-1,1.8-1.4,3.1-1.4c0.5,0,1.1,0.1,1.6,0.3c0.9,0.4,2.3,1.5,2.3,4C491.7,183.9,491.7,185.3,490.8,186.4z M489.9,181.4
		c-0.1-0.2-0.3-0.5-0.5-0.6c-0.6-0.5-1.2-0.5-1.5-0.5c-2.6,0-2.5,2.8-2.5,3.3c0,0.4,0.1,0.7,0.1,0.8c0.1,0.6,0.5,2.3,2.4,2.3
		c0.4,0,1.3-0.1,1.9-1c0.5-0.8,0.5-2,0.5-2.2C490.3,183.2,490.3,182.2,489.9,181.4z"/>
	<path class="st10" d="M498.5,187.5v-5.1c0-0.2,0.1-1-0.6-1.5c-0.2-0.2-0.6-0.4-1.2-0.4c-0.6,0-1.1,0.2-1.5,0.6
		c-0.1,0.1-0.3,0.4-0.5,0.7c-0.2,0.4-0.2,0.7-0.2,1.1v4.5h-1.4v-8h1.4v1.2c0.2-0.3,0.3-0.5,0.4-0.6c0.3-0.3,1-0.9,2.1-0.9
		c0.4,0,1.6,0.1,2.3,1.1c0.5,0.7,0.5,1.5,0.5,2.4v4.8H498.5z"/>
	<path class="st10" d="M508,187.6c-0.1,0-0.5,0-0.8-0.2c-0.1-0.1-0.2-0.3-0.3-0.3c-0.2-0.3-0.2-0.5-0.3-0.7
		c-0.4,0.4-1.2,1.3-2.7,1.3c-0.5,0-0.9-0.1-1.1-0.2c-1-0.3-1.6-1.1-1.6-2.1c0-0.4,0.1-1.1,0.9-1.7c0.8-0.6,2.2-0.8,3.2-0.9l1.2-0.1
		c0-0.2,0-0.4,0-0.7c0-0.6-0.1-1.8-1.8-1.8c-0.3,0-1.3,0-1.6,1c-0.1,0.3-0.1,0.4-0.1,0.7l-1.4-0.1c0-0.2,0-0.4,0.1-0.8
		c0.3-0.8,1-1.8,2.9-1.8c0.2,0,0.7,0,1.3,0.2c0.3,0.1,1.4,0.4,1.8,1.5c0.2,0.4,0.2,0.8,0.2,1.7v2.6c0,0.2,0,0.4,0,0.5
		c0,0.2,0,0.6,0.6,0.6c0.2,0,0.3,0,0.4-0.1v1.1C508.4,187.6,508.2,187.6,508,187.6z M506.5,183.7v-0.2c-0.6,0.1-2.2,0.3-2.9,0.6
		c-0.3,0.1-1,0.4-1,1.2c0,0.6,0.4,1.2,1.5,1.2c0.7,0,2.3-0.3,2.3-2.4C506.5,184,506.5,183.9,506.5,183.7z"/>
	<path class="st10" d="M509.9,187.5v-12h1.3v12H509.9z"/>
	<path class="st10" d="M519.6,186.1c-0.4,0.6-1.3,1.6-3.1,1.6c-0.8,0-1.4-0.2-1.7-0.3c-1-0.4-2.2-1.5-2.2-4c0-1.5,0.5-2.3,0.9-2.8
		c0.7-0.9,1.8-1.4,3-1.4c0.4,0,0.9,0.1,1.3,0.2c0.5,0.2,1.5,0.6,2,1.9c0.2,0.5,0.4,1.2,0.4,2.4H514c0,1.4,0.7,2.2,1.2,2.6
		c0.4,0.3,0.9,0.4,1.4,0.4c0.7,0,1.1-0.3,1.3-0.5c0.1-0.1,0.3-0.3,0.4-0.5c0.2-0.4,0.3-0.7,0.3-0.8l1.4,0.2
		C520.1,185.2,519.9,185.7,519.6,186.1z M518.5,182c-0.3-1-1.1-1.7-2.2-1.7c-1.4,0-2.2,1.2-2.3,2.5h4.6
		C518.6,182.3,518.6,182.1,518.5,182z"/>
	<path class="st10" d="M527.7,186.4c-0.4,0.6-1.3,1.3-3,1.3c-0.2,0-1.5,0-2.4-0.6c-0.1-0.1-0.3-0.2-0.6-0.5
		c-0.6-0.7-0.7-1.4-0.7-1.7l1.5-0.2c0,0.5,0.1,1,0.4,1.4c0.5,0.5,1.1,0.6,1.8,0.6c0.2,0,1,0,1.5-0.5c0.4-0.3,0.4-0.7,0.4-0.9
		c0-0.1,0-0.4-0.2-0.6c-0.3-0.5-1.1-0.6-1.5-0.7l-0.8-0.2c-1-0.2-1.5-0.4-1.9-0.6c-0.6-0.4-1-0.9-1-1.7c0-0.2,0-0.8,0.4-1.3
		c0.8-1.1,2.4-1.1,2.7-1.1c1.7,0,2.6,0.8,3,1.4c0.3,0.5,0.4,1,0.4,1.2l-1.5,0.2c0-0.4,0-0.6-0.1-0.7c-0.2-0.4-0.9-1-2-1
		c-1.1,0-1.6,0.7-1.6,1.2c0,0.1,0,0.2,0.1,0.4c0.3,0.4,0.9,0.6,1.8,0.8l0.8,0.2c0.2,0.1,0.5,0.1,0.7,0.2c1.1,0.3,1.9,0.9,1.9,2.1
		C528,185.4,528,185.9,527.7,186.4z"/>
</g>
<g class="st3">
	<path class="st4" d="M285.1,84.1l-8.8-13l0.2,13h-2v-16h2l8.7,12.8l-0.1-12.8h1.9v16H285.1z"/>
	<path class="st4" d="M290.3,84.1v-16h2.2v16H290.3z"/>
	<path class="st4" d="M301.7,84.1h-2.1l-5.4-16h2.3l4.2,13.4l4.4-13.4h2.3L301.7,84.1z"/>
	<path class="st4" d="M309.4,84.1v-16h11V70h-9v4.9h7.8v1.9h-7.8v5.5h9.2v1.9H309.4z"/>
	<path class="st4" d="M322.8,84.1v-16h2.1v14.1h7.7v1.9H322.8z"/>
</g>
<g class="st3">
	<path class="st4" d="M281.6,99c-0.6,0.2-1.2,0.2-2.4,0.2h-4.6v6.8h-2.1V90h6.9c1.2,0,2.3,0,3.4,0.7c1.8,1.1,1.9,3.2,1.9,3.8
		C284.8,96.6,283.7,98.5,281.6,99z M282.5,93.4c-0.3-0.7-0.9-1.2-1.6-1.4c-0.5-0.1-0.8-0.1-1.3-0.1h-4.9v5.5h4.5
		c0.6,0,1.2,0,1.7-0.1c1.3-0.3,1.8-1.5,1.8-2.7C282.6,94.3,282.6,93.9,282.5,93.4z"/>
	<path class="st4" d="M286.5,106V90h2.1v14.1h7.7v1.9H286.5z"/>
</g>
<g class="st3">
	<path class="st4" d="M308.9,106l-1.7-4.9h-6.1l-1.8,4.9H297l6.1-16h2.2l5.8,16H308.9z M304.2,92.6l-2.4,6.7h4.8L304.2,92.6z"/>
</g>
<g class="st3">
	<path class="st4" d="M317,91.9V106h-2.1V91.9h-4.8V90h11.7v1.9H317z"/>
</g>
<g class="st3">
	<path class="st4" d="M332.5,106l-1.7-4.9h-6.1l-1.8,4.9h-2.3l6.1-16h2.2l5.8,16H332.5z M327.8,92.6l-2.4,6.7h4.8L327.8,92.6z"/>
</g>
<g class="st3">
	<path class="st4" d="M471.1,84.1l-8.8-13l0.2,13h-2v-16h2l8.7,12.8l-0.1-12.8h1.9v16H471.1z"/>
	<path class="st4" d="M476.3,84.1v-16h2.2v16H476.3z"/>
	<path class="st4" d="M487.8,84.1h-2.1l-5.4-16h2.3l4.2,13.4l4.4-13.4h2.3L487.8,84.1z"/>
	<path class="st4" d="M495.5,84.1v-16h11V70h-9v4.9h7.8v1.9h-7.8v5.5h9.2v1.9H495.5z"/>
	<path class="st4" d="M508.9,84.1v-16h2.1v14.1h7.7v1.9H508.9z"/>
</g>
<g class="st3">
	<path class="st4" d="M478.6,103.4c-0.9,1.2-2.8,3-6.4,3c-1,0-3.4-0.1-5.5-2c-1.1-1-2.5-2.9-2.5-6.4c0-0.9,0-3.7,2-5.9
		c1.5-1.7,3.8-2.5,6.1-2.5c1.1,0,2.2,0.2,3.2,0.6c3.3,1.3,4.9,4.3,4.9,7.7C480.3,98.7,480.2,101.3,478.6,103.4z M476.7,93.4
		c-1.5-2-3.6-2.1-4.5-2.1c-2.6,0-3.9,1.3-4.5,2.2c-0.9,1.3-1.2,3-1.2,4.5c0,2.1,0.6,3.5,1.1,4.2c0.4,0.6,0.8,1,1,1.2
		c0.7,0.6,1.2,0.8,1.5,0.9c0.4,0.2,1.1,0.4,2.2,0.4c0.4,0,1.4,0,2.4-0.5c1.5-0.7,3.3-2.6,3.3-6.4C478,97.3,478,95.1,476.7,93.4z"/>
	<path class="st4" d="M493.7,106l-4.4-6.8h-4.1v6.8h-2.1V90h6c0.5,0,1,0,1.5,0c2.2,0.1,3.3,0.8,3.9,1.6c0.4,0.5,1,1.5,1,3.1
		c0,0.7-0.1,2.8-2.1,3.9c-0.4,0.2-0.8,0.4-1.6,0.5l4.5,6.9H493.7z M492.2,92.2c-0.8-0.5-1.8-0.5-2.8-0.5h-4.1v5.6h4.3
		c1.2,0,2.6,0,3.4-1.1c0.4-0.5,0.5-1,0.5-1.7C493.5,94.2,493.4,93,492.2,92.2z"/>
	<path class="st4" d="M512.1,103.4c-0.9,1.2-2.8,3-6.4,3c-1,0-3.4-0.1-5.5-2c-1.1-1-2.5-2.9-2.5-6.4c0-0.9,0-3.7,2-5.9
		c1.5-1.7,3.8-2.5,6.1-2.5c1.1,0,2.2,0.2,3.2,0.6c3.3,1.3,4.9,4.3,4.9,7.7C513.8,98.7,513.7,101.3,512.1,103.4z M510.2,93.4
		c-1.5-2-3.6-2.1-4.5-2.1c-2.6,0-3.9,1.3-4.5,2.2c-0.9,1.3-1.2,3-1.2,4.5c0,2.1,0.6,3.5,1.1,4.2c0.4,0.6,0.8,1,1,1.2
		c0.7,0.6,1.2,0.8,1.5,0.9c0.4,0.2,1.1,0.4,2.2,0.4c0.4,0,1.4,0,2.4-0.5c1.5-0.7,3.3-2.6,3.3-6.4C511.5,97.3,511.5,95.1,510.2,93.4z
		"/>
</g>
</svg>
