<?xml version="1.0" encoding="UTF-8"?>
<svg id="Capa_1" xmlns="http://www.w3.org/2000/svg" xmlns:xlink="http://www.w3.org/1999/xlink" version="1.1" viewBox="0 0 612 326.25">
  <!-- Generator: Adobe Illustrator 30.0.0, SVG Export Plug-In . SVG Version: 2.1.1 Build 123)  -->
  <defs>
    <style>
      .st0, .st1, .st2 {
        fill: #585857;
        font-family: Lato-Medium, Lato;
        font-size: 13.47px;
        font-weight: 500;
      }

      .st0, .st3 {
        letter-spacing: -.02em;
      }

      .st1, .st4 {
        letter-spacing: -.02em;
      }

      .st5 {
        fill: url(#linear-gradient2);
      }

      .st6 {
        fill: url(#linear-gradient1);
      }

      .st7 {
        font-family: Lato-Bold, Lato;
        font-size: 25.92px;
        font-weight: 700;
      }

      .st7, .st8, .st9, .st10, .st11 {
        fill: #fff;
      }

      .st12 {
        fill: url(#linear-gradient);
      }

      .st8 {
        opacity: .2;
      }

      .st9 {
        font-family: BebasNeue, 'Bebas Neue';
        font-size: 51.84px;
      }

      .st13 {
        fill: url(#New_Gradient_Swatch_19);
      }

      .st14 {
        opacity: .1;
      }

      .st14, .st15 {
        fill: #010101;
      }

      .st10 {
        letter-spacing: -.02em;
      }

      .st10, .st11 {
        font-family: Lato-Regular, Lato;
        font-size: 11.11px;
      }

      .st11 {
        letter-spacing: -.02em;
      }

      .st16 {
        fill: url(#Degradado_sin_nombre_120);
      }

      .st15 {
        opacity: 0;
      }
    </style>
    <linearGradient id="Degradado_sin_nombre_120" data-name="Degradado sin nombre 120" x1="119.24" y1="86.72" x2="495.32" y2="86.72" gradientUnits="userSpaceOnUse">
      <stop offset="0" stop-color="#184093"/>
      <stop offset="1" stop-color="#19222d"/>
    </linearGradient>
    <linearGradient id="linear-gradient" x1="458.37" y1="91.06" x2="458.37" y2="276.2" gradientUnits="userSpaceOnUse">
      <stop offset="0" stop-color="#1870b5"/>
      <stop offset="1" stop-color="#1e2d52"/>
    </linearGradient>
    <linearGradient id="linear-gradient1" x1="3570.21" y1="91.06" x2="3570.21" y2="276.2" gradientTransform="translate(3725.38) rotate(-180) scale(1 -1)" xlink:href="#linear-gradient"/>
    <linearGradient id="linear-gradient2" x1="307.84" y1="91.06" x2="307.84" y2="276.2" gradientUnits="userSpaceOnUse">
      <stop offset="0" stop-color="#42c0f0"/>
      <stop offset="1" stop-color="#1870b5"/>
    </linearGradient>
    <linearGradient id="New_Gradient_Swatch_19" data-name="New Gradient Swatch 19" x1="306" y1="133.55" x2="306" y2="267.11" gradientUnits="userSpaceOnUse">
      <stop offset="0" stop-color="#f9f6f6"/>
      <stop offset="1" stop-color="#e6e8ea"/>
    </linearGradient>
  </defs>
  <path class="st16" d="M495.32,68.18c0-10.02-8.15-18.14-18.21-18.14H137.44c-10.06,0-18.21,8.12-18.21,18.14v55.2h376.08v-55.2Z"/>
  <path class="st12" d="M536.73,264.68V102.58c0-6.36-6.04-11.52-13.48-11.52h-143.24v185.15h143.24c7.45,0,13.48-5.16,13.48-11.52Z"/>
  <path class="st6" d="M75.25,264.68V102.58c0-6.36,5.99-11.52,13.38-11.52h146.47v185.15H88.63c-7.39,0-13.38-5.16-13.38-11.52Z"/>
  <text class="st7" transform="translate(98.19 111.05) scale(.58)"><tspan x="0" y="0">NIVEL BRONCE</tspan></text>
  <text class="st9" transform="translate(172.05 81.95) scale(.58)"><tspan x="0" y="0">CUENTA CON COLABORADORES</tspan></text>
  <polygon class="st5" points="380.59 276.2 380.59 91.06 235.1 91.06 235.1 276.2 235.1 276.2 380.59 276.2"/>
  <rect class="st13" x="75.25" y="133.55" width="461.5" height="133.55"/>
  <rect class="st14" x="75.25" y="176.12" width="461.5" height="45.93"/>
  <rect class="st15" x="75.25" y="133.55" width="460.36" height="27.47"/>
  <g>
    <rect class="st8" x="235.1" y="91.06" width="1.19" height="185.15"/>
    <rect class="st14" x="233.91" y="91.06" width="1.19" height="185.15"/>
  </g>
  <g>
    <rect class="st8" x="380.59" y="91.06" width="1.19" height="185.15"/>
    <rect class="st14" x="379.4" y="91.06" width="1.19" height="185.15"/>
  </g>
  <text class="st0" transform="translate(93.4 154.05)"><tspan x="0" y="0">Seguro de Accidentes </tspan><tspan x="32.4" y="14.39">Personales</tspan></text>
  <text class="st0" transform="translate(245.1 154.04)"><tspan x="0" y="0">Seguro de Accidentes </tspan><tspan x="32.4" y="14.39">Personales</tspan></text>
  <text class="st0" transform="translate(260.99 202.14)"><tspan x="0" y="0">Asistencias Plata</tspan></text>
  <text class="st1" transform="translate(410.4 202.14)"><tspan x="0" y="0">Asistencias Oro</tspan></text>
  <text class="st0" transform="translate(103.55 242.01)"><tspan x="0" y="0">Para titular y hasta</tspan><tspan x="7.36" y="14.39">3 colaboradores</tspan></text>
  <text class="st0" transform="translate(254.72 242.01)"><tspan x="0" y="0">Para titular y hasta </tspan><tspan x="8.93" y="14.39">3 colaboradores</tspan></text>
  <text class="st1" transform="translate(400.21 242.01)"><tspan x="0" y="0">Para titular y hasta </tspan><tspan x="8.93" y="14.39">7 colaboradores</tspan></text>
  <text class="st2" transform="translate(395.55 154.04)"><tspan class="st3"><tspan x="0" y="0">Seguro de Accidentes </tspan></tspan><tspan class="st4"><tspan x="32.4" y="14.39">Personales</tspan></tspan></text>
  <text class="st7" transform="translate(261.49 111.05) scale(.58)"><tspan x="0" y="0">NIVEL PLATA</tspan></text>
  <text class="st7" transform="translate(423.78 111.05) scale(.58)"><tspan x="0" y="0">NIVEL ORO</tspan></text>
  <text class="st10" transform="translate(106.54 124.33)"><tspan x="0" y="0">De $2,500 a $4,500</tspan></text>
  <text class="st10" transform="translate(262.68 124.33)"><tspan x="0" y="0">De $4,501 a $7,000</tspan></text>
  <text class="st11" transform="translate(429.5 124.33)"><tspan x="0" y="0">Más de $7,001</tspan></text>
  <g>
    <rect class="st8" x="75.25" y="132.03" width="1.19" height="135.08"/>
    <rect class="st14" x="74.06" y="132.03" width="1.19" height="135.08"/>
  </g>
  <g>
    <rect class="st8" x="536.75" y="132.03" width="1.19" height="135.08"/>
    <rect class="st14" x="535.56" y="132.03" width="1.19" height="135.08"/>
  </g>
  <text class="st0" transform="translate(92.64 202.14)"><tspan x="0" y="0">No Aplica Asistencias</tspan></text>
</svg>