<?xml version="1.0" encoding="utf-8"?>
<!-- Generator: Adobe Illustrator 25.2.3, SVG Export Plug-In . SVG Version: 6.00 Build 0)  -->
<svg version="1.1" id="Capa_1" xmlns="http://www.w3.org/2000/svg" xmlns:xlink="http://www.w3.org/1999/xlink" x="0px" y="0px"
	 viewBox="0 0 400 220" style="enable-background:new 0 0 400 220;" xml:space="preserve">
<style type="text/css">
	.st0{fill:url(#SVGID_1_);}
	.st1{fill:url(#SVGID_2_);}
	.st2{fill:url(#SVGID_3_);}
	.st3{fill:#FFFFFF;}
	.st4{fill:url(#SVGID_4_);}
	.st5{fill:url(#SVGID_5_);}
	.st6{opacity:0.1;fill:#000100;}
	.st7{opacity:0;fill:#000100;}
	.st8{opacity:0.2;fill:#FFFFFF;}
	.st9{fill:#585857;}
</style>
<g>
	<linearGradient id="SVGID_1_" gradientUnits="userSpaceOnUse" x1="83.7349" y1="77.6848" x2="315.8758" y2="77.6848">
		<stop  offset="0" style="stop-color:#1470B5"/>
		<stop  offset="1" style="stop-color:#1E2D52"/>
	</linearGradient>
	<path class="st0" d="M304.6,1.7H218h-36.4H95c-6.2,0-11.2,5-11.2,11.2v129.6c0,6.2,5,11.2,11.2,11.2h86.6h0H218h86.6
		c6.2,0,11.2-5,11.2-11.2V12.9C315.9,6.7,310.8,1.7,304.6,1.7z"/>
	<g>
		
			<image style="overflow:visible;" width="1668" height="807" xlink:href="2A2CEF1918E54F55.png"  transform="matrix(0.24 0 0 0.24 -0.197 24.7652)">
		</image>
	</g>
	<linearGradient id="SVGID_2_" gradientUnits="userSpaceOnUse" x1="326.3577" y1="28.2485" x2="326.3577" y2="208.8419">
		<stop  offset="0" style="stop-color:#1470B5"/>
		<stop  offset="1" style="stop-color:#1E2D52"/>
	</linearGradient>
	<path class="st1" d="M392.2,197.6V39.5c0-6.2-5.1-11.2-11.3-11.2H260.5v180.6l0,0h120.3C387.1,208.8,392.2,203.8,392.2,197.6z"/>
	
		<linearGradient id="SVGID_3_" gradientUnits="userSpaceOnUse" x1="3441.6406" y1="28.2485" x2="3441.6406" y2="208.8419" gradientTransform="matrix(-1 0 0 1 3513.3115 0)">
		<stop  offset="0" style="stop-color:#1470B5"/>
		<stop  offset="1" style="stop-color:#1E2D52"/>
	</linearGradient>
	<path class="st2" d="M4.5,197.6V39.5c0-6.2,5-11.2,11.2-11.2h123v180.6l0,0h-123C9.6,208.8,4.5,203.8,4.5,197.6z"/>
	<g>
		<g>
			<path class="st3" d="M58.5,49.4l-5.9-8.7l0.1,8.7h-1.3V38.7h1.3l5.8,8.6l-0.1-8.6h1.3v10.7H58.5z"/>
			<path class="st3" d="M62,49.4V38.7h1.4v10.7H62z"/>
			<path class="st3" d="M69.7,49.4h-1.4l-3.6-10.7h1.5l2.8,8.9l2.9-8.9h1.5L69.7,49.4z"/>
			<path class="st3" d="M74.9,49.4V38.7h7.4v1.3h-6v3.3h5.2v1.2h-5.2v3.7h6.2v1.2H74.9z"/>
			<path class="st3" d="M83.9,49.4V38.7h1.4v9.4h5.2v1.3H83.9z"/>
			<path class="st3" d="M46,63.9c-0.6,0.2-1.1,0.2-2.3,0.2h-4.2V53.4h5c0.9,0,1.6,0.2,2.3,0.8c0.6,0.5,0.9,1.2,0.9,2
				c0,0.7-0.2,1.3-0.7,1.8c-0.2,0.2-0.5,0.4-0.6,0.4c-0.1,0-0.2,0.1-0.3,0.1c0.3,0.1,0.6,0.2,0.8,0.4c0.5,0.3,1.1,1,1.1,2.3
				C48,63,46.7,63.7,46,63.9z M45.5,54.9c-0.4-0.3-0.8-0.3-1.7-0.3h-3v3.2h2.2c0.9,0,1.6,0,2-0.1c0.4-0.1,1.2-0.5,1.2-1.6
				C46.2,55.9,46.2,55.3,45.5,54.9z M46.4,60.2c-0.1-0.3-0.5-0.9-1.3-1.1c-0.5-0.1-0.8-0.1-1.7-0.1h-2.6v3.7H44c0.6,0,1.1,0,1.3-0.1
				c0.1,0,0.3-0.1,0.5-0.2c0.3-0.2,0.7-0.6,0.7-1.5C46.6,60.9,46.6,60.6,46.4,60.2z"/>
			<path class="st3" d="M57,64.1l-2.9-4.6h-2.8v4.6h-1.4V53.4h4c0.3,0,0.7,0,1,0c1.5,0.1,2.2,0.5,2.6,1.1c0.3,0.3,0.7,1,0.7,2
				c0,0.4-0.1,1.9-1.4,2.6c-0.3,0.1-0.5,0.2-1.1,0.3l3,4.6H57z M56,54.9c-0.6-0.3-1.2-0.3-1.9-0.3h-2.8v3.8h2.9c0.8,0,1.8,0,2.3-0.7
				c0.2-0.3,0.3-0.7,0.3-1.1C56.8,56.2,56.8,55.4,56,54.9z"/>
			<path class="st3" d="M69.3,62.4c-0.6,0.8-1.9,2-4.3,2c-0.7,0-2.3-0.1-3.7-1.4c-0.7-0.7-1.7-2-1.7-4.3c0-0.6,0-2.5,1.3-3.9
				c1-1.1,2.6-1.7,4.1-1.7c0.7,0,1.5,0.1,2.1,0.4c2.2,0.9,3.3,2.9,3.3,5.2C70.4,59.2,70.4,60.9,69.3,62.4z M68,55.7
				c-1-1.3-2.4-1.4-3-1.4c-1.7,0-2.6,0.9-3,1.5c-0.6,0.8-0.8,2-0.8,3c0,1.4,0.4,2.4,0.7,2.8c0.3,0.4,0.6,0.7,0.7,0.8
				c0.4,0.4,0.8,0.5,1,0.6c0.3,0.1,0.7,0.2,1.5,0.2c0.3,0,0.9,0,1.6-0.3c1-0.5,2.2-1.7,2.2-4.3C68.9,58.3,68.9,56.8,68,55.7z"/>
			<path class="st3" d="M79.5,64.1l-5.9-8.7l0.1,8.7h-1.3V53.4h1.3l5.8,8.6l-0.1-8.6h1.3v10.7H79.5z"/>
			<path class="st3" d="M92.9,61c-0.3,0.7-1.2,2.4-3.3,3.1c-0.8,0.2-1.4,0.2-1.7,0.2c-1.9,0-3-0.8-3.5-1.3c-0.7-0.7-1.7-2-1.7-4.3
				c0-3.3,2-5.6,5.4-5.6c0.6,0,2.6,0,3.9,1.6c0.4,0.5,0.7,1.1,0.9,1.7l-1.4,0.3c-0.2-0.5-0.3-0.8-0.5-1c-0.4-0.5-1.3-1.4-3-1.4
				c-0.3,0-0.9,0-1.6,0.3c-2.2,1-2.3,3.5-2.3,4.1c0,2.6,1.2,3.8,2.3,4.2c0.3,0.1,0.8,0.3,1.6,0.3c0.2,0,0.6,0,1.1-0.1
				c0.4-0.1,1.4-0.5,2-1.6c0.2-0.3,0.3-0.7,0.4-1.4l1.5,0.2C93.2,60.3,93.1,60.7,92.9,61z"/>
			<path class="st3" d="M94.7,64.1V53.4h7.4v1.3h-6v3.3h5.2v1.2h-5.2v3.7h6.2v1.2H94.7z"/>
		</g>
	</g>
	<g>
		<g>
			<path class="st3" d="M104.4,20.1c-0.9,0.5-2,0.4-3,0.4h-3.8V9.8h4.4c0.2,0,0.5,0,0.7,0c0.4,0,1.5,0.1,2.3,1.1
				c0.5,0.6,0.5,1.3,0.5,1.6c0,0.3-0.1,1.3-1,1.9c-0.4,0.3-0.8,0.4-1,0.4c1.5,0.3,2.3,1.3,2.3,2.7C105.8,18,105.7,19.4,104.4,20.1z
				 M104.1,11.4c-0.5-0.7-1.5-0.7-2.3-0.7h-3.2v3.6h3c0.8,0,1.9,0,2.5-0.7c0.3-0.3,0.4-0.7,0.4-1.2
				C104.4,12.3,104.4,11.9,104.1,11.4z M103.7,15.6c-0.7-0.4-1.4-0.4-2.2-0.4h-3v4.4h2.7c0.9,0,1.6,0,2-0.1c0.5-0.1,1.5-0.6,1.5-2
				C104.8,17.2,104.7,16.2,103.7,15.6z"/>
			<path class="st3" d="M113.2,19.6c-0.4,0.5-1.1,1.2-2.6,1.2c-0.3,0-1,0-1.7-0.4c-1.7-0.9-1.8-3-1.8-3.5c0-0.2,0-0.8,0.2-1.5
				c0.5-1.4,1.7-2.3,3.1-2.3c0.4,0,1.5,0.1,2.3,1c0.6,0.7,0.9,1.7,0.9,2.5v0.2h-5.6c0,0.6,0.1,1,0.1,1.2c0.2,0.6,0.7,1.8,2.3,1.8
				c0.6,0,1.6-0.2,2.3-1.5l0.8,0.2C113.6,18.8,113.5,19.2,113.2,19.6z M110.4,13.9c-1.3,0-1.9,0.9-2,1.3c-0.1,0.3-0.2,0.7-0.3,1h4.6
				C112.5,14.3,111.2,13.9,110.4,13.9z"/>
			<path class="st3" d="M120.2,20.5v-3.8c0-1,0-1.5-0.2-2c-0.2-0.4-0.4-0.5-0.5-0.6c-0.4-0.2-0.8-0.2-1-0.2c-0.2,0-0.6,0-1,0.2
				c-0.5,0.3-1,0.8-1.1,1.4c-0.1,0.3-0.1,1-0.1,1.8v3.2h-0.9v-7.2h0.9v1.3c0.1-0.2,0.2-0.5,0.5-0.8c0.3-0.3,0.8-0.6,1.8-0.6
				c1.3,0,2,0.7,2.2,1.2c0.3,0.6,0.3,1.2,0.3,2.4v3.8H120.2z"/>
			<path class="st3" d="M129,19.6c-0.4,0.5-1.1,1.2-2.6,1.2c-0.3,0-1,0-1.7-0.4c-1.7-0.9-1.8-3-1.8-3.5c0-0.2,0-0.8,0.2-1.5
				c0.5-1.4,1.7-2.3,3.1-2.3c0.4,0,1.5,0.1,2.3,1c0.6,0.7,0.9,1.7,0.9,2.5v0.2h-5.6c0,0.6,0.1,1,0.1,1.2c0.2,0.6,0.7,1.8,2.3,1.8
				c0.6,0,1.6-0.2,2.3-1.5l0.8,0.2C129.5,18.8,129.3,19.2,129,19.6z M126.3,13.9c-1.3,0-1.9,0.9-2,1.3c-0.1,0.3-0.2,0.7-0.3,1h4.6
				C128.3,14.3,127,13.9,126.3,13.9z"/>
			<path class="st3" d="M132.5,14.1v6.5h-0.9v-6.5H130v-0.8h1.6v-1.4c0-0.8,0-1,0.1-1.4c0.2-0.5,0.5-0.9,1.5-0.9
				c0.3,0,0.6,0,0.9,0.1v0.9c-0.2-0.1-0.4-0.2-0.9-0.2c-0.3,0-0.4,0.1-0.5,0.2c-0.3,0.3-0.2,0.6-0.2,1.2v1.5h1.6v0.8H132.5z"/>
			<path class="st3" d="M135.6,11.6v-1.4h0.9v1.4H135.6z M135.6,20.5v-7.2h0.9v7.2H135.6z"/>
			<path class="st3" d="M143.7,20c-0.3,0.3-1,0.7-2.1,0.7c-0.4,0-1.4,0-2.2-0.8c-1.1-1-1.1-2.5-1.1-2.9c0-0.5,0.1-1,0.2-1.5
				c0.5-1.5,1.7-2.4,3.2-2.4c1.2,0,1.8,0.4,2.1,0.8c0.4,0.4,0.6,0.8,0.6,1l-0.8,0.2c-0.3-0.8-1.1-1.2-2-1.2c-0.3,0-0.9,0-1.5,0.5
				c-0.9,0.8-1,2.2-1,2.5c0,0.2,0,1.5,0.7,2.3c0.1,0.1,0.3,0.3,0.7,0.5c0.2,0.1,0.5,0.2,1,0.2c0.9,0,1.5-0.4,2-1.2l0.9,0.2
				C144.3,19.3,144,19.7,143.7,20z"/>
			<path class="st3" d="M146,11.6v-1.4h0.9v1.4H146z M146,20.5v-7.2h0.9v7.2H146z"/>
			<path class="st3" d="M155.1,18.3c-0.5,1.5-1.6,2.4-3.1,2.4c-0.5,0-1.7-0.1-2.5-1.2c-0.3-0.4-0.7-1.2-0.7-2.5c0-0.3,0-1,0.3-1.8
				c0.7-1.8,2.3-2,3-2c0.8,0,1.5,0.2,2.1,0.8c0.8,0.8,1.1,1.9,1.1,3C155.3,17.1,155.3,17.7,155.1,18.3z M152,13.9
				c-0.2,0-0.8,0-1.3,0.4c-0.6,0.4-1,1.2-1,2.7c0,0.3,0,1.7,1,2.5c0.2,0.2,0.7,0.4,1.3,0.4c1.1,0,2.3-0.7,2.4-3
				C154.3,14.6,153.1,13.9,152,13.9z"/>
			<path class="st3" d="M161.8,19.5c-0.3,0.5-1,1.3-2.5,1.3c-0.4,0-1.6-0.1-2.4-1.1c-0.2-0.3-0.3-0.5-0.5-0.8l0.9-0.3
				c0.1,0.5,0.7,1.4,2,1.4c0.7,0,1.1-0.2,1.3-0.4c0.3-0.2,0.5-0.7,0.5-1c0-0.2-0.1-0.5-0.2-0.6c-0.2-0.3-0.6-0.5-1.4-0.7
				c-0.7-0.2-1.8-0.3-2.4-0.9c-0.2-0.3-0.4-0.7-0.4-1.1c0-0.2,0.1-0.9,0.6-1.4c0.5-0.5,1.3-0.6,2-0.6c0.2,0,1.1,0,1.8,0.5
				c0.6,0.4,0.7,0.9,0.8,1.2l-0.8,0.2c-0.2-0.8-1-1.1-1.8-1.1c-0.6,0-1,0.1-1.2,0.3c-0.1,0-0.2,0.2-0.3,0.3
				c-0.2,0.3-0.2,0.5-0.2,0.6c0,0.8,0.9,1,1.5,1.2l0.8,0.2c0.7,0.1,1.3,0.4,1.7,0.9c0.3,0.5,0.3,0.9,0.3,1.1
				C162.1,18.6,162,19.1,161.8,19.5z"/>
			<path class="st3" d="M175.2,12.9c-0.1-0.4-0.2-0.7-0.4-1.1c-0.4-0.6-1-1.3-2.6-1.3c-0.2,0-1,0-1.7,0.3c-0.5,0.3-0.9,0.8-1.2,1.3
				c-0.3,0.6-0.7,1.5-0.7,3c0,0.3,0,1,0.2,1.9c0.2,1,0.8,2.9,3.5,2.9c1,0,1.7-0.3,2.3-1.1c0.4-0.5,0.5-0.9,0.6-1.2l1,0.6
				c-0.5,1.2-1.2,1.8-1.7,2c-0.4,0.3-1.1,0.6-2.3,0.6c-0.6,0-2.4-0.1-3.5-1.5c-1.2-1.4-1.2-3.6-1.2-4c0-0.5,0-2.8,1.3-4.3
				c0.5-0.6,1.1-0.9,1.4-1c0.3-0.2,0.9-0.3,1.9-0.3c0.6,0,1.2,0.1,1.8,0.3c1.2,0.4,1.9,1.3,2.4,2.5L175.2,12.9z"/>
			<path class="st3" d="M182.8,20.5v-1.3c-0.1,0.3-0.2,0.4-0.3,0.5c-0.7,0.9-1.6,0.9-2,0.9c-0.1,0-0.5,0-0.8-0.1
				c-0.7-0.2-1.2-0.7-1.4-1.4c-0.2-0.5-0.2-1.2-0.2-2.3v-3.5h0.9v3.7c0,0.9,0,1.3,0.1,1.8c0.1,0.4,0.4,1.1,1.5,1.1
				c0.4,0,1.1,0,1.7-0.8c0.5-0.7,0.5-1.7,0.5-2.6v-3.2h0.9v7.2H182.8z"/>
			<path class="st3" d="M191.5,19.6c-0.4,0.5-1.1,1.2-2.6,1.2c-0.3,0-1,0-1.7-0.4c-1.7-0.9-1.8-3-1.8-3.5c0-0.2,0-0.8,0.2-1.5
				c0.5-1.4,1.7-2.3,3.1-2.3c0.4,0,1.5,0.1,2.3,1c0.6,0.7,0.9,1.7,0.9,2.5v0.2h-5.6c0,0.6,0.1,1,0.1,1.2c0.2,0.6,0.7,1.8,2.3,1.8
				c0.6,0,1.6-0.2,2.3-1.5l0.8,0.2C192,18.8,191.8,19.2,191.5,19.6z M188.8,13.9c-1.3,0-1.9,0.9-2,1.3c-0.1,0.3-0.2,0.7-0.3,1h4.6
				C190.8,14.3,189.6,13.9,188.8,13.9z"/>
			<path class="st3" d="M198.6,20.5v-3.8c0-1,0-1.5-0.2-2c-0.2-0.4-0.4-0.5-0.5-0.6c-0.4-0.2-0.8-0.2-1-0.2s-0.6,0-1,0.2
				c-0.5,0.3-1,0.8-1.1,1.4c-0.1,0.3-0.1,1-0.1,1.8v3.2h-0.9v-7.2h0.9v1.3c0.1-0.2,0.2-0.5,0.5-0.8c0.3-0.3,0.8-0.6,1.8-0.6
				c1.3,0,2,0.7,2.2,1.2c0.3,0.6,0.3,1.2,0.3,2.4v3.8H198.6z"/>
			<path class="st3" d="M203.7,20.7c-0.1,0-0.2,0-0.2,0c-0.2,0-0.7-0.1-1-0.6c-0.1-0.3-0.1-1.1-0.1-1.4v-4.5h-1.5v-0.8h1.5v-3.1h0.9
				v3.1h1.6v0.8h-1.6v4c0,0.3,0,0.5,0,0.8c0,0.4,0,1.1,0.6,1.1c0.4,0,0.7-0.3,1-0.5v0.9C204.6,20.5,204.3,20.7,203.7,20.7z"/>
			<path class="st3" d="M210.9,20.2c-0.3-0.3-0.3-0.6-0.3-0.9c-0.1,0.2-0.2,0.4-0.4,0.6c-0.3,0.3-1,0.8-2.2,0.8
				c-0.9,0-1.4-0.3-1.7-0.6c-0.2-0.2-0.5-0.7-0.5-1.4c0-0.2,0-0.7,0.4-1.1c0.5-0.7,1.4-0.9,2.2-1.1c0.5-0.1,0.9-0.3,1.4-0.3l0.8-0.2
				v-0.4c0-0.3,0-0.4-0.1-0.7c-0.2-0.5-0.6-1-1.7-1c-0.9,0-1.4,0.3-1.6,0.6c-0.2,0.3-0.3,0.7-0.3,1.1l-1-0.2c0-0.2,0.1-0.8,0.4-1.3
				c0.3-0.5,1-1.1,2.4-1.1c0.7,0,1.7,0.2,2.2,0.8c0.5,0.6,0.4,1.3,0.4,2v2.3c0,0.7,0,1.2,0.2,1.4c0.2,0.2,0.6,0.2,0.8,0.2v0.7
				C211.7,20.5,211.2,20.5,210.9,20.2z M210.6,16.7l-0.5,0.1c-1.4,0.4-2.6,0.7-3.1,1c-0.3,0.2-0.5,0.5-0.5,0.9
				c0,0.2,0.1,0.5,0.1,0.5c0.3,0.7,1.2,0.7,1.3,0.7c0.9,0,2-0.5,2.3-1.4c0.1-0.3,0.2-0.6,0.2-1.3V16.7z"/>
			<path class="st3" d="M218.5,19.5c-0.3,0.5-1,1.3-2.5,1.3c-0.4,0-1.6-0.1-2.4-1.1c-0.2-0.3-0.3-0.5-0.5-0.8l0.9-0.3
				c0.1,0.5,0.7,1.4,2,1.4c0.7,0,1.1-0.2,1.3-0.4c0.3-0.2,0.5-0.7,0.5-1c0-0.2-0.1-0.5-0.2-0.6c-0.2-0.3-0.6-0.5-1.4-0.7
				c-0.7-0.2-1.8-0.3-2.4-0.9c-0.2-0.3-0.4-0.7-0.4-1.1c0-0.2,0.1-0.9,0.6-1.4c0.5-0.5,1.3-0.6,2-0.6c0.2,0,1.1,0,1.8,0.5
				c0.6,0.4,0.7,0.9,0.8,1.2l-0.8,0.2c-0.2-0.8-1-1.1-1.8-1.1c-0.6,0-1,0.1-1.2,0.3c-0.1,0-0.2,0.2-0.3,0.3
				c-0.2,0.3-0.2,0.5-0.2,0.6c0,0.8,0.9,1,1.5,1.2l0.8,0.2c0.7,0.1,1.3,0.4,1.7,0.9c0.3,0.5,0.3,0.9,0.3,1.1
				C218.8,18.6,218.8,19.1,218.5,19.5z"/>
			<path class="st3" d="M229.4,20.5v-1.3c-0.3,1-1.3,1.5-2.2,1.5c-0.3,0-0.9,0-1.5-0.5c-1.5-1-1.5-3-1.5-3.3c0-0.4,0.1-2.4,1.6-3.3
				c0.3-0.2,0.8-0.4,1.6-0.4c0.6,0,1.2,0.2,1.6,0.6c0.3,0.3,0.4,0.5,0.5,0.7V9.8h0.9v10.7H229.4z M228.5,14.3
				c-0.2-0.1-0.6-0.4-1.2-0.4c-0.2,0-0.5,0-0.9,0.2c-0.6,0.3-1.3,1.2-1.3,2.7c0,0.2,0,2.9,2.2,2.9c0.6,0,1-0.2,1.4-0.5
				c0.6-0.6,0.7-1.5,0.7-2.3C229.4,15.5,229.1,14.8,228.5,14.3z"/>
			<path class="st3" d="M238.1,19.6c-0.4,0.5-1.1,1.2-2.6,1.2c-0.3,0-1,0-1.7-0.4c-1.7-0.9-1.8-3-1.8-3.5c0-0.2,0-0.8,0.2-1.5
				c0.5-1.4,1.7-2.3,3.1-2.3c0.4,0,1.5,0.1,2.3,1c0.6,0.7,0.9,1.7,0.9,2.5v0.2h-5.6c0,0.6,0.1,1,0.1,1.2c0.2,0.6,0.7,1.8,2.3,1.8
				c0.6,0,1.6-0.2,2.3-1.5l0.8,0.2C238.6,18.8,238.4,19.2,238.1,19.6z M235.4,13.9c-1.3,0-1.9,0.9-2,1.3c-0.1,0.3-0.2,0.7-0.3,1h4.6
				C237.4,14.3,236.2,13.9,235.4,13.9z"/>
			<path class="st3" d="M251.7,20.5l-6.3-9.3v9.3h-1V9.8h1l6.4,9.2l-0.1-9.2h1v10.7H251.7z"/>
			<path class="st3" d="M260.7,19.6c-0.4,0.5-1.1,1.2-2.6,1.2c-0.3,0-1,0-1.7-0.4c-1.7-0.9-1.8-3-1.8-3.5c0-0.2,0-0.8,0.2-1.5
				c0.5-1.4,1.7-2.3,3.1-2.3c0.4,0,1.5,0.1,2.3,1c0.6,0.7,0.9,1.7,0.9,2.5v0.2h-5.6c0,0.6,0.1,1,0.1,1.2c0.2,0.6,0.7,1.8,2.3,1.8
				c0.6,0,1.6-0.2,2.3-1.5l0.8,0.2C261.2,18.8,261,19.2,260.7,19.6z M258,13.9c-1.3,0-1.9,0.9-2,1.3c-0.1,0.3-0.2,0.7-0.3,1h4.6
				C260,14.3,258.7,13.9,258,13.9z"/>
			<path class="st3" d="M268.9,21.5c0,0.3,0,1.2-0.7,1.9c-0.4,0.4-1.2,0.8-2.5,0.8c-0.4,0-2.1,0-2.8-1.4c-0.3-0.5-0.3-1-0.3-1.2
				l0.9-0.2c0.1,0.8,0.3,2,2.3,2c0.3,0,1.5,0,2-1c0.2-0.5,0.2-1.1,0.3-2.2c0-0.3,0-0.5,0-0.8v-0.4c0,0-0.1,0.3-0.2,0.4
				c-0.3,0.5-1,1.1-2.2,1.1c-0.7,0-1.2-0.2-1.5-0.4c-1.6-0.9-1.7-3-1.7-3.4c0-1.3,0.4-2.6,1.5-3.3c0.3-0.2,0.8-0.4,1.6-0.4
				c0.3,0,1.1,0,1.7,0.6c0.3,0.2,0.5,0.5,0.5,0.6c0.1,0.2,0.1,0.3,0.1,0.3v-1.3h0.9v6.5C268.9,20.4,269,20.9,268.9,21.5z
				 M267.5,14.7c-0.2-0.3-0.8-0.8-1.7-0.8c-0.1,0-0.5,0-0.8,0.1c-1.5,0.6-1.5,2.5-1.5,2.8c0,1.1,0.3,1.8,0.5,2.1
				c0.2,0.3,0.5,0.6,0.9,0.7c0.4,0.2,0.7,0.2,0.9,0.2c0.2,0,0.8,0,1.4-0.4c0.8-0.6,0.9-1.6,0.9-2.5C268,16.8,268.1,15.5,267.5,14.7z
				"/>
			<path class="st3" d="M277.1,18.3c-0.5,1.5-1.6,2.4-3.1,2.4c-0.5,0-1.7-0.1-2.5-1.2c-0.3-0.4-0.7-1.2-0.7-2.5c0-0.3,0-1,0.3-1.8
				c0.7-1.8,2.3-2,3-2c0.8,0,1.5,0.2,2.1,0.8c0.8,0.8,1.1,1.9,1.1,3C277.3,17.1,277.3,17.7,277.1,18.3z M274.1,13.9
				c-0.2,0-0.8,0-1.3,0.4c-0.6,0.4-1,1.2-1,2.7c0,0.3,0,1.7,1,2.5c0.2,0.2,0.7,0.4,1.4,0.4c1.1,0,2.3-0.7,2.4-3
				C276.4,14.6,275.2,13.9,274.1,13.9z"/>
			<path class="st3" d="M284.1,20c-0.3,0.3-1,0.7-2.1,0.7c-0.4,0-1.4,0-2.2-0.8c-1.1-1-1.1-2.5-1.1-2.9c0-0.5,0.1-1,0.2-1.5
				c0.5-1.5,1.7-2.4,3.2-2.4c1.2,0,1.8,0.4,2.1,0.8c0.4,0.4,0.6,0.8,0.6,1l-0.8,0.2c-0.3-0.8-1.1-1.2-2-1.2c-0.3,0-0.9,0-1.5,0.5
				c-0.9,0.8-1,2.2-1,2.5c0,0.2,0,1.5,0.7,2.3c0.1,0.1,0.3,0.3,0.7,0.5c0.2,0.1,0.5,0.2,1,0.2c0.9,0,1.5-0.4,2-1.2l0.9,0.2
				C284.7,19.3,284.4,19.7,284.1,20z"/>
			<path class="st3" d="M286.4,11.6v-1.4h0.9v1.4H286.4z M286.4,20.5v-7.2h0.9v7.2H286.4z"/>
			<path class="st3" d="M295.5,18.3c-0.5,1.5-1.6,2.4-3.1,2.4c-0.5,0-1.7-0.1-2.5-1.2c-0.3-0.4-0.7-1.2-0.7-2.5c0-0.3,0-1,0.3-1.8
				c0.7-1.8,2.3-2,3-2c0.8,0,1.5,0.2,2.1,0.8c0.8,0.8,1.1,1.9,1.1,3C295.7,17.1,295.7,17.7,295.5,18.3z M292.4,13.9
				c-0.2,0-0.8,0-1.3,0.4c-0.6,0.4-1,1.2-1,2.7c0,0.3,0,1.7,1,2.5c0.2,0.2,0.7,0.4,1.4,0.4c1.1,0,2.3-0.7,2.4-3
				C294.7,14.6,293.5,13.9,292.4,13.9z"/>
			<path class="st3" d="M302.2,19.5c-0.3,0.5-1,1.3-2.5,1.3c-0.4,0-1.6-0.1-2.4-1.1c-0.2-0.3-0.3-0.5-0.5-0.8l0.9-0.3
				c0.1,0.5,0.7,1.4,2,1.4c0.7,0,1.1-0.2,1.3-0.4c0.3-0.2,0.5-0.7,0.5-1c0-0.2-0.1-0.5-0.2-0.6c-0.2-0.3-0.6-0.5-1.4-0.7
				c-0.7-0.2-1.8-0.3-2.4-0.9c-0.2-0.3-0.4-0.7-0.4-1.1c0-0.2,0.1-0.9,0.6-1.4c0.5-0.5,1.3-0.6,2-0.6c0.2,0,1.1,0,1.8,0.5
				c0.6,0.4,0.7,0.9,0.8,1.2l-0.8,0.2c-0.2-0.8-1-1.1-1.8-1.1c-0.6,0-1,0.1-1.2,0.3c-0.1,0-0.2,0.2-0.3,0.3
				c-0.2,0.3-0.2,0.5-0.2,0.6c0,0.8,0.9,1,1.5,1.2l0.8,0.2c0.7,0.1,1.3,0.4,1.7,0.9c0.3,0.5,0.3,0.9,0.3,1.1
				C302.5,18.6,302.4,19.1,302.2,19.5z"/>
		</g>
	</g>
	<linearGradient id="SVGID_4_" gradientUnits="userSpaceOnUse" x1="199.9141" y1="28.2485" x2="199.9141" y2="208.8419">
		<stop  offset="0" style="stop-color:#40BFEF"/>
		<stop  offset="1" style="stop-color:#1470B5"/>
	</linearGradient>
	<polygon class="st4" points="261,208.8 261,28.2 138.8,28.2 138.8,208.8 138.8,208.8 	"/>
	<linearGradient id="SVGID_5_" gradientUnits="userSpaceOnUse" x1="198.3648" y1="89.0162" x2="198.3648" y2="201.2036">
		<stop  offset="0" style="stop-color:#F8F6F6"/>
		<stop  offset="1" style="stop-color:#E5E7E9"/>
	</linearGradient>
	<rect x="4.5" y="89" class="st5" width="387.7" height="112.2"/>
	<rect x="4.5" y="124.8" class="st6" width="387.7" height="38.6"/>
	<rect x="4.5" y="89" class="st7" width="386.7" height="23.1"/>
	<g>
		<rect x="138.8" y="28.2" class="st8" width="1" height="180.6"/>
		<rect x="137.8" y="28.2" class="st6" width="1" height="180.6"/>
	</g>
	<g>
		<rect x="261" y="28.2" class="st8" width="1" height="180.6"/>
		<rect x="260" y="28.2" class="st6" width="1" height="180.6"/>
	</g>
	<g>
		<path class="st9" d="M26,105.6c-0.4,0.4-1.2,0.9-2.5,0.9c-0.3,0-1.3,0-2.2-0.6c-0.2-0.2-0.5-0.4-0.6-0.6c-0.5-0.6-0.5-1.4-0.6-1.6
			l1.1-0.1c0,0.2,0,0.9,0.5,1.4c0.3,0.3,0.8,0.6,1.8,0.6c0.1,0,0.4,0,0.7-0.1c0.3-0.1,1.3-0.4,1.3-1.5c0-0.5-0.2-0.8-0.4-0.9
			c-0.3-0.2-0.7-0.3-1.1-0.4l-0.7-0.1c-0.6-0.1-1.2-0.3-1.8-0.6c-1-0.5-1.1-1.2-1.1-1.7c0-0.6,0.3-1.2,0.8-1.6
			c0.8-0.7,1.8-0.7,2.1-0.7c0.8,0,1.5,0.1,2.1,0.6c0.4,0.3,0.6,0.6,0.6,0.7c0.2,0.4,0.3,0.7,0.4,1.1l-1.1,0.1c0-0.2,0-0.3-0.1-0.5
			c-0.2-0.6-0.7-1.2-2-1.2c-0.5,0-1.2,0.1-1.5,0.5c-0.2,0.2-0.3,0.5-0.3,0.7c0,0.1,0,0.4,0.2,0.6c0.3,0.4,0.9,0.5,1.4,0.7l0.9,0.2
			c0.2,0,0.4,0.1,0.6,0.2c0.2,0.1,1.2,0.3,1.7,1.1c0.1,0.2,0.3,0.5,0.3,1.1C26.7,104.3,26.6,105,26,105.6z"/>
		<path class="st9" d="M32.1,105.3c-0.3,0.4-0.9,1.1-2.1,1.1c-0.6,0-0.9-0.1-1.1-0.2c-0.7-0.3-1.5-1-1.5-2.7c0-1,0.3-1.5,0.6-1.9
			c0.5-0.6,1.2-0.9,2-0.9c0.3,0,0.6,0.1,0.8,0.1c0.3,0.1,1,0.4,1.3,1.3c0.1,0.4,0.3,0.8,0.3,1.6h-4c0,1,0.4,1.5,0.8,1.7
			c0.3,0.2,0.6,0.3,1,0.3c0.5,0,0.7-0.2,0.9-0.3c0.1,0,0.2-0.2,0.3-0.4c0.1-0.2,0.2-0.5,0.2-0.6l0.9,0.1
			C32.4,104.7,32.3,105,32.1,105.3z M31.4,102.6c-0.2-0.7-0.7-1.1-1.4-1.1c-1,0-1.4,0.8-1.5,1.6h3C31.5,102.8,31.4,102.7,31.4,102.6
			z"/>
		<path class="st9" d="M38.2,107.3c-0.3,1-1.1,1.3-1.4,1.4c-0.2,0-0.5,0.1-0.9,0.1c-0.2,0-0.5,0-0.9-0.1c-1.3-0.4-1.5-1.4-1.5-1.9h1
			c0,0.1,0,0.4,0.2,0.7c0.4,0.5,1.1,0.5,1.2,0.5c0.1,0,0.9,0,1.3-0.5c0.2-0.3,0.2-0.7,0.2-1.5l0-0.6c-0.6,0.8-1.3,0.9-1.7,0.9
			c-0.5,0-0.9-0.2-1.1-0.3c-0.6-0.3-1.3-1-1.3-2.5c0-0.2,0-1.2,0.6-1.9c0.5-0.6,1-0.9,1.9-0.9c0.1,0,0.4,0,0.7,0.1
			c0.2,0.1,0.6,0.3,1,0.8v-0.7h0.9v5C38.3,106.7,38.3,106.9,38.2,107.3z M37.3,102.7c-0.2-0.7-0.9-1.1-1.6-1.1
			c-0.2,0-0.5,0.1-0.7,0.2c-0.4,0.2-0.9,0.8-0.9,1.9c0,0.6,0.1,1.3,0.7,1.7c0.3,0.2,0.6,0.3,1,0.3c0.5,0,0.8-0.2,1-0.4
			c0.3-0.3,0.6-0.8,0.6-1.7C37.4,103.4,37.4,103,37.3,102.7z"/>
		<path class="st9" d="M43.1,106.2l0-0.8c0,0.1-0.1,0.1-0.2,0.3c-0.4,0.4-1,0.7-1.6,0.7c-0.2,0-1,0-1.4-0.7
			c-0.3-0.5-0.3-1.1-0.3-1.6v-3.1h0.9v3c0,0.6,0,0.8,0.1,1.1c0.1,0.2,0.4,0.5,1,0.5c0.2,0,0.9,0,1.3-0.6c0.3-0.4,0.3-0.9,0.3-1.3
			v-2.7h0.9v5.3H43.1z"/>
		<path class="st9" d="M47.3,101.8c-0.5,0.1-0.9,0.5-1.1,1c-0.1,0.3-0.1,0.5-0.1,1v2.5h-0.9v-5.3h0.9v1c0.1-0.2,0.3-0.4,0.5-0.6
			c0.2-0.2,0.6-0.4,1.3-0.4v1C47.6,101.8,47.4,101.8,47.3,101.8z"/>
		<path class="st9" d="M52.8,105.5c-0.3,0.4-0.9,0.9-2,0.9c-0.3,0-1.2,0-1.8-0.7c-0.3-0.3-0.8-1-0.8-2.1c0-0.7,0.2-1.4,0.6-1.9
			c0.5-0.7,1.2-0.9,2-0.9c0.4,0,0.7,0.1,1.1,0.2c0.6,0.3,1.5,1,1.5,2.6C53.5,103.9,53.4,104.8,52.8,105.5z M52.2,102.2
			c-0.1-0.1-0.2-0.3-0.3-0.4c-0.4-0.3-0.8-0.3-1-0.3c-1.7,0-1.7,1.9-1.7,2.2c0,0.3,0,0.5,0,0.5c0.1,0.4,0.3,1.5,1.6,1.5
			c0.2,0,0.9-0.1,1.3-0.7c0.3-0.5,0.4-1.3,0.4-1.4C52.5,103.4,52.5,102.7,52.2,102.2z"/>
		<path class="st9" d="M61.2,106.2v-0.7c-0.3,0.3-0.8,0.8-1.8,0.8c-1,0-1.5-0.5-1.8-0.8c-0.3-0.4-0.7-1-0.7-2c0-0.7,0.1-1.3,0.5-1.9
			c0.2-0.3,0.8-1,1.9-1c0.8,0,1.3,0.4,1.5,0.5c0.1,0.1,0.2,0.2,0.3,0.3v-3.4h0.9v8H61.2z M61.2,102.9c-0.2-0.8-0.8-1.3-1.6-1.3
			c-0.2,0-0.8,0-1.2,0.6c-0.4,0.4-0.5,0.9-0.5,1.5c0,0.2,0,0.9,0.4,1.4c0.4,0.6,1,0.6,1.3,0.6c0.3,0,0.6-0.1,0.9-0.2
			c0.4-0.2,0.8-0.8,0.8-1.8C61.3,103.5,61.3,103.2,61.2,102.9z"/>
		<path class="st9" d="M67.8,105.3c-0.3,0.4-0.9,1.1-2.1,1.1c-0.6,0-0.9-0.1-1.1-0.2c-0.7-0.3-1.5-1-1.5-2.7c0-1,0.3-1.5,0.6-1.9
			c0.5-0.6,1.2-0.9,2-0.9c0.3,0,0.6,0.1,0.8,0.1c0.3,0.1,1,0.4,1.3,1.3c0.1,0.4,0.3,0.8,0.3,1.6h-4c0,1,0.4,1.5,0.8,1.7
			c0.3,0.2,0.6,0.3,1,0.3c0.5,0,0.7-0.2,0.9-0.3c0.1,0,0.2-0.2,0.3-0.4c0.1-0.2,0.2-0.5,0.2-0.6l0.9,0.1
			C68.1,104.7,68,105,67.8,105.3z M67.1,102.6c-0.2-0.7-0.7-1.1-1.4-1.1c-1,0-1.4,0.8-1.5,1.6h3C67.1,102.8,67.1,102.7,67.1,102.6z"
			/>
		<path class="st9" d="M77.2,106.2l-0.9-2.4h-3l-0.9,2.4h-1.1l3-8h1.1l2.9,8H77.2z M74.9,99.6l-1.2,3.3H76L74.9,99.6z"/>
		<path class="st9" d="M83,105.9c-0.6,0.5-1.4,0.5-1.6,0.5c-0.2,0-0.6,0-1-0.2c-0.6-0.2-1.6-0.9-1.6-2.6c0-1.7,0.9-2.5,1.6-2.7
			c0.4-0.2,0.8-0.2,1-0.2c1.4,0,2.1,0.8,2.3,1.3c0.1,0.2,0.1,0.3,0.1,0.5l-1,0.1c0-0.1-0.1-0.4-0.2-0.6c-0.4-0.6-1-0.6-1.2-0.6
			c-0.8,0-1.6,0.5-1.6,2.2c0,0.9,0.3,1.5,0.6,1.8c0.3,0.3,0.7,0.4,1.1,0.4c0.2,0,0.5,0,0.7-0.1c0.6-0.3,0.7-0.8,0.8-1.3l1,0.1
			C83.7,105.2,83.2,105.7,83,105.9z"/>
		<path class="st9" d="M88.6,105.9c-0.6,0.5-1.4,0.5-1.6,0.5c-0.2,0-0.6,0-1-0.2c-0.6-0.2-1.6-0.9-1.6-2.6c0-1.7,0.9-2.5,1.6-2.7
			c0.4-0.2,0.8-0.2,1-0.2c1.4,0,2.1,0.8,2.3,1.3c0.1,0.2,0.1,0.3,0.1,0.5l-1,0.1c0-0.1-0.1-0.4-0.2-0.6c-0.4-0.6-1-0.6-1.2-0.6
			c-0.8,0-1.6,0.5-1.6,2.2c0,0.9,0.3,1.5,0.6,1.8c0.3,0.3,0.7,0.4,1.1,0.4c0.2,0,0.5,0,0.7-0.1c0.6-0.3,0.7-0.8,0.8-1.3l1,0.1
			C89.4,105.2,88.9,105.7,88.6,105.9z"/>
		<path class="st9" d="M90.4,99.3v-1h0.9v1H90.4z M90.4,106.2v-5.3h0.9v5.3H90.4z"/>
		<path class="st9" d="M96.4,106.2v-0.7c-0.3,0.3-0.8,0.8-1.8,0.8c-1,0-1.5-0.5-1.8-0.8c-0.3-0.4-0.7-1-0.7-2c0-0.7,0.1-1.3,0.5-1.9
			c0.2-0.3,0.8-1,1.9-1c0.8,0,1.3,0.4,1.5,0.5c0.1,0.1,0.2,0.2,0.3,0.3v-3.4h0.9v8H96.4z M96.4,102.9c-0.2-0.8-0.8-1.3-1.6-1.3
			c-0.2,0-0.8,0-1.2,0.6c-0.4,0.4-0.5,0.9-0.5,1.5c0,0.2,0,0.9,0.4,1.4c0.4,0.6,1,0.6,1.3,0.6c0.3,0,0.6-0.1,0.9-0.2
			c0.4-0.2,0.8-0.8,0.8-1.8C96.5,103.5,96.5,103.2,96.4,102.9z"/>
		<path class="st9" d="M103,105.3c-0.3,0.4-0.9,1.1-2.1,1.1c-0.6,0-0.9-0.1-1.1-0.2c-0.7-0.3-1.5-1-1.5-2.7c0-1,0.3-1.5,0.6-1.9
			c0.5-0.6,1.2-0.9,2-0.9c0.3,0,0.6,0.1,0.8,0.1c0.3,0.1,1,0.4,1.3,1.3c0.1,0.4,0.3,0.8,0.3,1.6h-4c0,1,0.4,1.5,0.8,1.7
			c0.3,0.2,0.6,0.3,1,0.3c0.5,0,0.7-0.2,0.9-0.3c0.1,0,0.2-0.2,0.3-0.4c0.1-0.2,0.2-0.5,0.2-0.6l0.9,0.1
			C103.3,104.7,103.2,105,103,105.3z M102.3,102.6c-0.2-0.7-0.7-1.1-1.4-1.1c-1,0-1.4,0.8-1.5,1.6h3
			C102.3,102.8,102.3,102.7,102.3,102.6z"/>
		<path class="st9" d="M107.8,106.2v-3.4c0-0.2,0-0.7-0.4-1c-0.1-0.1-0.4-0.2-0.8-0.2c-0.4,0-0.7,0.1-1,0.4
			c-0.1,0.1-0.2,0.2-0.3,0.5c-0.1,0.2-0.1,0.5-0.1,0.7v3h-0.9v-5.3h0.9v0.8c0.1-0.2,0.2-0.3,0.3-0.4c0.2-0.2,0.7-0.6,1.4-0.6
			c0.2,0,1,0.1,1.5,0.7c0.4,0.5,0.3,1,0.3,1.6v3.2H107.8z"/>
		<path class="st9" d="M111.3,106.3c-0.5,0-0.8-0.1-0.9-0.3c-0.1-0.2-0.1-0.4-0.1-0.9v-3.5h-0.9v-0.7h0.9v-1.7h0.9v1.7h1v0.7h-1v3.1
			c0,0.4,0,0.6,0.1,0.7c0.1,0.1,0.2,0.2,0.3,0.2c0.1,0,0.3,0,0.6-0.1v0.7C112.1,106.2,111.6,106.3,111.3,106.3z"/>
		<path class="st9" d="M117.4,105.3c-0.3,0.4-0.9,1.1-2.1,1.1c-0.6,0-0.9-0.1-1.1-0.2c-0.7-0.3-1.5-1-1.5-2.7c0-1,0.3-1.5,0.6-1.9
			c0.5-0.6,1.2-0.9,2-0.9c0.3,0,0.6,0.1,0.8,0.1c0.3,0.1,1,0.4,1.3,1.3c0.1,0.4,0.3,0.8,0.3,1.6h-4c0,1,0.4,1.5,0.8,1.7
			c0.3,0.2,0.6,0.3,1,0.3c0.5,0,0.7-0.2,0.9-0.3c0.1,0,0.2-0.2,0.3-0.4c0.1-0.2,0.2-0.5,0.2-0.6l0.9,0.1
			C117.7,104.7,117.6,105,117.4,105.3z M116.7,102.6c-0.2-0.7-0.7-1.1-1.4-1.1c-1,0-1.4,0.8-1.5,1.6h3
			C116.7,102.8,116.7,102.7,116.7,102.6z"/>
		<path class="st9" d="M122.8,105.5c-0.3,0.4-0.9,0.9-2,0.9c-0.2,0-1,0-1.6-0.4c-0.1-0.1-0.2-0.1-0.4-0.3c-0.4-0.5-0.5-1-0.5-1.2
			l1-0.1c0,0.4,0,0.7,0.3,0.9c0.3,0.4,0.7,0.4,1.2,0.4c0.1,0,0.6,0,1-0.3c0.2-0.2,0.2-0.5,0.2-0.6c0-0.1,0-0.2-0.1-0.4
			c-0.2-0.3-0.7-0.4-1-0.5l-0.5-0.1c-0.7-0.1-1-0.2-1.3-0.4c-0.4-0.3-0.6-0.6-0.6-1.1c0-0.2,0-0.5,0.3-0.9c0.5-0.7,1.6-0.7,1.8-0.7
			c1.1,0,1.7,0.6,2,0.9c0.2,0.3,0.3,0.7,0.3,0.8l-1,0.1c0-0.3,0-0.4-0.1-0.5c-0.1-0.3-0.6-0.7-1.3-0.7c-0.7,0-1.1,0.4-1.1,0.8
			c0,0.1,0,0.2,0.1,0.3c0.2,0.3,0.6,0.4,1.2,0.6l0.5,0.1c0.2,0,0.3,0.1,0.5,0.1c0.7,0.2,1.3,0.6,1.3,1.4
			C123,104.8,123,105.2,122.8,105.5z"/>
		<path class="st9" d="M52.7,114.8c-0.3,0.1-0.6,0.1-1.2,0.1h-2.3v3.4h-1v-8h3.4c0.6,0,1.2,0,1.7,0.3c0.9,0.6,0.9,1.6,0.9,1.9
			C54.3,113.6,53.8,114.6,52.7,114.8z M53.1,112c-0.1-0.4-0.4-0.6-0.8-0.7c-0.2-0.1-0.4-0.1-0.6-0.1h-2.5v2.7h2.2
			c0.3,0,0.6,0,0.9-0.1c0.6-0.2,0.9-0.7,0.9-1.4C53.2,112.5,53.2,112.3,53.1,112z"/>
		<path class="st9" d="M59.3,117.4c-0.3,0.4-0.9,1.1-2.1,1.1c-0.6,0-0.9-0.1-1.1-0.2c-0.7-0.3-1.5-1-1.5-2.7c0-1,0.3-1.5,0.6-1.9
			c0.5-0.6,1.2-0.9,2-0.9c0.3,0,0.6,0.1,0.8,0.1c0.3,0.1,1,0.4,1.3,1.3c0.1,0.4,0.3,0.8,0.3,1.6h-4c0,1,0.4,1.5,0.8,1.7
			c0.3,0.2,0.6,0.3,1,0.3c0.5,0,0.7-0.2,0.9-0.3c0.1,0,0.2-0.2,0.3-0.4c0.1-0.2,0.2-0.5,0.2-0.6l0.9,0.1
			C59.6,116.8,59.5,117.1,59.3,117.4z M58.6,114.6c-0.2-0.7-0.7-1.1-1.4-1.1c-1,0-1.4,0.8-1.5,1.6h3
			C58.6,114.9,58.6,114.8,58.6,114.6z"/>
		<path class="st9" d="M62.6,113.9c-0.5,0.1-0.9,0.5-1.1,1c-0.1,0.3-0.1,0.5-0.1,1v2.5h-0.9V113h0.9v1c0.1-0.2,0.3-0.4,0.5-0.6
			c0.2-0.2,0.6-0.4,1.3-0.4v1C63,113.9,62.8,113.9,62.6,113.9z"/>
		<path class="st9" d="M68,117.6c-0.3,0.4-0.9,0.9-2,0.9c-0.2,0-1,0-1.6-0.4c-0.1-0.1-0.2-0.1-0.4-0.3c-0.4-0.5-0.5-1-0.5-1.2l1-0.1
			c0,0.4,0,0.7,0.3,0.9c0.3,0.4,0.7,0.4,1.2,0.4c0.1,0,0.6,0,1-0.3c0.2-0.2,0.2-0.5,0.2-0.6c0-0.1,0-0.2-0.1-0.4
			c-0.2-0.3-0.7-0.4-1-0.5l-0.5-0.1c-0.7-0.1-1-0.2-1.3-0.4c-0.4-0.3-0.6-0.6-0.6-1.1c0-0.2,0-0.5,0.3-0.9c0.5-0.7,1.6-0.7,1.8-0.7
			c1.1,0,1.7,0.6,2,0.9c0.2,0.3,0.3,0.7,0.3,0.8l-1,0.1c0-0.3,0-0.4-0.1-0.5c-0.1-0.3-0.6-0.7-1.3-0.7c-0.7,0-1.1,0.4-1.1,0.8
			c0,0.1,0,0.2,0.1,0.3c0.2,0.3,0.6,0.4,1.2,0.6l0.5,0.1c0.2,0,0.3,0.1,0.5,0.1c0.7,0.2,1.3,0.6,1.3,1.4
			C68.2,116.9,68.2,117.3,68,117.6z"/>
		<path class="st9" d="M73.4,117.6c-0.3,0.4-0.9,0.9-2,0.9c-0.3,0-1.2,0-1.8-0.7c-0.3-0.3-0.8-1-0.8-2.1c0-0.7,0.2-1.4,0.6-1.9
			c0.5-0.7,1.2-0.9,2-0.9c0.4,0,0.7,0.1,1.1,0.2c0.6,0.3,1.5,1,1.5,2.6C74,116,74,116.9,73.4,117.6z M72.8,114.3
			c-0.1-0.1-0.2-0.3-0.3-0.4c-0.4-0.3-0.8-0.3-1-0.3c-1.7,0-1.7,1.9-1.7,2.2c0,0.3,0,0.5,0,0.5c0.1,0.4,0.3,1.5,1.6,1.5
			c0.2,0,0.9-0.1,1.3-0.7c0.3-0.5,0.4-1.3,0.4-1.4C73.1,115.5,73.1,114.8,72.8,114.3z"/>
		<path class="st9" d="M78.5,118.3v-3.4c0-0.2,0-0.7-0.4-1c-0.1-0.1-0.4-0.2-0.8-0.2c-0.4,0-0.7,0.1-1,0.4c-0.1,0.1-0.2,0.2-0.3,0.5
			c-0.1,0.2-0.1,0.5-0.1,0.7v3H75V113h0.9v0.8c0.1-0.2,0.2-0.3,0.3-0.4c0.2-0.2,0.7-0.6,1.4-0.6c0.2,0,1,0.1,1.5,0.7
			c0.4,0.5,0.3,1,0.3,1.6v3.2H78.5z"/>
		<path class="st9" d="M84.8,118.4c0,0-0.4,0-0.6-0.1c-0.1-0.1-0.2-0.2-0.2-0.2c-0.1-0.2-0.2-0.3-0.2-0.5c-0.2,0.3-0.8,0.9-1.8,0.9
			c-0.4,0-0.6-0.1-0.7-0.1c-0.6-0.2-1.1-0.7-1.1-1.4c0-0.2,0.1-0.8,0.6-1.2c0.5-0.4,1.5-0.6,2.2-0.6l0.8-0.1c0-0.1,0-0.3,0-0.4
			c0-0.4-0.1-1.2-1.2-1.2c-0.2,0-0.9,0-1.1,0.6c-0.1,0.2-0.1,0.3-0.1,0.5l-0.9-0.1c0-0.1,0-0.3,0.1-0.5c0.2-0.5,0.7-1.2,2-1.2
			c0.2,0,0.5,0,0.8,0.1c0.2,0.1,0.9,0.3,1.2,1c0.1,0.3,0.1,0.6,0.1,1.1v1.7c0,0.1,0,0.2,0,0.4c0,0.1,0,0.4,0.4,0.4
			c0.1,0,0.2,0,0.3,0v0.8C85.1,118.4,85,118.4,84.8,118.4z M83.8,115.8v-0.1c-0.4,0.1-1.5,0.2-1.9,0.4c-0.2,0.1-0.7,0.3-0.7,0.8
			c0,0.4,0.3,0.8,1,0.8c0.5,0,1.6-0.2,1.6-1.6C83.8,116,83.8,115.9,83.8,115.8z"/>
		<path class="st9" d="M86.1,118.3v-8H87v8H86.1z"/>
		<path class="st9" d="M92.6,117.4c-0.3,0.4-0.9,1.1-2.1,1.1c-0.6,0-0.9-0.1-1.1-0.2c-0.7-0.3-1.5-1-1.5-2.7c0-1,0.3-1.5,0.6-1.9
			c0.5-0.6,1.2-0.9,2-0.9c0.3,0,0.6,0.1,0.8,0.1c0.3,0.1,1,0.4,1.3,1.3c0.1,0.4,0.3,0.8,0.3,1.6h-4c0,1,0.4,1.5,0.8,1.7
			c0.3,0.2,0.6,0.3,1,0.3c0.5,0,0.7-0.2,0.9-0.3c0.1,0,0.2-0.2,0.3-0.4c0.1-0.2,0.2-0.5,0.2-0.6l0.9,0.1
			C92.9,116.8,92.8,117.1,92.6,117.4z M91.9,114.6c-0.2-0.7-0.7-1.1-1.4-1.1c-1,0-1.4,0.8-1.5,1.6h3
			C91.9,114.9,91.9,114.8,91.9,114.6z"/>
		<path class="st9" d="M98,117.6c-0.3,0.4-0.9,0.9-2,0.9c-0.2,0-1,0-1.6-0.4c-0.1-0.1-0.2-0.1-0.4-0.3c-0.4-0.5-0.5-1-0.5-1.2l1-0.1
			c0,0.4,0,0.7,0.3,0.9c0.3,0.4,0.7,0.4,1.2,0.4c0.1,0,0.6,0,1-0.3c0.2-0.2,0.2-0.5,0.2-0.6c0-0.1,0-0.2-0.1-0.4
			c-0.2-0.3-0.7-0.4-1-0.5l-0.5-0.1c-0.7-0.1-1-0.2-1.3-0.4c-0.4-0.3-0.6-0.6-0.6-1.1c0-0.2,0-0.5,0.3-0.9c0.5-0.7,1.6-0.7,1.8-0.7
			c1.1,0,1.7,0.6,2,0.9c0.2,0.3,0.3,0.7,0.3,0.8l-1,0.1c0-0.3,0-0.4-0.1-0.5c-0.1-0.3-0.6-0.7-1.3-0.7c-0.7,0-1.1,0.4-1.1,0.8
			c0,0.1,0,0.2,0.1,0.3c0.2,0.3,0.6,0.4,1.2,0.6l0.5,0.1c0.2,0,0.3,0.1,0.5,0.1c0.7,0.2,1.3,0.6,1.3,1.4
			C98.2,116.9,98.2,117.3,98,117.6z"/>
	</g>
	<g>
		<path class="st9" d="M153.4,105.6c-0.4,0.4-1.2,0.9-2.5,0.9c-0.3,0-1.3,0-2.2-0.6c-0.2-0.2-0.5-0.4-0.6-0.6
			c-0.5-0.6-0.5-1.4-0.6-1.6l1.1-0.1c0,0.2,0,0.9,0.5,1.4c0.3,0.3,0.8,0.6,1.8,0.6c0.1,0,0.4,0,0.7-0.1c0.3-0.1,1.3-0.4,1.3-1.5
			c0-0.5-0.2-0.8-0.4-0.9c-0.3-0.2-0.7-0.3-1.1-0.4l-0.7-0.1c-0.6-0.1-1.2-0.3-1.8-0.6c-1-0.5-1.1-1.2-1.1-1.7
			c0-0.6,0.3-1.2,0.8-1.6c0.8-0.7,1.8-0.7,2.1-0.7c0.8,0,1.5,0.1,2.1,0.6c0.4,0.3,0.6,0.6,0.6,0.7c0.2,0.4,0.3,0.7,0.4,1.1l-1.1,0.1
			c0-0.2,0-0.3-0.1-0.5c-0.2-0.6-0.7-1.2-2-1.2c-0.5,0-1.2,0.1-1.5,0.5c-0.2,0.2-0.3,0.5-0.3,0.7c0,0.1,0,0.4,0.2,0.6
			c0.3,0.4,0.9,0.5,1.4,0.7l0.9,0.2c0.2,0,0.4,0.1,0.6,0.2c0.2,0.1,1.2,0.3,1.7,1.1c0.1,0.2,0.3,0.5,0.3,1.1
			C154.1,104.2,154.1,105,153.4,105.6z"/>
		<path class="st9" d="M159.5,105.3c-0.3,0.4-0.9,1.1-2.1,1.1c-0.6,0-0.9-0.1-1.1-0.2c-0.7-0.3-1.5-1-1.5-2.7c0-1,0.3-1.5,0.6-1.9
			c0.5-0.6,1.2-0.9,2-0.9c0.3,0,0.6,0.1,0.8,0.1c0.3,0.1,1,0.4,1.3,1.3c0.1,0.4,0.3,0.8,0.3,1.6h-4c0,1,0.4,1.5,0.8,1.7
			c0.3,0.2,0.6,0.3,1,0.3c0.5,0,0.7-0.2,0.9-0.3c0.1,0,0.2-0.2,0.3-0.4c0.1-0.2,0.2-0.5,0.2-0.6l0.9,0.1
			C159.9,104.7,159.8,105,159.5,105.3z M158.8,102.6c-0.2-0.7-0.7-1.1-1.4-1.1c-1,0-1.4,0.8-1.5,1.6h3
			C158.9,102.8,158.9,102.7,158.8,102.6z"/>
		<path class="st9" d="M165.6,107.3c-0.3,1-1.1,1.3-1.4,1.4c-0.2,0-0.5,0.1-0.9,0.1c-0.2,0-0.5,0-0.9-0.1c-1.3-0.4-1.5-1.4-1.5-1.9
			h1c0,0.1,0,0.4,0.2,0.7c0.4,0.5,1.1,0.5,1.2,0.5c0.1,0,0.9,0,1.3-0.5c0.2-0.3,0.2-0.7,0.2-1.5l0-0.6c-0.6,0.8-1.3,0.9-1.7,0.9
			c-0.5,0-0.9-0.2-1.1-0.3c-0.6-0.3-1.3-1-1.3-2.5c0-0.2,0-1.2,0.6-1.9c0.5-0.6,1-0.9,1.9-0.9c0.1,0,0.4,0,0.7,0.1
			c0.2,0.1,0.6,0.3,1,0.8v-0.7h0.9v5C165.7,106.7,165.7,106.9,165.6,107.3z M164.7,102.7c-0.2-0.7-0.9-1.1-1.6-1.1
			c-0.2,0-0.5,0.1-0.7,0.2c-0.4,0.2-0.9,0.8-0.9,1.9c0,0.6,0.1,1.3,0.7,1.7c0.3,0.2,0.6,0.3,1,0.3c0.5,0,0.8-0.2,1-0.4
			c0.3-0.3,0.6-0.8,0.6-1.7C164.8,103.4,164.8,103,164.7,102.7z"/>
		<path class="st9" d="M170.5,106.2l0-0.8c0,0.1-0.1,0.1-0.2,0.3c-0.4,0.4-1,0.7-1.6,0.7c-0.2,0-1,0-1.4-0.7
			c-0.3-0.5-0.3-1.1-0.3-1.6v-3.1h0.9v3c0,0.6,0,0.8,0.1,1.1c0.1,0.2,0.4,0.5,1,0.5c0.2,0,0.9,0,1.3-0.6c0.3-0.4,0.3-0.9,0.3-1.3
			v-2.7h0.9v5.3H170.5z"/>
		<path class="st9" d="M174.7,101.8c-0.5,0.1-0.9,0.5-1.1,1c-0.1,0.3-0.1,0.5-0.1,1v2.5h-0.9v-5.3h0.9v1c0.1-0.2,0.3-0.4,0.5-0.6
			c0.2-0.2,0.6-0.4,1.3-0.4v1C175,101.8,174.9,101.8,174.7,101.8z"/>
		<path class="st9" d="M180.3,105.5c-0.3,0.4-0.9,0.9-2,0.9c-0.3,0-1.2,0-1.8-0.7c-0.3-0.3-0.8-1-0.8-2.1c0-0.7,0.2-1.4,0.6-1.9
			c0.5-0.7,1.2-0.9,2-0.9c0.4,0,0.7,0.1,1.1,0.2c0.6,0.3,1.5,1,1.5,2.6C180.9,103.9,180.9,104.8,180.3,105.5z M179.7,102.2
			c-0.1-0.1-0.2-0.3-0.3-0.4c-0.4-0.3-0.8-0.3-1-0.3c-1.7,0-1.7,1.9-1.7,2.2c0,0.3,0,0.5,0,0.5c0.1,0.4,0.3,1.5,1.6,1.5
			c0.2,0,0.9-0.1,1.3-0.7c0.3-0.5,0.4-1.3,0.4-1.4C179.9,103.4,179.9,102.7,179.7,102.2z"/>
		<path class="st9" d="M188.7,106.2v-0.7c-0.3,0.3-0.8,0.8-1.8,0.8c-1,0-1.5-0.5-1.8-0.8c-0.3-0.4-0.7-1-0.7-2
			c0-0.7,0.1-1.3,0.5-1.9c0.2-0.3,0.8-1,1.9-1c0.8,0,1.3,0.4,1.5,0.5c0.1,0.1,0.2,0.2,0.3,0.3v-3.4h0.9v8H188.7z M188.6,102.9
			c-0.2-0.8-0.8-1.3-1.6-1.3c-0.2,0-0.8,0-1.2,0.6c-0.4,0.4-0.5,0.9-0.5,1.5c0,0.2,0,0.9,0.4,1.4c0.4,0.6,1,0.6,1.3,0.6
			c0.3,0,0.6-0.1,0.9-0.2c0.4-0.2,0.8-0.8,0.8-1.8C188.7,103.5,188.7,103.2,188.6,102.9z"/>
		<path class="st9" d="M195.2,105.3c-0.3,0.4-0.9,1.1-2.1,1.1c-0.6,0-0.9-0.1-1.1-0.2c-0.7-0.3-1.5-1-1.5-2.7c0-1,0.3-1.5,0.6-1.9
			c0.5-0.6,1.2-0.9,2-0.9c0.3,0,0.6,0.1,0.8,0.1c0.3,0.1,1,0.4,1.3,1.3c0.1,0.4,0.3,0.8,0.3,1.6h-4c0,1,0.4,1.5,0.8,1.7
			c0.3,0.2,0.6,0.3,1,0.3c0.5,0,0.7-0.2,0.9-0.3c0.1,0,0.2-0.2,0.3-0.4c0.1-0.2,0.2-0.5,0.2-0.6l0.9,0.1
			C195.5,104.7,195.4,105,195.2,105.3z M194.5,102.6c-0.2-0.7-0.7-1.1-1.4-1.1c-1,0-1.4,0.8-1.5,1.6h3
			C194.6,102.8,194.5,102.7,194.5,102.6z"/>
		<path class="st9" d="M204.7,106.2l-0.9-2.4h-3l-0.9,2.4h-1.1l3-8h1.1l2.9,8H204.7z M202.3,99.6l-1.2,3.3h2.4L202.3,99.6z"/>
		<path class="st9" d="M210.4,105.9c-0.6,0.5-1.4,0.5-1.6,0.5c-0.2,0-0.6,0-1-0.2c-0.6-0.2-1.6-0.9-1.6-2.6c0-1.7,0.9-2.5,1.6-2.7
			c0.4-0.2,0.8-0.2,1-0.2c1.4,0,2.1,0.8,2.3,1.3c0.1,0.2,0.1,0.3,0.1,0.5l-1,0.1c0-0.1-0.1-0.4-0.2-0.6c-0.4-0.6-1-0.6-1.2-0.6
			c-0.8,0-1.6,0.5-1.6,2.2c0,0.9,0.3,1.5,0.6,1.8c0.3,0.3,0.7,0.4,1.1,0.4c0.2,0,0.5,0,0.7-0.1c0.6-0.3,0.7-0.8,0.8-1.3l1,0.1
			C211.1,105.2,210.7,105.7,210.4,105.9z"/>
		<path class="st9" d="M216.1,105.9c-0.6,0.5-1.4,0.5-1.6,0.5c-0.2,0-0.6,0-1-0.2c-0.6-0.2-1.6-0.9-1.6-2.6c0-1.7,0.9-2.5,1.6-2.7
			c0.4-0.2,0.8-0.2,1-0.2c1.4,0,2.1,0.8,2.3,1.3c0.1,0.2,0.1,0.3,0.1,0.5l-1,0.1c0-0.1-0.1-0.4-0.2-0.6c-0.4-0.6-1-0.6-1.2-0.6
			c-0.8,0-1.6,0.5-1.6,2.2c0,0.9,0.3,1.5,0.6,1.8c0.3,0.3,0.7,0.4,1.1,0.4c0.2,0,0.5,0,0.7-0.1c0.6-0.3,0.7-0.8,0.8-1.3l1,0.1
			C216.8,105.2,216.3,105.7,216.1,105.9z"/>
		<path class="st9" d="M217.8,99.3v-1h0.9v1H217.8z M217.8,106.2v-5.3h0.9v5.3H217.8z"/>
		<path class="st9" d="M223.9,106.2v-0.7c-0.3,0.3-0.8,0.8-1.8,0.8c-1,0-1.5-0.5-1.8-0.8c-0.3-0.4-0.7-1-0.7-2
			c0-0.7,0.1-1.3,0.5-1.9c0.2-0.3,0.8-1,1.9-1c0.8,0,1.3,0.4,1.5,0.5c0.1,0.1,0.2,0.2,0.3,0.3v-3.4h0.9v8H223.9z M223.8,102.9
			c-0.2-0.8-0.8-1.3-1.6-1.3c-0.2,0-0.8,0-1.2,0.6c-0.4,0.4-0.5,0.9-0.5,1.5c0,0.2,0,0.9,0.4,1.4c0.4,0.6,1,0.6,1.3,0.6
			c0.3,0,0.6-0.1,0.9-0.2c0.4-0.2,0.8-0.8,0.8-1.8C223.9,103.5,223.9,103.2,223.8,102.9z"/>
		<path class="st9" d="M230.4,105.3c-0.3,0.4-0.9,1.1-2.1,1.1c-0.6,0-0.9-0.1-1.1-0.2c-0.7-0.3-1.5-1-1.5-2.7c0-1,0.3-1.5,0.6-1.9
			c0.5-0.6,1.2-0.9,2-0.9c0.3,0,0.6,0.1,0.8,0.1c0.3,0.1,1,0.4,1.3,1.3c0.1,0.4,0.3,0.8,0.3,1.6h-4c0,1,0.4,1.5,0.8,1.7
			c0.3,0.2,0.6,0.3,1,0.3c0.5,0,0.7-0.2,0.9-0.3c0.1,0,0.2-0.2,0.3-0.4c0.1-0.2,0.2-0.5,0.2-0.6l0.9,0.1
			C230.7,104.7,230.6,105,230.4,105.3z M229.7,102.6c-0.2-0.7-0.7-1.1-1.4-1.1c-1,0-1.4,0.8-1.5,1.6h3
			C229.7,102.8,229.7,102.7,229.7,102.6z"/>
		<path class="st9" d="M235.2,106.2v-3.4c0-0.2,0-0.7-0.4-1c-0.1-0.1-0.4-0.2-0.8-0.2c-0.4,0-0.7,0.1-1,0.4
			c-0.1,0.1-0.2,0.2-0.3,0.5c-0.1,0.2-0.1,0.5-0.1,0.7v3h-0.9v-5.3h0.9v0.8c0.1-0.2,0.2-0.3,0.3-0.4c0.2-0.2,0.7-0.6,1.4-0.6
			c0.2,0,1,0.1,1.5,0.7c0.4,0.5,0.3,1,0.3,1.6v3.2H235.2z"/>
		<path class="st9" d="M238.7,106.3c-0.5,0-0.8-0.1-0.9-0.3c-0.1-0.2-0.1-0.4-0.1-0.9v-3.5h-0.9v-0.7h0.9v-1.7h0.9v1.7h1v0.7h-1v3.1
			c0,0.4,0,0.6,0.1,0.7c0.1,0.1,0.2,0.2,0.3,0.2c0.1,0,0.3,0,0.6-0.1v0.7C239.5,106.2,239,106.3,238.7,106.3z"/>
		<path class="st9" d="M244.8,105.3c-0.3,0.4-0.9,1.1-2.1,1.1c-0.6,0-0.9-0.1-1.1-0.2c-0.7-0.3-1.5-1-1.5-2.7c0-1,0.3-1.5,0.6-1.9
			c0.5-0.6,1.2-0.9,2-0.9c0.3,0,0.6,0.1,0.8,0.1c0.3,0.1,1,0.4,1.3,1.3c0.1,0.4,0.3,0.8,0.3,1.6h-4c0,1,0.4,1.5,0.8,1.7
			c0.3,0.2,0.6,0.3,1,0.3c0.5,0,0.7-0.2,0.9-0.3c0.1,0,0.2-0.2,0.3-0.4c0.1-0.2,0.2-0.5,0.2-0.6l0.9,0.1
			C245.1,104.7,245,105,244.8,105.3z M244.1,102.6c-0.2-0.7-0.7-1.1-1.4-1.1c-1,0-1.4,0.8-1.5,1.6h3
			C244.2,102.8,244.1,102.7,244.1,102.6z"/>
		<path class="st9" d="M250.2,105.5c-0.3,0.4-0.9,0.9-2,0.9c-0.2,0-1,0-1.6-0.4c-0.1-0.1-0.2-0.1-0.4-0.3c-0.4-0.5-0.5-1-0.5-1.2
			l1-0.1c0,0.4,0,0.7,0.3,0.9c0.3,0.4,0.7,0.4,1.2,0.4c0.1,0,0.6,0,1-0.3c0.2-0.2,0.2-0.5,0.2-0.6c0-0.1,0-0.2-0.1-0.4
			c-0.2-0.3-0.7-0.4-1-0.5l-0.5-0.1c-0.7-0.1-1-0.2-1.3-0.4c-0.4-0.3-0.6-0.6-0.6-1.1c0-0.2,0-0.5,0.3-0.9c0.5-0.7,1.6-0.7,1.8-0.7
			c1.1,0,1.7,0.6,2,0.9c0.2,0.3,0.3,0.7,0.3,0.8l-1,0.1c0-0.3,0-0.4-0.1-0.5c-0.1-0.3-0.6-0.7-1.3-0.7c-0.7,0-1.1,0.4-1.1,0.8
			c0,0.1,0,0.2,0.1,0.3c0.2,0.3,0.6,0.4,1.2,0.6l0.5,0.1c0.2,0,0.3,0.1,0.5,0.1c0.7,0.2,1.3,0.6,1.3,1.4
			C250.4,104.8,250.4,105.2,250.2,105.5z"/>
		<path class="st9" d="M180.1,114.8c-0.3,0.1-0.6,0.1-1.2,0.1h-2.3v3.4h-1v-8h3.4c0.6,0,1.2,0,1.7,0.3c0.9,0.6,0.9,1.6,0.9,1.9
			C181.7,113.6,181.2,114.6,180.1,114.8z M180.6,112c-0.1-0.4-0.4-0.6-0.8-0.7c-0.2-0.1-0.4-0.1-0.6-0.1h-2.5v2.7h2.2
			c0.3,0,0.6,0,0.9-0.1c0.6-0.2,0.9-0.7,0.9-1.4C180.6,112.5,180.6,112.3,180.6,112z"/>
		<path class="st9" d="M186.7,117.4c-0.3,0.4-0.9,1.1-2.1,1.1c-0.6,0-0.9-0.1-1.1-0.2c-0.7-0.3-1.5-1-1.5-2.7c0-1,0.3-1.5,0.6-1.9
			c0.5-0.6,1.2-0.9,2-0.9c0.3,0,0.6,0.1,0.8,0.1c0.3,0.1,1,0.4,1.3,1.3c0.1,0.4,0.3,0.8,0.3,1.6h-4c0,1,0.4,1.5,0.8,1.7
			c0.3,0.2,0.6,0.3,1,0.3c0.5,0,0.7-0.2,0.9-0.3c0.1,0,0.2-0.2,0.3-0.4c0.1-0.2,0.2-0.5,0.2-0.6l0.9,0.1
			C187,116.8,186.9,117.1,186.7,117.4z M186,114.6c-0.2-0.7-0.7-1.1-1.4-1.1c-1,0-1.4,0.8-1.5,1.6h3
			C186.1,114.9,186,114.8,186,114.6z"/>
		<path class="st9" d="M190.1,113.9c-0.5,0.1-0.9,0.5-1.1,1c-0.1,0.3-0.1,0.5-0.1,1v2.5H188V113h0.9v1c0.1-0.2,0.3-0.4,0.5-0.6
			c0.2-0.2,0.6-0.4,1.3-0.4v1C190.4,113.9,190.2,113.9,190.1,113.9z"/>
		<path class="st9" d="M195.4,117.6c-0.3,0.4-0.9,0.9-2,0.9c-0.2,0-1,0-1.6-0.4c-0.1-0.1-0.2-0.1-0.4-0.3c-0.4-0.5-0.5-1-0.5-1.2
			l1-0.1c0,0.4,0,0.7,0.3,0.9c0.3,0.4,0.7,0.4,1.2,0.4c0.1,0,0.6,0,1-0.3c0.2-0.2,0.2-0.5,0.2-0.6c0-0.1,0-0.2-0.1-0.4
			c-0.2-0.3-0.7-0.4-1-0.5l-0.5-0.1c-0.7-0.1-1-0.2-1.3-0.4c-0.4-0.3-0.6-0.6-0.6-1.1c0-0.2,0-0.5,0.3-0.9c0.5-0.7,1.6-0.7,1.8-0.7
			c1.1,0,1.7,0.6,2,0.9c0.2,0.3,0.3,0.7,0.3,0.8l-1,0.1c0-0.3,0-0.4-0.1-0.5c-0.1-0.3-0.6-0.7-1.3-0.7c-0.7,0-1.1,0.4-1.1,0.8
			c0,0.1,0,0.2,0.1,0.3c0.2,0.3,0.6,0.4,1.2,0.6l0.5,0.1c0.2,0,0.3,0.1,0.5,0.1c0.7,0.2,1.3,0.6,1.3,1.4
			C195.6,116.9,195.6,117.3,195.4,117.6z"/>
		<path class="st9" d="M200.8,117.6c-0.3,0.4-0.9,0.9-2,0.9c-0.3,0-1.2,0-1.8-0.7c-0.3-0.3-0.8-1-0.8-2.1c0-0.7,0.2-1.4,0.6-1.9
			c0.5-0.7,1.2-0.9,2-0.9c0.4,0,0.7,0.1,1.1,0.2c0.6,0.3,1.5,1,1.5,2.6C201.5,116,201.4,116.9,200.8,117.6z M200.2,114.3
			c-0.1-0.1-0.2-0.3-0.3-0.4c-0.4-0.3-0.8-0.3-1-0.3c-1.7,0-1.7,1.9-1.7,2.2c0,0.3,0,0.5,0,0.5c0.1,0.4,0.3,1.5,1.6,1.5
			c0.2,0,0.9-0.1,1.3-0.7c0.3-0.5,0.4-1.3,0.4-1.4C200.5,115.5,200.5,114.8,200.2,114.3z"/>
		<path class="st9" d="M205.9,118.3v-3.4c0-0.2,0-0.7-0.4-1c-0.1-0.1-0.4-0.2-0.8-0.2c-0.4,0-0.7,0.1-1,0.4
			c-0.1,0.1-0.2,0.2-0.3,0.5c-0.1,0.2-0.1,0.5-0.1,0.7v3h-0.9V113h0.9v0.8c0.1-0.2,0.2-0.3,0.3-0.4c0.2-0.2,0.7-0.6,1.4-0.6
			c0.2,0,1,0.1,1.5,0.7c0.4,0.5,0.3,1,0.3,1.6v3.2H205.9z"/>
		<path class="st9" d="M212.3,118.4c0,0-0.4,0-0.6-0.1c-0.1-0.1-0.2-0.2-0.2-0.2c-0.1-0.2-0.2-0.3-0.2-0.5c-0.2,0.3-0.8,0.9-1.8,0.9
			c-0.4,0-0.6-0.1-0.7-0.1c-0.6-0.2-1.1-0.7-1.1-1.4c0-0.2,0.1-0.8,0.6-1.2c0.5-0.4,1.5-0.6,2.2-0.6l0.8-0.1c0-0.1,0-0.3,0-0.4
			c0-0.4-0.1-1.2-1.2-1.2c-0.2,0-0.9,0-1.1,0.6c-0.1,0.2-0.1,0.3-0.1,0.5l-0.9-0.1c0-0.1,0-0.3,0.1-0.5c0.2-0.5,0.7-1.2,2-1.2
			c0.2,0,0.5,0,0.8,0.1c0.2,0.1,0.9,0.3,1.2,1c0.1,0.3,0.1,0.6,0.1,1.1v1.7c0,0.1,0,0.2,0,0.4c0,0.1,0,0.4,0.4,0.4
			c0.1,0,0.2,0,0.3,0v0.8C212.6,118.4,212.4,118.4,212.3,118.4z M211.3,115.8v-0.1c-0.4,0.1-1.5,0.2-1.9,0.4
			c-0.2,0.1-0.7,0.3-0.7,0.8c0,0.4,0.3,0.8,1,0.8c0.5,0,1.6-0.2,1.6-1.6C211.3,116,211.3,115.9,211.3,115.8z"/>
		<path class="st9" d="M213.5,118.3v-8h0.9v8H213.5z"/>
		<path class="st9" d="M220,117.4c-0.3,0.4-0.9,1.1-2.1,1.1c-0.6,0-0.9-0.1-1.1-0.2c-0.7-0.3-1.5-1-1.5-2.7c0-1,0.3-1.5,0.6-1.9
			c0.5-0.6,1.2-0.9,2-0.9c0.3,0,0.6,0.1,0.8,0.1c0.3,0.1,1,0.4,1.3,1.3c0.1,0.4,0.3,0.8,0.3,1.6h-4c0,1,0.4,1.5,0.8,1.7
			c0.3,0.2,0.6,0.3,1,0.3c0.5,0,0.7-0.2,0.9-0.3c0.1,0,0.2-0.2,0.3-0.4c0.1-0.2,0.2-0.5,0.2-0.6l0.9,0.1
			C220.3,116.8,220.2,117.1,220,117.4z M219.3,114.6c-0.2-0.7-0.7-1.1-1.4-1.1c-1,0-1.4,0.8-1.5,1.6h3
			C219.4,114.9,219.3,114.8,219.3,114.6z"/>
		<path class="st9" d="M225.4,117.6c-0.3,0.4-0.9,0.9-2,0.9c-0.2,0-1,0-1.6-0.4c-0.1-0.1-0.2-0.1-0.4-0.3c-0.4-0.5-0.5-1-0.5-1.2
			l1-0.1c0,0.4,0,0.7,0.3,0.9c0.3,0.4,0.7,0.4,1.2,0.4c0.1,0,0.6,0,1-0.3c0.2-0.2,0.2-0.5,0.2-0.6c0-0.1,0-0.2-0.1-0.4
			c-0.2-0.3-0.7-0.4-1-0.5l-0.5-0.1c-0.7-0.1-1-0.2-1.3-0.4c-0.4-0.3-0.6-0.6-0.6-1.1c0-0.2,0-0.5,0.3-0.9c0.5-0.7,1.6-0.7,1.8-0.7
			c1.1,0,1.7,0.6,2,0.9c0.2,0.3,0.3,0.7,0.3,0.8l-1,0.1c0-0.3,0-0.4-0.1-0.5c-0.1-0.3-0.6-0.7-1.3-0.7c-0.7,0-1.1,0.4-1.1,0.8
			c0,0.1,0,0.2,0.1,0.3c0.2,0.3,0.6,0.4,1.2,0.6l0.5,0.1c0.2,0,0.3,0.1,0.5,0.1c0.7,0.2,1.3,0.6,1.3,1.4
			C225.6,116.9,225.6,117.3,225.4,117.6z"/>
	</g>
	<g>
		<path class="st9" d="M167.2,146.6l-0.9-2.4h-3l-0.9,2.4h-1.1l3-8h1.1l2.9,8H167.2z M164.9,140l-1.2,3.3h2.4L164.9,140z"/>
		<path class="st9" d="M173.1,145.9c-0.3,0.4-0.9,0.9-2,0.9c-0.2,0-1,0-1.6-0.4c-0.1-0.1-0.2-0.1-0.4-0.3c-0.4-0.5-0.5-1-0.5-1.2
			l1-0.1c0,0.4,0,0.7,0.3,0.9c0.3,0.4,0.7,0.4,1.2,0.4c0.1,0,0.6,0,1-0.3c0.2-0.2,0.2-0.5,0.2-0.6c0-0.1,0-0.2-0.1-0.4
			c-0.2-0.3-0.7-0.4-1-0.5l-0.5-0.1c-0.7-0.1-1-0.2-1.3-0.4c-0.4-0.3-0.6-0.6-0.6-1.1c0-0.2,0-0.5,0.3-0.9c0.5-0.7,1.6-0.7,1.8-0.7
			c1.1,0,1.7,0.6,2,0.9c0.2,0.3,0.3,0.7,0.3,0.8l-1,0.1c0-0.3,0-0.4-0.1-0.5c-0.1-0.3-0.6-0.7-1.3-0.7c-0.7,0-1.1,0.4-1.1,0.8
			c0,0.1,0,0.2,0.1,0.3c0.2,0.3,0.6,0.4,1.2,0.6l0.5,0.1c0.2,0,0.3,0.1,0.5,0.1c0.7,0.2,1.3,0.6,1.3,1.4
			C173.3,145.2,173.3,145.6,173.1,145.9z"/>
		<path class="st9" d="M174.2,139.7v-1h0.9v1H174.2z M174.2,146.6v-5.3h0.9v5.3H174.2z"/>
		<path class="st9" d="M180.4,145.9c-0.3,0.4-0.9,0.9-2,0.9c-0.2,0-1,0-1.6-0.4c-0.1-0.1-0.2-0.1-0.4-0.3c-0.4-0.5-0.5-1-0.5-1.2
			l1-0.1c0,0.4,0,0.7,0.3,0.9c0.3,0.4,0.7,0.4,1.2,0.4c0.1,0,0.6,0,1-0.3c0.2-0.2,0.2-0.5,0.2-0.6c0-0.1,0-0.2-0.1-0.4
			c-0.2-0.3-0.7-0.4-1-0.5l-0.5-0.1c-0.7-0.1-1-0.2-1.3-0.4c-0.4-0.3-0.6-0.6-0.6-1.1c0-0.2,0-0.5,0.3-0.9c0.5-0.7,1.6-0.7,1.8-0.7
			c1.1,0,1.7,0.6,2,0.9c0.2,0.3,0.3,0.7,0.3,0.8l-1,0.1c0-0.3,0-0.4-0.1-0.5c-0.1-0.3-0.6-0.7-1.3-0.7c-0.7,0-1.1,0.4-1.1,0.8
			c0,0.1,0,0.2,0.1,0.3c0.2,0.3,0.6,0.4,1.2,0.6l0.5,0.1c0.2,0,0.3,0.1,0.5,0.1c0.7,0.2,1.3,0.6,1.3,1.4
			C180.6,145.2,180.6,145.6,180.4,145.9z"/>
		<path class="st9" d="M182.8,146.7c-0.5,0-0.8-0.1-0.9-0.3c-0.1-0.2-0.1-0.4-0.1-0.9v-3.5h-0.9v-0.7h0.9v-1.7h0.9v1.7h1v0.7h-1v3.1
			c0,0.4,0,0.6,0.1,0.7c0.1,0.1,0.2,0.2,0.3,0.2c0.1,0,0.3,0,0.6-0.1v0.7C183.6,146.6,183.2,146.7,182.8,146.7z"/>
		<path class="st9" d="M189,145.7c-0.3,0.4-0.9,1.1-2.1,1.1c-0.6,0-0.9-0.1-1.1-0.2c-0.7-0.3-1.5-1-1.5-2.7c0-1,0.3-1.5,0.6-1.9
			c0.5-0.6,1.2-0.9,2-0.9c0.3,0,0.6,0.1,0.8,0.1c0.3,0.1,1,0.4,1.3,1.3c0.1,0.4,0.3,0.8,0.3,1.6h-4c0,1,0.4,1.5,0.8,1.7
			c0.3,0.2,0.6,0.3,1,0.3c0.5,0,0.7-0.2,0.9-0.3c0.1,0,0.2-0.2,0.3-0.4c0.1-0.2,0.2-0.5,0.2-0.6l0.9,0.1
			C189.3,145.1,189.2,145.4,189,145.7z M188.2,143c-0.2-0.7-0.7-1.1-1.4-1.1c-1,0-1.4,0.8-1.5,1.6h3
			C188.3,143.2,188.3,143.1,188.2,143z"/>
		<path class="st9" d="M193.8,146.6v-3.4c0-0.2,0-0.7-0.4-1c-0.1-0.1-0.4-0.2-0.8-0.2c-0.4,0-0.7,0.1-1,0.4
			c-0.1,0.1-0.2,0.2-0.3,0.5c-0.1,0.2-0.1,0.5-0.1,0.7v3h-0.9v-5.3h0.9v0.8c0.1-0.2,0.2-0.3,0.3-0.4c0.2-0.2,0.7-0.6,1.4-0.6
			c0.2,0,1,0.1,1.5,0.7c0.4,0.5,0.3,1,0.3,1.6v3.2H193.8z"/>
		<path class="st9" d="M199.9,146.3c-0.6,0.5-1.4,0.5-1.6,0.5c-0.2,0-0.6,0-1-0.2c-0.6-0.2-1.6-0.9-1.6-2.6c0-1.7,0.9-2.5,1.6-2.7
			c0.4-0.2,0.8-0.2,1-0.2c1.4,0,2.1,0.8,2.3,1.3c0.1,0.2,0.1,0.3,0.1,0.5l-1,0.1c0-0.1-0.1-0.4-0.2-0.6c-0.4-0.6-1-0.6-1.2-0.6
			c-0.8,0-1.6,0.5-1.6,2.2c0,0.9,0.3,1.5,0.6,1.8c0.3,0.3,0.7,0.4,1.1,0.4c0.2,0,0.5,0,0.7-0.1c0.6-0.3,0.7-0.8,0.8-1.3l1,0.1
			C200.6,145.6,200.2,146.1,199.9,146.3z"/>
		<path class="st9" d="M201.6,139.7v-1h0.9v1H201.6z M201.6,146.6v-5.3h0.9v5.3H201.6z"/>
		<path class="st9" d="M207.9,146.7c0,0-0.4,0-0.6-0.1c-0.1-0.1-0.2-0.2-0.2-0.2c-0.1-0.2-0.2-0.3-0.2-0.5c-0.2,0.3-0.8,0.9-1.8,0.9
			c-0.4,0-0.6-0.1-0.7-0.1c-0.6-0.2-1.1-0.7-1.1-1.4c0-0.2,0.1-0.8,0.6-1.2c0.5-0.4,1.5-0.6,2.2-0.6l0.8-0.1c0-0.1,0-0.3,0-0.4
			c0-0.4-0.1-1.2-1.2-1.2c-0.2,0-0.9,0-1.1,0.6c-0.1,0.2-0.1,0.3-0.1,0.5l-0.9-0.1c0-0.1,0-0.3,0.1-0.5c0.2-0.5,0.7-1.2,2-1.2
			c0.2,0,0.5,0,0.8,0.1c0.2,0.1,0.9,0.3,1.2,1c0.1,0.3,0.1,0.6,0.1,1.1v1.7c0,0.1,0,0.2,0,0.4c0,0.1,0,0.4,0.4,0.4
			c0.1,0,0.2,0,0.3,0v0.8C208.2,146.7,208,146.7,207.9,146.7z M206.9,144.1V144c-0.4,0.1-1.5,0.2-1.9,0.4c-0.2,0.1-0.7,0.3-0.7,0.8
			c0,0.4,0.3,0.8,1,0.8c0.5,0,1.6-0.2,1.6-1.6C206.9,144.3,206.9,144.2,206.9,144.1z"/>
		<path class="st9" d="M213.2,145.9c-0.3,0.4-0.9,0.9-2,0.9c-0.2,0-1,0-1.6-0.4c-0.1-0.1-0.2-0.1-0.4-0.3c-0.4-0.5-0.5-1-0.5-1.2
			l1-0.1c0,0.4,0,0.7,0.3,0.9c0.3,0.4,0.7,0.4,1.2,0.4c0.1,0,0.6,0,1-0.3c0.2-0.2,0.2-0.5,0.2-0.6c0-0.1,0-0.2-0.1-0.4
			c-0.2-0.3-0.7-0.4-1-0.5l-0.5-0.1c-0.7-0.1-1-0.2-1.3-0.4c-0.4-0.3-0.6-0.6-0.6-1.1c0-0.2,0-0.5,0.3-0.9c0.5-0.7,1.6-0.7,1.8-0.7
			c1.1,0,1.7,0.6,2,0.9c0.2,0.3,0.3,0.7,0.3,0.8l-1,0.1c0-0.3,0-0.4-0.1-0.5c-0.1-0.3-0.6-0.7-1.3-0.7c-0.7,0-1.1,0.4-1.1,0.8
			c0,0.1,0,0.2,0.1,0.3c0.2,0.3,0.6,0.4,1.2,0.6l0.5,0.1c0.2,0,0.3,0.1,0.5,0.1c0.7,0.2,1.3,0.6,1.3,1.4
			C213.5,145.2,213.4,145.6,213.2,145.9z"/>
		<path class="st9" d="M221.8,143.1c-0.3,0.1-0.6,0.1-1.2,0.1h-2.3v3.4h-1v-8h3.4c0.6,0,1.2,0,1.7,0.3c0.9,0.6,1,1.6,1,1.9
			C223.4,141.9,222.9,142.9,221.8,143.1z M222.3,140.3c-0.1-0.4-0.4-0.6-0.8-0.7c-0.2-0.1-0.4-0.1-0.6-0.1h-2.5v2.7h2.2
			c0.3,0,0.6,0,0.9-0.1c0.6-0.2,0.9-0.7,0.9-1.4C222.3,140.8,222.3,140.6,222.3,140.3z"/>
		<path class="st9" d="M224,146.6v-8h0.9v8H224z"/>
		<path class="st9" d="M230.3,146.7c0,0-0.4,0-0.6-0.1c-0.1-0.1-0.2-0.2-0.2-0.2c-0.1-0.2-0.2-0.3-0.2-0.5c-0.2,0.3-0.8,0.9-1.8,0.9
			c-0.4,0-0.6-0.1-0.7-0.1c-0.6-0.2-1.1-0.7-1.1-1.4c0-0.2,0.1-0.8,0.6-1.2c0.5-0.4,1.5-0.6,2.2-0.6l0.8-0.1c0-0.1,0-0.3,0-0.4
			c0-0.4-0.1-1.2-1.2-1.2c-0.2,0-0.9,0-1.1,0.6c-0.1,0.2-0.1,0.3-0.1,0.5l-0.9-0.1c0-0.1,0-0.3,0.1-0.5c0.2-0.5,0.7-1.2,2-1.2
			c0.2,0,0.5,0,0.8,0.1c0.2,0.1,0.9,0.3,1.2,1c0.1,0.3,0.1,0.6,0.1,1.1v1.7c0,0.1,0,0.2,0,0.4c0,0.1,0,0.4,0.4,0.4
			c0.1,0,0.2,0,0.3,0v0.8C230.6,146.7,230.5,146.7,230.3,146.7z M229.3,144.1V144c-0.4,0.1-1.5,0.2-1.9,0.4
			c-0.2,0.1-0.7,0.3-0.7,0.8c0,0.4,0.3,0.8,1,0.8c0.5,0,1.6-0.2,1.6-1.6C229.3,144.3,229.3,144.2,229.3,144.1z"/>
		<path class="st9" d="M232.9,146.7c-0.5,0-0.8-0.1-0.9-0.3c-0.1-0.2-0.1-0.4-0.1-0.9v-3.5H231v-0.7h0.9v-1.7h0.9v1.7h1v0.7h-1v3.1
			c0,0.4,0,0.6,0.1,0.7c0.1,0.1,0.2,0.2,0.3,0.2c0.1,0,0.3,0,0.6-0.1v0.7C233.7,146.6,233.3,146.7,232.9,146.7z"/>
		<path class="st9" d="M238.8,146.7c0,0-0.4,0-0.6-0.1c-0.1-0.1-0.2-0.2-0.2-0.2c-0.1-0.2-0.2-0.3-0.2-0.5c-0.2,0.3-0.8,0.9-1.8,0.9
			c-0.4,0-0.6-0.1-0.7-0.1c-0.6-0.2-1.1-0.7-1.1-1.4c0-0.2,0.1-0.8,0.6-1.2c0.5-0.4,1.5-0.6,2.2-0.6l0.8-0.1c0-0.1,0-0.3,0-0.4
			c0-0.4-0.1-1.2-1.2-1.2c-0.2,0-0.9,0-1.1,0.6c-0.1,0.2-0.1,0.3-0.1,0.5l-0.9-0.1c0-0.1,0-0.3,0.1-0.5c0.2-0.5,0.7-1.2,2-1.2
			c0.2,0,0.5,0,0.8,0.1c0.2,0.1,0.9,0.3,1.2,1c0.1,0.3,0.1,0.6,0.1,1.1v1.7c0,0.1,0,0.2,0,0.4c0,0.1,0,0.4,0.4,0.4
			c0.1,0,0.2,0,0.3,0v0.8C239.1,146.7,239,146.7,238.8,146.7z M237.8,144.1V144c-0.4,0.1-1.5,0.2-1.9,0.4c-0.2,0.1-0.7,0.3-0.7,0.8
			c0,0.4,0.3,0.8,1,0.8c0.5,0,1.6-0.2,1.6-1.6C237.8,144.3,237.8,144.2,237.8,144.1z"/>
	</g>
	<g>
		<path class="st9" d="M292.7,146.6l-0.9-2.4h-3l-0.9,2.4h-1.1l3-8h1.1l2.9,8H292.7z M290.3,140l-1.2,3.3h2.4L290.3,140z"/>
		<path class="st9" d="M298.5,145.9c-0.3,0.4-0.9,0.9-2,0.9c-0.2,0-1,0-1.6-0.4c-0.1-0.1-0.2-0.1-0.4-0.3c-0.4-0.5-0.5-1-0.5-1.2
			l1-0.1c0,0.4,0,0.7,0.3,0.9c0.3,0.4,0.7,0.4,1.2,0.4c0.1,0,0.6,0,1-0.3c0.2-0.2,0.2-0.5,0.2-0.6c0-0.1,0-0.2-0.1-0.4
			c-0.2-0.3-0.7-0.4-1-0.5l-0.5-0.1c-0.7-0.1-1-0.2-1.3-0.4c-0.4-0.3-0.6-0.6-0.6-1.1c0-0.2,0-0.5,0.3-0.9c0.5-0.7,1.6-0.7,1.8-0.7
			c1.1,0,1.7,0.6,2,0.9c0.2,0.3,0.3,0.7,0.3,0.8l-1,0.1c0-0.3,0-0.4-0.1-0.5c-0.1-0.3-0.6-0.7-1.3-0.7c-0.7,0-1.1,0.4-1.1,0.8
			c0,0.1,0,0.2,0.1,0.3c0.2,0.3,0.6,0.4,1.2,0.6l0.5,0.1c0.2,0,0.3,0.1,0.5,0.1c0.7,0.2,1.3,0.6,1.3,1.4
			C298.8,145.2,298.7,145.6,298.5,145.9z"/>
		<path class="st9" d="M299.7,139.7v-1h0.9v1H299.7z M299.7,146.6v-5.3h0.9v5.3H299.7z"/>
		<path class="st9" d="M305.8,145.9c-0.3,0.4-0.9,0.9-2,0.9c-0.2,0-1,0-1.6-0.4c-0.1-0.1-0.2-0.1-0.4-0.3c-0.4-0.5-0.5-1-0.5-1.2
			l1-0.1c0,0.4,0,0.7,0.3,0.9c0.3,0.4,0.7,0.4,1.2,0.4c0.1,0,0.6,0,1-0.3c0.2-0.2,0.2-0.5,0.2-0.6c0-0.1,0-0.2-0.1-0.4
			c-0.2-0.3-0.7-0.4-1-0.5l-0.5-0.1c-0.7-0.1-1-0.2-1.3-0.4c-0.4-0.3-0.6-0.6-0.6-1.1c0-0.2,0-0.5,0.3-0.9c0.5-0.7,1.6-0.7,1.8-0.7
			c1.1,0,1.7,0.6,2,0.9c0.2,0.3,0.3,0.7,0.3,0.8l-1,0.1c0-0.3,0-0.4-0.1-0.5c-0.1-0.3-0.6-0.7-1.3-0.7c-0.7,0-1.1,0.4-1.1,0.8
			c0,0.1,0,0.2,0.1,0.3c0.2,0.3,0.6,0.4,1.2,0.6l0.5,0.1c0.2,0,0.3,0.1,0.5,0.1c0.7,0.2,1.3,0.6,1.3,1.4
			C306.1,145.2,306.1,145.6,305.8,145.9z"/>
		<path class="st9" d="M308.3,146.7c-0.5,0-0.8-0.1-0.9-0.3c-0.1-0.2-0.1-0.4-0.1-0.9v-3.5h-0.9v-0.7h0.9v-1.7h0.9v1.7h1v0.7h-1v3.1
			c0,0.4,0,0.6,0.1,0.7c0.1,0.1,0.2,0.2,0.3,0.2c0.1,0,0.3,0,0.6-0.1v0.7C309.1,146.6,308.6,146.7,308.3,146.7z"/>
		<path class="st9" d="M314.4,145.7c-0.3,0.4-0.9,1.1-2.1,1.1c-0.6,0-0.9-0.1-1.1-0.2c-0.7-0.3-1.5-1-1.5-2.7c0-1,0.3-1.5,0.6-1.9
			c0.5-0.6,1.2-0.9,2-0.9c0.3,0,0.6,0.1,0.8,0.1c0.3,0.1,1,0.4,1.3,1.3c0.1,0.4,0.3,0.8,0.3,1.6h-4c0,1,0.4,1.5,0.8,1.7
			c0.3,0.2,0.6,0.3,1,0.3c0.5,0,0.7-0.2,0.9-0.3c0.1,0,0.2-0.2,0.3-0.4c0.1-0.2,0.2-0.5,0.2-0.6l0.9,0.1
			C314.7,145.1,314.6,145.4,314.4,145.7z M313.7,143c-0.2-0.7-0.7-1.1-1.4-1.1c-1,0-1.4,0.8-1.5,1.6h3
			C313.8,143.2,313.7,143.1,313.7,143z"/>
		<path class="st9" d="M319.2,146.6v-3.4c0-0.2,0-0.7-0.4-1c-0.1-0.1-0.4-0.2-0.8-0.2c-0.4,0-0.7,0.1-1,0.4
			c-0.1,0.1-0.2,0.2-0.3,0.5c-0.1,0.2-0.1,0.5-0.1,0.7v3h-0.9v-5.3h0.9v0.8c0.1-0.2,0.2-0.3,0.3-0.4c0.2-0.2,0.7-0.6,1.4-0.6
			c0.2,0,1,0.1,1.5,0.7c0.4,0.5,0.3,1,0.3,1.6v3.2H319.2z"/>
		<path class="st9" d="M325.3,146.3c-0.6,0.5-1.4,0.5-1.6,0.5c-0.2,0-0.6,0-1-0.2c-0.6-0.2-1.6-0.9-1.6-2.6c0-1.7,0.9-2.5,1.6-2.7
			c0.4-0.2,0.8-0.2,1-0.2c1.4,0,2.1,0.8,2.3,1.3c0.1,0.2,0.1,0.3,0.1,0.5l-1,0.1c0-0.1-0.1-0.4-0.2-0.6c-0.4-0.6-1-0.6-1.2-0.6
			c-0.8,0-1.6,0.5-1.6,2.2c0,0.9,0.3,1.5,0.6,1.8c0.3,0.3,0.7,0.4,1.1,0.4c0.2,0,0.5,0,0.7-0.1c0.6-0.3,0.7-0.8,0.8-1.3l1,0.1
			C326.1,145.6,325.6,146.1,325.3,146.3z"/>
		<path class="st9" d="M327.1,139.7v-1h0.9v1H327.1z M327.1,146.6v-5.3h0.9v5.3H327.1z"/>
		<path class="st9" d="M333.3,146.7c0,0-0.4,0-0.6-0.1c-0.1-0.1-0.2-0.2-0.2-0.2c-0.1-0.2-0.2-0.3-0.2-0.5c-0.2,0.3-0.8,0.9-1.8,0.9
			c-0.4,0-0.6-0.1-0.7-0.1c-0.6-0.2-1.1-0.7-1.1-1.4c0-0.2,0.1-0.8,0.6-1.2c0.5-0.4,1.5-0.6,2.2-0.6l0.8-0.1c0-0.1,0-0.3,0-0.4
			c0-0.4-0.1-1.2-1.2-1.2c-0.2,0-0.9,0-1.1,0.6c-0.1,0.2-0.1,0.3-0.1,0.5l-0.9-0.1c0-0.1,0-0.3,0.1-0.5c0.2-0.5,0.7-1.2,2-1.2
			c0.2,0,0.5,0,0.8,0.1c0.2,0.1,0.9,0.3,1.2,1c0.1,0.3,0.1,0.6,0.1,1.1v1.7c0,0.1,0,0.2,0,0.4c0,0.1,0,0.4,0.4,0.4
			c0.1,0,0.2,0,0.3,0v0.8C333.7,146.7,333.5,146.7,333.3,146.7z M332.3,144.1V144c-0.4,0.1-1.5,0.2-1.9,0.4
			c-0.2,0.1-0.7,0.3-0.7,0.8c0,0.4,0.3,0.8,1,0.8c0.5,0,1.6-0.2,1.6-1.6C332.4,144.3,332.3,144.2,332.3,144.1z"/>
		<path class="st9" d="M338.7,145.9c-0.3,0.4-0.9,0.9-2,0.9c-0.2,0-1,0-1.6-0.4c-0.1-0.1-0.2-0.1-0.4-0.3c-0.4-0.5-0.5-1-0.5-1.2
			l1-0.1c0,0.4,0,0.7,0.3,0.9c0.3,0.4,0.7,0.4,1.2,0.4c0.1,0,0.6,0,1-0.3c0.2-0.2,0.2-0.5,0.2-0.6c0-0.1,0-0.2-0.1-0.4
			c-0.2-0.3-0.7-0.4-1-0.5l-0.5-0.1c-0.7-0.1-1-0.2-1.3-0.4c-0.4-0.3-0.6-0.6-0.6-1.1c0-0.2,0-0.5,0.3-0.9c0.5-0.7,1.6-0.7,1.8-0.7
			c1.1,0,1.7,0.6,2,0.9c0.2,0.3,0.3,0.7,0.3,0.8l-1,0.1c0-0.3,0-0.4-0.1-0.5c-0.1-0.3-0.6-0.7-1.3-0.7c-0.7,0-1.1,0.4-1.1,0.8
			c0,0.1,0,0.2,0.1,0.3c0.2,0.3,0.6,0.4,1.2,0.6l0.5,0.1c0.2,0,0.3,0.1,0.5,0.1c0.7,0.2,1.3,0.6,1.3,1.4
			C338.9,145.2,338.9,145.6,338.7,145.9z"/>
		<path class="st9" d="M349.7,145.4c-0.4,0.6-1.4,1.5-3.2,1.5c-0.5,0-1.7-0.1-2.7-1c-0.5-0.5-1.2-1.5-1.2-3.2c0-0.5,0-1.8,1-2.9
			c0.8-0.8,1.9-1.3,3-1.3c0.5,0,1.1,0.1,1.6,0.3c1.7,0.6,2.4,2.1,2.4,3.8C350.5,143,350.5,144.3,349.7,145.4z M348.7,140.4
			c-0.7-1-1.8-1.1-2.2-1.1c-1.3,0-2,0.7-2.3,1.1c-0.4,0.6-0.6,1.5-0.6,2.2c0,1.1,0.3,1.8,0.5,2.1c0.2,0.3,0.4,0.5,0.5,0.6
			c0.3,0.3,0.6,0.4,0.8,0.5c0.2,0.1,0.5,0.2,1.1,0.2c0.2,0,0.7,0,1.2-0.2c0.8-0.3,1.6-1.3,1.6-3.2
			C349.4,142.3,349.4,141.2,348.7,140.4z"/>
		<path class="st9" d="M353.6,142.2c-0.5,0.1-0.9,0.5-1.1,1c-0.1,0.3-0.1,0.5-0.1,1v2.5h-0.9v-5.3h0.9v1c0.1-0.2,0.3-0.4,0.5-0.6
			c0.2-0.2,0.6-0.4,1.3-0.4v1C354,142.2,353.8,142.2,353.6,142.2z"/>
		<path class="st9" d="M359.2,145.9c-0.3,0.4-0.9,0.9-2,0.9c-0.3,0-1.2,0-1.8-0.7c-0.3-0.3-0.8-1-0.8-2.1c0-0.7,0.2-1.4,0.6-1.9
			c0.5-0.7,1.2-0.9,2-0.9c0.4,0,0.7,0.1,1.1,0.2c0.6,0.3,1.5,1,1.5,2.6C359.8,144.3,359.8,145.2,359.2,145.9z M358.6,142.6
			c-0.1-0.1-0.2-0.3-0.3-0.4c-0.4-0.3-0.8-0.3-1-0.3c-1.7,0-1.7,1.9-1.7,2.2c0,0.3,0,0.5,0,0.5c0.1,0.4,0.3,1.5,1.6,1.5
			c0.2,0,0.9-0.1,1.3-0.7c0.3-0.5,0.4-1.3,0.4-1.4C358.9,143.8,358.9,143.1,358.6,142.6z"/>
	</g>
	<g>
		<path class="st9" d="M52.5,176.6c-0.3,0.1-0.6,0.1-1.2,0.1H49v3.4h-1v-8h3.4c0.6,0,1.2,0,1.7,0.3c0.9,0.6,0.9,1.6,0.9,1.9
			C54,175.4,53.5,176.4,52.5,176.6z M52.9,173.8c-0.1-0.4-0.4-0.6-0.8-0.7c-0.2-0.1-0.4-0.1-0.6-0.1H49v2.7h2.2c0.3,0,0.6,0,0.9-0.1
			c0.6-0.2,0.9-0.7,0.9-1.4C53,174.3,53,174.1,52.9,173.8z"/>
		<path class="st9" d="M58.8,180.2c0,0-0.4,0-0.6-0.1c-0.1-0.1-0.2-0.2-0.2-0.2c-0.1-0.2-0.2-0.3-0.2-0.5c-0.2,0.3-0.8,0.9-1.8,0.9
			c-0.4,0-0.6-0.1-0.7-0.1c-0.6-0.2-1.1-0.7-1.1-1.4c0-0.2,0.1-0.8,0.6-1.2c0.5-0.4,1.5-0.6,2.2-0.6l0.8-0.1c0-0.1,0-0.3,0-0.4
			c0-0.4-0.1-1.2-1.2-1.2c-0.2,0-0.9,0-1.1,0.6c-0.1,0.2-0.1,0.3-0.1,0.5l-0.9-0.1c0-0.1,0-0.3,0.1-0.5c0.2-0.5,0.7-1.2,2-1.2
			c0.2,0,0.5,0,0.8,0.1c0.2,0.1,0.9,0.3,1.2,1c0.1,0.3,0.1,0.6,0.1,1.1v1.7c0,0.1,0,0.2,0,0.4c0,0.1,0,0.4,0.4,0.4
			c0.1,0,0.2,0,0.3,0v0.8C59.1,180.2,59,180.2,58.8,180.2z M57.8,177.6v-0.1c-0.4,0.1-1.5,0.2-1.9,0.4c-0.2,0.1-0.7,0.3-0.7,0.8
			c0,0.4,0.3,0.8,1,0.8c0.5,0,1.6-0.2,1.6-1.6C57.8,177.8,57.8,177.7,57.8,177.6z"/>
		<path class="st9" d="M62.1,175.7c-0.5,0.1-0.9,0.5-1.1,1c-0.1,0.3-0.1,0.5-0.1,1v2.5h-0.9v-5.3H61v1c0.1-0.2,0.3-0.4,0.5-0.6
			c0.2-0.2,0.6-0.4,1.3-0.4v1C62.5,175.7,62.3,175.7,62.1,175.7z"/>
		<path class="st9" d="M67.6,180.2c0,0-0.4,0-0.6-0.1c-0.1-0.1-0.2-0.2-0.2-0.2c-0.1-0.2-0.2-0.3-0.2-0.5c-0.2,0.3-0.8,0.9-1.8,0.9
			c-0.4,0-0.6-0.1-0.7-0.1c-0.6-0.2-1.1-0.7-1.1-1.4c0-0.2,0.1-0.8,0.6-1.2c0.5-0.4,1.5-0.6,2.2-0.6l0.8-0.1c0-0.1,0-0.3,0-0.4
			c0-0.4-0.1-1.2-1.2-1.2c-0.2,0-0.9,0-1.1,0.6c-0.1,0.2-0.1,0.3-0.1,0.5l-0.9-0.1c0-0.1,0-0.3,0.1-0.5c0.2-0.5,0.7-1.2,2-1.2
			c0.2,0,0.5,0,0.8,0.1c0.2,0.1,0.9,0.3,1.2,1c0.1,0.3,0.1,0.6,0.1,1.1v1.7c0,0.1,0,0.2,0,0.4c0,0.1,0,0.4,0.4,0.4
			c0.1,0,0.2,0,0.3,0v0.8C67.9,180.2,67.7,180.2,67.6,180.2z M66.6,177.6v-0.1c-0.4,0.1-1.5,0.2-1.9,0.4c-0.2,0.1-0.7,0.3-0.7,0.8
			c0,0.4,0.3,0.8,1,0.8c0.5,0,1.6-0.2,1.6-1.6C66.6,177.8,66.6,177.7,66.6,177.6z"/>
		<path class="st9" d="M75.2,180.1v-2.8c0-0.4,0-0.8-0.1-1.2c-0.2-0.5-0.6-0.7-1.1-0.7c-0.2,0-0.8,0.1-1.2,0.7
			c-0.3,0.5-0.2,1-0.2,1.4v2.6h-0.9v-8h0.9l0,3.2c0.6-0.7,1.2-0.7,1.6-0.7c0.7,0,1.1,0.2,1.4,0.5c0,0,0.1,0.1,0.2,0.3
			c0.4,0.5,0.3,1.1,0.3,1.7v3.1H75.2z"/>
		<path class="st9" d="M81.5,180.2c0,0-0.4,0-0.6-0.1c-0.1-0.1-0.2-0.2-0.2-0.2c-0.1-0.2-0.2-0.3-0.2-0.5c-0.2,0.3-0.8,0.9-1.8,0.9
			c-0.4,0-0.6-0.1-0.7-0.1c-0.6-0.2-1.1-0.7-1.1-1.4c0-0.2,0.1-0.8,0.6-1.2c0.5-0.4,1.5-0.6,2.2-0.6l0.8-0.1c0-0.1,0-0.3,0-0.4
			c0-0.4-0.1-1.2-1.2-1.2c-0.2,0-0.9,0-1.1,0.6c-0.1,0.2-0.1,0.3-0.1,0.5l-0.9-0.1c0-0.1,0-0.3,0.1-0.5c0.2-0.5,0.7-1.2,2-1.2
			c0.2,0,0.5,0,0.8,0.1c0.2,0.1,0.9,0.3,1.2,1c0.1,0.3,0.1,0.6,0.1,1.1v1.7c0,0.1,0,0.2,0,0.4c0,0.1,0,0.4,0.4,0.4
			c0.1,0,0.2,0,0.3,0v0.8C81.8,180.2,81.7,180.2,81.5,180.2z M80.5,177.6v-0.1c-0.4,0.1-1.5,0.2-1.9,0.4c-0.2,0.1-0.7,0.3-0.7,0.8
			c0,0.4,0.3,0.8,1,0.8c0.5,0,1.6-0.2,1.6-1.6C80.5,177.8,80.5,177.7,80.5,177.6z"/>
		<path class="st9" d="M86.9,179.4c-0.3,0.4-0.9,0.9-2,0.9c-0.2,0-1,0-1.6-0.4c-0.1-0.1-0.2-0.1-0.4-0.3c-0.4-0.5-0.5-1-0.5-1.2
			l1-0.1c0,0.4,0,0.7,0.3,0.9c0.3,0.4,0.7,0.4,1.2,0.4c0.1,0,0.6,0,1-0.3c0.2-0.2,0.2-0.5,0.2-0.6c0-0.1,0-0.2-0.1-0.4
			c-0.2-0.3-0.7-0.4-1-0.5l-0.5-0.1c-0.7-0.1-1-0.2-1.3-0.4c-0.4-0.3-0.6-0.6-0.6-1.1c0-0.2,0-0.5,0.3-0.9c0.5-0.7,1.6-0.7,1.8-0.7
			c1.1,0,1.7,0.6,2,0.9c0.2,0.3,0.3,0.7,0.3,0.8l-1,0.1c0-0.3,0-0.4-0.1-0.5c-0.1-0.3-0.6-0.7-1.3-0.7c-0.7,0-1.1,0.4-1.1,0.8
			c0,0.1,0,0.2,0.1,0.3c0.2,0.3,0.6,0.4,1.2,0.6l0.5,0.1c0.2,0,0.3,0.1,0.5,0.1c0.7,0.2,1.3,0.6,1.3,1.4
			C87.1,178.7,87.1,179.1,86.9,179.4z"/>
		<path class="st9" d="M89.3,180.2c-0.5,0-0.8-0.1-0.9-0.3c-0.1-0.2-0.1-0.4-0.1-0.9v-3.5h-0.9v-0.7h0.9v-1.7h0.9v1.7h1v0.7h-1v3.1
			c0,0.4,0,0.6,0.1,0.7c0.1,0.1,0.2,0.2,0.3,0.2c0.1,0,0.3,0,0.6-0.1v0.7C90.1,180.1,89.6,180.2,89.3,180.2z"/>
		<path class="st9" d="M95.2,180.2c0,0-0.4,0-0.6-0.1c-0.1-0.1-0.2-0.2-0.2-0.2c-0.1-0.2-0.2-0.3-0.2-0.5c-0.2,0.3-0.8,0.9-1.8,0.9
			c-0.4,0-0.6-0.1-0.7-0.1c-0.6-0.2-1.1-0.7-1.1-1.4c0-0.2,0.1-0.8,0.6-1.2c0.5-0.4,1.5-0.6,2.2-0.6l0.8-0.1c0-0.1,0-0.3,0-0.4
			c0-0.4-0.1-1.2-1.2-1.2c-0.2,0-0.9,0-1.1,0.6c-0.1,0.2-0.1,0.3-0.1,0.5l-0.9-0.1c0-0.1,0-0.3,0.1-0.5c0.2-0.5,0.7-1.2,2-1.2
			c0.2,0,0.5,0,0.8,0.1c0.2,0.1,0.9,0.3,1.2,1c0.1,0.3,0.1,0.6,0.1,1.1v1.7c0,0.1,0,0.2,0,0.4c0,0.1,0,0.4,0.4,0.4
			c0.1,0,0.2,0,0.3,0v0.8C95.5,180.2,95.4,180.2,95.2,180.2z M94.2,177.6v-0.1c-0.4,0.1-1.5,0.2-1.9,0.4c-0.2,0.1-0.7,0.3-0.7,0.8
			c0,0.4,0.3,0.8,1,0.8c0.5,0,1.6-0.2,1.6-1.6C94.2,177.8,94.2,177.7,94.2,177.6z"/>
		<path class="st9" d="M40.1,190.4v1.8h-1v-1.8h-3.4v-0.9l3.6-4.9h0.8v4.9h1.1v0.9H40.1z M36.7,189.5h2.4l0-3.4L36.7,189.5z"/>
		<path class="st9" d="M49.1,191.9c-0.6,0.5-1.4,0.5-1.6,0.5c-0.2,0-0.6,0-1-0.2c-0.6-0.2-1.6-0.9-1.6-2.6c0-1.7,0.9-2.5,1.6-2.7
			c0.4-0.2,0.8-0.2,1-0.2c1.4,0,2.1,0.8,2.3,1.3c0.1,0.2,0.1,0.3,0.1,0.5l-1,0.1c0-0.1-0.1-0.4-0.2-0.6c-0.4-0.6-1-0.6-1.2-0.6
			c-0.8,0-1.6,0.5-1.6,2.2c0,0.9,0.3,1.5,0.6,1.8c0.3,0.3,0.7,0.4,1.1,0.4c0.2,0,0.5,0,0.7-0.1c0.6-0.3,0.7-0.8,0.8-1.3l1,0.1
			C49.8,191.2,49.3,191.7,49.1,191.9z"/>
		<path class="st9" d="M55.1,191.5c-0.3,0.4-0.9,0.9-2,0.9c-0.3,0-1.2,0-1.8-0.7c-0.3-0.3-0.8-1-0.8-2.1c0-0.7,0.2-1.4,0.6-1.9
			c0.5-0.7,1.2-0.9,2-0.9c0.4,0,0.7,0.1,1.1,0.2c0.6,0.3,1.5,1,1.5,2.6C55.7,189.8,55.7,190.7,55.1,191.5z M54.5,188.2
			c-0.1-0.1-0.2-0.3-0.3-0.4c-0.4-0.3-0.8-0.3-1-0.3c-1.7,0-1.7,1.9-1.7,2.2c0,0.3,0,0.5,0,0.5c0.1,0.4,0.3,1.5,1.6,1.5
			c0.2,0,0.9-0.1,1.3-0.7c0.3-0.5,0.4-1.3,0.4-1.4C54.7,189.4,54.7,188.7,54.5,188.2z"/>
		<path class="st9" d="M56.7,192.2v-8h0.9v8H56.7z"/>
		<path class="st9" d="M63,192.3c0,0-0.4,0-0.6-0.1c-0.1-0.1-0.2-0.2-0.2-0.2c-0.1-0.2-0.2-0.3-0.2-0.5c-0.2,0.3-0.8,0.9-1.8,0.9
			c-0.4,0-0.6-0.1-0.7-0.1c-0.6-0.2-1.1-0.7-1.1-1.4c0-0.2,0.1-0.8,0.6-1.2c0.5-0.4,1.5-0.6,2.2-0.6L62,189c0-0.1,0-0.3,0-0.4
			c0-0.4-0.1-1.2-1.2-1.2c-0.2,0-0.9,0-1.1,0.6c-0.1,0.2-0.1,0.3-0.1,0.5l-0.9-0.1c0-0.1,0-0.3,0.1-0.5c0.2-0.5,0.7-1.2,2-1.2
			c0.2,0,0.5,0,0.8,0.1c0.2,0.1,0.9,0.3,1.2,1c0.1,0.3,0.1,0.6,0.1,1.1v1.7c0,0.1,0,0.2,0,0.4c0,0.1,0,0.4,0.4,0.4
			c0.1,0,0.2,0,0.3,0v0.8C63.3,192.3,63.1,192.3,63,192.3z M62,189.7v-0.1c-0.4,0.1-1.5,0.2-1.9,0.4c-0.2,0.1-0.7,0.3-0.7,0.8
			c0,0.4,0.3,0.8,1,0.8c0.5,0,1.6-0.2,1.6-1.6C62,189.9,62,189.8,62,189.7z"/>
		<path class="st9" d="M68.8,191.5c-0.3,0.4-0.7,0.6-0.8,0.7c-0.2,0.1-0.5,0.2-1.1,0.2c-0.6,0-1-0.2-1.2-0.3
			c-0.2-0.1-0.4-0.3-0.6-0.5v0.7h-0.9v-8h0.9v3.4c0-0.1,0.1-0.2,0.2-0.3c0.4-0.4,1-0.6,1.6-0.6c0.4,0,1.2,0.1,1.8,0.8
			c0.3,0.4,0.7,1,0.7,2C69.4,189.8,69.4,190.7,68.8,191.5z M68.2,188.4c-0.2-0.3-0.6-0.8-1.4-0.8c-0.6,0-1,0.3-1.2,0.5
			c-0.3,0.3-0.5,0.7-0.5,1.5c0,0.6,0.1,0.9,0.2,1.2c0.1,0.3,0.6,0.9,1.4,0.9c0.3,0,0.6-0.1,0.9-0.2c0.4-0.2,0.8-0.8,0.8-1.9
			C68.5,189.3,68.5,188.8,68.2,188.4z"/>
		<path class="st9" d="M74.7,191.5c-0.3,0.4-0.9,0.9-2,0.9c-0.3,0-1.2,0-1.8-0.7c-0.3-0.3-0.8-1-0.8-2.1c0-0.7,0.2-1.4,0.6-1.9
			c0.5-0.7,1.2-0.9,2-0.9c0.4,0,0.7,0.1,1.1,0.2c0.6,0.3,1.5,1,1.5,2.6C75.3,189.8,75.3,190.7,74.7,191.5z M74.1,188.2
			c-0.1-0.1-0.2-0.3-0.3-0.4c-0.4-0.3-0.8-0.3-1-0.3c-1.7,0-1.7,1.9-1.7,2.2c0,0.3,0,0.5,0,0.5c0.1,0.4,0.3,1.5,1.6,1.5
			c0.2,0,0.9-0.1,1.3-0.7c0.3-0.5,0.4-1.3,0.4-1.4C74.3,189.4,74.3,188.7,74.1,188.2z"/>
		<path class="st9" d="M78.3,187.8c-0.5,0.1-0.9,0.5-1.1,1c-0.1,0.3-0.1,0.5-0.1,1v2.5h-0.9v-5.3h0.9v1c0.1-0.2,0.3-0.4,0.5-0.6
			c0.2-0.2,0.6-0.4,1.3-0.4v1C78.7,187.7,78.5,187.8,78.3,187.8z"/>
		<path class="st9" d="M83.8,192.3c0,0-0.4,0-0.6-0.1c-0.1-0.1-0.2-0.2-0.2-0.2c-0.1-0.2-0.2-0.3-0.2-0.5c-0.2,0.3-0.8,0.9-1.8,0.9
			c-0.4,0-0.6-0.1-0.7-0.1c-0.6-0.2-1.1-0.7-1.1-1.4c0-0.2,0.1-0.8,0.6-1.2c0.5-0.4,1.5-0.6,2.2-0.6l0.8-0.1c0-0.1,0-0.3,0-0.4
			c0-0.4-0.1-1.2-1.2-1.2c-0.2,0-0.9,0-1.1,0.6c-0.1,0.2-0.1,0.3-0.1,0.5l-0.9-0.1c0-0.1,0-0.3,0.1-0.5c0.2-0.5,0.7-1.2,2-1.2
			c0.2,0,0.5,0,0.8,0.1c0.2,0.1,0.9,0.3,1.2,1c0.1,0.3,0.1,0.6,0.1,1.1v1.7c0,0.1,0,0.2,0,0.4c0,0.1,0,0.4,0.4,0.4
			c0.1,0,0.2,0,0.3,0v0.8C84.1,192.3,83.9,192.3,83.8,192.3z M82.8,189.7v-0.1c-0.4,0.1-1.5,0.2-1.9,0.4c-0.2,0.1-0.7,0.3-0.7,0.8
			c0,0.4,0.3,0.8,1,0.8c0.5,0,1.6-0.2,1.6-1.6C82.8,189.9,82.8,189.8,82.8,189.7z"/>
		<path class="st9" d="M89,192.2v-0.7c-0.3,0.3-0.8,0.8-1.8,0.8c-1,0-1.5-0.5-1.8-0.8c-0.3-0.4-0.7-1-0.7-2c0-0.7,0.1-1.3,0.5-1.9
			c0.2-0.3,0.8-1,1.9-1c0.8,0,1.3,0.4,1.5,0.5c0.1,0.1,0.2,0.2,0.3,0.3v-3.4h0.9v8H89z M89,188.8c-0.2-0.8-0.8-1.3-1.6-1.3
			c-0.2,0-0.8,0-1.2,0.6c-0.4,0.4-0.5,0.9-0.5,1.5c0,0.2,0,0.9,0.4,1.4c0.4,0.6,1,0.6,1.3,0.6c0.3,0,0.6-0.1,0.9-0.2
			c0.4-0.2,0.8-0.8,0.8-1.8C89,189.4,89,189.1,89,188.8z"/>
		<path class="st9" d="M95.5,191.5c-0.3,0.4-0.9,0.9-2,0.9c-0.3,0-1.2,0-1.8-0.7c-0.3-0.3-0.8-1-0.8-2.1c0-0.7,0.2-1.4,0.6-1.9
			c0.5-0.7,1.2-0.9,2-0.9c0.4,0,0.7,0.1,1.1,0.2c0.6,0.3,1.5,1,1.5,2.6C96.1,189.8,96.1,190.7,95.5,191.5z M94.8,188.2
			c-0.1-0.1-0.2-0.3-0.3-0.4c-0.4-0.3-0.8-0.3-1-0.3c-1.7,0-1.7,1.9-1.7,2.2c0,0.3,0,0.5,0,0.5c0.1,0.4,0.3,1.5,1.6,1.5
			c0.2,0,0.9-0.1,1.3-0.7c0.3-0.5,0.4-1.3,0.4-1.4C95.1,189.4,95.1,188.7,94.8,188.2z"/>
		<path class="st9" d="M99.1,187.8c-0.5,0.1-0.9,0.5-1.1,1c-0.1,0.3-0.1,0.5-0.1,1v2.5h-0.9v-5.3H98v1c0.1-0.2,0.3-0.4,0.5-0.6
			c0.2-0.2,0.6-0.4,1.3-0.4v1C99.5,187.7,99.3,187.8,99.1,187.8z"/>
		<path class="st9" d="M104.7,191.3c-0.3,0.4-0.9,1.1-2.1,1.1c-0.6,0-0.9-0.1-1.1-0.2c-0.7-0.3-1.5-1-1.5-2.7c0-1,0.3-1.5,0.6-1.9
			c0.5-0.6,1.2-0.9,2-0.9c0.3,0,0.6,0.1,0.8,0.1c0.3,0.1,1,0.4,1.3,1.3c0.1,0.4,0.3,0.8,0.3,1.6h-4c0,1,0.4,1.5,0.8,1.7
			c0.3,0.2,0.6,0.3,1,0.3c0.5,0,0.7-0.2,0.9-0.3c0.1,0,0.2-0.2,0.3-0.4c0.1-0.2,0.2-0.5,0.2-0.6l0.9,0.1
			C105.1,190.7,104.9,191,104.7,191.3z M104,188.5c-0.2-0.7-0.7-1.1-1.4-1.1c-1,0-1.4,0.8-1.5,1.6h3
			C104.1,188.8,104.1,188.7,104,188.5z"/>
		<path class="st9" d="M110.1,191.5c-0.3,0.4-0.9,0.9-2,0.9c-0.2,0-1,0-1.6-0.4c-0.1-0.1-0.2-0.1-0.4-0.3c-0.4-0.5-0.5-1-0.5-1.2
			l1-0.1c0,0.4,0,0.7,0.3,0.9c0.3,0.4,0.7,0.4,1.2,0.4c0.1,0,0.6,0,1-0.3c0.2-0.2,0.2-0.5,0.2-0.6c0-0.1,0-0.2-0.1-0.4
			c-0.2-0.3-0.7-0.4-1-0.5l-0.5-0.1c-0.7-0.1-1-0.2-1.3-0.4c-0.4-0.3-0.6-0.6-0.6-1.1c0-0.2,0-0.5,0.3-0.9c0.5-0.7,1.6-0.7,1.8-0.7
			c1.1,0,1.7,0.6,2,0.9c0.2,0.3,0.3,0.7,0.3,0.8l-1,0.1c0-0.3,0-0.4-0.1-0.5c-0.1-0.3-0.6-0.7-1.3-0.7c-0.7,0-1.1,0.4-1.1,0.8
			c0,0.1,0,0.2,0.1,0.3c0.2,0.3,0.6,0.4,1.2,0.6l0.5,0.1c0.2,0,0.3,0.1,0.5,0.1c0.7,0.2,1.3,0.6,1.3,1.4
			C110.4,190.8,110.3,191.2,110.1,191.5z"/>
	</g>
	<g>
		<path class="st9" d="M180.8,176.6c-0.3,0.1-0.6,0.1-1.2,0.1h-2.3v3.4h-1v-8h3.4c0.6,0,1.2,0,1.7,0.3c0.9,0.6,0.9,1.6,0.9,1.9
			C182.3,175.4,181.8,176.4,180.8,176.6z M181.2,173.8c-0.1-0.4-0.4-0.6-0.8-0.7c-0.2-0.1-0.4-0.1-0.6-0.1h-2.5v2.7h2.2
			c0.3,0,0.6,0,0.9-0.1c0.6-0.2,0.9-0.7,0.9-1.4C181.3,174.3,181.3,174.1,181.2,173.8z"/>
		<path class="st9" d="M187.1,180.2c0,0-0.4,0-0.6-0.1c-0.1-0.1-0.2-0.2-0.2-0.2c-0.1-0.2-0.2-0.3-0.2-0.5c-0.2,0.3-0.8,0.9-1.8,0.9
			c-0.4,0-0.6-0.1-0.7-0.1c-0.6-0.2-1.1-0.7-1.1-1.4c0-0.2,0.1-0.8,0.6-1.2c0.5-0.4,1.5-0.6,2.2-0.6l0.8-0.1c0-0.1,0-0.3,0-0.4
			c0-0.4-0.1-1.2-1.2-1.2c-0.2,0-0.9,0-1.1,0.6c-0.1,0.2-0.1,0.3-0.1,0.5l-0.9-0.1c0-0.1,0-0.3,0.1-0.5c0.2-0.5,0.7-1.2,2-1.2
			c0.2,0,0.5,0,0.8,0.1c0.2,0.1,0.9,0.3,1.2,1c0.1,0.3,0.1,0.6,0.1,1.1v1.7c0,0.1,0,0.2,0,0.4c0,0.1,0,0.4,0.4,0.4
			c0.1,0,0.2,0,0.3,0v0.8C187.4,180.2,187.3,180.2,187.1,180.2z M186.1,177.6v-0.1c-0.4,0.1-1.5,0.2-1.9,0.4
			c-0.2,0.1-0.7,0.3-0.7,0.8c0,0.4,0.3,0.8,1,0.8c0.5,0,1.6-0.2,1.6-1.6C186.1,177.8,186.1,177.7,186.1,177.6z"/>
		<path class="st9" d="M190.4,175.7c-0.5,0.1-0.9,0.5-1.1,1c-0.1,0.3-0.1,0.5-0.1,1v2.5h-0.9v-5.3h0.9v1c0.1-0.2,0.3-0.4,0.5-0.6
			c0.2-0.2,0.6-0.4,1.3-0.4v1C190.8,175.7,190.6,175.7,190.4,175.7z"/>
		<path class="st9" d="M195.9,180.2c0,0-0.4,0-0.6-0.1c-0.1-0.1-0.2-0.2-0.2-0.2c-0.1-0.2-0.2-0.3-0.2-0.5c-0.2,0.3-0.8,0.9-1.8,0.9
			c-0.4,0-0.6-0.1-0.7-0.1c-0.6-0.2-1.1-0.7-1.1-1.4c0-0.2,0.1-0.8,0.6-1.2c0.5-0.4,1.5-0.6,2.2-0.6l0.8-0.1c0-0.1,0-0.3,0-0.4
			c0-0.4-0.1-1.2-1.2-1.2c-0.2,0-0.9,0-1.1,0.6c-0.1,0.2-0.1,0.3-0.1,0.5l-0.9-0.1c0-0.1,0-0.3,0.1-0.5c0.2-0.5,0.7-1.2,2-1.2
			c0.2,0,0.5,0,0.8,0.1c0.2,0.1,0.9,0.3,1.2,1c0.1,0.3,0.1,0.6,0.1,1.1v1.7c0,0.1,0,0.2,0,0.4c0,0.1,0,0.4,0.4,0.4
			c0.1,0,0.2,0,0.3,0v0.8C196.2,180.2,196,180.2,195.9,180.2z M194.9,177.6v-0.1c-0.4,0.1-1.5,0.2-1.9,0.4c-0.2,0.1-0.7,0.3-0.7,0.8
			c0,0.4,0.3,0.8,1,0.8c0.5,0,1.6-0.2,1.6-1.6C194.9,177.8,194.9,177.7,194.9,177.6z"/>
		<path class="st9" d="M203.5,180.1v-2.8c0-0.4,0-0.8-0.1-1.2c-0.2-0.5-0.6-0.7-1.1-0.7c-0.2,0-0.8,0.1-1.2,0.7
			c-0.3,0.5-0.2,1-0.2,1.4v2.6H200v-8h0.9l0,3.2c0.6-0.7,1.2-0.7,1.6-0.7c0.7,0,1.1,0.2,1.4,0.5c0,0,0.1,0.1,0.2,0.3
			c0.4,0.5,0.3,1.1,0.3,1.7v3.1H203.5z"/>
		<path class="st9" d="M209.8,180.2c0,0-0.4,0-0.6-0.1c-0.1-0.1-0.2-0.2-0.2-0.2c-0.1-0.2-0.2-0.3-0.2-0.5c-0.2,0.3-0.8,0.9-1.8,0.9
			c-0.4,0-0.6-0.1-0.7-0.1c-0.6-0.2-1.1-0.7-1.1-1.4c0-0.2,0.1-0.8,0.6-1.2c0.5-0.4,1.5-0.6,2.2-0.6l0.8-0.1c0-0.1,0-0.3,0-0.4
			c0-0.4-0.1-1.2-1.2-1.2c-0.2,0-0.9,0-1.1,0.6c-0.1,0.2-0.1,0.3-0.1,0.5l-0.9-0.1c0-0.1,0-0.3,0.1-0.5c0.2-0.5,0.7-1.2,2-1.2
			c0.2,0,0.5,0,0.8,0.1c0.2,0.1,0.9,0.3,1.2,1c0.1,0.3,0.1,0.6,0.1,1.1v1.7c0,0.1,0,0.2,0,0.4c0,0.1,0,0.4,0.4,0.4
			c0.1,0,0.2,0,0.3,0v0.8C210.1,180.2,210,180.2,209.8,180.2z M208.8,177.6v-0.1c-0.4,0.1-1.5,0.2-1.9,0.4c-0.2,0.1-0.7,0.3-0.7,0.8
			c0,0.4,0.3,0.8,1,0.8c0.5,0,1.6-0.2,1.6-1.6C208.8,177.8,208.8,177.7,208.8,177.6z"/>
		<path class="st9" d="M215.2,179.4c-0.3,0.4-0.9,0.9-2,0.9c-0.2,0-1,0-1.6-0.4c-0.1-0.1-0.2-0.1-0.4-0.3c-0.4-0.5-0.5-1-0.5-1.2
			l1-0.1c0,0.4,0,0.7,0.3,0.9c0.3,0.4,0.7,0.4,1.2,0.4c0.1,0,0.6,0,1-0.3c0.2-0.2,0.2-0.5,0.2-0.6c0-0.1,0-0.2-0.1-0.4
			c-0.2-0.3-0.7-0.4-1-0.5l-0.5-0.1c-0.7-0.1-1-0.2-1.3-0.4c-0.4-0.3-0.6-0.6-0.6-1.1c0-0.2,0-0.5,0.3-0.9c0.5-0.7,1.6-0.7,1.8-0.7
			c1.1,0,1.7,0.6,2,0.9c0.2,0.3,0.3,0.7,0.3,0.8l-1,0.1c0-0.3,0-0.4-0.1-0.5c-0.1-0.3-0.6-0.7-1.3-0.7c-0.7,0-1.1,0.4-1.1,0.8
			c0,0.1,0,0.2,0.1,0.3c0.2,0.3,0.6,0.4,1.2,0.6l0.5,0.1c0.2,0,0.3,0.1,0.5,0.1c0.7,0.2,1.3,0.6,1.3,1.4
			C215.4,178.7,215.4,179.1,215.2,179.4z"/>
		<path class="st9" d="M217.6,180.2c-0.5,0-0.8-0.1-0.9-0.3c-0.1-0.2-0.1-0.4-0.1-0.9v-3.5h-0.9v-0.7h0.9v-1.7h0.9v1.7h1v0.7h-1v3.1
			c0,0.4,0,0.6,0.1,0.7c0.1,0.1,0.2,0.2,0.3,0.2c0.1,0,0.3,0,0.6-0.1v0.7C218.4,180.1,218,180.2,217.6,180.2z"/>
		<path class="st9" d="M223.5,180.2c0,0-0.4,0-0.6-0.1c-0.1-0.1-0.2-0.2-0.2-0.2c-0.1-0.2-0.2-0.3-0.2-0.5c-0.2,0.3-0.8,0.9-1.8,0.9
			c-0.4,0-0.6-0.1-0.7-0.1c-0.6-0.2-1.1-0.7-1.1-1.4c0-0.2,0.1-0.8,0.6-1.2c0.5-0.4,1.5-0.6,2.2-0.6l0.8-0.1c0-0.1,0-0.3,0-0.4
			c0-0.4-0.1-1.2-1.2-1.2c-0.2,0-0.9,0-1.1,0.6c-0.1,0.2-0.1,0.3-0.1,0.5l-0.9-0.1c0-0.1,0-0.3,0.1-0.5c0.2-0.5,0.7-1.2,2-1.2
			c0.2,0,0.5,0,0.8,0.1c0.2,0.1,0.9,0.3,1.2,1c0.1,0.3,0.1,0.6,0.1,1.1v1.7c0,0.1,0,0.2,0,0.4c0,0.1,0,0.4,0.4,0.4
			c0.1,0,0.2,0,0.3,0v0.8C223.8,180.2,223.7,180.2,223.5,180.2z M222.5,177.6v-0.1c-0.4,0.1-1.5,0.2-1.9,0.4
			c-0.2,0.1-0.7,0.3-0.7,0.8c0,0.4,0.3,0.8,1,0.8c0.5,0,1.6-0.2,1.6-1.6C222.5,177.8,222.5,177.7,222.5,177.6z"/>
		<path class="st9" d="M168.4,190.4v1.8h-1v-1.8h-3.4v-0.9l3.6-4.9h0.8v4.9h1.1v0.9H168.4z M165,189.5h2.4l0-3.4L165,189.5z"/>
		<path class="st9" d="M177.4,191.9c-0.6,0.5-1.4,0.5-1.6,0.5c-0.2,0-0.6,0-1-0.2c-0.6-0.2-1.6-0.9-1.6-2.6c0-1.7,0.9-2.5,1.6-2.7
			c0.4-0.2,0.8-0.2,1-0.2c1.4,0,2.1,0.8,2.3,1.3c0.1,0.2,0.1,0.3,0.1,0.5l-1,0.1c0-0.1-0.1-0.4-0.2-0.6c-0.4-0.6-1-0.6-1.2-0.6
			c-0.8,0-1.6,0.5-1.6,2.2c0,0.9,0.3,1.5,0.6,1.8c0.3,0.3,0.7,0.4,1.1,0.4c0.2,0,0.5,0,0.7-0.1c0.6-0.3,0.7-0.8,0.8-1.3l1,0.1
			C178.1,191.2,177.6,191.7,177.4,191.9z"/>
		<path class="st9" d="M183.4,191.5c-0.3,0.4-0.9,0.9-2,0.9c-0.3,0-1.2,0-1.8-0.7c-0.3-0.3-0.8-1-0.8-2.1c0-0.7,0.2-1.4,0.6-1.9
			c0.5-0.7,1.2-0.9,2-0.9c0.4,0,0.7,0.1,1.1,0.2c0.6,0.3,1.5,1,1.5,2.6C184,189.8,184,190.7,183.4,191.5z M182.8,188.2
			c-0.1-0.1-0.2-0.3-0.3-0.4c-0.4-0.3-0.8-0.3-1-0.3c-1.7,0-1.7,1.9-1.7,2.2c0,0.3,0,0.5,0,0.5c0.1,0.4,0.3,1.5,1.6,1.5
			c0.2,0,0.9-0.1,1.3-0.7c0.3-0.5,0.4-1.3,0.4-1.4C183.1,189.4,183.1,188.7,182.8,188.2z"/>
		<path class="st9" d="M185,192.2v-8h0.9v8H185z"/>
		<path class="st9" d="M191.3,192.3c0,0-0.4,0-0.6-0.1c-0.1-0.1-0.2-0.2-0.2-0.2c-0.1-0.2-0.2-0.3-0.2-0.5c-0.2,0.3-0.8,0.9-1.8,0.9
			c-0.4,0-0.6-0.1-0.7-0.1c-0.6-0.2-1.1-0.7-1.1-1.4c0-0.2,0.1-0.8,0.6-1.2c0.5-0.4,1.5-0.6,2.2-0.6l0.8-0.1c0-0.1,0-0.3,0-0.4
			c0-0.4-0.1-1.2-1.2-1.2c-0.2,0-0.9,0-1.1,0.6c-0.1,0.2-0.1,0.3-0.1,0.5l-0.9-0.1c0-0.1,0-0.3,0.1-0.5c0.2-0.5,0.7-1.2,2-1.2
			c0.2,0,0.5,0,0.8,0.1c0.2,0.1,0.9,0.3,1.2,1c0.1,0.3,0.1,0.6,0.1,1.1v1.7c0,0.1,0,0.2,0,0.4c0,0.1,0,0.4,0.4,0.4
			c0.1,0,0.2,0,0.3,0v0.8C191.6,192.3,191.4,192.3,191.3,192.3z M190.3,189.7v-0.1c-0.4,0.1-1.5,0.2-1.9,0.4
			c-0.2,0.1-0.7,0.3-0.7,0.8c0,0.4,0.3,0.8,1,0.8c0.5,0,1.6-0.2,1.6-1.6C190.3,189.9,190.3,189.8,190.3,189.7z"/>
		<path class="st9" d="M197.2,191.5c-0.3,0.4-0.7,0.6-0.8,0.7c-0.2,0.1-0.5,0.2-1.1,0.2c-0.6,0-1-0.2-1.2-0.3
			c-0.2-0.1-0.4-0.3-0.6-0.5v0.7h-0.9v-8h0.9v3.4c0-0.1,0.1-0.2,0.2-0.3c0.4-0.4,1-0.6,1.6-0.6c0.4,0,1.2,0.1,1.8,0.8
			c0.3,0.4,0.7,1,0.7,2C197.7,189.8,197.7,190.7,197.2,191.5z M196.5,188.4c-0.2-0.3-0.6-0.8-1.4-0.8c-0.6,0-1,0.3-1.2,0.5
			c-0.3,0.3-0.5,0.7-0.5,1.5c0,0.6,0.1,0.9,0.2,1.2c0.1,0.3,0.6,0.9,1.4,0.9c0.3,0,0.6-0.1,0.9-0.2c0.4-0.2,0.8-0.8,0.8-1.9
			C196.8,189.3,196.8,188.8,196.5,188.4z"/>
		<path class="st9" d="M203,191.5c-0.3,0.4-0.9,0.9-2,0.9c-0.3,0-1.2,0-1.8-0.7c-0.3-0.3-0.8-1-0.8-2.1c0-0.7,0.2-1.4,0.6-1.9
			c0.5-0.7,1.2-0.9,2-0.9c0.4,0,0.7,0.1,1.1,0.2c0.6,0.3,1.5,1,1.5,2.6C203.6,189.8,203.6,190.7,203,191.5z M202.4,188.2
			c-0.1-0.1-0.2-0.3-0.3-0.4c-0.4-0.3-0.8-0.3-1-0.3c-1.7,0-1.7,1.9-1.7,2.2c0,0.3,0,0.5,0,0.5c0.1,0.4,0.3,1.5,1.6,1.5
			c0.2,0,0.9-0.1,1.3-0.7c0.3-0.5,0.4-1.3,0.4-1.4C202.7,189.4,202.7,188.7,202.4,188.2z"/>
		<path class="st9" d="M206.6,187.8c-0.5,0.1-0.9,0.5-1.1,1c-0.1,0.3-0.1,0.5-0.1,1v2.5h-0.9v-5.3h0.9v1c0.1-0.2,0.3-0.4,0.5-0.6
			c0.2-0.2,0.6-0.4,1.3-0.4v1C207,187.7,206.8,187.8,206.6,187.8z"/>
		<path class="st9" d="M212.1,192.3c0,0-0.4,0-0.6-0.1c-0.1-0.1-0.2-0.2-0.2-0.2c-0.1-0.2-0.2-0.3-0.2-0.5c-0.2,0.3-0.8,0.9-1.8,0.9
			c-0.4,0-0.6-0.1-0.7-0.1c-0.6-0.2-1.1-0.7-1.1-1.4c0-0.2,0.1-0.8,0.6-1.2c0.5-0.4,1.5-0.6,2.2-0.6l0.8-0.1c0-0.1,0-0.3,0-0.4
			c0-0.4-0.1-1.2-1.2-1.2c-0.2,0-0.9,0-1.1,0.6c-0.1,0.2-0.1,0.3-0.1,0.5l-0.9-0.1c0-0.1,0-0.3,0.1-0.5c0.2-0.5,0.7-1.2,2-1.2
			c0.2,0,0.5,0,0.8,0.1c0.2,0.1,0.9,0.3,1.2,1c0.1,0.3,0.1,0.6,0.1,1.1v1.7c0,0.1,0,0.2,0,0.4c0,0.1,0,0.4,0.4,0.4
			c0.1,0,0.2,0,0.3,0v0.8C212.4,192.3,212.2,192.3,212.1,192.3z M211.1,189.7v-0.1c-0.4,0.1-1.5,0.2-1.9,0.4
			c-0.2,0.1-0.7,0.3-0.7,0.8c0,0.4,0.3,0.8,1,0.8c0.5,0,1.6-0.2,1.6-1.6C211.1,189.9,211.1,189.8,211.1,189.7z"/>
		<path class="st9" d="M217.3,192.2v-0.7c-0.3,0.3-0.8,0.8-1.8,0.8c-1,0-1.5-0.5-1.8-0.8c-0.3-0.4-0.7-1-0.7-2
			c0-0.7,0.1-1.3,0.5-1.9c0.2-0.3,0.8-1,1.9-1c0.8,0,1.3,0.4,1.5,0.5c0.1,0.1,0.2,0.2,0.3,0.3v-3.4h0.9v8H217.3z M217.3,188.8
			c-0.2-0.8-0.8-1.3-1.6-1.3c-0.2,0-0.8,0-1.2,0.6c-0.4,0.4-0.5,0.9-0.5,1.5c0,0.2,0,0.9,0.4,1.4c0.4,0.6,1,0.6,1.3,0.6
			c0.3,0,0.6-0.1,0.9-0.2c0.4-0.2,0.8-0.8,0.8-1.8C217.3,189.4,217.3,189.1,217.3,188.8z"/>
		<path class="st9" d="M223.8,191.5c-0.3,0.4-0.9,0.9-2,0.9c-0.3,0-1.2,0-1.8-0.7c-0.3-0.3-0.8-1-0.8-2.1c0-0.7,0.2-1.4,0.6-1.9
			c0.5-0.7,1.2-0.9,2-0.9c0.4,0,0.7,0.1,1.1,0.2c0.6,0.3,1.5,1,1.5,2.6C224.4,189.8,224.4,190.7,223.8,191.5z M223.2,188.2
			c-0.1-0.1-0.2-0.3-0.3-0.4c-0.4-0.3-0.8-0.3-1-0.3c-1.7,0-1.7,1.9-1.7,2.2c0,0.3,0,0.5,0,0.5c0.1,0.4,0.3,1.5,1.6,1.5
			c0.2,0,0.9-0.1,1.3-0.7c0.3-0.5,0.4-1.3,0.4-1.4C223.4,189.4,223.4,188.7,223.2,188.2z"/>
		<path class="st9" d="M227.4,187.8c-0.5,0.1-0.9,0.5-1.1,1c-0.1,0.3-0.1,0.5-0.1,1v2.5h-0.9v-5.3h0.9v1c0.1-0.2,0.3-0.4,0.5-0.6
			c0.2-0.2,0.6-0.4,1.3-0.4v1C227.8,187.7,227.6,187.8,227.4,187.8z"/>
		<path class="st9" d="M233.1,191.3c-0.3,0.4-0.9,1.1-2.1,1.1c-0.6,0-0.9-0.1-1.1-0.2c-0.7-0.3-1.5-1-1.5-2.7c0-1,0.3-1.5,0.6-1.9
			c0.5-0.6,1.2-0.9,2-0.9c0.3,0,0.6,0.1,0.8,0.1c0.3,0.1,1,0.4,1.3,1.3c0.1,0.4,0.3,0.8,0.3,1.6h-4c0,1,0.4,1.5,0.8,1.7
			c0.3,0.2,0.6,0.3,1,0.3c0.5,0,0.7-0.2,0.9-0.3c0.1,0,0.2-0.2,0.3-0.4c0.1-0.2,0.2-0.5,0.2-0.6l0.9,0.1
			C233.4,190.7,233.3,191,233.1,191.3z M232.3,188.5c-0.2-0.7-0.7-1.1-1.4-1.1c-1,0-1.4,0.8-1.5,1.6h3
			C232.4,188.8,232.4,188.7,232.3,188.5z"/>
		<path class="st9" d="M238.4,191.5c-0.3,0.4-0.9,0.9-2,0.9c-0.2,0-1,0-1.6-0.4c-0.1-0.1-0.2-0.1-0.4-0.3c-0.4-0.5-0.5-1-0.5-1.2
			l1-0.1c0,0.4,0,0.7,0.3,0.9c0.3,0.4,0.7,0.4,1.2,0.4c0.1,0,0.6,0,1-0.3c0.2-0.2,0.2-0.5,0.2-0.6c0-0.1,0-0.2-0.1-0.4
			c-0.2-0.3-0.7-0.4-1-0.5l-0.5-0.1c-0.7-0.1-1-0.2-1.3-0.4c-0.4-0.3-0.6-0.6-0.6-1.1c0-0.2,0-0.5,0.3-0.9c0.5-0.7,1.6-0.7,1.8-0.7
			c1.1,0,1.7,0.6,2,0.9c0.2,0.3,0.3,0.7,0.3,0.8l-1,0.1c0-0.3,0-0.4-0.1-0.5c-0.1-0.3-0.6-0.7-1.3-0.7c-0.7,0-1.1,0.4-1.1,0.8
			c0,0.1,0,0.2,0.1,0.3c0.2,0.3,0.6,0.4,1.2,0.6l0.5,0.1c0.2,0,0.3,0.1,0.5,0.1c0.7,0.2,1.3,0.6,1.3,1.4
			C238.7,190.8,238.6,191.2,238.4,191.5z"/>
	</g>
	<g>
		<path class="st9" d="M303,176.6c-0.3,0.1-0.6,0.1-1.2,0.1h-2.3v3.4h-1v-8h3.4c0.6,0,1.2,0,1.7,0.3c0.9,0.6,1,1.6,1,1.9
			C304.5,175.4,304,176.4,303,176.6z M303.4,173.8c-0.1-0.4-0.4-0.6-0.8-0.7c-0.2-0.1-0.4-0.1-0.6-0.1h-2.5v2.7h2.2
			c0.3,0,0.6,0,0.9-0.1c0.6-0.2,0.9-0.7,0.9-1.4C303.5,174.3,303.5,174.1,303.4,173.8z"/>
		<path class="st9" d="M309.4,180.2c0,0-0.4,0-0.6-0.1c-0.1-0.1-0.2-0.2-0.2-0.2c-0.1-0.2-0.2-0.3-0.2-0.5c-0.2,0.3-0.8,0.9-1.8,0.9
			c-0.4,0-0.6-0.1-0.7-0.1c-0.6-0.2-1.1-0.7-1.1-1.4c0-0.2,0.1-0.8,0.6-1.2c0.5-0.4,1.5-0.6,2.2-0.6l0.8-0.1c0-0.1,0-0.3,0-0.4
			c0-0.4-0.1-1.2-1.2-1.2c-0.2,0-0.9,0-1.1,0.6c-0.1,0.2-0.1,0.3-0.1,0.5l-0.9-0.1c0-0.1,0-0.3,0.1-0.5c0.2-0.5,0.7-1.2,2-1.2
			c0.2,0,0.5,0,0.8,0.1c0.2,0.1,0.9,0.3,1.2,1c0.1,0.3,0.1,0.6,0.1,1.1v1.7c0,0.1,0,0.2,0,0.4c0,0.1,0,0.4,0.4,0.4
			c0.1,0,0.2,0,0.3,0v0.8C309.7,180.2,309.5,180.2,309.4,180.2z M308.4,177.6v-0.1c-0.4,0.1-1.5,0.2-1.9,0.4
			c-0.2,0.1-0.7,0.3-0.7,0.8c0,0.4,0.3,0.8,1,0.8c0.5,0,1.6-0.2,1.6-1.6C308.4,177.8,308.4,177.7,308.4,177.6z"/>
		<path class="st9" d="M312.7,175.7c-0.5,0.1-0.9,0.5-1.1,1c-0.1,0.3-0.1,0.5-0.1,1v2.5h-0.9v-5.3h0.9v1c0.1-0.2,0.3-0.4,0.5-0.6
			c0.2-0.2,0.6-0.4,1.3-0.4v1C313,175.7,312.8,175.7,312.7,175.7z"/>
		<path class="st9" d="M318.1,180.2c0,0-0.4,0-0.6-0.1c-0.1-0.1-0.2-0.2-0.2-0.2c-0.1-0.2-0.2-0.3-0.2-0.5c-0.2,0.3-0.8,0.9-1.8,0.9
			c-0.4,0-0.6-0.1-0.7-0.1c-0.6-0.2-1.1-0.7-1.1-1.4c0-0.2,0.1-0.8,0.6-1.2c0.5-0.4,1.5-0.6,2.2-0.6l0.8-0.1c0-0.1,0-0.3,0-0.4
			c0-0.4-0.1-1.2-1.2-1.2c-0.2,0-0.9,0-1.1,0.6c-0.1,0.2-0.1,0.3-0.1,0.5l-0.9-0.1c0-0.1,0-0.3,0.1-0.5c0.2-0.5,0.7-1.2,2-1.2
			c0.2,0,0.5,0,0.8,0.1c0.2,0.1,0.9,0.3,1.2,1c0.1,0.3,0.1,0.6,0.1,1.1v1.7c0,0.1,0,0.2,0,0.4c0,0.1,0,0.4,0.4,0.4
			c0.1,0,0.2,0,0.3,0v0.8C318.4,180.2,318.3,180.2,318.1,180.2z M317.1,177.6v-0.1c-0.4,0.1-1.5,0.2-1.9,0.4
			c-0.2,0.1-0.7,0.3-0.7,0.8c0,0.4,0.3,0.8,1,0.8c0.5,0,1.6-0.2,1.6-1.6C317.1,177.8,317.1,177.7,317.1,177.6z"/>
		<path class="st9" d="M325.7,180.1v-2.8c0-0.4,0-0.8-0.1-1.2c-0.2-0.5-0.6-0.7-1.1-0.7c-0.2,0-0.8,0.1-1.2,0.7
			c-0.3,0.5-0.2,1-0.2,1.4v2.6h-0.9v-8h0.9l0,3.2c0.6-0.7,1.2-0.7,1.6-0.7c0.7,0,1.1,0.2,1.4,0.5c0,0,0.1,0.1,0.2,0.3
			c0.4,0.5,0.3,1.1,0.3,1.7v3.1H325.7z"/>
		<path class="st9" d="M332,180.2c0,0-0.4,0-0.6-0.1c-0.1-0.1-0.2-0.2-0.2-0.2c-0.1-0.2-0.2-0.3-0.2-0.5c-0.2,0.3-0.8,0.9-1.8,0.9
			c-0.4,0-0.6-0.1-0.7-0.1c-0.6-0.2-1.1-0.7-1.1-1.4c0-0.2,0.1-0.8,0.6-1.2c0.5-0.4,1.5-0.6,2.2-0.6l0.8-0.1c0-0.1,0-0.3,0-0.4
			c0-0.4-0.1-1.2-1.2-1.2c-0.2,0-0.9,0-1.1,0.6c-0.1,0.2-0.1,0.3-0.1,0.5l-0.9-0.1c0-0.1,0-0.3,0.1-0.5c0.2-0.5,0.7-1.2,2-1.2
			c0.2,0,0.5,0,0.8,0.1c0.2,0.1,0.9,0.3,1.2,1c0.1,0.3,0.1,0.6,0.1,1.1v1.7c0,0.1,0,0.2,0,0.4c0,0.1,0,0.4,0.4,0.4
			c0.1,0,0.2,0,0.3,0v0.8C332.3,180.2,332.2,180.2,332,180.2z M331,177.6v-0.1c-0.4,0.1-1.5,0.2-1.9,0.4c-0.2,0.1-0.7,0.3-0.7,0.8
			c0,0.4,0.3,0.8,1,0.8c0.5,0,1.6-0.2,1.6-1.6C331,177.8,331,177.7,331,177.6z"/>
		<path class="st9" d="M337.4,179.4c-0.3,0.4-0.9,0.9-2,0.9c-0.2,0-1,0-1.6-0.4c-0.1-0.1-0.2-0.1-0.4-0.3c-0.4-0.5-0.5-1-0.5-1.2
			l1-0.1c0,0.4,0,0.7,0.3,0.9c0.3,0.4,0.7,0.4,1.2,0.4c0.1,0,0.6,0,1-0.3c0.2-0.2,0.2-0.5,0.2-0.6c0-0.1,0-0.2-0.1-0.4
			c-0.2-0.3-0.7-0.4-1-0.5l-0.5-0.1c-0.7-0.1-1-0.2-1.3-0.4c-0.4-0.3-0.6-0.6-0.6-1.1c0-0.2,0-0.5,0.3-0.9c0.5-0.7,1.6-0.7,1.8-0.7
			c1.1,0,1.7,0.6,2,0.9c0.2,0.3,0.3,0.7,0.3,0.8l-1,0.1c0-0.3,0-0.4-0.1-0.5c-0.1-0.3-0.6-0.7-1.3-0.7c-0.7,0-1.1,0.4-1.1,0.8
			c0,0.1,0,0.2,0.1,0.3c0.2,0.3,0.6,0.4,1.2,0.6l0.5,0.1c0.2,0,0.3,0.1,0.5,0.1c0.7,0.2,1.3,0.6,1.3,1.4
			C337.6,178.7,337.6,179.1,337.4,179.4z"/>
		<path class="st9" d="M339.8,180.2c-0.5,0-0.8-0.1-0.9-0.3c-0.1-0.2-0.1-0.4-0.1-0.9v-3.5h-0.9v-0.7h0.9v-1.7h0.9v1.7h1v0.7h-1v3.1
			c0,0.4,0,0.6,0.1,0.7c0.1,0.1,0.2,0.2,0.3,0.2c0.1,0,0.3,0,0.6-0.1v0.7C340.6,180.1,340.2,180.2,339.8,180.2z"/>
		<path class="st9" d="M345.7,180.2c0,0-0.4,0-0.6-0.1c-0.1-0.1-0.2-0.2-0.2-0.2c-0.1-0.2-0.2-0.3-0.2-0.5c-0.2,0.3-0.8,0.9-1.8,0.9
			c-0.4,0-0.6-0.1-0.7-0.1c-0.6-0.2-1.1-0.7-1.1-1.4c0-0.2,0.1-0.8,0.6-1.2c0.5-0.4,1.5-0.6,2.2-0.6l0.8-0.1c0-0.1,0-0.3,0-0.4
			c0-0.4-0.1-1.2-1.2-1.2c-0.2,0-0.9,0-1.1,0.6c-0.1,0.2-0.1,0.3-0.1,0.5l-0.9-0.1c0-0.1,0-0.3,0.1-0.5c0.2-0.5,0.7-1.2,2-1.2
			c0.2,0,0.5,0,0.8,0.1c0.2,0.1,0.9,0.3,1.2,1c0.1,0.3,0.1,0.6,0.1,1.1v1.7c0,0.1,0,0.2,0,0.4c0,0.1,0,0.4,0.4,0.4
			c0.1,0,0.2,0,0.3,0v0.8C346,180.2,345.9,180.2,345.7,180.2z M344.7,177.6v-0.1c-0.4,0.1-1.5,0.2-1.9,0.4c-0.2,0.1-0.7,0.3-0.7,0.8
			c0,0.4,0.3,0.8,1,0.8c0.5,0,1.6-0.2,1.6-1.6C344.8,177.8,344.7,177.7,344.7,177.6z"/>
		<path class="st9" d="M291.4,191.1c-0.3,0.6-1,1.2-2.4,1.2c-0.3,0-1.6,0-2.3-1.1c-0.3-0.5-0.4-1-0.4-1.3c0-0.5,0.2-1.1,0.6-1.5
			c0.1-0.1,0.2-0.2,0.5-0.4c-0.6-0.4-0.8-0.9-0.8-1.6c0-0.6,0.2-0.9,0.3-1.2c0.4-0.5,1-0.9,2.2-0.9c0.8,0,1.6,0.1,2.1,0.8
			c0.4,0.5,0.4,1,0.4,1.2c0,0.2,0,0.9-0.6,1.4c-0.1,0.1-0.2,0.1-0.3,0.2c0.4,0.2,1.1,0.7,1.1,1.8
			C291.7,190.1,291.7,190.6,291.4,191.1z M290.2,189c-0.4-0.4-1.2-0.4-1.3-0.4c-1.3,0-1.7,0.8-1.7,1.4c0,0.1,0,0.5,0.2,0.8
			c0.4,0.6,1.3,0.6,1.5,0.6c0.2,0,0.9,0,1.3-0.5c0.4-0.4,0.4-0.8,0.4-1C290.7,189.7,290.6,189.3,290.2,189z M290,185.7
			c-0.4-0.3-1-0.3-1.1-0.3c-0.5,0-1,0.1-1.3,0.5c-0.1,0.2-0.2,0.4-0.2,0.6c0,0.1,0,0.4,0.2,0.6c0.2,0.4,0.6,0.6,1.4,0.6
			c0.8,0,1.2-0.3,1.4-0.6c0.1-0.1,0.1-0.3,0.1-0.6C290.5,186.4,290.4,185.9,290,185.7z"/>
		<path class="st9" d="M299.6,191.9c-0.6,0.5-1.4,0.5-1.6,0.5c-0.2,0-0.6,0-1-0.2c-0.6-0.2-1.6-0.9-1.6-2.6c0-1.7,0.9-2.5,1.6-2.7
			c0.4-0.2,0.8-0.2,1-0.2c1.4,0,2.1,0.8,2.3,1.3c0.1,0.2,0.1,0.3,0.1,0.5l-1,0.1c0-0.1-0.1-0.4-0.2-0.6c-0.4-0.6-1-0.6-1.2-0.6
			c-0.8,0-1.6,0.5-1.6,2.2c0,0.9,0.3,1.5,0.6,1.8c0.3,0.3,0.7,0.4,1.1,0.4c0.2,0,0.5,0,0.7-0.1c0.6-0.3,0.7-0.8,0.8-1.3l1,0.1
			C300.3,191.2,299.9,191.7,299.6,191.9z"/>
		<path class="st9" d="M305.6,191.5c-0.3,0.4-0.9,0.9-2,0.9c-0.3,0-1.2,0-1.8-0.7c-0.3-0.3-0.8-1-0.8-2.1c0-0.7,0.2-1.4,0.6-1.9
			c0.5-0.7,1.2-0.9,2-0.9c0.4,0,0.7,0.1,1.1,0.2c0.6,0.3,1.5,1,1.5,2.6C306.2,189.8,306.2,190.7,305.6,191.5z M305,188.2
			c-0.1-0.1-0.2-0.3-0.3-0.4c-0.4-0.3-0.8-0.3-1-0.3c-1.7,0-1.7,1.9-1.7,2.2c0,0.3,0,0.5,0,0.5c0.1,0.4,0.3,1.5,1.6,1.5
			c0.2,0,0.9-0.1,1.3-0.7c0.3-0.5,0.4-1.3,0.4-1.4C305.3,189.4,305.3,188.7,305,188.2z"/>
		<path class="st9" d="M307.2,192.2v-8h0.9v8H307.2z"/>
		<path class="st9" d="M313.5,192.3c0,0-0.4,0-0.6-0.1c-0.1-0.1-0.2-0.2-0.2-0.2c-0.1-0.2-0.2-0.3-0.2-0.5c-0.2,0.3-0.8,0.9-1.8,0.9
			c-0.4,0-0.6-0.1-0.7-0.1c-0.6-0.2-1.1-0.7-1.1-1.4c0-0.2,0.1-0.8,0.6-1.2c0.5-0.4,1.5-0.6,2.2-0.6l0.8-0.1c0-0.1,0-0.3,0-0.4
			c0-0.4-0.1-1.2-1.2-1.2c-0.2,0-0.9,0-1.1,0.6c-0.1,0.2-0.1,0.3-0.1,0.5l-0.9-0.1c0-0.1,0-0.3,0.1-0.5c0.2-0.5,0.7-1.2,2-1.2
			c0.2,0,0.5,0,0.8,0.1c0.2,0.1,0.9,0.3,1.2,1c0.1,0.3,0.1,0.6,0.1,1.1v1.7c0,0.1,0,0.2,0,0.4c0,0.1,0,0.4,0.4,0.4
			c0.1,0,0.2,0,0.3,0v0.8C313.8,192.3,313.7,192.3,313.5,192.3z M312.5,189.7v-0.1c-0.4,0.1-1.5,0.2-1.9,0.4
			c-0.2,0.1-0.7,0.3-0.7,0.8c0,0.4,0.3,0.8,1,0.8c0.5,0,1.6-0.2,1.6-1.6C312.5,189.9,312.5,189.8,312.5,189.7z"/>
		<path class="st9" d="M319.4,191.5c-0.3,0.4-0.7,0.6-0.8,0.7c-0.2,0.1-0.5,0.2-1.1,0.2c-0.6,0-1-0.2-1.2-0.3
			c-0.2-0.1-0.4-0.3-0.6-0.5v0.7h-0.9v-8h0.9v3.4c0-0.1,0.1-0.2,0.2-0.3c0.4-0.4,1-0.6,1.6-0.6c0.4,0,1.2,0.1,1.8,0.8
			c0.3,0.4,0.7,1,0.7,2C319.9,189.8,319.9,190.7,319.4,191.5z M318.7,188.4c-0.2-0.3-0.6-0.8-1.4-0.8c-0.6,0-1,0.3-1.2,0.5
			c-0.3,0.3-0.5,0.7-0.5,1.5c0,0.6,0.1,0.9,0.2,1.2c0.1,0.3,0.6,0.9,1.4,0.9c0.3,0,0.6-0.1,0.9-0.2c0.4-0.2,0.8-0.8,0.8-1.9
			C319,189.3,319,188.8,318.7,188.4z"/>
		<path class="st9" d="M325.2,191.5c-0.3,0.4-0.9,0.9-2,0.9c-0.3,0-1.2,0-1.8-0.7c-0.3-0.3-0.8-1-0.8-2.1c0-0.7,0.2-1.4,0.6-1.9
			c0.5-0.7,1.2-0.9,2-0.9c0.4,0,0.7,0.1,1.1,0.2c0.6,0.3,1.5,1,1.5,2.6C325.8,189.8,325.8,190.7,325.2,191.5z M324.6,188.2
			c-0.1-0.1-0.2-0.3-0.3-0.4c-0.4-0.3-0.8-0.3-1-0.3c-1.7,0-1.7,1.9-1.7,2.2c0,0.3,0,0.5,0,0.5c0.1,0.4,0.3,1.5,1.6,1.5
			c0.2,0,0.9-0.1,1.3-0.7c0.3-0.5,0.4-1.3,0.4-1.4C324.9,189.4,324.9,188.7,324.6,188.2z"/>
		<path class="st9" d="M328.8,187.8c-0.5,0.1-0.9,0.5-1.1,1c-0.1,0.3-0.1,0.5-0.1,1v2.5h-0.9v-5.3h0.9v1c0.1-0.2,0.3-0.4,0.5-0.6
			c0.2-0.2,0.6-0.4,1.3-0.4v1C329.2,187.7,329,187.8,328.8,187.8z"/>
		<path class="st9" d="M334.3,192.3c0,0-0.4,0-0.6-0.1c-0.1-0.1-0.2-0.2-0.2-0.2c-0.1-0.2-0.2-0.3-0.2-0.5c-0.2,0.3-0.8,0.9-1.8,0.9
			c-0.4,0-0.6-0.1-0.7-0.1c-0.6-0.2-1.1-0.7-1.1-1.4c0-0.2,0.1-0.8,0.6-1.2c0.5-0.4,1.5-0.6,2.2-0.6l0.8-0.1c0-0.1,0-0.3,0-0.4
			c0-0.4-0.1-1.2-1.2-1.2c-0.2,0-0.9,0-1.1,0.6c-0.1,0.2-0.1,0.3-0.1,0.5l-0.9-0.1c0-0.1,0-0.3,0.1-0.5c0.2-0.5,0.7-1.2,2-1.2
			c0.2,0,0.5,0,0.8,0.1c0.2,0.1,0.9,0.3,1.2,1c0.1,0.3,0.1,0.6,0.1,1.1v1.7c0,0.1,0,0.2,0,0.4c0,0.1,0,0.4,0.4,0.4
			c0.1,0,0.2,0,0.3,0v0.8C334.6,192.3,334.4,192.3,334.3,192.3z M333.3,189.7v-0.1c-0.4,0.1-1.5,0.2-1.9,0.4
			c-0.2,0.1-0.7,0.3-0.7,0.8c0,0.4,0.3,0.8,1,0.8c0.5,0,1.6-0.2,1.6-1.6C333.3,189.9,333.3,189.8,333.3,189.7z"/>
		<path class="st9" d="M339.5,192.2v-0.7c-0.3,0.3-0.8,0.8-1.8,0.8c-1,0-1.5-0.5-1.8-0.8c-0.3-0.4-0.7-1-0.7-2
			c0-0.7,0.1-1.3,0.5-1.9c0.2-0.3,0.8-1,1.9-1c0.8,0,1.3,0.4,1.5,0.5c0.1,0.1,0.2,0.2,0.3,0.3v-3.4h0.9v8H339.5z M339.5,188.8
			c-0.2-0.8-0.8-1.3-1.6-1.3c-0.2,0-0.8,0-1.2,0.6c-0.4,0.4-0.5,0.9-0.5,1.5c0,0.2,0,0.9,0.4,1.4c0.4,0.6,1,0.6,1.3,0.6
			c0.3,0,0.6-0.1,0.9-0.2c0.4-0.2,0.8-0.8,0.8-1.8C339.5,189.4,339.5,189.1,339.5,188.8z"/>
		<path class="st9" d="M346,191.5c-0.3,0.4-0.9,0.9-2,0.9c-0.3,0-1.2,0-1.8-0.7c-0.3-0.3-0.8-1-0.8-2.1c0-0.7,0.2-1.4,0.6-1.9
			c0.5-0.7,1.2-0.9,2-0.9c0.4,0,0.7,0.1,1.1,0.2c0.6,0.3,1.5,1,1.5,2.6C346.6,189.8,346.6,190.7,346,191.5z M345.4,188.2
			c-0.1-0.1-0.2-0.3-0.3-0.4c-0.4-0.3-0.8-0.3-1-0.3c-1.7,0-1.7,1.9-1.7,2.2c0,0.3,0,0.5,0,0.5c0.1,0.4,0.3,1.5,1.6,1.5
			c0.2,0,0.9-0.1,1.3-0.7c0.3-0.5,0.4-1.3,0.4-1.4C345.6,189.4,345.6,188.7,345.4,188.2z"/>
		<path class="st9" d="M349.6,187.8c-0.5,0.1-0.9,0.5-1.1,1c-0.1,0.3-0.1,0.5-0.1,1v2.5h-0.9v-5.3h0.9v1c0.1-0.2,0.3-0.4,0.5-0.6
			c0.2-0.2,0.6-0.4,1.3-0.4v1C350,187.7,349.8,187.8,349.6,187.8z"/>
		<path class="st9" d="M355.3,191.3c-0.3,0.4-0.9,1.1-2.1,1.1c-0.6,0-0.9-0.1-1.1-0.2c-0.7-0.3-1.5-1-1.5-2.7c0-1,0.3-1.5,0.6-1.9
			c0.5-0.6,1.2-0.9,2-0.9c0.3,0,0.6,0.1,0.8,0.1c0.3,0.1,1,0.4,1.3,1.3c0.1,0.4,0.3,0.8,0.3,1.6h-4c0,1,0.4,1.5,0.8,1.7
			c0.3,0.2,0.6,0.3,1,0.3c0.5,0,0.7-0.2,0.9-0.3c0.1,0,0.2-0.2,0.3-0.4c0.1-0.2,0.2-0.5,0.2-0.6l0.9,0.1
			C355.6,190.7,355.5,191,355.3,191.3z M354.6,188.5c-0.2-0.7-0.7-1.1-1.4-1.1c-1,0-1.4,0.8-1.5,1.6h3
			C354.6,188.8,354.6,188.7,354.6,188.5z"/>
		<path class="st9" d="M360.6,191.5c-0.3,0.4-0.9,0.9-2,0.9c-0.2,0-1,0-1.6-0.4c-0.1-0.1-0.2-0.1-0.4-0.3c-0.4-0.5-0.5-1-0.5-1.2
			l1-0.1c0,0.4,0,0.7,0.3,0.9c0.3,0.4,0.7,0.4,1.2,0.4c0.1,0,0.6,0,1-0.3c0.2-0.2,0.2-0.5,0.2-0.6c0-0.1,0-0.2-0.1-0.4
			c-0.2-0.3-0.7-0.4-1-0.5l-0.5-0.1c-0.7-0.1-1-0.2-1.3-0.4c-0.4-0.3-0.6-0.6-0.6-1.1c0-0.2,0-0.5,0.3-0.9c0.5-0.7,1.6-0.7,1.8-0.7
			c1.1,0,1.7,0.6,2,0.9c0.2,0.3,0.3,0.7,0.3,0.8l-1,0.1c0-0.3,0-0.4-0.1-0.5c-0.1-0.3-0.6-0.7-1.3-0.7c-0.7,0-1.1,0.4-1.1,0.8
			c0,0.1,0,0.2,0.1,0.3c0.2,0.3,0.6,0.4,1.2,0.6l0.5,0.1c0.2,0,0.3,0.1,0.5,0.1c0.7,0.2,1.3,0.6,1.3,1.4
			C360.9,190.8,360.9,191.2,360.6,191.5z"/>
	</g>
	<g>
		<path class="st9" d="M279.8,105.6c-0.4,0.4-1.2,0.9-2.5,0.9c-0.3,0-1.3,0-2.2-0.6c-0.2-0.2-0.5-0.4-0.6-0.6
			c-0.5-0.6-0.5-1.4-0.6-1.6l1.1-0.1c0,0.2,0,0.9,0.5,1.4c0.3,0.3,0.8,0.6,1.8,0.6c0.1,0,0.4,0,0.7-0.1c0.3-0.1,1.3-0.4,1.3-1.5
			c0-0.5-0.2-0.8-0.4-0.9c-0.3-0.2-0.7-0.3-1.1-0.4l-0.7-0.1c-0.6-0.1-1.2-0.3-1.8-0.6c-1-0.5-1.1-1.2-1.1-1.7
			c0-0.6,0.3-1.2,0.8-1.6c0.8-0.7,1.8-0.7,2.1-0.7c0.8,0,1.5,0.1,2.1,0.6c0.4,0.3,0.6,0.6,0.6,0.7c0.2,0.4,0.3,0.7,0.4,1.1l-1.1,0.1
			c0-0.2,0-0.3-0.1-0.5c-0.2-0.6-0.7-1.2-2-1.2c-0.5,0-1.2,0.1-1.5,0.5c-0.2,0.2-0.3,0.5-0.3,0.7c0,0.1,0,0.4,0.2,0.6
			c0.3,0.4,0.9,0.5,1.4,0.7l0.9,0.2c0.2,0,0.4,0.1,0.6,0.2c0.2,0.1,1.2,0.3,1.7,1.1c0.1,0.2,0.3,0.5,0.3,1.1
			C280.5,104.2,280.4,105,279.8,105.6z"/>
		<path class="st9" d="M285.9,105.3c-0.3,0.4-0.9,1.1-2.1,1.1c-0.6,0-0.9-0.1-1.1-0.2c-0.7-0.3-1.5-1-1.5-2.7c0-1,0.3-1.5,0.6-1.9
			c0.5-0.6,1.2-0.9,2-0.9c0.3,0,0.6,0.1,0.8,0.1c0.3,0.1,1,0.4,1.3,1.3c0.1,0.4,0.3,0.8,0.3,1.6h-4c0,1,0.4,1.5,0.8,1.7
			c0.3,0.2,0.6,0.3,1,0.3c0.5,0,0.7-0.2,0.9-0.3c0.1,0,0.2-0.2,0.3-0.4c0.1-0.2,0.2-0.5,0.2-0.6l0.9,0.1
			C286.2,104.7,286.1,105,285.9,105.3z M285.2,102.6c-0.2-0.7-0.7-1.1-1.4-1.1c-1,0-1.4,0.8-1.5,1.6h3
			C285.3,102.8,285.3,102.7,285.2,102.6z"/>
		<path class="st9" d="M292,107.3c-0.3,1-1.1,1.3-1.4,1.4c-0.2,0-0.5,0.1-0.9,0.1c-0.2,0-0.5,0-0.9-0.1c-1.3-0.4-1.5-1.4-1.5-1.9h1
			c0,0.1,0,0.4,0.2,0.7c0.4,0.5,1.1,0.5,1.2,0.5c0.1,0,0.9,0,1.3-0.5c0.2-0.3,0.2-0.7,0.2-1.5l0-0.6c-0.6,0.8-1.3,0.9-1.7,0.9
			c-0.5,0-1-0.2-1.1-0.3c-0.6-0.3-1.3-1-1.3-2.5c0-0.2,0-1.2,0.6-1.9c0.5-0.6,1-0.9,1.9-0.9c0.1,0,0.4,0,0.7,0.1
			c0.2,0.1,0.6,0.3,1,0.8v-0.7h0.9v5C292.1,106.7,292.1,106.9,292,107.3z M291.1,102.7c-0.2-0.7-0.9-1.1-1.6-1.1
			c-0.2,0-0.5,0.1-0.7,0.2c-0.4,0.2-0.9,0.8-0.9,1.9c0,0.6,0.1,1.3,0.7,1.7c0.3,0.2,0.6,0.3,1,0.3c0.5,0,0.8-0.2,1-0.4
			c0.3-0.3,0.6-0.8,0.6-1.7C291.2,103.4,291.2,103,291.1,102.7z"/>
		<path class="st9" d="M296.9,106.2l0-0.8c0,0.1-0.1,0.1-0.2,0.3c-0.4,0.4-1,0.7-1.6,0.7c-0.2,0-1,0-1.4-0.7
			c-0.3-0.5-0.3-1.1-0.3-1.6v-3.1h0.9v3c0,0.6,0,0.8,0.1,1.1c0.1,0.2,0.4,0.5,1,0.5c0.2,0,0.9,0,1.3-0.6c0.3-0.4,0.3-0.9,0.3-1.3
			v-2.7h0.9v5.3H296.9z"/>
		<path class="st9" d="M301.1,101.8c-0.5,0.1-0.9,0.5-1.1,1c-0.1,0.3-0.1,0.5-0.1,1v2.5H299v-5.3h0.9v1c0.1-0.2,0.3-0.4,0.5-0.6
			c0.2-0.2,0.6-0.4,1.3-0.4v1C301.4,101.8,301.2,101.8,301.1,101.8z"/>
		<path class="st9" d="M306.7,105.5c-0.3,0.4-0.9,0.9-2,0.9c-0.3,0-1.2,0-1.8-0.7c-0.3-0.3-0.8-1-0.8-2.1c0-0.7,0.2-1.4,0.6-1.9
			c0.5-0.7,1.2-0.9,2-0.9c0.4,0,0.7,0.1,1.1,0.2c0.6,0.3,1.5,1,1.5,2.6C307.3,103.9,307.2,104.8,306.7,105.5z M306,102.2
			c-0.1-0.1-0.2-0.3-0.3-0.4c-0.4-0.3-0.8-0.3-1-0.3c-1.7,0-1.7,1.9-1.7,2.2c0,0.3,0,0.5,0,0.5c0.1,0.4,0.3,1.5,1.6,1.5
			c0.2,0,0.9-0.1,1.3-0.7c0.3-0.5,0.4-1.3,0.4-1.4C306.3,103.4,306.3,102.7,306,102.2z"/>
		<path class="st9" d="M315.1,106.2v-0.7c-0.3,0.3-0.8,0.8-1.8,0.8c-1,0-1.5-0.5-1.8-0.8c-0.3-0.4-0.7-1-0.7-2
			c0-0.7,0.1-1.3,0.5-1.9c0.2-0.3,0.8-1,1.9-1c0.8,0,1.3,0.4,1.5,0.5c0.1,0.1,0.2,0.2,0.3,0.3v-3.4h0.9v8H315.1z M315,102.9
			c-0.2-0.8-0.8-1.3-1.6-1.3c-0.2,0-0.8,0-1.2,0.6c-0.4,0.4-0.5,0.9-0.5,1.5c0,0.2,0,0.9,0.4,1.4c0.4,0.6,1,0.6,1.3,0.6
			c0.3,0,0.6-0.1,0.9-0.2c0.4-0.2,0.8-0.8,0.8-1.8C315.1,103.5,315.1,103.2,315,102.9z"/>
		<path class="st9" d="M321.6,105.3c-0.3,0.4-0.9,1.1-2.1,1.1c-0.6,0-0.9-0.1-1.1-0.2c-0.7-0.3-1.5-1-1.5-2.7c0-1,0.3-1.5,0.6-1.9
			c0.5-0.6,1.2-0.9,2-0.9c0.3,0,0.6,0.1,0.8,0.1c0.3,0.1,1,0.4,1.3,1.3c0.1,0.4,0.3,0.8,0.3,1.6h-4c0,1,0.4,1.5,0.8,1.7
			c0.3,0.2,0.6,0.3,1,0.3c0.5,0,0.7-0.2,0.9-0.3c0.1,0,0.2-0.2,0.3-0.4c0.1-0.2,0.2-0.5,0.2-0.6l0.9,0.1
			C321.9,104.7,321.8,105,321.6,105.3z M320.9,102.6c-0.2-0.7-0.7-1.1-1.4-1.1c-1,0-1.4,0.8-1.5,1.6h3
			C320.9,102.8,320.9,102.7,320.9,102.6z"/>
		<path class="st9" d="M331,106.2l-0.9-2.4h-3l-0.9,2.4h-1.1l3-8h1.1l2.9,8H331z M328.7,99.6l-1.2,3.3h2.4L328.7,99.6z"/>
		<path class="st9" d="M336.8,105.9c-0.6,0.5-1.4,0.5-1.6,0.5c-0.2,0-0.6,0-1-0.2c-0.6-0.2-1.6-0.9-1.6-2.6c0-1.7,0.9-2.5,1.6-2.7
			c0.4-0.2,0.8-0.2,1-0.2c1.4,0,2.1,0.8,2.3,1.3c0.1,0.2,0.1,0.3,0.1,0.5l-1,0.1c0-0.1-0.1-0.4-0.2-0.6c-0.4-0.6-1-0.6-1.2-0.6
			c-0.8,0-1.6,0.5-1.6,2.2c0,0.9,0.3,1.5,0.6,1.8c0.3,0.3,0.7,0.4,1.1,0.4c0.2,0,0.5,0,0.7-0.1c0.6-0.3,0.7-0.8,0.8-1.3l1,0.1
			C337.5,105.2,337,105.7,336.8,105.9z"/>
		<path class="st9" d="M342.4,105.9c-0.6,0.5-1.4,0.5-1.6,0.5c-0.2,0-0.6,0-1-0.2c-0.6-0.2-1.6-0.9-1.6-2.6c0-1.7,0.9-2.5,1.6-2.7
			c0.4-0.2,0.8-0.2,1-0.2c1.4,0,2.1,0.8,2.3,1.3c0.1,0.2,0.1,0.3,0.1,0.5l-1,0.1c0-0.1-0.1-0.4-0.2-0.6c-0.4-0.6-1-0.6-1.2-0.6
			c-0.8,0-1.6,0.5-1.6,2.2c0,0.9,0.3,1.5,0.6,1.8c0.3,0.3,0.7,0.4,1.1,0.4c0.2,0,0.5,0,0.7-0.1c0.6-0.3,0.7-0.8,0.8-1.3l1,0.1
			C343.2,105.2,342.7,105.7,342.4,105.9z"/>
		<path class="st9" d="M344.2,99.3v-1h0.9v1H344.2z M344.2,106.2v-5.3h0.9v5.3H344.2z"/>
		<path class="st9" d="M350.3,106.2v-0.7c-0.3,0.3-0.8,0.8-1.8,0.8c-1,0-1.5-0.5-1.8-0.8c-0.3-0.4-0.7-1-0.7-2
			c0-0.7,0.1-1.3,0.5-1.9c0.2-0.3,0.8-1,1.9-1c0.8,0,1.3,0.4,1.5,0.5c0.1,0.1,0.2,0.2,0.3,0.3v-3.4h0.9v8H350.3z M350.2,102.9
			c-0.2-0.8-0.8-1.3-1.6-1.3c-0.2,0-0.8,0-1.2,0.6c-0.4,0.4-0.5,0.9-0.5,1.5c0,0.2,0,0.9,0.4,1.4c0.4,0.6,1,0.6,1.3,0.6
			c0.3,0,0.6-0.1,0.9-0.2c0.4-0.2,0.8-0.8,0.8-1.8C350.3,103.5,350.3,103.2,350.2,102.9z"/>
		<path class="st9" d="M356.8,105.3c-0.3,0.4-0.9,1.1-2.1,1.1c-0.6,0-0.9-0.1-1.1-0.2c-0.7-0.3-1.5-1-1.5-2.7c0-1,0.3-1.5,0.6-1.9
			c0.5-0.6,1.2-0.9,2-0.9c0.3,0,0.6,0.1,0.8,0.1c0.3,0.1,1,0.4,1.3,1.3c0.1,0.4,0.3,0.8,0.3,1.6h-4c0,1,0.4,1.5,0.8,1.7
			c0.3,0.2,0.6,0.3,1,0.3c0.5,0,0.7-0.2,0.9-0.3c0.1,0,0.2-0.2,0.3-0.4c0.1-0.2,0.2-0.5,0.2-0.6l0.9,0.1
			C357.1,104.7,357,105,356.8,105.3z M356.1,102.6c-0.2-0.7-0.7-1.1-1.4-1.1c-1,0-1.4,0.8-1.5,1.6h3
			C356.1,102.8,356.1,102.7,356.1,102.6z"/>
		<path class="st9" d="M361.6,106.2v-3.4c0-0.2,0-0.7-0.4-1c-0.1-0.1-0.4-0.2-0.8-0.2c-0.4,0-0.7,0.1-1,0.4
			c-0.1,0.1-0.2,0.2-0.3,0.5c-0.1,0.2-0.1,0.5-0.1,0.7v3h-0.9v-5.3h0.9v0.8c0.1-0.2,0.2-0.3,0.3-0.4c0.2-0.2,0.7-0.6,1.4-0.6
			c0.2,0,1,0.1,1.5,0.7c0.4,0.5,0.3,1,0.3,1.6v3.2H361.6z"/>
		<path class="st9" d="M365.1,106.3c-0.5,0-0.8-0.1-0.9-0.3c-0.1-0.2-0.1-0.4-0.1-0.9v-3.5h-0.9v-0.7h0.9v-1.7h0.9v1.7h1v0.7h-1v3.1
			c0,0.4,0,0.6,0.1,0.7c0.1,0.1,0.2,0.2,0.3,0.2c0.1,0,0.3,0,0.6-0.1v0.7C365.9,106.2,365.4,106.3,365.1,106.3z"/>
		<path class="st9" d="M371.2,105.3c-0.3,0.4-0.9,1.1-2.1,1.1c-0.6,0-0.9-0.1-1.1-0.2c-0.7-0.3-1.5-1-1.5-2.7c0-1,0.3-1.5,0.6-1.9
			c0.5-0.6,1.2-0.9,2-0.9c0.3,0,0.6,0.1,0.8,0.1c0.3,0.1,1,0.4,1.3,1.3c0.1,0.4,0.3,0.8,0.3,1.6h-4c0,1,0.4,1.5,0.8,1.7
			c0.3,0.2,0.6,0.3,1,0.3c0.5,0,0.7-0.2,0.9-0.3c0.1,0,0.2-0.2,0.3-0.4c0.1-0.2,0.2-0.5,0.2-0.6l0.9,0.1
			C371.5,104.7,371.4,105,371.2,105.3z M370.5,102.6c-0.2-0.7-0.7-1.1-1.4-1.1c-1,0-1.4,0.8-1.5,1.6h3
			C370.5,102.8,370.5,102.7,370.5,102.6z"/>
		<path class="st9" d="M376.6,105.5c-0.3,0.4-0.9,0.9-2,0.9c-0.2,0-1,0-1.6-0.4c-0.1-0.1-0.2-0.1-0.4-0.3c-0.4-0.5-0.5-1-0.5-1.2
			l1-0.1c0,0.4,0,0.7,0.3,0.9c0.3,0.4,0.7,0.4,1.2,0.4c0.1,0,0.6,0,1-0.3c0.2-0.2,0.2-0.5,0.2-0.6c0-0.1,0-0.2-0.1-0.4
			c-0.2-0.3-0.7-0.4-1-0.5l-0.5-0.1c-0.7-0.1-1-0.2-1.3-0.4c-0.4-0.3-0.6-0.6-0.6-1.1c0-0.2,0-0.5,0.3-0.9c0.5-0.7,1.6-0.7,1.8-0.7
			c1.1,0,1.7,0.6,2,0.9c0.2,0.3,0.3,0.7,0.3,0.8l-1,0.1c0-0.3,0-0.4-0.1-0.5c-0.1-0.3-0.6-0.7-1.3-0.7c-0.7,0-1.1,0.4-1.1,0.8
			c0,0.1,0,0.2,0.1,0.3c0.2,0.3,0.6,0.4,1.2,0.6l0.5,0.1c0.2,0,0.3,0.1,0.5,0.1c0.7,0.2,1.3,0.6,1.3,1.4
			C376.8,104.8,376.8,105.2,376.6,105.5z"/>
		<path class="st9" d="M306.5,114.8c-0.3,0.1-0.6,0.1-1.2,0.1H303v3.4h-1v-8h3.4c0.6,0,1.2,0,1.7,0.3c0.9,0.6,1,1.6,1,1.9
			C308.1,113.6,307.6,114.6,306.5,114.8z M306.9,112c-0.1-0.4-0.4-0.6-0.8-0.7c-0.2-0.1-0.4-0.1-0.6-0.1H303v2.7h2.2
			c0.3,0,0.6,0,0.9-0.1c0.6-0.2,0.9-0.7,0.9-1.4C307,112.5,307,112.3,306.9,112z"/>
		<path class="st9" d="M313.1,117.4c-0.3,0.4-0.9,1.1-2.1,1.1c-0.6,0-0.9-0.1-1.1-0.2c-0.7-0.3-1.5-1-1.5-2.7c0-1,0.3-1.5,0.6-1.9
			c0.5-0.6,1.2-0.9,2-0.9c0.3,0,0.6,0.1,0.8,0.1c0.3,0.1,1,0.4,1.3,1.3c0.1,0.4,0.3,0.8,0.3,1.6h-4c0,1,0.4,1.5,0.8,1.7
			c0.3,0.2,0.6,0.3,1,0.3c0.5,0,0.7-0.2,0.9-0.3c0.1,0,0.2-0.2,0.3-0.4c0.1-0.2,0.2-0.5,0.2-0.6l0.9,0.1
			C313.4,116.8,313.3,117.1,313.1,117.4z M312.4,114.6c-0.2-0.7-0.7-1.1-1.4-1.1c-1,0-1.4,0.8-1.5,1.6h3
			C312.4,114.9,312.4,114.8,312.4,114.6z"/>
		<path class="st9" d="M316.4,113.9c-0.5,0.1-0.9,0.5-1.1,1c-0.1,0.3-0.1,0.5-0.1,1v2.5h-0.9V113h0.9v1c0.1-0.2,0.3-0.4,0.5-0.6
			c0.2-0.2,0.6-0.4,1.3-0.4v1C316.8,113.9,316.6,113.9,316.4,113.9z"/>
		<path class="st9" d="M321.8,117.6c-0.3,0.4-0.9,0.9-2,0.9c-0.2,0-1,0-1.6-0.4c-0.1-0.1-0.2-0.1-0.4-0.3c-0.4-0.5-0.5-1-0.5-1.2
			l1-0.1c0,0.4,0,0.7,0.3,0.9c0.3,0.4,0.7,0.4,1.2,0.4c0.1,0,0.6,0,1-0.3c0.2-0.2,0.2-0.5,0.2-0.6c0-0.1,0-0.2-0.1-0.4
			c-0.2-0.3-0.7-0.4-1-0.5l-0.5-0.1c-0.7-0.1-1-0.2-1.3-0.4c-0.4-0.3-0.6-0.6-0.6-1.1c0-0.2,0-0.5,0.3-0.9c0.5-0.7,1.6-0.7,1.8-0.7
			c1.1,0,1.7,0.6,2,0.9c0.2,0.3,0.3,0.7,0.3,0.8l-1,0.1c0-0.3,0-0.4-0.1-0.5c-0.1-0.3-0.6-0.7-1.3-0.7c-0.7,0-1.1,0.4-1.1,0.8
			c0,0.1,0,0.2,0.1,0.3c0.2,0.3,0.6,0.4,1.2,0.6l0.5,0.1c0.2,0,0.3,0.1,0.5,0.1c0.7,0.2,1.3,0.6,1.3,1.4
			C322,116.9,322,117.3,321.8,117.6z"/>
		<path class="st9" d="M327.2,117.6c-0.3,0.4-0.9,0.9-2,0.9c-0.3,0-1.2,0-1.8-0.7c-0.3-0.3-0.8-1-0.8-2.1c0-0.7,0.2-1.4,0.6-1.9
			c0.5-0.7,1.2-0.9,2-0.9c0.4,0,0.7,0.1,1.1,0.2c0.6,0.3,1.5,1,1.5,2.6C327.8,116,327.8,116.9,327.2,117.6z M326.6,114.3
			c-0.1-0.1-0.2-0.3-0.3-0.4c-0.4-0.3-0.8-0.3-1-0.3c-1.7,0-1.7,1.9-1.7,2.2c0,0.3,0,0.5,0,0.5c0.1,0.4,0.3,1.5,1.6,1.5
			c0.2,0,0.9-0.1,1.3-0.7c0.3-0.5,0.4-1.3,0.4-1.4C326.9,115.5,326.9,114.8,326.6,114.3z"/>
		<path class="st9" d="M332.3,118.3v-3.4c0-0.2,0-0.7-0.4-1c-0.1-0.1-0.4-0.2-0.8-0.2c-0.4,0-0.7,0.1-1,0.4
			c-0.1,0.1-0.2,0.2-0.3,0.5c-0.1,0.2-0.1,0.5-0.1,0.7v3h-0.9V113h0.9v0.8c0.1-0.2,0.2-0.3,0.3-0.4c0.2-0.2,0.7-0.6,1.4-0.6
			c0.2,0,1,0.1,1.5,0.7c0.4,0.5,0.3,1,0.3,1.6v3.2H332.3z"/>
		<path class="st9" d="M338.6,118.4c0,0-0.4,0-0.6-0.1c-0.1-0.1-0.2-0.2-0.2-0.2c-0.1-0.2-0.2-0.3-0.2-0.5c-0.2,0.3-0.8,0.9-1.8,0.9
			c-0.4,0-0.6-0.1-0.7-0.1c-0.6-0.2-1.1-0.7-1.1-1.4c0-0.2,0.1-0.8,0.6-1.2c0.5-0.4,1.5-0.6,2.2-0.6l0.8-0.1c0-0.1,0-0.3,0-0.4
			c0-0.4-0.1-1.2-1.2-1.2c-0.2,0-0.9,0-1.1,0.6c-0.1,0.2-0.1,0.3-0.1,0.5l-0.9-0.1c0-0.1,0-0.3,0.1-0.5c0.2-0.5,0.7-1.2,2-1.2
			c0.2,0,0.5,0,0.8,0.1c0.2,0.1,0.9,0.3,1.2,1c0.1,0.3,0.1,0.6,0.1,1.1v1.7c0,0.1,0,0.2,0,0.4c0,0.1,0,0.4,0.4,0.4
			c0.1,0,0.2,0,0.3,0v0.8C339,118.4,338.8,118.4,338.6,118.4z M337.6,115.8v-0.1c-0.4,0.1-1.5,0.2-1.9,0.4c-0.2,0.1-0.7,0.3-0.7,0.8
			c0,0.4,0.3,0.8,1,0.8c0.5,0,1.6-0.2,1.6-1.6C337.7,116,337.6,115.9,337.6,115.8z"/>
		<path class="st9" d="M339.9,118.3v-8h0.9v8H339.9z"/>
		<path class="st9" d="M346.4,117.4c-0.3,0.4-0.9,1.1-2.1,1.1c-0.6,0-0.9-0.1-1.1-0.2c-0.7-0.3-1.5-1-1.5-2.7c0-1,0.3-1.5,0.6-1.9
			c0.5-0.6,1.2-0.9,2-0.9c0.3,0,0.6,0.1,0.8,0.1c0.3,0.1,1,0.4,1.3,1.3c0.1,0.4,0.3,0.8,0.3,1.6h-4c0,1,0.4,1.5,0.8,1.7
			c0.3,0.2,0.6,0.3,1,0.3c0.5,0,0.7-0.2,0.9-0.3c0.1,0,0.2-0.2,0.3-0.4c0.1-0.2,0.2-0.5,0.2-0.6l0.9,0.1
			C346.7,116.8,346.6,117.1,346.4,117.4z M345.7,114.6c-0.2-0.7-0.7-1.1-1.4-1.1c-1,0-1.4,0.8-1.5,1.6h3
			C345.7,114.9,345.7,114.8,345.7,114.6z"/>
		<path class="st9" d="M351.8,117.6c-0.3,0.4-0.9,0.9-2,0.9c-0.2,0-1,0-1.6-0.4c-0.1-0.1-0.2-0.1-0.4-0.3c-0.4-0.5-0.5-1-0.5-1.2
			l1-0.1c0,0.4,0,0.7,0.3,0.9c0.3,0.4,0.7,0.4,1.2,0.4c0.1,0,0.6,0,1-0.3c0.2-0.2,0.2-0.5,0.2-0.6c0-0.1,0-0.2-0.1-0.4
			c-0.2-0.3-0.7-0.4-1-0.5l-0.5-0.1c-0.7-0.1-1-0.2-1.3-0.4c-0.4-0.3-0.6-0.6-0.6-1.1c0-0.2,0-0.5,0.3-0.9c0.5-0.7,1.6-0.7,1.8-0.7
			c1.1,0,1.7,0.6,2,0.9c0.2,0.3,0.3,0.7,0.3,0.8l-1,0.1c0-0.3,0-0.4-0.1-0.5c-0.1-0.3-0.6-0.7-1.3-0.7c-0.7,0-1.1,0.4-1.1,0.8
			c0,0.1,0,0.2,0.1,0.3c0.2,0.3,0.6,0.4,1.2,0.6l0.5,0.1c0.2,0,0.3,0.1,0.5,0.1c0.7,0.2,1.3,0.6,1.3,1.4
			C352,116.9,352,117.3,351.8,117.6z"/>
	</g>
	<g>
		<g>
			<path class="st3" d="M190.1,49.4l-5.9-8.7l0.1,8.7H183V38.7h1.3l5.8,8.6l-0.1-8.6h1.3v10.7H190.1z"/>
			<path class="st3" d="M193.6,49.4V38.7h1.4v10.7H193.6z"/>
			<path class="st3" d="M201.2,49.4h-1.4l-3.6-10.7h1.5l2.8,8.9l2.9-8.9h1.5L201.2,49.4z"/>
			<path class="st3" d="M206.4,49.4V38.7h7.4v1.3h-6v3.3h5.2v1.2h-5.2v3.7h6.2v1.2H206.4z"/>
			<path class="st3" d="M215.4,49.4V38.7h1.4v9.4h5.2v1.3H215.4z"/>
			<path class="st3" d="M187.8,59.4c-0.4,0.1-0.8,0.1-1.6,0.1h-3.1v4.5h-1.4V53.4h4.6c0.8,0,1.5,0,2.3,0.5c1.2,0.8,1.3,2.2,1.3,2.6
				C189.9,57.8,189.2,59,187.8,59.4z M188.4,55.6c-0.2-0.5-0.6-0.8-1.1-1c-0.3-0.1-0.5-0.1-0.9-0.1h-3.3v3.7h3c0.4,0,0.8,0,1.2-0.1
				c0.9-0.2,1.2-1,1.2-1.8C188.5,56.3,188.5,56,188.4,55.6z"/>
			<path class="st3" d="M191.1,64.1V53.4h1.4v9.4h5.2v1.3H191.1z"/>
			<path class="st3" d="M206.1,64.1l-1.2-3.3h-4.1l-1.2,3.3h-1.5l4.1-10.7h1.5l3.9,10.7H206.1z M202.9,55.1l-1.6,4.5h3.2L202.9,55.1
				z"/>
			<path class="st3" d="M211.5,54.6v9.5H210v-9.5h-3.2v-1.2h7.8v1.2H211.5z"/>
			<path class="st3" d="M221.9,64.1l-1.2-3.3h-4.1l-1.2,3.3h-1.5l4.1-10.7h1.5l3.9,10.7H221.9z M218.7,55.1l-1.6,4.5h3.2L218.7,55.1
				z"/>
		</g>
	</g>
	<g>
		<g>
			<path class="st3" d="M314.1,49.4l-5.9-8.7l0.1,8.7H307V38.7h1.4l5.8,8.6l-0.1-8.6h1.3v10.7H314.1z"/>
			<path class="st3" d="M317.6,49.4V38.7h1.4v10.7H317.6z"/>
			<path class="st3" d="M325.3,49.4h-1.4l-3.6-10.7h1.5l2.8,8.9l2.9-8.9h1.5L325.3,49.4z"/>
			<path class="st3" d="M330.4,49.4V38.7h7.4v1.3h-6v3.3h5.2v1.2h-5.2v3.7h6.2v1.2H330.4z"/>
			<path class="st3" d="M339.4,49.4V38.7h1.4v9.4h5.2v1.3H339.4z"/>
			<path class="st3" d="M319.1,62.4c-0.6,0.8-1.9,2-4.3,2c-0.7,0-2.3-0.1-3.7-1.4c-0.7-0.7-1.7-2-1.7-4.3c0-0.6,0-2.5,1.3-3.9
				c1-1.1,2.6-1.7,4.1-1.7c0.7,0,1.5,0.1,2.1,0.4c2.2,0.9,3.3,2.9,3.3,5.2C320.3,59.2,320.2,60.9,319.1,62.4z M317.9,55.7
				c-1-1.3-2.4-1.4-3-1.4c-1.7,0-2.6,0.9-3,1.5c-0.6,0.8-0.8,2-0.8,3c0,1.4,0.4,2.4,0.7,2.8c0.3,0.4,0.6,0.7,0.7,0.8
				c0.4,0.4,0.8,0.5,1,0.6c0.3,0.1,0.7,0.2,1.5,0.2c0.3,0,0.9,0,1.6-0.3c1-0.5,2.2-1.7,2.2-4.3C318.7,58.3,318.7,56.8,317.9,55.7z"
				/>
			<path class="st3" d="M329.3,64.1l-2.9-4.6h-2.8v4.6h-1.4V53.4h4c0.3,0,0.7,0,1,0c1.5,0.1,2.2,0.5,2.6,1.1c0.3,0.3,0.7,1,0.7,2
				c0,0.4-0.1,1.9-1.4,2.6c-0.3,0.1-0.5,0.2-1.1,0.3l3,4.6H329.3z M328.2,54.9c-0.6-0.3-1.2-0.3-1.9-0.3h-2.8v3.8h2.9
				c0.8,0,1.8,0,2.3-0.7c0.2-0.3,0.3-0.7,0.3-1.1C329.1,56.2,329.1,55.4,328.2,54.9z"/>
			<path class="st3" d="M341.6,62.4c-0.6,0.8-1.9,2-4.3,2c-0.7,0-2.3-0.1-3.7-1.4c-0.7-0.7-1.7-2-1.7-4.3c0-0.6,0-2.5,1.3-3.9
				c1-1.1,2.6-1.7,4.1-1.7c0.7,0,1.5,0.1,2.1,0.4c2.2,0.9,3.3,2.9,3.3,5.2C342.7,59.2,342.6,60.9,341.6,62.4z M340.3,55.7
				c-1-1.3-2.4-1.4-3-1.4c-1.7,0-2.6,0.9-3,1.5c-0.6,0.8-0.8,2-0.8,3c0,1.4,0.4,2.4,0.7,2.8c0.3,0.4,0.6,0.7,0.7,0.8
				c0.4,0.4,0.8,0.5,1,0.6c0.3,0.1,0.7,0.2,1.5,0.2c0.3,0,0.9,0,1.6-0.3c1-0.5,2.2-1.7,2.2-4.3C341.1,58.3,341.1,56.8,340.3,55.7z"
				/>
		</g>
	</g>
</g>
</svg>
