<?xml version="1.0" encoding="utf-8"?>
<!-- Generator: Adobe Illustrator 26.0.1, SVG Export Plug-In . SVG Version: 6.00 Build 0)  -->
<svg version="1.1" id="Capa_1" xmlns="http://www.w3.org/2000/svg" xmlns:xlink="http://www.w3.org/1999/xlink" x="0px" y="0px"
	 viewBox="0 0 1000 532.4" style="enable-background:new 0 0 1000 532.4;" xml:space="preserve">
<style type="text/css">
	.st0{fill:url(#SVGID_1_);}
	.st1{fill:url(#SVGID_00000102539963062951283370000007769209140945113776_);}
	.st2{fill:url(#SVGID_00000105409844051328222690000005313598596462877097_);}
	.st3{fill:#FFFFFF;}
	.st4{fill:url(#SVGID_00000039131530031088963000000004782735428962848391_);}
	.st5{fill:url(#SVGID_00000013175815015619000240000008749617953622473406_);}
	.st6{opacity:0.1;fill:#000100;}
	.st7{opacity:0;fill:#000100;}
	.st8{opacity:0.2;fill:#FFFFFF;}
	.st9{fill:#585857;}
	.st10{fill:url(#SVGID_00000032606573394899320230000004683796259352079775_);}
	.st11{fill:url(#SVGID_00000088103194871553799680000002956361492897521339_);}
	.st12{fill:url(#SVGID_00000039121829622931107290000002372984140029250184_);}
	.st13{fill:url(#SVGID_00000145017730057056200220000009930996220378282143_);}
	.st14{fill:url(#SVGID_00000168104131327036745210000015183347103793653143_);}
</style>
<linearGradient id="SVGID_1_" gradientUnits="userSpaceOnUse" x1="232.8907" y1="188.5243" x2="783.0311" y2="188.5243">
	<stop  offset="0" style="stop-color:#1470B5"/>
	<stop  offset="1" style="stop-color:#1E2D52"/>
</linearGradient>
<path class="st0" d="M756.4,29.6H551.1h-86.3H259.5c-14.7,0-26.6,10.5-26.6,23.5V324c0,13,11.9,23.5,26.6,23.5h205.3l0,0h86.3h205.3
	c14.7,0,26.6-10.5,26.6-23.5V53.1C783,40.1,771.1,29.6,756.4,29.6z"/>
<g>
	
		<image style="overflow:visible;" width="3486" height="1686" xlink:href="FDA748D212FD1381.png"  transform="matrix(0.24 0 0 0.24 94.08 78)">
	</image>
</g>
<linearGradient id="SVGID_00000173155026901427642730000002637911944862746796_" gradientUnits="userSpaceOnUse" x1="776.528" y1="85.1709" x2="776.528" y2="462.7254">
	<stop  offset="0" style="stop-color:#1470B5"/>
	<stop  offset="1" style="stop-color:#1E2D52"/>
</linearGradient>
<path style="fill:url(#SVGID_00000173155026901427642730000002637911944862746796_);" d="M914.1,439.2V108.7
	c0-13-10.6-23.5-23.7-23.5H638.9v377.6l0,0h251.5C903.5,462.7,914.1,452.2,914.1,439.2z"/>
<linearGradient id="SVGID_00000101788787047601332900000014141543736696511410_" gradientUnits="userSpaceOnUse" x1="1829.3152" y1="85.1709" x2="1829.3152" y2="462.7254" gradientTransform="matrix(-1 0 0 1 2073.3848 0)">
	<stop  offset="0" style="stop-color:#1470B5"/>
	<stop  offset="1" style="stop-color:#1E2D52"/>
</linearGradient>
<path style="fill:url(#SVGID_00000101788787047601332900000014141543736696511410_);" d="M103.7,439.2V108.7
	c0-13,10.5-23.5,23.5-23.5h257.2v377.6l0,0H127.2C114.2,462.7,103.7,452.2,103.7,439.2z"/>
<g>
	<g>
		<path class="st3" d="M216.6,148.4l-12.3-18.2l0.3,18.2h-2.8V126h2.8l12.1,18l-0.1-18h2.7v22.4H216.6z"/>
		<path class="st3" d="M223.9,148.4V126h3v22.4H223.9z"/>
		<path class="st3" d="M239.9,148.4h-3l-7.6-22.4h3.2l5.9,18.7l6.2-18.7h3.2L239.9,148.4z"/>
		<path class="st3" d="M250.7,148.4V126h15.4v2.6h-12.6v6.9h10.9v2.6h-10.9v7.6h12.9v2.6H250.7z"/>
		<path class="st3" d="M269.5,148.4V126h3v19.7h10.8v2.7H269.5z"/>
		<path class="st3" d="M190.4,178.7c-1.3,0.4-2.3,0.4-4.8,0.4h-8.8v-22.4h10.5c1.8,0,3.4,0.4,4.8,1.6c1.2,1,1.8,2.5,1.8,4.1
			c0,1.5-0.5,2.7-1.5,3.7c-0.5,0.4-1,0.8-1.2,0.9c-0.1,0.1-0.3,0.2-0.7,0.3c0.6,0.2,1.2,0.4,1.8,0.8c1,0.6,2.3,2,2.3,4.8
			C194.6,176.9,191.8,178.3,190.4,178.7z M189.4,159.9c-0.9-0.5-1.6-0.6-3.5-0.6h-6.4v6.8h4.7c1.9,0,3.4,0,4.1-0.2
			c0.8-0.2,2.4-1,2.4-3.3C190.8,162,190.8,160.7,189.4,159.9z M191.3,171.1c-0.3-0.6-1-1.8-2.7-2.2c-1-0.2-1.6-0.2-3.5-0.2h-5.5v7.8
			h6.6c1.2,0,2.3-0.1,2.7-0.2c0.2,0,0.7-0.2,1.1-0.4c0.7-0.4,1.5-1.2,1.5-3.1C191.6,172.4,191.6,171.7,191.3,171.1z"/>
		<path class="st3" d="M213.4,179.1l-6.1-9.5h-5.8v9.5h-2.9v-22.4h8.3c0.7,0,1.4,0,2.1,0c3.1,0.1,4.6,1.1,5.5,2.3
			c0.6,0.7,1.4,2.1,1.4,4.3c0,0.9-0.1,4-3,5.4c-0.5,0.3-1.1,0.5-2.3,0.7l6.3,9.7H213.4z M211.3,159.8c-1.2-0.7-2.6-0.6-3.9-0.6h-5.8
			v7.9h6c1.7,0,3.7,0,4.8-1.5c0.5-0.7,0.7-1.5,0.7-2.3C213,162.6,213,160.8,211.3,159.8z"/>
		<path class="st3" d="M239.1,175.5c-1.2,1.6-3.9,4.2-9,4.2c-1.4,0-4.8-0.2-7.7-2.9c-1.5-1.4-3.5-4.1-3.5-8.9c0-1.3,0.1-5.1,2.8-8.2
			c2.1-2.4,5.4-3.5,8.5-3.5c1.5,0,3,0.3,4.4,0.8c4.7,1.8,6.8,6,6.8,10.8C241.5,168.9,241.4,172.5,239.1,175.5z M236.5,161.5
			c-2.1-2.8-5.1-3-6.3-3c-3.6,0-5.5,1.8-6.3,3.1c-1.2,1.8-1.7,4.2-1.7,6.3c0,3,0.9,4.9,1.5,5.9c0.5,0.8,1.2,1.5,1.4,1.7
			c0.9,0.8,1.7,1.1,2.2,1.3c0.6,0.2,1.5,0.5,3,0.5c0.6,0,2,0,3.4-0.7c2.2-1,4.6-3.6,4.6-8.9C238.3,166.9,238.3,163.9,236.5,161.5z"
			/>
		<path class="st3" d="M260.4,179.1l-12.3-18.2l0.3,18.2h-2.8v-22.4h2.8l12.1,18l-0.1-18h2.7v22.4H260.4z"/>
		<path class="st3" d="M288.5,172.7c-0.6,1.5-2.5,5.1-6.9,6.4c-1.6,0.5-3,0.5-3.6,0.5c-4,0-6.2-1.6-7.4-2.7
			c-1.5-1.4-3.5-4.2-3.5-9.1c0-7,4.2-11.8,11.3-11.8c1.3,0,5.5,0.1,8.2,3.3c0.9,1.1,1.5,2.2,2,3.5l-3,0.6c-0.4-1.1-0.7-1.7-1-2.1
			c-0.8-1.1-2.7-3-6.2-3c-0.5,0-1.9,0.1-3.3,0.6c-4.7,2-4.7,7.4-4.7,8.6c0,5.4,2.6,7.9,4.8,8.9c0.6,0.2,1.6,0.6,3.3,0.6
			c0.4,0,1.3,0,2.3-0.3c0.9-0.3,3-1.1,4.2-3.4c0.3-0.7,0.6-1.4,0.9-2.9l3.2,0.4C289,171.3,288.8,171.9,288.5,172.7z"/>
		<path class="st3" d="M292.3,179.1v-22.4h15.4v2.6h-12.6v6.9H306v2.6h-10.9v7.6h12.9v2.6H292.3z"/>
	</g>
</g>
<g>
	<g>
		<path class="st3" d="M281.4,68.2c-1.9,1-4.3,0.9-6.3,0.9h-8V46.7h9.3c0.5,0,1,0,1.5,0c0.8,0,3.2,0.1,4.8,2.2c1,1.3,1,2.8,1,3.3
			c0,0.7-0.1,2.7-2,4c-0.9,0.6-1.6,0.8-2,0.8c3,0.6,4.8,2.6,4.8,5.7C284.4,63.7,284.2,66.7,281.4,68.2z M280.8,50
			c-1.1-1.6-3.2-1.5-4.9-1.5h-6.7v7.6h6.3c1.7,0,3.9,0.1,5.1-1.5c0.5-0.7,0.8-1.6,0.8-2.4C281.5,51.8,281.4,50.9,280.8,50z
			 M280,58.8c-1.4-0.8-3-0.8-4.6-0.8h-6.2v9.1h5.7c1.9,0,3.4,0,4.2-0.2c1-0.2,3.2-1.2,3.2-4.1C282.3,62,282.1,60,280,58.8z"/>
		<path class="st3" d="M299.7,67c-0.8,1-2.3,2.4-5.4,2.4c-0.5,0-2.1,0-3.5-0.8c-3.6-1.9-3.7-6.3-3.7-7.3c0-0.5,0-1.7,0.5-3.1
			c1-2.9,3.5-4.7,6.5-4.7c0.9,0,3.1,0.2,4.9,2.2c1.2,1.4,2,3.5,2,5.3v0.5h-11.7c0,1.2,0.1,2,0.3,2.5c0.3,1.2,1.4,3.7,4.9,3.7
			c1.3,0,3.4-0.3,4.9-3.2l1.7,0.5C300.7,65.4,300.4,66.2,299.7,67z M294.1,55.2c-2.6,0-3.9,1.8-4.3,2.6c-0.3,0.6-0.5,1.4-0.6,2.1
			h9.5C298.3,56.1,295.7,55.2,294.1,55.2z"/>
		<path class="st3" d="M314.5,69.1v-7.9c0-2,0-3.2-0.3-4.1c-0.3-0.8-0.9-1.1-1.1-1.3c-0.9-0.5-1.7-0.5-2.1-0.5s-1.2,0-2,0.4
			c-1.1,0.5-2,1.7-2.3,2.9c-0.2,0.7-0.2,2-0.2,3.8v6.6h-1.9V53.9h1.9v2.7c0.1-0.4,0.3-1,1.1-1.7c0.6-0.6,1.7-1.3,3.7-1.3
			c2.8,0,4.1,1.6,4.6,2.6c0.6,1.2,0.5,2.4,0.5,5v7.9H314.5z"/>
		<path class="st3" d="M332.8,67c-0.8,1-2.3,2.4-5.4,2.4c-0.5,0-2.1,0-3.5-0.8c-3.6-1.9-3.7-6.3-3.7-7.3c0-0.5,0-1.7,0.5-3.1
			c1-2.9,3.5-4.7,6.5-4.7c0.9,0,3.1,0.2,4.9,2.2c1.2,1.4,2,3.5,2,5.3v0.5h-11.7c0,1.2,0.1,2,0.3,2.5c0.3,1.2,1.4,3.7,4.9,3.7
			c1.3,0,3.4-0.3,4.9-3.2l1.7,0.5C333.8,65.4,333.4,66.2,332.8,67z M327.1,55.2c-2.6,0-3.9,1.8-4.3,2.6c-0.3,0.6-0.5,1.4-0.6,2.1
			h9.5C331.4,56.1,328.8,55.2,327.1,55.2z"/>
		<path class="st3" d="M340.2,55.5v13.5h-1.9V55.5H335v-1.6h3.3V51c0-1.6-0.1-2.1,0.2-2.9c0.3-1,1-1.9,3.2-1.9
			c0.7,0,1.2,0.1,1.9,0.2v1.8c-0.3-0.1-0.9-0.4-1.8-0.4c-0.6,0-0.9,0.2-1.1,0.4c-0.6,0.6-0.5,1.2-0.5,2.6v3h3.4v1.6H340.2z"/>
		<path class="st3" d="M346.6,50.4v-2.9h1.8v2.9H346.6z M346.6,69.1V53.9h1.8v15.1H346.6z"/>
		<path class="st3" d="M363.6,68c-0.7,0.6-2.1,1.5-4.4,1.5c-0.8,0-2.9-0.1-4.6-1.7c-2.3-2.1-2.3-5.3-2.3-6.1c0-1.1,0.1-2.1,0.5-3.1
			c1-3.1,3.5-4.9,6.8-4.9c2.4,0,3.7,0.9,4.4,1.7c0.9,0.9,1.2,1.7,1.3,2.1l-1.7,0.4c-0.7-1.7-2.3-2.5-4.1-2.5c-0.6,0-1.9,0.1-3.1,1.1
			c-2,1.7-2,4.5-2,5.2c0,0.4,0.1,3,1.4,4.7c0.2,0.3,0.7,0.7,1.5,1.1c0.4,0.2,1,0.4,2.1,0.4c1.9,0,3.2-0.9,4.1-2.5l1.9,0.4
			C364.8,66.6,364.3,67.3,363.6,68z"/>
		<path class="st3" d="M368.4,50.4v-2.9h1.8v2.9H368.4z M368.4,69.1V53.9h1.8v15.1H368.4z"/>
		<path class="st3" d="M387.3,64.5c-1,3-3.3,5-6.5,5c-1,0-3.5-0.2-5.2-2.5c-0.7-0.9-1.6-2.5-1.6-5.2c0-0.7,0-2.2,0.7-3.8
			c1.5-3.8,4.7-4.3,6.2-4.3c1.7,0,3.2,0.5,4.4,1.7c1.7,1.6,2.3,3.9,2.4,6.2C387.7,61.9,387.7,63.1,387.3,64.5z M380.9,55.1
			c-0.5,0-1.6,0.1-2.7,0.9c-1.2,0.9-2.2,2.5-2.2,5.7c0,0.6-0.1,3.6,2,5.2c0.5,0.4,1.4,0.9,2.8,0.9c2.2,0,4.9-1.4,4.9-6.2
			C385.8,56.7,383.3,55.1,380.9,55.1z"/>
		<path class="st3" d="M401.5,66.8c-0.6,1.1-2.1,2.6-5.2,2.6c-0.9,0-3.4-0.1-5.1-2.3c-0.5-0.6-0.7-1.1-1-1.8l1.8-0.6
			c0.3,1,1.4,3,4.2,3c1.4,0,2.3-0.4,2.8-0.8c0.7-0.5,1.1-1.4,1.1-2.2c0-0.5-0.2-1-0.4-1.3c-0.5-0.7-1.2-1-2.9-1.4
			c-1.5-0.3-3.8-0.6-4.9-1.9c-0.5-0.6-0.8-1.6-0.8-2.4c0-0.5,0.2-1.9,1.3-3c1-1,2.8-1.3,4.1-1.3c0.4,0,2.3,0,3.7,1
			c1.2,0.8,1.5,1.9,1.6,2.4l-1.8,0.5c-0.3-1.7-2.2-2.3-3.7-2.3c-1.2,0-2.1,0.3-2.5,0.6c-0.1,0.1-0.4,0.3-0.7,0.7
			c-0.3,0.5-0.3,1.1-0.3,1.3c0,1.8,1.9,2.2,3.2,2.4l1.6,0.3c1.4,0.3,2.6,0.8,3.5,2c0.7,1,0.7,1.9,0.7,2.3
			C402,65.1,401.9,66,401.5,66.8z"/>
		<path class="st3" d="M429.5,53c-0.2-0.8-0.5-1.6-0.9-2.3c-0.8-1.2-2.2-2.7-5.5-2.7c-0.5,0-2.1,0-3.5,0.7c-1.1,0.6-2,1.6-2.6,2.7
			c-0.7,1.3-1.4,3.1-1.4,6.3c0,0.7,0,2.2,0.4,4c0.4,2.1,1.8,6,7.4,6c2,0,3.6-0.6,4.9-2.3c0.8-1.1,1.1-1.9,1.2-2.5l2,1.2
			c-1.1,2.4-2.6,3.7-3.5,4.3c-0.9,0.5-2.4,1.2-4.8,1.2c-1.2,0-4.9-0.1-7.3-3.2c-2.4-3-2.4-7.6-2.4-8.4c0-1.1,0-5.8,2.8-9
			c1.1-1.3,2.4-1.9,2.9-2.2c0.7-0.3,2-0.7,3.9-0.7c1.2,0,2.5,0.2,3.7,0.6c2.6,0.9,4,2.8,5,5.2L429.5,53z"/>
		<path class="st3" d="M445.3,69.1v-2.7c-0.3,0.6-0.4,0.9-0.6,1.1c-1.4,1.9-3.4,2-4.2,2c-0.3,0-1,0-1.8-0.3
			c-1.4-0.4-2.4-1.6-2.9-2.9c-0.3-1-0.4-2.5-0.4-4.9v-7.4h1.9v7.8c0,1.8,0,2.8,0.3,3.7c0.3,0.9,0.9,2.2,3.1,2.2c0.8,0,2.4,0,3.6-1.7
			c1.1-1.6,1-3.6,1-5.4v-6.6h1.9v15.1H445.3z"/>
		<path class="st3" d="M463.5,67c-0.8,1-2.3,2.4-5.4,2.4c-0.5,0-2.1,0-3.5-0.8c-3.6-1.9-3.7-6.3-3.7-7.3c0-0.5,0-1.7,0.5-3.1
			c1-2.9,3.5-4.7,6.5-4.7c0.9,0,3.1,0.2,4.9,2.2c1.2,1.4,2,3.5,2,5.3v0.5H453c0,1.2,0.1,2,0.3,2.5c0.3,1.2,1.4,3.7,4.9,3.7
			c1.3,0,3.4-0.3,4.9-3.2l1.7,0.5C464.6,65.4,464.2,66.2,463.5,67z M457.9,55.2c-2.6,0-3.9,1.8-4.3,2.6c-0.3,0.6-0.5,1.4-0.6,2.1
			h9.5C462.1,56.1,459.5,55.2,457.9,55.2z"/>
		<path class="st3" d="M478.3,69.1v-7.9c0-2,0-3.2-0.3-4.1c-0.3-0.8-0.9-1.1-1.1-1.3c-0.9-0.5-1.7-0.5-2.1-0.5c-0.3,0-1.2,0-2,0.4
			c-1.1,0.5-2,1.7-2.3,2.9c-0.2,0.7-0.2,2-0.2,3.8v6.6h-1.9V53.9h1.9v2.7c0.1-0.4,0.3-1,1.1-1.7c0.6-0.6,1.7-1.3,3.7-1.3
			c2.8,0,4.1,1.6,4.6,2.6c0.6,1.2,0.5,2.4,0.5,5v7.9H478.3z"/>
		<path class="st3" d="M489,69.4c-0.2,0-0.3,0-0.5,0c-0.4,0-1.6-0.1-2-1.3c-0.3-0.7-0.2-2.3-0.2-3v-9.5h-3.2v-1.6h3.2v-6.4h1.8v6.4
			h3.3v1.6H488v8.3c0,0.5,0,1.1,0,1.6c0,0.9,0,2.2,1.2,2.2c0.8,0,1.5-0.5,2.1-1v1.9C491,68.9,490.2,69.4,489,69.4z"/>
		<path class="st3" d="M504.1,68.3c-0.6-0.6-0.6-1.2-0.7-2c-0.2,0.5-0.4,0.9-0.8,1.3c-0.6,0.7-2.2,1.8-4.6,1.8c-1.9,0-3-0.7-3.6-1.3
			c-0.4-0.4-1.1-1.4-1.1-2.8c0-0.4,0.1-1.5,0.8-2.4c1.1-1.4,3-1.8,4.7-2.3c1-0.3,1.9-0.5,2.9-0.7l1.8-0.4v-0.8c0-0.6,0-0.9-0.2-1.5
			c-0.3-1-1.2-2-3.5-2c-1.9,0-2.9,0.5-3.4,1.3c-0.5,0.7-0.5,1.5-0.6,2.3l-2.1-0.3c0.1-0.3,0.3-1.6,0.9-2.6c0.7-1,2.2-2.3,5-2.3
			c1.5,0,3.6,0.4,4.6,1.6c1,1.2,0.9,2.8,0.9,4.3v4.9c0,1.5,0,2.5,0.5,2.9c0.5,0.4,1.2,0.3,1.7,0.3v1.5
			C505.7,69.1,504.7,68.9,504.1,68.3z M503.4,61.1l-1,0.3c-3,0.8-5.5,1.4-6.4,2.1c-0.6,0.4-1,1.1-1,1.8c0,0.5,0.2,1,0.3,1.1
			c0.7,1.4,2.4,1.4,2.8,1.4c1.8,0,4.1-1.1,4.9-2.9c0.3-0.6,0.4-1.3,0.4-2.7V61.1z"/>
		<path class="st3" d="M528.6,68c-0.7,0.6-2.1,1.5-4.4,1.5c-0.8,0-2.9-0.1-4.6-1.7c-2.3-2.1-2.3-5.3-2.3-6.1c0-1.1,0.1-2.1,0.5-3.1
			c1-3.1,3.5-4.9,6.8-4.9c2.4,0,3.7,0.9,4.4,1.7c0.9,0.9,1.2,1.7,1.3,2.1l-1.7,0.4c-0.7-1.7-2.3-2.5-4.1-2.5c-0.6,0-1.9,0.1-3.1,1.1
			c-2,1.7-2,4.5-2,5.2c0,0.4,0.1,3,1.4,4.7c0.2,0.3,0.7,0.7,1.5,1.1c0.4,0.2,1,0.4,2.1,0.4c1.9,0,3.2-0.9,4.1-2.5l1.9,0.4
			C529.9,66.6,529.4,67.3,528.6,68z"/>
		<path class="st3" d="M545.8,64.5c-1,3-3.3,5-6.5,5c-1,0-3.5-0.2-5.2-2.5c-0.7-0.9-1.6-2.5-1.6-5.2c0-0.7,0-2.2,0.7-3.8
			c1.5-3.8,4.7-4.3,6.2-4.3c1.7,0,3.2,0.5,4.4,1.7c1.7,1.6,2.3,3.9,2.4,6.2C546.2,61.9,546.2,63.1,545.8,64.5z M539.4,55.1
			c-0.5,0-1.6,0.1-2.7,0.9c-1.2,0.9-2.2,2.5-2.2,5.7c0,0.6-0.1,3.6,2,5.2c0.5,0.4,1.4,0.9,2.8,0.9c2.2,0,4.9-1.4,4.9-6.2
			C544.3,56.7,541.8,55.1,539.4,55.1z"/>
		<path class="st3" d="M559.9,69.1v-7.9c0-2,0-3.2-0.3-4.1c-0.3-0.8-0.9-1.1-1.1-1.3c-0.9-0.5-1.7-0.5-2.1-0.5c-0.3,0-1.2,0-2,0.4
			c-1.1,0.5-2,1.7-2.3,2.9c-0.2,0.7-0.2,2-0.2,3.8v6.6H550V53.9h1.9v2.7c0.1-0.4,0.3-1,1.1-1.7c0.6-0.6,1.7-1.3,3.7-1.3
			c2.8,0,4.1,1.6,4.6,2.6c0.6,1.2,0.5,2.4,0.5,5v7.9H559.9z"/>
		<path class="st3" d="M585.1,68c-0.7,0.6-2.1,1.5-4.4,1.5c-0.8,0-2.9-0.1-4.6-1.7c-2.3-2.1-2.3-5.3-2.3-6.1c0-1.1,0.1-2.1,0.5-3.1
			c1-3.1,3.5-4.9,6.8-4.9c2.4,0,3.7,0.9,4.4,1.7c0.9,0.9,1.2,1.7,1.3,2.1l-1.7,0.4c-0.7-1.7-2.3-2.5-4.1-2.5c-0.6,0-1.9,0.1-3.1,1.1
			c-2,1.7-2,4.5-2,5.2c0,0.4,0.1,3,1.4,4.7c0.2,0.3,0.7,0.7,1.5,1.1c0.4,0.2,1,0.4,2.1,0.4c1.9,0,3.2-0.9,4.1-2.5l1.9,0.4
			C586.3,66.6,585.8,67.3,585.1,68z"/>
		<path class="st3" d="M602.2,64.5c-1,3-3.3,5-6.5,5c-1,0-3.5-0.2-5.2-2.5c-0.7-0.9-1.6-2.5-1.6-5.2c0-0.7,0-2.2,0.7-3.8
			c1.5-3.8,4.7-4.3,6.2-4.3c1.7,0,3.2,0.5,4.4,1.7c1.7,1.6,2.3,3.9,2.4,6.2C602.6,61.9,602.6,63.1,602.2,64.5z M595.8,55.1
			c-0.5,0-1.6,0.1-2.7,0.9c-1.2,0.9-2.2,2.5-2.2,5.7c0,0.6-0.1,3.6,2,5.2c0.5,0.4,1.4,0.9,2.8,0.9c2.2,0,4.9-1.4,4.9-6.2
			C600.7,56.7,598.2,55.1,595.8,55.1z"/>
		<path class="st3" d="M606.4,69.1V46.7h1.9v22.4H606.4z"/>
		<path class="st3" d="M622.8,68.3c-0.6-0.6-0.6-1.2-0.7-2c-0.2,0.5-0.4,0.9-0.8,1.3c-0.6,0.7-2.2,1.8-4.6,1.8c-1.9,0-3-0.7-3.6-1.3
			c-0.4-0.4-1.1-1.4-1.1-2.8c0-0.4,0.1-1.5,0.8-2.4c1.1-1.4,3-1.8,4.7-2.3c1-0.3,1.9-0.5,2.9-0.7l1.8-0.4v-0.8c0-0.6,0-0.9-0.2-1.5
			c-0.3-1-1.2-2-3.5-2c-1.9,0-2.9,0.5-3.4,1.3c-0.5,0.7-0.5,1.5-0.6,2.3l-2.1-0.3c0.1-0.3,0.3-1.6,0.9-2.6c0.7-1,2.2-2.3,5-2.3
			c1.5,0,3.6,0.4,4.6,1.6c1,1.2,0.9,2.8,0.9,4.3v4.9c0,1.5,0,2.5,0.5,2.9c0.5,0.4,1.2,0.3,1.7,0.3v1.5
			C624.4,69.1,623.5,68.9,622.8,68.3z M622.2,61.1l-1,0.3c-3,0.8-5.5,1.4-6.4,2.1c-0.6,0.4-1,1.1-1,1.8c0,0.5,0.2,1,0.3,1.1
			c0.7,1.4,2.4,1.4,2.8,1.4c1.8,0,4.1-1.1,4.9-2.9c0.3-0.6,0.4-1.3,0.4-2.7V61.1z"/>
		<path class="st3" d="M640.1,67.2c-0.5,0.7-1,1.1-1.3,1.2c-0.6,0.4-1.6,1-3.4,1c-0.6,0-1.7,0-3-0.9c-0.2-0.1-0.7-0.5-1.2-1.1
			c-0.3-0.3-0.4-0.7-0.6-1v2.7h-1.8V46.7h1.8v9.8c0.1-0.2,0.2-0.4,0.3-0.6c0.5-0.8,1.8-2.3,4.3-2.3c2.1,0,3.3,1,3.9,1.5
			c1.7,1.7,2.4,4.3,2.4,6.6C641.6,62.4,641.6,65.1,640.1,67.2z M639.3,59c-0.8-3.1-2.9-3.7-4.3-3.7c-1.1,0-1.9,0.4-2.3,0.6
			c-1.2,0.8-2.1,2.4-2.1,5.5c0,1.4,0.2,2.3,0.3,2.9c0.3,0.9,1.1,3.4,4.2,3.4c0.7,0,2.3-0.1,3.4-1.7c0.5-0.7,1-2.2,1-4.3
			C639.6,61.4,639.6,60.2,639.3,59z"/>
		<path class="st3" d="M657.7,64.5c-1,3-3.3,5-6.5,5c-1,0-3.5-0.2-5.2-2.5c-0.7-0.9-1.6-2.5-1.6-5.2c0-0.7,0-2.2,0.7-3.8
			c1.5-3.8,4.7-4.3,6.2-4.3c1.7,0,3.2,0.5,4.4,1.7c1.7,1.6,2.3,3.9,2.4,6.2C658.1,61.9,658.1,63.1,657.7,64.5z M651.3,55.1
			c-0.5,0-1.6,0.1-2.7,0.9c-1.2,0.9-2.2,2.5-2.2,5.7c0,0.6-0.1,3.6,2,5.2c0.5,0.4,1.4,0.9,2.8,0.9c2.2,0,4.9-1.4,4.9-6.2
			C656.2,56.7,653.7,55.1,651.3,55.1z"/>
		<path class="st3" d="M669.2,55.5c-0.4-0.1-0.7-0.1-1.2-0.1c-2.3,0-3.7,1.4-4.1,3.6c-0.1,0.8-0.2,1.8-0.2,3.6v6.5h-1.9V53.9h1.9
			v2.4c0.1-0.3,0.3-0.5,0.4-0.8c0.2-0.3,0.8-1.1,1.8-1.5c0.4-0.2,1.1-0.4,2.2-0.4c0.3,0,0.6,0,1.1,0.1L669.2,55.5z"/>
		<path class="st3" d="M681.7,68.3c-0.6-0.6-0.6-1.2-0.7-2c-0.2,0.5-0.4,0.9-0.8,1.3c-0.6,0.7-2.2,1.8-4.6,1.8c-1.9,0-3-0.7-3.6-1.3
			c-0.4-0.4-1.1-1.4-1.1-2.8c0-0.4,0.1-1.5,0.8-2.4c1.1-1.4,3-1.8,4.7-2.3c1-0.3,1.9-0.5,2.9-0.7l1.8-0.4v-0.8c0-0.6,0-0.9-0.2-1.5
			c-0.3-1-1.2-2-3.5-2c-1.9,0-2.9,0.5-3.4,1.3c-0.5,0.7-0.5,1.5-0.6,2.3l-2.1-0.3c0.1-0.3,0.3-1.6,0.9-2.6c0.7-1,2.2-2.3,5-2.3
			c1.5,0,3.6,0.4,4.6,1.6c1,1.2,0.9,2.8,0.9,4.3v4.9c0,1.5,0,2.5,0.5,2.9c0.5,0.4,1.2,0.3,1.7,0.3v1.5
			C683.3,69.1,682.3,68.9,681.7,68.3z M681,61.1l-1,0.3c-3,0.8-5.5,1.4-6.4,2.1c-0.6,0.4-1,1.1-1,1.8c0,0.5,0.2,1,0.3,1.1
			c0.7,1.4,2.4,1.4,2.8,1.4c1.8,0,4.1-1.1,4.9-2.9c0.3-0.6,0.4-1.3,0.4-2.7V61.1z"/>
		<path class="st3" d="M697.6,69.1v-2.7c-0.7,2-2.6,3.1-4.7,3.1c-0.6,0-1.9-0.1-3.1-1c-3-2-3.1-6.2-3.1-7c0-0.9,0.1-5,3.3-6.9
			c0.5-0.3,1.7-0.9,3.3-0.9c1.2,0,2.5,0.4,3.4,1.2c0.7,0.7,0.9,1.1,1,1.5v-9.7h1.8v22.4H697.6z M695.8,56.1
			c-0.4-0.3-1.3-0.8-2.5-0.8c-0.4,0-1.1,0-2,0.4c-1.3,0.7-2.6,2.4-2.6,5.7c0,0.5-0.1,6.2,4.5,6.2c1.2,0,2.1-0.3,3-1.1
			c1.2-1.3,1.4-3.2,1.5-4.9C697.7,58.6,697.1,57,695.8,56.1z"/>
		<path class="st3" d="M716.6,64.5c-1,3-3.3,5-6.5,5c-1,0-3.5-0.2-5.2-2.5c-0.7-0.9-1.6-2.5-1.6-5.2c0-0.7,0-2.2,0.7-3.8
			c1.5-3.8,4.7-4.3,6.2-4.3c1.7,0,3.2,0.5,4.4,1.7c1.7,1.6,2.3,3.9,2.4,6.2C717,61.9,717,63.1,716.6,64.5z M710.1,55.1
			c-0.5,0-1.6,0.1-2.7,0.9c-1.2,0.9-2.2,2.5-2.2,5.7c0,0.6-0.1,3.6,2,5.2c0.5,0.4,1.4,0.9,2.8,0.9c2.2,0,4.9-1.4,4.9-6.2
			C715,56.7,712.5,55.1,710.1,55.1z"/>
		<path class="st3" d="M728,55.5c-0.4-0.1-0.7-0.1-1.2-0.1c-2.3,0-3.7,1.4-4.1,3.6c-0.1,0.8-0.2,1.8-0.2,3.6v6.5h-1.9V53.9h1.9v2.4
			c0.1-0.3,0.3-0.5,0.4-0.8c0.2-0.3,0.8-1.1,1.8-1.5c0.4-0.2,1.1-0.4,2.2-0.4c0.3,0,0.6,0,1.1,0.1L728,55.5z"/>
		<path class="st3" d="M742.3,67c-0.8,1-2.3,2.4-5.4,2.4c-0.5,0-2.1,0-3.5-0.8c-3.6-1.9-3.7-6.3-3.7-7.3c0-0.5,0-1.7,0.5-3.1
			c1-2.9,3.5-4.7,6.5-4.7c0.9,0,3.1,0.2,4.9,2.2c1.2,1.4,2,3.5,2,5.3v0.5h-11.7c0,1.2,0.1,2,0.3,2.5c0.3,1.2,1.4,3.7,4.9,3.7
			c1.3,0,3.4-0.3,4.9-3.2l1.7,0.5C743.3,65.4,742.9,66.2,742.3,67z M736.6,55.2c-2.6,0-3.9,1.8-4.3,2.6c-0.3,0.6-0.5,1.4-0.6,2.1
			h9.5C740.9,56.1,738.3,55.2,736.6,55.2z"/>
		<path class="st3" d="M757.2,66.8c-0.6,1.1-2.1,2.6-5.2,2.6c-0.9,0-3.4-0.1-5.1-2.3c-0.5-0.6-0.7-1.1-1-1.8l1.8-0.6
			c0.3,1,1.4,3,4.2,3c1.4,0,2.3-0.4,2.8-0.8c0.7-0.5,1.1-1.4,1.1-2.2c0-0.5-0.2-1-0.4-1.3c-0.5-0.7-1.2-1-2.9-1.4
			c-1.5-0.3-3.8-0.6-4.9-1.9c-0.5-0.6-0.8-1.6-0.8-2.4c0-0.5,0.2-1.9,1.3-3c1-1,2.8-1.3,4.1-1.3c0.4,0,2.3,0,3.7,1
			c1.2,0.8,1.5,1.9,1.7,2.4l-1.8,0.5c-0.3-1.7-2.2-2.3-3.7-2.3c-1.2,0-2.1,0.3-2.5,0.6c-0.1,0.1-0.4,0.3-0.7,0.7
			c-0.3,0.5-0.3,1.1-0.3,1.3c0,1.8,1.9,2.2,3.2,2.4l1.6,0.3c1.4,0.3,2.6,0.8,3.5,2c0.7,1,0.7,1.9,0.7,2.3
			C757.6,65.1,757.6,66,757.2,66.8z"/>
	</g>
</g>
<linearGradient id="SVGID_00000155832572849276636500000007911970438189288378_" gradientUnits="userSpaceOnUse" x1="512.1801" y1="85.1709" x2="512.1801" y2="462.7254">
	<stop  offset="0" style="stop-color:#40BFEF"/>
	<stop  offset="1" style="stop-color:#1470B5"/>
</linearGradient>
<polygon style="fill:url(#SVGID_00000155832572849276636500000007911970438189288378_);" points="639.9,462.7 639.9,85.2 
	384.4,85.2 384.4,462.7 384.4,462.7 "/>
<linearGradient id="SVGID_00000007407641037035847710000011898348010803379363_" gradientUnits="userSpaceOnUse" x1="508.9414" y1="212.2142" x2="508.9414" y2="446.7566">
	<stop  offset="0" style="stop-color:#F8F6F6"/>
	<stop  offset="1" style="stop-color:#E5E7E9"/>
</linearGradient>
<rect x="103.7" y="212.2" style="fill:url(#SVGID_00000007407641037035847710000011898348010803379363_);" width="810.5" height="234.5"/>
<rect x="103.7" y="287" class="st6" width="810.5" height="80.7"/>
<rect x="103.7" y="212.2" class="st7" width="808.5" height="48.2"/>
<g>
	<rect x="384.4" y="85.2" class="st8" width="2.1" height="377.6"/>
	<rect x="382.3" y="85.2" class="st6" width="2.1" height="377.6"/>
</g>
<g>
	<rect x="639.9" y="85.2" class="st8" width="2.1" height="377.6"/>
	<rect x="637.8" y="85.2" class="st6" width="2.1" height="377.6"/>
</g>
<g>
	<path class="st9" d="M148.6,246.8c-0.9,0.9-2.4,1.8-5.3,1.8c-0.5,0-2.8,0-4.6-1.2c-0.5-0.3-1-0.8-1.3-1.3c-1-1.3-1.1-2.8-1.2-3.4
		l2.4-0.3c0,0.5,0.1,1.9,1.1,3c0.6,0.6,1.7,1.3,3.7,1.3c0.2,0,0.9,0,1.5-0.2c0.7-0.2,2.6-0.9,2.6-3.1c0-1.1-0.5-1.6-0.9-1.9
		c-0.7-0.5-1.5-0.7-2.3-0.9l-1.4-0.3c-1.2-0.3-2.6-0.5-3.7-1.2c-2-1.1-2.3-2.6-2.3-3.6c0-1.3,0.6-2.4,1.6-3.3
		c1.7-1.4,3.8-1.4,4.5-1.4c1.6,0,3.2,0.3,4.5,1.3c0.8,0.6,1.2,1.2,1.3,1.5c0.4,0.8,0.6,1.5,0.8,2.4l-2.2,0.1c0-0.3-0.1-0.7-0.2-1
		c-0.3-1.2-1.4-2.6-4.1-2.6c-1.1,0-2.5,0.2-3.2,1.1c-0.4,0.4-0.6,1-0.6,1.5c0,0.2,0,0.8,0.4,1.2c0.6,0.9,1.9,1.1,2.9,1.4l1.8,0.4
		c0.4,0.1,0.9,0.2,1.3,0.3c0.5,0.1,2.6,0.6,3.6,2.3c0.2,0.4,0.6,1.1,0.6,2.3C150,244.1,149.9,245.6,148.6,246.8z"/>
	<path class="st9" d="M161.4,246.4c-0.6,0.9-1.8,2.2-4.3,2.2c-1.2,0-1.9-0.3-2.3-0.4c-1.4-0.6-3.1-2.1-3.1-5.6
		c0-2.1,0.7-3.2,1.3-3.9c1-1.2,2.6-1.9,4.1-1.9c0.6,0,1.2,0.1,1.8,0.3c0.7,0.2,2.1,0.9,2.8,2.6c0.3,0.7,0.5,1.6,0.5,3.3h-8.5
		c0,2,0.9,3.1,1.6,3.6c0.6,0.4,1.3,0.6,2,0.6c1,0,1.5-0.4,1.9-0.7c0.1-0.1,0.4-0.4,0.6-0.7c0.3-0.5,0.4-1,0.4-1.2l1.9,0.3
		C162,245,161.8,245.7,161.4,246.4z M159.9,240.5c-0.4-1.4-1.6-2.3-3-2.3c-2,0-3,1.7-3.2,3.4h6.4C160,241,160,240.8,159.9,240.5z"/>
	<path class="st9" d="M174,250.5c-0.6,2.1-2.2,2.6-3,2.9c-0.4,0.1-1,0.3-1.9,0.3c-0.3,0-1,0-1.9-0.3c-2.7-0.7-3.1-2.9-3.2-3.9h2.1
		c0,0.3,0,0.9,0.5,1.5c0.8,1.1,2.2,1.1,2.6,1.1c0.3,0,1.9,0,2.6-1.1c0.4-0.7,0.5-1.5,0.5-3.1l0-1.3c-1.3,1.8-2.7,2-3.6,2
		c-1.1,0-2-0.4-2.3-0.5c-1.2-0.6-2.8-2.2-2.8-5.3c0-0.5,0-2.5,1.2-4c0.9-1.2,2.1-1.9,4-1.9c0.3,0,0.9,0,1.5,0.3
		c0.5,0.2,1.3,0.6,2.1,1.6v-1.5h2v10.5C174.3,249.1,174.3,249.7,174,250.5z M172.2,240.8c-0.5-1.5-1.8-2.4-3.3-2.4
		c-0.5,0-1,0.1-1.4,0.3c-0.9,0.5-1.9,1.6-1.9,3.9c0,1.3,0.3,2.7,1.4,3.5c0.6,0.5,1.3,0.7,2.1,0.7c1.1,0,1.8-0.4,2.1-0.7
		c0.7-0.6,1.3-1.7,1.3-3.6C172.4,242.3,172.4,241.5,172.2,240.8z"/>
	<path class="st9" d="M184.2,248.2l0-1.7c-0.1,0.1-0.2,0.3-0.5,0.6c-0.9,0.9-2,1.4-3.3,1.4c-0.4,0-2.1-0.1-3-1.5
		c-0.6-1.1-0.6-2.3-0.6-3.4v-6.5h1.9v6.3c0,1.2,0,1.7,0.3,2.2c0.2,0.5,0.8,1.1,2,1.1c0.4,0,1.8-0.1,2.6-1.3c0.6-0.8,0.5-1.8,0.5-2.8
		v-5.6h1.8v11.1H184.2z"/>
	<path class="st9" d="M193,239c-1.1,0.2-2,0.9-2.2,2c-0.2,0.6-0.2,1-0.2,2.1v5.2h-1.9v-11.1h1.9v2c0.3-0.5,0.6-0.9,1-1.3
		c0.4-0.4,1.3-0.9,2.8-0.9v2C193.8,238.9,193.4,238.9,193,239z"/>
	<path class="st9" d="M204.7,246.7c-0.6,0.7-1.8,1.9-4.1,1.9c-0.7,0-2.5-0.1-3.9-1.5c-0.7-0.7-1.6-2.1-1.6-4.4c0-1.4,0.4-2.9,1.3-4
		c1.1-1.4,2.5-1.9,4.3-1.9c0.8,0,1.6,0.1,2.2,0.4c1.3,0.5,3.2,2.1,3.1,5.5C206,243.3,205.9,245.1,204.7,246.7z M203.4,239.8
		c-0.2-0.3-0.4-0.6-0.7-0.9c-0.8-0.7-1.7-0.7-2-0.7c-3.6,0-3.5,3.9-3.5,4.5c0,0.5,0.1,1,0.1,1.1c0.1,0.8,0.7,3.2,3.3,3.1
		c0.5,0,1.8-0.1,2.6-1.4c0.7-1.1,0.8-2.8,0.8-3C204,242.3,204,240.9,203.4,239.8z"/>
	<path class="st9" d="M222.3,248.2v-1.4c-0.6,0.7-1.6,1.8-3.8,1.8c-2.1,0-3.2-1-3.8-1.7c-0.6-0.8-1.4-2-1.4-4.3
		c0-1.4,0.3-2.7,1.1-3.9c0.5-0.7,1.7-2,4-2c1.6,0,2.7,0.7,3.2,1.1c0.3,0.2,0.4,0.4,0.7,0.7v-7h1.9v16.7H222.3z M222.2,241.2
		c-0.4-1.6-1.6-2.7-3.3-2.7c-0.5,0-1.7,0.1-2.6,1.2c-0.8,0.9-0.9,1.9-0.9,3.1c0,0.4,0,1.8,0.9,3c0.9,1.2,2.1,1.2,2.6,1.2
		c0.7,0,1.3-0.1,1.8-0.5c0.8-0.5,1.7-1.7,1.7-3.8C222.3,242.4,222.3,241.8,222.2,241.2z"/>
	<path class="st9" d="M235.9,246.4c-0.6,0.9-1.8,2.2-4.3,2.2c-1.2,0-1.9-0.3-2.3-0.4c-1.4-0.6-3.1-2.1-3.1-5.6
		c0-2.1,0.7-3.2,1.3-3.9c1-1.2,2.6-1.9,4.1-1.9c0.6,0,1.2,0.1,1.8,0.3c0.7,0.2,2.1,0.9,2.8,2.6c0.3,0.7,0.5,1.6,0.5,3.3h-8.5
		c0,2,0.9,3.1,1.6,3.6c0.6,0.4,1.3,0.6,2,0.6c1,0,1.5-0.4,1.9-0.7c0.1-0.1,0.4-0.4,0.6-0.7c0.3-0.5,0.4-1,0.4-1.2l1.9,0.3
		C236.6,245,236.4,245.7,235.9,246.4z M234.4,240.5c-0.4-1.4-1.6-2.3-3-2.3c-2,0-3,1.7-3.2,3.4h6.4
		C234.6,241,234.5,240.8,234.4,240.5z"/>
	<path class="st9" d="M255.7,248.2l-1.8-5.1h-6.4l-1.9,5.1h-2.4l6.4-16.7h2.3l6.1,16.7H255.7z M250.8,234.2l-2.6,7h5L250.8,234.2z"
		/>
	<path class="st9" d="M267.7,247.6c-1.3,1-2.9,1-3.4,1c-0.3,0-1.2,0-2.1-0.3c-1.3-0.5-3.4-2-3.4-5.5c0-3.6,2-5.2,3.4-5.7
		c0.9-0.3,1.7-0.3,2-0.3c3,0,4.3,1.6,4.8,2.7c0.2,0.4,0.2,0.6,0.3,1l-2.1,0.2c0-0.2-0.1-0.8-0.5-1.3c-0.8-1.2-2.1-1.3-2.6-1.3
		c-1.7,0-3.4,1.1-3.4,4.5c0,2,0.6,3.1,1.3,3.7c0.6,0.6,1.4,0.8,2.2,0.8c0.5,0,1-0.1,1.4-0.3c1.2-0.5,1.5-1.6,1.7-2.8l2,0.2
		C269.2,246,268.2,247.1,267.7,247.6z"/>
	<path class="st9" d="M279.5,247.6c-1.3,1-2.9,1-3.4,1c-0.3,0-1.2,0-2.1-0.3c-1.3-0.5-3.4-2-3.4-5.5c0-3.6,2-5.2,3.4-5.7
		c0.9-0.3,1.7-0.3,2-0.3c3,0,4.3,1.6,4.8,2.7c0.2,0.4,0.2,0.6,0.3,1l-2.1,0.2c0-0.2-0.1-0.8-0.5-1.3c-0.8-1.2-2.1-1.3-2.6-1.3
		c-1.7,0-3.4,1.1-3.4,4.5c0,2,0.6,3.1,1.3,3.7c0.6,0.6,1.4,0.8,2.2,0.8c0.5,0,1-0.1,1.4-0.3c1.2-0.5,1.5-1.6,1.7-2.8l2,0.2
		C281.1,246,280.1,247.1,279.5,247.6z"/>
	<path class="st9" d="M283.2,233.7v-2.2h1.8v2.2H283.2z M283.2,248.2v-11.1h1.8v11.1H283.2z"/>
	<path class="st9" d="M295.8,248.2v-1.4c-0.6,0.7-1.6,1.8-3.8,1.8c-2.1,0-3.2-1-3.8-1.7c-0.6-0.8-1.4-2-1.4-4.3
		c0-1.4,0.3-2.7,1.1-3.9c0.5-0.7,1.7-2,4-2c1.6,0,2.7,0.7,3.2,1.1c0.3,0.2,0.4,0.4,0.7,0.7v-7h1.9v16.7H295.8z M295.8,241.2
		c-0.4-1.6-1.6-2.7-3.3-2.7c-0.5,0-1.7,0.1-2.6,1.2c-0.8,0.9-0.9,1.9-0.9,3.1c0,0.4,0,1.8,0.9,3c0.9,1.2,2.1,1.2,2.6,1.2
		c0.7,0,1.3-0.1,1.8-0.5c0.8-0.5,1.7-1.7,1.7-3.8C295.9,242.4,295.9,241.8,295.8,241.2z"/>
	<path class="st9" d="M309.5,246.4c-0.6,0.9-1.8,2.2-4.3,2.2c-1.2,0-1.9-0.3-2.3-0.4c-1.4-0.6-3.1-2.1-3.1-5.6
		c0-2.1,0.7-3.2,1.3-3.9c1-1.2,2.6-1.9,4.1-1.9c0.6,0,1.2,0.1,1.8,0.3c0.7,0.2,2.1,0.9,2.8,2.6c0.3,0.7,0.5,1.6,0.5,3.3h-8.5
		c0,2,0.9,3.1,1.6,3.6c0.6,0.4,1.3,0.6,2,0.6c1,0,1.5-0.4,1.9-0.7c0.1-0.1,0.4-0.4,0.6-0.7c0.3-0.5,0.4-1,0.4-1.2l1.9,0.3
		C310.1,245,309.9,245.7,309.5,246.4z M308,240.5c-0.4-1.4-1.6-2.3-3-2.3c-2,0-3,1.7-3.2,3.4h6.4C308.1,241,308.1,240.8,308,240.5z"
		/>
	<path class="st9" d="M319.5,248.2v-7.1c0-0.3,0.1-1.4-0.9-2.1c-0.3-0.2-0.8-0.5-1.7-0.5c-0.8,0-1.5,0.3-2.1,0.8
		c-0.1,0.1-0.5,0.5-0.7,1c-0.2,0.5-0.2,1-0.2,1.5v6.3h-1.9v-11.1h1.9v1.6c0.2-0.4,0.5-0.7,0.6-0.8c0.4-0.4,1.4-1.2,2.9-1.2
		c0.5,0,2.2,0.1,3.2,1.5c0.7,1,0.7,2.1,0.7,3.3v6.6H319.5z"/>
	<path class="st9" d="M326.8,248.4c-1.1,0-1.6-0.3-1.9-0.7c-0.3-0.4-0.3-0.9-0.3-1.8v-7.2h-1.8v-1.6h1.8v-3.5h1.9v3.5h2v1.6h-2v6.4
		c0,0.8,0,1.2,0.1,1.6c0.1,0.3,0.4,0.3,0.7,0.3c0.2,0,0.7-0.1,1.2-0.3v1.6C328.5,248.2,327.6,248.4,326.8,248.4z"/>
	<path class="st9" d="M339.6,246.4c-0.6,0.9-1.8,2.2-4.3,2.2c-1.2,0-1.9-0.3-2.3-0.4c-1.4-0.6-3.1-2.1-3.1-5.6
		c0-2.1,0.7-3.2,1.3-3.9c1-1.2,2.6-1.9,4.1-1.9c0.6,0,1.2,0.1,1.8,0.3c0.7,0.2,2.1,0.9,2.8,2.6c0.3,0.7,0.5,1.6,0.5,3.3h-8.5
		c0,2,0.9,3.1,1.6,3.6c0.6,0.4,1.3,0.6,2,0.6c1,0,1.5-0.4,1.9-0.7c0.1-0.1,0.4-0.4,0.6-0.7c0.3-0.5,0.4-1,0.4-1.2l1.9,0.3
		C340.3,245,340.1,245.7,339.6,246.4z M338.1,240.5c-0.4-1.4-1.6-2.3-3-2.3c-2,0-3,1.7-3.2,3.4h6.4
		C338.3,241,338.2,240.8,338.1,240.5z"/>
	<path class="st9" d="M350.9,246.7c-0.6,0.9-1.8,1.8-4.2,1.8c-0.3,0-2.1,0-3.3-0.8c-0.2-0.1-0.5-0.3-0.8-0.7c-0.8-1-0.9-2-1-2.4
		l2.2-0.3c0,0.7,0.1,1.4,0.6,2c0.7,0.7,1.6,0.9,2.5,0.9c0.2,0,1.3,0,2.1-0.6c0.5-0.4,0.5-1,0.5-1.2c0-0.1,0-0.5-0.2-0.8
		c-0.4-0.6-1.5-0.8-2.1-0.9l-1.1-0.2c-1.4-0.3-2-0.5-2.6-0.9c-0.9-0.5-1.3-1.3-1.3-2.4c0-0.3,0-1.1,0.6-1.8c1.1-1.5,3.3-1.5,3.7-1.5
		c2.3,0,3.6,1.2,4.2,2c0.4,0.7,0.5,1.4,0.6,1.7l-2,0.2c0-0.5,0-0.8-0.2-1c-0.3-0.6-1.2-1.4-2.8-1.4c-1.5,0-2.2,0.9-2.2,1.6
		c0,0.1,0,0.3,0.2,0.6c0.4,0.6,1.2,0.9,2.5,1.2l1.1,0.3c0.3,0.1,0.7,0.2,1,0.3c1.5,0.5,2.7,1.3,2.7,3
		C351.4,245.3,351.3,246,350.9,246.7z"/>
	<path class="st9" d="M204.4,266.2c-0.6,0.2-1.2,0.2-2.5,0.2h-4.8v7.1H195v-16.7h7.2c1.3,0,2.4,0,3.5,0.7c1.9,1.2,2,3.4,2,4
		C207.7,263.6,206.6,265.6,204.4,266.2z M205.3,260.3c-0.3-0.8-0.9-1.3-1.7-1.5c-0.5-0.1-0.9-0.1-1.3-0.1h-5.2v5.7h4.7
		c0.6,0,1.2,0,1.8-0.1c1.3-0.4,1.9-1.6,1.9-2.9C205.5,261.3,205.5,260.8,205.3,260.3z"/>
	<path class="st9" d="M218.2,271.6c-0.6,0.9-1.8,2.2-4.3,2.2c-1.2,0-1.9-0.3-2.3-0.4c-1.4-0.6-3.1-2.1-3.1-5.6
		c0-2.1,0.7-3.2,1.3-3.9c1-1.2,2.6-1.9,4.1-1.9c0.6,0,1.2,0.1,1.8,0.3c0.7,0.2,2.1,0.9,2.8,2.6c0.3,0.7,0.5,1.6,0.5,3.3h-8.5
		c0,2,0.9,3.1,1.6,3.6c0.6,0.4,1.3,0.6,2,0.6c1,0,1.5-0.4,1.9-0.7c0.1-0.1,0.4-0.4,0.6-0.7c0.3-0.5,0.4-1,0.4-1.2l1.9,0.3
		C218.8,270.3,218.6,271,218.2,271.6z M216.7,265.8c-0.4-1.4-1.6-2.3-3-2.3c-2,0-3,1.7-3.2,3.4h6.4
		C216.8,266.3,216.7,266,216.7,265.8z"/>
	<path class="st9" d="M225.2,264.2c-1.1,0.2-2,0.9-2.2,2c-0.2,0.6-0.2,1-0.2,2.1v5.2h-1.9v-11.1h1.9v2c0.3-0.5,0.6-0.9,1-1.3
		s1.3-0.9,2.8-0.9v2C225.9,264.1,225.5,264.2,225.2,264.2z"/>
	<path class="st9" d="M236.3,272c-0.6,0.9-1.8,1.8-4.2,1.8c-0.3,0-2.1,0-3.3-0.8c-0.2-0.1-0.5-0.3-0.8-0.7c-0.8-1-0.9-2-1-2.4
		l2.2-0.3c0,0.7,0.1,1.4,0.6,2c0.7,0.7,1.6,0.9,2.5,0.9c0.2,0,1.3,0,2.1-0.6c0.5-0.4,0.5-1,0.5-1.2c0-0.1,0-0.5-0.2-0.8
		c-0.4-0.6-1.5-0.8-2.1-0.9l-1.1-0.2c-1.4-0.3-2-0.5-2.6-0.9c-0.9-0.5-1.3-1.3-1.3-2.4c0-0.3,0-1.1,0.6-1.8c1.1-1.5,3.3-1.5,3.7-1.5
		c2.3,0,3.6,1.2,4.2,2c0.4,0.7,0.5,1.4,0.6,1.7l-2,0.2c0-0.5,0-0.8-0.2-1c-0.3-0.6-1.2-1.4-2.8-1.4c-1.5,0-2.2,0.9-2.2,1.6
		c0,0.1,0,0.3,0.2,0.6c0.4,0.6,1.2,0.9,2.5,1.2l1.1,0.3c0.3,0.1,0.7,0.2,1,0.3c1.5,0.5,2.7,1.3,2.7,3
		C236.8,270.6,236.8,271.3,236.3,272z"/>
	<path class="st9" d="M247.7,272c-0.6,0.7-1.8,1.9-4.1,1.9c-0.7,0-2.5-0.1-3.9-1.5c-0.7-0.7-1.6-2.1-1.6-4.4c0-1.4,0.4-2.9,1.3-4
		c1.1-1.4,2.5-1.9,4.3-1.9c0.8,0,1.6,0.1,2.2,0.4c1.3,0.5,3.2,2.1,3.1,5.5C249,268.5,248.9,270.4,247.7,272z M246.4,265.1
		c-0.2-0.3-0.4-0.6-0.7-0.9c-0.8-0.7-1.7-0.7-2-0.7c-3.6,0-3.5,3.9-3.5,4.5c0,0.5,0.1,1,0.1,1.1c0.1,0.8,0.7,3.2,3.3,3.1
		c0.5,0,1.8-0.1,2.6-1.4c0.7-1.1,0.8-2.8,0.8-3C247,267.6,247,266.1,246.4,265.1z"/>
	<path class="st9" d="M258.3,273.5v-7.1c0-0.3,0.1-1.4-0.9-2.1c-0.3-0.2-0.8-0.5-1.7-0.5c-0.8,0-1.5,0.3-2.1,0.8
		c-0.1,0.1-0.5,0.5-0.7,1c-0.2,0.5-0.2,1-0.2,1.5v6.3H251v-11.1h1.9v1.6c0.2-0.4,0.5-0.7,0.6-0.8c0.4-0.4,1.4-1.2,2.9-1.2
		c0.5,0,2.2,0.1,3.2,1.5c0.7,1,0.7,2.1,0.7,3.3v6.6H258.3z"/>
	<path class="st9" d="M271.6,273.6c-0.1,0-0.8,0-1.2-0.3c-0.2-0.1-0.3-0.4-0.4-0.4c-0.3-0.4-0.3-0.7-0.4-0.9
		c-0.5,0.6-1.7,1.8-3.8,1.8c-0.8,0-1.3-0.1-1.5-0.2c-1.3-0.5-2.2-1.5-2.2-3c0-0.5,0.1-1.6,1.2-2.4c1.1-0.9,3.1-1.2,4.5-1.3l1.7-0.1
		c0-0.3,0-0.6,0-0.9c0-0.8-0.2-2.5-2.5-2.5c-0.4,0-1.8,0-2.3,1.3c-0.1,0.4-0.1,0.6-0.1,1l-2-0.1c0-0.2,0-0.6,0.2-1.1
		c0.4-1.1,1.4-2.6,4.1-2.6c0.3,0,0.9,0,1.8,0.2c0.4,0.1,1.9,0.6,2.5,2.1c0.2,0.6,0.2,1.2,0.2,2.4v3.6c0,0.2,0,0.5,0,0.7
		c0,0.3,0,0.9,0.8,0.9c0.2,0,0.4,0,0.6-0.1v1.6C272.2,273.6,271.9,273.6,271.6,273.6z M269.5,268.2V268c-0.9,0.1-3.1,0.4-4,0.8
		c-0.4,0.1-1.4,0.6-1.4,1.7c0,0.8,0.6,1.7,2.1,1.7c1,0,3.3-0.4,3.3-3.3C269.5,268.7,269.5,268.5,269.5,268.2z"/>
	<path class="st9" d="M274.2,273.5v-16.7h1.8v16.7H274.2z"/>
	<path class="st9" d="M287.8,271.6c-0.6,0.9-1.8,2.2-4.3,2.2c-1.2,0-1.9-0.3-2.3-0.4c-1.4-0.6-3.1-2.1-3.1-5.6
		c0-2.1,0.7-3.2,1.3-3.9c1-1.2,2.6-1.9,4.1-1.9c0.6,0,1.2,0.1,1.8,0.3c0.7,0.2,2.1,0.9,2.8,2.6c0.3,0.7,0.5,1.6,0.5,3.3h-8.5
		c0,2,0.9,3.1,1.6,3.6c0.6,0.4,1.3,0.6,2,0.6c1,0,1.5-0.4,1.9-0.7c0.1-0.1,0.4-0.4,0.6-0.7c0.3-0.5,0.4-1,0.4-1.2l1.9,0.3
		C288.4,270.3,288.2,271,287.8,271.6z M286.3,265.8c-0.4-1.4-1.6-2.3-3-2.3c-2,0-3,1.7-3.2,3.4h6.4
		C286.4,266.3,286.4,266,286.3,265.8z"/>
	<path class="st9" d="M299,272c-0.6,0.9-1.8,1.8-4.2,1.8c-0.3,0-2.1,0-3.3-0.8c-0.2-0.1-0.5-0.3-0.8-0.7c-0.8-1-0.9-2-1-2.4l2.2-0.3
		c0,0.7,0.1,1.4,0.6,2c0.7,0.7,1.6,0.9,2.5,0.9c0.2,0,1.3,0,2.1-0.6c0.5-0.4,0.5-1,0.5-1.2c0-0.1,0-0.5-0.2-0.8
		c-0.4-0.6-1.5-0.8-2.1-0.9l-1.1-0.2c-1.4-0.3-2-0.5-2.6-0.9c-0.9-0.5-1.3-1.3-1.3-2.4c0-0.3,0-1.1,0.6-1.8c1.1-1.5,3.3-1.5,3.7-1.5
		c2.3,0,3.6,1.2,4.2,2c0.5,0.7,0.5,1.4,0.6,1.7l-2,0.2c0-0.5,0-0.8-0.2-1c-0.3-0.6-1.2-1.4-2.8-1.4c-1.5,0-2.2,0.9-2.2,1.6
		c0,0.1,0,0.3,0.2,0.6c0.4,0.6,1.2,0.9,2.5,1.2l1.1,0.3c0.3,0.1,0.7,0.2,1,0.3c1.5,0.5,2.7,1.3,2.7,3
		C299.5,270.6,299.5,271.3,299,272z"/>
</g>
<g>
	<path class="st9" d="M415,246.8c-0.9,0.9-2.4,1.8-5.3,1.8c-0.5,0-2.8,0-4.6-1.2c-0.5-0.3-1-0.8-1.3-1.3c-1-1.3-1.1-2.8-1.2-3.4
		l2.4-0.3c0,0.5,0.1,1.9,1.1,3c0.6,0.6,1.7,1.3,3.7,1.3c0.2,0,0.9,0,1.5-0.2c0.7-0.2,2.6-0.9,2.6-3.1c0-1.1-0.5-1.6-0.9-1.9
		c-0.7-0.5-1.5-0.7-2.3-0.9l-1.4-0.3c-1.2-0.3-2.6-0.5-3.7-1.2c-2-1.1-2.3-2.6-2.3-3.6c0-1.3,0.6-2.4,1.6-3.3
		c1.7-1.4,3.8-1.4,4.5-1.4c1.6,0,3.2,0.3,4.5,1.3c0.8,0.6,1.2,1.2,1.3,1.5c0.4,0.8,0.6,1.5,0.8,2.4l-2.2,0.1c0-0.3-0.1-0.7-0.2-1
		c-0.3-1.2-1.4-2.6-4.1-2.6c-1.1,0-2.5,0.2-3.2,1.1c-0.4,0.4-0.6,1-0.6,1.5c0,0.2,0,0.8,0.4,1.2c0.6,0.9,1.9,1.1,2.9,1.4l1.8,0.4
		c0.4,0.1,0.9,0.2,1.3,0.3c0.5,0.1,2.6,0.6,3.6,2.3c0.2,0.4,0.6,1.1,0.6,2.3C416.4,244.1,416.3,245.5,415,246.8z"/>
	<path class="st9" d="M427.8,246.4c-0.6,0.9-1.8,2.2-4.3,2.2c-1.2,0-1.9-0.3-2.3-0.4c-1.4-0.6-3.1-2.1-3.1-5.6
		c0-2.1,0.7-3.2,1.3-3.9c1-1.2,2.6-1.9,4.1-1.9c0.6,0,1.2,0.1,1.8,0.3c0.7,0.2,2.1,0.9,2.8,2.6c0.3,0.7,0.5,1.6,0.5,3.3h-8.5
		c0,2,0.9,3.1,1.6,3.6c0.6,0.4,1.3,0.6,2,0.6c1,0,1.5-0.4,1.9-0.7c0.1-0.1,0.4-0.4,0.6-0.7c0.3-0.5,0.4-1,0.4-1.2l1.9,0.3
		C428.4,245,428.2,245.7,427.8,246.4z M426.3,240.5c-0.4-1.4-1.6-2.3-3-2.3c-2,0-3,1.7-3.2,3.4h6.4
		C426.4,241,426.4,240.8,426.3,240.5z"/>
	<path class="st9" d="M440.5,250.5c-0.6,2.1-2.2,2.6-3,2.9c-0.4,0.1-1,0.3-1.9,0.3c-0.3,0-1,0-1.9-0.3c-2.7-0.7-3.1-2.9-3.2-3.9h2.1
		c0,0.3,0,0.9,0.5,1.5c0.8,1.1,2.2,1.1,2.6,1.1c0.3,0,1.9,0,2.6-1.1c0.4-0.7,0.5-1.5,0.5-3.1l0-1.3c-1.3,1.8-2.7,2-3.6,2
		c-1.1,0-2-0.4-2.3-0.5c-1.2-0.6-2.8-2.2-2.8-5.3c0-0.5,0-2.5,1.2-4c0.9-1.2,2.1-1.9,4-1.9c0.3,0,0.9,0,1.5,0.3
		c0.5,0.2,1.3,0.6,2.1,1.6v-1.5h2v10.5C440.7,249.1,440.7,249.7,440.5,250.5z M438.6,240.8c-0.5-1.5-1.8-2.4-3.3-2.4
		c-0.5,0-1,0.1-1.4,0.3c-0.9,0.4-1.9,1.6-1.9,3.9c0,1.3,0.3,2.7,1.4,3.5c0.6,0.5,1.3,0.7,2.1,0.7c1.1,0,1.8-0.4,2.1-0.7
		c0.7-0.6,1.3-1.7,1.3-3.6C438.8,242.3,438.8,241.5,438.6,240.8z"/>
	<path class="st9" d="M450.7,248.2l0-1.7c-0.1,0.1-0.2,0.3-0.5,0.6c-0.9,0.9-2,1.4-3.3,1.4c-0.4,0-2.1-0.1-3-1.5
		c-0.6-1.1-0.6-2.3-0.6-3.4v-6.5h1.9v6.3c0,1.2,0,1.7,0.3,2.2c0.2,0.5,0.8,1.1,2,1.1c0.4,0,1.8-0.1,2.6-1.3c0.6-0.8,0.5-1.8,0.5-2.8
		v-5.6h1.8v11.1H450.7z"/>
	<path class="st9" d="M459.5,238.9c-1.1,0.2-2,0.9-2.2,2c-0.2,0.6-0.2,1-0.2,2.1v5.2h-1.9v-11.1h1.9v2c0.3-0.5,0.6-0.9,1-1.3
		c0.4-0.4,1.3-0.9,2.8-0.9v2C460.2,238.9,459.8,238.9,459.5,238.9z"/>
	<path class="st9" d="M471.1,246.7c-0.6,0.7-1.8,1.9-4.1,1.9c-0.7,0-2.5-0.1-3.9-1.5c-0.7-0.7-1.6-2.1-1.6-4.4c0-1.4,0.4-2.9,1.3-4
		c1.1-1.4,2.5-1.9,4.3-1.9c0.8,0,1.6,0.1,2.2,0.4c1.3,0.5,3.2,2.1,3.1,5.5C472.4,243.3,472.4,245.1,471.1,246.7z M469.8,239.8
		c-0.2-0.3-0.4-0.6-0.7-0.9c-0.8-0.7-1.7-0.7-2-0.7c-3.6,0-3.5,3.9-3.5,4.5c0,0.5,0.1,1,0.1,1.1c0.1,0.8,0.7,3.2,3.3,3.1
		c0.5,0,1.8-0.1,2.6-1.4c0.7-1.1,0.8-2.8,0.8-3C470.4,242.3,470.4,240.9,469.8,239.8z"/>
	<path class="st9" d="M488.7,248.2v-1.4c-0.6,0.7-1.6,1.8-3.8,1.8c-2.1,0-3.2-1-3.8-1.7c-0.6-0.8-1.4-2-1.4-4.3
		c0-1.4,0.3-2.7,1.1-3.9c0.5-0.7,1.7-2,4-2c1.6,0,2.7,0.7,3.2,1.1c0.3,0.2,0.4,0.4,0.7,0.7v-7h1.9v16.7H488.7z M488.6,241.2
		c-0.4-1.6-1.6-2.7-3.3-2.7c-0.5,0-1.7,0.1-2.6,1.2c-0.8,0.9-0.9,1.9-0.9,3.1c0,0.4,0,1.8,0.9,3c0.9,1.2,2.1,1.2,2.6,1.2
		c0.7,0,1.3-0.1,1.8-0.5c0.8-0.5,1.7-1.7,1.7-3.8C488.8,242.4,488.8,241.8,488.6,241.2z"/>
	<path class="st9" d="M502.4,246.4c-0.6,0.9-1.8,2.2-4.3,2.2c-1.2,0-1.9-0.3-2.3-0.4c-1.4-0.6-3.1-2.1-3.1-5.6
		c0-2.1,0.7-3.2,1.3-3.9c1-1.2,2.6-1.9,4.1-1.9c0.6,0,1.2,0.1,1.8,0.3c0.7,0.2,2.1,0.9,2.8,2.6c0.3,0.7,0.5,1.6,0.5,3.3h-8.5
		c0,2,0.9,3.1,1.6,3.6c0.6,0.4,1.3,0.6,2,0.6c1,0,1.5-0.4,1.9-0.7c0.1-0.1,0.4-0.4,0.6-0.7c0.3-0.5,0.4-1,0.4-1.2l1.9,0.3
		C503,245,502.8,245.7,502.4,246.4z M500.9,240.5c-0.4-1.4-1.6-2.3-3-2.3c-2,0-3,1.7-3.2,3.4h6.4C501,241,500.9,240.8,500.9,240.5z"
		/>
	<path class="st9" d="M522.1,248.2l-1.8-5.1h-6.4l-1.9,5.1h-2.4l6.4-16.7h2.3l6.1,16.7H522.1z M517.2,234.2l-2.6,7h5L517.2,234.2z"
		/>
	<path class="st9" d="M534.1,247.6c-1.3,1-2.9,1-3.4,1c-0.3,0-1.2,0-2.1-0.3c-1.3-0.5-3.4-2-3.4-5.5c0-3.6,2-5.2,3.4-5.7
		c0.9-0.3,1.7-0.3,2-0.3c3,0,4.3,1.6,4.8,2.7c0.2,0.4,0.2,0.6,0.3,1l-2.1,0.2c0-0.2-0.1-0.8-0.5-1.3c-0.8-1.2-2.1-1.3-2.6-1.3
		c-1.7,0-3.4,1.1-3.4,4.5c0,2,0.6,3.1,1.3,3.7c0.6,0.6,1.4,0.8,2.2,0.8c0.5,0,1-0.1,1.4-0.3c1.2-0.5,1.5-1.6,1.7-2.8l2,0.2
		C535.6,246,534.7,247.1,534.1,247.6z"/>
	<path class="st9" d="M545.9,247.6c-1.3,1-2.9,1-3.4,1c-0.3,0-1.2,0-2.1-0.3c-1.3-0.5-3.4-2-3.4-5.5c0-3.6,2-5.2,3.4-5.7
		c0.9-0.3,1.7-0.3,2-0.3c3,0,4.3,1.6,4.8,2.7c0.2,0.4,0.2,0.6,0.3,1l-2.1,0.2c0-0.2-0.1-0.8-0.5-1.3c-0.8-1.2-2.1-1.3-2.6-1.3
		c-1.7,0-3.4,1.1-3.4,4.5c0,2,0.6,3.1,1.3,3.7c0.6,0.6,1.4,0.8,2.2,0.8c0.5,0,1-0.1,1.4-0.3c1.2-0.5,1.5-1.6,1.7-2.8l2,0.2
		C547.5,246,546.5,247.1,545.9,247.6z"/>
	<path class="st9" d="M549.6,233.7v-2.2h1.8v2.2H549.6z M549.6,248.2v-11.1h1.8v11.1H549.6z"/>
	<path class="st9" d="M562.3,248.2v-1.4c-0.6,0.7-1.6,1.8-3.8,1.8c-2.1,0-3.2-1-3.8-1.7c-0.6-0.8-1.4-2-1.4-4.3
		c0-1.4,0.3-2.7,1.1-3.9c0.5-0.7,1.7-2,4-2c1.6,0,2.7,0.7,3.2,1.1c0.3,0.2,0.4,0.4,0.7,0.7v-7h1.9v16.7H562.3z M562.2,241.2
		c-0.4-1.6-1.6-2.7-3.3-2.7c-0.5,0-1.7,0.1-2.6,1.2c-0.8,0.9-0.9,1.9-0.9,3.1c0,0.4,0,1.8,0.9,3c0.9,1.2,2.1,1.2,2.6,1.2
		c0.7,0,1.3-0.1,1.8-0.5c0.8-0.5,1.7-1.7,1.7-3.8C562.3,242.4,562.3,241.8,562.2,241.2z"/>
	<path class="st9" d="M575.9,246.4c-0.6,0.9-1.8,2.2-4.3,2.2c-1.2,0-1.9-0.3-2.3-0.4c-1.4-0.6-3.1-2.1-3.1-5.6
		c0-2.1,0.7-3.2,1.3-3.9c1-1.2,2.6-1.9,4.1-1.9c0.6,0,1.2,0.1,1.8,0.3c0.7,0.2,2.1,0.9,2.8,2.6c0.3,0.7,0.5,1.6,0.5,3.3h-8.5
		c0,2,0.9,3.1,1.6,3.6c0.6,0.4,1.3,0.6,2,0.6c1,0,1.5-0.4,1.9-0.7c0.1-0.1,0.4-0.4,0.6-0.7c0.3-0.5,0.4-1,0.4-1.2l1.9,0.3
		C576.6,245,576.3,245.7,575.9,246.4z M574.4,240.5c-0.4-1.4-1.6-2.3-3-2.3c-2,0-3,1.7-3.2,3.4h6.4
		C574.5,241,574.5,240.8,574.4,240.5z"/>
	<path class="st9" d="M586,248.2v-7.1c0-0.3,0.1-1.4-0.9-2.1c-0.3-0.2-0.8-0.5-1.7-0.5c-0.8,0-1.5,0.3-2.1,0.8
		c-0.1,0.1-0.5,0.5-0.7,1c-0.2,0.5-0.2,1-0.2,1.5v6.3h-1.9v-11.1h1.9v1.6c0.2-0.4,0.5-0.7,0.6-0.8c0.4-0.4,1.4-1.2,2.9-1.2
		c0.5,0,2.2,0.1,3.2,1.5c0.7,1,0.7,2.1,0.7,3.3v6.6H586z"/>
	<path class="st9" d="M593.3,248.4c-1.1,0-1.6-0.3-1.9-0.7c-0.3-0.4-0.3-0.9-0.3-1.8v-7.2h-1.8v-1.6h1.8v-3.5h1.9v3.5h2v1.6h-2v6.4
		c0,0.8,0,1.2,0.1,1.6c0.1,0.3,0.4,0.3,0.7,0.3c0.2,0,0.7-0.1,1.2-0.3v1.6C594.9,248.2,594,248.4,593.3,248.4z"/>
	<path class="st9" d="M606.1,246.4c-0.6,0.9-1.8,2.2-4.3,2.2c-1.2,0-1.9-0.3-2.3-0.4c-1.4-0.6-3.1-2.1-3.1-5.6
		c0-2.1,0.7-3.2,1.3-3.9c1-1.2,2.6-1.9,4.1-1.9c0.6,0,1.2,0.1,1.8,0.3c0.7,0.2,2.1,0.9,2.8,2.6c0.3,0.7,0.5,1.6,0.5,3.3h-8.5
		c0,2,0.9,3.1,1.6,3.6c0.6,0.4,1.3,0.6,2,0.6c1,0,1.5-0.4,1.9-0.7c0.1-0.1,0.4-0.4,0.6-0.7c0.3-0.5,0.4-1,0.4-1.2l1.9,0.3
		C606.7,245,606.5,245.7,606.1,246.4z M604.6,240.5c-0.4-1.4-1.6-2.3-3-2.3c-2,0-3,1.7-3.2,3.4h6.4
		C604.7,241,604.6,240.8,604.6,240.5z"/>
	<path class="st9" d="M617.3,246.7c-0.6,0.9-1.8,1.8-4.2,1.8c-0.3,0-2.1,0-3.3-0.8c-0.2-0.1-0.5-0.3-0.8-0.7c-0.8-1-0.9-2-1-2.4
		l2.2-0.3c0,0.7,0.1,1.4,0.6,2c0.7,0.7,1.6,0.9,2.5,0.9c0.2,0,1.3,0,2.1-0.6c0.5-0.4,0.5-1,0.5-1.2c0-0.1,0-0.5-0.2-0.8
		c-0.4-0.6-1.5-0.8-2.1-0.9l-1.1-0.2c-1.4-0.3-2-0.5-2.6-0.9c-0.9-0.5-1.3-1.3-1.3-2.4c0-0.3,0-1.1,0.6-1.8c1.1-1.5,3.3-1.5,3.7-1.5
		c2.3,0,3.6,1.2,4.2,2c0.4,0.7,0.5,1.4,0.6,1.7l-2,0.2c0-0.5,0-0.8-0.2-1c-0.3-0.6-1.2-1.4-2.8-1.4c-1.5,0-2.2,0.9-2.2,1.6
		c0,0.1,0,0.3,0.2,0.6c0.4,0.6,1.2,0.9,2.5,1.2l1.1,0.3c0.3,0.1,0.7,0.2,1,0.3c1.5,0.4,2.7,1.3,2.7,3
		C617.8,245.3,617.7,246,617.3,246.7z"/>
	<path class="st9" d="M470.9,266.2c-0.6,0.2-1.2,0.2-2.5,0.2h-4.8v7.1h-2.2v-16.7h7.2c1.3,0,2.4,0,3.5,0.7c1.9,1.2,2,3.4,2,4
		C474.1,263.6,473,265.6,470.9,266.2z M471.7,260.3c-0.3-0.8-0.9-1.3-1.7-1.5c-0.5-0.1-0.9-0.1-1.3-0.1h-5.2v5.7h4.7
		c0.6,0,1.2,0,1.8-0.1c1.3-0.4,1.9-1.6,1.9-2.9C471.9,261.3,471.9,260.8,471.7,260.3z"/>
	<path class="st9" d="M484.6,271.6c-0.6,0.9-1.8,2.2-4.3,2.2c-1.2,0-1.9-0.3-2.3-0.4c-1.4-0.6-3.1-2.1-3.1-5.6
		c0-2.1,0.7-3.2,1.3-3.9c1-1.2,2.6-1.9,4.1-1.9c0.6,0,1.2,0.1,1.8,0.3c0.7,0.2,2.1,0.9,2.8,2.6c0.3,0.7,0.5,1.6,0.5,3.3h-8.5
		c0,2,0.9,3.1,1.6,3.6c0.6,0.4,1.3,0.6,2,0.6c1,0,1.5-0.4,1.9-0.7c0.1-0.1,0.4-0.4,0.6-0.7c0.3-0.5,0.4-1,0.4-1.2l1.9,0.3
		C485.2,270.3,485,271,484.6,271.6z M483.1,265.8c-0.4-1.4-1.6-2.3-3-2.3c-2,0-3,1.7-3.2,3.4h6.4C483.2,266.3,483.2,266,483.1,265.8
		z"/>
	<path class="st9" d="M491.6,264.2c-1.1,0.2-2,0.9-2.2,2c-0.2,0.6-0.2,1-0.2,2.1v5.2h-1.9v-11.1h1.9v2c0.3-0.5,0.6-0.9,1-1.3
		s1.3-0.9,2.8-0.9v2C492.3,264.1,491.9,264.1,491.6,264.2z"/>
	<path class="st9" d="M502.7,272c-0.6,0.9-1.8,1.8-4.2,1.8c-0.3,0-2.1,0-3.3-0.8c-0.2-0.1-0.5-0.3-0.8-0.7c-0.8-1-0.9-2-1-2.4
		l2.2-0.3c0,0.7,0.1,1.4,0.6,2c0.7,0.7,1.6,0.9,2.5,0.9c0.2,0,1.3,0,2.1-0.6c0.5-0.4,0.5-1,0.5-1.2c0-0.1,0-0.5-0.2-0.8
		c-0.4-0.6-1.5-0.8-2.1-0.9l-1.1-0.2c-1.4-0.3-2-0.5-2.6-0.9c-0.9-0.5-1.3-1.3-1.3-2.4c0-0.3,0-1.1,0.6-1.8c1.1-1.5,3.3-1.5,3.7-1.5
		c2.3,0,3.6,1.2,4.2,2c0.4,0.7,0.5,1.4,0.6,1.7l-2,0.2c0-0.5,0-0.8-0.2-1c-0.3-0.6-1.2-1.4-2.8-1.4c-1.5,0-2.2,0.9-2.2,1.6
		c0,0.1,0,0.3,0.2,0.6c0.4,0.6,1.2,0.9,2.5,1.2l1.1,0.3c0.3,0.1,0.7,0.2,1,0.3c1.5,0.4,2.7,1.3,2.7,3
		C503.2,270.6,503.2,271.3,502.7,272z"/>
	<path class="st9" d="M514.1,272c-0.6,0.7-1.8,1.9-4.1,1.9c-0.7,0-2.5-0.1-3.9-1.5c-0.7-0.7-1.6-2.1-1.6-4.4c0-1.4,0.4-2.9,1.3-4
		c1.1-1.4,2.5-1.9,4.3-1.9c0.8,0,1.6,0.1,2.2,0.4c1.3,0.5,3.2,2.1,3.1,5.5C515.4,268.5,515.3,270.4,514.1,272z M512.8,265
		c-0.2-0.3-0.4-0.6-0.7-0.9c-0.8-0.7-1.7-0.7-2-0.7c-3.6,0-3.5,3.9-3.5,4.5c0,0.5,0.1,1,0.1,1.1c0.1,0.8,0.7,3.2,3.3,3.1
		c0.5,0,1.8-0.1,2.6-1.4c0.7-1.1,0.8-2.8,0.8-3C513.4,267.6,513.4,266.1,512.8,265z"/>
	<path class="st9" d="M524.8,273.5v-7.1c0-0.3,0.1-1.4-0.9-2.1c-0.3-0.2-0.8-0.5-1.7-0.5c-0.8,0-1.5,0.3-2.1,0.8
		c-0.1,0.1-0.5,0.5-0.7,1c-0.2,0.5-0.2,1-0.2,1.5v6.3h-1.9v-11.1h1.9v1.6c0.2-0.4,0.5-0.7,0.6-0.8c0.4-0.4,1.4-1.2,2.9-1.2
		c0.5,0,2.2,0.1,3.2,1.5c0.7,1,0.7,2.1,0.7,3.3v6.6H524.8z"/>
	<path class="st9" d="M538,273.6c-0.1,0-0.8,0-1.2-0.3c-0.2-0.1-0.3-0.4-0.4-0.4c-0.3-0.4-0.3-0.7-0.4-0.9c-0.5,0.6-1.7,1.8-3.8,1.8
		c-0.8,0-1.3-0.1-1.5-0.2c-1.3-0.4-2.2-1.5-2.2-3c0-0.5,0.1-1.6,1.2-2.4c1.1-0.9,3.1-1.2,4.5-1.3l1.7-0.1c0-0.3,0-0.6,0-0.9
		c0-0.8-0.2-2.5-2.5-2.5c-0.4,0-1.8,0-2.3,1.3c-0.1,0.4-0.1,0.6-0.1,1l-2-0.1c0-0.2,0-0.6,0.2-1.1c0.4-1.1,1.4-2.6,4.1-2.6
		c0.3,0,0.9,0,1.8,0.2c0.4,0.1,1.9,0.6,2.5,2.1c0.2,0.6,0.2,1.2,0.2,2.4v3.6c0,0.2,0,0.5,0,0.7c0,0.3,0,0.9,0.8,0.9
		c0.2,0,0.4,0,0.6-0.1v1.6C538.7,273.6,538.3,273.6,538,273.6z M535.9,268.2V268c-0.9,0.1-3.1,0.4-4,0.8c-0.4,0.1-1.4,0.6-1.4,1.7
		c0,0.8,0.6,1.7,2.1,1.7c1,0,3.3-0.4,3.3-3.3C535.9,268.7,535.9,268.5,535.9,268.2z"/>
	<path class="st9" d="M540.7,273.5v-16.7h1.8v16.7H540.7z"/>
	<path class="st9" d="M554.2,271.6c-0.6,0.9-1.8,2.2-4.3,2.2c-1.2,0-1.9-0.3-2.3-0.4c-1.4-0.6-3.1-2.1-3.1-5.6
		c0-2.1,0.7-3.2,1.3-3.9c1-1.2,2.6-1.9,4.1-1.9c0.6,0,1.2,0.1,1.8,0.3c0.7,0.2,2.1,0.9,2.8,2.6c0.3,0.7,0.5,1.6,0.5,3.3h-8.5
		c0,2,0.9,3.1,1.6,3.6c0.6,0.4,1.3,0.6,2,0.6c1,0,1.5-0.4,1.9-0.7c0.1-0.1,0.4-0.4,0.6-0.7c0.3-0.5,0.4-1,0.4-1.2l1.9,0.3
		C554.9,270.3,554.6,271,554.2,271.6z M552.7,265.8c-0.4-1.4-1.6-2.3-3-2.3c-2,0-3,1.7-3.2,3.4h6.4
		C552.8,266.3,552.8,266,552.7,265.8z"/>
	<path class="st9" d="M565.5,272c-0.6,0.9-1.8,1.8-4.2,1.8c-0.3,0-2.1,0-3.3-0.8c-0.2-0.1-0.5-0.3-0.8-0.7c-0.8-1-0.9-2-1-2.4
		l2.2-0.3c0,0.7,0.1,1.4,0.6,2c0.7,0.7,1.6,0.9,2.5,0.9c0.2,0,1.3,0,2.1-0.6c0.5-0.4,0.5-1,0.5-1.2c0-0.1,0-0.5-0.2-0.8
		c-0.4-0.6-1.5-0.8-2.1-0.9l-1.1-0.2c-1.4-0.3-2-0.5-2.6-0.9c-0.9-0.5-1.3-1.3-1.3-2.4c0-0.3,0-1.1,0.6-1.8c1.1-1.5,3.3-1.5,3.7-1.5
		c2.3,0,3.6,1.2,4.2,2c0.4,0.7,0.5,1.4,0.6,1.7l-2,0.2c0-0.5,0-0.8-0.2-1c-0.3-0.6-1.2-1.4-2.8-1.4c-1.5,0-2.2,0.9-2.2,1.6
		c0,0.1,0,0.3,0.2,0.6c0.4,0.6,1.2,0.9,2.5,1.2l1.1,0.3c0.3,0.1,0.7,0.2,1,0.3c1.5,0.4,2.7,1.3,2.7,3
		C565.9,270.6,565.9,271.3,565.5,272z"/>
</g>
<g>
	<path class="st9" d="M443.8,332.7l-1.8-5.1h-6.4l-1.9,5.1h-2.4l6.4-16.7h2.3l6.1,16.7H443.8z M438.9,318.7l-2.6,7h5L438.9,318.7z"
		/>
	<path class="st9" d="M456.1,331.2c-0.6,0.9-1.8,1.8-4.2,1.8c-0.3,0-2.1,0-3.3-0.8c-0.2-0.1-0.5-0.3-0.8-0.7c-0.8-1-0.9-2-1-2.4
		l2.2-0.3c0,0.7,0.1,1.4,0.6,2c0.7,0.7,1.6,0.9,2.5,0.9c0.2,0,1.3,0,2.1-0.6c0.5-0.4,0.5-1,0.5-1.2c0-0.1,0-0.5-0.2-0.8
		c-0.4-0.6-1.5-0.8-2.1-0.9l-1.1-0.2c-1.4-0.3-2-0.5-2.6-0.9c-0.9-0.5-1.3-1.3-1.3-2.4c0-0.3,0-1.1,0.6-1.8c1.1-1.5,3.3-1.5,3.7-1.5
		c2.3,0,3.6,1.2,4.2,2c0.4,0.7,0.5,1.4,0.6,1.7l-2,0.2c0-0.5,0-0.8-0.2-1c-0.3-0.6-1.2-1.4-2.8-1.4c-1.5,0-2.2,0.9-2.2,1.6
		c0,0.1,0,0.3,0.2,0.6c0.4,0.6,1.2,0.9,2.5,1.2l1.1,0.3c0.3,0.1,0.7,0.2,1,0.3c1.5,0.4,2.7,1.3,2.7,3
		C456.6,329.8,456.5,330.5,456.1,331.2z"/>
	<path class="st9" d="M458.5,318.1V316h1.8v2.2H458.5z M458.5,332.7v-11.1h1.8v11.1H458.5z"/>
	<path class="st9" d="M471.4,331.2c-0.6,0.9-1.8,1.8-4.2,1.8c-0.3,0-2.1,0-3.3-0.8c-0.2-0.1-0.5-0.3-0.8-0.7c-0.8-1-0.9-2-1-2.4
		l2.2-0.3c0,0.7,0.1,1.4,0.6,2c0.7,0.7,1.6,0.9,2.5,0.9c0.2,0,1.3,0,2.1-0.6c0.5-0.4,0.5-1,0.5-1.2c0-0.1,0-0.5-0.2-0.8
		c-0.4-0.6-1.5-0.8-2.1-0.9l-1.1-0.2c-1.4-0.3-2-0.5-2.6-0.9c-0.9-0.5-1.3-1.3-1.3-2.4c0-0.3,0-1.1,0.6-1.8c1.1-1.5,3.3-1.5,3.7-1.5
		c2.3,0,3.6,1.2,4.2,2c0.4,0.7,0.5,1.4,0.6,1.7l-2,0.2c0-0.5,0-0.8-0.2-1c-0.3-0.6-1.2-1.4-2.8-1.4c-1.5,0-2.2,0.9-2.2,1.6
		c0,0.1,0,0.3,0.2,0.6c0.4,0.6,1.2,0.9,2.5,1.2l1.1,0.3c0.3,0.1,0.7,0.2,1,0.3c1.5,0.4,2.7,1.3,2.7,3
		C471.9,329.8,471.8,330.5,471.4,331.2z"/>
	<path class="st9" d="M476.5,332.9c-1.1,0-1.6-0.3-1.9-0.7c-0.3-0.4-0.3-0.9-0.3-1.8v-7.2h-1.8v-1.6h1.8V318h1.9v3.5h2v1.6h-2v6.4
		c0,0.8,0,1.2,0.1,1.6c0.1,0.3,0.4,0.3,0.7,0.3c0.2,0,0.7-0.1,1.2-0.3v1.6C478.1,332.7,477.2,332.9,476.5,332.9z"/>
	<path class="st9" d="M489.3,330.8c-0.6,0.9-1.8,2.2-4.3,2.2c-1.2,0-1.9-0.3-2.3-0.4c-1.4-0.6-3.1-2.1-3.1-5.6
		c0-2.1,0.7-3.2,1.3-3.9c1-1.2,2.6-1.9,4.1-1.9c0.6,0,1.2,0.1,1.8,0.3c0.7,0.2,2.1,0.9,2.8,2.6c0.3,0.7,0.5,1.6,0.5,3.3h-8.5
		c0,2,0.9,3.1,1.6,3.6c0.6,0.4,1.3,0.6,2,0.6c1,0,1.5-0.4,1.9-0.7c0.1-0.1,0.4-0.4,0.6-0.7c0.3-0.5,0.4-1,0.4-1.2l1.9,0.3
		C489.9,329.5,489.7,330.2,489.3,330.8z M487.8,325c-0.4-1.4-1.6-2.3-3-2.3c-2,0-3,1.7-3.2,3.4h6.4
		C487.9,325.5,487.9,325.2,487.8,325z"/>
	<path class="st9" d="M499.3,332.7v-7.1c0-0.3,0.1-1.4-0.9-2.1c-0.3-0.2-0.8-0.5-1.7-0.5c-0.8,0-1.5,0.3-2.1,0.8
		c-0.1,0.1-0.5,0.5-0.7,1c-0.2,0.5-0.2,1-0.2,1.5v6.3h-1.9v-11.1h1.9v1.6c0.2-0.4,0.5-0.7,0.6-0.8c0.4-0.4,1.4-1.2,2.9-1.2
		c0.5,0,2.2,0.1,3.2,1.5c0.7,1,0.7,2.1,0.7,3.3v6.6H499.3z"/>
	<path class="st9" d="M512.1,332c-1.3,1-2.9,1-3.4,1c-0.3,0-1.2,0-2.1-0.3c-1.3-0.5-3.4-2-3.4-5.5c0-3.6,2-5.2,3.4-5.7
		c0.9-0.3,1.7-0.3,2-0.3c3,0,4.3,1.6,4.8,2.7c0.2,0.4,0.2,0.6,0.3,1l-2.1,0.2c0-0.2-0.1-0.8-0.5-1.3c-0.8-1.2-2.1-1.3-2.6-1.3
		c-1.7,0-3.4,1.1-3.4,4.5c0,2,0.6,3.1,1.3,3.7c0.6,0.6,1.4,0.8,2.2,0.8c0.5,0,1-0.1,1.4-0.3c1.2-0.5,1.5-1.6,1.7-2.8l2,0.2
		C513.7,330.5,512.7,331.6,512.1,332z"/>
	<path class="st9" d="M515.8,318.1V316h1.8v2.2H515.8z M515.8,332.7v-11.1h1.8v11.1H515.8z"/>
	<path class="st9" d="M528.9,332.8c-0.1,0-0.8,0-1.2-0.3c-0.2-0.1-0.3-0.4-0.4-0.4c-0.3-0.4-0.3-0.7-0.4-0.9
		c-0.5,0.6-1.7,1.8-3.8,1.8c-0.8,0-1.3-0.1-1.5-0.2c-1.3-0.4-2.2-1.5-2.2-3c0-0.5,0.1-1.6,1.2-2.4c1.1-0.9,3.1-1.2,4.5-1.3l1.7-0.1
		c0-0.3,0-0.6,0-0.9c0-0.8-0.2-2.5-2.5-2.5c-0.4,0-1.8,0-2.3,1.3c-0.1,0.4-0.1,0.6-0.1,1l-2-0.1c0-0.2,0-0.6,0.2-1.1
		c0.4-1.1,1.4-2.6,4.1-2.6c0.3,0,0.9,0,1.8,0.2c0.4,0.1,1.9,0.6,2.5,2.1c0.2,0.6,0.2,1.2,0.2,2.4v3.6c0,0.2,0,0.5,0,0.7
		c0,0.3,0,0.9,0.8,0.9c0.2,0,0.4,0,0.6-0.1v1.6C529.5,332.8,529.2,332.8,528.9,332.8z M526.8,327.4v-0.2c-0.9,0.1-3.1,0.4-4,0.8
		c-0.4,0.1-1.4,0.6-1.4,1.7c0,0.8,0.6,1.7,2.1,1.7c1,0,3.3-0.4,3.3-3.3C526.8,327.9,526.8,327.6,526.8,327.4z"/>
	<path class="st9" d="M540,331.2c-0.6,0.9-1.8,1.8-4.2,1.8c-0.3,0-2.1,0-3.3-0.8c-0.2-0.1-0.5-0.3-0.8-0.7c-0.8-1-0.9-2-1-2.4
		l2.2-0.3c0,0.7,0.1,1.4,0.6,2c0.7,0.7,1.6,0.9,2.5,0.9c0.2,0,1.3,0,2.1-0.6c0.5-0.4,0.5-1,0.5-1.2c0-0.1,0-0.5-0.2-0.8
		c-0.4-0.6-1.5-0.8-2.1-0.9l-1.1-0.2c-1.4-0.3-2-0.5-2.6-0.9c-0.9-0.5-1.3-1.3-1.3-2.4c0-0.3,0-1.1,0.6-1.8c1.1-1.5,3.3-1.5,3.7-1.5
		c2.3,0,3.6,1.2,4.2,2c0.4,0.7,0.5,1.4,0.6,1.7l-2,0.2c0-0.5,0-0.8-0.2-1c-0.3-0.6-1.2-1.4-2.8-1.4c-1.5,0-2.2,0.9-2.2,1.6
		c0,0.1,0,0.3,0.2,0.6c0.4,0.6,1.2,0.9,2.5,1.2l1.1,0.3c0.3,0.1,0.7,0.2,1,0.3c1.5,0.4,2.7,1.3,2.7,3
		C540.5,329.8,540.5,330.5,540,331.2z"/>
	<path class="st9" d="M558,325.4c-0.6,0.2-1.2,0.2-2.5,0.2h-4.8v7.1h-2.2V316h7.2c1.3,0,2.4,0,3.5,0.7c1.9,1.2,2,3.4,2,4
		C561.3,322.8,560.2,324.8,558,325.4z M558.9,319.5c-0.3-0.8-0.9-1.3-1.7-1.5c-0.5-0.1-0.9-0.1-1.3-0.1h-5.2v5.7h4.7
		c0.6,0,1.2,0,1.8-0.1c1.3-0.4,1.9-1.6,1.9-2.9C559.1,320.5,559.1,320,558.9,319.5z"/>
	<path class="st9" d="M562.6,332.7V316h1.8v16.7H562.6z"/>
	<path class="st9" d="M575.8,332.8c-0.1,0-0.8,0-1.2-0.3c-0.2-0.1-0.3-0.4-0.4-0.4c-0.3-0.4-0.3-0.7-0.4-0.9
		c-0.5,0.6-1.7,1.8-3.8,1.8c-0.8,0-1.3-0.1-1.5-0.2c-1.3-0.4-2.2-1.5-2.2-3c0-0.5,0.1-1.6,1.2-2.4c1.1-0.9,3.1-1.2,4.5-1.3l1.7-0.1
		c0-0.3,0-0.6,0-0.9c0-0.8-0.2-2.5-2.5-2.5c-0.4,0-1.8,0-2.3,1.3c-0.1,0.4-0.1,0.6-0.1,1l-2-0.1c0-0.2,0-0.6,0.2-1.1
		c0.4-1.1,1.4-2.6,4.1-2.6c0.3,0,0.9,0,1.8,0.2c0.4,0.1,1.9,0.6,2.5,2.1c0.2,0.6,0.2,1.2,0.2,2.4v3.6c0,0.2,0,0.5,0,0.7
		c0,0.3,0,0.9,0.8,0.9c0.2,0,0.4,0,0.6-0.1v1.6C576.4,332.8,576.1,332.8,575.8,332.8z M573.7,327.4v-0.2c-0.9,0.1-3.1,0.4-4,0.8
		c-0.4,0.1-1.4,0.6-1.4,1.7c0,0.8,0.6,1.7,2.1,1.7c1,0,3.3-0.4,3.3-3.3C573.7,327.9,573.7,327.6,573.7,327.4z"/>
	<path class="st9" d="M581.2,332.9c-1.1,0-1.6-0.3-1.9-0.7c-0.3-0.4-0.3-0.9-0.3-1.8v-7.2h-1.8v-1.6h1.8V318h1.9v3.5h2v1.6h-2v6.4
		c0,0.8,0,1.2,0.1,1.6c0.1,0.3,0.4,0.3,0.7,0.3c0.2,0,0.7-0.1,1.2-0.3v1.6C582.8,332.7,581.9,332.9,581.2,332.9z"/>
	<path class="st9" d="M593.6,332.8c-0.1,0-0.8,0-1.2-0.3c-0.2-0.1-0.3-0.4-0.4-0.4c-0.3-0.4-0.3-0.7-0.4-0.9
		c-0.5,0.6-1.7,1.8-3.8,1.8c-0.8,0-1.3-0.1-1.5-0.2c-1.3-0.4-2.2-1.5-2.2-3c0-0.5,0.1-1.6,1.2-2.4c1.1-0.9,3.1-1.2,4.5-1.3l1.7-0.1
		c0-0.3,0-0.6,0-0.9c0-0.8-0.2-2.5-2.5-2.5c-0.4,0-1.8,0-2.3,1.3c-0.1,0.4-0.1,0.6-0.1,1l-2-0.1c0-0.2,0-0.6,0.2-1.1
		c0.4-1.1,1.4-2.6,4.1-2.6c0.3,0,0.9,0,1.8,0.2c0.4,0.1,1.9,0.6,2.5,2.1c0.2,0.6,0.2,1.2,0.2,2.4v3.6c0,0.2,0,0.5,0,0.7
		c0,0.3,0,0.9,0.8,0.9c0.2,0,0.4,0,0.6-0.1v1.6C594.2,332.8,593.9,332.8,593.6,332.8z M591.5,327.4v-0.2c-0.9,0.1-3.1,0.4-4,0.8
		c-0.4,0.1-1.4,0.6-1.4,1.7c0,0.8,0.6,1.7,2.1,1.7c1,0,3.3-0.4,3.3-3.3C591.5,327.9,591.5,327.6,591.5,327.4z"/>
</g>
<g>
	<path class="st9" d="M706.1,332.7l-1.8-5.1h-6.4l-1.9,5.1h-2.4l6.4-16.7h2.3l6.1,16.7H706.1z M701.2,318.7l-2.6,7h5L701.2,318.7z"
		/>
	<path class="st9" d="M718.3,331.2c-0.6,0.9-1.8,1.8-4.2,1.8c-0.3,0-2.1,0-3.3-0.8c-0.2-0.1-0.5-0.3-0.8-0.7c-0.8-1-0.9-2-1-2.4
		l2.2-0.3c0,0.7,0.1,1.4,0.6,2c0.7,0.7,1.6,0.9,2.5,0.9c0.2,0,1.3,0,2.1-0.6c0.5-0.4,0.5-1,0.5-1.2c0-0.1,0-0.5-0.2-0.8
		c-0.4-0.6-1.5-0.8-2.1-0.9l-1.1-0.2c-1.4-0.3-2-0.5-2.6-0.9c-0.9-0.5-1.3-1.3-1.3-2.4c0-0.3,0-1.1,0.6-1.8c1.1-1.5,3.3-1.5,3.7-1.5
		c2.3,0,3.6,1.2,4.2,2c0.4,0.7,0.5,1.4,0.6,1.7l-2,0.2c0-0.5,0-0.8-0.2-1c-0.3-0.6-1.2-1.4-2.8-1.4c-1.5,0-2.2,0.9-2.2,1.6
		c0,0.1,0,0.3,0.2,0.6c0.4,0.6,1.2,0.9,2.5,1.2l1.1,0.3c0.3,0.1,0.7,0.2,1,0.3c1.5,0.4,2.7,1.3,2.7,3
		C718.8,329.8,718.8,330.5,718.3,331.2z"/>
	<path class="st9" d="M720.8,318.1V316h1.8v2.2H720.8z M720.8,332.7v-11.1h1.8v11.1H720.8z"/>
	<path class="st9" d="M733.7,331.2c-0.6,0.9-1.8,1.8-4.2,1.8c-0.3,0-2.1,0-3.3-0.8c-0.2-0.1-0.5-0.3-0.8-0.7c-0.8-1-0.9-2-1-2.4
		l2.2-0.3c0,0.7,0.1,1.4,0.6,2c0.7,0.7,1.6,0.9,2.5,0.9c0.2,0,1.3,0,2.1-0.6c0.5-0.4,0.5-1,0.5-1.2c0-0.1,0-0.5-0.2-0.8
		c-0.4-0.6-1.5-0.8-2.1-0.9l-1.1-0.2c-1.4-0.3-2-0.5-2.6-0.9c-0.9-0.5-1.3-1.3-1.3-2.4c0-0.3,0-1.1,0.6-1.8c1.1-1.5,3.3-1.5,3.7-1.5
		c2.3,0,3.6,1.2,4.2,2c0.4,0.7,0.5,1.4,0.6,1.7l-2,0.2c0-0.5,0-0.8-0.2-1c-0.3-0.6-1.2-1.4-2.8-1.4c-1.5,0-2.2,0.9-2.2,1.6
		c0,0.1,0,0.3,0.2,0.6c0.4,0.6,1.2,0.9,2.5,1.2l1.1,0.3c0.3,0.1,0.7,0.2,1,0.3c1.5,0.4,2.7,1.3,2.7,3
		C734.1,329.8,734.1,330.5,733.7,331.2z"/>
	<path class="st9" d="M738.8,332.9c-1.1,0-1.6-0.3-1.9-0.7c-0.3-0.4-0.3-0.9-0.3-1.8v-7.2h-1.8v-1.6h1.8V318h1.9v3.5h2v1.6h-2v6.4
		c0,0.8,0,1.2,0.1,1.6c0.1,0.3,0.4,0.3,0.7,0.3c0.2,0,0.7-0.1,1.2-0.3v1.6C740.4,332.7,739.5,332.9,738.8,332.9z"/>
	<path class="st9" d="M751.6,330.8c-0.6,0.9-1.8,2.2-4.3,2.2c-1.2,0-1.9-0.3-2.3-0.4c-1.4-0.6-3.1-2.1-3.1-5.6
		c0-2.1,0.7-3.2,1.3-3.9c1-1.2,2.6-1.9,4.1-1.9c0.6,0,1.2,0.1,1.8,0.3c0.7,0.2,2.1,0.9,2.8,2.6c0.3,0.7,0.5,1.6,0.5,3.3h-8.5
		c0,2,0.9,3.1,1.6,3.6c0.6,0.4,1.3,0.6,2,0.6c1,0,1.5-0.4,1.9-0.7c0.1-0.1,0.4-0.4,0.6-0.7c0.3-0.5,0.4-1,0.4-1.2l1.9,0.3
		C752.2,329.5,752,330.2,751.6,330.8z M750.1,325c-0.4-1.4-1.6-2.3-3-2.3c-2,0-3,1.7-3.2,3.4h6.4C750.2,325.5,750.1,325.2,750.1,325
		z"/>
	<path class="st9" d="M761.6,332.7v-7.1c0-0.3,0.1-1.4-0.9-2.1c-0.3-0.2-0.8-0.5-1.7-0.5c-0.8,0-1.5,0.3-2.1,0.8
		c-0.1,0.1-0.5,0.5-0.7,1c-0.2,0.5-0.2,1-0.2,1.5v6.3h-1.9v-11.1h1.9v1.6c0.2-0.4,0.5-0.7,0.6-0.8c0.4-0.4,1.4-1.2,2.9-1.2
		c0.5,0,2.2,0.1,3.2,1.5c0.7,1,0.7,2.1,0.7,3.3v6.6H761.6z"/>
	<path class="st9" d="M774.4,332c-1.3,1-2.9,1-3.4,1c-0.3,0-1.2,0-2.1-0.3c-1.3-0.5-3.4-2-3.4-5.5c0-3.6,2-5.2,3.4-5.7
		c0.9-0.3,1.7-0.3,2-0.3c3,0,4.3,1.6,4.8,2.7c0.2,0.4,0.2,0.6,0.3,1l-2.1,0.2c0-0.2-0.1-0.8-0.5-1.3c-0.8-1.2-2.1-1.3-2.6-1.3
		c-1.7,0-3.4,1.1-3.4,4.5c0,2,0.6,3.1,1.3,3.7c0.6,0.6,1.4,0.8,2.2,0.8c0.5,0,1-0.1,1.4-0.3c1.2-0.5,1.5-1.6,1.7-2.8l2,0.2
		C775.9,330.5,775,331.6,774.4,332z"/>
	<path class="st9" d="M778.1,318.1V316h1.8v2.2H778.1z M778.1,332.7v-11.1h1.8v11.1H778.1z"/>
	<path class="st9" d="M791.2,332.8c-0.1,0-0.8,0-1.2-0.3c-0.2-0.1-0.3-0.4-0.4-0.4c-0.3-0.4-0.3-0.7-0.4-0.9
		c-0.5,0.6-1.7,1.8-3.8,1.8c-0.8,0-1.3-0.1-1.5-0.2c-1.3-0.4-2.2-1.5-2.2-3c0-0.5,0.1-1.6,1.2-2.4c1.1-0.9,3.1-1.2,4.5-1.3l1.7-0.1
		c0-0.3,0-0.6,0-0.9c0-0.8-0.2-2.5-2.5-2.5c-0.4,0-1.8,0-2.3,1.3c-0.1,0.4-0.1,0.6-0.1,1l-2-0.1c0-0.2,0-0.6,0.2-1.1
		c0.4-1.1,1.4-2.6,4.1-2.6c0.3,0,0.9,0,1.8,0.2c0.4,0.1,1.9,0.6,2.5,2.1c0.2,0.6,0.2,1.2,0.2,2.4v3.6c0,0.2,0,0.5,0,0.7
		c0,0.3,0,0.9,0.8,0.9c0.2,0,0.4,0,0.6-0.1v1.6C791.8,332.8,791.5,332.8,791.2,332.8z M789.1,327.4v-0.2c-0.9,0.1-3.1,0.4-4,0.8
		c-0.4,0.1-1.4,0.6-1.4,1.7c0,0.8,0.6,1.7,2.1,1.7c1,0,3.3-0.4,3.3-3.3C789.1,327.9,789.1,327.6,789.1,327.4z"/>
	<path class="st9" d="M802.3,331.2c-0.6,0.9-1.8,1.8-4.2,1.8c-0.3,0-2.1,0-3.3-0.8c-0.2-0.1-0.5-0.3-0.8-0.7c-0.8-1-0.9-2-1-2.4
		l2.2-0.3c0,0.7,0.1,1.4,0.6,2c0.7,0.7,1.6,0.9,2.5,0.9c0.2,0,1.3,0,2.1-0.6c0.5-0.4,0.5-1,0.5-1.2c0-0.1,0-0.5-0.2-0.8
		c-0.4-0.6-1.5-0.8-2.1-0.9l-1.1-0.2c-1.4-0.3-2-0.5-2.6-0.9c-0.9-0.5-1.3-1.3-1.3-2.4c0-0.3,0-1.1,0.6-1.8c1.1-1.5,3.3-1.5,3.7-1.5
		c2.3,0,3.6,1.2,4.2,2c0.4,0.7,0.5,1.4,0.6,1.7l-2,0.2c0-0.5,0-0.8-0.2-1c-0.3-0.6-1.2-1.4-2.8-1.4c-1.5,0-2.2,0.9-2.2,1.6
		c0,0.1,0,0.3,0.2,0.6c0.4,0.6,1.2,0.9,2.5,1.2l1.1,0.3c0.3,0.1,0.7,0.2,1,0.3c1.5,0.4,2.7,1.3,2.7,3
		C802.8,329.8,802.7,330.5,802.3,331.2z"/>
	<path class="st9" d="M825.3,330c-0.9,1.2-2.9,3.1-6.7,3.1c-1,0-3.6-0.1-5.7-2.1c-1.1-1-2.6-3.1-2.6-6.7c0-0.9,0-3.8,2.1-6.1
		c1.6-1.8,4-2.6,6.3-2.6c1.1,0,2.3,0.2,3.3,0.6c3.5,1.3,5.1,4.5,5.1,8C827,325,827,327.7,825.3,330z M823.3,319.5
		c-1.5-2.1-3.8-2.2-4.7-2.2c-2.7,0-4.1,1.4-4.7,2.3c-0.9,1.3-1.3,3.1-1.3,4.7c0,2.2,0.7,3.7,1.1,4.4c0.4,0.6,0.9,1.1,1.1,1.3
		c0.7,0.6,1.3,0.9,1.6,1c0.5,0.2,1.1,0.4,2.3,0.4c0.4,0,1.5,0,2.5-0.5c1.6-0.7,3.4-2.7,3.4-6.7C824.6,323.6,824.6,321.3,823.3,319.5
		z"/>
	<path class="st9" d="M833.6,323.4c-1.1,0.2-2,0.9-2.2,2c-0.2,0.6-0.2,1-0.2,2.1v5.2h-1.9v-11.1h1.9v2c0.3-0.5,0.6-0.9,1-1.3
		s1.3-0.9,2.8-0.9v2C834.3,323.3,833.9,323.3,833.6,323.4z"/>
	<path class="st9" d="M845.3,331.1c-0.6,0.7-1.8,1.9-4.1,1.9c-0.7,0-2.5-0.1-3.9-1.5c-0.7-0.7-1.6-2.1-1.6-4.4c0-1.4,0.4-2.9,1.3-4
		c1.1-1.4,2.5-1.9,4.3-1.9c0.8,0,1.6,0.1,2.2,0.4c1.3,0.5,3.2,2.1,3.1,5.5C846.6,327.7,846.5,329.6,845.3,331.1z M844,324.2
		c-0.2-0.3-0.4-0.6-0.7-0.9c-0.8-0.7-1.7-0.7-2-0.7c-3.6,0-3.5,3.9-3.5,4.5c0,0.5,0.1,1,0.1,1.1c0.1,0.8,0.7,3.2,3.3,3.1
		c0.5,0,1.8-0.1,2.6-1.4c0.7-1.1,0.8-2.8,0.8-3C844.5,326.8,844.5,325.3,844,324.2z"/>
</g>
<g>
	<path class="st9" d="M203.9,395.4c-0.6,0.2-1.2,0.2-2.5,0.2h-4.8v7.1h-2.2V386h7.2c1.3,0,2.4,0,3.5,0.7c1.9,1.2,2,3.4,2,4
		C207.2,392.8,206.1,394.8,203.9,395.4z M204.8,389.5c-0.3-0.8-0.9-1.3-1.7-1.5c-0.5-0.1-0.9-0.1-1.3-0.1h-5.2v5.7h4.7
		c0.6,0,1.2,0,1.8-0.1c1.3-0.4,1.9-1.6,1.9-2.9C205,390.5,205,390,204.8,389.5z"/>
	<path class="st9" d="M217.2,402.8c-0.1,0-0.8,0-1.2-0.3c-0.2-0.1-0.3-0.4-0.4-0.4c-0.3-0.4-0.3-0.7-0.4-0.9
		c-0.5,0.6-1.7,1.8-3.8,1.8c-0.8,0-1.3-0.1-1.5-0.2c-1.3-0.5-2.2-1.5-2.2-3c0-0.5,0.1-1.6,1.2-2.4c1.1-0.9,3.1-1.2,4.5-1.3l1.7-0.1
		c0-0.3,0-0.6,0-0.9c0-0.8-0.2-2.5-2.5-2.5c-0.4,0-1.8,0-2.3,1.3c-0.1,0.4-0.1,0.6-0.1,1l-2-0.1c0-0.2,0-0.6,0.2-1.1
		c0.4-1.1,1.4-2.6,4.1-2.6c0.3,0,0.9,0,1.8,0.2c0.4,0.1,1.9,0.6,2.5,2.1c0.2,0.6,0.2,1.2,0.2,2.4v3.6c0,0.2,0,0.5,0,0.7
		c0,0.3,0,0.9,0.8,0.9c0.2,0,0.4,0,0.6-0.1v1.6C217.9,402.8,217.6,402.8,217.2,402.8z M215.1,397.5v-0.2c-0.9,0.1-3.1,0.4-4,0.8
		c-0.4,0.1-1.4,0.6-1.4,1.7c0,0.8,0.6,1.7,2.1,1.7c1,0,3.3-0.4,3.3-3.3C215.2,397.9,215.1,397.7,215.1,397.5z"/>
	<path class="st9" d="M224.2,393.4c-1.1,0.2-2,0.9-2.2,2c-0.2,0.6-0.2,1-0.2,2.1v5.2h-1.9v-11.1h1.9v2c0.3-0.5,0.6-0.9,1-1.3
		c0.4-0.4,1.3-0.9,2.8-0.9v2C224.9,393.3,224.5,393.4,224.2,393.4z"/>
	<path class="st9" d="M235.5,402.8c-0.1,0-0.8,0-1.2-0.3c-0.2-0.1-0.3-0.4-0.4-0.4c-0.3-0.4-0.3-0.7-0.4-0.9
		c-0.5,0.6-1.7,1.8-3.8,1.8c-0.8,0-1.3-0.1-1.5-0.2c-1.3-0.5-2.2-1.5-2.2-3c0-0.5,0.1-1.6,1.2-2.4c1.1-0.9,3.1-1.2,4.5-1.3l1.7-0.1
		c0-0.3,0-0.6,0-0.9c0-0.8-0.2-2.5-2.5-2.5c-0.4,0-1.8,0-2.3,1.3c-0.1,0.4-0.1,0.6-0.1,1l-2-0.1c0-0.2,0-0.6,0.2-1.1
		c0.4-1.1,1.4-2.6,4.1-2.6c0.3,0,0.9,0,1.8,0.2c0.4,0.1,1.9,0.6,2.5,2.1c0.2,0.6,0.2,1.2,0.2,2.4v3.6c0,0.2,0,0.5,0,0.7
		c0,0.3,0,0.9,0.8,0.9c0.2,0,0.4,0,0.6-0.1v1.6C236.2,402.8,235.8,402.8,235.5,402.8z M233.4,397.5v-0.2c-0.9,0.1-3.1,0.4-4,0.8
		c-0.4,0.1-1.4,0.6-1.4,1.7c0,0.8,0.6,1.7,2.1,1.7c1,0,3.3-0.4,3.3-3.3C233.5,397.9,233.4,397.7,233.4,397.5z"/>
	<path class="st9" d="M251.5,402.7v-5.9c0-0.8,0-1.8-0.2-2.5c-0.4-1-1.2-1.5-2.2-1.5c-0.5,0-1.8,0.1-2.5,1.4c-0.5,1-0.5,2-0.5,3v5.4
		h-1.9V386h1.9l0,6.7c1.3-1.4,2.6-1.5,3.4-1.5c1.5,0,2.4,0.5,2.8,0.9c0.1,0.1,0.3,0.3,0.5,0.6c0.7,1.1,0.7,2.3,0.7,3.5v6.5H251.5z"
		/>
	<path class="st9" d="M264.7,402.8c-0.1,0-0.8,0-1.2-0.3c-0.2-0.1-0.3-0.4-0.4-0.4c-0.3-0.4-0.3-0.7-0.4-0.9
		c-0.5,0.6-1.7,1.8-3.8,1.8c-0.8,0-1.3-0.1-1.5-0.2c-1.3-0.5-2.2-1.5-2.2-3c0-0.5,0.1-1.6,1.2-2.4c1.1-0.9,3.1-1.2,4.5-1.3l1.7-0.1
		c0-0.3,0-0.6,0-0.9c0-0.8-0.2-2.5-2.5-2.5c-0.4,0-1.8,0-2.3,1.3c-0.1,0.4-0.1,0.6-0.1,1l-2-0.1c0-0.2,0-0.6,0.2-1.1
		c0.4-1.1,1.4-2.6,4.1-2.6c0.3,0,0.9,0,1.8,0.2c0.4,0.1,1.9,0.6,2.5,2.1c0.2,0.6,0.2,1.2,0.2,2.4v3.6c0,0.2,0,0.5,0,0.7
		c0,0.3,0,0.9,0.8,0.9c0.2,0,0.4,0,0.6-0.1v1.6C265.3,402.8,265,402.8,264.7,402.8z M262.6,397.5v-0.2c-0.9,0.1-3.1,0.4-4,0.8
		c-0.4,0.1-1.4,0.6-1.4,1.7c0,0.8,0.6,1.7,2.1,1.7c1,0,3.3-0.4,3.3-3.3C262.6,397.9,262.6,397.7,262.6,397.5z"/>
	<path class="st9" d="M275.8,401.2c-0.6,0.9-1.8,1.8-4.2,1.8c-0.3,0-2.1,0-3.3-0.8c-0.2-0.1-0.5-0.3-0.8-0.7c-0.8-1-0.9-2-1-2.4
		l2.2-0.3c0,0.7,0.1,1.4,0.6,2c0.7,0.7,1.6,0.9,2.5,0.9c0.2,0,1.3,0,2.1-0.6c0.5-0.4,0.5-1,0.5-1.2c0-0.1,0-0.5-0.2-0.8
		c-0.4-0.6-1.5-0.8-2.1-0.9l-1.1-0.2c-1.4-0.3-2-0.5-2.6-0.9c-0.9-0.5-1.3-1.3-1.3-2.4c0-0.3,0-1.1,0.6-1.8c1.1-1.5,3.3-1.5,3.7-1.5
		c2.3,0,3.6,1.2,4.2,2c0.5,0.7,0.5,1.4,0.6,1.7l-2,0.2c0-0.5,0-0.8-0.2-1c-0.3-0.6-1.2-1.4-2.8-1.4c-1.5,0-2.2,0.9-2.2,1.6
		c0,0.1,0,0.3,0.2,0.6c0.4,0.6,1.2,0.9,2.5,1.2l1.1,0.3c0.3,0.1,0.7,0.2,1,0.3c1.5,0.5,2.7,1.3,2.7,3
		C276.3,399.8,276.3,400.5,275.8,401.2z"/>
	<path class="st9" d="M280.9,402.9c-1.1,0-1.6-0.3-1.9-0.7c-0.3-0.4-0.3-0.9-0.3-1.8v-7.2H277v-1.6h1.8V388h1.9v3.5h2v1.6h-2v6.4
		c0,0.8,0,1.2,0.1,1.6c0.1,0.3,0.4,0.3,0.7,0.3c0.2,0,0.7-0.1,1.2-0.3v1.6C282.6,402.7,281.7,402.9,280.9,402.9z"/>
	<path class="st9" d="M293.3,402.8c-0.1,0-0.8,0-1.2-0.3c-0.2-0.1-0.3-0.4-0.4-0.4c-0.3-0.4-0.3-0.7-0.4-0.9
		c-0.5,0.6-1.7,1.8-3.8,1.8c-0.8,0-1.3-0.1-1.5-0.2c-1.3-0.5-2.2-1.5-2.2-3c0-0.5,0.1-1.6,1.2-2.4c1.1-0.9,3.1-1.2,4.5-1.3l1.7-0.1
		c0-0.3,0-0.6,0-0.9c0-0.8-0.2-2.5-2.5-2.5c-0.4,0-1.8,0-2.3,1.3c-0.1,0.4-0.1,0.6-0.1,1l-2-0.1c0-0.2,0-0.6,0.2-1.1
		c0.4-1.1,1.4-2.6,4.1-2.6c0.3,0,0.9,0,1.8,0.2c0.4,0.1,1.9,0.6,2.5,2.1c0.2,0.6,0.2,1.2,0.2,2.4v3.6c0,0.2,0,0.5,0,0.7
		c0,0.3,0,0.9,0.8,0.9c0.2,0,0.4,0,0.6-0.1v1.6C294,402.8,293.6,402.8,293.3,402.8z M291.2,397.5v-0.2c-0.9,0.1-3.1,0.4-4,0.8
		c-0.4,0.1-1.4,0.6-1.4,1.7c0,0.8,0.6,1.7,2.1,1.7c1,0,3.3-0.4,3.3-3.3C291.2,397.9,291.2,397.7,291.2,397.5z"/>
	<path class="st9" d="M178,424.1v3.8h-2.1v-3.8h-7.2v-1.9l7.6-10.2h1.7v10.3h2.3v1.8H178z M170.9,422.3h5.1l0.1-7.1L170.9,422.3z"/>
	<path class="st9" d="M196.8,427.3c-1.3,1-2.9,1-3.4,1c-0.3,0-1.2,0-2.1-0.3c-1.3-0.5-3.4-2-3.4-5.5c0-3.6,2-5.2,3.4-5.7
		c0.9-0.3,1.7-0.3,2-0.3c3,0,4.3,1.6,4.8,2.7c0.2,0.4,0.2,0.6,0.3,1l-2.1,0.2c0-0.2-0.1-0.8-0.5-1.3c-0.8-1.2-2.1-1.3-2.6-1.3
		c-1.7,0-3.4,1.1-3.4,4.5c0,2,0.6,3.1,1.3,3.7c0.6,0.6,1.4,0.8,2.2,0.8c0.5,0,1-0.1,1.4-0.3c1.2-0.5,1.5-1.6,1.7-2.8l2,0.2
		C198.4,425.8,197.4,426.8,196.8,427.3z"/>
	<path class="st9" d="M209.4,426.4c-0.6,0.7-1.8,1.9-4.1,1.9c-0.7,0-2.5-0.1-3.9-1.5c-0.7-0.7-1.6-2.1-1.6-4.4c0-1.4,0.4-2.9,1.3-4
		c1.1-1.4,2.5-1.9,4.3-1.9c0.8,0,1.6,0.1,2.2,0.4c1.3,0.5,3.2,2.1,3.1,5.5C210.7,423,210.6,424.9,209.4,426.4z M208.1,419.5
		c-0.2-0.3-0.4-0.6-0.7-0.9c-0.8-0.7-1.7-0.7-2-0.7c-3.6,0-3.5,3.9-3.5,4.5c0,0.5,0.1,1,0.1,1.1c0.1,0.8,0.7,3.2,3.3,3.1
		c0.5,0,1.8-0.1,2.6-1.4c0.7-1.1,0.8-2.8,0.8-3C208.7,422.1,208.7,420.6,208.1,419.5z"/>
	<path class="st9" d="M212.8,428v-16.7h1.8V428H212.8z"/>
	<path class="st9" d="M225.9,428.1c-0.1,0-0.8,0-1.2-0.3c-0.2-0.1-0.3-0.4-0.4-0.4c-0.3-0.4-0.3-0.7-0.4-0.9
		c-0.5,0.6-1.7,1.8-3.8,1.8c-0.8,0-1.3-0.1-1.5-0.2c-1.3-0.5-2.2-1.5-2.2-3c0-0.5,0.1-1.6,1.2-2.4c1.1-0.9,3.1-1.2,4.5-1.3l1.7-0.1
		c0-0.3,0-0.6,0-0.9c0-0.8-0.2-2.5-2.5-2.5c-0.4,0-1.8,0-2.3,1.3c-0.1,0.4-0.1,0.6-0.1,1l-2-0.1c0-0.2,0-0.6,0.2-1.1
		c0.4-1.1,1.4-2.6,4.1-2.6c0.3,0,0.9,0,1.8,0.2c0.4,0.1,1.9,0.6,2.5,2.1c0.2,0.6,0.2,1.2,0.2,2.4v3.6c0,0.2,0,0.5,0,0.7
		c0,0.3,0,0.9,0.8,0.9c0.2,0,0.4,0,0.6-0.1v1.6C226.6,428.1,226.2,428.1,225.9,428.1z M223.8,422.7v-0.2c-0.9,0.1-3.1,0.4-4,0.8
		c-0.4,0.1-1.4,0.6-1.4,1.7c0,0.8,0.6,1.7,2.1,1.7c1,0,3.3-0.4,3.3-3.3C223.8,423.2,223.8,422.9,223.8,422.7z"/>
	<path class="st9" d="M238.2,426.5c-0.7,0.9-1.4,1.3-1.8,1.4c-0.4,0.2-1.1,0.4-2.2,0.4c-1.3,0-2.1-0.4-2.6-0.7
		c-0.5-0.3-0.9-0.6-1.3-1.1v1.4h-1.9v-16.7h1.9v7.1c0.1-0.1,0.2-0.4,0.5-0.6c0.9-0.9,2.1-1.3,3.3-1.3c0.8,0,2.4,0.1,3.8,1.7
		c0.6,0.8,1.4,2,1.4,4.2C239.4,423,239.4,424.9,238.2,426.5z M236.8,419.9c-0.3-0.6-1.2-1.7-2.9-1.7c-1.3,0-2.1,0.6-2.5,1
		c-0.6,0.6-1.1,1.5-1.1,3.2c0,1.2,0.3,2,0.5,2.5c0.3,0.6,1.2,1.8,3,1.8c0.6,0,1.3-0.1,1.8-0.5c0.8-0.5,1.7-1.7,1.7-3.9
		C237.4,421.9,237.4,420.9,236.8,419.9z"/>
	<path class="st9" d="M250.4,426.4c-0.6,0.7-1.8,1.9-4.1,1.9c-0.7,0-2.5-0.1-3.9-1.5c-0.7-0.7-1.6-2.1-1.6-4.4c0-1.4,0.4-2.9,1.3-4
		c1.1-1.4,2.5-1.9,4.3-1.9c0.8,0,1.6,0.1,2.2,0.4c1.3,0.5,3.2,2.1,3.1,5.5C251.7,423,251.6,424.9,250.4,426.4z M249.1,419.5
		c-0.2-0.3-0.4-0.6-0.7-0.9c-0.8-0.7-1.7-0.7-2-0.7c-3.6,0-3.5,3.9-3.5,4.5c0,0.5,0.1,1,0.1,1.1c0.1,0.8,0.7,3.2,3.3,3.1
		c0.5,0,1.8-0.1,2.6-1.4c0.7-1.1,0.8-2.8,0.8-3C249.7,422.1,249.7,420.6,249.1,419.5z"/>
	<path class="st9" d="M258,418.7c-1.1,0.2-2,0.9-2.2,2c-0.2,0.6-0.2,1-0.2,2.1v5.2h-1.9v-11.1h1.9v2c0.3-0.5,0.6-0.9,1-1.3
		s1.3-0.9,2.8-0.9v2C258.7,418.6,258.3,418.6,258,418.7z"/>
	<path class="st9" d="M269.4,428.1c-0.1,0-0.8,0-1.2-0.3c-0.2-0.1-0.3-0.4-0.4-0.4c-0.3-0.4-0.3-0.7-0.4-0.9
		c-0.5,0.6-1.7,1.8-3.8,1.8c-0.8,0-1.3-0.1-1.5-0.2c-1.3-0.5-2.2-1.5-2.2-3c0-0.5,0.1-1.6,1.2-2.4c1.1-0.9,3.1-1.2,4.5-1.3l1.7-0.1
		c0-0.3,0-0.6,0-0.9c0-0.8-0.2-2.5-2.5-2.5c-0.4,0-1.8,0-2.3,1.3c-0.1,0.4-0.1,0.6-0.1,1l-2-0.1c0-0.2,0-0.6,0.2-1.1
		c0.4-1.1,1.4-2.6,4.1-2.6c0.3,0,0.9,0,1.8,0.2c0.4,0.1,1.9,0.6,2.5,2.1c0.2,0.6,0.2,1.2,0.2,2.4v3.6c0,0.2,0,0.5,0,0.7
		c0,0.3,0,0.9,0.8,0.9c0.2,0,0.4,0,0.6-0.1v1.6C270,428.1,269.7,428.1,269.4,428.1z M267.3,422.7v-0.2c-0.9,0.1-3.1,0.4-4,0.8
		c-0.4,0.1-1.4,0.6-1.4,1.7c0,0.8,0.6,1.7,2.1,1.7c1,0,3.3-0.4,3.3-3.3C267.3,423.2,267.3,422.9,267.3,422.7z"/>
	<path class="st9" d="M280.3,428v-1.4c-0.6,0.7-1.6,1.8-3.8,1.8c-2.1,0-3.2-1-3.8-1.7c-0.6-0.8-1.4-2-1.4-4.3c0-1.4,0.3-2.7,1.1-3.9
		c0.5-0.7,1.7-2,4-2c1.6,0,2.7,0.7,3.2,1.1c0.3,0.2,0.4,0.4,0.7,0.7v-7h1.9V428H280.3z M280.2,420.9c-0.4-1.6-1.6-2.7-3.3-2.7
		c-0.5,0-1.7,0.1-2.6,1.2c-0.8,0.9-0.9,1.9-0.9,3.1c0,0.4,0,1.8,0.9,3c0.9,1.2,2.1,1.2,2.6,1.2c0.7,0,1.3-0.1,1.8-0.5
		c0.8-0.5,1.7-1.7,1.7-3.8C280.3,422.2,280.3,421.5,280.2,420.9z"/>
	<path class="st9" d="M293.8,426.4c-0.6,0.7-1.8,1.9-4.1,1.9c-0.7,0-2.5-0.1-3.9-1.5c-0.7-0.7-1.6-2.1-1.6-4.4c0-1.4,0.4-2.9,1.3-4
		c1.1-1.4,2.5-1.9,4.3-1.9c0.8,0,1.6,0.1,2.2,0.4c1.3,0.5,3.2,2.1,3.1,5.5C295.1,423,295.1,424.9,293.8,426.4z M292.5,419.5
		c-0.2-0.3-0.4-0.6-0.7-0.9c-0.8-0.7-1.7-0.7-2-0.7c-3.6,0-3.5,3.9-3.5,4.5c0,0.5,0.1,1,0.1,1.1c0.1,0.8,0.7,3.2,3.3,3.1
		c0.5,0,1.8-0.1,2.6-1.4c0.7-1.1,0.8-2.8,0.8-3C293.1,422.1,293.1,420.6,292.5,419.5z"/>
	<path class="st9" d="M301.4,418.7c-1.1,0.2-2,0.9-2.2,2c-0.2,0.6-0.2,1-0.2,2.1v5.2h-1.9v-11.1h1.9v2c0.3-0.5,0.6-0.9,1-1.3
		s1.3-0.9,2.8-0.9v2C302.2,418.6,301.8,418.6,301.4,418.7z"/>
	<path class="st9" d="M313.2,426.1c-0.6,0.9-1.8,2.2-4.3,2.2c-1.2,0-1.9-0.3-2.3-0.4c-1.4-0.6-3.1-2.1-3.1-5.6
		c0-2.1,0.7-3.2,1.3-3.9c1-1.2,2.6-1.9,4.1-1.9c0.6,0,1.2,0.1,1.8,0.3c0.7,0.2,2.1,0.9,2.8,2.6c0.3,0.7,0.5,1.6,0.5,3.3h-8.5
		c0,2,0.9,3.1,1.6,3.6c0.6,0.4,1.3,0.6,2,0.6c1,0,1.5-0.4,1.9-0.7c0.1-0.1,0.4-0.4,0.6-0.7c0.3-0.5,0.4-1,0.4-1.2l1.9,0.3
		C313.9,424.8,313.6,425.4,313.2,426.1z M311.7,420.3c-0.4-1.4-1.6-2.3-3-2.3c-2,0-3,1.7-3.2,3.4h6.4
		C311.8,420.8,311.8,420.5,311.7,420.3z"/>
	<path class="st9" d="M324.5,426.5c-0.6,0.9-1.8,1.8-4.2,1.8c-0.3,0-2.1,0-3.3-0.8c-0.2-0.1-0.5-0.3-0.8-0.7c-0.8-1-0.9-2-1-2.4
		l2.2-0.3c0,0.7,0.1,1.4,0.6,2c0.7,0.7,1.6,0.9,2.5,0.9c0.2,0,1.3,0,2.1-0.6c0.5-0.4,0.5-1,0.5-1.2c0-0.1,0-0.5-0.2-0.8
		c-0.4-0.6-1.5-0.8-2.1-0.9l-1.1-0.2c-1.4-0.3-2-0.5-2.6-0.9c-0.9-0.5-1.3-1.3-1.3-2.4c0-0.3,0-1.1,0.6-1.8c1.1-1.5,3.3-1.5,3.7-1.5
		c2.3,0,3.6,1.2,4.2,2c0.4,0.7,0.5,1.4,0.6,1.7l-2,0.2c0-0.5,0-0.8-0.2-1c-0.3-0.6-1.2-1.4-2.8-1.4c-1.5,0-2.2,0.9-2.2,1.6
		c0,0.1,0,0.3,0.2,0.6c0.4,0.6,1.2,0.9,2.5,1.2l1.1,0.3c0.3,0.1,0.7,0.2,1,0.3c1.5,0.5,2.7,1.3,2.7,3
		C325,425.1,324.9,425.8,324.5,426.5z"/>
</g>
<g>
	<path class="st9" d="M472.2,395.4c-0.6,0.2-1.2,0.2-2.5,0.2h-4.8v7.1h-2.2V386h7.2c1.3,0,2.4,0,3.5,0.7c1.9,1.2,2,3.4,2,4
		C475.4,392.8,474.3,394.8,472.2,395.4z M473,389.5c-0.3-0.8-0.9-1.3-1.7-1.5c-0.5-0.1-0.9-0.1-1.3-0.1h-5.2v5.7h4.7
		c0.6,0,1.2,0,1.8-0.1c1.3-0.4,1.9-1.6,1.9-2.9C473.2,390.5,473.2,390,473,389.5z"/>
	<path class="st9" d="M485.5,402.8c-0.1,0-0.8,0-1.2-0.3c-0.2-0.1-0.3-0.4-0.4-0.4c-0.3-0.4-0.3-0.7-0.4-0.9
		c-0.5,0.6-1.7,1.8-3.8,1.8c-0.8,0-1.3-0.1-1.5-0.2c-1.3-0.5-2.2-1.5-2.2-3c0-0.5,0.1-1.6,1.2-2.4c1.1-0.9,3.1-1.2,4.5-1.3l1.7-0.1
		c0-0.3,0-0.6,0-0.9c0-0.8-0.2-2.5-2.5-2.5c-0.4,0-1.8,0-2.3,1.3c-0.1,0.4-0.1,0.6-0.1,1l-2-0.1c0-0.2,0-0.6,0.2-1.1
		c0.4-1.1,1.4-2.6,4.1-2.6c0.3,0,0.9,0,1.8,0.2c0.4,0.1,1.9,0.6,2.5,2.1c0.2,0.6,0.2,1.2,0.2,2.4v3.6c0,0.2,0,0.5,0,0.7
		c0,0.3,0,0.9,0.8,0.9c0.2,0,0.4,0,0.6-0.1v1.6C486.1,402.8,485.8,402.8,485.5,402.8z M483.4,397.5v-0.2c-0.9,0.1-3.1,0.4-4,0.8
		c-0.4,0.1-1.4,0.6-1.4,1.7c0,0.8,0.6,1.7,2.1,1.7c1,0,3.3-0.4,3.3-3.3C483.4,397.9,483.4,397.7,483.4,397.5z"/>
	<path class="st9" d="M492.4,393.4c-1.1,0.2-2,0.9-2.2,2c-0.2,0.6-0.2,1-0.2,2.1v5.2h-1.9v-11.1h1.9v2c0.3-0.5,0.6-0.9,1-1.3
		c0.4-0.4,1.3-0.9,2.8-0.9v2C493.1,393.3,492.7,393.4,492.4,393.4z"/>
	<path class="st9" d="M503.8,402.8c-0.1,0-0.8,0-1.2-0.3c-0.2-0.1-0.3-0.4-0.4-0.4c-0.3-0.4-0.3-0.7-0.4-0.9
		c-0.5,0.6-1.7,1.8-3.8,1.8c-0.8,0-1.3-0.1-1.5-0.2c-1.3-0.5-2.2-1.5-2.2-3c0-0.5,0.1-1.6,1.2-2.4c1.1-0.9,3.1-1.2,4.5-1.3l1.7-0.1
		c0-0.3,0-0.6,0-0.9c0-0.8-0.2-2.5-2.5-2.5c-0.4,0-1.8,0-2.3,1.3c-0.1,0.4-0.1,0.6-0.1,1l-2-0.1c0-0.2,0-0.6,0.2-1.1
		c0.4-1.1,1.4-2.6,4.1-2.6c0.3,0,0.9,0,1.8,0.2c0.4,0.1,1.9,0.6,2.5,2.1c0.2,0.6,0.2,1.2,0.2,2.4v3.6c0,0.2,0,0.5,0,0.7
		c0,0.3,0,0.9,0.8,0.9c0.2,0,0.4,0,0.6-0.1v1.6C504.4,402.8,504.1,402.8,503.8,402.8z M501.7,397.5v-0.2c-0.9,0.1-3.1,0.4-4,0.8
		c-0.4,0.1-1.4,0.6-1.4,1.7c0,0.8,0.6,1.7,2.1,1.7c1,0,3.3-0.4,3.3-3.3C501.7,397.9,501.7,397.7,501.7,397.5z"/>
	<path class="st9" d="M519.7,402.7v-5.9c0-0.8,0-1.8-0.2-2.5c-0.4-1-1.2-1.5-2.2-1.5c-0.5,0-1.8,0.1-2.5,1.4c-0.5,1-0.5,2-0.5,3v5.4
		h-1.9V386h1.9l0,6.7c1.3-1.4,2.6-1.5,3.4-1.5c1.5,0,2.4,0.5,2.8,0.9c0.1,0.1,0.3,0.3,0.5,0.6c0.7,1.1,0.7,2.3,0.7,3.5v6.5H519.7z"
		/>
	<path class="st9" d="M532.9,402.8c-0.1,0-0.8,0-1.2-0.3c-0.2-0.1-0.3-0.4-0.4-0.4c-0.3-0.4-0.3-0.7-0.4-0.9
		c-0.5,0.6-1.7,1.8-3.8,1.8c-0.8,0-1.3-0.1-1.5-0.2c-1.3-0.5-2.2-1.5-2.2-3c0-0.5,0.1-1.6,1.2-2.4c1.1-0.9,3.1-1.2,4.5-1.3l1.7-0.1
		c0-0.3,0-0.6,0-0.9c0-0.8-0.2-2.5-2.5-2.5c-0.4,0-1.8,0-2.3,1.3c-0.1,0.4-0.1,0.6-0.1,1l-2-0.1c0-0.2,0-0.6,0.2-1.1
		c0.4-1.1,1.4-2.6,4.1-2.6c0.3,0,0.9,0,1.8,0.2c0.4,0.1,1.9,0.6,2.5,2.1c0.2,0.6,0.2,1.2,0.2,2.4v3.6c0,0.2,0,0.5,0,0.7
		c0,0.3,0,0.9,0.8,0.9c0.2,0,0.4,0,0.6-0.1v1.6C533.6,402.8,533.2,402.8,532.9,402.8z M530.8,397.5v-0.2c-0.9,0.1-3.1,0.4-4,0.8
		c-0.4,0.1-1.4,0.6-1.4,1.7c0,0.8,0.6,1.7,2.1,1.7c1,0,3.3-0.4,3.3-3.3C530.8,397.9,530.8,397.7,530.8,397.5z"/>
	<path class="st9" d="M544.1,401.2c-0.6,0.9-1.8,1.8-4.2,1.8c-0.3,0-2.1,0-3.3-0.8c-0.2-0.1-0.5-0.3-0.8-0.7c-0.8-1-0.9-2-1-2.4
		l2.2-0.3c0,0.7,0.1,1.4,0.6,2c0.7,0.7,1.6,0.9,2.5,0.9c0.2,0,1.3,0,2.1-0.6c0.5-0.4,0.5-1,0.5-1.2c0-0.1,0-0.5-0.2-0.8
		c-0.4-0.6-1.5-0.8-2.1-0.9l-1.1-0.2c-1.4-0.3-2-0.5-2.6-0.9c-0.9-0.5-1.3-1.3-1.3-2.4c0-0.3,0-1.1,0.6-1.8c1.1-1.5,3.3-1.5,3.7-1.5
		c2.3,0,3.6,1.2,4.2,2c0.4,0.7,0.5,1.4,0.6,1.7l-2,0.2c0-0.5,0-0.8-0.2-1c-0.3-0.6-1.2-1.4-2.8-1.4c-1.5,0-2.2,0.9-2.2,1.6
		c0,0.1,0,0.3,0.2,0.6c0.4,0.6,1.2,0.9,2.5,1.2l1.1,0.3c0.3,0.1,0.7,0.2,1,0.3c1.5,0.5,2.7,1.3,2.7,3
		C544.6,399.8,544.5,400.5,544.1,401.2z"/>
	<path class="st9" d="M549.2,402.9c-1.1,0-1.6-0.3-1.9-0.7c-0.3-0.4-0.3-0.9-0.3-1.8v-7.2h-1.8v-1.6h1.8V388h1.9v3.5h2v1.6h-2v6.4
		c0,0.8,0,1.2,0.1,1.6c0.1,0.3,0.4,0.3,0.7,0.3c0.2,0,0.7-0.1,1.2-0.3v1.6C550.8,402.7,549.9,402.9,549.2,402.9z"/>
	<path class="st9" d="M561.6,402.8c-0.1,0-0.8,0-1.2-0.3c-0.2-0.1-0.3-0.4-0.4-0.4c-0.3-0.4-0.3-0.7-0.4-0.9
		c-0.5,0.6-1.7,1.8-3.8,1.8c-0.8,0-1.3-0.1-1.5-0.2c-1.3-0.5-2.2-1.5-2.2-3c0-0.5,0.1-1.6,1.2-2.4c1.1-0.9,3.1-1.2,4.5-1.3l1.7-0.1
		c0-0.3,0-0.6,0-0.9c0-0.8-0.2-2.5-2.5-2.5c-0.4,0-1.8,0-2.3,1.3c-0.1,0.4-0.1,0.6-0.1,1l-2-0.1c0-0.2,0-0.6,0.2-1.1
		c0.4-1.1,1.4-2.6,4.1-2.6c0.3,0,0.9,0,1.8,0.2c0.4,0.1,1.9,0.6,2.5,2.1c0.2,0.6,0.2,1.2,0.2,2.4v3.6c0,0.2,0,0.5,0,0.7
		c0,0.3,0,0.9,0.8,0.9c0.2,0,0.4,0,0.6-0.1v1.6C562.2,402.8,561.9,402.8,561.6,402.8z M559.5,397.5v-0.2c-0.9,0.1-3.1,0.4-4,0.8
		c-0.4,0.1-1.4,0.6-1.4,1.7c0,0.8,0.6,1.7,2.1,1.7c1,0,3.3-0.4,3.3-3.3C559.5,397.9,559.5,397.7,559.5,397.5z"/>
	<path class="st9" d="M446.2,424.1v3.8h-2.1v-3.8H437v-1.9l7.6-10.2h1.7v10.3h2.3v1.8H446.2z M439.1,422.3h5.1l0.1-7.1L439.1,422.3z
		"/>
	<path class="st9" d="M465,427.3c-1.3,1-2.9,1-3.4,1c-0.3,0-1.2,0-2.1-0.3c-1.3-0.5-3.4-2-3.4-5.5c0-3.6,2-5.2,3.4-5.7
		c0.9-0.3,1.7-0.3,2-0.3c3,0,4.3,1.6,4.8,2.7c0.2,0.4,0.2,0.6,0.3,1l-2.1,0.2c0-0.2-0.1-0.8-0.5-1.3c-0.8-1.2-2.1-1.3-2.6-1.3
		c-1.7,0-3.4,1.1-3.4,4.5c0,2,0.6,3.1,1.3,3.7c0.6,0.6,1.4,0.8,2.2,0.8c0.5,0,1-0.1,1.4-0.3c1.2-0.5,1.5-1.6,1.7-2.8l2,0.2
		C466.6,425.8,465.6,426.8,465,427.3z"/>
	<path class="st9" d="M477.6,426.4c-0.6,0.7-1.8,1.9-4.1,1.9c-0.7,0-2.5-0.1-3.9-1.5c-0.7-0.7-1.6-2.1-1.6-4.4c0-1.4,0.4-2.9,1.3-4
		c1.1-1.4,2.5-1.9,4.3-1.9c0.8,0,1.6,0.1,2.2,0.4c1.3,0.5,3.2,2.1,3.1,5.5C478.9,423,478.9,424.9,477.6,426.4z M476.3,419.5
		c-0.2-0.3-0.4-0.6-0.7-0.9c-0.8-0.7-1.7-0.7-2-0.7c-3.6,0-3.5,3.9-3.5,4.5c0,0.5,0.1,1,0.1,1.1c0.1,0.8,0.7,3.2,3.3,3.1
		c0.5,0,1.8-0.1,2.6-1.4c0.7-1.1,0.8-2.8,0.8-3C476.9,422.1,476.9,420.6,476.3,419.5z"/>
	<path class="st9" d="M481,428v-16.7h1.8V428H481z"/>
	<path class="st9" d="M494.2,428.1c-0.1,0-0.8,0-1.2-0.3c-0.2-0.1-0.3-0.4-0.4-0.4c-0.3-0.4-0.3-0.7-0.4-0.9
		c-0.5,0.6-1.7,1.8-3.8,1.8c-0.8,0-1.3-0.1-1.5-0.2c-1.3-0.5-2.2-1.5-2.2-3c0-0.5,0.1-1.6,1.2-2.4c1.1-0.9,3.1-1.2,4.5-1.3l1.7-0.1
		c0-0.3,0-0.6,0-0.9c0-0.8-0.2-2.5-2.5-2.5c-0.4,0-1.8,0-2.3,1.3c-0.1,0.4-0.1,0.6-0.1,1l-2-0.1c0-0.2,0-0.6,0.2-1.1
		c0.4-1.1,1.4-2.6,4.1-2.6c0.3,0,0.9,0,1.8,0.2c0.4,0.1,1.9,0.6,2.5,2.1c0.2,0.6,0.2,1.2,0.2,2.4v3.6c0,0.2,0,0.5,0,0.7
		c0,0.3,0,0.9,0.8,0.9c0.2,0,0.4,0,0.6-0.1v1.6C494.8,428.1,494.5,428.1,494.2,428.1z M492.1,422.7v-0.2c-0.9,0.1-3.1,0.4-4,0.8
		c-0.4,0.1-1.4,0.6-1.4,1.7c0,0.8,0.6,1.7,2.1,1.7c1,0,3.3-0.4,3.3-3.3C492.1,423.2,492.1,422.9,492.1,422.7z"/>
	<path class="st9" d="M506.4,426.5c-0.7,0.9-1.4,1.3-1.8,1.4c-0.4,0.2-1.1,0.4-2.2,0.4c-1.3,0-2.1-0.4-2.6-0.7
		c-0.5-0.3-0.9-0.6-1.3-1.1v1.4h-1.9v-16.7h1.9v7.1c0.1-0.1,0.2-0.4,0.5-0.6c0.9-0.9,2.1-1.3,3.3-1.3c0.8,0,2.4,0.1,3.8,1.7
		c0.6,0.8,1.4,2,1.4,4.2C507.6,423,507.6,424.9,506.4,426.5z M505.1,419.9c-0.3-0.6-1.2-1.7-2.9-1.7c-1.3,0-2.1,0.6-2.5,1
		c-0.6,0.6-1.1,1.5-1.1,3.2c0,1.2,0.3,2,0.5,2.5c0.3,0.6,1.2,1.8,3,1.8c0.6,0,1.3-0.1,1.8-0.5c0.8-0.5,1.7-1.7,1.7-3.9
		C505.6,421.9,505.6,420.9,505.1,419.9z"/>
	<path class="st9" d="M518.6,426.4c-0.6,0.7-1.8,1.9-4.1,1.9c-0.7,0-2.5-0.1-3.9-1.5c-0.7-0.7-1.6-2.1-1.6-4.4c0-1.4,0.4-2.9,1.3-4
		c1.1-1.4,2.5-1.9,4.3-1.9c0.8,0,1.6,0.1,2.2,0.4c1.3,0.5,3.2,2.1,3.1,5.5C519.9,423,519.8,424.9,518.6,426.4z M517.3,419.5
		c-0.2-0.3-0.4-0.6-0.7-0.9c-0.8-0.7-1.7-0.7-2-0.7c-3.6,0-3.5,3.9-3.5,4.5c0,0.5,0.1,1,0.1,1.1c0.1,0.8,0.7,3.2,3.3,3.1
		c0.5,0,1.8-0.1,2.6-1.4c0.7-1.1,0.8-2.8,0.8-3C517.9,422.1,517.9,420.6,517.3,419.5z"/>
	<path class="st9" d="M526.2,418.7c-1.1,0.2-2,0.9-2.2,2c-0.2,0.6-0.2,1-0.2,2.1v5.2h-1.9v-11.1h1.9v2c0.3-0.5,0.6-0.9,1-1.3
		s1.3-0.9,2.8-0.9v2C526.9,418.6,526.6,418.6,526.2,418.7z"/>
	<path class="st9" d="M537.6,428.1c-0.1,0-0.8,0-1.2-0.3c-0.2-0.1-0.3-0.4-0.4-0.4c-0.3-0.4-0.3-0.7-0.4-0.9
		c-0.5,0.6-1.7,1.8-3.8,1.8c-0.8,0-1.3-0.1-1.5-0.2c-1.3-0.5-2.2-1.5-2.2-3c0-0.5,0.1-1.6,1.2-2.4c1.1-0.9,3.1-1.2,4.5-1.3l1.7-0.1
		c0-0.3,0-0.6,0-0.9c0-0.8-0.2-2.5-2.5-2.5c-0.4,0-1.8,0-2.3,1.3c-0.1,0.4-0.1,0.6-0.1,1l-2-0.1c0-0.2,0-0.6,0.2-1.1
		c0.4-1.1,1.4-2.6,4.1-2.6c0.3,0,0.9,0,1.8,0.2c0.4,0.1,1.9,0.6,2.5,2.1c0.2,0.6,0.2,1.2,0.2,2.4v3.6c0,0.2,0,0.5,0,0.7
		c0,0.3,0,0.9,0.8,0.9c0.2,0,0.4,0,0.6-0.1v1.6C538.2,428.1,537.9,428.1,537.6,428.1z M535.5,422.7v-0.2c-0.9,0.1-3.1,0.4-4,0.8
		c-0.4,0.1-1.4,0.6-1.4,1.7c0,0.8,0.6,1.7,2.1,1.7c1,0,3.3-0.4,3.3-3.3C535.5,423.2,535.5,422.9,535.5,422.7z"/>
	<path class="st9" d="M548.5,428v-1.4c-0.6,0.7-1.6,1.8-3.8,1.8c-2.1,0-3.2-1-3.8-1.7c-0.6-0.8-1.4-2-1.4-4.3c0-1.4,0.3-2.7,1.1-3.9
		c0.5-0.7,1.7-2,4-2c1.6,0,2.7,0.7,3.2,1.1c0.3,0.2,0.4,0.4,0.7,0.7v-7h1.9V428H548.5z M548.4,420.9c-0.4-1.6-1.6-2.7-3.3-2.7
		c-0.5,0-1.7,0.1-2.6,1.2c-0.8,0.9-0.9,1.9-0.9,3.1c0,0.4,0,1.8,0.9,3c0.9,1.2,2.1,1.2,2.6,1.2c0.7,0,1.3-0.1,1.8-0.5
		c0.8-0.5,1.7-1.7,1.7-3.8C548.6,422.2,548.6,421.5,548.4,420.9z"/>
	<path class="st9" d="M562.1,426.4c-0.6,0.7-1.8,1.9-4.1,1.9c-0.7,0-2.5-0.1-3.9-1.5c-0.7-0.7-1.6-2.1-1.6-4.4c0-1.4,0.4-2.9,1.3-4
		c1.1-1.4,2.5-1.9,4.3-1.9c0.8,0,1.6,0.1,2.2,0.4c1.3,0.5,3.2,2.1,3.1,5.5C563.4,423,563.3,424.9,562.1,426.4z M560.8,419.5
		c-0.2-0.3-0.4-0.6-0.7-0.9c-0.8-0.7-1.7-0.7-2-0.7c-3.6,0-3.5,3.9-3.5,4.5c0,0.5,0.1,1,0.1,1.1c0.1,0.8,0.7,3.2,3.3,3.1
		c0.5,0,1.8-0.1,2.6-1.4c0.7-1.1,0.8-2.8,0.8-3C561.4,422.1,561.4,420.6,560.8,419.5z"/>
	<path class="st9" d="M569.7,418.7c-1.1,0.2-2,0.9-2.2,2c-0.2,0.6-0.2,1-0.2,2.1v5.2h-1.9v-11.1h1.9v2c0.3-0.5,0.6-0.9,1-1.3
		c0.5-0.4,1.3-0.9,2.8-0.9v2C570.4,418.6,570,418.6,569.7,418.7z"/>
	<path class="st9" d="M581.5,426.1c-0.6,0.9-1.8,2.2-4.3,2.2c-1.2,0-1.9-0.3-2.3-0.4c-1.4-0.6-3.1-2.1-3.1-5.6
		c0-2.1,0.7-3.2,1.3-3.9c1-1.2,2.6-1.9,4.1-1.9c0.6,0,1.2,0.1,1.8,0.3c0.7,0.2,2.1,0.9,2.8,2.6c0.3,0.7,0.5,1.6,0.5,3.3h-8.5
		c0,2,0.9,3.1,1.6,3.6c0.6,0.4,1.3,0.6,2,0.6c1,0,1.5-0.4,1.9-0.7c0.1-0.1,0.4-0.4,0.6-0.7c0.3-0.5,0.4-1,0.4-1.2l1.9,0.3
		C582.1,424.8,581.9,425.4,581.5,426.1z M580,420.3c-0.4-1.4-1.6-2.3-3-2.3c-2,0-3,1.7-3.2,3.4h6.4C580.1,420.8,580,420.5,580,420.3
		z"/>
	<path class="st9" d="M592.7,426.5c-0.6,0.9-1.8,1.8-4.2,1.8c-0.3,0-2.1,0-3.3-0.8c-0.2-0.1-0.5-0.3-0.8-0.7c-0.8-1-0.9-2-1-2.4
		l2.2-0.3c0,0.7,0.1,1.4,0.6,2c0.7,0.7,1.6,0.9,2.5,0.9c0.2,0,1.3,0,2.1-0.6c0.5-0.4,0.5-1,0.5-1.2c0-0.1,0-0.5-0.2-0.8
		c-0.4-0.6-1.5-0.8-2.1-0.9l-1.1-0.2c-1.4-0.3-2-0.5-2.6-0.9c-0.9-0.5-1.3-1.3-1.3-2.4c0-0.3,0-1.1,0.6-1.8c1.1-1.5,3.3-1.5,3.7-1.5
		c2.3,0,3.6,1.2,4.2,2c0.4,0.7,0.5,1.4,0.6,1.7l-2,0.2c0-0.5,0-0.8-0.2-1c-0.3-0.6-1.2-1.4-2.8-1.4c-1.5,0-2.2,0.9-2.2,1.6
		c0,0.1,0,0.3,0.2,0.6c0.4,0.6,1.2,0.9,2.5,1.2l1.1,0.3c0.3,0.1,0.7,0.2,1,0.3c1.5,0.5,2.7,1.3,2.7,3
		C593.2,425.1,593.1,425.8,592.7,426.5z"/>
</g>
<g>
	<path class="st9" d="M727.7,395.4c-0.6,0.2-1.2,0.2-2.5,0.2h-4.8v7.1h-2.2V386h7.2c1.3,0,2.4,0,3.5,0.7c1.9,1.2,2,3.4,2,4
		C730.9,392.8,729.9,394.8,727.7,395.4z M728.6,389.5c-0.3-0.8-0.9-1.3-1.7-1.5c-0.5-0.1-0.9-0.1-1.3-0.1h-5.2v5.7h4.7
		c0.6,0,1.2,0,1.8-0.1c1.3-0.4,1.9-1.6,1.9-2.9C728.7,390.5,728.7,390,728.6,389.5z"/>
	<path class="st9" d="M741,402.8c-0.1,0-0.8,0-1.2-0.3c-0.2-0.1-0.3-0.4-0.4-0.4c-0.3-0.4-0.3-0.7-0.4-0.9c-0.5,0.6-1.7,1.8-3.8,1.8
		c-0.8,0-1.3-0.1-1.5-0.2c-1.3-0.5-2.2-1.5-2.2-3c0-0.5,0.1-1.6,1.2-2.4c1.1-0.9,3.1-1.2,4.5-1.3l1.7-0.1c0-0.3,0-0.6,0-0.9
		c0-0.8-0.2-2.5-2.5-2.5c-0.4,0-1.8,0-2.3,1.3c-0.1,0.4-0.1,0.6-0.1,1l-2-0.1c0-0.2,0-0.6,0.2-1.1c0.4-1.1,1.4-2.6,4.1-2.6
		c0.3,0,0.9,0,1.8,0.2c0.4,0.1,1.9,0.6,2.5,2.1c0.2,0.6,0.2,1.2,0.2,2.4v3.6c0,0.2,0,0.5,0,0.7c0,0.3,0,0.9,0.8,0.9
		c0.2,0,0.4,0,0.6-0.1v1.6C741.6,402.8,741.3,402.8,741,402.8z M738.9,397.5v-0.2c-0.9,0.1-3.1,0.4-4,0.8c-0.4,0.1-1.4,0.6-1.4,1.7
		c0,0.8,0.6,1.7,2.1,1.7c1,0,3.3-0.4,3.3-3.3C738.9,397.9,738.9,397.7,738.9,397.5z"/>
	<path class="st9" d="M747.9,393.4c-1.1,0.2-2,0.9-2.2,2c-0.2,0.6-0.2,1-0.2,2.1v5.2h-1.9v-11.1h1.9v2c0.3-0.5,0.6-0.9,1-1.3
		s1.3-0.9,2.8-0.9v2C748.6,393.3,748.2,393.4,747.9,393.4z"/>
	<path class="st9" d="M759.3,402.8c-0.1,0-0.8,0-1.2-0.3c-0.2-0.1-0.3-0.4-0.4-0.4c-0.3-0.4-0.3-0.7-0.4-0.9
		c-0.5,0.6-1.7,1.8-3.8,1.8c-0.8,0-1.3-0.1-1.5-0.2c-1.3-0.5-2.2-1.5-2.2-3c0-0.5,0.1-1.6,1.2-2.4c1.1-0.9,3.1-1.2,4.5-1.3l1.7-0.1
		c0-0.3,0-0.6,0-0.9c0-0.8-0.2-2.5-2.5-2.5c-0.4,0-1.8,0-2.3,1.3c-0.1,0.4-0.1,0.6-0.1,1l-2-0.1c0-0.2,0-0.6,0.2-1.1
		c0.4-1.1,1.4-2.6,4.1-2.6c0.3,0,0.9,0,1.8,0.2c0.4,0.1,1.9,0.6,2.5,2.1c0.2,0.6,0.2,1.2,0.2,2.4v3.6c0,0.2,0,0.5,0,0.7
		c0,0.3,0,0.9,0.8,0.9c0.2,0,0.4,0,0.6-0.1v1.6C759.9,402.8,759.6,402.8,759.3,402.8z M757.2,397.5v-0.2c-0.9,0.1-3.1,0.4-4,0.8
		c-0.4,0.1-1.4,0.6-1.4,1.7c0,0.8,0.6,1.7,2.1,1.7c1,0,3.3-0.4,3.3-3.3C757.2,397.9,757.2,397.7,757.2,397.5z"/>
	<path class="st9" d="M775.2,402.7v-5.9c0-0.8,0-1.8-0.2-2.5c-0.4-1-1.2-1.5-2.2-1.5c-0.5,0-1.8,0.1-2.5,1.4c-0.5,1-0.5,2-0.5,3v5.4
		h-1.9V386h1.9l0,6.7c1.3-1.4,2.6-1.5,3.4-1.5c1.5,0,2.4,0.5,2.8,0.9c0.1,0.1,0.3,0.3,0.5,0.6c0.7,1.1,0.7,2.3,0.7,3.5v6.5H775.2z"
		/>
	<path class="st9" d="M788.4,402.8c-0.1,0-0.8,0-1.2-0.3c-0.2-0.1-0.3-0.4-0.4-0.4c-0.3-0.4-0.3-0.7-0.4-0.9
		c-0.5,0.6-1.7,1.8-3.8,1.8c-0.8,0-1.3-0.1-1.5-0.2c-1.3-0.5-2.2-1.5-2.2-3c0-0.5,0.1-1.6,1.2-2.4c1.1-0.9,3.1-1.2,4.5-1.3l1.7-0.1
		c0-0.3,0-0.6,0-0.9c0-0.8-0.2-2.5-2.5-2.5c-0.4,0-1.8,0-2.3,1.3c-0.1,0.4-0.1,0.6-0.1,1l-2-0.1c0-0.2,0-0.6,0.2-1.1
		c0.4-1.1,1.4-2.6,4.1-2.6c0.3,0,0.9,0,1.8,0.2c0.4,0.1,1.9,0.6,2.5,2.1c0.2,0.6,0.2,1.2,0.2,2.4v3.6c0,0.2,0,0.5,0,0.7
		c0,0.3,0,0.9,0.8,0.9c0.2,0,0.4,0,0.6-0.1v1.6C789.1,402.8,788.7,402.8,788.4,402.8z M786.3,397.5v-0.2c-0.9,0.1-3.1,0.4-4,0.8
		c-0.4,0.1-1.4,0.6-1.4,1.7c0,0.8,0.6,1.7,2.1,1.7c1,0,3.3-0.4,3.3-3.3C786.3,397.9,786.3,397.7,786.3,397.5z"/>
	<path class="st9" d="M799.6,401.2c-0.6,0.9-1.8,1.8-4.2,1.8c-0.3,0-2.1,0-3.3-0.8c-0.2-0.1-0.5-0.3-0.8-0.7c-0.8-1-0.9-2-1-2.4
		l2.2-0.3c0,0.7,0.1,1.4,0.6,2c0.7,0.7,1.6,0.9,2.5,0.9c0.2,0,1.3,0,2.1-0.6c0.5-0.4,0.5-1,0.5-1.2c0-0.1,0-0.5-0.2-0.8
		c-0.4-0.6-1.5-0.8-2.1-0.9l-1.1-0.2c-1.4-0.3-2-0.5-2.6-0.9c-0.9-0.5-1.3-1.3-1.3-2.4c0-0.3,0-1.1,0.6-1.8c1.1-1.5,3.3-1.5,3.7-1.5
		c2.3,0,3.6,1.2,4.2,2c0.4,0.7,0.5,1.4,0.6,1.7l-2,0.2c0-0.5,0-0.8-0.2-1c-0.3-0.6-1.2-1.4-2.8-1.4c-1.5,0-2.2,0.9-2.2,1.6
		c0,0.1,0,0.3,0.2,0.6c0.4,0.6,1.2,0.9,2.5,1.2l1.1,0.3c0.3,0.1,0.7,0.2,1,0.3c1.5,0.5,2.7,1.3,2.7,3
		C800.1,399.8,800,400.5,799.6,401.2z"/>
	<path class="st9" d="M804.7,402.9c-1.1,0-1.6-0.3-1.9-0.7c-0.3-0.4-0.3-0.9-0.3-1.8v-7.2h-1.8v-1.6h1.8V388h1.9v3.5h2v1.6h-2v6.4
		c0,0.8,0,1.2,0.1,1.6c0.1,0.3,0.4,0.3,0.7,0.3c0.2,0,0.7-0.1,1.2-0.3v1.6C806.3,402.7,805.4,402.9,804.7,402.9z"/>
	<path class="st9" d="M817.1,402.8c-0.1,0-0.8,0-1.2-0.3c-0.2-0.1-0.3-0.4-0.4-0.4c-0.3-0.4-0.3-0.7-0.4-0.9
		c-0.5,0.6-1.7,1.8-3.8,1.8c-0.8,0-1.3-0.1-1.5-0.2c-1.3-0.5-2.2-1.5-2.2-3c0-0.5,0.1-1.6,1.2-2.4c1.1-0.9,3.1-1.2,4.5-1.3l1.7-0.1
		c0-0.3,0-0.6,0-0.9c0-0.8-0.2-2.5-2.5-2.5c-0.4,0-1.8,0-2.3,1.3c-0.1,0.4-0.1,0.6-0.1,1l-2-0.1c0-0.2,0-0.6,0.2-1.1
		c0.4-1.1,1.4-2.6,4.1-2.6c0.3,0,0.9,0,1.8,0.2c0.4,0.1,1.9,0.6,2.5,2.1c0.2,0.6,0.2,1.2,0.2,2.4v3.6c0,0.2,0,0.5,0,0.7
		c0,0.3,0,0.9,0.8,0.9c0.2,0,0.4,0,0.6-0.1v1.6C817.7,402.8,817.4,402.8,817.1,402.8z M815,397.5v-0.2c-0.9,0.1-3.1,0.4-4,0.8
		c-0.4,0.1-1.4,0.6-1.4,1.7c0,0.8,0.6,1.7,2.1,1.7c1,0,3.3-0.4,3.3-3.3C815,397.9,815,397.7,815,397.5z"/>
	<path class="st9" d="M703.5,425.5c-0.6,1.2-2.1,2.6-5.1,2.6c-0.7,0-3.4,0-4.9-2.3c-0.7-1.1-0.8-2.1-0.8-2.6c0-1.1,0.4-2.3,1.2-3.1
		c0.2-0.2,0.5-0.4,1-0.7c-1.2-0.8-1.8-1.8-1.8-3.3c0-1.2,0.4-2,0.7-2.4c0.7-1,2-1.8,4.6-1.8c1.7,0,3.4,0.3,4.5,1.8
		c0.7,1,0.8,2.1,0.8,2.5c0,0.5,0,1.8-1.2,2.8c-0.2,0.2-0.4,0.3-0.6,0.4c0.8,0.5,2.2,1.4,2.2,3.8
		C704.1,423.6,704.1,424.5,703.5,425.5z M701,421.1c-0.9-0.8-2.5-0.8-2.7-0.8c-2.7,0-3.5,1.6-3.5,2.8c0,0.3,0,1,0.5,1.6
		c0.9,1.3,2.7,1.3,3.1,1.3c0.3,0,1.8,0,2.7-1c0.7-0.8,0.8-1.7,0.8-2.1C701.9,422.8,701.8,421.8,701,421.1z M700.6,414.3
		c-0.8-0.6-2.2-0.6-2.3-0.6c-0.9,0-2.1,0.2-2.7,1c-0.3,0.4-0.4,0.8-0.4,1.3c0,0.2,0,0.7,0.3,1.3c0.4,0.7,1.2,1.3,2.8,1.3
		c1.7,0,2.5-0.5,2.8-1.3c0.1-0.2,0.3-0.6,0.3-1.2C701.5,415.8,701.4,414.8,700.6,414.3z"/>
	<path class="st9" d="M720.5,427.3c-1.3,1-2.9,1-3.4,1c-0.3,0-1.2,0-2.1-0.3c-1.3-0.5-3.4-2-3.4-5.5c0-3.6,2-5.2,3.4-5.7
		c0.9-0.3,1.7-0.3,2-0.3c3,0,4.3,1.6,4.8,2.7c0.2,0.4,0.2,0.6,0.3,1l-2.1,0.2c0-0.2-0.1-0.8-0.5-1.3c-0.8-1.2-2.1-1.3-2.6-1.3
		c-1.7,0-3.4,1.1-3.4,4.5c0,2,0.6,3.1,1.3,3.7c0.6,0.6,1.4,0.8,2.2,0.8c0.5,0,1-0.1,1.4-0.3c1.2-0.5,1.5-1.6,1.7-2.8l2,0.2
		C722.1,425.8,721.1,426.8,720.5,427.3z"/>
	<path class="st9" d="M733.2,426.4c-0.6,0.7-1.8,1.9-4.1,1.9c-0.7,0-2.5-0.1-3.9-1.5c-0.7-0.7-1.6-2.1-1.6-4.4c0-1.4,0.4-2.9,1.3-4
		c1.1-1.4,2.5-1.9,4.3-1.9c0.8,0,1.6,0.1,2.2,0.4c1.3,0.5,3.2,2.1,3.1,5.5C734.5,423,734.4,424.9,733.2,426.4z M731.9,419.5
		c-0.2-0.3-0.4-0.6-0.7-0.9c-0.8-0.7-1.7-0.7-2-0.7c-3.6,0-3.5,3.9-3.5,4.5c0,0.5,0.1,1,0.1,1.1c0.1,0.8,0.7,3.2,3.3,3.1
		c0.5,0,1.8-0.1,2.6-1.4c0.7-1.1,0.8-2.8,0.8-3C732.4,422.1,732.4,420.6,731.9,419.5z"/>
	<path class="st9" d="M736.5,428v-16.7h1.8V428H736.5z"/>
	<path class="st9" d="M749.7,428.1c-0.1,0-0.8,0-1.2-0.3c-0.2-0.1-0.3-0.4-0.4-0.4c-0.3-0.4-0.3-0.7-0.4-0.9
		c-0.5,0.6-1.7,1.8-3.8,1.8c-0.8,0-1.3-0.1-1.5-0.2c-1.3-0.5-2.2-1.5-2.2-3c0-0.5,0.1-1.6,1.2-2.4c1.1-0.9,3.1-1.2,4.5-1.3l1.7-0.1
		c0-0.3,0-0.6,0-0.9c0-0.8-0.2-2.5-2.5-2.5c-0.4,0-1.8,0-2.3,1.3c-0.1,0.4-0.1,0.6-0.1,1l-2-0.1c0-0.2,0-0.6,0.2-1.1
		c0.4-1.1,1.4-2.6,4.1-2.6c0.3,0,0.9,0,1.8,0.2c0.4,0.1,1.9,0.6,2.5,2.1c0.2,0.6,0.2,1.2,0.2,2.4v3.6c0,0.2,0,0.5,0,0.7
		c0,0.3,0,0.9,0.8,0.9c0.2,0,0.4,0,0.6-0.1v1.6C750.3,428.1,750,428.1,749.7,428.1z M747.6,422.7v-0.2c-0.9,0.1-3.1,0.4-4,0.8
		c-0.4,0.1-1.4,0.6-1.4,1.7c0,0.8,0.6,1.7,2.1,1.7c1,0,3.3-0.4,3.3-3.3C747.6,423.2,747.6,422.9,747.6,422.7z"/>
	<path class="st9" d="M761.9,426.5c-0.7,0.9-1.4,1.3-1.8,1.4c-0.4,0.2-1.1,0.4-2.2,0.4c-1.3,0-2.1-0.4-2.6-0.7
		c-0.5-0.3-0.9-0.6-1.3-1.1v1.4h-1.9v-16.7h1.9v7.1c0.1-0.1,0.2-0.4,0.5-0.6c0.9-0.9,2.1-1.3,3.3-1.3c0.8,0,2.4,0.1,3.8,1.7
		c0.6,0.8,1.4,2,1.4,4.2C763.1,423,763.1,424.9,761.9,426.5z M760.6,419.9c-0.3-0.6-1.2-1.7-2.9-1.7c-1.3,0-2.1,0.6-2.5,1
		c-0.6,0.6-1.1,1.5-1.1,3.2c0,1.2,0.3,2,0.5,2.5c0.3,0.6,1.2,1.8,3,1.8c0.6,0,1.3-0.1,1.8-0.5c0.8-0.5,1.7-1.7,1.7-3.9
		C761.1,421.9,761.1,420.9,760.6,419.9z"/>
	<path class="st9" d="M774.1,426.4c-0.6,0.7-1.8,1.9-4.1,1.9c-0.7,0-2.5-0.1-3.9-1.5c-0.7-0.7-1.6-2.1-1.6-4.4c0-1.4,0.4-2.9,1.3-4
		c1.1-1.4,2.5-1.9,4.3-1.9c0.8,0,1.6,0.1,2.2,0.4c1.3,0.5,3.2,2.1,3.1,5.5C775.4,423,775.4,424.9,774.1,426.4z M772.8,419.5
		c-0.2-0.3-0.4-0.6-0.7-0.9c-0.8-0.7-1.7-0.7-2-0.7c-3.6,0-3.5,3.9-3.5,4.5c0,0.5,0.1,1,0.1,1.1c0.1,0.8,0.7,3.2,3.3,3.1
		c0.5,0,1.8-0.1,2.6-1.4c0.7-1.1,0.8-2.8,0.8-3C773.4,422.1,773.4,420.6,772.8,419.5z"/>
	<path class="st9" d="M781.7,418.7c-1.1,0.2-2,0.9-2.2,2c-0.2,0.6-0.2,1-0.2,2.1v5.2h-1.9v-11.1h1.9v2c0.3-0.5,0.6-0.9,1-1.3
		s1.3-0.9,2.8-0.9v2C782.5,418.6,782.1,418.6,781.7,418.7z"/>
	<path class="st9" d="M793.1,428.1c-0.1,0-0.8,0-1.2-0.3c-0.2-0.1-0.3-0.4-0.4-0.4c-0.3-0.4-0.3-0.7-0.4-0.9
		c-0.5,0.6-1.7,1.8-3.8,1.8c-0.8,0-1.3-0.1-1.5-0.2c-1.3-0.5-2.2-1.5-2.2-3c0-0.5,0.1-1.6,1.2-2.4c1.1-0.9,3.1-1.2,4.5-1.3l1.7-0.1
		c0-0.3,0-0.6,0-0.9c0-0.8-0.2-2.5-2.5-2.5c-0.4,0-1.8,0-2.3,1.3c-0.1,0.4-0.1,0.6-0.1,1l-2-0.1c0-0.2,0-0.6,0.2-1.1
		c0.4-1.1,1.4-2.6,4.1-2.6c0.3,0,0.9,0,1.8,0.2c0.4,0.1,1.9,0.6,2.5,2.1c0.2,0.6,0.2,1.2,0.2,2.4v3.6c0,0.2,0,0.5,0,0.7
		c0,0.3,0,0.9,0.8,0.9c0.2,0,0.4,0,0.6-0.1v1.6C793.8,428.1,793.4,428.1,793.1,428.1z M791,422.7v-0.2c-0.9,0.1-3.1,0.4-4,0.8
		c-0.4,0.1-1.4,0.6-1.4,1.7c0,0.8,0.6,1.7,2.1,1.7c1,0,3.3-0.4,3.3-3.3C791,423.2,791,422.9,791,422.7z"/>
	<path class="st9" d="M804,428v-1.4c-0.6,0.7-1.6,1.8-3.8,1.8c-2.1,0-3.2-1-3.8-1.7c-0.6-0.8-1.4-2-1.4-4.3c0-1.4,0.3-2.7,1.1-3.9
		c0.5-0.7,1.7-2,4-2c1.6,0,2.7,0.7,3.2,1.1c0.3,0.2,0.4,0.4,0.7,0.7v-7h1.9V428H804z M804,420.9c-0.4-1.6-1.6-2.7-3.3-2.7
		c-0.5,0-1.7,0.1-2.6,1.2c-0.8,0.9-0.9,1.9-0.9,3.1c0,0.4,0,1.8,0.9,3c0.9,1.2,2.1,1.2,2.6,1.2c0.7,0,1.3-0.1,1.8-0.5
		c0.8-0.5,1.7-1.7,1.7-3.8C804.1,422.2,804.1,421.5,804,420.9z"/>
	<path class="st9" d="M817.6,426.4c-0.6,0.7-1.8,1.9-4.1,1.9c-0.7,0-2.5-0.1-3.9-1.5c-0.7-0.7-1.6-2.1-1.6-4.4c0-1.4,0.4-2.9,1.3-4
		c1.1-1.4,2.5-1.9,4.3-1.9c0.8,0,1.6,0.1,2.2,0.4c1.3,0.5,3.2,2.1,3.1,5.5C818.9,423,818.8,424.9,817.6,426.4z M816.3,419.5
		c-0.2-0.3-0.4-0.6-0.7-0.9c-0.8-0.7-1.7-0.7-2-0.7c-3.6,0-3.5,3.9-3.5,4.5c0,0.5,0.1,1,0.1,1.1c0.1,0.8,0.7,3.2,3.3,3.1
		c0.5,0,1.8-0.1,2.6-1.4c0.7-1.1,0.8-2.8,0.8-3C816.9,422.1,816.9,420.6,816.3,419.5z"/>
	<path class="st9" d="M825.2,418.7c-1.1,0.2-2,0.9-2.2,2c-0.2,0.6-0.2,1-0.2,2.1v5.2h-1.9v-11.1h1.9v2c0.3-0.5,0.6-0.9,1-1.3
		c0.5-0.4,1.3-0.9,2.8-0.9v2C825.9,418.6,825.5,418.6,825.2,418.7z"/>
	<path class="st9" d="M837,426.1c-0.6,0.9-1.8,2.2-4.3,2.2c-1.2,0-1.9-0.3-2.3-0.4c-1.4-0.6-3.1-2.1-3.1-5.6c0-2.1,0.7-3.2,1.3-3.9
		c1-1.2,2.6-1.9,4.1-1.9c0.6,0,1.2,0.1,1.8,0.3c0.7,0.2,2.1,0.9,2.8,2.6c0.3,0.7,0.5,1.6,0.5,3.3h-8.5c0,2,0.9,3.1,1.6,3.6
		c0.6,0.4,1.3,0.6,2,0.6c1,0,1.5-0.4,1.9-0.7c0.1-0.1,0.4-0.4,0.6-0.7c0.3-0.5,0.4-1,0.4-1.2l1.9,0.3
		C837.6,424.8,837.4,425.4,837,426.1z M835.5,420.3c-0.4-1.4-1.6-2.3-3-2.3c-2,0-3,1.7-3.2,3.4h6.4
		C835.6,420.8,835.6,420.5,835.5,420.3z"/>
	<path class="st9" d="M848.2,426.5c-0.6,0.9-1.8,1.8-4.2,1.8c-0.3,0-2.1,0-3.3-0.8c-0.2-0.1-0.5-0.3-0.8-0.7c-0.8-1-0.9-2-1-2.4
		l2.2-0.3c0,0.7,0.1,1.4,0.6,2c0.7,0.7,1.6,0.9,2.5,0.9c0.2,0,1.3,0,2.1-0.6c0.5-0.4,0.5-1,0.5-1.2c0-0.1,0-0.5-0.2-0.8
		c-0.4-0.6-1.5-0.8-2.1-0.9l-1.1-0.2c-1.4-0.3-2-0.5-2.6-0.9c-0.9-0.5-1.3-1.3-1.3-2.4c0-0.3,0-1.1,0.6-1.8c1.1-1.5,3.3-1.5,3.7-1.5
		c2.3,0,3.6,1.2,4.2,2c0.4,0.7,0.5,1.4,0.6,1.7l-2,0.2c0-0.5,0-0.8-0.2-1c-0.3-0.6-1.2-1.4-2.8-1.4c-1.5,0-2.2,0.9-2.2,1.6
		c0,0.1,0,0.3,0.2,0.6c0.4,0.6,1.2,0.9,2.5,1.2l1.1,0.3c0.3,0.1,0.7,0.2,1,0.3c1.5,0.5,2.7,1.3,2.7,3
		C848.7,425.1,848.7,425.8,848.2,426.5z"/>
</g>
<g>
	<path class="st9" d="M679.2,246.8c-0.9,0.9-2.4,1.8-5.3,1.8c-0.5,0-2.8,0-4.6-1.2c-0.5-0.3-1-0.8-1.3-1.3c-1-1.3-1.1-2.8-1.2-3.4
		l2.4-0.3c0,0.5,0.1,1.9,1.1,3c0.6,0.6,1.7,1.3,3.7,1.3c0.2,0,0.9,0,1.5-0.2c0.7-0.2,2.6-0.9,2.6-3.1c0-1.1-0.5-1.6-0.9-1.9
		c-0.7-0.5-1.5-0.7-2.3-0.9l-1.4-0.3c-1.2-0.3-2.6-0.5-3.7-1.2c-2-1.1-2.3-2.6-2.3-3.6c0-1.3,0.6-2.4,1.6-3.3
		c1.7-1.4,3.8-1.4,4.5-1.4c1.6,0,3.2,0.3,4.5,1.3c0.8,0.6,1.2,1.2,1.3,1.5c0.4,0.8,0.6,1.5,0.8,2.4l-2.2,0.1c0-0.3-0.1-0.7-0.2-1
		c-0.3-1.2-1.4-2.6-4.1-2.6c-1.1,0-2.5,0.2-3.2,1.1c-0.4,0.4-0.6,1-0.6,1.5c0,0.2,0,0.8,0.4,1.2c0.6,0.9,1.9,1.1,2.9,1.4l1.8,0.4
		c0.4,0.1,0.9,0.2,1.3,0.3c0.5,0.1,2.6,0.6,3.6,2.3c0.2,0.4,0.6,1.1,0.6,2.3C680.6,244.1,680.5,245.5,679.2,246.8z"/>
	<path class="st9" d="M692,246.4c-0.6,0.9-1.8,2.2-4.3,2.2c-1.2,0-1.9-0.3-2.3-0.4c-1.4-0.6-3.1-2.1-3.1-5.6c0-2.1,0.7-3.2,1.3-3.9
		c1-1.2,2.6-1.9,4.1-1.9c0.6,0,1.2,0.1,1.8,0.3c0.7,0.2,2.1,0.9,2.8,2.6c0.3,0.7,0.5,1.6,0.5,3.3h-8.5c0,2,0.9,3.1,1.6,3.6
		c0.6,0.4,1.3,0.6,2,0.6c1,0,1.5-0.4,1.9-0.7c0.1-0.1,0.4-0.4,0.6-0.7c0.3-0.5,0.4-1,0.4-1.2l1.9,0.3
		C692.7,245,692.4,245.7,692,246.4z M690.5,240.5c-0.4-1.4-1.6-2.3-3-2.3c-2,0-3,1.7-3.2,3.4h6.4C690.6,241,690.6,240.8,690.5,240.5
		z"/>
	<path class="st9" d="M704.7,250.5c-0.6,2.1-2.2,2.6-3,2.9c-0.4,0.1-1,0.3-1.9,0.3c-0.3,0-1,0-1.9-0.3c-2.7-0.7-3.1-2.9-3.2-3.9h2.1
		c0,0.3,0,0.9,0.5,1.5c0.8,1.1,2.2,1.1,2.6,1.1c0.3,0,1.9,0,2.6-1.1c0.4-0.7,0.5-1.5,0.5-3.1l0-1.3c-1.3,1.8-2.7,2-3.6,2
		c-1.1,0-2-0.4-2.3-0.5c-1.2-0.6-2.8-2.2-2.8-5.3c0-0.5,0-2.5,1.2-4c0.9-1.2,2.1-1.9,4-1.9c0.3,0,0.9,0,1.5,0.3
		c0.5,0.2,1.3,0.6,2.1,1.6v-1.5h2v10.5C704.9,249.1,704.9,249.7,704.7,250.5z M702.8,240.8c-0.5-1.5-1.8-2.4-3.3-2.4
		c-0.5,0-1,0.1-1.4,0.3c-0.9,0.4-1.9,1.6-1.9,3.9c0,1.3,0.3,2.7,1.4,3.5c0.6,0.5,1.3,0.7,2.1,0.7c1.1,0,1.8-0.4,2.1-0.7
		c0.7-0.6,1.3-1.7,1.3-3.6C703,242.3,703,241.5,702.8,240.8z"/>
	<path class="st9" d="M714.9,248.2l0-1.7c-0.1,0.1-0.2,0.3-0.5,0.6c-0.9,0.9-2,1.4-3.3,1.4c-0.4,0-2.1-0.1-3-1.5
		c-0.6-1.1-0.6-2.3-0.6-3.4v-6.5h1.9v6.3c0,1.2,0,1.7,0.3,2.2c0.2,0.5,0.8,1.1,2,1.1c0.4,0,1.8-0.1,2.6-1.3c0.6-0.8,0.5-1.8,0.5-2.8
		v-5.6h1.8v11.1H714.9z"/>
	<path class="st9" d="M723.7,238.9c-1.1,0.2-2,0.9-2.2,2c-0.2,0.6-0.2,1-0.2,2.1v5.2h-1.9v-11.1h1.9v2c0.3-0.5,0.6-0.9,1-1.3
		c0.5-0.4,1.3-0.9,2.8-0.9v2C724.4,238.9,724,238.9,723.7,238.9z"/>
	<path class="st9" d="M735.3,246.7c-0.6,0.7-1.8,1.9-4.1,1.9c-0.7,0-2.5-0.1-3.9-1.5c-0.7-0.7-1.6-2.1-1.6-4.4c0-1.4,0.4-2.9,1.3-4
		c1.1-1.4,2.5-1.9,4.3-1.9c0.8,0,1.6,0.1,2.2,0.4c1.3,0.5,3.2,2.1,3.1,5.5C736.6,243.3,736.6,245.1,735.3,246.7z M734,239.8
		c-0.2-0.3-0.4-0.6-0.7-0.9c-0.8-0.7-1.7-0.7-2-0.7c-3.6,0-3.5,3.9-3.5,4.5c0,0.5,0.1,1,0.1,1.1c0.1,0.8,0.7,3.2,3.3,3.1
		c0.5,0,1.8-0.1,2.6-1.4c0.7-1.1,0.8-2.8,0.8-3C734.6,242.3,734.6,240.9,734,239.8z"/>
	<path class="st9" d="M752.9,248.2v-1.4c-0.6,0.7-1.6,1.8-3.8,1.8c-2.1,0-3.2-1-3.8-1.7c-0.6-0.8-1.4-2-1.4-4.3
		c0-1.4,0.3-2.7,1.1-3.9c0.5-0.7,1.7-2,4-2c1.6,0,2.7,0.7,3.2,1.1c0.3,0.2,0.4,0.4,0.7,0.7v-7h1.9v16.7H752.9z M752.8,241.2
		c-0.4-1.6-1.6-2.7-3.3-2.7c-0.5,0-1.7,0.1-2.6,1.2c-0.8,0.9-0.9,1.9-0.9,3.1c0,0.4,0,1.8,0.9,3c0.9,1.2,2.1,1.2,2.6,1.2
		c0.7,0,1.3-0.1,1.8-0.5c0.8-0.5,1.7-1.7,1.7-3.8C753,242.4,753,241.8,752.8,241.2z"/>
	<path class="st9" d="M766.6,246.4c-0.6,0.9-1.8,2.2-4.3,2.2c-1.2,0-1.9-0.3-2.3-0.4c-1.4-0.6-3.1-2.1-3.1-5.6
		c0-2.1,0.7-3.2,1.3-3.9c1-1.2,2.6-1.9,4.1-1.9c0.6,0,1.2,0.1,1.8,0.3c0.7,0.2,2.1,0.9,2.8,2.6c0.3,0.7,0.5,1.6,0.5,3.3h-8.5
		c0,2,0.9,3.1,1.6,3.6c0.6,0.4,1.3,0.6,2,0.6c1,0,1.5-0.4,1.9-0.7c0.1-0.1,0.4-0.4,0.6-0.7c0.3-0.5,0.4-1,0.4-1.2l1.9,0.3
		C767.2,245,767,245.7,766.6,246.4z M765.1,240.5c-0.4-1.4-1.6-2.3-3-2.3c-2,0-3,1.7-3.2,3.4h6.4C765.2,241,765.1,240.8,765.1,240.5
		z"/>
	<path class="st9" d="M786.3,248.2l-1.8-5.1h-6.4l-1.9,5.1h-2.4l6.4-16.7h2.3l6.1,16.7H786.3z M781.4,234.2l-2.6,7h5L781.4,234.2z"
		/>
	<path class="st9" d="M798.3,247.6c-1.3,1-2.9,1-3.4,1c-0.3,0-1.2,0-2.1-0.3c-1.3-0.5-3.4-2-3.4-5.5c0-3.6,2-5.2,3.4-5.7
		c0.9-0.3,1.7-0.3,2-0.3c3,0,4.3,1.6,4.8,2.7c0.2,0.4,0.2,0.6,0.3,1l-2.1,0.2c0-0.2-0.1-0.8-0.5-1.3c-0.8-1.2-2.1-1.3-2.6-1.3
		c-1.7,0-3.4,1.1-3.4,4.5c0,2,0.6,3.1,1.3,3.7c0.6,0.6,1.4,0.8,2.2,0.8c0.5,0,1-0.1,1.4-0.3c1.2-0.5,1.5-1.6,1.7-2.8l2,0.2
		C799.8,246,798.9,247.1,798.3,247.6z"/>
	<path class="st9" d="M810.1,247.6c-1.3,1-2.9,1-3.4,1c-0.3,0-1.2,0-2.1-0.3c-1.3-0.5-3.4-2-3.4-5.5c0-3.6,2-5.2,3.4-5.7
		c0.9-0.3,1.7-0.3,2-0.3c3,0,4.3,1.6,4.8,2.7c0.2,0.4,0.2,0.6,0.3,1l-2.1,0.2c0-0.2-0.1-0.8-0.5-1.3c-0.8-1.2-2.1-1.3-2.6-1.3
		c-1.7,0-3.4,1.1-3.4,4.5c0,2,0.6,3.1,1.3,3.7c0.6,0.6,1.4,0.8,2.2,0.8c0.5,0,1-0.1,1.4-0.3c1.2-0.5,1.5-1.6,1.7-2.8l2,0.2
		C811.7,246,810.7,247.1,810.1,247.6z"/>
	<path class="st9" d="M813.8,233.7v-2.2h1.8v2.2H813.8z M813.8,248.2v-11.1h1.8v11.1H813.8z"/>
	<path class="st9" d="M826.5,248.2v-1.4c-0.6,0.7-1.6,1.8-3.8,1.8c-2.1,0-3.2-1-3.8-1.7c-0.6-0.8-1.4-2-1.4-4.3
		c0-1.4,0.3-2.7,1.1-3.9c0.5-0.7,1.7-2,4-2c1.6,0,2.7,0.7,3.2,1.1c0.3,0.2,0.4,0.4,0.7,0.7v-7h1.9v16.7H826.5z M826.4,241.2
		c-0.4-1.6-1.6-2.7-3.3-2.7c-0.5,0-1.7,0.1-2.6,1.2c-0.8,0.9-0.9,1.9-0.9,3.1c0,0.4,0,1.8,0.9,3c0.9,1.2,2.1,1.2,2.6,1.2
		c0.7,0,1.3-0.1,1.8-0.5c0.8-0.5,1.7-1.7,1.7-3.8C826.5,242.4,826.5,241.8,826.4,241.2z"/>
	<path class="st9" d="M840.1,246.4c-0.6,0.9-1.8,2.2-4.3,2.2c-1.2,0-1.9-0.3-2.3-0.4c-1.4-0.6-3.1-2.1-3.1-5.6
		c0-2.1,0.7-3.2,1.3-3.9c1-1.2,2.6-1.9,4.1-1.9c0.6,0,1.2,0.1,1.8,0.3c0.7,0.2,2.1,0.9,2.8,2.6c0.3,0.7,0.5,1.6,0.5,3.3h-8.5
		c0,2,0.9,3.1,1.6,3.6c0.6,0.4,1.3,0.6,2,0.6c1,0,1.5-0.4,1.9-0.7c0.1-0.1,0.4-0.4,0.6-0.7c0.3-0.5,0.4-1,0.4-1.2l1.9,0.3
		C840.8,245,840.6,245.7,840.1,246.4z M838.6,240.5c-0.4-1.4-1.6-2.3-3-2.3c-2,0-3,1.7-3.2,3.4h6.4
		C838.8,241,838.7,240.8,838.6,240.5z"/>
	<path class="st9" d="M850.2,248.2v-7.1c0-0.3,0.1-1.4-0.9-2.1c-0.3-0.2-0.8-0.5-1.7-0.5c-0.8,0-1.5,0.3-2.1,0.8
		c-0.1,0.1-0.5,0.5-0.7,1c-0.2,0.5-0.2,1-0.2,1.5v6.3h-1.9v-11.1h1.9v1.6c0.2-0.4,0.5-0.7,0.6-0.8c0.4-0.4,1.4-1.2,2.9-1.2
		c0.5,0,2.2,0.1,3.2,1.5c0.7,1,0.7,2.1,0.7,3.3v6.6H850.2z"/>
	<path class="st9" d="M857.5,248.4c-1.1,0-1.6-0.3-1.9-0.7c-0.3-0.4-0.3-0.9-0.3-1.8v-7.2h-1.8v-1.6h1.8v-3.5h1.9v3.5h2v1.6h-2v6.4
		c0,0.8,0,1.2,0.1,1.6c0.1,0.3,0.4,0.3,0.7,0.3c0.2,0,0.7-0.1,1.2-0.3v1.6C859.1,248.2,858.2,248.4,857.5,248.4z"/>
	<path class="st9" d="M870.3,246.4c-0.6,0.9-1.8,2.2-4.3,2.2c-1.2,0-1.9-0.3-2.3-0.4c-1.4-0.6-3.1-2.1-3.1-5.6
		c0-2.1,0.7-3.2,1.3-3.9c1-1.2,2.6-1.9,4.1-1.9c0.6,0,1.2,0.1,1.8,0.3c0.7,0.2,2.1,0.9,2.8,2.6c0.3,0.7,0.5,1.6,0.5,3.3h-8.5
		c0,2,0.9,3.1,1.6,3.6c0.6,0.4,1.3,0.6,2,0.6c1,0,1.5-0.4,1.9-0.7c0.1-0.1,0.4-0.4,0.6-0.7c0.3-0.5,0.4-1,0.4-1.2l1.9,0.3
		C870.9,245,870.7,245.7,870.3,246.4z M868.8,240.5c-0.4-1.4-1.6-2.3-3-2.3c-2,0-3,1.7-3.2,3.4h6.4
		C868.9,241,868.8,240.8,868.8,240.5z"/>
	<path class="st9" d="M881.5,246.7c-0.6,0.9-1.8,1.8-4.2,1.8c-0.3,0-2.1,0-3.3-0.8c-0.2-0.1-0.5-0.3-0.8-0.7c-0.8-1-0.9-2-1-2.4
		l2.2-0.3c0,0.7,0.1,1.4,0.6,2c0.7,0.7,1.6,0.9,2.5,0.9c0.2,0,1.3,0,2.1-0.6c0.5-0.4,0.5-1,0.5-1.2c0-0.1,0-0.5-0.2-0.8
		c-0.4-0.6-1.5-0.8-2.1-0.9l-1.1-0.2c-1.4-0.3-2-0.5-2.6-0.9c-0.9-0.5-1.3-1.3-1.3-2.4c0-0.3,0-1.1,0.6-1.8c1.1-1.5,3.3-1.5,3.7-1.5
		c2.3,0,3.6,1.2,4.2,2c0.4,0.7,0.5,1.4,0.6,1.7l-2,0.2c0-0.5,0-0.8-0.2-1c-0.3-0.6-1.2-1.4-2.8-1.4c-1.5,0-2.2,0.9-2.2,1.6
		c0,0.1,0,0.3,0.2,0.6c0.4,0.6,1.2,0.9,2.5,1.2l1.1,0.3c0.3,0.1,0.7,0.2,1,0.3c1.5,0.4,2.7,1.3,2.7,3C882,245.3,882,246,881.5,246.7
		z"/>
	<path class="st9" d="M735.1,266.2c-0.6,0.2-1.2,0.2-2.5,0.2h-4.8v7.1h-2.2v-16.7h7.2c1.3,0,2.4,0,3.5,0.7c1.9,1.2,2,3.4,2,4
		C738.3,263.6,737.2,265.6,735.1,266.2z M735.9,260.3c-0.3-0.8-0.9-1.3-1.7-1.5c-0.5-0.1-0.9-0.1-1.3-0.1h-5.2v5.7h4.7
		c0.6,0,1.2,0,1.8-0.1c1.3-0.4,1.9-1.6,1.9-2.9C736.1,261.3,736.1,260.8,735.9,260.3z"/>
	<path class="st9" d="M748.8,271.6c-0.6,0.9-1.8,2.2-4.3,2.2c-1.2,0-1.9-0.3-2.3-0.4c-1.4-0.6-3.1-2.1-3.1-5.6
		c0-2.1,0.7-3.2,1.3-3.9c1-1.2,2.6-1.9,4.1-1.9c0.6,0,1.2,0.1,1.8,0.3c0.7,0.2,2.1,0.9,2.8,2.6c0.3,0.7,0.5,1.6,0.5,3.3h-8.5
		c0,2,0.9,3.1,1.6,3.6c0.6,0.4,1.3,0.6,2,0.6c1,0,1.5-0.4,1.9-0.7c0.1-0.1,0.4-0.4,0.6-0.7c0.3-0.5,0.4-1,0.4-1.2l1.9,0.3
		C749.4,270.3,749.2,271,748.8,271.6z M747.3,265.8c-0.4-1.4-1.6-2.3-3-2.3c-2,0-3,1.7-3.2,3.4h6.4
		C747.4,266.3,747.4,266,747.3,265.8z"/>
	<path class="st9" d="M755.8,264.2c-1.1,0.2-2,0.9-2.2,2c-0.2,0.6-0.2,1-0.2,2.1v5.2h-1.9v-11.1h1.9v2c0.3-0.5,0.6-0.9,1-1.3
		s1.3-0.9,2.8-0.9v2C756.5,264.1,756.1,264.1,755.8,264.2z"/>
	<path class="st9" d="M767,272c-0.6,0.9-1.8,1.8-4.2,1.8c-0.3,0-2.1,0-3.3-0.8c-0.2-0.1-0.5-0.3-0.8-0.7c-0.8-1-0.9-2-1-2.4l2.2-0.3
		c0,0.7,0.1,1.4,0.6,2c0.7,0.7,1.6,0.9,2.5,0.9c0.2,0,1.3,0,2.1-0.6c0.5-0.4,0.5-1,0.5-1.2c0-0.1,0-0.5-0.2-0.8
		c-0.4-0.6-1.5-0.8-2.1-0.9l-1.1-0.2c-1.4-0.3-2-0.5-2.6-0.9c-0.9-0.5-1.3-1.3-1.3-2.4c0-0.3,0-1.1,0.6-1.8c1.1-1.5,3.3-1.5,3.7-1.5
		c2.3,0,3.6,1.2,4.2,2c0.4,0.7,0.5,1.4,0.6,1.7l-2,0.2c0-0.5,0-0.8-0.2-1c-0.3-0.6-1.2-1.4-2.8-1.4c-1.5,0-2.2,0.9-2.2,1.6
		c0,0.1,0,0.3,0.2,0.6c0.4,0.6,1.2,0.9,2.5,1.2l1.1,0.3c0.3,0.1,0.7,0.2,1,0.3c1.5,0.4,2.7,1.3,2.7,3
		C767.5,270.6,767.4,271.3,767,272z"/>
	<path class="st9" d="M778.3,272c-0.6,0.7-1.8,1.9-4.1,1.9c-0.7,0-2.5-0.1-3.9-1.5c-0.7-0.7-1.6-2.1-1.6-4.4c0-1.4,0.4-2.9,1.3-4
		c1.1-1.4,2.5-1.9,4.3-1.9c0.8,0,1.6,0.1,2.2,0.4c1.3,0.5,3.2,2.1,3.1,5.5C779.6,268.5,779.5,270.4,778.3,272z M777,265
		c-0.2-0.3-0.4-0.6-0.7-0.9c-0.8-0.7-1.7-0.7-2-0.7c-3.6,0-3.5,3.9-3.5,4.5c0,0.5,0.1,1,0.1,1.1c0.1,0.8,0.7,3.2,3.3,3.1
		c0.5,0,1.8-0.1,2.6-1.4c0.7-1.1,0.8-2.8,0.8-3C777.6,267.6,777.6,266.1,777,265z"/>
	<path class="st9" d="M789,273.5v-7.1c0-0.3,0.1-1.4-0.9-2.1c-0.3-0.2-0.8-0.5-1.7-0.5c-0.8,0-1.5,0.3-2.1,0.8
		c-0.1,0.1-0.5,0.5-0.7,1c-0.2,0.5-0.2,1-0.2,1.5v6.3h-1.9v-11.1h1.9v1.6c0.2-0.4,0.5-0.7,0.6-0.8c0.4-0.4,1.4-1.2,2.9-1.2
		c0.5,0,2.2,0.1,3.2,1.5c0.7,1,0.7,2.1,0.7,3.3v6.6H789z"/>
	<path class="st9" d="M802.2,273.6c-0.1,0-0.8,0-1.2-0.3c-0.2-0.1-0.3-0.4-0.4-0.4c-0.3-0.4-0.3-0.7-0.4-0.9
		c-0.5,0.6-1.7,1.8-3.8,1.8c-0.8,0-1.3-0.1-1.5-0.2c-1.3-0.4-2.2-1.5-2.2-3c0-0.5,0.1-1.6,1.2-2.4c1.1-0.9,3.1-1.2,4.5-1.3l1.7-0.1
		c0-0.3,0-0.6,0-0.9c0-0.8-0.2-2.5-2.5-2.5c-0.4,0-1.8,0-2.3,1.3c-0.1,0.4-0.1,0.6-0.1,1l-2-0.1c0-0.2,0-0.6,0.2-1.1
		c0.4-1.1,1.4-2.6,4.1-2.6c0.3,0,0.9,0,1.8,0.2c0.4,0.1,1.9,0.6,2.5,2.1c0.2,0.6,0.2,1.2,0.2,2.4v3.6c0,0.2,0,0.5,0,0.7
		c0,0.3,0,0.9,0.8,0.9c0.2,0,0.4,0,0.6-0.1v1.6C802.9,273.6,802.5,273.6,802.2,273.6z M800.1,268.2V268c-0.9,0.1-3.1,0.4-4,0.8
		c-0.4,0.1-1.4,0.6-1.4,1.7c0,0.8,0.6,1.7,2.1,1.7c1,0,3.3-0.4,3.3-3.3C800.1,268.7,800.1,268.5,800.1,268.2z"/>
	<path class="st9" d="M804.9,273.5v-16.7h1.8v16.7H804.9z"/>
	<path class="st9" d="M818.4,271.6c-0.6,0.9-1.8,2.2-4.3,2.2c-1.2,0-1.9-0.3-2.3-0.4c-1.4-0.6-3.1-2.1-3.1-5.6
		c0-2.1,0.7-3.2,1.3-3.9c1-1.2,2.6-1.9,4.1-1.9c0.6,0,1.2,0.1,1.8,0.3c0.7,0.2,2.1,0.9,2.8,2.6c0.3,0.7,0.5,1.6,0.5,3.3h-8.5
		c0,2,0.9,3.1,1.6,3.6c0.6,0.4,1.3,0.6,2,0.6c1,0,1.5-0.4,1.9-0.7c0.1-0.1,0.4-0.4,0.6-0.7c0.3-0.5,0.4-1,0.4-1.2l1.9,0.3
		C819.1,270.3,818.9,271,818.4,271.6z M816.9,265.8c-0.4-1.4-1.6-2.3-3-2.3c-2,0-3,1.7-3.2,3.4h6.4C817.1,266.3,817,266,816.9,265.8
		z"/>
	<path class="st9" d="M829.7,272c-0.6,0.9-1.8,1.8-4.2,1.8c-0.3,0-2.1,0-3.3-0.8c-0.2-0.1-0.5-0.3-0.8-0.7c-0.8-1-0.9-2-1-2.4
		l2.2-0.3c0,0.7,0.1,1.4,0.6,2c0.7,0.7,1.6,0.9,2.5,0.9c0.2,0,1.3,0,2.1-0.6c0.5-0.4,0.5-1,0.5-1.2c0-0.1,0-0.5-0.2-0.8
		c-0.4-0.6-1.5-0.8-2.1-0.9l-1.1-0.2c-1.4-0.3-2-0.5-2.6-0.9c-0.9-0.5-1.3-1.3-1.3-2.4c0-0.3,0-1.1,0.6-1.8c1.1-1.5,3.3-1.5,3.7-1.5
		c2.3,0,3.6,1.2,4.2,2c0.4,0.7,0.5,1.4,0.6,1.7l-2,0.2c0-0.5,0-0.8-0.2-1c-0.3-0.6-1.2-1.4-2.8-1.4c-1.5,0-2.2,0.9-2.2,1.6
		c0,0.1,0,0.3,0.2,0.6c0.4,0.6,1.2,0.9,2.5,1.2l1.1,0.3c0.3,0.1,0.7,0.2,1,0.3c1.5,0.4,2.7,1.3,2.7,3
		C830.2,270.6,830.1,271.3,829.7,272z"/>
</g>
<g>
	<g>
		<path class="st3" d="M491.6,148.4l-12.3-18.2l0.3,18.2h-2.8V126h2.8l12.1,18l-0.1-18h2.7v22.4H491.6z"/>
		<path class="st3" d="M498.9,148.4V126h3v22.4H498.9z"/>
		<path class="st3" d="M515,148.4h-3l-7.6-22.4h3.2l5.9,18.7l6.2-18.7h3.2L515,148.4z"/>
		<path class="st3" d="M525.7,148.4V126h15.4v2.6h-12.6v6.9h10.9v2.6h-10.9v7.6h12.9v2.6H525.7z"/>
		<path class="st3" d="M544.6,148.4V126h3v19.7h10.8v2.7H544.6z"/>
		<path class="st3" d="M486.8,169.3c-0.8,0.2-1.6,0.3-3.4,0.3H477v9.5h-2.9v-22.4h9.7c1.7,0,3.2,0,4.7,1c2.5,1.6,2.7,4.5,2.7,5.4
			C491.2,165.9,489.8,168.5,486.8,169.3z M488,161.4c-0.4-1-1.2-1.7-2.3-2c-0.7-0.2-1.1-0.2-1.8-0.2H477v7.7h6.2
			c0.8,0,1.6,0,2.4-0.2c1.8-0.5,2.6-2.1,2.6-3.8C488.2,162.7,488.2,162.1,488,161.4z"/>
		<path class="st3" d="M493.7,179.1v-22.4h3v19.7h10.8v2.7H493.7z"/>
		<path class="st3" d="M525,179.1l-2.4-6.9h-8.5l-2.5,6.9h-3.2l8.5-22.4h3.1l8.2,22.4H525z M518.4,160.4l-3.4,9.4h6.7L518.4,160.4z"
			/>
		<path class="st3" d="M536.4,159.3v19.8h-3v-19.8h-6.7v-2.6H543v2.6H536.4z"/>
		<path class="st3" d="M558,179.1l-2.4-6.9h-8.5l-2.5,6.9h-3.2l8.5-22.4h3.1l8.2,22.4H558z M551.5,160.4l-3.4,9.4h6.7L551.5,160.4z"
			/>
	</g>
</g>
<g>
	<g>
		<path class="st3" d="M751,148.4l-12.3-18.2l0.3,18.2h-2.8V126h2.8l12.1,18l-0.1-18h2.7v22.4H751z"/>
		<path class="st3" d="M758.2,148.4V126h3v22.4H758.2z"/>
		<path class="st3" d="M774.3,148.4h-3l-7.6-22.4h3.2l5.9,18.7L779,126h3.2L774.3,148.4z"/>
		<path class="st3" d="M785,148.4V126h15.4v2.6h-12.6v6.9h10.9v2.6h-10.9v7.6h12.9v2.6H785z"/>
		<path class="st3" d="M803.9,148.4V126h3v19.7h10.8v2.7H803.9z"/>
		<path class="st3" d="M761.4,175.5c-1.2,1.6-3.9,4.2-9,4.2c-1.4,0-4.8-0.2-7.7-2.9c-1.5-1.4-3.5-4.1-3.5-8.9c0-1.3,0.1-5.1,2.8-8.2
			c2.1-2.4,5.4-3.5,8.5-3.5c1.5,0,3,0.3,4.4,0.8c4.7,1.8,6.8,6,6.8,10.8C763.8,168.9,763.7,172.5,761.4,175.5z M758.8,161.5
			c-2.1-2.8-5.1-3-6.3-3c-3.6,0-5.5,1.8-6.3,3.1c-1.2,1.8-1.7,4.2-1.7,6.3c0,3,0.9,4.9,1.5,5.9c0.5,0.8,1.2,1.5,1.4,1.7
			c0.9,0.8,1.7,1.1,2.2,1.3c0.6,0.2,1.5,0.5,3,0.5c0.6,0,2,0,3.4-0.7c2.2-1,4.6-3.6,4.6-8.9C760.5,166.9,760.5,163.9,758.8,161.5z"
			/>
		<path class="st3" d="M782.7,179.1l-6.1-9.5h-5.8v9.5h-2.9v-22.4h8.3c0.7,0,1.4,0,2.1,0c3.1,0.1,4.6,1.1,5.5,2.3
			c0.6,0.7,1.4,2.1,1.4,4.3c0,0.9-0.1,4-3,5.4c-0.5,0.3-1.1,0.5-2.3,0.7l6.3,9.7H782.7z M780.5,159.8c-1.2-0.7-2.6-0.6-3.9-0.6h-5.8
			v7.9h6c1.7,0,3.7,0,4.8-1.5c0.5-0.7,0.7-1.5,0.7-2.3C782.2,162.6,782.2,160.8,780.5,159.8z"/>
		<path class="st3" d="M808.3,175.5c-1.2,1.6-3.9,4.2-9,4.2c-1.4,0-4.8-0.2-7.7-2.9c-1.5-1.4-3.5-4.1-3.5-8.9c0-1.3,0.1-5.1,2.8-8.2
			c2.1-2.4,5.4-3.5,8.5-3.5c1.5,0,3,0.3,4.4,0.8c4.7,1.8,6.8,6,6.8,10.8C810.7,168.9,810.6,172.5,808.3,175.5z M805.7,161.5
			c-2.1-2.8-5.1-3-6.3-3c-3.6,0-5.5,1.8-6.3,3.1c-1.2,1.8-1.7,4.2-1.7,6.3c0,3,0.9,4.9,1.5,5.9c0.5,0.8,1.2,1.5,1.4,1.7
			c0.9,0.8,1.7,1.1,2.2,1.3c0.6,0.2,1.5,0.5,3,0.5c0.6,0,2,0,3.4-0.7c2.2-1,4.6-3.6,4.6-8.9C807.5,166.9,807.5,163.9,805.7,161.5z"
			/>
	</g>
</g>
</svg>
