<?xml version="1.0" encoding="utf-8"?>
<!-- Generator: Adobe Illustrator 25.2.3, SVG Export Plug-In . SVG Version: 6.00 Build 0)  -->
<svg version="1.1" id="Capa_1" xmlns="http://www.w3.org/2000/svg" xmlns:xlink="http://www.w3.org/1999/xlink" x="0px" y="0px"
	 viewBox="0 0 600 270" style="enable-background:new 0 0 600 270;" xml:space="preserve">
<style type="text/css">
	.st0{fill:url(#SVGID_1_);}
	.st1{fill:url(#SVGID_2_);}
	.st2{fill:url(#SVGID_3_);}
	.st3{enable-background:new    ;}
	.st4{fill:#FFFFFF;}
	.st5{fill:url(#SVGID_4_);}
	.st6{fill:url(#SVGID_5_);}
	.st7{opacity:0.1;fill:#000100;enable-background:new    ;}
	.st8{fill:#000100;fill-opacity:0;}
	.st9{opacity:0.2;fill:#FFFFFF;enable-background:new    ;}
	.st10{fill:#585857;}
</style>
<linearGradient id="SVGID_1_" gradientUnits="userSpaceOnUse" x1="125.6" y1="152.6273" x2="473.85" y2="152.6273" gradientTransform="matrix(1 0 0 -1 0 267.7323)">
	<stop  offset="0" style="stop-color:#1470B5"/>
	<stop  offset="1" style="stop-color:#1E2D52"/>
</linearGradient>
<path class="st0" d="M457,1.1H142.5c-9.3,0-16.9,7.5-16.9,16.9c0,0,0,0,0,0v194.4c0,9.3,7.5,16.9,16.8,16.9c0,0,0,0,0,0H457
	c9.3,0,16.8-7.5,16.9-16.8c0,0,0,0,0,0V17.9C473.9,8.6,466.3,1.1,457,1.1C457,1.1,457,1.1,457,1.1z"/>
<image style="overflow:visible;enable-background:new    ;" width="2501" height="973" xlink:href="82FD2A4D024CB87F.png"  transform="matrix(0.24 0 0 0.24 -4.000000e-02 35.61)">
</image>
<linearGradient id="SVGID_2_" gradientUnits="userSpaceOnUse" x1="489.535" y1="226.7624" x2="489.535" y2="13.0521" gradientTransform="matrix(1 0 0 -1 0 267.7323)">
	<stop  offset="0" style="stop-color:#1470B5"/>
	<stop  offset="1" style="stop-color:#1E2D52"/>
</linearGradient>
<path class="st1" d="M588.3,237.8v-180c0-9.4-7.6-16.9-17-16.9c0,0,0,0,0,0H390.8v213.7h180.5C580.6,254.7,588.2,247.2,588.3,237.8
	C588.3,237.8,588.3,237.8,588.3,237.8z"/>
<linearGradient id="SVGID_3_" gradientUnits="userSpaceOnUse" x1="3949.8052" y1="226.7323" x2="3949.8052" y2="13.0523" gradientTransform="matrix(-1 0 0 -1 4057.3101 267.7323)">
	<stop  offset="0" style="stop-color:#1470B5"/>
	<stop  offset="1" style="stop-color:#1E2D52"/>
</linearGradient>
<path class="st2" d="M6.8,237.8v-180c0-9.3,7.6-16.8,16.9-16.8h184.6v213.7H23.7C14.4,254.7,6.8,247.1,6.8,237.8
	C6.8,237.8,6.8,237.8,6.8,237.8z"/>
<g class="st3">
	<path class="st4" d="M87.8,72.7l-8.8-13l0.2,13h-2v-16h2l8.6,12.8l-0.1-12.8h1.9v16H87.8z"/>
	<path class="st4" d="M93,72.7v-16h2.2v16H93z"/>
	<path class="st4" d="M104.4,72.7h-2.1l-5.4-16h2.3l4.2,13.4l4.4-13.4h2.3L104.4,72.7z"/>
	<path class="st4" d="M112.1,72.7v-16h11v1.9h-9v4.9h7.8v1.9h-7.8v5.5h9.2v1.9H112.1z"/>
	<path class="st4" d="M125.5,72.7v-16h2.1v14.1h7.7v1.9H125.5z"/>
</g>
<g class="st3">
	<path class="st4" d="M69,94.3c-1,0.3-1.6,0.3-3.4,0.3h-6.2v-16h7.5c1.3,0,2.4,0.3,3.4,1.2c0.9,0.7,1.3,1.8,1.3,2.9
		c0,1-0.3,1.9-1.1,2.7c-0.3,0.3-0.7,0.5-0.9,0.6c-0.1,0-0.2,0.1-0.5,0.2c0.5,0.1,0.9,0.3,1.3,0.6c0.7,0.5,1.7,1.4,1.7,3.4
		C72,93,70,94,69,94.3z M68.3,80.9c-0.6-0.4-1.1-0.4-2.5-0.4h-4.6v4.8h3.4c1.3,0,2.4,0,2.9-0.2c0.6-0.1,1.7-0.7,1.7-2.4
		C69.3,82.4,69.3,81.5,68.3,80.9z M69.7,88.9c-0.2-0.4-0.7-1.3-1.9-1.6c-0.7-0.2-1.2-0.1-2.5-0.1h-3.9v5.6h4.7c0.9,0,1.6,0,1.9-0.1
		c0.1,0,0.5-0.1,0.8-0.3c0.5-0.3,1.1-0.9,1.1-2.2C69.9,89.8,69.9,89.3,69.7,88.9z"/>
	<path class="st4" d="M85.5,94.6l-4.4-6.8H77v6.8h-2.1v-16h6c0.5,0,1,0,1.5,0c2.2,0.1,3.3,0.8,3.9,1.6c0.4,0.5,1,1.5,1,3.1
		c0,0.7-0.1,2.8-2.1,3.9c-0.4,0.2-0.8,0.4-1.6,0.5l4.5,6.9H85.5z M83.9,80.8c-0.8-0.5-1.8-0.5-2.8-0.5H77V86h4.3
		c1.2,0,2.6,0,3.4-1.1c0.4-0.5,0.5-1,0.5-1.7C85.2,82.8,85.1,81.6,83.9,80.8z"/>
	<path class="st4" d="M103.8,92c-0.9,1.2-2.8,3-6.4,3c-1,0-3.4-0.1-5.5-2c-1.1-1-2.5-2.9-2.5-6.4c0-0.9,0-3.7,2-5.9
		c1.5-1.7,3.8-2.5,6.1-2.5c1.1,0,2.2,0.2,3.2,0.6c3.3,1.3,4.9,4.3,4.9,7.7C105.5,87.3,105.4,89.8,103.8,92z M101.9,82
		c-1.5-2-3.6-2.1-4.5-2.1c-2.6,0-3.9,1.3-4.5,2.2c-0.9,1.3-1.2,3-1.2,4.5c0,2.1,0.6,3.5,1.1,4.2c0.4,0.6,0.8,1,1,1.2
		c0.7,0.6,1.2,0.8,1.5,0.9c0.4,0.2,1.1,0.4,2.2,0.4c0.4,0,1.4,0,2.4-0.5c1.5-0.7,3.3-2.6,3.3-6.4C103.2,85.9,103.2,83.7,101.9,82z"
		/>
	<path class="st4" d="M119,94.6l-8.8-13l0.2,13h-2v-16h2l8.6,12.8L119,78.6h1.9v16H119z"/>
	<path class="st4" d="M139.1,90.1c-0.4,1-1.8,3.6-4.9,4.6C133,95,132,95,131.6,95c-2.8,0-4.4-1.1-5.3-1.9c-1.1-1-2.5-3-2.5-6.5
		c0-5,3-8.4,8.1-8.4c0.9,0,3.9,0.1,5.9,2.4c0.7,0.8,1.1,1.6,1.4,2.5l-2.2,0.4c-0.3-0.8-0.5-1.2-0.7-1.5c-0.6-0.8-1.9-2.1-4.4-2.1
		c-0.4,0-1.4,0-2.3,0.5c-3.4,1.4-3.4,5.3-3.4,6.1c0,3.8,1.8,5.7,3.4,6.3c0.4,0.2,1.2,0.4,2.3,0.4c0.3,0,0.9,0,1.6-0.2
		c0.6-0.2,2.1-0.8,3-2.4c0.2-0.5,0.5-1,0.7-2l2.3,0.3C139.4,89,139.3,89.5,139.1,90.1z"/>
	<path class="st4" d="M141.7,94.6v-16h11v1.9h-9v4.9h7.8v1.9h-7.8v5.5h9.2v1.9H141.7z"/>
</g>
<g class="st3">
	<path class="st4" d="M161.4,28.8c-1.3,0.7-3.1,0.6-4.5,0.6h-5.7v-16h6.6c0.3,0,0.7,0,1,0c0.5,0,2.3,0.1,3.4,1.6
		c0.7,1,0.7,2,0.7,2.4c0,0.5-0.1,1.9-1.4,2.8c-0.6,0.4-1.2,0.5-1.4,0.6c2.2,0.4,3.4,1.9,3.4,4.1C163.5,25.6,163.4,27.7,161.4,28.8z
		 M160.9,15.8c-0.8-1.1-2.3-1-3.5-1h-4.8v5.4h4.5c1.2,0,2.8,0,3.7-1.1c0.4-0.5,0.5-1.1,0.5-1.7C161.4,17.1,161.4,16.4,160.9,15.8z
		 M160.4,22.1c-1-0.6-2.2-0.6-3.3-0.6h-4.4V28h4.1c1.4,0,2.4,0,3-0.1c0.7-0.2,2.3-0.8,2.3-2.9C162,24.4,161.9,22.9,160.4,22.1z"/>
	<path class="st4" d="M174.5,28c-0.6,0.7-1.7,1.7-3.8,1.7c-0.4,0-1.5,0-2.5-0.6c-2.6-1.3-2.7-4.5-2.7-5.2c0-0.4,0-1.2,0.3-2.2
		c0.7-2,2.5-3.4,4.6-3.4c0.7,0,2.2,0.1,3.5,1.5c0.9,1,1.4,2.5,1.4,3.8V24h-8.4c0,0.9,0.1,1.4,0.2,1.8c0.2,0.9,1,2.6,3.5,2.6
		c1,0,2.4-0.2,3.5-2.3l1.2,0.4C175.2,26.8,174.9,27.4,174.5,28z M170.4,19.5c-1.9,0-2.8,1.3-3.1,1.9c-0.2,0.5-0.3,1-0.4,1.5h6.8
		C173.4,20.1,171.6,19.5,170.4,19.5z"/>
	<path class="st4" d="M185,29.4v-5.6c0-1.4,0-2.3-0.2-2.9c-0.2-0.6-0.6-0.8-0.8-0.9c-0.6-0.4-1.2-0.3-1.5-0.3s-0.8,0-1.4,0.3
		c-0.8,0.4-1.4,1.2-1.6,2.1c-0.1,0.5-0.1,1.4-0.1,2.7v4.7h-1.3V18.6h1.3v1.9c0.1-0.3,0.2-0.7,0.8-1.2c0.4-0.4,1.2-1,2.6-1
		c2,0,2.9,1.1,3.3,1.9c0.4,0.9,0.4,1.7,0.4,3.6v5.6H185z"/>
</g>
<g class="st3">
	<path class="st4" d="M198,28c-0.6,0.7-1.7,1.7-3.8,1.7c-0.4,0-1.5,0-2.5-0.6c-2.6-1.3-2.7-4.5-2.7-5.2c0-0.4,0-1.2,0.3-2.2
		c0.7-2,2.5-3.4,4.6-3.4c0.7,0,2.2,0.1,3.5,1.5c0.9,1,1.4,2.5,1.4,3.8V24h-8.4c0,0.9,0.1,1.4,0.2,1.8c0.2,0.9,1,2.6,3.5,2.6
		c1,0,2.4-0.2,3.5-2.3l1.2,0.4C198.8,26.8,198.5,27.4,198,28z M194,19.5c-1.9,0-2.8,1.3-3.1,1.9c-0.2,0.5-0.3,1-0.4,1.5h6.8
		C197,20.1,195.2,19.5,194,19.5z"/>
</g>
<g class="st3">
	<path class="st4" d="M203.4,19.7v9.7H202v-9.7h-2.4v-1.1h2.4v-2.1c0-1.2,0-1.5,0.1-2.1c0.2-0.7,0.7-1.4,2.3-1.4
		c0.5,0,0.9,0.1,1.4,0.2v1.3c-0.2-0.1-0.7-0.3-1.3-0.3c-0.5,0-0.7,0.1-0.8,0.3c-0.4,0.4-0.4,0.9-0.4,1.9v2.2h2.4v1.1H203.4z"/>
	<path class="st4" d="M207.9,16.1V14h1.3v2.1H207.9z M207.9,29.4V18.6h1.3v10.8H207.9z"/>
	<path class="st4" d="M220,28.6c-0.5,0.5-1.5,1.1-3.1,1.1c-0.6,0-2.1,0-3.3-1.2c-1.6-1.5-1.7-3.8-1.7-4.4c0-0.8,0.1-1.5,0.3-2.2
		c0.7-2.2,2.5-3.5,4.8-3.5c1.7,0,2.6,0.7,3.1,1.2c0.6,0.6,0.8,1.2,1,1.5l-1.2,0.3c-0.5-1.2-1.7-1.8-2.9-1.8c-0.4,0-1.4,0-2.2,0.8
		c-1.4,1.2-1.4,3.2-1.4,3.7c0,0.3,0,2.2,1,3.4c0.2,0.2,0.5,0.5,1.1,0.8c0.3,0.1,0.7,0.3,1.5,0.3c1.4,0,2.3-0.6,2.9-1.8l1.4,0.3
		C220.9,27.6,220.6,28.2,220,28.6z"/>
	<path class="st4" d="M223.5,16.1V14h1.3v2.1H223.5z M223.5,29.4V18.6h1.3v10.8H223.5z"/>
	<path class="st4" d="M237,26.1c-0.7,2.2-2.4,3.6-4.7,3.6c-0.7,0-2.5-0.1-3.7-1.8c-0.5-0.7-1.1-1.8-1.1-3.7c0-0.5,0-1.5,0.5-2.7
		c1.1-2.7,3.4-3.1,4.4-3.1c1.2,0,2.3,0.4,3.2,1.2c1.2,1.2,1.7,2.8,1.7,4.4C237.3,24.3,237.3,25.2,237,26.1z M232.4,19.5
		c-0.3,0-1.2,0-1.9,0.6c-0.8,0.6-1.5,1.8-1.5,4.1c0,0.4,0,2.6,1.4,3.7c0.3,0.3,1,0.6,2,0.6c1.6,0,3.5-1,3.5-4.4
		C235.9,20.6,234.1,19.5,232.4,19.5z"/>
	<path class="st4" d="M247.1,27.8c-0.4,0.8-1.5,1.9-3.7,1.9c-0.7,0-2.4-0.1-3.6-1.6c-0.3-0.4-0.5-0.8-0.7-1.3l1.3-0.5
		c0.2,0.7,1,2.1,3,2.1c1,0,1.7-0.3,2-0.5c0.5-0.4,0.8-1,0.8-1.6c0-0.3-0.1-0.7-0.3-1c-0.3-0.5-0.9-0.7-2-1c-1.1-0.2-2.7-0.4-3.5-1.4
		c-0.4-0.5-0.6-1.1-0.6-1.7c0-0.3,0.1-1.4,0.9-2.1c0.7-0.7,2-0.9,2.9-0.9c0.3,0,1.7,0,2.6,0.7c0.8,0.6,1.1,1.4,1.2,1.7l-1.3,0.3
		c-0.2-1.2-1.5-1.6-2.6-1.6c-0.9,0-1.5,0.2-1.8,0.4c-0.1,0-0.3,0.2-0.5,0.5c-0.2,0.4-0.2,0.8-0.2,0.9c0,1.3,1.3,1.6,2.3,1.7l1.1,0.2
		c1,0.2,1.9,0.6,2.5,1.4c0.5,0.7,0.5,1.3,0.5,1.7C247.4,26.6,247.4,27.2,247.1,27.8z"/>
	<path class="st4" d="M267.1,17.9c-0.1-0.6-0.3-1.1-0.7-1.6c-0.6-0.9-1.6-1.9-3.9-1.9c-0.3,0-1.5,0-2.5,0.5
		c-0.8,0.4-1.4,1.2-1.8,1.9c-0.5,0.9-1,2.2-1,4.5c0,0.5,0,1.6,0.3,2.9c0.3,1.5,1.3,4.3,5.3,4.3c1.4,0,2.6-0.5,3.5-1.6
		c0.6-0.8,0.8-1.4,0.9-1.8l1.4,0.9c-0.8,1.7-1.8,2.6-2.5,3.1c-0.6,0.4-1.7,0.8-3.4,0.8c-0.9,0-3.5-0.1-5.2-2.3
		c-1.7-2.2-1.7-5.4-1.7-6c0-0.8,0-4.1,2-6.4c0.8-0.9,1.7-1.4,2.1-1.6c0.5-0.2,1.4-0.5,2.8-0.5c0.9,0,1.8,0.1,2.6,0.4
		c1.9,0.6,2.8,2,3.6,3.7L267.1,17.9z"/>
	<path class="st4" d="M278.3,29.4v-1.9c-0.2,0.4-0.3,0.6-0.4,0.8c-1,1.4-2.4,1.4-3,1.4c-0.2,0-0.7,0-1.3-0.2c-1-0.3-1.7-1.1-2.1-2.1
		c-0.2-0.7-0.3-1.8-0.3-3.5v-5.3h1.4v5.6c0,1.3,0,2,0.2,2.6c0.2,0.7,0.7,1.6,2.2,1.6c0.5,0,1.7,0,2.6-1.2c0.8-1.1,0.7-2.6,0.7-3.9
		v-4.7h1.3v10.8H278.3z"/>
	<path class="st4" d="M291.4,28c-0.6,0.7-1.7,1.7-3.8,1.7c-0.4,0-1.5,0-2.5-0.6c-2.6-1.3-2.7-4.5-2.7-5.2c0-0.4,0-1.2,0.3-2.2
		c0.7-2,2.5-3.4,4.6-3.4c0.7,0,2.2,0.1,3.5,1.5c0.9,1,1.4,2.5,1.4,3.8V24h-8.4c0,0.9,0.1,1.4,0.2,1.8c0.2,0.9,1,2.6,3.5,2.6
		c1,0,2.4-0.2,3.5-2.3l1.2,0.4C292.1,26.8,291.8,27.4,291.4,28z M287.3,19.5c-1.9,0-2.8,1.3-3.1,1.9c-0.2,0.5-0.3,1-0.4,1.5h6.8
		C290.4,20.1,288.5,19.5,287.3,19.5z"/>
	<path class="st4" d="M301.9,29.4v-5.6c0-1.4,0-2.3-0.2-2.9c-0.2-0.6-0.6-0.8-0.8-0.9c-0.6-0.4-1.2-0.3-1.5-0.3
		c-0.2,0-0.8,0-1.4,0.3c-0.8,0.4-1.4,1.2-1.6,2.1c-0.1,0.5-0.1,1.4-0.1,2.7v4.7h-1.3V18.6h1.3v1.9c0.1-0.3,0.2-0.7,0.8-1.2
		c0.4-0.4,1.2-1,2.6-1c2,0,2.9,1.1,3.3,1.9c0.4,0.9,0.4,1.7,0.4,3.6v5.6H301.9z"/>
	<path class="st4" d="M309.5,29.6c-0.1,0-0.2,0-0.4,0c-0.3,0-1.1-0.1-1.4-1c-0.2-0.5-0.2-1.6-0.2-2.2v-6.7h-2.3v-1.1h2.3V14h1.3v4.6
		h2.4v1.1h-2.4v6c0,0.4,0,0.8,0,1.2c0,0.6,0,1.6,0.9,1.6c0.5,0,1.1-0.4,1.5-0.7v1.4C310.9,29.3,310.4,29.6,309.5,29.6z"/>
	<path class="st4" d="M320.3,28.8c-0.4-0.4-0.5-0.9-0.5-1.4c-0.1,0.3-0.3,0.7-0.6,0.9c-0.4,0.5-1.6,1.3-3.3,1.3
		c-1.4,0-2.1-0.5-2.6-0.9c-0.3-0.3-0.8-1-0.8-2c0-0.3,0-1,0.6-1.7c0.8-1,2.2-1.3,3.3-1.7c0.7-0.2,1.4-0.4,2-0.5l1.3-0.3V22
		c0-0.4,0-0.6-0.1-1c-0.2-0.7-0.8-1.4-2.5-1.4c-1.4,0-2.1,0.4-2.4,0.9c-0.3,0.5-0.4,1.1-0.4,1.7l-1.5-0.2c0-0.2,0.2-1.2,0.6-1.9
		c0.5-0.7,1.6-1.7,3.6-1.7c1.1,0,2.6,0.3,3.3,1.2c0.7,0.9,0.7,2,0.7,3.1V26c0,1,0,1.8,0.4,2.1c0.3,0.3,0.9,0.2,1.2,0.2v1.1
		C321.4,29.4,320.7,29.3,320.3,28.8z M319.8,23.7l-0.7,0.2c-2.1,0.6-3.9,1-4.6,1.5c-0.4,0.3-0.7,0.8-0.7,1.3c0,0.4,0.2,0.7,0.2,0.8
		c0.5,1,1.7,1,2,1c1.3,0,2.9-0.8,3.5-2c0.2-0.5,0.3-0.9,0.3-1.9V23.7z"/>
	<path class="st4" d="M331.7,27.8c-0.4,0.8-1.5,1.9-3.7,1.9c-0.7,0-2.4-0.1-3.6-1.6c-0.3-0.4-0.5-0.8-0.7-1.3l1.3-0.5
		c0.2,0.7,1,2.1,3,2.1c1,0,1.7-0.3,2-0.5c0.5-0.4,0.8-1,0.8-1.6c0-0.3-0.1-0.7-0.3-1c-0.3-0.5-0.9-0.7-2-1c-1.1-0.2-2.7-0.4-3.5-1.4
		c-0.4-0.5-0.6-1.1-0.6-1.7c0-0.3,0.1-1.4,0.9-2.1c0.7-0.7,2-0.9,2.9-0.9c0.3,0,1.7,0,2.6,0.7c0.8,0.6,1.1,1.4,1.2,1.7l-1.3,0.3
		c-0.2-1.2-1.5-1.6-2.6-1.6c-0.9,0-1.5,0.2-1.8,0.4c-0.1,0-0.3,0.2-0.5,0.5c-0.2,0.4-0.2,0.8-0.2,0.9c0,1.3,1.3,1.6,2.3,1.7l1.1,0.2
		c1,0.2,1.9,0.6,2.5,1.4c0.5,0.7,0.5,1.3,0.5,1.7C332,26.6,332,27.2,331.7,27.8z"/>
	<path class="st4" d="M340.9,29.4v-16h1.5v16H340.9z"/>
	<path class="st4" d="M353,29.4v-5.6c0-1.4,0-2.3-0.2-2.9c-0.2-0.6-0.6-0.8-0.8-0.9c-0.6-0.4-1.2-0.3-1.5-0.3s-0.8,0-1.4,0.3
		c-0.8,0.4-1.4,1.2-1.6,2.1c-0.1,0.5-0.1,1.4-0.1,2.7v4.7H346V18.6h1.3v1.9c0.1-0.3,0.2-0.7,0.8-1.2c0.4-0.4,1.2-1,2.6-1
		c2,0,2.9,1.1,3.3,1.9c0.4,0.9,0.4,1.7,0.4,3.6v5.6H353z"/>
	<path class="st4" d="M364.9,29.4v-1.9c-0.5,1.4-1.9,2.2-3.3,2.2c-0.4,0-1.3-0.1-2.2-0.7c-2.2-1.4-2.2-4.4-2.2-5
		c0-0.7,0.1-3.6,2.3-5c0.4-0.2,1.2-0.7,2.3-0.7c0.9,0,1.8,0.3,2.4,0.9c0.5,0.5,0.6,0.8,0.7,1.1v-6.9h1.3v16H364.9z M363.6,20.1
		c-0.3-0.2-0.9-0.5-1.8-0.5c-0.3,0-0.8,0-1.4,0.3c-0.9,0.5-1.9,1.7-1.9,4.1c0,0.4,0,4.4,3.2,4.4c0.8,0,1.5-0.2,2.1-0.8
		c0.9-0.9,1-2.3,1-3.5C364.9,21.9,364.5,20.8,363.6,20.1z"/>
	<path class="st4" d="M369.6,16.1V14h1.3v2.1H369.6z M369.6,29.4V18.6h1.3v10.8H369.6z"/>
	<path class="st4" d="M377.6,29.4h-1.1l-3.7-10.8h1.3l3,8.8l3.3-8.8h1.3L377.6,29.4z"/>
	<path class="st4" d="M383.7,16.1V14h1.3v2.1H383.7z M383.7,29.4V18.6h1.3v10.8H383.7z"/>
	<path class="st4" d="M395.5,29.4v-1.9c-0.5,1.4-1.9,2.2-3.3,2.2c-0.4,0-1.3-0.1-2.2-0.7c-2.2-1.4-2.2-4.4-2.2-5
		c0-0.7,0.1-3.6,2.3-5c0.4-0.2,1.2-0.7,2.3-0.7c0.9,0,1.8,0.3,2.4,0.9c0.5,0.5,0.6,0.8,0.7,1.1v-6.9h1.3v16H395.5z M394.2,20.1
		c-0.3-0.2-0.9-0.5-1.8-0.5c-0.3,0-0.8,0-1.4,0.3c-0.9,0.5-1.9,1.7-1.9,4.1c0,0.4,0,4.4,3.2,4.4c0.8,0,1.5-0.2,2.1-0.8
		c0.9-0.9,1-2.3,1-3.5C395.6,21.9,395.2,20.8,394.2,20.1z"/>
	<path class="st4" d="M407.3,29.4v-1.9c-0.2,0.4-0.3,0.6-0.4,0.8c-1,1.4-2.4,1.4-3,1.4c-0.2,0-0.7,0-1.3-0.2c-1-0.3-1.7-1.1-2.1-2.1
		c-0.2-0.7-0.3-1.8-0.3-3.5v-5.3h1.4v5.6c0,1.3,0,2,0.2,2.6c0.2,0.7,0.7,1.6,2.2,1.6c0.5,0,1.7,0,2.6-1.2c0.8-1.1,0.7-2.6,0.7-3.9
		v-4.7h1.3v10.8H407.3z"/>
	<path class="st4" d="M419,28.8c-0.4-0.4-0.5-0.9-0.5-1.4c-0.1,0.3-0.3,0.7-0.6,0.9c-0.4,0.5-1.6,1.3-3.3,1.3
		c-1.4,0-2.1-0.5-2.6-0.9c-0.3-0.3-0.8-1-0.8-2c0-0.3,0-1,0.6-1.7c0.8-1,2.2-1.3,3.3-1.7c0.7-0.2,1.4-0.4,2-0.5l1.3-0.3V22
		c0-0.4,0-0.6-0.1-1c-0.2-0.7-0.8-1.4-2.5-1.4c-1.4,0-2.1,0.4-2.4,0.9c-0.3,0.5-0.4,1.1-0.4,1.7l-1.5-0.2c0-0.2,0.2-1.2,0.6-1.9
		c0.5-0.7,1.6-1.7,3.6-1.7c1.1,0,2.6,0.3,3.3,1.2c0.7,0.9,0.7,2,0.7,3.1V26c0,1,0,1.8,0.4,2.1c0.3,0.3,0.9,0.2,1.2,0.2v1.1
		C420.2,29.4,419.5,29.3,419,28.8z M418.6,23.7l-0.7,0.2c-2.1,0.6-3.9,1-4.6,1.5c-0.4,0.3-0.7,0.8-0.7,1.3c0,0.4,0.2,0.7,0.2,0.8
		c0.5,1,1.7,1,2,1c1.3,0,2.9-0.8,3.5-2c0.2-0.5,0.3-0.9,0.3-1.9V23.7z"/>
	<path class="st4" d="M423.3,29.4v-16h1.4v16H423.3z"/>
	<path class="st4" d="M436.4,28c-0.6,0.7-1.7,1.7-3.8,1.7c-0.4,0-1.5,0-2.5-0.6c-2.6-1.3-2.7-4.5-2.7-5.2c0-0.4,0-1.2,0.3-2.2
		c0.7-2,2.5-3.4,4.6-3.4c0.7,0,2.2,0.1,3.5,1.5c0.9,1,1.4,2.5,1.4,3.8V24h-8.4c0,0.9,0.1,1.4,0.2,1.8c0.2,0.9,1,2.6,3.5,2.6
		c1,0,2.4-0.2,3.5-2.3l1.2,0.4C437.1,26.8,436.8,27.4,436.4,28z M432.3,19.5c-1.9,0-2.8,1.3-3.1,1.9c-0.2,0.5-0.3,1-0.4,1.5h6.8
		C435.3,20.1,433.5,19.5,432.3,19.5z"/>
	<path class="st4" d="M446.9,27.8c-0.4,0.8-1.5,1.9-3.7,1.9c-0.7,0-2.4-0.1-3.6-1.6c-0.3-0.4-0.5-0.8-0.7-1.3l1.3-0.5
		c0.2,0.7,1,2.1,3,2.1c1,0,1.7-0.3,2-0.5c0.5-0.4,0.8-1,0.8-1.6c0-0.3-0.1-0.7-0.3-1c-0.3-0.5-0.9-0.7-2-1c-1.1-0.2-2.7-0.4-3.5-1.4
		c-0.4-0.5-0.6-1.1-0.6-1.7c0-0.3,0.1-1.4,0.9-2.1c0.7-0.7,2-0.9,2.9-0.9c0.3,0,1.7,0,2.6,0.7c0.8,0.6,1.1,1.4,1.2,1.7l-1.3,0.3
		c-0.2-1.2-1.5-1.6-2.6-1.6c-0.9,0-1.5,0.2-1.8,0.4c-0.1,0-0.3,0.2-0.5,0.5c-0.2,0.4-0.2,0.8-0.2,0.9c0,1.3,1.3,1.6,2.3,1.7l1.1,0.2
		c1,0.2,1.9,0.6,2.5,1.4c0.5,0.7,0.5,1.3,0.5,1.7C447.3,26.6,447.3,27.2,446.9,27.8z"/>
</g>
<linearGradient id="SVGID_4_" gradientUnits="userSpaceOnUse" x1="299.87" y1="226.7823" x2="299.87" y2="13.0523" gradientTransform="matrix(1 0 0 -1 0 267.7323)">
	<stop  offset="0" style="stop-color:#40BFEF"/>
	<stop  offset="1" style="stop-color:#1470B5"/>
</linearGradient>
<polygon class="st5" points="391.5,254.7 391.5,41 208.2,41 208.2,254.7 208.2,254.7 "/>
<linearGradient id="SVGID_5_" gradientUnits="userSpaceOnUse" x1="297.545" y1="135.6323" x2="297.545" y2="24.5123" gradientTransform="matrix(1 0 0 -1 0 267.7323)">
	<stop  offset="0" style="stop-color:#F8F6F6"/>
	<stop  offset="1" style="stop-color:#E5E7E9"/>
</linearGradient>
<rect x="6.8" y="132.1" class="st6" width="581.5" height="111.1"/>
<rect x="6.8" y="185.7" class="st7" width="581.5" height="57.9"/>
<rect x="6.8" y="132.1" class="st8" width="580.1" height="34.6"/>
<rect x="208.2" y="41" class="st9" width="1.5" height="213.7"/>
<rect x="206.7" y="41" class="st7" width="1.5" height="213.7"/>
<rect x="391.5" y="41" class="st9" width="1.5" height="213.7"/>
<rect x="390" y="41" class="st7" width="1.5" height="213.7"/>
<g class="st3">
	<path class="st10" d="M31.4,156.9c-0.7,0.6-1.7,1.3-3.8,1.3c-0.4,0-2,0-3.3-0.8c-0.4-0.2-0.7-0.6-1-0.9c-0.7-0.9-0.8-2-0.8-2.4
		l1.7-0.2c0,0.4,0.1,1.4,0.8,2.2c0.4,0.4,1.2,1,2.6,1c0.2,0,0.6,0,1.1-0.1c0.5-0.1,1.9-0.6,1.9-2.3c0-0.8-0.3-1.1-0.6-1.4
		c-0.5-0.4-1.1-0.5-1.7-0.6l-1-0.2c-0.9-0.2-1.8-0.4-2.6-0.8c-1.4-0.8-1.6-1.9-1.6-2.6c0-1,0.4-1.7,1.1-2.3c1.2-1,2.7-1,3.2-1
		c1.2,0,2.3,0.2,3.2,0.9c0.6,0.4,0.8,0.8,1,1.1c0.3,0.5,0.5,1.1,0.6,1.7l-1.6,0.1c0-0.2-0.1-0.5-0.1-0.7c-0.2-0.8-1-1.8-3-1.8
		c-0.8,0-1.8,0.2-2.3,0.8c-0.3,0.3-0.4,0.7-0.4,1.1c0,0.2,0,0.5,0.3,0.9c0.5,0.6,1.4,0.8,2.1,1l1.3,0.3c0.3,0.1,0.6,0.2,0.9,0.2
		c0.4,0.1,1.8,0.4,2.6,1.6c0.2,0.3,0.4,0.8,0.4,1.7C32.4,155,32.4,156,31.4,156.9z"/>
	<path class="st10" d="M40.6,156.6c-0.4,0.6-1.3,1.6-3.1,1.6c-0.8,0-1.4-0.2-1.7-0.3c-1-0.4-2.2-1.5-2.2-4c0-1.5,0.5-2.3,0.9-2.8
		c0.7-0.9,1.8-1.4,3-1.4c0.4,0,0.9,0.1,1.3,0.2c0.5,0.2,1.5,0.6,2,1.9c0.2,0.5,0.4,1.2,0.4,2.4h-6.1c0,1.4,0.7,2.2,1.2,2.6
		c0.4,0.3,0.9,0.4,1.4,0.4c0.7,0,1.1-0.3,1.3-0.5c0.1-0.1,0.3-0.3,0.4-0.5c0.2-0.4,0.3-0.7,0.3-0.8l1.4,0.2
		C41.1,155.6,40.9,156.1,40.6,156.6z M39.5,152.4c-0.3-1-1.1-1.7-2.2-1.7c-1.4,0-2.2,1.2-2.3,2.5h4.6
		C39.6,152.8,39.6,152.6,39.5,152.4z"/>
	<path class="st10" d="M49.7,159.6c-0.4,1.5-1.6,1.9-2.1,2.1c-0.3,0.1-0.7,0.2-1.4,0.2c-0.2,0-0.7,0-1.3-0.2
		c-1.9-0.5-2.2-2.1-2.3-2.8H44c0,0.2,0,0.7,0.3,1.1c0.6,0.8,1.6,0.8,1.9,0.8c0.2,0,1.4,0,1.9-0.8c0.3-0.5,0.4-1.1,0.3-2.2l0-0.9
		c-0.9,1.3-2,1.4-2.6,1.4c-0.8,0-1.4-0.3-1.7-0.4c-0.9-0.5-2-1.5-2-3.8c0-0.4,0-1.8,0.8-2.9c0.7-0.9,1.5-1.4,2.9-1.4
		c0.2,0,0.6,0,1.1,0.2c0.4,0.1,0.9,0.4,1.5,1.1v-1.1h1.4v7.6C49.9,158.6,49.9,159,49.7,159.6z M48.3,152.6c-0.4-1.1-1.3-1.7-2.4-1.7
		c-0.4,0-0.7,0.1-1,0.2c-0.6,0.3-1.4,1.2-1.4,2.8c0,0.9,0.2,1.9,1,2.5c0.4,0.3,1,0.5,1.5,0.5c0.8,0,1.3-0.3,1.5-0.5
		c0.5-0.4,0.9-1.2,0.9-2.6C48.5,153.7,48.5,153.1,48.3,152.6z"/>
	<path class="st10" d="M57,157.9l0-1.2c-0.1,0.1-0.2,0.2-0.3,0.4c-0.6,0.6-1.5,1-2.4,1c-0.3,0-1.5-0.1-2.1-1.1
		c-0.5-0.8-0.4-1.6-0.4-2.5v-4.7h1.3v4.5c0,0.8,0,1.2,0.2,1.6c0.2,0.3,0.6,0.8,1.5,0.8c0.3,0,1.3-0.1,1.9-0.9c0.4-0.6,0.4-1.3,0.4-2
		v-4h1.3v8H57z"/>
	<path class="st10" d="M63.3,151.3c-0.8,0.1-1.4,0.7-1.6,1.5c-0.1,0.4-0.1,0.7-0.1,1.5v3.7h-1.4v-8h1.4v1.5c0.2-0.4,0.4-0.7,0.7-0.9
		c0.3-0.3,1-0.6,2-0.6v1.5C63.8,151.2,63.6,151.2,63.3,151.3z"/>
	<path class="st10" d="M71.7,156.8c-0.4,0.5-1.3,1.3-3,1.3c-0.5,0-1.8-0.1-2.8-1.1c-0.5-0.5-1.2-1.5-1.2-3.2c0-1,0.3-2.1,0.9-2.9
		c0.8-1,1.8-1.4,3.1-1.4c0.5,0,1.1,0.1,1.6,0.3c0.9,0.4,2.3,1.5,2.3,4C72.6,154.4,72.6,155.7,71.7,156.8z M70.8,151.9
		c-0.1-0.2-0.3-0.5-0.5-0.6c-0.6-0.5-1.2-0.5-1.5-0.5c-2.6,0-2.5,2.8-2.5,3.3c0,0.4,0.1,0.7,0.1,0.8c0.1,0.6,0.5,2.3,2.4,2.3
		c0.4,0,1.3-0.1,1.9-1c0.5-0.8,0.5-2,0.5-2.2C71.2,153.7,71.2,152.7,70.8,151.9z"/>
	<path class="st10" d="M84.3,157.9v-1c-0.4,0.5-1.2,1.3-2.7,1.3c-1.5,0-2.3-0.7-2.7-1.2c-0.5-0.5-1-1.5-1-3.1c0-1,0.2-2,0.8-2.8
		c0.4-0.5,1.2-1.4,2.9-1.4c1.1,0,1.9,0.5,2.3,0.8c0.2,0.2,0.3,0.3,0.5,0.5v-5h1.4v12H84.3z M84.2,152.9c-0.3-1.2-1.2-2-2.4-2
		c-0.4,0-1.2,0.1-1.8,0.8c-0.5,0.6-0.7,1.4-0.7,2.2c0,0.3,0,1.3,0.6,2.2c0.6,0.8,1.5,0.9,1.9,0.9c0.5,0,0.9-0.1,1.3-0.3
		c0.6-0.4,1.2-1.2,1.2-2.7C84.3,153.8,84.3,153.3,84.2,152.9z"/>
	<path class="st10" d="M94.1,156.6c-0.4,0.6-1.3,1.6-3.1,1.6c-0.8,0-1.4-0.2-1.7-0.3c-1-0.4-2.2-1.5-2.2-4c0-1.5,0.5-2.3,0.9-2.8
		c0.7-0.9,1.8-1.4,3-1.4c0.4,0,0.9,0.1,1.3,0.2c0.5,0.2,1.5,0.6,2,1.9c0.2,0.5,0.4,1.2,0.4,2.4h-6.1c0,1.4,0.7,2.2,1.2,2.6
		c0.4,0.3,0.9,0.4,1.4,0.4c0.7,0,1.1-0.3,1.3-0.5c0.1-0.1,0.3-0.3,0.4-0.5c0.2-0.4,0.3-0.7,0.3-0.8l1.4,0.2
		C94.6,155.6,94.4,156.1,94.1,156.6z M93,152.4c-0.3-1-1.1-1.7-2.2-1.7c-1.4,0-2.2,1.2-2.3,2.5h4.6C93.1,152.8,93.1,152.6,93,152.4z
		"/>
	<path class="st10" d="M108.3,157.9l-1.3-3.7h-4.6l-1.3,3.7h-1.7l4.6-12h1.7l4.4,12H108.3z M104.7,147.9l-1.8,5h3.6L104.7,147.9z"/>
	<path class="st10" d="M116.9,157.5c-0.9,0.7-2.1,0.7-2.4,0.7c-0.2,0-0.9,0-1.5-0.2c-1-0.3-2.5-1.4-2.5-4c0-2.6,1.4-3.7,2.4-4.1
		c0.6-0.2,1.2-0.2,1.5-0.2c2.1,0,3.1,1.2,3.5,2c0.1,0.3,0.2,0.4,0.2,0.7l-1.5,0.1c0-0.1-0.1-0.6-0.3-0.9c-0.6-0.9-1.5-0.9-1.8-0.9
		c-1.2,0-2.4,0.8-2.4,3.2c0,1.4,0.5,2.2,0.9,2.6c0.5,0.4,1,0.6,1.6,0.6c0.4,0,0.7-0.1,1-0.2c0.9-0.4,1.1-1.2,1.2-2l1.5,0.1
		C118,156.4,117.3,157.1,116.9,157.5z"/>
	<path class="st10" d="M125.4,157.5c-0.9,0.7-2.1,0.7-2.4,0.7c-0.2,0-0.9,0-1.5-0.2c-1-0.3-2.5-1.4-2.5-4c0-2.6,1.4-3.7,2.4-4.1
		c0.6-0.2,1.2-0.2,1.5-0.2c2.1,0,3.1,1.2,3.5,2c0.1,0.3,0.2,0.4,0.2,0.7l-1.5,0.1c0-0.1-0.1-0.6-0.3-0.9c-0.6-0.9-1.5-0.9-1.8-0.9
		c-1.2,0-2.4,0.8-2.4,3.2c0,1.4,0.5,2.2,0.9,2.6c0.5,0.4,1,0.6,1.6,0.6c0.4,0,0.7-0.1,1-0.2c0.9-0.4,1.1-1.2,1.2-2l1.5,0.1
		C126.5,156.4,125.8,157.1,125.4,157.5z"/>
	<path class="st10" d="M128,147.5v-1.6h1.3v1.6H128z M128,157.9v-8h1.3v8H128z"/>
	<path class="st10" d="M137.1,157.9v-1c-0.4,0.5-1.2,1.3-2.7,1.3c-1.5,0-2.3-0.7-2.7-1.2c-0.5-0.5-1-1.5-1-3.1c0-1,0.2-2,0.8-2.8
		c0.4-0.5,1.2-1.4,2.9-1.4c1.1,0,1.9,0.5,2.3,0.8c0.2,0.2,0.3,0.3,0.5,0.5v-5h1.4v12H137.1z M137,152.9c-0.3-1.2-1.2-2-2.4-2
		c-0.4,0-1.2,0.1-1.8,0.8c-0.5,0.6-0.7,1.4-0.7,2.2c0,0.3,0,1.3,0.6,2.2c0.6,0.8,1.5,0.9,1.9,0.9c0.5,0,0.9-0.1,1.3-0.3
		c0.6-0.4,1.2-1.2,1.2-2.7C137.1,153.8,137.1,153.3,137,152.9z"/>
	<path class="st10" d="M146.9,156.6c-0.4,0.6-1.3,1.6-3.1,1.6c-0.8,0-1.4-0.2-1.7-0.3c-1-0.4-2.2-1.5-2.2-4c0-1.5,0.5-2.3,0.9-2.8
		c0.7-0.9,1.8-1.4,3-1.4c0.4,0,0.9,0.1,1.3,0.2c0.5,0.2,1.5,0.6,2,1.9c0.2,0.5,0.4,1.2,0.4,2.4h-6.1c0,1.4,0.7,2.2,1.2,2.6
		c0.4,0.3,0.9,0.4,1.4,0.4c0.7,0,1.1-0.3,1.3-0.5c0.1-0.1,0.3-0.3,0.4-0.5c0.2-0.4,0.3-0.7,0.3-0.8l1.4,0.2
		C147.3,155.6,147.2,156.1,146.9,156.6z M145.8,152.4c-0.3-1-1.1-1.7-2.2-1.7c-1.4,0-2.2,1.2-2.3,2.5h4.6
		C145.9,152.8,145.9,152.6,145.8,152.4z"/>
	<path class="st10" d="M154.1,157.9v-5.1c0-0.2,0.1-1-0.6-1.5c-0.2-0.2-0.6-0.4-1.2-0.4c-0.6,0-1.1,0.2-1.5,0.6
		c-0.1,0.1-0.3,0.4-0.5,0.7c-0.2,0.4-0.2,0.7-0.2,1.1v4.5h-1.4v-8h1.4v1.2c0.2-0.3,0.3-0.5,0.4-0.6c0.3-0.3,1-0.9,2.1-0.9
		c0.4,0,1.6,0.1,2.3,1.1c0.5,0.7,0.5,1.5,0.5,2.4v4.8H154.1z"/>
	<path class="st10" d="M159.3,158.1c-0.8,0-1.2-0.2-1.4-0.5c-0.2-0.3-0.2-0.6-0.2-1.3V151h-1.3v-1.1h1.3v-2.5h1.4v2.5h1.4v1.1h-1.4
		v4.6c0,0.6,0,0.9,0.1,1.1c0.1,0.2,0.3,0.2,0.5,0.2c0.2,0,0.5-0.1,0.8-0.2v1.1C160.5,157.9,159.8,158.1,159.3,158.1z"/>
	<path class="st10" d="M168.5,156.6c-0.4,0.6-1.3,1.6-3.1,1.6c-0.8,0-1.4-0.2-1.7-0.3c-1-0.4-2.2-1.5-2.2-4c0-1.5,0.5-2.3,0.9-2.8
		c0.7-0.9,1.8-1.4,3-1.4c0.4,0,0.9,0.1,1.3,0.2c0.5,0.2,1.5,0.6,2,1.9c0.2,0.5,0.4,1.2,0.4,2.4h-6.1c0,1.4,0.7,2.2,1.2,2.6
		c0.4,0.3,0.9,0.4,1.4,0.4c0.7,0,1.1-0.3,1.3-0.5c0.1-0.1,0.3-0.3,0.4-0.5c0.2-0.4,0.3-0.7,0.3-0.8l1.4,0.2
		C169,155.6,168.8,156.1,168.5,156.6z M167.4,152.4c-0.3-1-1.1-1.7-2.2-1.7c-1.4,0-2.2,1.2-2.3,2.5h4.6
		C167.5,152.8,167.5,152.6,167.4,152.4z"/>
	<path class="st10" d="M176.6,156.9c-0.4,0.6-1.3,1.3-3,1.3c-0.2,0-1.5,0-2.4-0.6c-0.1-0.1-0.3-0.2-0.6-0.5
		c-0.6-0.7-0.7-1.4-0.7-1.7l1.5-0.2c0,0.5,0.1,1,0.4,1.4c0.5,0.5,1.1,0.6,1.8,0.6c0.2,0,1,0,1.5-0.5c0.4-0.3,0.4-0.7,0.4-0.9
		c0-0.1,0-0.4-0.2-0.6c-0.3-0.5-1.1-0.6-1.5-0.7l-0.8-0.2c-1-0.2-1.5-0.4-1.9-0.6c-0.6-0.4-1-0.9-1-1.7c0-0.2,0-0.8,0.4-1.3
		c0.8-1.1,2.4-1.1,2.7-1.1c1.7,0,2.6,0.8,3,1.4c0.3,0.5,0.4,1,0.4,1.2l-1.5,0.2c0-0.4,0-0.6-0.1-0.7c-0.2-0.4-0.9-1-2-1
		c-1.1,0-1.6,0.7-1.6,1.2c0,0.1,0,0.2,0.1,0.4c0.3,0.4,0.9,0.6,1.8,0.8l0.8,0.2c0.2,0.1,0.5,0.1,0.7,0.2c1.1,0.3,1.9,0.9,1.9,2.1
		C176.9,155.8,176.9,156.4,176.6,156.9z"/>
</g>
<g class="st3">
	<path class="st10" d="M71.5,170.8c-0.4,0.1-0.9,0.2-1.8,0.2h-3.5v5.1h-1.5v-12h5.2c0.9,0,1.7,0,2.5,0.5c1.3,0.8,1.4,2.4,1.4,2.9
		C73.8,169,73.1,170.4,71.5,170.8z M72.1,166.6c-0.2-0.6-0.7-0.9-1.2-1.1c-0.4-0.1-0.6-0.1-1-0.1h-3.7v4.1h3.3c0.4,0,0.9,0,1.3-0.1
		c1-0.3,1.4-1.1,1.4-2.1C72.3,167.3,72.3,167,72.1,166.6z"/>
	<path class="st10" d="M81.3,174.7c-0.4,0.6-1.3,1.6-3.1,1.6c-0.8,0-1.4-0.2-1.7-0.3c-1-0.4-2.2-1.5-2.2-4c0-1.5,0.5-2.3,0.9-2.8
		c0.7-0.9,1.8-1.4,3-1.4c0.4,0,0.9,0.1,1.3,0.2c0.5,0.2,1.5,0.6,2,1.9c0.2,0.5,0.4,1.2,0.4,2.4h-6.1c0,1.4,0.7,2.2,1.2,2.6
		c0.4,0.3,0.9,0.4,1.4,0.4c0.7,0,1.1-0.3,1.3-0.5c0.1-0.1,0.3-0.3,0.4-0.5c0.2-0.4,0.3-0.7,0.3-0.8l1.4,0.2
		C81.8,173.8,81.7,174.3,81.3,174.7z M80.3,170.5c-0.3-1-1.1-1.7-2.2-1.7c-1.4,0-2.2,1.2-2.3,2.5h4.6
		C80.4,170.9,80.3,170.7,80.3,170.5z"/>
	<path class="st10" d="M86.4,169.4c-0.8,0.1-1.4,0.7-1.6,1.5c-0.1,0.4-0.1,0.7-0.1,1.5v3.7h-1.4v-8h1.4v1.5c0.2-0.4,0.4-0.7,0.7-0.9
		c0.3-0.3,1-0.6,2-0.6v1.5C86.9,169.3,86.6,169.4,86.4,169.4z"/>
	<path class="st10" d="M94.4,175c-0.4,0.6-1.3,1.3-3,1.3c-0.2,0-1.5,0-2.4-0.6c-0.1-0.1-0.3-0.2-0.6-0.5c-0.6-0.7-0.7-1.4-0.7-1.7
		l1.5-0.2c0,0.5,0.1,1,0.4,1.4c0.5,0.5,1.1,0.6,1.8,0.6c0.2,0,1,0,1.5-0.5c0.4-0.3,0.4-0.7,0.4-0.9c0-0.1,0-0.4-0.2-0.6
		c-0.3-0.5-1.1-0.6-1.5-0.7l-0.8-0.2c-1-0.2-1.5-0.4-1.9-0.6c-0.6-0.4-1-0.9-1-1.7c0-0.2,0-0.8,0.4-1.3c0.8-1.1,2.4-1.1,2.7-1.1
		c1.7,0,2.6,0.8,3,1.4c0.3,0.5,0.4,1,0.4,1.2l-1.5,0.2c0-0.4,0-0.6-0.1-0.7c-0.2-0.4-0.9-1-2-1c-1.1,0-1.6,0.7-1.6,1.2
		c0,0.1,0,0.2,0.1,0.4c0.3,0.4,0.9,0.6,1.8,0.8l0.8,0.2c0.2,0.1,0.5,0.1,0.7,0.2c1.1,0.3,1.9,0.9,1.9,2.1
		C94.7,174,94.7,174.5,94.4,175z"/>
	<path class="st10" d="M102.5,175c-0.4,0.5-1.3,1.3-3,1.3c-0.5,0-1.8-0.1-2.8-1.1c-0.5-0.5-1.2-1.5-1.2-3.2c0-1,0.3-2.1,0.9-2.9
		c0.8-1,1.8-1.4,3.1-1.4c0.5,0,1.1,0.1,1.6,0.3c0.9,0.4,2.3,1.5,2.3,4C103.5,172.5,103.4,173.9,102.5,175z M101.6,170
		c-0.1-0.2-0.3-0.5-0.5-0.6c-0.6-0.5-1.2-0.5-1.5-0.5c-2.6,0-2.5,2.8-2.5,3.3c0,0.4,0.1,0.7,0.1,0.8c0.1,0.6,0.5,2.3,2.4,2.3
		c0.4,0,1.3-0.1,1.9-1c0.5-0.8,0.5-2,0.5-2.2C102,171.8,102,170.8,101.6,170z"/>
	<path class="st10" d="M110.2,176V171c0-0.2,0.1-1-0.6-1.5c-0.2-0.2-0.6-0.4-1.2-0.4c-0.6,0-1.1,0.2-1.5,0.6
		c-0.1,0.1-0.3,0.4-0.5,0.7c-0.2,0.4-0.2,0.7-0.2,1.1v4.5h-1.4v-8h1.4v1.2c0.2-0.3,0.3-0.5,0.4-0.6c0.3-0.3,1-0.9,2.1-0.9
		c0.4,0,1.6,0.1,2.3,1.1c0.5,0.7,0.5,1.5,0.5,2.4v4.8H110.2z"/>
	<path class="st10" d="M119.7,176.2c-0.1,0-0.5,0-0.8-0.2c-0.1-0.1-0.2-0.3-0.3-0.3c-0.2-0.3-0.2-0.5-0.3-0.7
		c-0.4,0.4-1.2,1.3-2.7,1.3c-0.5,0-0.9-0.1-1.1-0.2c-1-0.3-1.6-1.1-1.6-2.1c0-0.4,0.1-1.1,0.9-1.7c0.8-0.6,2.2-0.8,3.2-0.9l1.2-0.1
		c0-0.2,0-0.4,0-0.7c0-0.6-0.1-1.8-1.8-1.8c-0.3,0-1.3,0-1.6,1c-0.1,0.3-0.1,0.4-0.1,0.7l-1.4-0.1c0-0.2,0-0.4,0.1-0.8
		c0.3-0.8,1-1.8,2.9-1.8c0.2,0,0.7,0,1.3,0.2c0.3,0.1,1.4,0.4,1.8,1.5c0.2,0.4,0.2,0.8,0.2,1.7v2.6c0,0.2,0,0.4,0,0.5
		c0,0.2,0,0.6,0.6,0.6c0.2,0,0.3,0,0.4-0.1v1.1C120.1,176.1,119.9,176.2,119.7,176.2z M118.2,172.3v-0.2c-0.6,0.1-2.2,0.3-2.9,0.6
		c-0.3,0.1-1,0.4-1,1.2c0,0.6,0.4,1.2,1.5,1.2c0.7,0,2.3-0.3,2.3-2.4C118.2,172.6,118.2,172.5,118.2,172.3z"/>
	<path class="st10" d="M121.6,176v-12h1.3v12H121.6z"/>
	<path class="st10" d="M131.3,174.7c-0.4,0.6-1.3,1.6-3.1,1.6c-0.8,0-1.4-0.2-1.7-0.3c-1-0.4-2.2-1.5-2.2-4c0-1.5,0.5-2.3,0.9-2.8
		c0.7-0.9,1.8-1.4,3-1.4c0.4,0,0.9,0.1,1.3,0.2c0.5,0.2,1.5,0.6,2,1.9c0.2,0.5,0.4,1.2,0.4,2.4h-6.1c0,1.4,0.7,2.2,1.2,2.6
		c0.4,0.3,0.9,0.4,1.4,0.4c0.7,0,1.1-0.3,1.3-0.5c0.1-0.1,0.3-0.3,0.4-0.5c0.2-0.4,0.3-0.7,0.3-0.8l1.4,0.2
		C131.8,173.8,131.6,174.3,131.3,174.7z M130.2,170.5c-0.3-1-1.1-1.7-2.2-1.7c-1.4,0-2.2,1.2-2.3,2.5h4.6
		C130.3,170.9,130.3,170.7,130.2,170.5z"/>
	<path class="st10" d="M139.4,175c-0.4,0.6-1.3,1.3-3,1.3c-0.2,0-1.5,0-2.4-0.6c-0.1-0.1-0.3-0.2-0.6-0.5c-0.6-0.7-0.7-1.4-0.7-1.7
		l1.5-0.2c0,0.5,0.1,1,0.4,1.4c0.5,0.5,1.1,0.6,1.8,0.6c0.2,0,1,0,1.5-0.5c0.4-0.3,0.4-0.7,0.4-0.9c0-0.1,0-0.4-0.2-0.6
		c-0.3-0.5-1.1-0.6-1.5-0.7l-0.8-0.2c-1-0.2-1.5-0.4-1.9-0.6c-0.6-0.4-1-0.9-1-1.7c0-0.2,0-0.8,0.4-1.3c0.8-1.1,2.4-1.1,2.7-1.1
		c1.7,0,2.6,0.8,3,1.4c0.3,0.5,0.4,1,0.4,1.2l-1.5,0.2c0-0.4,0-0.6-0.1-0.7c-0.2-0.4-0.9-1-2-1c-1.1,0-1.6,0.7-1.6,1.2
		c0,0.1,0,0.2,0.1,0.4c0.3,0.4,0.9,0.6,1.8,0.8l0.8,0.2c0.2,0.1,0.5,0.1,0.7,0.2c1.1,0.3,1.9,0.9,1.9,2.1
		C139.7,174,139.7,174.5,139.4,175z"/>
</g>
<g class="st3">
	<path class="st10" d="M230.2,156.9c-0.7,0.6-1.7,1.3-3.8,1.3c-0.4,0-2,0-3.3-0.8c-0.4-0.2-0.7-0.6-1-0.9c-0.7-0.9-0.8-2-0.8-2.4
		l1.7-0.2c0,0.4,0.1,1.4,0.8,2.2c0.4,0.4,1.2,1,2.6,1c0.2,0,0.6,0,1.1-0.1c0.5-0.1,1.9-0.6,1.9-2.3c0-0.8-0.3-1.1-0.6-1.4
		c-0.5-0.4-1.1-0.5-1.7-0.6l-1-0.2c-0.9-0.2-1.8-0.4-2.6-0.8c-1.4-0.8-1.6-1.9-1.6-2.6c0-1,0.4-1.7,1.1-2.3c1.2-1,2.7-1,3.2-1
		c1.2,0,2.3,0.2,3.2,0.9c0.6,0.4,0.8,0.8,1,1.1c0.3,0.5,0.5,1.1,0.6,1.7l-1.6,0.1c0-0.2-0.1-0.5-0.1-0.7c-0.2-0.8-1-1.8-3-1.8
		c-0.8,0-1.8,0.2-2.3,0.8c-0.3,0.3-0.4,0.7-0.4,1.1c0,0.2,0,0.5,0.3,0.9c0.5,0.6,1.4,0.8,2.1,1l1.3,0.3c0.3,0.1,0.6,0.2,0.9,0.2
		c0.4,0.1,1.8,0.4,2.6,1.6c0.2,0.3,0.4,0.8,0.4,1.7C231.2,155,231.1,156,230.2,156.9z"/>
	<path class="st10" d="M239.3,156.6c-0.4,0.6-1.3,1.6-3.1,1.6c-0.8,0-1.4-0.2-1.7-0.3c-1-0.4-2.2-1.5-2.2-4c0-1.5,0.5-2.3,0.9-2.8
		c0.7-0.9,1.8-1.4,3-1.4c0.4,0,0.9,0.1,1.3,0.2c0.5,0.2,1.5,0.6,2,1.9c0.2,0.5,0.4,1.2,0.4,2.4h-6.1c0,1.4,0.7,2.2,1.2,2.6
		c0.4,0.3,0.9,0.4,1.4,0.4c0.7,0,1.1-0.3,1.3-0.5c0.1-0.1,0.3-0.3,0.4-0.5c0.2-0.4,0.3-0.7,0.3-0.8l1.4,0.2
		C239.8,155.6,239.6,156.1,239.3,156.6z M238.3,152.4c-0.3-1-1.1-1.7-2.2-1.7c-1.4,0-2.2,1.2-2.3,2.5h4.6
		C238.3,152.8,238.3,152.6,238.3,152.4z"/>
	<path class="st10" d="M248.4,159.6c-0.4,1.5-1.6,1.9-2.1,2.1c-0.3,0.1-0.7,0.2-1.4,0.2c-0.2,0-0.7,0-1.3-0.2
		c-1.9-0.5-2.2-2.1-2.3-2.8h1.5c0,0.2,0,0.7,0.3,1.1c0.6,0.8,1.6,0.8,1.9,0.8c0.2,0,1.4,0,1.9-0.8c0.3-0.5,0.4-1.1,0.3-2.2l0-0.9
		c-0.9,1.3-2,1.4-2.6,1.4c-0.8,0-1.4-0.3-1.7-0.4c-0.9-0.5-2-1.5-2-3.8c0-0.4,0-1.8,0.8-2.9c0.7-0.9,1.5-1.4,2.9-1.4
		c0.2,0,0.6,0,1.1,0.2c0.4,0.1,0.9,0.4,1.5,1.1v-1.1h1.4v7.6C248.6,158.6,248.6,159,248.4,159.6z M247.1,152.6
		c-0.4-1.1-1.3-1.7-2.4-1.7c-0.4,0-0.7,0.1-1,0.2c-0.6,0.3-1.4,1.2-1.4,2.8c0,0.9,0.2,1.9,1,2.5c0.4,0.3,1,0.5,1.5,0.5
		c0.8,0,1.3-0.3,1.5-0.5c0.5-0.4,0.9-1.2,0.9-2.6C247.2,153.7,247.2,153.1,247.1,152.6z"/>
	<path class="st10" d="M255.7,157.9l0-1.2c-0.1,0.1-0.2,0.2-0.3,0.4c-0.6,0.6-1.5,1-2.4,1c-0.3,0-1.5-0.1-2.1-1.1
		c-0.5-0.8-0.4-1.6-0.4-2.5v-4.7h1.3v4.5c0,0.8,0,1.2,0.2,1.6c0.2,0.3,0.6,0.8,1.5,0.8c0.3,0,1.3-0.1,1.9-0.9c0.4-0.6,0.4-1.3,0.4-2
		v-4h1.3v8H255.7z"/>
	<path class="st10" d="M262.1,151.3c-0.8,0.1-1.4,0.7-1.6,1.5c-0.1,0.4-0.1,0.7-0.1,1.5v3.7H259v-8h1.4v1.5c0.2-0.4,0.4-0.7,0.7-0.9
		c0.3-0.3,1-0.6,2-0.6v1.5C262.6,151.2,262.3,151.2,262.1,151.3z"/>
	<path class="st10" d="M270.4,156.8c-0.4,0.5-1.3,1.3-3,1.3c-0.5,0-1.8-0.1-2.8-1.1c-0.5-0.5-1.2-1.5-1.2-3.2c0-1,0.3-2.1,0.9-2.9
		c0.8-1,1.8-1.4,3.1-1.4c0.5,0,1.1,0.1,1.6,0.3c0.9,0.4,2.3,1.5,2.3,4C271.4,154.4,271.3,155.7,270.4,156.8z M269.5,151.9
		c-0.1-0.2-0.3-0.5-0.5-0.6c-0.6-0.5-1.2-0.5-1.5-0.5c-2.6,0-2.5,2.8-2.5,3.3c0,0.4,0.1,0.7,0.1,0.8c0.1,0.6,0.5,2.3,2.4,2.3
		c0.4,0,1.3-0.1,1.9-1c0.5-0.8,0.5-2,0.5-2.2C269.9,153.7,269.9,152.7,269.5,151.9z"/>
	<path class="st10" d="M283,157.9v-1c-0.4,0.5-1.2,1.3-2.7,1.3c-1.5,0-2.3-0.7-2.7-1.2c-0.5-0.5-1-1.5-1-3.1c0-1,0.2-2,0.8-2.8
		c0.4-0.5,1.2-1.4,2.9-1.4c1.1,0,1.9,0.5,2.3,0.8c0.2,0.2,0.3,0.3,0.5,0.5v-5h1.4v12H283z M283,152.9c-0.3-1.2-1.2-2-2.4-2
		c-0.4,0-1.2,0.1-1.8,0.8c-0.5,0.6-0.7,1.4-0.7,2.2c0,0.3,0,1.3,0.6,2.2c0.6,0.8,1.5,0.9,1.9,0.9c0.5,0,0.9-0.1,1.3-0.3
		c0.6-0.4,1.2-1.2,1.2-2.7C283.1,153.8,283.1,153.3,283,152.9z"/>
	<path class="st10" d="M292.8,156.6c-0.4,0.6-1.3,1.6-3.1,1.6c-0.8,0-1.4-0.2-1.7-0.3c-1-0.4-2.2-1.5-2.2-4c0-1.5,0.5-2.3,0.9-2.8
		c0.7-0.9,1.8-1.4,3-1.4c0.4,0,0.9,0.1,1.3,0.2c0.5,0.2,1.5,0.6,2,1.9c0.2,0.5,0.4,1.2,0.4,2.4h-6.1c0,1.4,0.7,2.2,1.2,2.6
		c0.4,0.3,0.9,0.4,1.4,0.4c0.7,0,1.1-0.3,1.3-0.5c0.1-0.1,0.3-0.3,0.4-0.5c0.2-0.4,0.3-0.7,0.3-0.8l1.4,0.2
		C293.3,155.6,293.1,156.1,292.8,156.6z M291.7,152.4c-0.3-1-1.1-1.7-2.2-1.7c-1.4,0-2.2,1.2-2.3,2.5h4.6
		C291.8,152.8,291.8,152.6,291.7,152.4z"/>
	<path class="st10" d="M307,157.9l-1.3-3.7h-4.6l-1.3,3.7h-1.7l4.6-12h1.7l4.4,12H307z M303.5,147.9l-1.8,5h3.6L303.5,147.9z"/>
	<path class="st10" d="M315.6,157.5c-0.9,0.7-2.1,0.7-2.4,0.7c-0.2,0-0.9,0-1.5-0.2c-1-0.3-2.5-1.4-2.5-4c0-2.6,1.4-3.7,2.4-4.1
		c0.6-0.2,1.2-0.2,1.5-0.2c2.1,0,3.1,1.2,3.5,2c0.1,0.3,0.2,0.4,0.2,0.7l-1.5,0.1c0-0.1-0.1-0.6-0.3-0.9c-0.6-0.9-1.5-0.9-1.8-0.9
		c-1.2,0-2.4,0.8-2.4,3.2c0,1.4,0.5,2.2,0.9,2.6c0.5,0.4,1,0.6,1.6,0.6c0.4,0,0.7-0.1,1-0.2c0.9-0.4,1.1-1.2,1.2-2l1.5,0.1
		C316.7,156.4,316,157.1,315.6,157.5z"/>
	<path class="st10" d="M324.1,157.5c-0.9,0.7-2.1,0.7-2.4,0.7c-0.2,0-0.9,0-1.5-0.2c-1-0.3-2.5-1.4-2.5-4c0-2.6,1.4-3.7,2.4-4.1
		c0.6-0.2,1.2-0.2,1.5-0.2c2.1,0,3.1,1.2,3.5,2c0.1,0.3,0.2,0.4,0.2,0.7l-1.5,0.1c0-0.1-0.1-0.6-0.3-0.9c-0.6-0.9-1.5-0.9-1.8-0.9
		c-1.2,0-2.4,0.8-2.4,3.2c0,1.4,0.5,2.2,0.9,2.6c0.5,0.4,1,0.6,1.6,0.6c0.4,0,0.7-0.1,1-0.2c0.9-0.4,1.1-1.2,1.2-2l1.5,0.1
		C325.2,156.4,324.5,157.1,324.1,157.5z"/>
	<path class="st10" d="M326.7,147.5v-1.6h1.3v1.6H326.7z M326.7,157.9v-8h1.3v8H326.7z"/>
	<path class="st10" d="M335.8,157.9v-1c-0.4,0.5-1.2,1.3-2.7,1.3c-1.5,0-2.3-0.7-2.7-1.2c-0.5-0.5-1-1.5-1-3.1c0-1,0.2-2,0.8-2.8
		c0.4-0.5,1.2-1.4,2.9-1.4c1.1,0,1.9,0.5,2.3,0.8c0.2,0.2,0.3,0.3,0.5,0.5v-5h1.4v12H335.8z M335.7,152.9c-0.3-1.2-1.2-2-2.4-2
		c-0.4,0-1.2,0.1-1.8,0.8c-0.5,0.6-0.7,1.4-0.7,2.2c0,0.3,0,1.3,0.6,2.2c0.6,0.8,1.5,0.9,1.9,0.9c0.5,0,0.9-0.1,1.3-0.3
		c0.6-0.4,1.2-1.2,1.2-2.7C335.8,153.8,335.8,153.3,335.7,152.9z"/>
	<path class="st10" d="M345.6,156.6c-0.4,0.6-1.3,1.6-3.1,1.6c-0.8,0-1.4-0.2-1.7-0.3c-1-0.4-2.2-1.5-2.2-4c0-1.5,0.5-2.3,0.9-2.8
		c0.7-0.9,1.8-1.4,3-1.4c0.4,0,0.9,0.1,1.3,0.2c0.5,0.2,1.5,0.6,2,1.9c0.2,0.5,0.4,1.2,0.4,2.4H340c0,1.4,0.7,2.2,1.2,2.6
		c0.4,0.3,0.9,0.4,1.4,0.4c0.7,0,1.1-0.3,1.3-0.5c0.1-0.1,0.3-0.3,0.4-0.5c0.2-0.4,0.3-0.7,0.3-0.8l1.4,0.2
		C346.1,155.6,345.9,156.1,345.6,156.6z M344.5,152.4c-0.3-1-1.1-1.7-2.2-1.7c-1.4,0-2.2,1.2-2.3,2.5h4.6
		C344.6,152.8,344.6,152.6,344.5,152.4z"/>
	<path class="st10" d="M352.8,157.9v-5.1c0-0.2,0.1-1-0.6-1.5c-0.2-0.2-0.6-0.4-1.2-0.4c-0.6,0-1.1,0.2-1.5,0.6
		c-0.1,0.1-0.3,0.4-0.5,0.7c-0.2,0.4-0.2,0.7-0.2,1.1v4.5h-1.4v-8h1.4v1.2c0.2-0.3,0.3-0.5,0.4-0.6c0.3-0.3,1-0.9,2.1-0.9
		c0.4,0,1.6,0.1,2.3,1.1c0.5,0.7,0.5,1.5,0.5,2.4v4.8H352.8z"/>
	<path class="st10" d="M358,158.1c-0.8,0-1.2-0.2-1.4-0.5c-0.2-0.3-0.2-0.6-0.2-1.3V151h-1.3v-1.1h1.3v-2.5h1.4v2.5h1.4v1.1h-1.4
		v4.6c0,0.6,0,0.9,0.1,1.1c0.1,0.2,0.3,0.2,0.5,0.2c0.2,0,0.5-0.1,0.8-0.2v1.1C359.2,157.9,358.6,158.1,358,158.1z"/>
	<path class="st10" d="M367.2,156.6c-0.4,0.6-1.3,1.6-3.1,1.6c-0.8,0-1.4-0.2-1.7-0.3c-1-0.4-2.2-1.5-2.2-4c0-1.5,0.5-2.3,0.9-2.8
		c0.7-0.9,1.8-1.4,3-1.4c0.4,0,0.9,0.1,1.3,0.2c0.5,0.2,1.5,0.6,2,1.9c0.2,0.5,0.4,1.2,0.4,2.4h-6.1c0,1.4,0.7,2.2,1.2,2.6
		c0.4,0.3,0.9,0.4,1.4,0.4c0.7,0,1.1-0.3,1.3-0.5c0.1-0.1,0.3-0.3,0.4-0.5c0.2-0.4,0.3-0.7,0.3-0.8l1.4,0.2
		C367.7,155.6,367.5,156.1,367.2,156.6z M366.1,152.4c-0.3-1-1.1-1.7-2.2-1.7c-1.4,0-2.2,1.2-2.3,2.5h4.6
		C366.2,152.8,366.2,152.6,366.1,152.4z"/>
	<path class="st10" d="M375.3,156.9c-0.4,0.6-1.3,1.3-3,1.3c-0.2,0-1.5,0-2.4-0.6c-0.1-0.1-0.3-0.2-0.6-0.5
		c-0.6-0.7-0.7-1.4-0.7-1.7l1.5-0.2c0,0.5,0.1,1,0.4,1.4c0.5,0.5,1.1,0.6,1.8,0.6c0.2,0,1,0,1.5-0.5c0.4-0.3,0.4-0.7,0.4-0.9
		c0-0.1,0-0.4-0.2-0.6c-0.3-0.5-1.1-0.6-1.5-0.7l-0.8-0.2c-1-0.2-1.5-0.4-1.9-0.6c-0.6-0.4-1-0.9-1-1.7c0-0.2,0-0.8,0.4-1.3
		c0.8-1.1,2.4-1.1,2.7-1.1c1.7,0,2.6,0.8,3,1.4c0.3,0.5,0.4,1,0.4,1.2l-1.5,0.2c0-0.4,0-0.6-0.1-0.7c-0.2-0.4-0.9-1-2-1
		c-1.1,0-1.6,0.7-1.6,1.2c0,0.1,0,0.2,0.1,0.4c0.3,0.4,0.9,0.6,1.8,0.8l0.8,0.2c0.2,0.1,0.5,0.1,0.7,0.2c1.1,0.3,1.9,0.9,1.9,2.1
		C375.6,155.8,375.6,156.4,375.3,156.9z"/>
</g>
<g class="st3">
	<path class="st10" d="M270.2,170.8c-0.4,0.1-0.9,0.2-1.8,0.2H265v5.1h-1.5v-12h5.2c0.9,0,1.7,0,2.5,0.5c1.3,0.8,1.4,2.4,1.4,2.9
		C272.5,169,271.8,170.4,270.2,170.8z M270.9,166.6c-0.2-0.6-0.7-0.9-1.2-1.1c-0.4-0.1-0.6-0.1-1-0.1H265v4.1h3.3
		c0.4,0,0.9,0,1.3-0.1c1-0.3,1.4-1.1,1.4-2.1C271,167.3,271,167,270.9,166.6z"/>
	<path class="st10" d="M280.1,174.7c-0.4,0.6-1.3,1.6-3.1,1.6c-0.8,0-1.4-0.2-1.7-0.3c-1-0.4-2.2-1.5-2.2-4c0-1.5,0.5-2.3,0.9-2.8
		c0.7-0.9,1.8-1.4,3-1.4c0.4,0,0.9,0.1,1.3,0.2c0.5,0.2,1.5,0.6,2,1.9c0.2,0.5,0.4,1.2,0.4,2.4h-6.1c0,1.4,0.7,2.2,1.2,2.6
		c0.4,0.3,0.9,0.4,1.4,0.4c0.7,0,1.1-0.3,1.3-0.5c0.1-0.1,0.3-0.3,0.4-0.5c0.2-0.4,0.3-0.7,0.3-0.8l1.4,0.2
		C280.5,173.8,280.4,174.3,280.1,174.7z M279,170.5c-0.3-1-1.1-1.7-2.2-1.7c-1.4,0-2.2,1.2-2.3,2.5h4.6
		C279.1,170.9,279,170.7,279,170.5z"/>
	<path class="st10" d="M285.1,169.4c-0.8,0.1-1.4,0.7-1.6,1.5c-0.1,0.4-0.1,0.7-0.1,1.5v3.7H282v-8h1.4v1.5c0.2-0.4,0.4-0.7,0.7-0.9
		c0.3-0.3,1-0.6,2-0.6v1.5C285.6,169.3,285.3,169.4,285.1,169.4z"/>
	<path class="st10" d="M293.1,175c-0.4,0.6-1.3,1.3-3,1.3c-0.2,0-1.5,0-2.4-0.6c-0.1-0.1-0.3-0.2-0.6-0.5c-0.6-0.7-0.7-1.4-0.7-1.7
		l1.5-0.2c0,0.5,0.1,1,0.4,1.4c0.5,0.5,1.1,0.6,1.8,0.6c0.2,0,1,0,1.5-0.5c0.4-0.3,0.4-0.7,0.4-0.9c0-0.1,0-0.4-0.2-0.6
		c-0.3-0.5-1.1-0.6-1.5-0.7l-0.8-0.2c-1-0.2-1.5-0.4-1.9-0.6c-0.6-0.4-1-0.9-1-1.7c0-0.2,0-0.8,0.4-1.3c0.8-1.1,2.4-1.1,2.7-1.1
		c1.7,0,2.6,0.8,3,1.4c0.3,0.5,0.4,1,0.4,1.2l-1.5,0.2c0-0.4,0-0.6-0.1-0.7c-0.2-0.4-0.9-1-2-1c-1.1,0-1.6,0.7-1.6,1.2
		c0,0.1,0,0.2,0.1,0.4c0.3,0.4,0.9,0.6,1.8,0.8l0.8,0.2c0.2,0.1,0.5,0.1,0.7,0.2c1.1,0.3,1.9,0.9,1.9,2.1
		C293.5,174,293.4,174.5,293.1,175z"/>
	<path class="st10" d="M301.2,175c-0.4,0.5-1.3,1.3-3,1.3c-0.5,0-1.8-0.1-2.8-1.1c-0.5-0.5-1.2-1.5-1.2-3.2c0-1,0.3-2.1,0.9-2.9
		c0.8-1,1.8-1.4,3.1-1.4c0.5,0,1.1,0.1,1.6,0.3c0.9,0.4,2.3,1.5,2.3,4C302.2,172.5,302.1,173.9,301.2,175z M300.3,170
		c-0.1-0.2-0.3-0.5-0.5-0.6c-0.6-0.5-1.2-0.5-1.5-0.5c-2.6,0-2.5,2.8-2.5,3.3c0,0.4,0.1,0.7,0.1,0.8c0.1,0.6,0.5,2.3,2.4,2.3
		c0.4,0,1.3-0.1,1.9-1c0.5-0.8,0.5-2,0.5-2.2C300.7,171.8,300.7,170.8,300.3,170z"/>
	<path class="st10" d="M308.9,176V171c0-0.2,0.1-1-0.6-1.5c-0.2-0.2-0.6-0.4-1.2-0.4c-0.6,0-1.1,0.2-1.5,0.6
		c-0.1,0.1-0.3,0.4-0.5,0.7c-0.2,0.4-0.2,0.7-0.2,1.1v4.5h-1.4v-8h1.4v1.2c0.2-0.3,0.3-0.5,0.4-0.6c0.3-0.3,1-0.9,2.1-0.9
		c0.4,0,1.6,0.1,2.3,1.1c0.5,0.7,0.5,1.5,0.5,2.4v4.8H308.9z"/>
	<path class="st10" d="M318.4,176.2c-0.1,0-0.5,0-0.8-0.2c-0.1-0.1-0.2-0.3-0.3-0.3c-0.2-0.3-0.2-0.5-0.3-0.7
		c-0.4,0.4-1.2,1.3-2.7,1.3c-0.5,0-0.9-0.1-1.1-0.2c-1-0.3-1.6-1.1-1.6-2.1c0-0.4,0.1-1.1,0.9-1.7c0.8-0.6,2.2-0.8,3.2-0.9l1.2-0.1
		c0-0.2,0-0.4,0-0.7c0-0.6-0.1-1.8-1.8-1.8c-0.3,0-1.3,0-1.6,1c-0.1,0.3-0.1,0.4-0.1,0.7l-1.4-0.1c0-0.2,0-0.4,0.1-0.8
		c0.3-0.8,1-1.8,2.9-1.8c0.2,0,0.7,0,1.3,0.2c0.3,0.1,1.4,0.4,1.8,1.5c0.2,0.4,0.2,0.8,0.2,1.7v2.6c0,0.2,0,0.4,0,0.5
		c0,0.2,0,0.6,0.6,0.6c0.2,0,0.3,0,0.4-0.1v1.1C318.9,176.1,318.6,176.2,318.4,176.2z M316.9,172.3v-0.2c-0.6,0.1-2.2,0.3-2.9,0.6
		c-0.3,0.1-1,0.4-1,1.2c0,0.6,0.4,1.2,1.5,1.2c0.7,0,2.3-0.3,2.3-2.4C316.9,172.6,316.9,172.5,316.9,172.3z"/>
	<path class="st10" d="M320.3,176v-12h1.3v12H320.3z"/>
	<path class="st10" d="M330,174.7c-0.4,0.6-1.3,1.6-3.1,1.6c-0.8,0-1.4-0.2-1.7-0.3c-1-0.4-2.2-1.5-2.2-4c0-1.5,0.5-2.3,0.9-2.8
		c0.7-0.9,1.8-1.4,3-1.4c0.4,0,0.9,0.1,1.3,0.2c0.5,0.2,1.5,0.6,2,1.9c0.2,0.5,0.4,1.2,0.4,2.4h-6.1c0,1.4,0.7,2.2,1.2,2.6
		c0.4,0.3,0.9,0.4,1.4,0.4c0.7,0,1.1-0.3,1.3-0.5c0.1-0.1,0.3-0.3,0.4-0.5c0.2-0.4,0.3-0.7,0.3-0.8l1.4,0.2
		C330.5,173.8,330.3,174.3,330,174.7z M329,170.5c-0.3-1-1.1-1.7-2.2-1.7c-1.4,0-2.2,1.2-2.3,2.5h4.6C329,170.9,329,170.7,329,170.5
		z"/>
	<path class="st10" d="M338.1,175c-0.4,0.6-1.3,1.3-3,1.3c-0.2,0-1.5,0-2.4-0.6c-0.1-0.1-0.3-0.2-0.6-0.5c-0.6-0.7-0.7-1.4-0.7-1.7
		l1.5-0.2c0,0.5,0.1,1,0.4,1.4c0.5,0.5,1.1,0.6,1.8,0.6c0.2,0,1,0,1.5-0.5c0.4-0.3,0.4-0.7,0.4-0.9c0-0.1,0-0.4-0.2-0.6
		c-0.3-0.5-1.1-0.6-1.5-0.7l-0.8-0.2c-1-0.2-1.5-0.4-1.9-0.6c-0.6-0.4-1-0.9-1-1.7c0-0.2,0-0.8,0.4-1.3c0.8-1.1,2.4-1.1,2.7-1.1
		c1.7,0,2.6,0.8,3,1.4c0.3,0.5,0.4,1,0.4,1.2l-1.5,0.2c0-0.4,0-0.6-0.1-0.7c-0.2-0.4-0.9-1-2-1c-1.1,0-1.6,0.7-1.6,1.2
		c0,0.1,0,0.2,0.1,0.4c0.3,0.4,0.9,0.6,1.8,0.8l0.8,0.2c0.2,0.1,0.5,0.1,0.7,0.2c1.1,0.3,1.9,0.9,1.9,2.1
		C338.4,174,338.4,174.5,338.1,175z"/>
</g>
<g class="st3">
	<path class="st10" d="M250.8,218.5l-1.3-3.7H245l-1.3,3.7h-1.7l4.6-12h1.7l4.4,12H250.8z M247.3,208.5l-1.8,5h3.6L247.3,208.5z"/>
	<path class="st10" d="M259.6,217.5c-0.4,0.6-1.3,1.3-3,1.3c-0.2,0-1.5,0-2.4-0.6c-0.1-0.1-0.3-0.2-0.6-0.5
		c-0.6-0.7-0.7-1.4-0.7-1.7l1.5-0.2c0,0.5,0.1,1,0.4,1.4c0.5,0.5,1.1,0.6,1.8,0.6c0.2,0,1,0,1.5-0.5c0.4-0.3,0.4-0.7,0.4-0.9
		c0-0.1,0-0.4-0.2-0.6c-0.3-0.5-1.1-0.6-1.5-0.7l-0.8-0.2c-1-0.2-1.5-0.4-1.9-0.6c-0.6-0.4-1-0.9-1-1.7c0-0.2,0-0.8,0.4-1.3
		c0.8-1.1,2.4-1.1,2.7-1.1c1.7,0,2.6,0.8,3,1.4c0.3,0.5,0.4,1,0.4,1.2l-1.5,0.2c0-0.4,0-0.6-0.1-0.7c-0.2-0.4-0.9-1-2-1
		c-1.1,0-1.6,0.7-1.6,1.2c0,0.1,0,0.2,0.1,0.4c0.3,0.4,0.9,0.6,1.8,0.8l0.8,0.2c0.2,0.1,0.5,0.1,0.7,0.2c1.1,0.3,1.9,0.9,1.9,2.1
		C260,216.5,259.9,217,259.6,217.5z"/>
	<path class="st10" d="M261.3,208.1v-1.6h1.3v1.6H261.3z M261.3,218.5v-8h1.3v8H261.3z"/>
	<path class="st10" d="M270.6,217.5c-0.4,0.6-1.3,1.3-3,1.3c-0.2,0-1.5,0-2.4-0.6c-0.1-0.1-0.3-0.2-0.6-0.5
		c-0.6-0.7-0.7-1.4-0.7-1.7l1.5-0.2c0,0.5,0.1,1,0.4,1.4c0.5,0.5,1.1,0.6,1.8,0.6c0.2,0,1,0,1.5-0.5c0.4-0.3,0.4-0.7,0.4-0.9
		c0-0.1,0-0.4-0.2-0.6c-0.3-0.5-1.1-0.6-1.5-0.7l-0.8-0.2c-1-0.2-1.5-0.4-1.9-0.6c-0.6-0.4-1-0.9-1-1.7c0-0.2,0-0.8,0.4-1.3
		c0.8-1.1,2.4-1.1,2.7-1.1c1.7,0,2.6,0.8,3,1.4c0.3,0.5,0.4,1,0.4,1.2l-1.5,0.2c0-0.4,0-0.6-0.1-0.7c-0.2-0.4-0.9-1-2-1
		c-1.1,0-1.6,0.7-1.6,1.2c0,0.1,0,0.2,0.1,0.4c0.3,0.4,0.9,0.6,1.8,0.8l0.8,0.2c0.2,0.1,0.5,0.1,0.7,0.2c1.1,0.3,1.9,0.9,1.9,2.1
		C270.9,216.5,270.9,217,270.6,217.5z"/>
	<path class="st10" d="M274.3,218.7c-0.8,0-1.2-0.2-1.4-0.5s-0.2-0.6-0.2-1.3v-5.2h-1.3v-1.1h1.3V208h1.4v2.5h1.4v1.1h-1.4v4.6
		c0,0.6,0,0.9,0.1,1.1c0.1,0.2,0.3,0.2,0.5,0.2c0.2,0,0.5-0.1,0.8-0.2v1.1C275.4,218.5,274.8,218.7,274.3,218.7z"/>
	<path class="st10" d="M283.4,217.2c-0.4,0.6-1.3,1.6-3.1,1.6c-0.8,0-1.4-0.2-1.7-0.3c-1-0.4-2.2-1.5-2.2-4c0-1.5,0.5-2.3,0.9-2.8
		c0.7-0.9,1.8-1.4,3-1.4c0.4,0,0.9,0.1,1.3,0.2c0.5,0.2,1.5,0.6,2,1.9c0.2,0.5,0.4,1.2,0.4,2.4h-6.1c0,1.4,0.7,2.2,1.2,2.6
		c0.4,0.3,0.9,0.4,1.4,0.4c0.7,0,1.1-0.3,1.3-0.5c0.1-0.1,0.3-0.3,0.4-0.5c0.2-0.4,0.3-0.7,0.3-0.8l1.4,0.2
		C283.9,216.2,283.7,216.7,283.4,217.2z M282.4,213c-0.3-1-1.1-1.7-2.2-1.7c-1.4,0-2.2,1.2-2.3,2.5h4.6
		C282.5,213.4,282.4,213.2,282.4,213z"/>
	<path class="st10" d="M290.6,218.5v-5.1c0-0.2,0.1-1-0.6-1.5c-0.2-0.2-0.6-0.4-1.2-0.4c-0.6,0-1.1,0.2-1.5,0.6
		c-0.1,0.1-0.3,0.4-0.5,0.7c-0.2,0.4-0.2,0.7-0.2,1.1v4.5h-1.4v-8h1.4v1.2c0.2-0.3,0.3-0.5,0.4-0.6c0.3-0.3,1-0.9,2.1-0.9
		c0.4,0,1.6,0.1,2.3,1.1c0.5,0.7,0.5,1.5,0.5,2.4v4.8H290.6z"/>
	<path class="st10" d="M299.8,218.1c-0.9,0.7-2.1,0.7-2.4,0.7c-0.2,0-0.9,0-1.5-0.2c-1-0.3-2.5-1.4-2.5-4c0-2.6,1.4-3.7,2.4-4.1
		c0.6-0.2,1.2-0.2,1.5-0.2c2.1,0,3.1,1.2,3.5,2c0.1,0.3,0.2,0.4,0.2,0.7l-1.5,0.1c0-0.1-0.1-0.6-0.3-0.9c-0.6-0.9-1.5-0.9-1.8-0.9
		c-1.2,0-2.4,0.8-2.4,3.2c0,1.4,0.5,2.2,0.9,2.6c0.5,0.4,1,0.6,1.6,0.6c0.4,0,0.7-0.1,1-0.2c0.9-0.4,1.1-1.2,1.2-2l1.5,0.1
		C300.9,217,300.2,217.7,299.8,218.1z"/>
	<path class="st10" d="M302.4,208.1v-1.6h1.3v1.6H302.4z M302.4,218.5v-8h1.3v8H302.4z"/>
	<path class="st10" d="M311.8,218.6c-0.1,0-0.5,0-0.8-0.2c-0.1-0.1-0.2-0.3-0.3-0.3c-0.2-0.3-0.2-0.5-0.3-0.7
		c-0.4,0.4-1.2,1.3-2.7,1.3c-0.5,0-0.9-0.1-1.1-0.2c-1-0.3-1.6-1.1-1.6-2.1c0-0.4,0.1-1.1,0.9-1.7c0.8-0.6,2.2-0.8,3.2-0.9l1.2-0.1
		c0-0.2,0-0.4,0-0.7c0-0.6-0.1-1.8-1.8-1.8c-0.3,0-1.3,0-1.6,1c-0.1,0.3-0.1,0.4-0.1,0.7l-1.4-0.1c0-0.2,0-0.4,0.1-0.8
		c0.3-0.8,1-1.8,2.9-1.8c0.2,0,0.7,0,1.3,0.2c0.3,0.1,1.4,0.4,1.8,1.5c0.2,0.4,0.2,0.8,0.2,1.7v2.6c0,0.2,0,0.4,0,0.5
		c0,0.2,0,0.6,0.6,0.6c0.2,0,0.3,0,0.4-0.1v1.1C312.3,218.6,312.1,218.6,311.8,218.6z M310.3,214.8v-0.2c-0.6,0.1-2.2,0.3-2.9,0.6
		c-0.3,0.1-1,0.4-1,1.2c0,0.6,0.4,1.2,1.5,1.2c0.7,0,2.3-0.3,2.3-2.4C310.4,215.1,310.3,214.9,310.3,214.8z"/>
	<path class="st10" d="M319.8,217.5c-0.4,0.6-1.3,1.3-3,1.3c-0.2,0-1.5,0-2.4-0.6c-0.1-0.1-0.3-0.2-0.6-0.5
		c-0.6-0.7-0.7-1.4-0.7-1.7l1.5-0.2c0,0.5,0.1,1,0.4,1.4c0.5,0.5,1.1,0.6,1.8,0.6c0.2,0,1,0,1.5-0.5c0.4-0.3,0.4-0.7,0.4-0.9
		c0-0.1,0-0.4-0.2-0.6c-0.3-0.5-1.1-0.6-1.5-0.7l-0.8-0.2c-1-0.2-1.5-0.4-1.9-0.6c-0.6-0.4-1-0.9-1-1.7c0-0.2,0-0.8,0.4-1.3
		c0.8-1.1,2.4-1.1,2.7-1.1c1.7,0,2.6,0.8,3,1.4c0.3,0.5,0.4,1,0.4,1.2l-1.5,0.2c0-0.4,0-0.6-0.1-0.7c-0.2-0.4-0.9-1-2-1
		c-1.1,0-1.6,0.7-1.6,1.2c0,0.1,0,0.2,0.1,0.4c0.3,0.4,0.9,0.6,1.8,0.8l0.8,0.2c0.2,0.1,0.5,0.1,0.7,0.2c1.1,0.3,1.9,0.9,1.9,2.1
		C320.2,216.5,320.2,217,319.8,217.5z"/>
	<path class="st10" d="M332.8,213.3c-0.4,0.1-0.9,0.2-1.8,0.2h-3.5v5.1h-1.5v-12h5.2c0.9,0,1.7,0,2.5,0.5c1.3,0.8,1.4,2.4,1.4,2.9
		C335.1,211.4,334.3,212.9,332.8,213.3z M333.4,209.1c-0.2-0.6-0.7-0.9-1.2-1.1c-0.4-0.1-0.6-0.1-1-0.1h-3.7v4.1h3.3
		c0.4,0,0.9,0,1.3-0.1c1-0.3,1.4-1.1,1.4-2.1C333.5,209.8,333.5,209.4,333.4,209.1z"/>
	<path class="st10" d="M336.1,218.5v-12h1.3v12H336.1z"/>
	<path class="st10" d="M345.5,218.6c-0.1,0-0.5,0-0.8-0.2c-0.1-0.1-0.2-0.3-0.3-0.3c-0.2-0.3-0.2-0.5-0.3-0.7
		c-0.4,0.4-1.2,1.3-2.7,1.3c-0.5,0-0.9-0.1-1.1-0.2c-1-0.3-1.6-1.1-1.6-2.1c0-0.4,0.1-1.1,0.9-1.7c0.8-0.6,2.2-0.8,3.2-0.9l1.2-0.1
		c0-0.2,0-0.4,0-0.7c0-0.6-0.1-1.8-1.8-1.8c-0.3,0-1.3,0-1.6,1c-0.1,0.3-0.1,0.4-0.1,0.7l-1.4-0.1c0-0.2,0-0.4,0.1-0.8
		c0.3-0.8,1-1.8,2.9-1.8c0.2,0,0.7,0,1.3,0.2c0.3,0.1,1.4,0.4,1.8,1.5c0.2,0.4,0.2,0.8,0.2,1.7v2.6c0,0.2,0,0.4,0,0.5
		c0,0.2,0,0.6,0.6,0.6c0.2,0,0.3,0,0.4-0.1v1.1C346,218.6,345.7,218.6,345.5,218.6z M344,214.8v-0.2c-0.6,0.1-2.2,0.3-2.9,0.6
		c-0.3,0.1-1,0.4-1,1.2c0,0.6,0.4,1.2,1.5,1.2c0.7,0,2.3-0.3,2.3-2.4C344,215.1,344,214.9,344,214.8z"/>
	<path class="st10" d="M349.4,218.7c-0.8,0-1.2-0.2-1.4-0.5c-0.2-0.3-0.2-0.6-0.2-1.3v-5.2h-1.3v-1.1h1.3V208h1.4v2.5h1.4v1.1h-1.4
		v4.6c0,0.6,0,0.9,0.1,1.1c0.1,0.2,0.3,0.2,0.5,0.2c0.2,0,0.5-0.1,0.8-0.2v1.1C350.6,218.5,349.9,218.7,349.4,218.7z"/>
	<path class="st10" d="M358.3,218.6c-0.1,0-0.5,0-0.8-0.2c-0.1-0.1-0.2-0.3-0.3-0.3c-0.2-0.3-0.2-0.5-0.3-0.7
		c-0.4,0.4-1.2,1.3-2.7,1.3c-0.5,0-0.9-0.1-1.1-0.2c-1-0.3-1.6-1.1-1.6-2.1c0-0.4,0.1-1.1,0.9-1.7c0.8-0.6,2.2-0.8,3.2-0.9l1.2-0.1
		c0-0.2,0-0.4,0-0.7c0-0.6-0.1-1.8-1.8-1.8c-0.3,0-1.3,0-1.6,1c-0.1,0.3-0.1,0.4-0.1,0.7l-1.4-0.1c0-0.2,0-0.4,0.1-0.8
		c0.3-0.8,1-1.8,2.9-1.8c0.2,0,0.7,0,1.3,0.2c0.3,0.1,1.4,0.4,1.8,1.5c0.2,0.4,0.2,0.8,0.2,1.7v2.6c0,0.2,0,0.4,0,0.5
		c0,0.2,0,0.6,0.6,0.6c0.2,0,0.3,0,0.4-0.1v1.1C358.7,218.6,358.5,218.6,358.3,218.6z M356.7,214.8v-0.2c-0.6,0.1-2.2,0.3-2.9,0.6
		c-0.3,0.1-1,0.4-1,1.2c0,0.6,0.4,1.2,1.5,1.2c0.7,0,2.3-0.3,2.3-2.4C356.8,215.1,356.7,214.9,356.7,214.8z"/>
</g>
<g class="st3">
	<path class="st10" d="M439,218.5l-1.3-3.7h-4.6l-1.3,3.7h-1.7l4.6-12h1.7l4.4,12H439z M435.5,208.5l-1.8,5h3.6L435.5,208.5z"/>
	<path class="st10" d="M447.8,217.5c-0.4,0.6-1.3,1.3-3,1.3c-0.2,0-1.5,0-2.4-0.6c-0.1-0.1-0.3-0.2-0.6-0.5
		c-0.6-0.7-0.7-1.4-0.7-1.7l1.5-0.2c0,0.5,0.1,1,0.4,1.4c0.5,0.5,1.1,0.6,1.8,0.6c0.2,0,1,0,1.5-0.5c0.4-0.3,0.4-0.7,0.4-0.9
		c0-0.1,0-0.4-0.2-0.6c-0.3-0.5-1.1-0.6-1.5-0.7l-0.8-0.2c-1-0.2-1.5-0.4-1.9-0.6c-0.6-0.4-1-0.9-1-1.7c0-0.2,0-0.8,0.4-1.3
		c0.8-1.1,2.4-1.1,2.7-1.1c1.7,0,2.6,0.8,3,1.4c0.3,0.5,0.4,1,0.4,1.2l-1.5,0.2c0-0.4,0-0.6-0.1-0.7c-0.2-0.4-0.9-1-2-1
		c-1.1,0-1.6,0.7-1.6,1.2c0,0.1,0,0.2,0.1,0.4c0.3,0.4,0.9,0.6,1.8,0.8l0.8,0.2c0.2,0.1,0.5,0.1,0.7,0.2c1.1,0.3,1.9,0.9,1.9,2.1
		C448.1,216.5,448.1,217,447.8,217.5z"/>
	<path class="st10" d="M449.5,208.1v-1.6h1.3v1.6H449.5z M449.5,218.5v-8h1.3v8H449.5z"/>
	<path class="st10" d="M458.8,217.5c-0.4,0.6-1.3,1.3-3,1.3c-0.2,0-1.5,0-2.4-0.6c-0.1-0.1-0.3-0.2-0.6-0.5
		c-0.6-0.7-0.7-1.4-0.7-1.7l1.5-0.2c0,0.5,0.1,1,0.4,1.4c0.5,0.5,1.1,0.6,1.8,0.6c0.2,0,1,0,1.5-0.5c0.4-0.3,0.4-0.7,0.4-0.9
		c0-0.1,0-0.4-0.2-0.6c-0.3-0.5-1.1-0.6-1.5-0.7l-0.8-0.2c-1-0.2-1.5-0.4-1.9-0.6c-0.6-0.4-1-0.9-1-1.7c0-0.2,0-0.8,0.4-1.3
		c0.8-1.1,2.4-1.1,2.7-1.1c1.7,0,2.6,0.8,3,1.4c0.3,0.5,0.4,1,0.4,1.2l-1.5,0.2c0-0.4,0-0.6-0.1-0.7c-0.2-0.4-0.9-1-2-1
		c-1.1,0-1.6,0.7-1.6,1.2c0,0.1,0,0.2,0.1,0.4c0.3,0.4,0.9,0.6,1.8,0.8l0.8,0.2c0.2,0.1,0.5,0.1,0.7,0.2c1.1,0.3,1.9,0.9,1.9,2.1
		C459.1,216.5,459.1,217,458.8,217.5z"/>
	<path class="st10" d="M462.4,218.7c-0.8,0-1.2-0.2-1.4-0.5c-0.2-0.3-0.2-0.6-0.2-1.3v-5.2h-1.3v-1.1h1.3V208h1.4v2.5h1.4v1.1h-1.4
		v4.6c0,0.6,0,0.9,0.1,1.1c0.1,0.2,0.3,0.2,0.5,0.2c0.2,0,0.5-0.1,0.8-0.2v1.1C463.6,218.5,463,218.7,462.4,218.7z"/>
	<path class="st10" d="M471.6,217.2c-0.4,0.6-1.3,1.6-3.1,1.6c-0.8,0-1.4-0.2-1.7-0.3c-1-0.4-2.2-1.5-2.2-4c0-1.5,0.5-2.3,0.9-2.8
		c0.7-0.9,1.8-1.4,3-1.4c0.4,0,0.9,0.1,1.3,0.2c0.5,0.2,1.5,0.6,2,1.9c0.2,0.5,0.4,1.2,0.4,2.4h-6.1c0,1.4,0.7,2.2,1.2,2.6
		c0.4,0.3,0.9,0.4,1.4,0.4c0.7,0,1.1-0.3,1.3-0.5c0.1-0.1,0.3-0.3,0.4-0.5c0.2-0.4,0.3-0.7,0.3-0.8l1.4,0.2
		C472.1,216.2,471.9,216.7,471.6,217.2z M470.5,213c-0.3-1-1.1-1.7-2.2-1.7c-1.4,0-2.2,1.2-2.3,2.5h4.6
		C470.6,213.4,470.6,213.2,470.5,213z"/>
	<path class="st10" d="M478.8,218.5v-5.1c0-0.2,0.1-1-0.6-1.5c-0.2-0.2-0.6-0.4-1.2-0.4c-0.6,0-1.1,0.2-1.5,0.6
		c-0.1,0.1-0.3,0.4-0.5,0.7c-0.2,0.4-0.2,0.7-0.2,1.1v4.5h-1.4v-8h1.4v1.2c0.2-0.3,0.3-0.5,0.4-0.6c0.3-0.3,1-0.9,2.1-0.9
		c0.4,0,1.6,0.1,2.3,1.1c0.5,0.7,0.5,1.5,0.5,2.4v4.8H478.8z"/>
	<path class="st10" d="M488,218.1c-0.9,0.7-2.1,0.7-2.4,0.7c-0.2,0-0.9,0-1.5-0.2c-1-0.3-2.5-1.4-2.5-4c0-2.6,1.4-3.7,2.4-4.1
		c0.6-0.2,1.2-0.2,1.5-0.2c2.1,0,3.1,1.2,3.5,2c0.1,0.3,0.2,0.4,0.2,0.7l-1.5,0.1c0-0.1-0.1-0.6-0.3-0.9c-0.6-0.9-1.5-0.9-1.8-0.9
		c-1.2,0-2.4,0.8-2.4,3.2c0,1.4,0.5,2.2,0.9,2.6c0.5,0.4,1,0.6,1.6,0.6c0.4,0,0.7-0.1,1-0.2c0.9-0.4,1.1-1.2,1.2-2l1.5,0.1
		C489.1,217,488.4,217.7,488,218.1z"/>
	<path class="st10" d="M490.6,208.1v-1.6h1.3v1.6H490.6z M490.6,218.5v-8h1.3v8H490.6z"/>
	<path class="st10" d="M500,218.6c-0.1,0-0.5,0-0.8-0.2c-0.1-0.1-0.2-0.3-0.3-0.3c-0.2-0.3-0.2-0.5-0.3-0.7
		c-0.4,0.4-1.2,1.3-2.7,1.3c-0.5,0-0.9-0.1-1.1-0.2c-1-0.3-1.6-1.1-1.6-2.1c0-0.4,0.1-1.1,0.9-1.7c0.8-0.6,2.2-0.8,3.2-0.9l1.2-0.1
		c0-0.2,0-0.4,0-0.7c0-0.6-0.1-1.8-1.8-1.8c-0.3,0-1.3,0-1.6,1c-0.1,0.3-0.1,0.4-0.1,0.7l-1.4-0.1c0-0.2,0-0.4,0.1-0.8
		c0.3-0.8,1-1.8,2.9-1.8c0.2,0,0.7,0,1.3,0.2c0.3,0.1,1.4,0.4,1.8,1.5c0.2,0.4,0.2,0.8,0.2,1.7v2.6c0,0.2,0,0.4,0,0.5
		c0,0.2,0,0.6,0.6,0.6c0.2,0,0.3,0,0.4-0.1v1.1C500.5,218.6,500.2,218.6,500,218.6z M498.5,214.8v-0.2c-0.6,0.1-2.2,0.3-2.9,0.6
		c-0.3,0.1-1,0.4-1,1.2c0,0.6,0.4,1.2,1.5,1.2c0.7,0,2.3-0.3,2.3-2.4C498.5,215.1,498.5,214.9,498.5,214.8z"/>
	<path class="st10" d="M508,217.5c-0.4,0.6-1.3,1.3-3,1.3c-0.2,0-1.5,0-2.4-0.6c-0.1-0.1-0.3-0.2-0.6-0.5c-0.6-0.7-0.7-1.4-0.7-1.7
		l1.5-0.2c0,0.5,0.1,1,0.4,1.4c0.5,0.5,1.1,0.6,1.8,0.6c0.2,0,1,0,1.5-0.5c0.4-0.3,0.4-0.7,0.4-0.9c0-0.1,0-0.4-0.2-0.6
		c-0.3-0.5-1.1-0.6-1.5-0.7l-0.8-0.2c-1-0.2-1.5-0.4-1.9-0.6c-0.6-0.4-1-0.9-1-1.7c0-0.2,0-0.8,0.4-1.3c0.8-1.1,2.4-1.1,2.7-1.1
		c1.7,0,2.6,0.8,3,1.4c0.3,0.5,0.4,1,0.4,1.2l-1.5,0.2c0-0.4,0-0.6-0.1-0.7c-0.2-0.4-0.9-1-2-1c-1.1,0-1.6,0.7-1.6,1.2
		c0,0.1,0,0.2,0.1,0.4c0.3,0.4,0.9,0.6,1.8,0.8l0.8,0.2c0.2,0.1,0.5,0.1,0.7,0.2c1.1,0.3,1.9,0.9,1.9,2.1
		C508.4,216.5,508.3,217,508,217.5z"/>
	<path class="st10" d="M524.5,216.6c-0.7,0.9-2.1,2.2-4.8,2.2c-0.7,0-2.6-0.1-4.1-1.5c-0.8-0.7-1.9-2.2-1.9-4.8c0-0.7,0-2.7,1.5-4.4
		c1.1-1.3,2.9-1.9,4.5-1.9c0.8,0,1.6,0.1,2.4,0.4c2.5,1,3.6,3.2,3.6,5.8C525.8,213.1,525.7,215,524.5,216.6z M523.1,209.1
		c-1.1-1.5-2.7-1.6-3.4-1.6c-2,0-2.9,1-3.4,1.6c-0.7,1-0.9,2.3-0.9,3.4c0,1.6,0.5,2.6,0.8,3.2c0.3,0.4,0.6,0.8,0.8,0.9
		c0.5,0.4,0.9,0.6,1.2,0.7c0.3,0.1,0.8,0.3,1.6,0.3c0.3,0,1.1,0,1.8-0.4c1.2-0.5,2.5-1.9,2.4-4.8C524,212,524,210.4,523.1,209.1z"/>
	<path class="st10" d="M530.5,211.9c-0.8,0.1-1.4,0.7-1.6,1.5c-0.1,0.4-0.1,0.7-0.1,1.5v3.7h-1.4v-8h1.4v1.5
		c0.2-0.4,0.4-0.7,0.7-0.9c0.3-0.3,1-0.6,2-0.6v1.5C531,211.8,530.7,211.8,530.5,211.9z"/>
	<path class="st10" d="M538.8,217.4c-0.4,0.5-1.3,1.3-3,1.3c-0.5,0-1.8-0.1-2.8-1.1c-0.5-0.5-1.2-1.5-1.2-3.2c0-1,0.3-2.1,0.9-2.9
		c0.8-1,1.8-1.4,3.1-1.4c0.5,0,1.1,0.1,1.6,0.3c0.9,0.4,2.3,1.5,2.3,4C539.8,215,539.7,216.3,538.8,217.4z M537.9,212.5
		c-0.1-0.2-0.3-0.5-0.5-0.6c-0.6-0.5-1.2-0.5-1.5-0.5c-2.6,0-2.5,2.8-2.5,3.3c0,0.4,0.1,0.7,0.1,0.8c0.1,0.6,0.5,2.3,2.4,2.3
		c0.4,0,1.3-0.1,1.9-1c0.5-0.8,0.5-2,0.5-2.2C538.3,214.3,538.3,213.3,537.9,212.5z"/>
</g>
<g class="st3">
	<path class="st10" d="M419.7,156.9c-0.7,0.6-1.7,1.3-3.8,1.3c-0.4,0-2,0-3.3-0.8c-0.4-0.2-0.7-0.6-1-0.9c-0.7-0.9-0.8-2-0.8-2.4
		l1.7-0.2c0,0.4,0.1,1.4,0.8,2.2c0.4,0.4,1.2,1,2.6,1c0.2,0,0.6,0,1.1-0.1c0.5-0.1,1.9-0.6,1.9-2.3c0-0.8-0.3-1.1-0.6-1.4
		c-0.5-0.4-1.1-0.5-1.7-0.6l-1-0.2c-0.9-0.2-1.8-0.4-2.6-0.8c-1.4-0.8-1.6-1.9-1.6-2.6c0-1,0.4-1.7,1.1-2.3c1.2-1,2.7-1,3.2-1
		c1.2,0,2.3,0.2,3.2,0.9c0.6,0.4,0.8,0.8,1,1.1c0.3,0.5,0.5,1.1,0.6,1.7l-1.6,0.1c0-0.2-0.1-0.5-0.1-0.7c-0.2-0.8-1-1.8-3-1.8
		c-0.8,0-1.8,0.2-2.3,0.8c-0.3,0.3-0.4,0.7-0.4,1.1c0,0.2,0,0.5,0.3,0.9c0.5,0.6,1.4,0.8,2.1,1l1.3,0.3c0.3,0.1,0.6,0.2,0.9,0.2
		c0.4,0.1,1.8,0.4,2.6,1.6c0.2,0.3,0.4,0.8,0.4,1.7C420.7,155,420.7,156,419.7,156.9z"/>
	<path class="st10" d="M428.9,156.6c-0.4,0.6-1.3,1.6-3.1,1.6c-0.8,0-1.4-0.2-1.7-0.3c-1-0.4-2.2-1.5-2.2-4c0-1.5,0.5-2.3,0.9-2.8
		c0.7-0.9,1.8-1.4,3-1.4c0.4,0,0.9,0.1,1.3,0.2c0.5,0.2,1.5,0.6,2,1.9c0.2,0.5,0.4,1.2,0.4,2.4h-6.1c0,1.4,0.7,2.2,1.2,2.6
		c0.4,0.3,0.9,0.4,1.4,0.4c0.7,0,1.1-0.3,1.3-0.5c0.1-0.1,0.3-0.3,0.4-0.5c0.2-0.4,0.3-0.7,0.3-0.8l1.4,0.2
		C429.4,155.6,429.2,156.1,428.9,156.6z M427.8,152.4c-0.3-1-1.1-1.7-2.2-1.7c-1.4,0-2.2,1.2-2.3,2.5h4.6
		C427.9,152.8,427.9,152.6,427.8,152.4z"/>
	<path class="st10" d="M438,159.6c-0.4,1.5-1.6,1.9-2.1,2.1c-0.3,0.1-0.7,0.2-1.4,0.2c-0.2,0-0.7,0-1.3-0.2
		c-1.9-0.5-2.2-2.1-2.3-2.8h1.5c0,0.2,0,0.7,0.3,1.1c0.6,0.8,1.6,0.8,1.9,0.8c0.2,0,1.4,0,1.9-0.8c0.3-0.5,0.4-1.1,0.3-2.2l0-0.9
		c-0.9,1.3-2,1.4-2.6,1.4c-0.8,0-1.4-0.3-1.7-0.4c-0.9-0.5-2-1.5-2-3.8c0-0.4,0-1.8,0.8-2.9c0.7-0.9,1.5-1.4,2.9-1.4
		c0.2,0,0.6,0,1.1,0.2c0.4,0.1,0.9,0.4,1.5,1.1v-1.1h1.4v7.6C438.2,158.6,438.1,159,438,159.6z M436.6,152.6
		c-0.4-1.1-1.3-1.7-2.4-1.7c-0.4,0-0.7,0.1-1,0.2c-0.6,0.3-1.4,1.2-1.4,2.8c0,0.9,0.2,1.9,1,2.5c0.4,0.3,1,0.5,1.5,0.5
		c0.8,0,1.3-0.3,1.5-0.5c0.5-0.4,0.9-1.2,0.9-2.6C436.8,153.7,436.8,153.1,436.6,152.6z"/>
	<path class="st10" d="M445.3,157.9l0-1.2c-0.1,0.1-0.2,0.2-0.3,0.4c-0.6,0.6-1.5,1-2.4,1c-0.3,0-1.5-0.1-2.1-1.1
		c-0.5-0.8-0.4-1.6-0.4-2.5v-4.7h1.3v4.5c0,0.8,0,1.2,0.2,1.6c0.2,0.3,0.6,0.8,1.5,0.8c0.3,0,1.3-0.1,1.9-0.9c0.4-0.6,0.4-1.3,0.4-2
		v-4h1.3v8H445.3z"/>
	<path class="st10" d="M451.6,151.3c-0.8,0.1-1.4,0.7-1.6,1.5c-0.1,0.4-0.1,0.7-0.1,1.5v3.7h-1.4v-8h1.4v1.5
		c0.2-0.4,0.4-0.7,0.7-0.9c0.3-0.3,0.9-0.6,2-0.6v1.5C452.1,151.2,451.9,151.2,451.6,151.3z"/>
	<path class="st10" d="M460,156.8c-0.4,0.5-1.3,1.3-3,1.3c-0.5,0-1.8-0.1-2.8-1.1c-0.5-0.5-1.2-1.5-1.2-3.2c0-1,0.3-2.1,0.9-2.9
		c0.8-1,1.8-1.4,3.1-1.4c0.5,0,1.1,0.1,1.6,0.3c0.9,0.4,2.3,1.5,2.3,4C460.9,154.4,460.9,155.7,460,156.8z M459.1,151.9
		c-0.1-0.2-0.3-0.5-0.5-0.6c-0.6-0.5-1.2-0.5-1.5-0.5c-2.6,0-2.5,2.8-2.5,3.3c0,0.4,0.1,0.7,0.1,0.8c0.1,0.6,0.5,2.3,2.4,2.3
		c0.4,0,1.3-0.1,1.9-1c0.5-0.8,0.5-2,0.5-2.2C459.5,153.7,459.5,152.7,459.1,151.9z"/>
	<path class="st10" d="M472.6,157.9v-1c-0.4,0.5-1.2,1.3-2.7,1.3c-1.5,0-2.3-0.7-2.7-1.2c-0.5-0.5-1-1.5-1-3.1c0-1,0.2-2,0.8-2.8
		c0.4-0.5,1.2-1.4,2.9-1.4c1.1,0,1.9,0.5,2.3,0.8c0.2,0.2,0.3,0.3,0.5,0.5v-5h1.4v12H472.6z M472.5,152.9c-0.3-1.2-1.2-2-2.4-2
		c-0.4,0-1.2,0.1-1.8,0.8c-0.5,0.6-0.7,1.4-0.7,2.2c0,0.3,0,1.3,0.6,2.2c0.6,0.8,1.5,0.9,1.9,0.9c0.5,0,0.9-0.1,1.3-0.3
		c0.6-0.4,1.2-1.2,1.2-2.7C472.6,153.8,472.6,153.3,472.5,152.9z"/>
	<path class="st10" d="M482.4,156.6c-0.4,0.6-1.3,1.6-3.1,1.6c-0.8,0-1.4-0.2-1.7-0.3c-1-0.4-2.2-1.5-2.2-4c0-1.5,0.5-2.3,0.9-2.8
		c0.7-0.9,1.8-1.4,3-1.4c0.4,0,0.9,0.1,1.3,0.2c0.5,0.2,1.5,0.6,2,1.9c0.2,0.5,0.4,1.2,0.4,2.4h-6.1c0,1.4,0.7,2.2,1.2,2.6
		c0.4,0.3,0.9,0.4,1.4,0.4c0.7,0,1.1-0.3,1.3-0.5c0.1-0.1,0.3-0.3,0.4-0.5c0.2-0.4,0.3-0.7,0.3-0.8l1.4,0.2
		C482.8,155.6,482.7,156.1,482.4,156.6z M481.3,152.4c-0.3-1-1.1-1.7-2.2-1.7c-1.4,0-2.2,1.2-2.3,2.5h4.6
		C481.4,152.8,481.4,152.6,481.3,152.4z"/>
	<path class="st10" d="M496.6,157.9l-1.3-3.7h-4.6l-1.3,3.7h-1.7l4.6-12h1.7l4.4,12H496.6z M493,147.9l-1.8,5h3.6L493,147.9z"/>
	<path class="st10" d="M505.1,157.5c-0.9,0.7-2.1,0.7-2.4,0.7c-0.2,0-0.9,0-1.5-0.2c-1-0.3-2.5-1.4-2.5-4c0-2.6,1.4-3.7,2.4-4.1
		c0.6-0.2,1.2-0.2,1.5-0.2c2.1,0,3.1,1.2,3.5,2c0.1,0.3,0.2,0.4,0.2,0.7l-1.5,0.1c0-0.1-0.1-0.6-0.3-0.9c-0.6-0.9-1.5-0.9-1.8-0.9
		c-1.2,0-2.4,0.8-2.4,3.2c0,1.4,0.5,2.2,0.9,2.6c0.5,0.4,1,0.6,1.6,0.6c0.4,0,0.7-0.1,1-0.2c0.9-0.4,1.1-1.2,1.2-2l1.5,0.1
		C506.3,156.4,505.6,157.1,505.1,157.5z"/>
	<path class="st10" d="M513.6,157.5c-0.9,0.7-2.1,0.7-2.4,0.7c-0.2,0-0.9,0-1.5-0.2c-1-0.3-2.5-1.4-2.5-4c0-2.6,1.4-3.7,2.4-4.1
		c0.6-0.2,1.2-0.2,1.5-0.2c2.1,0,3.1,1.2,3.5,2c0.1,0.3,0.2,0.4,0.2,0.7l-1.5,0.1c0-0.1-0.1-0.6-0.3-0.9c-0.6-0.9-1.5-0.9-1.8-0.9
		c-1.2,0-2.4,0.8-2.4,3.2c0,1.4,0.5,2.2,0.9,2.6c0.5,0.4,1,0.6,1.6,0.6c0.4,0,0.7-0.1,1-0.2c0.9-0.4,1.1-1.2,1.2-2l1.5,0.1
		C514.8,156.4,514.1,157.1,513.6,157.5z"/>
	<path class="st10" d="M516.3,147.5v-1.6h1.3v1.6H516.3z M516.3,157.9v-8h1.3v8H516.3z"/>
	<path class="st10" d="M525.4,157.9v-1c-0.4,0.5-1.2,1.3-2.7,1.3c-1.5,0-2.3-0.7-2.7-1.2c-0.5-0.5-1-1.5-1-3.1c0-1,0.2-2,0.8-2.8
		c0.4-0.5,1.2-1.4,2.8-1.4c1.1,0,1.9,0.5,2.3,0.8c0.2,0.2,0.3,0.3,0.5,0.5v-5h1.4v12H525.4z M525.3,152.9c-0.3-1.2-1.2-2-2.4-2
		c-0.4,0-1.2,0.1-1.8,0.8c-0.5,0.6-0.7,1.4-0.7,2.2c0,0.3,0,1.3,0.6,2.2c0.6,0.8,1.5,0.9,1.9,0.9c0.5,0,0.9-0.1,1.3-0.3
		c0.6-0.4,1.2-1.2,1.2-2.7C525.4,153.8,525.4,153.3,525.3,152.9z"/>
	<path class="st10" d="M535.2,156.6c-0.4,0.6-1.3,1.6-3.1,1.6c-0.8,0-1.4-0.2-1.7-0.3c-1-0.4-2.2-1.5-2.2-4c0-1.5,0.5-2.3,0.9-2.8
		c0.7-0.9,1.8-1.4,3-1.4c0.4,0,0.9,0.1,1.3,0.2c0.5,0.2,1.5,0.6,2,1.9c0.2,0.5,0.4,1.2,0.4,2.4h-6.1c0,1.4,0.7,2.2,1.2,2.6
		c0.4,0.3,0.9,0.4,1.4,0.4c0.7,0,1.1-0.3,1.3-0.5c0.1-0.1,0.3-0.3,0.4-0.5c0.2-0.4,0.3-0.7,0.3-0.8l1.4,0.2
		C535.6,155.6,535.5,156.1,535.2,156.6z M534.1,152.4c-0.3-1-1.1-1.7-2.2-1.7c-1.4,0-2.2,1.2-2.3,2.5h4.6
		C534.2,152.8,534.1,152.6,534.1,152.4z"/>
	<path class="st10" d="M542.4,157.9v-5.1c0-0.2,0.1-1-0.6-1.5c-0.2-0.2-0.6-0.4-1.2-0.4c-0.6,0-1.1,0.2-1.5,0.6
		c-0.1,0.1-0.3,0.4-0.5,0.7c-0.2,0.4-0.2,0.7-0.2,1.1v4.5h-1.4v-8h1.4v1.2c0.2-0.3,0.3-0.5,0.4-0.6c0.3-0.3,1-0.9,2.1-0.9
		c0.4,0,1.6,0.1,2.3,1.1c0.5,0.7,0.5,1.5,0.5,2.4v4.8H542.4z"/>
	<path class="st10" d="M547.6,158.1c-0.8,0-1.2-0.2-1.4-0.5c-0.2-0.3-0.2-0.6-0.2-1.3V151h-1.3v-1.1h1.3v-2.5h1.4v2.5h1.4v1.1h-1.4
		v4.6c0,0.6,0,0.9,0.1,1.1c0.1,0.2,0.3,0.2,0.5,0.2c0.2,0,0.5-0.1,0.8-0.2v1.1C548.8,157.9,548.1,158.1,547.6,158.1z"/>
	<path class="st10" d="M556.8,156.6c-0.4,0.6-1.3,1.6-3.1,1.6c-0.8,0-1.4-0.2-1.7-0.3c-1-0.4-2.2-1.5-2.2-4c0-1.5,0.5-2.3,0.9-2.8
		c0.7-0.9,1.8-1.4,3-1.4c0.4,0,0.9,0.1,1.3,0.2c0.5,0.2,1.5,0.6,2,1.9c0.2,0.5,0.4,1.2,0.4,2.4h-6.1c0,1.4,0.7,2.2,1.2,2.6
		c0.4,0.3,0.9,0.4,1.4,0.4c0.7,0,1.1-0.3,1.3-0.5c0.1-0.1,0.3-0.3,0.4-0.5c0.2-0.4,0.3-0.7,0.3-0.8l1.4,0.2
		C557.2,155.6,557.1,156.1,556.8,156.6z M555.7,152.4c-0.3-1-1.1-1.7-2.2-1.7c-1.4,0-2.2,1.2-2.3,2.5h4.6
		C555.8,152.8,555.8,152.6,555.7,152.4z"/>
	<path class="st10" d="M564.8,156.9c-0.4,0.6-1.3,1.3-3,1.3c-0.2,0-1.5,0-2.4-0.6c-0.1-0.1-0.3-0.2-0.6-0.5
		c-0.6-0.7-0.7-1.4-0.7-1.7l1.5-0.2c0,0.5,0.1,1,0.4,1.4c0.5,0.5,1.1,0.6,1.8,0.6c0.2,0,1,0,1.5-0.5c0.4-0.3,0.4-0.7,0.4-0.9
		c0-0.1,0-0.4-0.2-0.6c-0.3-0.5-1.1-0.6-1.5-0.7l-0.8-0.2c-1-0.2-1.5-0.4-1.9-0.6c-0.6-0.4-1-0.9-1-1.7c0-0.2,0-0.8,0.4-1.3
		c0.8-1.1,2.4-1.1,2.7-1.1c1.7,0,2.6,0.8,3,1.4c0.3,0.5,0.4,1,0.4,1.2l-1.5,0.2c0-0.4,0-0.6-0.1-0.7c-0.2-0.4-0.9-1-2-1
		c-1.1,0-1.6,0.7-1.6,1.2c0,0.1,0,0.2,0.1,0.4c0.3,0.4,0.9,0.6,1.8,0.8l0.8,0.2c0.2,0.1,0.5,0.1,0.7,0.2c1.1,0.3,1.9,0.9,1.9,2.1
		C565.2,155.8,565.2,156.4,564.8,156.9z"/>
</g>
<g class="st3">
	<path class="st10" d="M459.8,170.8c-0.4,0.1-0.9,0.2-1.8,0.2h-3.5v5.1H453v-12h5.2c0.9,0,1.7,0,2.5,0.5c1.3,0.8,1.4,2.4,1.4,2.9
		C462.1,169,461.4,170.4,459.8,170.8z M460.4,166.6c-0.2-0.6-0.7-0.9-1.2-1.1c-0.4-0.1-0.6-0.1-1-0.1h-3.7v4.1h3.3
		c0.4,0,0.9,0,1.3-0.1c1-0.3,1.4-1.1,1.4-2.1C460.5,167.3,460.5,167,460.4,166.6z"/>
	<path class="st10" d="M469.6,174.7c-0.4,0.6-1.3,1.6-3.1,1.6c-0.8,0-1.4-0.2-1.7-0.3c-1-0.4-2.2-1.5-2.2-4c0-1.5,0.5-2.3,0.9-2.8
		c0.7-0.9,1.8-1.4,3-1.4c0.4,0,0.9,0.1,1.3,0.2c0.5,0.2,1.5,0.6,2,1.9c0.2,0.5,0.4,1.2,0.4,2.4h-6.1c0,1.4,0.7,2.2,1.2,2.6
		c0.4,0.3,0.9,0.4,1.4,0.4c0.7,0,1.1-0.3,1.3-0.5c0.1-0.1,0.3-0.3,0.4-0.5c0.2-0.4,0.3-0.7,0.3-0.8l1.4,0.2
		C470.1,173.8,469.9,174.3,469.6,174.7z M468.6,170.5c-0.3-1-1.1-1.7-2.2-1.7c-1.4,0-2.2,1.2-2.3,2.5h4.6
		C468.7,170.9,468.6,170.7,468.6,170.5z"/>
	<path class="st10" d="M474.7,169.4c-0.8,0.1-1.4,0.7-1.6,1.5c-0.1,0.4-0.1,0.7-0.1,1.5v3.7h-1.4v-8h1.4v1.5
		c0.2-0.4,0.4-0.7,0.7-0.9c0.3-0.3,1-0.6,2-0.6v1.5C475.2,169.3,474.9,169.4,474.7,169.4z"/>
	<path class="st10" d="M482.7,175c-0.4,0.6-1.3,1.3-3,1.3c-0.2,0-1.5,0-2.4-0.6c-0.1-0.1-0.3-0.2-0.6-0.5c-0.6-0.7-0.7-1.4-0.7-1.7
		l1.5-0.2c0,0.5,0.1,1,0.4,1.4c0.5,0.5,1.1,0.6,1.8,0.6c0.2,0,1,0,1.5-0.5c0.4-0.3,0.4-0.7,0.4-0.9c0-0.1,0-0.4-0.2-0.6
		c-0.3-0.5-1.1-0.6-1.5-0.7l-0.8-0.2c-1-0.2-1.5-0.4-1.9-0.6c-0.6-0.4-1-0.9-1-1.7c0-0.2,0-0.8,0.4-1.3c0.8-1.1,2.4-1.1,2.7-1.1
		c1.7,0,2.6,0.8,3,1.4c0.3,0.5,0.4,1,0.4,1.2l-1.5,0.2c0-0.4,0-0.6-0.1-0.7c-0.2-0.4-0.9-1-2-1c-1.1,0-1.6,0.7-1.6,1.2
		c0,0.1,0,0.2,0.1,0.4c0.3,0.4,0.9,0.6,1.8,0.8l0.8,0.2c0.2,0.1,0.5,0.1,0.7,0.2c1.1,0.3,1.9,0.9,1.9,2.1
		C483,174,483,174.5,482.7,175z"/>
	<path class="st10" d="M490.8,175c-0.4,0.5-1.3,1.3-3,1.3c-0.5,0-1.8-0.1-2.8-1.1c-0.5-0.5-1.2-1.5-1.2-3.2c0-1,0.3-2.1,0.9-2.9
		c0.8-1,1.8-1.4,3.1-1.4c0.5,0,1.1,0.1,1.6,0.3c0.9,0.4,2.3,1.5,2.3,4C491.7,172.5,491.7,173.9,490.8,175z M489.9,170
		c-0.1-0.2-0.3-0.5-0.5-0.6c-0.6-0.5-1.2-0.5-1.5-0.5c-2.6,0-2.5,2.8-2.5,3.3c0,0.4,0.1,0.7,0.1,0.8c0.1,0.6,0.5,2.3,2.4,2.3
		c0.4,0,1.3-0.1,1.9-1c0.5-0.8,0.5-2,0.5-2.2C490.3,171.8,490.3,170.8,489.9,170z"/>
	<path class="st10" d="M498.5,176V171c0-0.2,0.1-1-0.6-1.5c-0.2-0.2-0.6-0.4-1.2-0.4c-0.6,0-1.1,0.2-1.5,0.6
		c-0.1,0.1-0.3,0.4-0.5,0.7c-0.2,0.4-0.2,0.7-0.2,1.1v4.5h-1.4v-8h1.4v1.2c0.2-0.3,0.3-0.5,0.4-0.6c0.3-0.3,1-0.9,2.1-0.9
		c0.4,0,1.6,0.1,2.3,1.1c0.5,0.7,0.5,1.5,0.5,2.4v4.8H498.5z"/>
	<path class="st10" d="M508,176.2c-0.1,0-0.5,0-0.8-0.2c-0.1-0.1-0.2-0.3-0.3-0.3c-0.2-0.3-0.2-0.5-0.3-0.7
		c-0.4,0.4-1.2,1.3-2.7,1.3c-0.5,0-0.9-0.1-1.1-0.2c-1-0.3-1.6-1.1-1.6-2.1c0-0.4,0.1-1.1,0.9-1.7c0.8-0.6,2.2-0.8,3.2-0.9l1.2-0.1
		c0-0.2,0-0.4,0-0.7c0-0.6-0.1-1.8-1.8-1.8c-0.3,0-1.3,0-1.6,1c-0.1,0.3-0.1,0.4-0.1,0.7l-1.4-0.1c0-0.2,0-0.4,0.1-0.8
		c0.3-0.8,1-1.8,2.9-1.8c0.2,0,0.7,0,1.3,0.2c0.3,0.1,1.4,0.4,1.8,1.5c0.2,0.4,0.2,0.8,0.2,1.7v2.6c0,0.2,0,0.4,0,0.5
		c0,0.2,0,0.6,0.6,0.6c0.2,0,0.3,0,0.4-0.1v1.1C508.4,176.1,508.2,176.2,508,176.2z M506.5,172.3v-0.2c-0.6,0.1-2.2,0.3-2.9,0.6
		c-0.3,0.1-1,0.4-1,1.2c0,0.6,0.4,1.2,1.5,1.2c0.7,0,2.3-0.3,2.3-2.4C506.5,172.6,506.5,172.5,506.5,172.3z"/>
	<path class="st10" d="M509.9,176v-12h1.3v12H509.9z"/>
	<path class="st10" d="M519.6,174.7c-0.4,0.6-1.3,1.6-3.1,1.6c-0.8,0-1.4-0.2-1.7-0.3c-1-0.4-2.2-1.5-2.2-4c0-1.5,0.5-2.3,0.9-2.8
		c0.7-0.9,1.8-1.4,3-1.4c0.4,0,0.9,0.1,1.3,0.2c0.5,0.2,1.5,0.6,2,1.9c0.2,0.5,0.4,1.2,0.4,2.4H514c0,1.4,0.7,2.2,1.2,2.6
		c0.4,0.3,0.9,0.4,1.4,0.4c0.7,0,1.1-0.3,1.3-0.5c0.1-0.1,0.3-0.3,0.4-0.5c0.2-0.4,0.3-0.7,0.3-0.8l1.4,0.2
		C520.1,173.8,519.9,174.3,519.6,174.7z M518.5,170.5c-0.3-1-1.1-1.7-2.2-1.7c-1.4,0-2.2,1.2-2.3,2.5h4.6
		C518.6,170.9,518.6,170.7,518.5,170.5z"/>
	<path class="st10" d="M527.7,175c-0.4,0.6-1.3,1.3-3,1.3c-0.2,0-1.5,0-2.4-0.6c-0.1-0.1-0.3-0.2-0.6-0.5c-0.6-0.7-0.7-1.4-0.7-1.7
		l1.5-0.2c0,0.5,0.1,1,0.4,1.4c0.5,0.5,1.1,0.6,1.8,0.6c0.2,0,1,0,1.5-0.5c0.4-0.3,0.4-0.7,0.4-0.9c0-0.1,0-0.4-0.2-0.6
		c-0.3-0.5-1.1-0.6-1.5-0.7l-0.8-0.2c-1-0.2-1.5-0.4-1.9-0.6c-0.6-0.4-1-0.9-1-1.7c0-0.2,0-0.8,0.4-1.3c0.8-1.1,2.4-1.1,2.7-1.1
		c1.7,0,2.6,0.8,3,1.4c0.3,0.5,0.4,1,0.4,1.2l-1.5,0.2c0-0.4,0-0.6-0.1-0.7c-0.2-0.4-0.9-1-2-1c-1.1,0-1.6,0.7-1.6,1.2
		c0,0.1,0,0.2,0.1,0.4c0.3,0.4,0.9,0.6,1.8,0.8l0.8,0.2c0.2,0.1,0.5,0.1,0.7,0.2c1.1,0.3,1.9,0.9,1.9,2.1
		C528,174,528,174.5,527.7,175z"/>
</g>
<g class="st3">
	<path class="st4" d="M285.1,72.7l-8.8-13l0.2,13h-2v-16h2l8.7,12.8l-0.1-12.8h1.9v16H285.1z"/>
	<path class="st4" d="M290.3,72.7v-16h2.2v16H290.3z"/>
	<path class="st4" d="M301.7,72.7h-2.1l-5.4-16h2.3l4.2,13.4l4.4-13.4h2.3L301.7,72.7z"/>
	<path class="st4" d="M309.4,72.7v-16h11v1.9h-9v4.9h7.8v1.9h-7.8v5.5h9.2v1.9H309.4z"/>
	<path class="st4" d="M322.8,72.7v-16h2.1v14.1h7.7v1.9H322.8z"/>
</g>
<g class="st3">
	<path class="st4" d="M281.6,87.6c-0.6,0.2-1.2,0.2-2.4,0.2h-4.6v6.8h-2.1v-16h6.9c1.2,0,2.3,0,3.4,0.7c1.8,1.1,1.9,3.2,1.9,3.8
		C284.8,85.1,283.7,87,281.6,87.6z M282.5,82c-0.3-0.7-0.9-1.2-1.6-1.4c-0.5-0.1-0.8-0.1-1.3-0.1h-4.9v5.5h4.5c0.6,0,1.2,0,1.7-0.1
		c1.3-0.3,1.8-1.5,1.8-2.7C282.6,82.9,282.6,82.4,282.5,82z"/>
	<path class="st4" d="M286.5,94.6v-16h2.1v14.1h7.7v1.9H286.5z"/>
</g>
<g class="st3">
	<path class="st4" d="M308.9,94.6l-1.7-4.9h-6.1l-1.8,4.9H297l6.1-16h2.2l5.8,16H308.9z M304.2,81.2l-2.4,6.7h4.8L304.2,81.2z"/>
</g>
<g class="st3">
	<path class="st4" d="M317,80.5v14.1h-2.1V80.5h-4.8v-1.9h11.7v1.9H317z"/>
</g>
<g class="st3">
	<path class="st4" d="M332.5,94.6l-1.7-4.9h-6.1l-1.8,4.9h-2.3l6.1-16h2.2l5.8,16H332.5z M327.8,81.2l-2.4,6.7h4.8L327.8,81.2z"/>
</g>
<g class="st3">
	<path class="st4" d="M471.1,72.7l-8.8-13l0.2,13h-2v-16h2l8.7,12.8l-0.1-12.8h1.9v16H471.1z"/>
	<path class="st4" d="M476.3,72.7v-16h2.2v16H476.3z"/>
	<path class="st4" d="M487.8,72.7h-2.1l-5.4-16h2.3l4.2,13.4l4.4-13.4h2.3L487.8,72.7z"/>
	<path class="st4" d="M495.5,72.7v-16h11v1.9h-9v4.9h7.8v1.9h-7.8v5.5h9.2v1.9H495.5z"/>
	<path class="st4" d="M508.9,72.7v-16h2.1v14.1h7.7v1.9H508.9z"/>
</g>
<g class="st3">
	<path class="st4" d="M478.6,92c-0.9,1.2-2.8,3-6.4,3c-1,0-3.4-0.1-5.5-2c-1.1-1-2.5-2.9-2.5-6.4c0-0.9,0-3.7,2-5.9
		c1.5-1.7,3.8-2.5,6.1-2.5c1.1,0,2.2,0.2,3.2,0.6c3.3,1.3,4.9,4.3,4.9,7.7C480.3,87.3,480.2,89.8,478.6,92z M476.7,82
		c-1.5-2-3.6-2.1-4.5-2.1c-2.6,0-3.9,1.3-4.5,2.2c-0.9,1.3-1.2,3-1.2,4.5c0,2.1,0.6,3.5,1.1,4.2c0.4,0.6,0.8,1,1,1.2
		c0.7,0.6,1.2,0.8,1.5,0.9c0.4,0.2,1.1,0.4,2.2,0.4c0.4,0,1.4,0,2.4-0.5c1.5-0.7,3.3-2.6,3.3-6.4C478,85.9,478,83.7,476.7,82z"/>
	<path class="st4" d="M493.7,94.6l-4.4-6.8h-4.1v6.8h-2.1v-16h6c0.5,0,1,0,1.5,0c2.2,0.1,3.3,0.8,3.9,1.6c0.4,0.5,1,1.5,1,3.1
		c0,0.7-0.1,2.8-2.1,3.9c-0.4,0.2-0.8,0.4-1.6,0.5l4.5,6.9H493.7z M492.2,80.8c-0.8-0.5-1.8-0.5-2.8-0.5h-4.1V86h4.3
		c1.2,0,2.6,0,3.4-1.1c0.4-0.5,0.5-1,0.5-1.7C493.5,82.8,493.4,81.6,492.2,80.8z"/>
	<path class="st4" d="M512.1,92c-0.9,1.2-2.8,3-6.4,3c-1,0-3.4-0.1-5.5-2c-1.1-1-2.5-2.9-2.5-6.4c0-0.9,0-3.7,2-5.9
		c1.5-1.7,3.8-2.5,6.1-2.5c1.1,0,2.2,0.2,3.2,0.6c3.3,1.3,4.9,4.3,4.9,7.7C513.8,87.3,513.7,89.8,512.1,92z M510.2,82
		c-1.5-2-3.6-2.1-4.5-2.1c-2.6,0-3.9,1.3-4.5,2.2c-0.9,1.3-1.2,3-1.2,4.5c0,2.1,0.6,3.5,1.1,4.2c0.4,0.6,0.8,1,1,1.2
		c0.7,0.6,1.2,0.8,1.5,0.9c0.4,0.2,1.1,0.4,2.2,0.4c0.4,0,1.4,0,2.4-0.5c1.5-0.7,3.3-2.6,3.3-6.4C511.5,85.9,511.5,83.7,510.2,82z"
		/>
</g>
</svg>
